<svg width="88" height="44" viewBox="0 0 88 44" version="1.1" xmlns="http://www.w3.org/2000/svg"
  xmlns:svg="http://www.w3.org/2000/svg">
  <defs>
    <style type="text/css" id="current-color-scheme">
      .ColorScheme-Text {
        color: #31363b;
        stop-color: #31363b;
      }

      .ColorScheme-Background {
        color: #eff0f1;
        stop-color: #eff0f1;
      }

      .ColorScheme-Highlight {
        color: #3daee9;
        stop-color: #3daee9;
      }

      .ColorScheme-ViewText {
        color: #31363b;
        stop-color: #31363b;
      }

      .ColorScheme-ViewBackground {
        color: #fcfcfc;
        stop-color: #fcfcfc;
      }

      .ColorScheme-ViewHover {
        color: #93cee9;
        stop-color: #93cee9;
      }

      .ColorScheme-ViewFocus {
        color: #3daee9;
        stop-color: #3daee9;
      }

      .ColorScheme-ButtonText {
        color: #31363b;
        stop-color: #31363b;
      }

      .ColorScheme-ButtonBackground {
        color: #eff0f1;
        stop-color: #eff0f1;
      }

      .ColorScheme-ButtonHover {
        color: #93cee9;
        stop-color: #93cee9;
      }

      .ColorScheme-ButtonFocus {
        color: #3daee9;
        stop-color: #3daee9;
      }
    </style>
  </defs>
  <g id="topleft">
    <path d="M 0,6 H 1 5 6 V 5 4 1 0 H 5 1 V 1 H 0 v 3 1 z" class="ColorScheme-Background" fill="currentColor" />
    <path d="M 0,6 H 1 V 3 2 1 H 2 3 6 V 0 H 3 2 1 V 1 H 0 v 1 1 z" class="ColorScheme-Text" fill="currentColor"
      opacity="0.2" />
  </g>
  <g id="top">
    <rect width="32" height="6" x="6" y="0" class="ColorScheme-Background" fill="currentColor" />
    <rect width="32" height="1" x="6" y="0" class="ColorScheme-Text" fill="currentColor" opacity="0.2" />
  </g>
  <g id="topright">
    <path d="m 38,0 v 1 4 1 h 1 1 3 1 V 5 1 H 43 V 0 h -3 -1 z" class="ColorScheme-Background" fill="currentColor" />
    <path d="m 38,0 v 1 h 3 1 1 v 1 1 3 h 1 V 3 2 1 H 43 V 0 h -1 -1 z" class="ColorScheme-Text" fill="currentColor"
      opacity="0.2" />
  </g>
  <g id="left">
    <rect width="6" height="32" x="0" y="6" class="ColorScheme-Background" fill="currentColor" />
    <rect width="1" height="32" x="0" y="6" class="ColorScheme-Text" fill="currentColor" opacity="0.2" />
  </g>
  <rect id="center" width="32" height="32" x="6" y="6" class="ColorScheme-Background" fill="currentColor" />
  <g id="right">
    <rect width="6" height="32" x="38" y="6" class="ColorScheme-Background" fill="currentColor" />
    <rect width="1" height="32" x="43" y="6" class="ColorScheme-Text" fill="currentColor" opacity="0.2" />
  </g>
  <g id="bottomleft">
    <path d="M 6,44 V 43 39 38 H 5 4 1 0 v 1 4 h 1 v 1 h 3 1 z" class="ColorScheme-Background" fill="currentColor" />
    <path d="M 6,44 V 43 H 3 2 1 V 42 41 38 H 0 v 3 1 1 h 1 v 1 h 1 1 z" class="ColorScheme-Text" fill="currentColor"
      opacity="0.2" />
  </g>
  <g id="bottom">
    <rect width="32" height="6" x="6" y="38" class="ColorScheme-Background" fill="currentColor" />
    <rect width="32" height="1" x="6" y="43" class="ColorScheme-Text" fill="currentColor" opacity="0.2" />
  </g>
  <g id="bottomright">
    <path d="m 44,38 h -1 -4 -1 v 1 1 3 1 h 1 4 v -1 h 1 v -3 -1 z" class="ColorScheme-Background"
      fill="currentColor" />
    <path d="m 44,38 h -1 v 3 1 1 h -1 -1 -3 v 1 h 3 1 1 v -1 h 1 v -1 -1 z" class="ColorScheme-Text"
      fill="currentColor" opacity="0.2" />
  </g>
  <rect id="hint-top-margin" width="4" height="6" x="20" y="0" fill="#ff00ff" />
  <rect id="hint-left-margin" width="6" height="4" x="0" y="20" fill="#ff00ff" />
  <rect id="hint-right-margin" width="6" height="4" x="38" y="20" fill="#ff00ff" />
  <rect id="hint-bottom-margin" width="4" height="6" x="20" y="38" fill="#ff00ff" />
  <path id="mask-topleft" d="m 45,0 v 1 h -1 v 5 h 6 V 0 Z" />
  <rect id="mask-top" width="32" height="6" x="50" y="0" />
  <path id="mask-topright" d="m 82,0 v 6 h 6 V 1 H 87 V 0 Z" />
  <rect id="mask-left" width="6" height="32" x="44" y="6" />
  <rect id="mask-center" width="32" height="32" x="50" y="6" />
  <rect id="mask-right" width="6" height="32" x="82" y="6" />
  <path id="mask-bottomleft" d="m 44,38 v 5 h 1 v 1 h 5 v -6 z" />
  <rect id="mask-bottom" width="32" height="6" x="50" y="38" />
  <path id="mask-bottomright" d="m 82,38 v 6 h 5 v -1 h 1 v -5 z" />
  <circle id="hint-tile-center" cx="1" cy="1" r="1" fill="#ff6600" />
</svg>