<?xml version="1.0" encoding="UTF-8" standalone="no"?>
<svg width="126" height="68" viewBox="0 0 126 68" version="1.1" id="svg1" sodipodi:docname="background.svg"
   inkscape:version="1.3.2 (091e20e, 2023-11-25, custom)" xmlns:inkscape="http://www.inkscape.org/namespaces/inkscape"
   xmlns:sodipodi="http://sodipodi.sourceforge.net/DTD/sodipodi-0.dtd" xmlns:xlink="http://www.w3.org/1999/xlink"
   xmlns="http://www.w3.org/2000/svg" xmlns:svg="http://www.w3.org/2000/svg">
   <defs id="defs14">
      <!-- Linear Before -->
      <linearGradient id="linearGradientBefore" inkscape:collect="always">
         <stop style="stop-color:#000000;stop-opacity:1;" offset="0.66" id="stop1" />
         <stop style="stop-color:#000000;stop-opacity:0;" offset="1" id="stop2" />
      </linearGradient>
      <linearGradient inkscape:collect="always" xlink:href="#linearGradientBefore" id="linearGradient1" x1="92" y1="17"
         x2="92" y2="11" gradientUnits="userSpaceOnUse" />
      <linearGradient inkscape:collect="always" xlink:href="#linearGradientBefore" id="linearGradient2" x1="74" y1="35"
         x2="68" y2="35" gradientUnits="userSpaceOnUse" />
      <linearGradient inkscape:collect="always" xlink:href="#linearGradientBefore" id="linearGradient3" x1="110" y1="35"
         x2="116" y2="35" gradientUnits="userSpaceOnUse" />
      <linearGradient inkscape:collect="always" xlink:href="#linearGradientBefore" id="linearGradient4" x1="92" y1="53"
         x2="92" y2="59" gradientUnits="userSpaceOnUse" />
      <!-- Radial Before -->
      <radialGradient inkscape:collect="always" xlink:href="#linearGradientBefore" id="radialGradient1" cx="74" cy="17"
         r="6" gradientUnits="userSpaceOnUse" />
      <radialGradient inkscape:collect="always" xlink:href="#linearGradientBefore" id="radialGradient2" cx="110" cy="17"
         r="6" gradientUnits="userSpaceOnUse" />
      <radialGradient inkscape:collect="always" xlink:href="#linearGradientBefore" id="radialGradient3" cx="74" cy="53"
         r="6" gradientUnits="userSpaceOnUse" />
      <radialGradient inkscape:collect="always" xlink:href="#linearGradientBefore" id="radialGradient4" cx="110" cy="53"
         r="6" gradientUnits="userSpaceOnUse" />
      <!-- Linear After -->
      <linearGradient id="linearGradientAfter" inkscape:collect="always">
         <stop style="stop-color:#000000;stop-opacity:1;" offset="0.57" id="stop3" />
         <stop style="stop-color:#000000;stop-opacity:0;" offset="1" id="stop4" />
      </linearGradient>
      <linearGradient inkscape:collect="always" xlink:href="#linearGradientAfter" id="linearGradient5" x1="92" y1="17"
         x2="92" y2="10" gradientUnits="userSpaceOnUse" />
      <linearGradient inkscape:collect="always" xlink:href="#linearGradientAfter" id="linearGradient6" x1="74" y1="35"
         x2="67" y2="35" gradientUnits="userSpaceOnUse" />
      <linearGradient inkscape:collect="always" xlink:href="#linearGradientAfter" id="linearGradient7" x1="110" y1="35"
         x2="117" y2="35" gradientUnits="userSpaceOnUse" />
      <linearGradient inkscape:collect="always" xlink:href="#linearGradientAfter" id="linearGradient8" x1="92" y1="53"
         x2="92" y2="60" gradientUnits="userSpaceOnUse" />
      <!-- Radial After -->
      <radialGradient inkscape:collect="always" xlink:href="#linearGradientAfter" id="radialGradient5" cx="74" cy="17"
         r="7" gradientUnits="userSpaceOnUse" />
      <radialGradient inkscape:collect="always" xlink:href="#linearGradientAfter" id="radialGradient6" cx="110" cy="17"
         r="7" gradientUnits="userSpaceOnUse" />
      <radialGradient inkscape:collect="always" xlink:href="#linearGradientAfter" id="radialGradient7" cx="74" cy="53"
         r="7" gradientUnits="userSpaceOnUse" />
      <radialGradient inkscape:collect="always" xlink:href="#linearGradientAfter" id="radialGradient8" cx="110" cy="53"
         r="7" gradientUnits="userSpaceOnUse" />
   </defs>
   <sodipodi:namedview id="namedview1" pagecolor="#000000" bordercolor="#666666" borderopacity="1.0"
      inkscape:showpageshadow="2" inkscape:pageopacity="0.0" inkscape:pagecheckerboard="true"
      inkscape:deskcolor="#d1d1d1" inkscape:zoom="21.031746" inkscape:cx="91.266794" inkscape:cy="57.746039"
      inkscape:window-width="1920" inkscape:window-height="1057" inkscape:window-x="-8" inkscape:window-y="-8"
      inkscape:window-maximized="1" inkscape:current-layer="layer1" showguides="true" />
   <style id="style1">
      .ColorScheme-ViewFocus {
         color: #111416;
      }
   </style>
   <g inkscape:label="Layer 1" inkscape:groupmode="layer" id="layer1">
      <!-- Reference -->
      <path d="m 10,16 q 0,-6 6,-6 v 6 z" fill="#ffffff" id="path4" />
      <rect width="36" height="6" x="16" y="10" fill="#ffffff" id="rect4" />
      <path d="m 52,10 q 6,0 6,6 h -6 z" fill="#ffffff" id="path5" />
      <rect width="6" height="36" x="10" y="16" fill="#ffffff" id="rect5" />
      <rect width="36" height="36" x="16" y="16" fill="#ffffff" id="rect6" />
      <rect width="6" height="36" x="52" y="16" fill="#ffffff" id="rect7" />
      <path d="m 10,52 q 0,6 6,6 v -6 z" fill="#ffffff" id="path7" />
      <rect width="36" height="6" x="16" y="52" fill="#ffffff" id="rect8" />
      <path d="m 52,52 h 6 q 0,6 -6,6 z" fill="#ffffff" id="path8" />
      <!-- Background Elements -->
      <g id="topleft" class="ColorScheme-ViewFocus" style="fill:currentColor">
         <path d="m 10,16 q 0,-6 6,-6 v 1 q -5,0 -5,5 z" opacity="0.65" id="path9" />
         <path d="m 11,16 q 0,-5 5,-5 v 5 z" id="path10" />
      </g>
      <g id="top" class="ColorScheme-ViewFocus" style="fill:currentColor">
         <rect width="36" height="1" x="16" y="10" opacity="0.65" id="rect10" />
         <rect width="36" height="5" x="16" y="11" id="rect11" />
      </g>
      <g id="topright" class="ColorScheme-ViewFocus" style="fill:currentColor">
         <path d="m 52,10 q 6,0 6,6 h -1 q 0,-5 -5,-5 z" opacity="0.65" id="path11" />
         <path d="m 52,11 q 5,0 5,5 h -5 z" id="path12" />
      </g>
      <g id="left" class="ColorScheme-ViewFocus" style="fill:currentColor">
         <rect width="1" height="36" x="10" y="16" opacity="0.65" id="rect12" />
         <rect width="5" height="36" x="11" y="16" id="rect13" />
      </g>
      <rect id="center" width="36" height="36" x="16" y="16" class="ColorScheme-ViewFocus" style="fill:currentColor" />
      <g id="right" class="ColorScheme-ViewFocus" style="fill:currentColor">
         <rect width="1" height="36" x="57" y="16" opacity="0.65" id="rect14" />
         <rect width="5" height="36" x="52" y="16" id="rect15" />
      </g>
      <g id="bottomleft" class="ColorScheme-ViewFocus" style="fill:currentColor">
         <path d="m 10,52 q 0,6 6,6 v -1 q -5,0 -5,-5 z" opacity="0.65" id="path15" />
         <path d="m 11,52 q 0,5 5,5 v -5 z" id="path16" />
      </g>
      <g id="bottom" class="ColorScheme-ViewFocus" style="fill:currentColor">
         <rect width="36" height="1" x="16" y="57" opacity="0.65" id="rect16" />
         <rect width="36" height="5" x="16" y="52" id="rect17" />
      </g>
      <g id="bottomright" class="ColorScheme-ViewFocus" style="fill:currentColor">
         <path d="m 58,52 q 0,6 -6,6 v -1 q 5,0 5,-5 z" opacity="0.65" id="path17" />
         <path d="m 57,52 q 0,5 -5,5 v -5 z" id="path18" />
      </g>
      <!-- Margin Hints -->
      <rect id="hint-top-margin" width="2" height="6" x="33" y="10" fill="#800080" />
      <rect id="hint-left-margin" width="6" height="2" x="10" y="33" fill="#800080" />
      <rect id="hint-right-margin" width="6" height="2" x="52" y="33" fill="#800080" />
      <rect id="hint-bottom-margin" width="2" height="6" x="33" y="52" fill="#800080" />
      <!-- After -->
      <path id="after0" d="m 67,17 q 0,-7 7,-7 v 7 z" opacity="0.15" style="fill:url(#radialGradient5)" />
      <rect id="after1" width="36" height="7" x="74" y="10" opacity="0.15" style="fill:url(#linearGradient5)" />
      <path id="after2" d="m 110,10 q 7,0 7,7 h -7 z" opacity="0.15" style="fill:url(#radialGradient6)" />
      <rect id="after3" width="7" height="36" x="67" y="17" opacity="0.15" style="fill:url(#linearGradient6)" />
      <rect id="after4" width="36" height="36" x="74" y="17" opacity="0.15" />
      <rect id="after5" width="7" height="36" x="110" y="17" opacity="0.15" style="fill:url(#linearGradient7)" />
      <path id="after6" d="m 67,53 q 0,7 7,7 v -7 z" opacity="0.15" style="fill:url(#radialGradient7)" />
      <rect id="after7" width="36" height="7" x="74" y="53" opacity="0.15" style="fill:url(#linearGradient8)" />
      <path id="after8" d="m 110,53 h 7 q 0,7 -7,7 z" opacity="0.15" style="fill:url(#radialGradient8)" />
      <!-- Before -->
      <path id="before0" d="m 68,17 q 0,-6 6,-6 v 6 z" opacity="0.3" style="fill:url(#radialGradient1)" />
      <rect id="before1" width="36" height="6" x="74" y="11" opacity="0.3" style="fill:url(#linearGradient1)" />
      <path id="before2" d="m 110,11 q 6,0 6,6 h -6 z" opacity="0.3" style="fill:url(#radialGradient2)" />
      <rect id="before3" width="6" height="36" x="68" y="17" opacity="0.3" style="fill:url(#linearGradient2)" />
      <rect id="before4" width="36" height="36" x="74" y="17" opacity="0.3" />
      <rect id="before5" width="6" height="36" x="110" y="17" opacity="0.3" style="fill:url(#linearGradient3)" />
      <path id="before6" d="m 68,53 q 0,6 6,6 v -6 z" opacity="0.3" style="fill:url(#radialGradient3)" />
      <rect id="before7" width="36" height="6" x="74" y="53" opacity="0.3" style="fill:url(#linearGradient4)" />
      <path id="before8" d="m 110,53 h 6 q 0,6 -6,6 z" opacity="0.3" style="fill:url(#radialGradient4)" />
      <!-- Reference -->
      <path d="m 68,16 q 0,-6 6,-6 v 6 z" fill="#ffffff" id="path19" />
      <rect width="36" height="6" x="74" y="10" fill="#ffffff" id="rect19" />
      <path d="m 110,10 q 6,0 6,6 h -6 z" fill="#ffffff" id="path20" />
      <rect width="6" height="36" x="68" y="16" fill="#ffffff" id="rect20" />
      <rect width="36" height="36" x="74" y="16" fill="#ffffff" id="rect21" />
      <rect width="6" height="36" x="110" y="16" fill="#ffffff" id="rect22" />
      <path d="m 68,52 q 0,6 6,6 v -6 z" fill="#ffffff" id="path22" />
      <rect width="36" height="6" x="74" y="52" fill="#ffffff" id="rect23" />
      <path d="m 110,52 h 6 q 0,6 -6,6 z" fill="#ffffff" id="path23" />
      <!-- Box -->

      <path d="m 66,8 h 8 v2 q -6,0 -6,6 h -2 z" />
      <rect width="36" height="2" x="74" y="58" />
      <path d="m 110,8 h 8 v 8 h -2 q 0,-6 -6,-6 z" />
      <rect width="36" height="2" x="74" y="8" />
      <path d="m 66,52 h 2 q 0,6 6,6 v 2 h -8 z" />
      <rect width="2" height="36" x="66" y="16" />
      <path d="m 116,52 h 2 v 8 h -8 v -2 q 6,0 6,-6  z" />
      <rect width="2" height="36" x="116" y="16" />
   </g>
</svg>