<?xml version="1.0" encoding="UTF-8" standalone="no"?>
<svg width="126" height="68" viewBox="0 0 126 68" version="1.1" id="svg1" sodipodi:docname="background.svg"
   inkscape:version="1.3.2 (091e20e, 2023-11-25, custom)" xmlns:inkscape="http://www.inkscape.org/namespaces/inkscape"
   xmlns:sodipodi="http://sodipodi.sourceforge.net/DTD/sodipodi-0.dtd" xmlns:xlink="http://www.w3.org/1999/xlink"
   xmlns="http://www.w3.org/2000/svg" xmlns:svg="http://www.w3.org/2000/svg">
   <sodipodi:namedview id="namedview1" pagecolor="#000000" bordercolor="#666666" borderopacity="1.0"
      inkscape:showpageshadow="2" inkscape:pageopacity="0.0" inkscape:pagecheckerboard="true"
      inkscape:deskcolor="#d1d1d1" inkscape:zoom="8" inkscape:cx="82.5625" inkscape:cy="42.4375"
      inkscape:window-width="1918" inkscape:window-height="1041" inkscape:window-x="1913" inkscape:window-y="0"
      inkscape:window-maximized="0" inkscape:current-layer="layer1" showguides="true" />
   <defs id="defs1">
      <linearGradient id="linearGradientAfter" inkscape:collect="always">
         <stop style="stop-color:#000000;stop-opacity:1;" offset="0.25" id="stop6" />
         <stop style="stop-color:#000000;stop-opacity:0;" offset="1" id="stop7" />
      </linearGradient>
      <linearGradient id="linearGradientBefore" inkscape:collect="always">
         <stop style="stop-color:#000000;stop-opacity:1;" offset="0.66" id="stop1" />
         <stop style="stop-color:#000000;stop-opacity:0;" offset="1" id="stop2" />
      </linearGradient>
      <linearGradient inkscape:collect="always" xlink:href="#linearGradientBefore" id="linearGradient1" x1="74"
         y1="52.5" x2="68" y2="52.5" gradientUnits="userSpaceOnUse" />
      <linearGradient inkscape:collect="always" xlink:href="#linearGradientBefore" id="linearGradient2" x1="92" y1="53"
         x2="92" y2="59" gradientUnits="userSpaceOnUse" />
      <linearGradient inkscape:collect="always" xlink:href="#linearGradientBefore" id="linearGradient3" x1="110"
         y1="52.5" x2="116" y2="52.5" gradientUnits="userSpaceOnUse" />
      <linearGradient inkscape:collect="always" xlink:href="#linearGradientAfter" id="linearGradient4" x1="74" y1="53"
         x2="66" y2="53" gradientUnits="userSpaceOnUse" />
      <linearGradient inkscape:collect="always" xlink:href="#linearGradientAfter" id="linearGradient5" x1="92" y1="54"
         x2="92" y2="62" gradientUnits="userSpaceOnUse" />
      <linearGradient inkscape:collect="always" xlink:href="#linearGradientAfter" id="linearGradient6" x1="110" y1="53"
         x2="118" y2="53" gradientUnits="userSpaceOnUse" />
      <linearGradient inkscape:collect="always" xlink:href="#linearGradientAfter" id="linearGradient7" x1="74" y1="35"
         x2="66" y2="35" gradientUnits="userSpaceOnUse" />
      <radialGradient inkscape:collect="always" xlink:href="#linearGradientBefore" id="radialGradient1" cx="74" cy="53"
         r="6" gradientUnits="userSpaceOnUse" />
      <radialGradient inkscape:collect="always" xlink:href="#linearGradientBefore" id="radialGradient2" cx="110" cy="53"
         r="6" gradientUnits="userSpaceOnUse" />
      <radialGradient inkscape:collect="always" xlink:href="#linearGradientAfter" id="radialGradient3" cx="74" cy="54"
         r="8" gradientUnits="userSpaceOnUse" />
      <radialGradient inkscape:collect="always" xlink:href="#linearGradientAfter" id="radialGradient4" cx="110" cy="54"
         r="8" gradientUnits="userSpaceOnUse" />
      <radialGradient inkscape:collect="always" xlink:href="#linearGradientAfter" id="radialGradient5" cx="74" cy="18"
         r="8" gradientUnits="userSpaceOnUse" />
      <clipPath clipPathUnits="userSpaceOnUse" id="clipPath1">
         <rect width="36" height="4" x="74" y="58" />
      </clipPath>
      <clipPath clipPathUnits="userSpaceOnUse" id="clipPath2">
         <path d="m 64,52 h 4 q 0,6 6,6 v 4 H 64 Z" />
      </clipPath>
      <clipPath clipPathUnits="userSpaceOnUse" id="clipPath3">
         <path d="m 110,58 q 6,0 6,-6 h 4 v 10 h -10 z" />
      </clipPath>
      <clipPath clipPathUnits="userSpaceOnUse" id="clipPath4">
         <rect width="2" height="36" x="66" y="16" />
      </clipPath>
   </defs>
   <g inkscape:label="Layer 1" inkscape:groupmode="layer" id="layer1">
      <!-- Background Elements -->
      <path id="topleft" d="m 10,16 q 0,-6 6,-6 v 6 z" fill="#111416" />
      <rect id="top" width="36" height="6" x="16" y="10" fill="#111416" />
      <path id="topright" d="m 52,10 q 6,0 6,6 h -6 z" fill="#111416" />
      <rect id="left" width="6" height="36" x="10" y="16" fill="#111416" />
      <rect id="center" width="36" height="36" x="16" y="16" fill="#111416" />
      <rect id="right" width="6" height="36" x="52" y="16" fill="#111416" />
      <path id="bottomleft" d="m 10,52 q 0,6 6,6 v -6 z" fill="#111416" />
      <rect id="bottom" width="36" height="6" x="16" y="52" fill="#111416" />
      <path id="bottomright" d="m 52,52 h 6 q 0,6 -6,6 z" fill="#111416" />
      <!-- Margin Hints -->
      <rect id="hint-top-margin" width="2" height="6" x="33" y="10" fill="#800080" />
      <rect id="hint-left-margin" width="6" height="2" x="10" y="33" fill="#800080" />
      <rect id="hint-right-margin" width="6" height="2" x="52" y="33" fill="#800080" />
      <rect id="hint-bottom-margin" width="2" height="6" x="33" y="52" fill="#800080" />
      <!-- Shadow -->
      <!-- After -->
      <!-- <path id="shadow-after-topleft" d="m 66,18 q 0,-8 8,-8 v 8 z" fill="#00ff00" />
      <path id="shadow-after-topright" d="m 110,10 q 8,0 8,8 h -8 z" fill="#00ff00" />
      <rect id="shadow-after-left" width="8" height="36" x="66" y="18" fill="#00ff00" />
      <rect id="shadow-after-right" width="8" height="36" x="110" y="18" fill="#00ff00" /> -->
      <!-- Shadow -->
      <g id="shadow-left" clip-path="url(#clipPath4)">
         <path d="M 66.144531 16 C 66.048651 16.619214 66 17.284906 66 18 L 74 18 L 74 16 L 66.144531 16 z"
            opacity="0.15" style="fill:url(#radialGradient5)" />
         <rect width="8" height="34" x="66" y="18" opacity="0.15" style="fill:url(#linearGradient7)" />
      </g>
      <g id="shadow-bottomleft" clip-path="url(#clipPath2)">
         <rect class="after" width="8" height="2" x="66" y="52" opacity="0.15" style="fill:url(#linearGradient4)" />
         <path class="after" d="m 66,54 q 0,8 8,8 v -8 z" opacity="0.15" style="fill:url(#radialGradient3)" />
         <rect class="before" width="6" height="1" x="68" y="52" opacity="0.3" style="fill:url(#linearGradient1)" />
         <path class="before" d="m 68,53 q 0,6 6,6 v -6 z" opacity="0.3" style="fill:url(#radialGradient1)" />
      </g>
      <g id="shadow-bottom" clip-path="url(#clipPath1)">
         <rect class="after" width="36" height="8" x="74" y="54" opacity="0.15" style="fill:url(#linearGradient5)" />
         <rect class="before" width="36" height="6" x="74" y="53" opacity="0.3" style="fill:url(#linearGradient2)" />
      </g>
      <g id="shadow-bottomright" clip-path="url(#clipPath3)">
         <rect class="after" width="8" height="2" x="110" y="52" opacity="0.15" style="fill:url(#linearGradient6)" />
         <path class="after" d="m 110,54 h 8 q 0,8 -8,8 z" opacity="0.15" style="fill:url(#radialGradient4)" />
         <rect class="before" width="6" height="1" x="110" y="52" opacity="0.3" style="fill:url(#linearGradient3)" />
         <path class="before" d="m 110,53 h 6 q 0,6 -6,6 z" opacity="0.3" style="fill:url(#radialGradient2)" />
      </g>
      <!-- Base -->
      <path id="shadow-base-topleft" d="m 68,16 q 0,-6 6,-6 v 6 z" fill="#ffffff" />
      <rect id="shadow-base-top" width="36" height="6" x="74" y="10" fill="#ffffff" />
      <path id="shadow-base-topright" d="m 110,10 q 6,0 6,6 h -6 z" fill="#ffffff" />
      <rect id="shadow-base-left" width="6" height="36" x="68" y="16" fill="#ffffff" />
      <rect id="shadow-base-center" width="36" height="36" x="74" y="16" fill="#ffffff" />
      <rect id="shadow-base-right" width="6" height="36" x="110" y="16" fill="#ffffff" />
      <path id="shadow-base-bottomleft" d="m 68,52 q 0,6 6,6 v -6 z" fill="#ffffff" />
      <rect id="shadow-base-bottom" width="36" height="6" x="74" y="52" fill="#ffffff" />
      <path id="shadow-base-bottomright" d="m 110,52 h 6 q 0,6 -6,6 z" fill="#ffffff" />
   </g>
</svg>