<svg height="32" width="32" version="1.1" xmlns:xlink="http://www.w3.org/1999/xlink" xmlns="http://www.w3.org/2000/svg"
  xmlns:svg="http://www.w3.org/2000/svg">
  <circle cx="16" cy="16" r="13.334" fill="#5e81ac" />
  <path
    d="M 16 2.666 C 14.155 2.666 12.423 3.017 10.801 3.717 C 9.178 4.417 7.766 5.366 6.566 6.566 C 5.366 7.766 4.417 9.178 3.717 10.801 C 3.596 11.081 3.489 11.367 3.389 11.654 L 5.178 13.443 L 11.867 20.133 L 11.867 21.555 C 11.867 22.317 12.131 22.978 12.66 23.537 C 13.19 24.096 13.837 24.377 14.6 24.377 L 14.6 27.066 L 14.6 29.262 C 15.059 29.308 15.526 29.332 16 29.332 C 17.845 29.332 19.577 28.981 21.199 28.281 C 22.597 27.678 23.839 26.889 24.924 25.914 L 24.199 23.531 C 24.021 22.946 23.692 22.47 23.211 22.104 C 22.73 21.737 22.177 21.555 21.555 21.555 L 20.154 21.555 L 20.154 17.398 C 20.154 17.021 20.031 16.692 19.783 16.414 C 19.535 16.136 19.222 15.998 18.844 15.998 L 10.443 15.998 L 10.443 13.154 L 13.178 13.154 C 13.556 13.154 13.887 13.029 14.172 12.781 C 14.457 12.533 14.6 12.222 14.6 11.844 L 14.6 9.021 L 17.422 9.021 C 18.185 9.021 18.832 8.741 19.361 8.182 C 19.891 7.622 20.156 6.962 20.156 6.199 L 20.156 5.621 L 20.156 3.322 C 18.84 2.887 17.455 2.666 16 2.666 z "
    fill="#a3be8c" />
</svg>