<svg viewBox="0 0 32 32" xmlns="http://www.w3.org/2000/svg" xmlns:svg="http://www.w3.org/2000/svg">
  <defs>
    <style type="text/css" id="current-color-scheme">
      .ColorScheme-Text {
        color: #e2e2e5;
      }
    </style>
  </defs>
  <path
    d="m 7.69,26.667 q -0.989,0 -1.672,-0.683 Q 5.334,25.3 5.334,24.311 q 0,-0.989 0.683,-1.672 0.683,-0.683 1.672,-0.683 0.989,0 1.672,0.683 0.683,0.683 0.683,1.672 0,0.989 -0.683,1.672 -0.683,0.683 -1.672,0.683 z m 8.311,0 q -0.989,0 -1.672,-0.683 -0.683,-0.683 -0.683,-1.672 0,-0.989 0.683,-1.672 0.683,-0.683 1.672,-0.683 0.989,0 1.672,0.683 0.683,0.683 0.683,1.672 0,0.989 -0.683,1.672 -0.683,0.683 -1.672,0.683 z m 8.311,0 q -0.989,0 -1.672,-0.683 -0.683,-0.683 -0.683,-1.672 0,-0.989 0.683,-1.672 0.683,-0.683 1.672,-0.683 0.989,0 1.672,0.683 0.683,0.683 0.683,1.672 0,0.989 -0.683,1.672 -0.683,0.683 -1.672,0.683 z M 7.69,18.356 q -0.989,0 -1.672,-0.683 Q 5.334,16.989 5.334,16 q 0,-0.989 0.683,-1.672 0.683,-0.683 1.672,-0.683 0.989,0 1.672,0.683 0.683,0.683 0.683,1.672 0,0.989 -0.683,1.672 -0.683,0.683 -1.672,0.683 z m 8.311,0 q -0.989,0 -1.672,-0.683 -0.683,-0.683 -0.683,-1.672 0,-0.989 0.683,-1.672 0.683,-0.683 1.672,-0.683 0.989,0 1.672,0.683 0.683,0.683 0.683,1.672 0,0.989 -0.683,1.672 -0.683,0.683 -1.672,0.683 z m 8.311,0 q -0.989,0 -1.672,-0.683 -0.683,-0.683 -0.683,-1.672 0,-0.989 0.683,-1.672 0.683,-0.683 1.672,-0.683 0.989,0 1.672,0.683 0.683,0.683 0.683,1.672 0,0.989 -0.683,1.672 -0.683,0.683 -1.672,0.683 z M 7.69,10.045 q -0.989,0 -1.672,-0.683 Q 5.334,8.678 5.334,7.689 5.334,6.7 6.018,6.017 6.701,5.334 7.69,5.334 q 0.989,0 1.672,0.683 0.683,0.683 0.683,1.672 0,0.989 -0.683,1.672 Q 8.679,10.045 7.69,10.045 Z m 8.311,0 q -0.989,0 -1.672,-0.683 -0.683,-0.683 -0.683,-1.672 0,-0.989 0.683,-1.672 Q 15.012,5.334 16.001,5.334 q 0.989,0 1.672,0.683 0.683,0.683 0.683,1.672 0,0.989 -0.683,1.672 Q 16.99,10.045 16.001,10.045 Z m 8.311,0 q -0.989,0 -1.672,-0.683 -0.683,-0.683 -0.683,-1.672 0,-0.989 0.683,-1.672 0.683,-0.683 1.672,-0.683 0.989,0 1.672,0.683 0.683,0.683 0.683,1.672 0,0.989 -0.683,1.672 Q 25.301,10.045 24.312,10.045 Z"
    class="ColorScheme-Text" fill="currentColor" />
</svg>