<svg width="134" height="134" viewBox="0 0 134 134" version="1.1" xmlns:xlink="http://www.w3.org/1999/xlink"
  xmlns="http://www.w3.org/2000/svg" xmlns:svg="http://www.w3.org/2000/svg">
  <defs>
    <style id="current-color-scheme" type="text/css">
      .ColorScheme-Background {
        color: #2e2e2e;
      }

      .ColorScheme-Text {
        color: #e0e0e0;
      }
    </style>
    <linearGradient id="bg">
      <stop stop-opacity="1" offset="0.7" />
      <stop stop-opacity="0" offset="1" />
    </linearGradient>
    <linearGradient xlink:href="#bg" id="bg-l" x1="15.5" y1="34.5" x2="5.5" y2="34.5" gradientUnits="userSpaceOnUse" />
    <linearGradient xlink:href="#bg" id="bg-r" x1="51.5" y1="34.5" x2="61.5" y2="34.5" gradientUnits="userSpaceOnUse" />
    <radialGradient xlink:href="#bg" id="bg-bl" cx="15.5" cy="52.5" r="10" gradientUnits="userSpaceOnUse" />
    <linearGradient xlink:href="#bg" id="bg-b" x1="33.5" y1="52.5" x2="33.5" y2="62.5" gradientUnits="userSpaceOnUse" />
    <radialGradient xlink:href="#bg" id="bg-br" cx="51.5" cy="52.5" r="10" gradientUnits="userSpaceOnUse" />
    <linearGradient id="ag">
      <stop stop-opacity="1" offset="0.304" />
      <stop stop-opacity="0" offset="1" />
    </linearGradient>
    <radialGradient xlink:href="#ag" id="ag-tl" cx="15.5" cy="19.5" r="11.5" gradientUnits="userSpaceOnUse" />
    <radialGradient xlink:href="#ag" id="ag-tr" cx="51.5" cy="19.5" r="11.5" gradientUnits="userSpaceOnUse" />
    <linearGradient xlink:href="#ag" id="ag-l" x1="15.5" y1="37.5" x2="4" y2="37.5" gradientUnits="userSpaceOnUse" />
    <linearGradient xlink:href="#ag" id="ag-r" x1="51.5" y1="37.5" x2="63" y2="37.5" gradientUnits="userSpaceOnUse" />
    <radialGradient xlink:href="#ag" id="ag-bl" cx="15.5" cy="55.5" r="11.5" gradientUnits="userSpaceOnUse" />
    <linearGradient xlink:href="#ag" id="ag-b" x1="33.5" y1="55.5" x2="33.5" y2="67" gradientUnits="userSpaceOnUse" />
    <radialGradient xlink:href="#ag" id="ag-br" cx="51.5" cy="55.5" r="11.5" gradientUnits="userSpaceOnUse" />
  </defs>
  <path id="topleft" d="m 15.5,5.5 a 10,10 0 0 0 -10,10 h 10 z" fill="#808080" transform="translate(67)" />
  <rect id="top" width="36" height="10" x="15.5" y="5.5" fill="#808080" transform="translate(67)" />
  <path id="topright" d="m 51.5,5.5 a 10,10 0 0 1 10,10 h -10 z" fill="#808080" transform="translate(67)" />
  <rect id="left" width="10" height="36" x="5.5" y="15.5" fill="#808080" transform="translate(67)" />
  <rect id="center" width="36" height="36" x="15.5" y="15.5" fill="#808080" transform="translate(67)" />
  <rect id="right" width="10" height="36" x="51.5" y="15.5" fill="#808080" transform="translate(67)" />
  <path id="bottomleft" d="m 15.5,61.5 a 10,10 0 0 1 -10,-10 h 10 z" fill="#808080" transform="translate(67)" />
  <rect id="bottom" width="36" height="10" x="15.5" y="51.5" fill="#808080" transform="translate(67)" />
  <path id="bottomright" d="m 51.5,61.5 a 10,10 0 0 0 10,-10 h -10 z" fill="#808080" transform="translate(67)" />
  <rect id="hint-top-margin" width="2" height="8" x="99.5" y="5.5" fill="#ff00ff" />
  <rect id="hint-left-margin" width="8" height="2" x="72.5" y="32.5" fill="#ff00ff" />
  <rect id="hint-right-margin" width="8" height="2" x="120.5" y="32.5" fill="#ff00ff" />
  <rect id="hint-bottom-margin" width="2" height="8" x="99.5" y="53.5" fill="#ff00ff" />
  <rect id="hint-top-inset" width="2" height="0.001" x="99.5" y="5.5" fill="#00ff00" />
  <rect id="hint-left-inset" width="0.001" height="2" x="72.5" y="32.5" fill="#00ff00" />
  <rect id="hint-right-inset" width="0.001" height="2" x="123.5" y="32.5" fill="#00ff00" />
  <rect id="hint-bottom-inset" width="2" height="0.001" x="99.5" y="56.5" fill="#00ff00" />
  <g id="shadow-topleft">
    <rect width="15.5" height="15.5" x="0" y="0" fill="none" />
    <path d="M 5.732 13.455 A 11.5 11.5 0 0 0 4.734 15.5 L 5.5 15.5 A 10 10 0 0 1 5.732 13.455 z" fill="url(#ag-tl)"
      opacity="0.15" />
  </g>
  <g id="shadow-top">
    <rect width="36" height="15.5" x="15.5" y="0" fill="none" />
  </g>
  <g id="shadow-topright">
    <rect width="15.5" height="15.5" x="51.5" y="0" fill="none" />
    <path d="M 61.289 13.469 A 10 10 0 0 1 61.5 15.5 L 62.281 15.5 A 11.5 11.5 0 0 0 61.289 13.469 z" fill="url(#ag-tr)"
      opacity="0.15" />
  </g>
  <g id="shadow-left">
    <rect width="15.5" height="36" x="0" y="15.5" fill="none" />
    <path d="M 4.734,15.5 A 11.5,11.5 0 0 0 4,19.5 h 1.5 v -4 z" fill="url(#ag-tl)" opacity="0.15" />
    <rect width="1.5" height="32" x="4" y="19.5" fill="url(#ag-l)" opacity="0.15" />
  </g>
  <g id="shadow-center">
    <rect width="36" height="36" x="15.5" y="15.5" fill="none" />
  </g>
  <g id="shadow-right">
    <rect width="15.5" height="36" x="51.5" y="15.5" fill="none" />
    <path d="M 61.5 15.5 L 61.5 19.5 L 63 19.5 A 11.5 11.5 0 0 0 62.281 15.5 L 61.5 15.5 z " fill="url(#ag-tr)"
      opacity="0.15" />
    <rect width="1.5" height="32" x="61.5" y="19.5" fill="url(#ag-r)" opacity="0.15" />
  </g>
  <g id="shadow-bottomleft">
    <rect width="15.5" height="15.5" x="0" y="51.5" fill="none" />
    <path d="M 5.5 51.5 L 5.5 52.5 L 5.566 52.5 A 10 10 0 0 1 5.5 51.5 z" fill="url(#bg-l)" opacity="0.3" />
    <path d="M 5.5 52.5 A 10 10 0 0 0 15.5 62.5 L 15.5 61.5 A 10 10 0 0 1 5.566 52.5 L 5.5 52.5 z" fill="url(#bg-bl)"
      opacity="0.3" />
    <path d="M 4 51.5 L 4 55.5 L 6.348 55.5 A 10 10 0 0 1 5.5 51.5 L 4 51.5 z" fill="url(#ag-l)" opacity="0.15" />
    <path d="M 4 55.5 A 11.5 11.5 0 0 0 15.5 67 L 15.5 61.5 A 10 10 0 0 1 6.348 55.5 L 4 55.5 z" fill="url(#ag-bl)"
      opacity="0.15" />
  </g>
  <g id="shadow-bottom">
    <rect width="36" height="15.5" x="15.5" y="51.5" fill="none" />
    <rect width="36" height="1" x="15.5" y="61.5" fill="url(#bg-b)" opacity="0.3" />
    <path d="M 15.5 61.5 L 15.5 67 L 51.5 67 L 51.5 61.5 L 15.5 61.5 z" fill="url(#ag-b)" opacity="0.15" />
  </g>
  <g id="shadow-bottomright">
    <rect width="17.5" height="17.5" x="53.5" y="53.5" fill="none" />
    <path d="M 61.5 51.5 A 10 10 0 0 1 61.434 52.5 L 61.5 52.5 L 61.5 51.5 z" fill="url(#bg-r)" opacity="0.3" />
    <path d="M 61.434 52.5 A 10 10 0 0 1 51.5 61.5 L 51.5 62.5 A 10 10 0 0 0 61.5 52.5 L 61.434 52.5 z"
      fill="url(#bg-br)" opacity="0.3" />
    <path d="M 61.5 51.5 A 10 10 0 0 1 60.652 55.5 L 63 55.5 L 63 51.5 L 61.5 51.5 z" fill="url(#ag-r)"
      opacity="0.15" />
    <path d="M 60.652 55.5 A 10 10 0 0 1 51.5 61.5 L 51.5 67 A 11.5 11.5 0 0 0 63 55.5 L 60.652 55.5 z"
      fill="url(#ag-br)" opacity="0.15" />
  </g>
  <rect id="shdow-hint-top-margin" width="2" height="5.5" x="31.5" y="0" fill="#ff00ff" />
  <rect id="shdow-hint-left-margin" width="5.5" height="2" x="0" y="31.5" fill="#ff00ff" />
  <rect id="shdow-hint-right-margin" width="5.5" height="2" x="61.5" y="31.5" fill="#ff00ff" />
  <rect id="shdow-hint-bottom-margin" width="2" height="5.5" x="33.5" y="61.5" fill="#ff00ff" />
  <rect id="shdow-hint-top-inset" width="2" height="5.5" x="33.5" y="0" fill="#00ff00" />
  <rect id="shdow-hint-left-inset" width="5.5" height="2" x="0" y="33.5" fill="#00ff00" />
  <rect id="shdow-hint-right-inset" width="5.5" height="2" x="61.5" y="33.5" fill="#00ff00" />
  <rect id="shdow-hint-bottom-inset" width="2" height="5.5" x="31.5" y="61.5" fill="#00ff00" />
  <path id="mask-topleft" d="m 15.5,6.5 a 10,10 0 0 0 -9,9 h 9 z" transform="translate(0,67)" />
  <rect id="mask-top" width="36" height="10" x="15.5" y="5.5" transform="translate(0,67)" />
  <path id="mask-topright" d="m 51.5,6.5 a 10,10 0 0 1 9,9 h -9 z" transform="translate(0,67)" />
  <rect id="mask-left" width="10" height="36" x="5.5" y="15.5" transform="translate(0,67)" />
  <rect id="mask-center" width="36" height="36" x="15.5" y="15.5" transform="translate(0,67)" />
  <rect id="mask-right" width="10" height="36" x="51.5" y="15.5" transform="translate(0,67)" />
  <path id="mask-bottomleft" d="m 15.5,60.5 a 10,10 0 0 1 -9,-9 h 9 z" transform="translate(0,67)" />
  <rect id="mask-bottom" width="36" height="10" x="15.5" y="51.5" transform="translate(0,67)" />
  <path id="mask-bottomright" d="m 51.5,60.5 a 10,10 0 0 0 9,-9 h -9 z" transform="translate(0,67)" />
</svg>