<svg viewBox="0 0 32 32" version="1.1" xmlns="http://www.w3.org/2000/svg">
  <defs>
    <style type="text/css" id="current-color-scheme">
      .ColorScheme-Text {
        color: #e2e2e5;
      }
    </style>
  </defs>
  <path
    d="m 8.667,21.3 q 1.567,0 3.05,0.35 1.483,0.35 2.95,1.05 V 9.567 q -1.367,-0.8 -2.9,-1.2 -1.533,-0.4 -3.1,-0.4 -1.2,0 -2.383,0.233 -1.183,0.233 -2.283,0.7 v 13.2 q 1.167,-0.4 2.317,-0.6 1.15,-0.2 2.35,-0.2 z m 8.667,1.4 q 1.467,-0.7 2.95,-1.05 1.483,-0.35 3.05,-0.35 1.2,0 2.35,0.2 1.15,0.2 2.317,0.6 V 8.9 Q 26.9,8.433 25.717,8.2 24.533,7.967 23.333,7.967 q -1.567,0 -3.1,0.4 -1.533,0.4 -2.9,1.2 z M 16,26.633 q -1.6,-1.267 -3.467,-1.967 -1.867,-0.7 -3.867,-0.7 -1.767,0 -3.7,0.667 Q 3.033,25.3 1.333,26.7 V 7.367 q 1.467,-1 3.45,-1.533 Q 6.767,5.3 8.667,5.3 10.6,5.3 12.45,5.8 14.3,6.3 16,7.3 q 1.7,-1 3.55,-1.5 1.85,-0.5 3.783,-0.5 1.9,0 3.883,0.533 1.983,0.533 3.45,1.533 V 26.7 Q 29,25.3 27.05,24.633 25.1,23.967 23.333,23.967 q -2,0 -3.867,0.7 Q 17.6,25.367 16,26.633 Z m -6.667,-11.3 z"
    class="ColorScheme-Text" fill="currentColor" />
</svg>