<svg viewBox="0 0 32 32" xmlns="http://www.w3.org/2000/svg" xmlns:svg="http://www.w3.org/2000/svg">
  <defs>
    <style type="text/css" id="current-color-scheme">
      .ColorScheme-Text {
        color: #e2e2e5;
      }
    </style>
  </defs>
  <path
    d="m 20.733,22.377 1.622,-1.622 -5.178,-5.2 V 9.044 h -2.222 v 7.4 z m -4.733,6.956 q -2.744,0 -5.178,-1.05 -2.433,-1.05 -4.245,-2.861 Q 4.766,23.611 3.716,21.177 2.666,18.744 2.666,16 q 0,-2.744 1.05,-5.178 Q 4.766,8.389 6.577,6.577 8.389,4.766 10.822,3.716 13.255,2.666 16,2.666 q 2.744,0 5.178,1.05 2.433,1.05 4.245,2.861 1.811,1.811 2.861,4.245 1.05,2.433 1.05,5.178 0,2.744 -1.05,5.178 -1.05,2.433 -2.861,4.245 -1.811,1.811 -4.245,2.861 -2.433,1.05 -5.178,1.05 z m 0,-13.333 z m 0,11.111 q 4.589,0 7.85,-3.261 3.261,-3.261 3.261,-7.85 0,-4.589 -3.261,-7.85 -3.261,-3.261 -7.85,-3.261 -4.589,0 -7.85,3.261 -3.261,3.261 -3.261,7.85 0,4.589 3.261,7.85 3.261,3.261 7.85,3.261 z"
    class="ColorScheme-Text" fill="currentColor" />
</svg>