<svg viewBox="0 0 32 32" xmlns="http://www.w3.org/2000/svg" xmlns:svg="http://www.w3.org/2000/svg">
  <defs>
    <style type="text/css" id="current-color-scheme">
      .ColorScheme-Text {
        color: #e2e2e5;
      }
    </style>
  </defs>
  <path
    d="m 26.533,28 q -3.967,0 -8,-1.85 -4.033,-1.85 -7.433,-5.25 Q 7.7,17.5 5.85,13.467 4,9.433 4,5.467 4,4.838 4.419,4.419 4.838,4 5.467,4 h 4.911 q 0.467,0 0.811,0.328 0.344,0.328 0.455,0.806 l 0.887,4.348 q 0.068,0.497 -0.021,0.875 -0.089,0.378 -0.361,0.649 l -3.295,3.328 q 0.8,1.389 1.75,2.617 0.95,1.228 2.094,2.339 1.167,1.189 2.456,2.183 1.289,0.994 2.711,1.772 l 3.156,-3.222 q 0.322,-0.345 0.775,-0.483 0.454,-0.139 0.891,-0.072 l 4.178,0.889 q 0.489,0.133 0.811,0.518 0.322,0.384 0.322,0.86 v 4.8 q 0,0.629 -0.419,1.048 Q 27.162,28 26.533,28 Z M 7.767,12.267 10.3,9.711 9.6,6.222 H 6.233 q 0.1,1.389 0.456,2.867 0.355,1.478 1.078,3.178 z M 19.944,24.311 q 1.345,0.611 2.861,0.989 1.517,0.378 2.972,0.456 V 22.4 L 22.444,21.722 Z M 7.767,12.267 Z M 19.944,24.311 Z"
    class="ColorScheme-Text" fill="currentColor" />
</svg>