<svg viewBox="0 0 32 32" xmlns="http://www.w3.org/2000/svg" xmlns:svg="http://www.w3.org/2000/svg">
  <defs>
    <style type="text/css" id="current-color-scheme">
      .ColorScheme-Text {
        color: #e2e2e5;
      }

      .ColorScheme-NegativeText {
        color: #ff5540;
      }
    </style>
  </defs>
  <path
    d="M 4.534,21.822 1.423,18.733 q -0.333,-0.333 -0.322,-0.778 0.011,-0.445 0.322,-0.8 2.8,-3.189 6.633,-4.839 3.833,-1.65 7.944,-1.65 4.111,0 7.939,1.65 3.828,1.65 6.639,4.839 0.311,0.355 0.322,0.8 0.011,0.444 -0.322,0.778 l -3.111,3.089 q -0.3,0.3 -0.794,0.333 -0.495,0.033 -0.828,-0.222 l -3.822,-2.867 q -0.222,-0.167 -0.333,-0.389 -0.111,-0.222 -0.111,-0.5 v -4.355 q -1.355,-0.489 -2.767,-0.711 -1.411,-0.222 -2.811,-0.222 -1.4,0 -2.811,0.222 -1.411,0.222 -2.767,0.711 v 4.355 q 0,0.278 -0.111,0.5 -0.111,0.222 -0.333,0.389 l -3.826,2.873 q -0.396,0.294 -0.839,0.262 -0.443,-0.032 -0.779,-0.379 z m 3.556,-7.089 q -1.167,0.589 -2.245,1.394 -1.078,0.806 -2.111,1.739 l 1.711,1.756 2.645,-1.978 z m 15.711,-0.067 v 2.844 l 2.733,2.089 1.733,-1.711 q -1.033,-1.022 -2.144,-1.8 -1.111,-0.778 -2.322,-1.422 z m -15.711,0.067 z m 15.711,-0.067 z"
    class="ColorScheme-Text" fill="currentColor" />
</svg>