<svg viewBox="0 0 32 32" xmlns="http://www.w3.org/2000/svg" xmlns:svg="http://www.w3.org/2000/svg">
  <defs>
    <style type="text/css" id="current-color-scheme">
      .ColorScheme-Text {
        color: #e2e2e5;
      }
    </style>
  </defs>
  <path
    d="M 4,28 V 22.156 L 16.356,9.8 14.111,7.578 15.667,6.045 18.556,8.934 23.089,4.4 Q 23.256,4.234 23.472,4.134 23.689,4.034 23.911,4.034 q 0.222,0 0.433,0.1 0.211,0.1 0.411,0.267 l 2.844,2.844 q 0.167,0.2 0.267,0.411 0.1,0.211 0.1,0.433 0,0.222 -0.1,0.439 -0.1,0.217 -0.267,0.383 l -4.522,4.522 2.889,2.911 -1.544,1.545 L 22.2,15.645 9.844,28 Z M 6.222,25.778 H 9.022 L 20.6,14.178 17.822,11.4 6.222,22.978 Z M 21.478,11.889 25.3,8.067 23.933,6.7 20.111,10.523 Z m 0,0 -1.367,-1.367 z"
    class="ColorScheme-Text" fill="currentColor" />
</svg>