<svg viewBox="0 0 32 32" xmlns="http://www.w3.org/2000/svg" xmlns:svg="http://www.w3.org/2000/svg">
  <defs>
    <style type="text/css" id="current-color-scheme">
      .ColorScheme-Text {
        color: #e2e2e5;
      }
    </style>
  </defs>
  <path
    d="m 8.733,23.266 9.778,-4.733 4.733,-9.778 -9.778,4.733 z m 7.267,-5.933 q -0.567,0 -0.95,-0.383 -0.383,-0.383 -0.383,-0.95 0,-0.567 0.383,-0.95 0.383,-0.383 0.95,-0.383 0.567,0 0.95,0.383 0.383,0.383 0.383,0.95 0,0.567 -0.383,0.95 -0.383,0.383 -0.95,0.383 z m 0,12 q -2.744,0 -5.178,-1.05 -2.433,-1.05 -4.245,-2.861 -1.811,-1.811 -2.861,-4.245 -1.05,-2.433 -1.05,-5.178 0,-2.767 1.05,-5.2 1.05,-2.433 2.861,-4.233 Q 8.389,4.766 10.822,3.716 13.255,2.666 16,2.666 q 2.767,0 5.2,1.05 2.433,1.05 4.233,2.85 1.8,1.8 2.85,4.233 1.05,2.433 1.05,5.2 0,2.744 -1.05,5.178 -1.05,2.433 -2.85,4.245 -1.8,1.811 -4.233,2.861 -2.433,1.05 -5.2,1.05 z m 0,-2.222 q 4.644,0 7.878,-3.244 3.233,-3.244 3.233,-7.867 0,-4.644 -3.233,-7.878 -3.233,-3.233 -7.878,-3.233 -4.622,0 -7.867,3.233 -3.244,3.233 -3.244,7.878 0,4.622 3.244,7.867 3.244,3.244 7.867,3.244 z m 0,-11.111 z"
    class="ColorScheme-Text" fill="currentColor" />
</svg>