<svg viewBox="0 0 32 32" xmlns="http://www.w3.org/2000/svg" xmlns:svg="http://www.w3.org/2000/svg">
  <defs>
    <style type="text/css" id="current-color-scheme">
      .ColorScheme-Text {
        color: #e2e2e5;
      }
    </style>
  </defs>
  <path
    d="m 10.066,21.933 9.111,-2.733 2.733,-9.111 -9.111,2.733 z m 5.928,-4.378 q -0.65,0 -1.1,-0.455 -0.45,-0.455 -0.45,-1.106 0,-0.65 0.455,-1.1 0.455,-0.45 1.106,-0.45 0.65,0 1.1,0.455 0.45,0.455 0.45,1.106 0,0.65 -0.455,1.1 -0.455,0.45 -1.106,0.45 z m 0.011,11.778 q -2.761,0 -5.189,-1.05 -2.428,-1.05 -4.239,-2.861 -1.811,-1.811 -2.861,-4.241 Q 2.666,18.751 2.666,15.989 q 0,-2.763 1.05,-5.193 Q 4.766,8.366 6.577,6.566 8.389,4.766 10.818,3.716 13.248,2.666 16.011,2.666 q 2.763,0 5.193,1.05 2.43,1.05 4.23,2.85 1.8,1.8 2.85,4.233 1.05,2.433 1.05,5.194 0,2.761 -1.05,5.189 -1.05,2.428 -2.85,4.235 -1.8,1.807 -4.233,2.861 -2.433,1.054 -5.194,1.054 z m 0.005,-2.222 q 4.623,0 7.862,-3.25 3.239,-3.25 3.239,-7.872 0,-4.623 -3.239,-7.862 -3.239,-3.239 -7.862,-3.239 -4.622,0 -7.872,3.239 -3.25,3.239 -3.25,7.862 0,4.622 3.25,7.872 3.25,3.25 7.872,3.25 z m -0.011,-11.111 z"
    class="ColorScheme-Text" fill="currentColor" />
</svg>