<svg viewBox="0 0 32 32" xmlns="http://www.w3.org/2000/svg">
  <defs>
    <style type="text/css" id="current-color-scheme">
      .ColorScheme-Text {
        color: #e2e2e5;
      }
    </style>
  </defs>
  <path
    d="M 11.68,22 16,17.68 20.32,22 22,20.32 17.68,16 22,11.68 20.32,10 16,14.32 11.68,10 10,11.68 14.32,16 10,20.32 Z M 16,28 Q 13.51,28 11.32,27.055 9.13,26.11 7.51,24.49 5.89,22.87 4.945,20.68 4,18.49 4,16 4,13.51 4.945,11.32 5.89,9.13 7.51,7.51 9.13,5.89 11.32,4.945 13.51,4 16,4 q 2.49,0 4.68,0.945 2.19,0.945 3.81,2.565 1.62,1.62 2.565,3.81 Q 28,13.51 28,16 q 0,2.49 -0.945,4.68 -0.945,2.19 -2.565,3.81 -1.62,1.62 -3.81,2.565 Q 18.49,28 16,28 Z m 0,-2.4 q 4.02,0 6.81,-2.79 Q 25.6,20.02 25.6,16 25.6,11.98 22.81,9.19 20.02,6.4 16,6.4 11.98,6.4 9.19,9.19 6.4,11.98 6.4,16 q 0,4.02 2.79,6.81 2.79,2.79 6.81,2.79 z M 16,16 Z"
    class="ColorScheme-Text" fill="currentColor" />
</svg>