<svg viewBox="0 0 32 32" xmlns="http://www.w3.org/2000/svg" xmlns:svg="http://www.w3.org/2000/svg">
  <defs>
    <style type="text/css" id="current-color-scheme">
      .ColorScheme-Text {
        color: #e2e2e5;
      }
    </style>
  </defs>
  <path
    d="m 11.066,22.489 4.933,-4.933 4.933,4.933 1.556,-1.556 -4.933,-4.933 4.933,-4.933 -1.556,-1.556 -4.933,4.933 -4.933,-4.933 -1.556,1.556 4.933,4.933 -4.933,4.933 z m 4.933,6.844 q -2.744,0 -5.178,-1.05 -2.433,-1.05 -4.245,-2.861 Q 4.766,23.611 3.716,21.177 2.666,18.744 2.666,16 q 0,-2.767 1.05,-5.2 Q 4.766,8.366 6.577,6.566 8.389,4.766 10.822,3.716 13.255,2.666 16,2.666 q 2.767,0 5.2,1.05 2.433,1.05 4.233,2.85 1.8,1.8 2.85,4.233 1.05,2.433 1.05,5.2 0,2.744 -1.05,5.178 -1.05,2.433 -2.85,4.245 -1.8,1.811 -4.233,2.861 -2.433,1.05 -5.2,1.05 z m 0,-2.222 q 4.644,0 7.878,-3.244 3.233,-3.244 3.233,-7.867 0,-4.644 -3.233,-7.878 -3.233,-3.233 -7.878,-3.233 -4.622,0 -7.867,3.233 -3.244,3.233 -3.244,7.878 0,4.622 3.244,7.867 3.244,3.244 7.867,3.244 z m 0,-11.111 z"
    class="ColorScheme-Text" fill="currentColor" />
</svg>