<svg viewBox="0 0 32 32" xmlns="http://www.w3.org/2000/svg" xmlns:svg="http://www.w3.org/2000/svg">
  <defs>
    <style type="text/css" id="current-color-scheme">
      .ColorScheme-Text {
        color: #e2e2e5;
      }
    </style>
  </defs>
  <path
    d="m 16,29.333 q -2.767,0 -5.2,-1.05 -2.433,-1.05 -4.233,-2.85 -1.8,-1.8 -2.85,-4.233 -1.05,-2.433 -1.05,-5.2 0,-2.767 1.05,-5.2 1.05,-2.433 2.85,-4.233 1.8,-1.8 4.233,-2.85 2.433,-1.05 5.2,-1.05 2.767,0 5.2,1.05 2.433,1.05 4.233,2.85 1.8,1.8 2.85,4.233 1.05,2.433 1.05,5.2 0,2.767 -1.05,5.2 -1.05,2.433 -2.85,4.233 -1.8,1.8 -4.233,2.85 -2.433,1.05 -5.2,1.05 z m 0,-2.222 q 1.956,0 3.767,-0.65 1.811,-0.65 3.278,-1.883 L 7.422,8.955 q -1.211,1.489 -1.872,3.293 -0.661,1.804 -0.661,3.752 0,4.653 3.229,7.882 3.229,3.229 7.882,3.229 z m 8.556,-4.067 q 1.189,-1.467 1.872,-3.278 0.683,-1.811 0.683,-3.767 0,-4.653 -3.229,-7.882 -3.229,-3.229 -7.882,-3.229 -1.948,0 -3.752,0.661 -1.804,0.661 -3.293,1.894 z"
    class="ColorScheme-Text" fill="currentColor" />
</svg>