<svg viewBox="0 0 32 32" xmlns="http://www.w3.org/2000/svg" xmlns:svg="http://www.w3.org/2000/svg">
  <defs>
    <style type="text/css" id="current-color-scheme">
      .ColorScheme-Text {
        color: #e2e2e5;
      }
    </style>
  </defs>
  <path
    d="M 28,9.267 V 25.778 q 0,0.9 -0.661,1.561 -0.661,0.661 -1.561,0.661 H 6.222 q -0.9,0 -1.561,-0.661 Q 4,26.678 4,25.778 V 6.222 Q 4,5.322 4.661,4.661 5.322,4 6.222,4 H 22.733 Z M 25.778,10.244 21.756,6.222 H 6.222 V 25.778 H 25.778 Z m -9.783,13.645 q 1.516,0 2.583,-1.062 1.067,-1.061 1.067,-2.578 0,-1.516 -1.061,-2.583 -1.061,-1.067 -2.578,-1.067 -1.516,0 -2.583,1.061 -1.067,1.062 -1.067,2.578 0,1.516 1.061,2.583 1.061,1.067 2.578,1.067 z M 7.844,12.8 H 19.8 V 7.844 H 7.844 Z m -1.622,-2.556 V 25.778 6.222 Z"
    class="ColorScheme-Text" fill="currentColor" />
</svg>