<svg viewBox="0 0 32 32" xmlns="http://www.w3.org/2000/svg" xmlns:svg="http://www.w3.org/2000/svg">
  <defs>
    <style type="text/css" id="current-color-scheme">
      .ColorScheme-Text {
        color: #e2e2e5;
      }
    </style>
  </defs>
  <path
    d="m 6.222,28 q -0.917,0 -1.57,-0.653 Q 4,26.694 4,25.778 V 6.222 Q 4,5.306 4.653,4.653 5.306,4 6.222,4 H 22.733 l 5.267,5.267 v 7.644 q -0.522,-0.267 -1.083,-0.372 -0.561,-0.106 -1.139,-0.072 V 10.233 L 21.767,6.222 H 6.222 V 25.778 h 8.889 v 2.222 z m 0,-21.778 V 25.778 Z M 17.333,30.667 v -4.1 l 7.367,-7.333 q 0.3,-0.3 0.667,-0.433 0.367,-0.133 0.733,-0.133 0.4,0 0.767,0.15 0.367,0.15 0.667,0.45 l 1.233,1.233 q 0.289,0.3 0.428,0.667 0.139,0.367 0.139,0.733 0,0.367 -0.144,0.75 -0.145,0.383 -0.443,0.683 l -7.313,7.333 z m 10,-8.767 -1.233,-1.233 z m -8,6.767 h 1.267 l 4.033,-4.067 -0.6,-0.633 -0.633,-0.6 -4.067,4.033 z m 4.7,-4.7 -0.633,-0.6 1.233,1.233 z M 7.844,12.8 H 19.8 V 7.844 H 7.844 Z m 8.156,11.089 q 0.322,0 0.622,-0.067 0.3,-0.067 0.555,-0.222 l 2.156,-2.167 q 0.156,-0.267 0.233,-0.561 0.078,-0.295 0.078,-0.628 0,-1.518 -1.061,-2.581 -1.061,-1.063 -2.578,-1.063 -1.516,0 -2.583,1.061 -1.067,1.062 -1.067,2.578 0,1.516 1.063,2.583 1.063,1.067 2.581,1.067 z"
    class="ColorScheme-Text" fill="currentColor" />
</svg>