<svg viewBox="0 0 32 32" xmlns="http://www.w3.org/2000/svg" xmlns:svg="http://www.w3.org/2000/svg">
  <defs>
    <style type="text/css" id="current-color-scheme">
      .ColorScheme-Text {
        color: #e2e2e5;
      }
    </style>
  </defs>
  <path
    d="m 22.8,29.333 q -1.611,0 -2.739,-1.128 -1.128,-1.128 -1.128,-2.739 0,-0.244 0.144,-1.067 l -9.767,-5.711 q -0.539,0.552 -1.247,0.865 -0.708,0.313 -1.53,0.313 -1.611,0 -2.739,-1.128 Q 2.666,17.611 2.666,16 q 0,-1.611 1.128,-2.739 1.128,-1.128 2.739,-1.128 0.8,0 1.5,0.301 0.7,0.301 1.233,0.832 L 19.077,7.6 q -0.067,-0.256 -0.105,-0.517 -0.039,-0.261 -0.039,-0.55 0,-1.611 1.128,-2.739 Q 21.189,2.666 22.8,2.666 q 1.611,0 2.739,1.128 1.128,1.128 1.128,2.739 0,1.611 -1.128,2.739 -1.128,1.128 -2.739,1.128 -0.784,0 -1.47,-0.294 -0.686,-0.295 -1.219,-0.795 l -9.878,5.578 q 0.089,0.255 0.128,0.539 0.039,0.283 0.039,0.561 0,0.278 -0.028,0.517 -0.028,0.239 -0.095,0.494 l 9.856,5.667 q 0.533,-0.5 1.213,-0.783 0.68,-0.283 1.457,-0.283 1.619,0 2.741,1.128 1.122,1.128 1.122,2.739 0,1.611 -1.128,2.739 -1.128,1.128 -2.739,1.128 z m 0.001,-2.222 q 0.699,0 1.172,-0.473 0.472,-0.473 0.472,-1.172 0,-0.699 -0.473,-1.172 -0.473,-0.472 -1.172,-0.472 -0.699,0 -1.172,0.473 -0.472,0.473 -0.472,1.172 0,0.699 0.473,1.172 0.473,0.472 1.172,0.472 z M 6.534,17.644 q 0.699,0 1.172,-0.473 0.472,-0.473 0.472,-1.172 0,-0.699 -0.473,-1.172 -0.473,-0.472 -1.172,-0.472 -0.699,0 -1.172,0.473 -0.472,0.473 -0.472,1.172 0,0.699 0.473,1.172 0.473,0.472 1.172,0.472 z M 22.8,8.177 q 0.699,0 1.172,-0.473 0.472,-0.473 0.472,-1.172 0,-0.699 -0.473,-1.172 -0.473,-0.472 -1.172,-0.472 -0.699,0 -1.172,0.473 -0.472,0.473 -0.472,1.172 0,0.699 0.473,1.172 0.473,0.472 1.172,0.472 z M 22.8,25.466 Z M 6.533,16 Z M 22.8,6.533 Z"
    class="ColorScheme-Text" fill="currentColor" />
</svg>