<svg viewBox="0 0 32 32" xmlns="http://www.w3.org/2000/svg" xmlns:svg="http://www.w3.org/2000/svg">
  <defs>
    <style type="text/css" id="current-color-scheme">
      .ColorScheme-Text {
        color: #e2e2e5;
      }
    </style>
  </defs>
  <path
    d="M 6.222,25.778 H 7.833 L 22.667,10.967 21.056,9.356 6.222,24.167 Z M 4,28 V 23.267 L 22.644,4.656 q 0.311,-0.3 0.717,-0.467 0.406,-0.167 0.85,-0.167 0.422,0 0.833,0.167 0.411,0.167 0.733,0.478 l 1.589,1.6 q 0.333,0.322 0.483,0.733 0.15,0.411 0.15,0.822 0,0.422 -0.161,0.839 -0.161,0.417 -0.472,0.728 L 8.733,28 Z M 25.756,7.8 24.222,6.267 Z m -3.9,2.367 -0.8,-0.811 1.611,1.611 z"
    class="ColorScheme-Text" fill="currentColor" />
</svg>