<svg viewBox="0 0 32 32" xmlns="http://www.w3.org/2000/svg" xmlns:svg="http://www.w3.org/2000/svg">
  <defs>
    <style type="text/css" id="current-color-scheme">
      .ColorScheme-Text {
        color: #e2e2e5;
      }
    </style>
  </defs>
  <path
    d="m 15.045,22.355 q 0.645,0 1.295,-0.172 0.65,-0.172 1.239,-0.539 l 3.533,3.533 1.511,-1.511 -3.556,-3.556 q 0.344,-0.544 0.494,-1.164 0.15,-0.62 0.15,-1.258 0,-1.956 -1.344,-3.289 -1.344,-1.333 -3.3,-1.333 -1.956,0 -3.3,1.344 -1.344,1.345 -1.344,3.3 0,1.956 1.333,3.3 1.333,1.345 3.289,1.345 z m 0.022,-2.222 q -1.033,0 -1.728,-0.694 -0.695,-0.695 -0.695,-1.728 0,-1.033 0.695,-1.728 0.694,-0.694 1.728,-0.694 1.033,0 1.728,0.694 0.695,0.694 0.695,1.728 0,1.033 -0.695,1.728 -0.694,0.694 -1.728,0.694 z m -7.511,9.2 q -0.9,0 -1.561,-0.661 Q 5.334,28.011 5.334,27.111 V 4.889 q 0,-0.9 0.661,-1.561 Q 6.656,2.666 7.556,2.666 H 19.134 l 7.533,7.533 v 16.911 q 0,0.9 -0.661,1.561 -0.661,0.661 -1.561,0.661 z M 18.023,11.244 V 4.889 H 7.556 V 27.111 H 24.445 V 11.244 Z M 7.556,4.889 V 11.244 4.889 27.111 Z"
    class="ColorScheme-Text" fill="currentColor" />
</svg>