<svg viewBox="0 0 32 32" xmlns="http://www.w3.org/2000/svg" xmlns:svg="http://www.w3.org/2000/svg">
  <defs>
    <style type="text/css" id="current-color-scheme">
      .ColorScheme-Text {
        color: #e2e2e5;
      }
    </style>
  </defs>
  <path
    d="M 21.733,10.489 V 6.222 H 10.266 V 10.489 H 8.044 V 4 H 23.955 v 6.489 z m -16.844,2.222 H 27.111 Z m 19.533,3.222 q 0.455,0 0.783,-0.328 0.328,-0.328 0.328,-0.783 0,-0.456 -0.328,-0.783 -0.328,-0.328 -0.783,-0.328 -0.456,0 -0.783,0.328 -0.328,0.328 -0.328,0.783 0,0.455 0.328,0.783 0.328,0.328 0.783,0.328 z m -2.689,9.844 V 19.733 H 10.266 v 6.044 z m 2.222,2.222 H 8.044 v -5.689 H 2.666 v -8.133 q 0,-1.568 1.067,-2.628 Q 4.8,10.489 6.355,10.489 h 19.289 q 1.568,0 2.628,1.06 1.061,1.061 1.061,2.628 v 8.133 h -5.378 z m 3.155,-7.911 v -5.916 q 0,-0.629 -0.422,-1.045 -0.422,-0.417 -1.045,-0.417 H 6.355 q -0.623,0 -1.045,0.422 -0.422,0.422 -0.422,1.045 v 5.911 h 3.155 v -2.578 H 23.955 v 2.578 z"
    class="ColorScheme-Text" fill="currentColor" />
</svg>