<svg viewBox="0 0 32 32" xmlns="http://www.w3.org/2000/svg" xmlns:svg="http://www.w3.org/2000/svg">
  <defs>
    <style type="text/css" id="current-color-scheme">
      .ColorScheme-Text {
        color: #e2e2e5;
      }
    </style>
  </defs>
  <path
    d="m 15.933,28 q -4.844,0 -8.294,-3.361 Q 4.189,21.278 4.022,16.422 h 2.244 q 0.156,3.933 2.939,6.644 2.783,2.711 6.728,2.711 4.122,0 6.983,-2.883 2.861,-2.883 2.861,-7.005 0,-4.056 -2.883,-6.861 -2.883,-2.805 -6.961,-2.805 -2.278,0 -4.267,1.044 -1.989,1.044 -3.422,2.8 h 3.556 v 2.222 H 4.489 V 5 H 6.711 V 8.4 Q 8.433,6.333 10.839,5.167 13.244,4 15.933,4 q 2.5,0 4.694,0.939 2.195,0.939 3.833,2.555 1.639,1.617 2.589,3.789 0.95,2.172 0.95,4.672 0,2.5 -0.95,4.694 -0.95,2.194 -2.589,3.822 -1.639,1.628 -3.833,2.578 -2.194,0.95 -4.694,0.95 z "
    class="ColorScheme-Text" fill="currentColor" />
</svg>