<svg viewBox="0 0 32 32" xmlns="http://www.w3.org/2000/svg" xmlns:svg="http://www.w3.org/2000/svg">
  <defs>
    <style type="text/css" id="current-color-scheme">
      .ColorScheme-Text {
        color: #e2e2e5;
      }

      .ColorScheme-NegativeText {
        color: #ff5540;
      }
    </style>
  </defs>
  <path
    d="m 12.2,22.022 3.8,-3.845 3.822,3.845 1.667,-1.689 -3.8,-3.844 3.8,-3.845 -1.667,-1.689 -3.822,3.844 -3.8,-3.844 -1.689,1.689 3.822,3.845 -3.822,3.844 z m -3.289,5.978 q -0.9,0 -1.561,-0.661 -0.661,-0.661 -0.661,-1.561 V 7.333 H 5.334 V 5.111 h 6.4 V 4 h 8.533 v 1.111 h 6.4 V 7.333 H 25.311 V 25.778 q 0,0.9 -0.661,1.561 -0.661,0.661 -1.561,0.661 z M 23.089,7.333 H 8.911 V 25.778 H 23.089 Z m -14.178,0 V 25.778 Z"
    class="ColorScheme-Text" fill="currentColor" />
</svg>