<svg viewBox="0 0 32 32" xmlns="http://www.w3.org/2000/svg" xmlns:svg="http://www.w3.org/2000/svg">
  <defs>
    <style type="text/css" id="current-color-scheme">
      .ColorScheme-Text {
        color: #e2e2e5;
      }
    </style>
  </defs>
  <path
    d="M 10.889,29.333 V 14.6 L 8,10.333 V 2.666 h 16 v 7.667 l -2.889,4.267 v 14.733 z m 5.115,-8.356 q -0.748,0 -1.276,-0.524 -0.528,-0.524 -0.528,-1.272 0,-0.748 0.524,-1.276 0.524,-0.528 1.272,-0.528 0.748,0 1.276,0.524 0.528,0.524 0.528,1.272 0,0.748 -0.524,1.276 -0.524,0.528 -1.272,0.528 z M 10.222,6.577 H 21.778 V 4.889 H 10.222 Z M 21.778,8.8 H 10.222 V 9.755 L 13.111,14 v 13.111 h 5.778 V 14 l 2.889,-4.244 z m -5.778,7.2 z"
    class="ColorScheme-Text" fill="currentColor" />
</svg>