<svg viewBox="0 0 32 32" xmlns="http://www.w3.org/2000/svg" xmlns:svg="http://www.w3.org/2000/svg">
  <defs>
    <style type="text/css" id="current-color-scheme">
      .ColorScheme-Text {
        color: #e2e2e5;
      }
    </style>
  </defs>
  <path
    d="M 7.644,24.656 Q 5.9,22.945 4.95,20.711 4,18.478 4,16 q 0,-5 3.5,-8.5 Q 11,4 16,4 V 1.334 l 6.289,4.778 -6.289,4.778 V 8.223 q -3.233,0 -5.506,2.272 -2.272,2.272 -2.272,5.506 0,1.778 0.75,3.344 0.75,1.567 2.017,2.745 z m 8.356,6.011 -6.289,-4.778 6.289,-4.778 v 2.667 q 3.233,0 5.506,-2.272 2.272,-2.272 2.272,-5.506 0,-1.778 -0.75,-3.356 -0.75,-1.578 -2.083,-2.733 l 3.367,-2.522 q 1.767,1.667 2.728,3.9 0.961,2.233 0.961,4.711 0,5 -3.5,8.5 -3.5,3.5 -8.5,3.5 z"
    class="ColorScheme-Text" fill="currentColor" />
</svg>