<svg viewBox="0 0 32 32" xmlns="http://www.w3.org/2000/svg" xmlns:svg="http://www.w3.org/2000/svg">
  <defs>
    <style type="text/css" id="current-color-scheme">
      .ColorScheme-Text {
        color: #e2e2e5;
      }
    </style>
  </defs>
  <path
    d="m 14.889,22.667 h 2.222 v -6.911 l 2.356,2.355 1.556,-1.555 -5.022,-5.022 -5.022,5.022 1.556,1.555 2.356,-2.355 z M 4.889,26.667 q -0.9,0 -1.561,-0.672 -0.661,-0.672 -0.661,-1.55 V 7.556 q 0,-0.878 0.661,-1.55 Q 3.989,5.334 4.889,5.334 h 8.911 l 2.222,2.222 h 11.089 q 0.878,0 1.55,0.672 0.672,0.672 0.672,1.55 V 24.445 q 0,0.878 -0.672,1.55 -0.672,0.672 -1.55,0.672 z m 0,-2.222 H 27.111 V 9.778 H 15.1 L 12.877,7.556 H 4.889 Z m 0,0 V 7.556 Z"
    class="ColorScheme-Text" fill="currentColor" />
</svg>