<svg viewBox="0 0 32 32" xmlns="http://www.w3.org/2000/svg" xmlns:svg="http://www.w3.org/2000/svg">
  <defs>
    <style type="text/css" id="current-color-scheme">
      .ColorScheme-Text {
        color: #e2e2e5;
      }
    </style>
  </defs>
  <path
    d="M 14.667,14.155 3.556,7.111 V 21.777 H 19.111 v 2.222 H 3.623 q -0.922,0 -1.606,-0.672 -0.683,-0.672 -0.683,-1.55 V 4.889 q 0,-0.878 0.661,-1.55 Q 2.656,2.666 3.556,2.666 H 25.778 q 0.878,0 1.55,0.672 0.672,0.672 0.672,1.55 V 12.444 H 25.778 V 7.111 Z m 0,-2.311 11.111,-6.955 H 3.556 Z m 11.378,17.489 q -1.978,0 -3.344,-1.411 -1.367,-1.411 -1.367,-3.389 v -6.978 q 0,-1.2 0.844,-2.045 0.845,-0.844 2.067,-0.844 1.2,0 2.033,0.844 0.833,0.845 0.833,2.045 v 7.111 h -2.222 v -7.178 q 0,-0.333 -0.167,-0.589 -0.167,-0.256 -0.478,-0.256 -0.311,0 -0.5,0.256 -0.189,0.256 -0.189,0.589 v 7.089 q 0,1.1 0.705,1.917 0.706,0.817 1.783,0.817 1.033,0 1.717,-0.783 0.683,-0.783 0.683,-1.861 v -6.156 h 2.222 v 6.156 q 0,1.933 -1.344,3.3 -1.345,1.367 -3.278,1.367 z M 3.556,7.111 V 4.889 21.777 Z"
    class="ColorScheme-Text" fill="currentColor" />
</svg>