<svg viewBox="0 0 32 32" xmlns="http://www.w3.org/2000/svg" xmlns:svg="http://www.w3.org/2000/svg">
  <defs>
    <style type="text/css" id="current-color-scheme">
      .ColorScheme-Text {
        color: #e2e2e5;
      }
    </style>
  </defs>
  <path
    d="m 3.556,30.667 q -0.9,0 -1.561,-0.661 Q 1.334,29.345 1.334,28.445 V 3.534 q 0,-0.878 0.661,-1.55 Q 2.656,1.311 3.556,1.311 H 28.467 q 0.878,0 1.55,0.672 0.672,0.672 0.672,1.55 V 28.445 q 0,0.9 -0.672,1.561 -0.672,0.661 -1.55,0.661 z m 15.467,-4 h 7.644 v -7.622 h -2.222 v 3.822 l -5.311,-5.267 -1.567,1.589 5.278,5.255 h -3.822 z m -12.133,0 L 24.445,9.134 v 3.822 h 2.222 V 5.334 h -7.644 v 2.222 h 3.867 L 5.334,25.089 Z M 12.856,14.411 14.434,12.834 6.911,5.334 5.334,6.911 Z"
    class="ColorScheme-Text" fill="currentColor" />
</svg>