<svg viewBox="0 0 32 32" xmlns="http://www.w3.org/2000/svg" xmlns:svg="http://www.w3.org/2000/svg">
  <defs>
    <style type="text/css" id="current-color-scheme">
      .ColorScheme-Text {
        color: #e2e2e5;
      }

      .ColorScheme-NegativeText {
        color: #ff5540;
      }
    </style>
  </defs>
  <path
    d="m 15.955,16.044 z m 0.044,9.289 q -3.889,0 -6.611,-2.722 -2.722,-2.722 -2.722,-6.611 0,-3.889 2.722,-6.611 Q 12.111,6.666 16,6.666 q 3.889,0 6.611,2.722 2.722,2.722 2.722,6.611 0,3.889 -2.722,6.611 -2.722,2.722 -6.611,2.722 z m 0,-2.222 q 2.967,0 5.039,-2.072 2.072,-2.072 2.072,-5.039 0,-2.967 -2.072,-5.039 -2.072,-2.072 -5.039,-2.072 -2.967,0 -5.039,2.072 -2.072,2.072 -2.072,5.039 0,2.967 2.072,5.039 2.072,2.072 5.039,2.072 z"
    class="ColorScheme-NegativeText" fill="currentColor" />
</svg>