<svg viewBox="0 0 32 32" xmlns="http://www.w3.org/2000/svg" xmlns:svg="http://www.w3.org/2000/svg">
  <defs>
    <style type="text/css" id="current-color-scheme">
      .ColorScheme-Text {
        color: #e2e2e5;
      }
    </style>
  </defs>
  <path
    d="m 3.556,30.667 q -0.9,0 -1.561,-0.661 Q 1.334,29.345 1.334,28.445 V 3.534 q 0,-0.878 0.661,-1.55 Q 2.656,1.311 3.556,1.311 H 28.467 q 0.878,0 1.55,0.672 0.672,0.672 0.672,1.55 V 28.445 q 0,0.9 -0.672,1.561 -0.672,0.661 -1.55,0.661 z m 5.778,-1.333 1.556,-1.622 -2.6,-2.6 H 25.334 v -7.555 h -2.222 v 5.333 H 8.289 l 2.6,-2.6 -1.556,-1.622 -5.333,5.333 z M 6.667,14.445 H 8.889 V 9.111 H 23.711 l -2.6,2.6 1.556,1.622 5.333,-5.333 -5.333,-5.333 -1.556,1.622 2.6,2.6 H 6.667 Z m 8.8,5.511 h 1.756 v -7.956 h -3.667 v 1.756 h 1.911 z"
    class="ColorScheme-Text" fill="currentColor" />
</svg>