<svg viewBox="0 0 32 32" xmlns="http://www.w3.org/2000/svg" xmlns:svg="http://www.w3.org/2000/svg">
  <defs>
    <style type="text/css" id="current-color-scheme">
      .ColorScheme-Text {
        color: #e2e2e5;
      }
    </style>
  </defs>
  <path
    d="m 9.334,28 -1.578,-1.578 2.611,-2.645 q -3.756,0 -6.394,-2.65 -2.639,-2.65 -2.639,-6.461 0,-3.9 2.717,-6.617 Q 6.767,5.334 10.667,5.334 h 4 v 2.222 h -4 q -2.967,0 -5.039,2.072 -2.072,2.072 -2.072,5.039 0,2.822 2,4.8 2,1.978 4.833,2.089 l -2.633,-2.633 1.578,-1.589 5.333,5.333 z m 8,-1.333 v -9.333 h 12 v 9.333 z m 0,-12 V 5.334 h 12 v 9.333 z m 2.222,-2.222 h 7.555 V 7.556 h -7.555 z"
    class="ColorScheme-Text" fill="currentColor" />
</svg>