<svg viewBox="0 0 32 32" xmlns="http://www.w3.org/2000/svg" xmlns:svg="http://www.w3.org/2000/svg">
  <defs>
    <style type="text/css" id="current-color-scheme">
      .ColorScheme-Text {
        color: #e2e2e5;
      }
    </style>
  </defs>
  <path
    d="m 10.667,26.667 q -3.9,0 -6.617,-2.717 Q 1.334,21.233 1.334,17.333 q 0,-3.811 2.639,-6.461 2.639,-2.65 6.394,-2.65 L 7.756,5.578 9.334,4 14.667,9.333 9.334,14.667 7.756,13.078 10.389,10.444 q -2.833,0.111 -4.833,2.089 -2,1.978 -2,4.8 0,2.967 2.072,5.039 2.072,2.072 5.039,2.072 h 4 v 2.222 z M 17.334,14.667 V 5.333 h 12 v 9.333 z m 0,12 v -9.333 h 12 v 9.333 z m 2.222,-2.222 h 7.555 v -4.889 h -7.555 z"
    class="ColorScheme-Text" fill="currentColor" />
</svg>