<svg viewBox="0 0 32 32" xmlns="http://www.w3.org/2000/svg" xmlns:svg="http://www.w3.org/2000/svg">
  <defs>
    <style type="text/css" id="current-color-scheme">
      .ColorScheme-Text {
        color: #e2e2e5;
      }
    </style>
  </defs>
  <path
    d="m 4.889,16.545 q 0,-2.744 1.917,-4.611 1.917,-1.867 4.639,-1.933 l -2.155,2.2 1.555,1.556 4.8,-4.867 -4.867,-4.889 -1.555,1.556 2.133,2.2 q -3.611,0.067 -6.15,2.6 -2.54,2.532 -2.54,6.177 0,3.633 2.495,6.216 2.494,2.584 6.083,2.584 h 4.933 v -2.222 h -4.933 q -2.655,0 -4.505,-1.922 -1.85,-1.922 -1.85,-4.645 z M 18.933,7.756 v 2.222 h 10.4 V 7.756 Z m 0,7.667 v 2.244 h 10.4 V 15.423 Z M 18.4,23.111 v 2.223 h 10.933 v -2.222 z"
    class="ColorScheme-Text" fill="currentColor" />
</svg>