<svg viewBox="0 0 32 32" xmlns="http://www.w3.org/2000/svg" xmlns:svg="http://www.w3.org/2000/svg">
  <defs>
    <style type="text/css" id="current-color-scheme">
      .ColorScheme-Text {
        color: #e2e2e5;
      }
    </style>
  </defs>
  <path
    d="m 15.997,26.667 q -0.808,0 -1.38,-0.575 Q 14.044,25.516 14.044,24.708 q 0,-0.808 0.575,-1.38 0.576,-0.572 1.383,-0.572 0.808,0 1.38,0.575 0.572,0.575 0.572,1.383 0,0.808 -0.575,1.38 -0.576,0.572 -1.383,0.572 z m 0,-8.711 q -0.808,0 -1.38,-0.575 Q 14.044,16.805 14.044,15.997 q 0,-0.808 0.575,-1.38 0.576,-0.572 1.383,-0.572 0.808,0 1.38,0.575 0.572,0.576 0.572,1.383 0,0.808 -0.575,1.38 -0.576,0.572 -1.383,0.572 z m 0,-8.711 q -0.808,0 -1.38,-0.575 Q 14.044,8.094 14.044,7.286 q 0,-0.808 0.575,-1.38 Q 15.195,5.334 16.003,5.334 q 0.808,0 1.38,0.575 0.572,0.575 0.572,1.383 0,0.808 -0.575,1.38 -0.576,0.572 -1.383,0.572 z"
    class="ColorScheme-Text" fill="currentColor" />
</svg>