<svg viewBox="0 0 32 32" xmlns="http://www.w3.org/2000/svg" xmlns:svg="http://www.w3.org/2000/svg">
  <defs>
    <style type="text/css" id="current-color-scheme">
      .ColorScheme-Text {
        color: #e2e2e5;
      }
    </style>
  </defs>
  <path
    d="m 9.776,14.223 q -1.842,0 -3.142,-1.302 -1.3,-1.302 -1.3,-3.144 0,-1.842 1.302,-3.142 1.302,-1.3 3.144,-1.3 1.842,0 3.142,1.302 1.3,1.302 1.3,3.144 0,1.842 -1.302,3.142 -1.302,1.3 -3.144,1.3 z m -6.664e-4,-2.222 q 0.925,0 1.575,-0.647 0.65,-0.647 0.65,-1.572 0,-0.925 -0.647,-1.575 -0.647,-0.65 -1.572,-0.65 -0.925,0 -1.575,0.647 -0.65,0.647 -0.65,1.572 0,0.925 0.647,1.575 0.647,0.65 1.572,0.65 z M 22.22,26.667 q -1.842,0 -3.142,-1.302 -1.3,-1.302 -1.3,-3.144 0,-1.842 1.302,-3.142 1.302,-1.3 3.144,-1.3 1.842,0 3.142,1.302 1.3,1.302 1.3,3.144 0,1.842 -1.302,3.142 -1.302,1.3 -3.144,1.3 z m -3.33e-4,-2.222 q 0.925,0 1.575,-0.647 0.65,-0.647 0.65,-1.572 0,-0.925 -0.647,-1.575 -0.647,-0.65 -1.572,-0.65 -0.925,0 -1.575,0.647 -0.65,0.647 -0.65,1.572 0,0.925 0.647,1.575 0.647,0.65 1.572,0.65 z M 6.889,26.667 5.334,25.111 25.111,5.334 26.667,6.889 Z"
    class="ColorScheme-Text" fill="currentColor" />
</svg>