<svg viewBox="0 0 32 32" xmlns="http://www.w3.org/2000/svg" xmlns:svg="http://www.w3.org/2000/svg">
  <defs>
    <style type="text/css" id="current-color-scheme">
      .ColorScheme-Text {
        color: #e2e2e5;
      }
    </style>
  </defs>
  <path
    d="M 29.333,29.311 24.022,24 H 10.222 q -0.917,0 -1.57,-0.653 -0.653,-0.653 -0.653,-1.57 v -2.222 H 22.666 q 0.917,0 1.569,-0.653 0.653,-0.653 0.653,-1.569 V 8 h 2.222 q 0.917,0 1.57,0.653 0.653,0.653 0.653,1.57 z M 4.889,17.3 7.077,15.111 H 20.444 V 4.889 H 4.889 Z M 2.666,22.666 V 4.889 q 0,-0.917 0.653,-1.57 Q 3.972,2.666 4.889,2.666 H 20.444 q 0.917,0 1.57,0.653 0.653,0.653 0.653,1.57 V 15.111 q 0,0.917 -0.653,1.57 -0.653,0.653 -1.57,0.653 H 8 Z M 4.889,15.111 V 4.889 Z"
    class="ColorScheme-Text" fill="currentColor" />
</svg>