<svg viewBox="0 0 32 32" xmlns="http://www.w3.org/2000/svg" xmlns:svg="http://www.w3.org/2000/svg">
  <defs>
    <style type="text/css" id="current-color-scheme">
      .ColorScheme-Text {
        color: #e2e2e5;
      }
    </style>
  </defs>
  <path
    d="m 0,24 v -1.878 q 0,-1.335 1.411,-2.173 1.411,-0.838 3.708,-0.838 0.415,0 0.798,0.017 0.383,0.017 0.75,0.076 -0.333,0.619 -0.5,1.27 Q 6,21.125 6,21.833 v 2.167 z m 8,0 v -2.167 q 0,-1.067 0.583,-1.95 0.583,-0.883 1.65,-1.55 1.067,-0.667 2.55,-1 Q 14.267,17 16,17 q 1.767,0 3.25,0.333 1.483,0.333 2.55,1 1.067,0.667 1.633,1.55 Q 24,20.767 24,21.833 v 2.167 z m 18,0 v -2.167 q 0,-0.73 -0.15,-1.376 -0.15,-0.646 -0.472,-1.252 0.367,-0.061 0.743,-0.077 0.376,-0.017 0.769,-0.017 2.3,0 3.705,0.823 Q 32,20.756 32,22.122 v 1.878 z M 10.278,21.778 h 11.456 v -0.133 q -0.111,-1.044 -1.739,-1.733 Q 18.367,19.222 16,19.222 q -2.367,0 -3.994,0.689 -1.628,0.689 -1.728,1.756 z M 5.101,18 q -1.001,0 -1.718,-0.718 Q 2.667,16.564 2.667,15.556 q 0,-1.022 0.718,-1.733 Q 4.103,13.111 5.111,13.111 q 1.022,0 1.733,0.711 0.711,0.711 0.711,1.743 0,1.001 -0.711,1.718 -0.711,0.717 -1.743,0.717 z m 21.778,0 q -1.002,0 -1.718,-0.718 -0.717,-0.718 -0.717,-1.726 0,-1.022 0.718,-1.733 0.718,-0.711 1.726,-0.711 1.022,0 1.733,0.711 0.711,0.711 0.711,1.743 0,1.001 -0.711,1.718 -0.711,0.717 -1.743,0.717 z M 16,16 Q 14.333,16 13.167,14.833 12,13.667 12,12 12,10.3 13.167,9.15 14.333,8 16,8 17.7,8 18.85,9.15 20,10.3 20,12 20,13.667 18.85,14.833 17.7,16 16,16 Z m 0.008,-2.222 q 0.759,0 1.265,-0.513 0.505,-0.513 0.505,-1.272 0,-0.759 -0.509,-1.265 -0.509,-0.505 -1.261,-0.505 -0.752,0 -1.269,0.509 -0.517,0.509 -0.517,1.261 0,0.752 0.513,1.269 0.513,0.517 1.272,0.517 z m 0.003,8 z M 16,12 Z"
    class="ColorScheme-Text" fill="currentColor" />
</svg>