<svg viewBox="0 0 32 32" xmlns="http://www.w3.org/2000/svg">
  <defs>
    <style type="text/css" id="current-color-scheme">
      .ColorScheme-Text {
        color: #e2e2e5;
      }
    </style>
  </defs>
  <path
    d="M 5.333,30 V 11.333 h 4 V 8.667 Q 9.333,5.9 11.283,3.95 13.233,2 16,2 q 2.767,0 4.717,1.95 1.95,1.95 1.95,4.717 v 2.667 h 4 V 30 Z M 8,27.333 H 24 V 14 H 8 Z m 8,-4 q 1.1,0 1.883,-0.783 0.783,-0.783 0.783,-1.883 0,-1.1 -0.783,-1.883 Q 17.1,18 16,18 q -1.1,0 -1.883,0.783 -0.783,0.783 -0.783,1.883 0,1.1 0.783,1.883 Q 14.9,23.333 16,23.333 Z m -4,-12 h 8 V 8.667 Q 20,7 18.833,5.833 17.667,4.667 16,4.667 q -1.667,0 -2.833,1.167 Q 12,7 12,8.667 Z m -4,16 V 14 Z"
    class="ColorScheme-Text" fill="currentColor" />
</svg>