<svg viewBox="0 0 32 32" xmlns="http://www.w3.org/2000/svg" xmlns:svg="http://www.w3.org/2000/svg">
  <defs>
    <style type="text/css" id="current-color-scheme">
      .ColorScheme-Text {
        color: #e2e2e5;
      }
    </style>
  </defs>
  <path
    d="m 4.889,26.667 q -0.9,0 -1.561,-0.661 -0.661,-0.661 -0.661,-1.561 v -5.089 h 2.222 v 5.089 H 27.111 V 7.556 H 4.889 V 12.689 H 2.666 V 7.556 q 0,-0.9 0.661,-1.561 0.661,-0.661 1.561,-0.661 H 27.111 q 0.9,0 1.561,0.661 0.661,0.661 0.661,1.561 V 24.445 q 0,0.9 -0.661,1.561 -0.661,0.661 -1.561,0.661 z m 10.422,-4.733 -1.578,-1.6 3.211,-3.2 H 2.666 v -2.222 h 14.278 l -3.211,-3.2 1.578,-1.6 5.911,5.911 z"
    class="ColorScheme-Text" fill="currentColor" />
</svg>