<svg viewBox="0 0 32 32" version="1.1" xmlns="http://www.w3.org/2000/svg" xmlns:svg="http://www.w3.org/2000/svg">
  <defs>
    <style type="text/css" id="current-color-scheme">
      .ColorScheme-Text {
        color: #e2e2e5;
      }
    </style>
  </defs>
  <path
    d="M 15.789 3.289 L 11.277 7.801 L 15.789 12.311 L 17.367 10.732 L 15.543 8.91 L 16.021 8.91 C 18.377 8.91 20.373 9.73 22.01 11.367 C 23.136 12.493 23.875 13.79 24.227 15.256 A 8.75 8.75 0 0 1 26.564 15.635 C 26.234 13.405 25.244 11.461 23.59 9.801 C 21.523 7.727 19.001 6.689 16.023 6.689 L 15.545 6.689 L 17.367 4.865 L 15.789 3.289 z M 9.445 9.09 C 8.141 10.06 7.129 11.271 6.41 12.727 C 5.691 14.182 5.332 15.725 5.332 17.355 C 5.332 20.111 6.249 22.497 8.082 24.516 C 9.915 26.534 12.191 27.674 14.91 27.934 L 14.912 25.711 C 12.793 25.437 11.039 24.509 9.646 22.928 C 8.254 21.346 7.557 19.489 7.557 17.355 C 7.557 16.015 7.86 14.752 8.463 13.566 C 9.066 12.381 9.922 11.418 11.033 10.678 L 9.445 9.09 z "
    class="ColorScheme-Text" fill="currentColor" />
  <path
    d="M 24,30.511 q -2.678,0 -4.594,-1.917 -1.917,-1.917 -1.917,-4.594 0,-2.678 1.917,-4.594 1.917,-1.917 4.594,-1.917 2.678,0 4.594,1.917 1.917,1.917 1.917,4.594 0,2.678 -1.917,4.594 -1.917,1.917 -4.594,1.917 z m 0,-2.644 3.844,-3.844 -0.778,-0.778 -2.511,2.511 v -5.622 h -1.111 v 5.622 l -2.511,-2.511 -0.778,0.778 z"
    class="ColorScheme-Text" fill="currentColor" />
</svg>