<svg viewBox="0 0 32 32" xmlns="http://www.w3.org/2000/svg">
  <defs>
    <style type="text/css" id="current-color-scheme">
      .ColorScheme-Text {
        color: #e2e2e5;
      }
    </style>
  </defs>
  <path
    d="M 16.12,28 Q 13.6,28 11.395,27.04 9.19,26.08 7.555,24.445 5.92,22.81 4.96,20.605 4,18.4 4,15.88 4,11.5 6.79,8.155 9.58,4.81 13.9,4 q -0.54,2.97 0.33,5.805 0.87,2.835 3,4.965 2.13,2.13 4.965,3 Q 25.03,18.64 28,18.1 27.22,22.42 23.86,25.21 20.5,28 16.12,28 Z m 0,-2.4 q 2.64,0 4.89,-1.32 2.25,-1.32 3.54,-3.63 Q 21.97,20.41 19.66,19.345 17.35,18.28 15.52,16.45 13.69,14.62 12.61,12.31 11.53,10 11.32,7.42 9.01,8.71 7.705,10.975 6.4,13.24 6.4,15.88 q 0,4.05 2.835,6.885 2.835,2.835 6.885,2.835 z m -0.6,-9.15 z"
    class="ColorScheme-Text" fill="currentColor" />
</svg>