<svg viewBox="0 0 32 32" version="1.1" xmlns="http://www.w3.org/2000/svg" xmlns:svg="http://www.w3.org/2000/svg">
  <defs>
    <style type="text/css" id="current-color-scheme">
      .ColorScheme-Text {
        color: #e2e2e5;
      }
    </style>
  </defs>
  <path
    d="m 13.045,21.333 q -0.444,0 -0.744,-0.3 -0.3,-0.3 -0.3,-0.744 v -4.578 q 0,-0.444 0.3,-0.744 0.3,-0.3 0.744,-0.3 h 0.289 v -1.333 q 0,-1.1 0.783,-1.883 0.783,-0.783 1.883,-0.783 1.1,0 1.883,0.783 0.783,0.783 0.783,1.883 v 1.333 h 0.289 q 0.444,0 0.744,0.3 0.3,0.3 0.3,0.744 v 4.6 q 0,0.421 -0.307,0.722 -0.307,0.301 -0.737,0.301 z m 1.4,-6.667 h 3.111 v -1.333 q 0,-0.633 -0.461,-1.061 -0.461,-0.428 -1.094,-0.428 -0.633,0 -1.094,0.428 -0.461,0.428 -0.461,1.061 z"
    class="ColorScheme-Text" fill="currentColor" />
  <path
    d="M 3.557 6.666 C 2.957 6.666 2.435 6.887 1.994 7.328 C 1.553 7.769 1.334 8.289 1.334 8.889 L 1.334 23.111 C 1.334 23.711 1.553 24.231 1.994 24.672 C 2.435 25.113 2.957 25.332 3.557 25.332 L 28.445 25.332 C 29.045 25.332 29.565 25.113 30.006 24.672 C 30.447 24.231 30.668 23.711 30.668 23.111 L 30.668 8.889 C 30.668 8.289 30.447 7.767 30.006 7.326 C 29.565 6.886 29.045 6.666 28.445 6.666 L 3.557 6.666 z M 3.557 8.889 L 28.443 8.889 L 28.443 23.111 L 3.557 23.111 L 3.557 8.889 z"
    class="ColorScheme-Text" fill="currentColor" />
</svg>