<svg viewBox="0 0 32 32" xmlns="http://www.w3.org/2000/svg" xmlns:svg="http://www.w3.org/2000/svg">
  <defs>
    <style type="text/css" id="current-color-scheme">
      .ColorScheme-Text {
        color: #e2e2e5;
      }
    </style>
  </defs>
  <path
    d="m 16.133,29.333 q -2.8,0 -5.25,-1.067 -2.45,-1.067 -4.267,-2.883 -1.817,-1.817 -2.883,-4.267 -1.067,-2.45 -1.067,-5.25 0,-4.867 3.1,-8.583 3.1,-3.717 7.9,-4.617 -0.6,3.278 0.367,6.431 0.967,3.153 3.333,5.522 2.367,2.369 5.517,3.337 3.15,0.967 6.45,0.367 -0.867,4.804 -4.6,7.907 -3.733,3.103 -8.6,3.103 z m 0,-2.222 q 3.2,0 5.856,-1.755 2.655,-1.756 4.244,-4.567 -2.956,-0.267 -5.656,-1.406 -2.7,-1.139 -4.789,-3.217 -2.089,-2.078 -3.222,-4.767 -1.133,-2.689 -1.389,-5.622 -2.811,1.545 -4.55,4.217 -1.739,2.672 -1.739,5.872 0,4.685 3.28,7.965 3.279,3.28 7.965,3.28 z M 15.777,16.166 Z"
    class="ColorScheme-Text" fill="currentColor" />
</svg>