<svg viewBox="0 0 32 32" version="1.1" xmlns="http://www.w3.org/2000/svg" xmlns:svg="http://www.w3.org/2000/svg">
  <defs>
    <style type="text/css" id="current-color-scheme">
      .ColorScheme-Text {
        color: #e2e2e5;
      }
    </style>
  </defs>
  <path class="ColorScheme-Text"
    d="m 14.911,27.933 q -4.078,-0.389 -6.828,-3.417 -2.75,-3.028 -2.75,-7.161 0,-2.445 1.078,-4.628 Q 7.489,10.544 9.445,9.089 l 1.589,1.589 q -1.667,1.111 -2.572,2.889 -0.905,1.778 -0.905,3.789 0,3.2 2.089,5.572 2.089,2.372 5.267,2.783 z m 2.222,0 v -2.222 q 3.189,-0.444 5.261,-2.8 2.072,-2.355 2.072,-5.555 0,-3.533 -2.456,-5.989 -2.455,-2.456 -5.989,-2.456 h -0.478 L 17.367,10.733 15.789,12.311 11.278,7.8 15.789,3.289 17.367,4.866 15.545,6.689 h 0.478 q 4.467,0 7.567,3.111 3.1,3.111 3.1,7.556 0,4.122 -2.739,7.15 -2.739,3.028 -6.817,3.428 z"
    class="ColorScheme-Text" fill="currentColor" />
</svg>