<svg viewBox="0 0 32 32" xmlns="http://www.w3.org/2000/svg" xmlns:svg="http://www.w3.org/2000/svg">
  <defs>
    <style type="text/css" id="current-color-scheme">
      .ColorScheme-Text {
        color: #e2e2e5;
      }
    </style>
  </defs>
  <path
    d="m 14.889,29.333 v -6.178 l -4.756,4.733 -1.578,-1.556 6.333,-6.333 v -2.889 h -2.889 L 5.755,23.355 4.155,21.822 8.844,17.111 H 2.666 v -2.222 h 6.178 l -4.755,-4.778 1.578,-1.578 6.333,6.356 h 2.889 V 11.977 L 8.644,5.733 10.2,4.133 l 4.689,4.689 V 2.666 h 2.222 v 6.156 l 4.778,-4.756 1.555,1.578 -6.333,6.333 v 2.911 h 2.911 l 6.267,-6.267 1.578,1.555 -4.689,4.711 h 6.156 v 2.222 h -6.156 l 4.711,4.756 -1.533,1.578 -6.333,-6.333 h -2.911 v 2.889 l 6.333,6.356 -1.533,1.578 -4.8,-4.778 v 6.178 z"
    class="ColorScheme-Text" fill="currentColor" />
</svg>