<svg viewBox="0 0 32 32" xmlns="http://www.w3.org/2000/svg" xmlns:svg="http://www.w3.org/2000/svg">
  <defs>
    <style type="text/css" id="current-color-scheme">
      .ColorScheme-Text {
        color: #e2e2e5;
      }
    </style>
  </defs>
  <path
    d="m 18.219,15.555 q 1.647,0 2.803,-1.153 1.155,-1.153 1.155,-2.8 0,-1.647 -1.153,-2.803 -1.153,-1.156 -2.8,-1.156 -1.647,0 -2.802,1.153 -1.156,1.153 -1.156,2.8 0,1.647 1.153,2.803 1.153,1.156 2.8,1.156 z m -8.886,7.022 q 1.633,-2.033 3.956,-3.194 2.322,-1.161 4.933,-1.161 2.611,0 4.933,1.161 2.322,1.161 3.955,3.194 V 4.889 H 9.333 Z m 0,2.311 q -0.917,0 -1.569,-0.653 -0.653,-0.653 -0.653,-1.569 V 4.889 q 0,-0.917 0.653,-1.57 Q 8.416,2.666 9.333,2.666 H 27.111 q 0.917,0 1.57,0.653 0.653,0.653 0.653,1.57 V 22.666 q 0,0.917 -0.653,1.569 -0.653,0.653 -1.57,0.653 z m -4.444,4.444 q -0.917,0 -1.57,-0.653 Q 2.666,28.027 2.666,27.111 V 8.222 H 4.889 V 27.111 H 23.777 v 2.222 z M 18.222,13.333 q -0.722,0 -1.228,-0.506 -0.505,-0.505 -0.505,-1.228 0,-0.722 0.505,-1.228 0.506,-0.506 1.228,-0.506 0.722,0 1.228,0.506 0.506,0.505 0.506,1.228 0,0.722 -0.506,1.228 -0.506,0.506 -1.228,0.506 z m -5.622,9.333 h 11.244 q -1.122,-1.089 -2.578,-1.656 -1.456,-0.567 -3.044,-0.567 -1.589,0 -3.045,0.567 -1.455,0.567 -2.578,1.656 z m 5.622,-8.944 z"
    class="ColorScheme-Text" fill="currentColor" />
</svg>