<svg viewBox="0 0 32 32" xmlns="http://www.w3.org/2000/svg">
  <defs>
    <style type="text/css" id="current-color-scheme">
      .ColorScheme-Text {
        color: #e2e2e5;
      }
    </style>
  </defs>
  <path
    d="m 16,29.333 q -2.767,0 -5.2,-1.05 -2.433,-1.05 -4.233,-2.85 -1.8,-1.8 -2.85,-4.233 -1.05,-2.433 -1.05,-5.2 0,-2.8 1.05,-5.217 Q 4.767,8.367 6.567,6.567 L 8.433,8.433 Q 6.967,9.9 6.15,11.833 5.333,13.767 5.333,16 q 0,4.467 3.1,7.567 3.1,3.1 7.567,3.1 4.467,0 7.567,-3.1 3.1,-3.1 3.1,-7.567 0,-2.233 -0.817,-4.167 -0.817,-1.933 -2.283,-3.4 l 1.867,-1.867 q 1.8,1.8 2.85,4.217 1.05,2.417 1.05,5.217 0,2.767 -1.05,5.2 -1.05,2.433 -2.85,4.233 -1.8,1.8 -4.233,2.85 -2.433,1.05 -5.2,1.05 z m -1.333,-12 V 2.667 h 2.667 V 17.333 Z"
    class="ColorScheme-Text" fill="currentColor" />
</svg>