<svg viewBox="0 0 32 32" xmlns="http://www.w3.org/2000/svg" xmlns:svg="http://www.w3.org/2000/svg">
  <defs>
    <style type="text/css" id="current-color-scheme">
      .ColorScheme-Text {
        color: #e2e2e5;
      }
    </style>
  </defs>
  <path
    d="m 16,29.333 q -2.744,0 -5.178,-1.05 -2.433,-1.05 -4.245,-2.861 -1.811,-1.811 -2.861,-4.245 -1.05,-2.433 -1.05,-5.178 0,-2.8 1.061,-5.217 1.061,-2.417 2.861,-4.217 l 1.555,1.556 q -1.533,1.511 -2.394,3.533 -0.861,2.022 -0.861,4.344 0,4.622 3.244,7.867 3.244,3.244 7.867,3.244 4.644,0 7.878,-3.244 3.233,-3.244 3.233,-7.867 0,-2.322 -0.85,-4.344 -0.85,-2.022 -2.383,-3.533 l 1.556,-1.556 q 1.8,1.8 2.85,4.217 1.05,2.417 1.05,5.217 0,2.744 -1.05,5.178 -1.05,2.433 -2.85,4.245 -1.8,1.811 -4.233,2.861 -2.433,1.05 -5.2,1.05 z m -1.111,-12 V 2.666 h 2.222 v 14.667 z"
    class="ColorScheme-Text" fill="currentColor" />
</svg>