<svg viewBox="0 0 32 32" xmlns="http://www.w3.org/2000/svg" xmlns:svg="http://www.w3.org/2000/svg">
  <defs>
    <style type="text/css" id="current-color-scheme">
      .ColorScheme-Text {
        color: #e2e2e5;
      }
    </style>
  </defs>
  <path
    d="m 7.556,29.334 q -0.917,0 -1.57,-0.653 Q 5.334,28.028 5.334,27.111 V 13.023 q 0,-0.917 0.653,-1.57 0.653,-0.653 1.57,-0.653 H 9.556 V 7.778 q 0,-2.674 1.886,-4.559 1.886,-1.885 4.561,-1.885 2.675,0 4.559,1.885 1.883,1.885 1.883,4.559 v 3.022 h 2 q 0.917,0 1.57,0.653 0.653,0.653 0.653,1.57 v 14.089 q 0,0.917 -0.653,1.57 -0.653,0.653 -1.57,0.653 z m 0,-2.222 H 24.445 V 13.023 H 7.556 Z m 8.448,-4.444 q 1.074,0 1.835,-0.751 0.761,-0.751 0.761,-1.805 0,-1.033 -0.765,-1.839 -0.765,-0.806 -1.839,-0.806 -1.074,0 -1.835,0.806 -0.761,0.805 -0.761,1.85 0,1.044 0.765,1.794 0.765,0.75 1.839,0.75 z m -4.226,-11.867 h 8.445 V 7.778 q 0,-1.759 -1.231,-2.991 -1.231,-1.231 -2.989,-1.231 -1.758,0 -2.992,1.231 -1.233,1.232 -1.233,2.991 z M 7.556,27.111 V 13.023 Z"
    class="ColorScheme-Text" fill="currentColor" />
</svg>