<svg viewBox="0 0 32 32" xmlns="http://www.w3.org/2000/svg">
  <defs>
    <style type="text/css" id="current-color-scheme">
      .ColorScheme-Text {
        color: #e2e2e5;
      }
    </style>
  </defs>
  <path
    d="M 16,28 Q 11.367,28 7.967,24.95 4.567,21.9 4.067,17.333 H 6.8 Q 7.267,20.8 9.883,23.067 12.5,25.333 16,25.333 q 3.9,0 6.617,-2.717 Q 25.333,19.9 25.333,16 q 0,-3.9 -2.717,-6.617 Q 19.9,6.667 16,6.667 q -2.3,0 -4.3,1.067 Q 9.7,8.8 8.333,10.667 H 12 v 2.667 H 4 V 5.333 H 6.667 V 8.467 Q 8.367,6.333 10.817,5.167 13.267,4 16,4 q 2.5,0 4.683,0.95 2.183,0.95 3.8,2.567 Q 26.1,9.133 27.05,11.317 28,13.5 28,16 q 0,2.5 -0.95,4.683 -0.95,2.183 -2.567,3.8 Q 22.867,26.1 20.683,27.05 18.5,28 16,28 Z"
    class="ColorScheme-Text" fill="currentColor" />
</svg>