<svg viewBox="0 0 32 32" xmlns="http://www.w3.org/2000/svg">
  <defs>
    <style type="text/css" id="current-color-scheme">
      .ColorScheme-Text {
        color: #e2e2e5;
      }
    </style>
  </defs>
  <path
    d="m 16.133,29.333 q -2.8,0 -5.25,-1.067 -2.45,-1.067 -4.267,-2.883 -1.817,-1.817 -2.883,-4.267 -1.067,-2.45 -1.067,-5.25 0,-4.867 3.1,-8.583 3.1,-3.717 7.9,-4.617 -0.6,3.3 0.367,6.45 Q 15,12.267 17.367,14.633 19.733,17 22.883,17.967 q 3.15,0.967 6.45,0.367 -0.867,4.8 -4.6,7.9 -3.733,3.1 -8.6,3.1 z m 0,-2.667 q 2.933,0 5.433,-1.467 2.5,-1.467 3.933,-4.033 -2.867,-0.267 -5.433,-1.45 Q 17.5,18.533 15.467,16.5 13.433,14.467 12.233,11.9 11.033,9.333 10.8,6.467 8.233,7.9 6.783,10.417 q -1.45,2.517 -1.45,5.45 0,4.5 3.15,7.65 3.15,3.15 7.65,3.15 z M 15.467,16.5 Z"
    class="ColorScheme-Text" fill="currentColor" />
</svg>