<svg xmlns="http://www.w3.org/2000/svg" viewBox="0 0 32 32">
  <defs>
    <style type="text/css" id="current-color-scheme">
      .ColorScheme-Text {
        color: #e2e2e5;
      }
    </style>
  </defs>
  <path
    d="M 16,28 Q 13.51,28 11.32,27.055 9.13,26.11 7.51,24.49 5.89,22.87 4.945,20.68 4,18.49 4,16 4,13.48 4.945,11.305 5.89,9.13 7.51,7.51 L 9.19,9.19 Q 7.87,10.51 7.135,12.25 6.4,13.99 6.4,16 q 0,4.02 2.79,6.81 2.79,2.79 6.81,2.79 4.02,0 6.81,-2.79 Q 25.6,20.02 25.6,16 25.6,13.99 24.865,12.25 24.13,10.51 22.81,9.19 l 1.68,-1.68 q 1.62,1.62 2.565,3.795 Q 28,13.48 28,16 q 0,2.49 -0.945,4.68 -0.945,2.19 -2.565,3.81 -1.62,1.62 -3.81,2.565 Q 18.49,28 16,28 Z M 14.8,17.2 V 4 h 2.4 v 13.2 z"
    class="ColorScheme-Text" fill="currentColor" />
</svg>