<svg viewBox="0 0 32 32" xmlns="http://www.w3.org/2000/svg">
  <defs>
    <style type="text/css" id="current-color-scheme">
      .ColorScheme-Text {
        color: #e2e2e5;
      }
    </style>
  </defs>
  <path
    d="m 26.133,28 -8.4,-8.4 q -1,0.8 -2.3,1.267 -1.3,0.467 -2.767,0.467 -3.633,0 -6.15,-2.517 -2.517,-2.517 -2.517,-6.15 0,-3.633 2.517,-6.15 2.517,-2.517 6.15,-2.517 3.633,0 6.15,2.517 2.517,2.517 2.517,6.15 0,1.467 -0.467,2.767 -0.467,1.3 -1.267,2.3 l 8.4,8.4 z M 12.667,18.667 q 2.5,0 4.25,-1.75 1.75,-1.75 1.75,-4.25 0,-2.5 -1.75,-4.25 -1.75,-1.75 -4.25,-1.75 -2.5,0 -4.25,1.75 -1.75,1.75 -1.75,4.25 0,2.5 1.75,4.25 1.75,1.75 4.25,1.75 z"
    class="ColorScheme-Text" fill="currentColor" />
</svg>