<svg viewBox="0 0 32 32" version="1.1" xmlns="http://www.w3.org/2000/svg" xmlns:svg="http://www.w3.org/2000/svg">
  <defs>
    <style type="text/css" id="current-color-scheme">
      .ColorScheme-Text {
        color: #e2e2e5;
      }
    </style>
  </defs>
  <path class="ColorScheme-Text"
    d="M 15.934 4 C 14.141 4 12.443 4.39 10.84 5.168 C 9.236 5.945 7.859 7.022 6.711 8.4 L 6.711 5 L 4.488 5 L 4.488 12.289 L 11.801 12.289 L 11.801 10.066 L 8.244 10.066 C 9.199 8.896 10.34 7.964 11.666 7.268 C 12.992 6.572 14.415 6.223 15.934 6.223 C 18.652 6.223 20.973 7.157 22.895 9.027 C 24.707 10.791 25.664 12.926 25.768 15.432 A 8.75 8.75 0 0 1 27.992 16.217 C 27.994 16.13 27.998 16.043 27.998 15.955 C 27.998 14.288 27.682 12.731 27.049 11.283 C 26.415 9.835 25.554 8.572 24.461 7.494 C 23.369 6.417 22.09 5.565 20.627 4.939 C 19.164 4.313 17.6 4 15.934 4 z M 4.021 16.422 C 4.133 19.659 5.339 22.398 7.639 24.639 C 9.939 26.879 12.704 28 15.934 28 L 15.934 27.998 C 16.035 27.998 16.135 27.995 16.236 27.992 A 8.75 8.75 0 0 1 15.453 25.766 C 13.03 25.661 10.946 24.763 9.205 23.066 C 7.35 21.259 6.37 19.044 6.266 16.422 L 4.021 16.422 z"
    class="ColorScheme-Text" fill="currentColor" />
  <path
    d="M 24,30.511 q -2.678,0 -4.594,-1.917 -1.917,-1.917 -1.917,-4.594 0,-2.678 1.917,-4.594 1.917,-1.917 4.594,-1.917 2.678,0 4.594,1.917 1.917,1.917 1.917,4.594 0,2.678 -1.917,4.594 -1.917,1.917 -4.594,1.917 z m 0,-2.644 3.844,-3.844 -0.778,-0.778 -2.511,2.511 v -5.622 h -1.111 v 5.622 l -2.511,-2.511 -0.778,0.778 z"
    class="ColorScheme-Text" fill="currentColor" />
</svg>