<svg viewBox="0 0 32 32" version="1.1" xmlns="http://www.w3.org/2000/svg" xmlns:svg="http://www.w3.org/2000/svg">
  <sodipodi:namedview pagecolor="#ffffff" bordercolor="#666666" borderopacity="1.0" />
  <defs>
    <style type="text/css" id="current-color-scheme">
      .ColorScheme-Text {
        color: #e2e2e5;
      }
    </style>
  </defs>
  <path class="ColorScheme-Text"
    d="M 14.889 2.666 L 14.889 17.332 L 17.111 17.332 L 17.111 2.666 L 14.889 2.666 z M 6.588 6.564 C 5.388 7.764 4.434 9.17 3.727 10.781 C 3.019 12.393 2.666 14.131 2.666 15.998 C 2.666 17.828 3.017 19.556 3.717 21.178 C 4.417 22.8 5.369 24.215 6.576 25.422 C 7.784 26.629 9.2 27.583 10.822 28.283 C 12.445 28.983 14.171 29.332 16 29.332 C 16.357 29.332 16.708 29.315 17.057 29.289 A 8.75 8.75 0 0 1 15.844 27.105 C 12.829 27.07 10.259 25.991 8.133 23.865 C 5.97 21.702 4.889 19.079 4.889 15.998 C 4.889 14.45 5.174 13.002 5.748 11.654 C 6.322 10.306 7.121 9.128 8.143 8.121 L 6.588 6.564 z M 25.434 6.564 L 23.877 8.121 C 24.899 9.128 25.693 10.306 26.26 11.654 C 26.805 12.951 27.085 14.341 27.105 15.822 A 8.75 8.75 0 0 1 29.291 17.033 C 29.316 16.692 29.332 16.347 29.332 15.998 C 29.332 14.131 28.983 12.393 28.283 10.781 C 27.583 9.17 26.634 7.764 25.434 6.564 z"
    class="ColorScheme-Text" fill="currentColor" />
  <path
    d="M 24,30.511 q -2.678,0 -4.594,-1.917 -1.917,-1.917 -1.917,-4.594 0,-2.678 1.917,-4.594 1.917,-1.917 4.594,-1.917 2.678,0 4.594,1.917 1.917,1.917 1.917,4.594 0,2.678 -1.917,4.594 -1.917,1.917 -4.594,1.917 z m 0,-2.644 3.844,-3.844 -0.778,-0.778 -2.511,2.511 v -5.622 h -1.111 v 5.622 l -2.511,-2.511 -0.778,0.778 z"
    class="ColorScheme-Text" fill="currentColor" />
</svg>