<svg viewBox="0 0 32 32" xmlns="http://www.w3.org/2000/svg" xmlns:svg="http://www.w3.org/2000/svg">
  <defs>
    <style type="text/css" id="current-color-scheme">
      .ColorScheme-Text {
        color: #e2e2e5;
      }
    </style>
  </defs>
  <path
    d="m 1.289,26.667 v -3.333 q 0,-1.156 0.594,-2.106 0.594,-0.95 1.628,-1.428 2.311,-1.056 4.322,-1.539 2.011,-0.483 4.122,-0.483 2.111,0 4.111,0.483 2,0.483 4.311,1.539 1.033,0.478 1.639,1.428 0.606,0.95 0.606,2.106 v 3.333 z m 23.555,0 v -3.422 q 0,-1.889 -0.983,-3.239 -0.983,-1.35 -2.639,-2.228 2.1,0.245 3.955,0.75 1.856,0.506 3.133,1.183 1.133,0.645 1.767,1.539 0.633,0.894 0.633,1.994 v 3.422 z M 11.955,15.978 q -2.2,0 -3.656,-1.455 Q 6.844,13.067 6.844,10.867 q 0,-2.2 1.456,-3.656 Q 9.755,5.756 11.955,5.756 q 2.2,0 3.655,1.455 Q 17.066,8.667 17.066,10.867 q 0,2.2 -1.456,3.656 -1.455,1.455 -3.655,1.455 z M 24.4,10.867 q 0,2.2 -1.456,3.656 -1.455,1.455 -3.655,1.455 -0.367,0 -0.856,-0.061 -0.489,-0.061 -0.856,-0.183 0.833,-0.911 1.272,-2.156 0.439,-1.244 0.439,-2.711 0,-1.467 -0.439,-2.667 -0.439,-1.2 -1.272,-2.2 0.4,-0.122 0.856,-0.183 0.456,-0.061 0.856,-0.061 2.2,0 3.655,1.455 Q 24.4,8.667 24.4,10.867 Z M 3.511,24.445 H 20.4 v -1.111 q 0,-0.478 -0.272,-0.911 -0.272,-0.433 -0.683,-0.622 -2.2,-1.011 -3.9,-1.406 -1.7,-0.394 -3.589,-0.394 -1.889,0 -3.6,0.394 -1.711,0.395 -3.911,1.406 -0.411,0.189 -0.672,0.622 -0.261,0.433 -0.261,0.911 z M 11.955,13.756 q 1.233,0 2.061,-0.828 0.828,-0.828 0.828,-2.061 0,-1.233 -0.828,-2.061 -0.828,-0.828 -2.061,-0.828 -1.233,0 -2.061,0.828 -0.828,0.828 -0.828,2.061 0,1.233 0.828,2.061 0.828,0.828 2.061,0.828 z m 0,10.689 z m 0,-13.578 z"
    class="ColorScheme-Text" fill="currentColor" />
</svg>