<svg viewBox="0 0 32 32" xmlns="http://www.w3.org/2000/svg">
  <defs>
    <style type="text/css" id="current-color-scheme">
      .ColorScheme-Text {
        color: #e2e2e5;
      }
    </style>
  </defs>
  <path
    d="M 5.333,29.333 V 10.667 H 9.333 V 8 q 0,-2.767 1.95,-4.717 1.95,-1.95 4.717,-1.95 2.767,0 4.717,1.95 1.95,1.95 1.95,4.717 v 2.667 h 4 V 29.333 Z M 8,26.667 H 24 V 13.333 H 8 Z m 8,-4 q 1.1,0 1.883,-0.783 Q 18.667,21.1 18.667,20 q 0,-1.1 -0.783,-1.883 Q 17.1,17.333 16,17.333 q -1.1,0 -1.883,0.783 Q 13.333,18.9 13.333,20 q 0,1.1 0.783,1.883 Q 14.9,22.667 16,22.667 Z m -4,-12 h 8 V 8 Q 20,6.333 18.833,5.167 17.667,4 16,4 q -1.667,0 -2.833,1.167 Q 12,6.333 12,8 Z m -4,16 V 13.333 Z"
    class="ColorScheme-Text" fill="currentColor" />
</svg>