<svg viewBox="0 0 32 32" xmlns="http://www.w3.org/2000/svg">
  <defs>
    <style type="text/css" id="current-color-scheme">
      .ColorScheme-Text {
        color: #e2e2e5;
      }
    </style>
  </defs>
  <path
    d="m 1.333,26.667 v -3.733 q 0,-1.133 0.583,-2.083 Q 2.5,19.9 3.467,19.4 5.533,18.367 7.667,17.85 9.8,17.333 12,17.333 q 2.2,0 4.333,0.517 2.133,0.517 4.2,1.55 0.967,0.5 1.55,1.45 0.583,0.95 0.583,2.083 v 3.733 z m 24,0 v -4 q 0,-1.467 -0.817,-2.817 -0.817,-1.35 -2.317,-2.317 1.7,0.2 3.2,0.683 1.5,0.483 2.8,1.183 1.2,0.667 1.833,1.483 0.633,0.817 0.633,1.783 v 4 z M 12,16 Q 9.8,16 8.233,14.433 6.667,12.867 6.667,10.667 q 0,-2.2 1.567,-3.767 Q 9.8,5.333 12,5.333 q 2.2,0 3.767,1.567 1.567,1.567 1.567,3.767 0,2.2 -1.567,3.767 Q 14.2,16 12,16 Z m 13.333,-5.333 q 0,2.2 -1.567,3.767 Q 22.2,16 20,16 19.633,16 19.067,15.917 18.5,15.833 18.133,15.733 q 0.9,-1.067 1.383,-2.367 0.483,-1.3 0.483,-2.7 0,-1.4 -0.483,-2.7 -0.483,-1.3 -1.383,-2.367 Q 18.6,5.433 19.067,5.383 q 0.467,-0.05 0.933,-0.05 2.2,0 3.767,1.567 1.567,1.567 1.567,3.767 z M 4,24 H 20 v -1.067 q 0,-0.367 -0.183,-0.667 -0.183,-0.3 -0.483,-0.467 -1.8,-0.9 -3.633,-1.35 Q 13.867,20 12,20 q -1.867,0 -3.7,0.45 -1.833,0.45 -3.633,1.35 -0.3,0.167 -0.483,0.467 -0.183,0.3 -0.183,0.667 z M 12,13.333 q 1.1,0 1.883,-0.783 0.783,-0.783 0.783,-1.883 0,-1.1 -0.783,-1.883 Q 13.1,8 12,8 q -1.1,0 -1.883,0.783 -0.783,0.783 -0.783,1.883 0,1.1 0.783,1.883 Q 10.9,13.333 12,13.333 Z m 0,10.667 z m 0,-13.333 z"
    class="ColorScheme-Text" fill="currentColor" />
</svg>