<svg viewBox="0 0 32 32" xmlns="http://www.w3.org/2000/svg" xmlns:svg="http://www.w3.org/2000/svg">
  <defs>
    <style type="text/css" id="current-color-scheme">
      .ColorScheme-Text {
        color: #e2e2e5;
      }
    </style>
  </defs>
  <path
    d="m 20.222,21.555 h 5.333 v -5.333 h -1.778 v 3.555 h -3.555 z m -4.221,-1.667 q 1.621,0 2.754,-1.135 1.133,-1.135 1.133,-2.756 0,-1.621 -1.135,-2.754 -1.135,-1.133 -2.756,-1.133 -1.621,0 -2.754,1.135 -1.133,1.135 -1.133,2.756 0,1.621 1.135,2.754 1.135,1.133 2.756,1.133 z m -9.557,-4 h 1.778 V 12.333 H 11.777 V 10.555 H 6.444 Z M 2.666,25.333 V 6.666 H 29.333 V 25.333 Z M 4.889,23.111 H 27.111 V 8.889 H 4.889 Z m 0,0 V 8.889 Z"
    class="ColorScheme-Text" fill="currentColor" />
</svg>