<svg viewBox="0 0 32 32" version="1.1" xmlns="http://www.w3.org/2000/svg" xmlns:svg="http://www.w3.org/2000/svg">
  <defs>
    <style type="text/css" id="current-color-scheme">
      .ColorScheme-Text {
        color: #e2e2e5;
      }
    </style>
  </defs>
  <path
    d="m 16,26.667 q -4.444,0 -7.556,-3.111 -3.111,-3.111 -3.111,-7.556 0,-4.444 3.111,-7.556 3.111,-3.111 7.556,-3.111 2.656,0 4.778,1.083 2.122,1.083 3.667,3.006 v -4.089 h 2.222 v 8.756 h -8.756 v -2.222 h 5.6 q -1.2,-1.956 -3.128,-3.133 -1.928,-1.178 -4.383,-1.178 -3.533,0 -5.989,2.455 -2.455,2.456 -2.455,5.989 0,3.533 2.455,5.989 2.456,2.455 5.989,2.455 2.7,0 4.922,-1.544 2.222,-1.544 3.1,-4.078 h 2.311 q -0.956,3.511 -3.822,5.678 -2.867,2.167 -6.511,2.167 z"
    class="ColorScheme-Text" fill="currentColor" />
</svg>