<svg viewBox="0 0 32 32" xmlns="http://www.w3.org/2000/svg" xmlns:svg="http://www.w3.org/2000/svg">
  <defs>
    <style type="text/css" id="current-color-scheme">
      .ColorScheme-Text {
        color: #e2e2e5;
      }
    </style>
  </defs>
  <path
    d="m 10.666,28 q 1.1,0 1.883,-0.783 0.783,-0.783 0.783,-1.883 v -5.333 q 0,-1.1 -0.783,-1.883 -0.783,-0.783 -1.883,-0.783 H 5.333 q -1.1,0 -1.883,0.783 Q 2.666,18.9 2.666,20 v 5.333 q 0,1.1 0.783,1.883 0.783,0.783 1.883,0.783 z m 0.444,-2.222 H 4.889 v -6.222 h 6.222 z m 18.222,-2 V 21.556 H 17.333 v 2.222 z M 10.666,14.667 q 1.1,0 1.883,-0.783 0.783,-0.783 0.783,-1.883 V 6.667 q 0,-1.1 -0.783,-1.883 Q 11.766,4 10.666,4 H 5.333 q -1.1,0 -1.883,0.783 Q 2.666,5.567 2.666,6.667 v 5.333 q 0,1.1 0.783,1.883 0.783,0.783 1.883,0.783 z m 0.444,-2.222 H 4.889 V 6.222 h 6.222 z m 18.222,-2 V 8.222 H 17.333 V 10.444 Z M 8,22.667 Z m 0,-13.333 z"
    class="ColorScheme-Text" fill="currentColor" />
</svg>