<svg viewBox="0 0 32 32" xmlns="http://www.w3.org/2000/svg" xmlns:svg="http://www.w3.org/2000/svg">
  <defs>
    <style type="text/css" id="current-color-scheme">
      .ColorScheme-Text {
        color: #e2e2e5;
      }
    </style>
  </defs>
  <path
    d="M 9.556,11.556 V 9.334 H 28 v 2.222 z m 0,5.555 v -2.222 H 28 v 2.222 z m 0,5.556 V 20.445 H 28 v 2.222 z m -4.445,-11.111 q -0.455,0 -0.783,-0.328 Q 4,10.9 4,10.434 4,9.967 4.328,9.65 4.656,9.334 5.122,9.334 q 0.467,0 0.783,0.319 Q 6.222,9.973 6.222,10.445 q 0,0.456 -0.32,0.783 -0.319,0.328 -0.792,0.328 z m 0,5.555 q -0.455,0 -0.783,-0.328 Q 4,16.456 4,15.989 q 0,-0.467 0.328,-0.783 0.328,-0.317 0.795,-0.317 0.467,0 0.783,0.319 0.317,0.319 0.317,0.792 0,0.456 -0.32,0.783 -0.319,0.328 -0.792,0.328 z m 0,5.556 q -0.455,0 -0.783,-0.328 Q 4,22.011 4,21.545 q 0,-0.467 0.328,-0.783 0.328,-0.317 0.795,-0.317 0.467,0 0.783,0.32 0.317,0.319 0.317,0.792 0,0.455 -0.32,0.783 -0.319,0.328 -0.792,0.328 z"
    class="ColorScheme-Text" fill="currentColor" />
</svg>