<svg viewBox="0 0 32 32" xmlns="http://www.w3.org/2000/svg" xmlns:svg="http://www.w3.org/2000/svg">
  <defs>
    <style type="text/css" id="current-color-scheme">
      .ColorScheme-Text {
        color: #e2e2e5;
      }
    </style>
  </defs>
  <path
    d="m 6.222,28 q -0.917,0 -1.57,-0.653 Q 4,26.694 4,25.778 V 6.222 Q 4,5.306 4.653,4.653 5.306,4 6.222,4 H 25.778 q 0.917,0 1.57,0.653 0.653,0.653 0.653,1.57 V 25.778 q 0,0.917 -0.653,1.57 -0.653,0.653 -1.57,0.653 z m 0,-2.222 H 25.778 V 8.889 H 6.222 Z m 9.779,-3.222 q -2.69,0 -4.807,-1.453 -2.117,-1.454 -3.083,-3.772 0.967,-2.319 3.083,-3.769 2.116,-1.45 4.805,-1.45 2.69,0 4.807,1.453 2.117,1.454 3.083,3.772 -0.967,2.319 -3.083,3.769 -2.116,1.45 -4.805,1.45 z m -9.6e-4,-1.778 q 1.889,0 3.466,-0.913 1.577,-0.913 2.468,-2.532 -0.891,-1.619 -2.468,-2.532 -1.577,-0.913 -3.466,-0.913 -1.889,0 -3.466,0.913 -1.577,0.913 -2.468,2.532 0.891,1.619 2.468,2.532 1.577,0.913 3.466,0.913 z m 0,-3.444 z m 0.003,1.778 q 0.742,0 1.258,-0.519 0.517,-0.519 0.517,-1.261 0,-0.742 -0.519,-1.258 -0.519,-0.517 -1.261,-0.517 -0.742,0 -1.258,0.519 -0.517,0.519 -0.517,1.261 0,0.742 0.519,1.258 0.519,0.517 1.261,0.517 z"
    class="ColorScheme-Text" fill="currentColor" />
</svg>