<svg viewBox="0 0 32 32" xmlns="http://www.w3.org/2000/svg" xmlns:svg="http://www.w3.org/2000/svg">
  <defs>
    <style type="text/css" id="current-color-scheme">
      .ColorScheme-Text {
        color: #e2e2e5;
      }
    </style>
  </defs>
  <path
    d="M 21.689,27.111 V 14.4 H 4.889 v 12.711 z m 2.222,-7.289 v -2.222 h 3.2 V 4.889 H 10.311 V 12.177 H 8.089 V 4.889 q 0,-0.9 0.661,-1.561 Q 9.411,2.666 10.311,2.666 h 16.8 q 0.9,0 1.561,0.661 0.661,0.661 0.661,1.561 V 17.6 q 0,0.9 -0.661,1.561 -0.661,0.661 -1.561,0.661 z M 4.889,29.333 q -0.9,0 -1.561,-0.661 Q 2.666,28.011 2.666,27.111 V 14.4 q 0,-0.9 0.661,-1.561 0.661,-0.661 1.561,-0.661 H 21.422 q 1.027,0 1.758,0.725 0.731,0.725 0.731,1.742 v 12.467 q 0,0.9 -0.661,1.561 -0.661,0.661 -1.561,0.661 z M 18.711,8.922 Z m -5.422,11.833 z"
    class="ColorScheme-Text" fill="currentColor" />
</svg>