<svg viewBox="0 0 32 32" xmlns="http://www.w3.org/2000/svg" xmlns:svg="http://www.w3.org/2000/svg">
  <defs>
    <style type="text/css" id="current-color-scheme">
      .ColorScheme-Text {
        color: #e2e2e5;
      }
    </style>
  </defs>
  <path
    d="m 4.889,28 q -0.9,0 -1.561,-0.661 -0.661,-0.661 -0.661,-1.561 V 14.422 H 4.889 V 25.778 H 18.933 v 2.222 z M 9.355,23.556 q -0.9,0 -1.572,-0.661 -0.672,-0.661 -0.672,-1.561 V 9.978 H 9.333 V 21.333 H 23.4 v 2.222 z m 4.422,-4.445 q -0.9,0 -1.561,-0.661 -0.661,-0.661 -0.661,-1.561 V 6.222 q 0,-0.9 0.661,-1.561 Q 12.877,4 13.777,4 h 13.333 q 0.9,0 1.561,0.661 0.661,0.661 0.661,1.561 V 16.889 q 0,0.9 -0.661,1.561 -0.661,0.661 -1.561,0.661 z m 0,-2.222 H 27.111 V 8.489 H 13.777 Z"
    class="ColorScheme-Text" fill="currentColor" />
</svg>