<svg viewBox="0 0 32 32" xmlns="http://www.w3.org/2000/svg" xmlns:svg="http://www.w3.org/2000/svg">
  <defs>
    <style type="text/css" id="current-color-scheme">
      .ColorScheme-Text {
        color: #e2e2e5;
      }
    </style>
  </defs>
  <path
    d="m 26.4,27.978 -8.644,-8.644 q -1,0.844 -2.321,1.322 -1.321,0.478 -2.812,0.478 -3.615,0 -6.119,-2.506 Q 4,16.122 4,12.556 4,8.989 6.506,6.483 9.011,3.978 12.589,3.978 q 3.578,0 6.072,2.506 2.495,2.506 2.495,6.076 0,1.441 -0.467,2.763 -0.467,1.322 -1.356,2.433 l 8.667,8.622 z M 12.6,18.911 q 2.639,0 4.486,-1.861 1.847,-1.861 1.847,-4.494 0,-2.633 -1.847,-4.495 -1.847,-1.861 -4.486,-1.861 -2.657,0 -4.518,1.861 -1.86,1.861 -1.86,4.495 0,2.633 1.86,4.494 1.86,1.861 4.518,1.861 z M 11.467,16.356 V 13.644 H 8.756 v -2.222 H 11.467 V 8.733 h 2.222 v 2.689 h 2.689 v 2.222 h -2.689 v 2.711 z"
    class="ColorScheme-Text" fill="currentColor" />
</svg>