<svg height="32" width="32" version="1.1" xmlns="http://www.w3.org/2000/svg" xmlns:svg="http://www.w3.org/2000/svg">
  <defs>
    <style type="text/css" id="current-color-scheme">
      .ColorScheme-Accent {
        color: #95ccff;
      }

      .ColorScheme-Background {
        color: #28292d;
      }
    </style>
    <linearGradient id="lg1" x1="48" y1="26.667" x2="48" y2="5.334" gradientUnits="userSpaceOnUse">
      <stop stop-opacity="0.15" offset="0" />
      <stop stop-opacity="0" offset="1" />
    </linearGradient>
    <path id="folder-back"
      d="M 2.667,12 v -4.444 q 0,-0.878 0.661,-1.55 0.661,-0.672 1.561,-0.672 h 8.911 l 2.222,2.222 v 4.444 z" />
    <path id="icon"
      d="m 18.024,20.786 0.77,-0.77 -2.251,-2.251 V 14.593 h -1.088 v 3.625 z m -2.024,3.232 q -1.199,0 -2.253,-0.453 -1.054,-0.453 -1.847,-1.246 -0.793,-0.793 -1.246,-1.85 -0.453,-1.057 -0.453,-2.258 0,-1.201 0.453,-2.259 0.453,-1.057 1.246,-1.843 0.793,-0.785 1.85,-1.239 1.057,-0.453 2.258,-0.453 1.201,0 2.259,0.457 1.057,0.457 1.84,1.24 0.782,0.783 1.238,1.841 0.456,1.059 0.456,2.262 0,1.199 -0.453,2.253 -0.453,1.054 -1.239,1.847 -0.785,0.793 -1.845,1.246 -1.059,0.453 -2.264,0.453 z m 0,-5.8 z m 0.007,4.712 q 1.956,0 3.33,-1.382 1.375,-1.382 1.375,-3.338 0,-1.956 -1.375,-3.33 -1.375,-1.375 -3.33,-1.375 -1.956,0 -3.338,1.375 -1.382,1.375 -1.382,3.33 0,1.956 1.382,3.338 1.382,1.382 3.338,1.382 z" />
  </defs>
  <use href="#folder-back" class="ColorScheme-Accent" fill="currentColor" />
  <use href="#folder-back" class="ColorScheme-Background" fill="currentColor" opacity="0.3" />
  <path
    d="M 4.889,26.667 q -0.9,0 -1.561,-0.672 -0.661,-0.672 -0.661,-1.55 v -12.445 q 0,-0.878 0.661,-1.55 0.661,-0.672 1.561,-0.672 h 8.911 l 2.222,-2.222 h 11.089 q 0.878,0 1.55,0.672 0.672,0.672 0.672,1.55 v 14.667 q 0,0.878 -0.672,1.55 -0.672,0.672 -1.55,0.672 z"
    class="ColorScheme-Accent" fill="currentColor" />
  <use href="#icon" class="ColorScheme-Background" fill="currentColor" opacity="0.8" />
  <path
    d="m 4.889,26.667 q -0.9,0 -1.561,-0.672 -0.661,-0.672 -0.661,-1.55 V 7.556 q 0,-0.878 0.661,-1.55 Q 3.989,5.334 4.889,5.334 h 8.911 l 2.222,2.222 h 11.089 q 0.878,0 1.55,0.672 0.672,0.672 0.672,1.55 V 24.445 q 0,0.878 -0.672,1.55 -0.672,0.672 -1.55,0.672 z"
    fill="url(#lg1)" />
</svg>