<svg height="32" width="32" version="1.1" xmlns="http://www.w3.org/2000/svg" xmlns:svg="http://www.w3.org/2000/svg">
  <defs>
    <style type="text/css" id="current-color-scheme">
      .ColorScheme-Accent {
        color: #95ccff;
      }

      .ColorScheme-Background {
        color: #28292d;
      }
    </style>
    <linearGradient id="lg1" x1="48" y1="26.667" x2="48" y2="5.334" gradientUnits="userSpaceOnUse">
      <stop stop-opacity="0.15" offset="0" />
      <stop stop-opacity="0" offset="1" />
    </linearGradient>
    <path id="folder-back"
      d="M 2.667,12 v -4.444 q 0,-0.878 0.661,-1.55 0.661,-0.672 1.561,-0.672 h 8.911 l 2.222,2.222 v 4.444 z" />
    <path id="icon"
      d="m 21.774,17.684 -5.239,-5.239 a 0.772,0.772 0 0 0 -1.093,0 l -1.088,1.088 1.38,1.38 a 0.918,0.918 0 0 1 0.944,0.22 0.92,0.92 0 0 1 0.218,0.95 l 1.33,1.33 a 0.918,0.918 0 0 1 0.95,0.218 0.919,0.919 0 0 1 0,1.3 0.92,0.92 0 0 1 -1.301,0 0.919,0.919 0 0 1 -0.2,-1 l -1.241,-1.24 v 3.264 a 0.919,0.919 0 0 1 0.243,1.474 0.919,0.919 0 0 1 -1.3,0 0.919,0.919 0 0 1 0,-1.3 0.919,0.919 0 0 1 0.301,-0.201 v -3.294 a 0.914,0.914 0 0 1 -0.301,-0.2 0.921,0.921 0 0 1 -0.198,-1.006 l -1.361,-1.361 -3.592,3.592 a 0.773,0.773 0 0 0 0,1.093 l 5.24,5.24 a 0.773,0.773 0 0 0 1.093,0 l 5.215,-5.215 a 0.774,0.774 0 0 0 0,-1.093" />
  </defs>
  <use href="#folder-back" class="ColorScheme-Accent" fill="currentColor" />
  <use href="#folder-back" class="ColorScheme-Background" fill="currentColor" opacity="0.3" />
  <path
    d="M 4.889,26.667 q -0.9,0 -1.561,-0.672 -0.661,-0.672 -0.661,-1.55 v -12.445 q 0,-0.878 0.661,-1.55 0.661,-0.672 1.561,-0.672 h 8.911 l 2.222,-2.222 h 11.089 q 0.878,0 1.55,0.672 0.672,0.672 0.672,1.55 v 14.667 q 0,0.878 -0.672,1.55 -0.672,0.672 -1.55,0.672 z"
    class="ColorScheme-Accent" fill="currentColor" />
  <use href="#icon" class="ColorScheme-Background" fill="currentColor" opacity="0.8" />
  <path
    d="m 4.889,26.667 q -0.9,0 -1.561,-0.672 -0.661,-0.672 -0.661,-1.55 V 7.556 q 0,-0.878 0.661,-1.55 Q 3.989,5.334 4.889,5.334 h 8.911 l 2.222,2.222 h 11.089 q 0.878,0 1.55,0.672 0.672,0.672 0.672,1.55 V 24.445 q 0,0.878 -0.672,1.55 -0.672,0.672 -1.55,0.672 z"
    fill="url(#lg1)" />
</svg>