<svg viewBox="0 0 32 32" xmlns="http://www.w3.org/2000/svg">
  <defs>
    <style type="text/css" id="current-color-scheme">
      .ColorScheme-Accent {
        color: #95ccff;
      }

      .ColorScheme-Background {
        color: #1e2022;
      }
    </style>
    <path id="folder-back" d="M 2.667,26.667 V 5.333 H 14.033 l 2,2 h 13.3 V 26.667 Z" />
  </defs>
  <use href="#folder-back" class="ColorScheme-Accent" fill="currentColor" />
  <use href="#folder-back" class="ColorScheme-Background" fill="currentColor" opacity="0.3" />
  <path d="M 2.667,26.667 V 9.333 H 14.033 l 2,-2 h 13.3 V 26.667 Z" class="ColorScheme-Accent" fill="currentColor" />
  <path
    d="m 16,24.042 q -1.254,0 -2.356,-0.476 Q 12.541,23.09 11.726,22.274 10.91,21.459 10.434,20.356 9.958,19.254 9.958,18 q 0,-1.254 0.476,-2.356 0.476,-1.103 1.291,-1.918 0.816,-0.816 1.918,-1.291 1.103,-0.476 2.356,-0.476 1.254,0 2.356,0.476 1.103,0.476 1.918,1.291 0.816,0.816 1.291,1.918 0.476,1.103 0.476,2.356 0,1.254 -0.476,2.356 -0.476,1.103 -1.291,1.918 -0.816,0.816 -1.918,1.291 Q 17.254,24.042 16,24.042 Z M 15.396,22.803 V 21.625 q -0.498,0 -0.853,-0.355 Q 14.188,20.915 14.188,20.417 V 19.813 l -2.9,-2.9 q -0.045,0.272 -0.083,0.544 -0.038,0.272 -0.038,0.544 0,1.828 1.201,3.202 1.201,1.374 3.028,1.601 z M 19.565,21.263 q 0.302,-0.332 0.544,-0.717 0.242,-0.385 0.4,-0.801 0.159,-0.415 0.242,-0.853 0.083,-0.438 0.083,-0.891 0,-1.48 -0.823,-2.704 -0.823,-1.223 -2.198,-1.767 v 0.242 q 0,0.498 -0.355,0.853 -0.355,0.355 -0.853,0.355 H 15.396 V 16.188 q 0,0.257 -0.174,0.43 -0.174,0.174 -0.43,0.174 H 13.583 V 18 h 3.625 q 0.257,0 0.43,0.174 0.174,0.174 0.174,0.43 v 1.813 h 0.604 q 0.393,0 0.71,0.234 0.317,0.234 0.438,0.612 z"
    class="ColorScheme-Background" fill="currentColor" />
</svg>