<svg height="32" width="32" version="1.1" xmlns="http://www.w3.org/2000/svg" xmlns:svg="http://www.w3.org/2000/svg">
  <defs>
    <style type="text/css" id="current-color-scheme">
      .ColorScheme-Accent {
        color: #95ccff;
      }

      .ColorScheme-Background {
        color: #28292d;
      }
    </style>
    <linearGradient id="lg1" x1="48" y1="26.667" x2="48" y2="5.334" gradientUnits="userSpaceOnUse">
      <stop stop-opacity="0.15" offset="0" />
      <stop stop-opacity="0" offset="1" />
    </linearGradient>
    <path id="folder-back"
      d="M 2.667,12 v -4.444 q 0,-0.878 0.661,-1.55 0.661,-0.672 1.561,-0.672 h 8.911 l 2.222,2.222 v 4.444 z" />
    <path id="icon"
      d="m 13.644,24.018 q -0.826,0 -1.41,-0.584 -0.584,-0.584 -0.584,-1.41 V 14.412 q 0,-0.826 0.584,-1.41 Q 12.818,12.418 13.644,12.418 H 20.35 v 8.685 q -0.378,0 -0.642,0.271 -0.264,0.271 -0.264,0.657 0,0.387 0.264,0.651 0.264,0.264 0.642,0.264 v 1.072 z m -0.906,-3.776 q 0.211,-0.106 0.43,-0.159 0.219,-0.053 0.476,-0.053 H 13.825 V 13.506 h -0.181 q -0.378,0 -0.642,0.264 -0.264,0.264 -0.264,0.642 z M 14.913,20.03 h 4.35 V 13.506 h -4.35 z m -2.175,0.211 V 13.506 Z m 0.906,2.689 h 4.924 q -0.106,-0.211 -0.159,-0.423 -0.053,-0.211 -0.053,-0.472 0,-0.245 0.06,-0.476 0.06,-0.23 0.166,-0.442 h -4.939 q -0.393,0 -0.649,0.264 -0.257,0.264 -0.257,0.642 0,0.393 0.257,0.649 0.257,0.257 0.649,0.257 z" />
  </defs>
  <use href="#folder-back" class="ColorScheme-Accent" fill="currentColor" />
  <use href="#folder-back" class="ColorScheme-Background" fill="currentColor" opacity="0.3" />
  <path
    d="M 4.889,26.667 q -0.9,0 -1.561,-0.672 -0.661,-0.672 -0.661,-1.55 v -12.445 q 0,-0.878 0.661,-1.55 0.661,-0.672 1.561,-0.672 h 8.911 l 2.222,-2.222 h 11.089 q 0.878,0 1.55,0.672 0.672,0.672 0.672,1.55 v 14.667 q 0,0.878 -0.672,1.55 -0.672,0.672 -1.55,0.672 z"
    class="ColorScheme-Accent" fill="currentColor" />
  <use href="#icon" class="ColorScheme-Background" fill="currentColor" opacity="0.8" />
  <path
    d="m 4.889,26.667 q -0.9,0 -1.561,-0.672 -0.661,-0.672 -0.661,-1.55 V 7.556 q 0,-0.878 0.661,-1.55 Q 3.989,5.334 4.889,5.334 h 8.911 l 2.222,2.222 h 11.089 q 0.878,0 1.55,0.672 0.672,0.672 0.672,1.55 V 24.445 q 0,0.878 -0.672,1.55 -0.672,0.672 -1.55,0.672 z"
    fill="url(#lg1)" />
</svg>