<svg height="32" width="32" version="1.1" xmlns="http://www.w3.org/2000/svg" xmlns:svg="http://www.w3.org/2000/svg">
  <defs>
    <style type="text/css" id="current-color-scheme">
      .ColorScheme-Accent {
        color: #95ccff;
      }

      .ColorScheme-Background {
        color: #28292d;
      }
    </style>
    <linearGradient id="lg1" x1="48" y1="26.667" x2="48" y2="5.334" gradientUnits="userSpaceOnUse">
      <stop stop-opacity="0.15" offset="0" />
      <stop stop-opacity="0" offset="1" />
    </linearGradient>
    <path id="folder-back"
      d="M 2.667,12 v -4.444 q 0,-0.878 0.661,-1.55 0.661,-0.672 1.561,-0.672 h 8.911 l 2.222,2.222 v 4.444 z" />
    <path id="icon"
      d="m 12.009,23.293 q -0.45,0 -0.767,-0.32 Q 10.925,22.652 10.925,22.202 q 0,-0.45 0.32,-0.767 0.32,-0.317 0.77,-0.317 0.45,0 0.767,0.32 Q 13.1,21.759 13.1,22.209 q 0,0.45 -0.32,0.767 -0.32,0.317 -0.77,0.317 z m 7.616,0 q 0,-1.812 -0.684,-3.391 Q 18.258,18.324 17.077,17.143 15.896,15.961 14.32,15.277 12.743,14.593 10.925,14.593 v -1.45 q 2.115,0 3.952,0.791 1.837,0.791 3.226,2.179 1.389,1.388 2.181,3.224 0.792,1.836 0.792,3.955 z m -3.625,0 q 0,-1.057 -0.393,-1.979 -0.393,-0.921 -1.087,-1.616 -0.695,-0.695 -1.616,-1.088 Q 11.982,18.218 10.925,18.218 v -1.45 q 1.367,0 2.549,0.509 1.181,0.509 2.073,1.394 0.885,0.892 1.394,2.073 0.509,1.181 0.509,2.549 z" />
  </defs>
  <use href="#folder-back" class="ColorScheme-Accent" fill="currentColor" />
  <use href="#folder-back" class="ColorScheme-Background" fill="currentColor" opacity="0.3" />
  <path
    d="M 4.889,26.667 q -0.9,0 -1.561,-0.672 -0.661,-0.672 -0.661,-1.55 v -12.445 q 0,-0.878 0.661,-1.55 0.661,-0.672 1.561,-0.672 h 8.911 l 2.222,-2.222 h 11.089 q 0.878,0 1.55,0.672 0.672,0.672 0.672,1.55 v 14.667 q 0,0.878 -0.672,1.55 -0.672,0.672 -1.55,0.672 z"
    class="ColorScheme-Accent" fill="currentColor" />
  <use href="#icon" class="ColorScheme-Background" fill="currentColor" opacity="0.8" />
  <path
    d="m 4.889,26.667 q -0.9,0 -1.561,-0.672 -0.661,-0.672 -0.661,-1.55 V 7.556 q 0,-0.878 0.661,-1.55 Q 3.989,5.334 4.889,5.334 h 8.911 l 2.222,2.222 h 11.089 q 0.878,0 1.55,0.672 0.672,0.672 0.672,1.55 V 24.445 q 0,0.878 -0.672,1.55 -0.672,0.672 -1.55,0.672 z"
    fill="url(#lg1)" />
</svg>