<svg height="32" width="32" version="1.1" xmlns="http://www.w3.org/2000/svg" xmlns:svg="http://www.w3.org/2000/svg">
  <defs>
    <style type="text/css" id="current-color-scheme">
      .ColorScheme-Accent {
        color: #95ccff;
      }

      .ColorScheme-Background {
        color: #28292d;
      }
    </style>
    <linearGradient id="lg1" x1="48" y1="26.667" x2="48" y2="5.334" gradientUnits="userSpaceOnUse">
      <stop stop-opacity="0.15" offset="0" />
      <stop stop-opacity="0" offset="1" />
    </linearGradient>
    <path id="folder-back"
      d="M 2.667,12 v -4.444 q 0,-0.878 0.661,-1.55 0.661,-0.672 1.561,-0.672 h 8.911 l 2.222,2.222 v 4.444 z" />
    <path id="icon"
      d="m 17.08,22.749 q -0.906,0 -1.541,-0.634 -0.634,-0.634 -0.634,-1.541 0,-0.906 0.634,-1.541 0.634,-0.634 1.541,-0.634 0.302,0 0.574,0.083 0.272,0.083 0.514,0.219 V 13.687 h 3.625 v 1.813 h -2.537 v 5.075 q 0,0.906 -0.634,1.541 -0.634,0.634 -1.541,0.634 z m -6.872,-2.538 q 0.076,-1.314 0.604,-2.477 0.529,-1.163 1.397,-2.032 0.868,-0.868 2.032,-1.405 1.163,-0.536 2.477,-0.597 v 1.088 q -1.088,0.06 -2.047,0.514 -0.959,0.453 -1.684,1.178 -0.725,0.725 -1.171,1.684 -0.446,0.959 -0.521,2.047 z m 2.175,0 q 0.076,-0.861 0.43,-1.624 0.355,-0.763 0.936,-1.344 0.582,-0.582 1.344,-0.944 0.763,-0.363 1.624,-0.423 v 1.103 q -1.284,0.136 -2.183,1.042 -0.899,0.906 -1.035,2.19 z" />
  </defs>
  <use href="#folder-back" class="ColorScheme-Accent" fill="currentColor" />
  <use href="#folder-back" class="ColorScheme-Background" fill="currentColor" opacity="0.3" />
  <path
    d="M 4.889,26.667 q -0.9,0 -1.561,-0.672 -0.661,-0.672 -0.661,-1.55 v -12.445 q 0,-0.878 0.661,-1.55 0.661,-0.672 1.561,-0.672 h 8.911 l 2.222,-2.222 h 11.089 q 0.878,0 1.55,0.672 0.672,0.672 0.672,1.55 v 14.667 q 0,0.878 -0.672,1.55 -0.672,0.672 -1.55,0.672 z"
    class="ColorScheme-Accent" fill="currentColor" />
  <use href="#icon" class="ColorScheme-Background" fill="currentColor" opacity="0.8" />
  <path
    d="m 4.889,26.667 q -0.9,0 -1.561,-0.672 -0.661,-0.672 -0.661,-1.55 V 7.556 q 0,-0.878 0.661,-1.55 Q 3.989,5.334 4.889,5.334 h 8.911 l 2.222,2.222 h 11.089 q 0.878,0 1.55,0.672 0.672,0.672 0.672,1.55 V 24.445 q 0,0.878 -0.672,1.55 -0.672,0.672 -1.55,0.672 z"
    fill="url(#lg1)" />
</svg>