<svg viewBox="0 0 32 32" xmlns="http://www.w3.org/2000/svg">
  <defs>
    <style type="text/css" id="current-color-scheme">
      .ColorScheme-Accent {
        color: #95ccff;
      }

      .ColorScheme-Background {
        color: #1e2022;
      }
    </style>
    <path id="folder-back" d="M 2.667,26.667 V 5.333 H 14.033 l 2,2 h 13.3 V 26.667 Z" />
  </defs>
  <use href="#folder-back" class="ColorScheme-Accent" fill="currentColor" />
  <use href="#folder-back" class="ColorScheme-Background" fill="currentColor" opacity="0.3" />
  <path d="M 2.667,26.667 V 9.333 H 14.033 l 2,-2 h 13.3 V 26.667 Z" class="ColorScheme-Accent" fill="currentColor" />
  <path
    d="m 16.822,23.937 c -0.654,-0.109 -1.581,-0.491 -2.126,-0.845 -1.254,-0.818 -2.074,-1.727 -2.581,-2.862 -0.164,-0.381 -0.26,-0.654 -0.545,-1.635 -0.055,-0.246 -0.147,-0.52 -0.181,-0.606 -0.058,-0.144 -0.06,-0.193 -0.035,-0.675 0.024,-0.436 0.109,-1.09 0.164,-1.142 0.008,-0.013 0.027,-0.016 0.042,-0.007 0.051,0.03 0.099,-0.11 0.145,-0.431 0.026,-0.176 0.066,-0.36 0.089,-0.409 0.024,-0.05 0.063,-0.159 0.088,-0.243 0.058,-0.194 0.137,-0.342 0.38,-0.718 0.107,-0.165 0.219,-0.345 0.248,-0.399 0.034,-0.064 0.072,-0.096 0.106,-0.09 0.033,0.006 0.087,-0.035 0.144,-0.11 0.248,-0.327 1.415,-1.292 1.523,-1.26 0.03,0.009 0.153,-0.032 0.274,-0.09 0.219,-0.106 0.316,-0.13 0.316,-0.08 0,0.014 -0.032,0.048 -0.07,0.073 -0.068,0.045 -0.066,0.046 0.039,0.022 0.06,-0.014 0.162,-0.034 0.225,-0.044 0.079,-0.013 0.111,-0.032 0.1,-0.059 -0.01,-0.024 0.013,-0.048 0.056,-0.058 0.108,-0.028 0.275,-0.023 0.275,0.008 0,0.037 -0.096,0.074 -0.172,0.066 -0.052,-0.005 -0.054,-4e-4 -0.016,0.025 0.039,0.026 0.039,0.031 0.003,0.031 -0.024,2.51e-4 -0.036,0.008 -0.026,0.018 0.01,0.009 0.075,-0.011 0.145,-0.045 0.07,-0.034 0.198,-0.077 0.284,-0.094 0.106,-0.022 0.157,-0.047 0.157,-0.079 0,-0.04 0.05,-0.044 0.383,-0.026 0.211,0.011 0.528,0.042 0.706,0.07 0.323,0.051 0.323,0.051 0.444,-0.016 0.144,-0.08 0.377,-0.09 0.438,-0.02 0.022,0.026 0.084,0.068 0.137,0.095 0.086,0.043 0.092,0.043 0.056,4e-4 -0.069,-0.08 -4e-4,-0.078 0.267,0.008 0.862,0.277 1.564,0.77 2.085,1.464 0.124,0.164 0.131,0.238 0.014,0.138 l -0.067,-0.057 0.051,0.096 c 0.028,0.053 0.051,0.112 0.051,0.132 0,0.02 0.083,0.166 0.184,0.324 0.228,0.357 0.292,0.478 0.277,0.522 -0.006,0.019 -0.108,-0.107 -0.225,-0.28 -0.117,-0.173 -0.29,-0.405 -0.385,-0.517 -0.141,-0.167 -0.178,-0.195 -0.207,-0.16 -0.019,0.024 -0.066,0.048 -0.105,0.053 l -0.07,0.01 0.069,0.13 c 0.038,0.071 0.074,0.115 0.08,0.098 0.033,-0.095 0.186,0.03 0.256,0.208 0.022,0.058 0.083,0.177 0.134,0.264 0.051,0.088 0.086,0.166 0.078,0.173 -0.008,0.008 -0.054,-0.016 -0.103,-0.053 l -0.089,-0.067 0.06,0.1 c 0.033,0.055 0.089,0.122 0.124,0.149 0.044,0.034 0.064,0.088 0.066,0.171 0.004,0.154 0.095,0.335 0.145,0.287 0.078,-0.074 0.094,-0.028 0.074,0.216 -0.014,0.18 -0.007,0.298 0.028,0.424 0.052,0.191 0.041,0.238 -0.035,0.149 -0.048,-0.057 -0.049,-0.057 -0.027,0.002 0.046,0.126 0.081,0.315 0.071,0.39 -0.018,0.138 -0.072,0.081 -0.091,-0.096 l -0.018,-0.173 -0.006,0.184 c -0.003,0.101 -0.028,0.297 -0.055,0.435 -0.028,0.139 -0.042,0.308 -0.032,0.38 0.019,0.135 0.006,0.14 -0.112,0.044 -0.048,-0.039 -0.056,-0.031 -0.089,0.086 -0.028,0.098 -0.028,0.154 0.001,0.237 0.02,0.06 0.032,0.14 0.026,0.179 -0.014,0.09 -0.089,0.118 -0.089,0.033 0,-0.107 -0.042,-0.069 -0.172,0.154 -0.35,0.603 -0.904,1.07 -1.53,1.29 -0.369,0.13 -0.617,0.178 -1.034,0.201 l -0.375,0.021 0.185,0.055 c 0.15,0.044 0.237,0.051 0.453,0.034 0.283,-0.022 0.616,-0.081 0.766,-0.136 0.06,-0.022 0.101,-0.023 0.122,-0.003 0.049,0.047 -0.386,0.232 -0.645,0.274 -0.44,0.071 -1.028,-0.006 -1.548,-0.203 -0.352,-0.134 -0.876,-0.482 -0.796,-0.529 0.015,-0.009 0.115,0.036 0.221,0.101 0.136,0.082 0.194,0.104 0.194,0.073 0,-0.059 0.02,-0.056 0.128,0.018 0.098,0.067 0.398,0.191 0.614,0.254 0.236,0.068 0.144,-0.014 -0.172,-0.156 -1,-0.448 -1.415,-0.895 -1.622,-1.749 -0.076,-0.313 0.006,-0.999 0.144,-1.214 0.035,-0.054 0.064,-0.122 0.064,-0.149 0,-0.119 0.207,-0.433 0.419,-0.636 0.374,-0.358 0.762,-0.507 1.266,-0.485 0.244,0.011 0.348,0.031 0.551,0.109 0.23,0.088 0.52,0.272 0.431,0.274 -0.021,4e-4 -0.112,-0.029 -0.203,-0.065 -0.138,-0.055 -0.227,-0.066 -0.54,-0.068 -0.44,-0.002 -0.656,0.058 -0.969,0.27 -0.444,0.3 -0.692,0.646 -0.779,1.09 -0.059,0.298 -0.06,0.38 -0.015,0.676 0.026,0.17 0.045,0.22 0.078,0.208 0.028,-0.01 0.044,0.005 0.044,0.041 0,0.106 0.239,0.534 0.405,0.725 0.399,0.46 1.045,0.754 1.658,0.754 0.318,0 0.575,-0.059 0.812,-0.185 0.095,-0.051 0.215,-0.113 0.267,-0.138 0.182,-0.088 0.295,-0.19 0.427,-0.382 0.073,-0.107 0.153,-0.195 0.177,-0.195 0.036,0 0.034,0.016 -0.008,0.082 -0.14,0.221 0.188,-0.181 0.358,-0.439 l 0.19,-0.289 -0.021,-0.19 c -0.02,-0.182 -0.017,-0.194 0.074,-0.285 0.088,-0.088 0.096,-0.114 0.106,-0.35 0.009,-0.211 0.003,-0.255 -0.036,-0.255 -0.036,-2.07e-4 -0.052,-0.056 -0.067,-0.24 -0.02,-0.246 -0.227,-1.068 -0.276,-1.096 -0.014,-0.008 -0.055,-0.088 -0.09,-0.176 -0.118,-0.297 -0.324,-0.582 -0.645,-0.893 -0.462,-0.448 -1.045,-0.793 -1.595,-0.946 -0.468,-0.13 -1.263,-0.083 -1.829,0.109 -0.276,0.094 -0.548,0.218 -0.594,0.27 -0.021,0.024 -0.051,0.036 -0.067,0.027 -0.017,-0.01 -0.012,-0.037 0.011,-0.064 0.104,-0.121 -0.242,0.1 -0.465,0.296 -0.135,0.119 -0.25,0.22 -0.256,0.224 -0.006,0.004 0.02,2.07e-4 0.058,-0.009 0.063,-0.016 0.066,-0.012 0.032,0.05 -0.022,0.039 -0.137,0.11 -0.277,0.171 -0.236,0.103 -0.389,0.216 -0.51,0.377 -0.048,0.064 -0.051,0.078 -0.013,0.064 0.027,-0.01 0.049,-0.004 0.049,0.014 0,0.086 -0.081,0.181 -0.201,0.237 -0.266,0.124 -0.734,0.788 -0.984,1.396 -0.112,0.271 -0.11,0.262 -0.049,0.262 0.064,0 0.06,0.07 -0.028,0.444 -0.128,0.546 -0.128,0.528 0.011,1.296 0.17,0.935 0.269,1.248 0.458,1.441 0.044,0.046 0.087,0.142 0.106,0.239 0.023,0.116 0.061,0.192 0.133,0.265 0.066,0.066 0.088,0.107 0.062,0.116 -0.05,0.017 0.105,0.239 0.246,0.353 0.071,0.057 0.124,0.077 0.181,0.066 0.125,-0.023 0.252,0.046 0.448,0.243 0.203,0.205 0.224,0.26 0.089,0.241 -0.087,-0.012 -0.089,-0.01 -0.046,0.052 0.024,0.036 0.115,0.122 0.201,0.192 0.121,0.098 0.152,0.14 0.137,0.186 -0.022,0.066 0.04,0.128 0.182,0.179 0.088,0.032 0.116,0.101 0.05,0.122 -0.02,0.006 0.103,0.128 0.274,0.27 0.192,0.16 0.321,0.248 0.34,0.231 0.049,-0.045 0.111,-0.032 0.112,0.025 0.001,0.062 0.056,0.126 0.255,0.298 0.126,0.109 0.157,0.122 0.234,0.102 0.07,-0.019 0.115,-0.007 0.214,0.058 0.198,0.128 0.318,0.18 0.42,0.18 0.101,0 0.116,0.028 0.063,0.122 -0.028,0.05 -0.022,0.058 0.042,0.058 0.041,0 0.156,0.027 0.256,0.06 0.227,0.075 0.322,0.08 0.265,0.014 -0.084,-0.097 0.005,-0.071 0.306,0.091 0.42,0.226 0.633,0.252 1.469,0.178 0.124,-0.011 0.164,-0.004 0.164,0.026 0,0.026 -0.108,0.065 -0.305,0.111 -0.26,0.06 -0.398,0.072 -0.93,0.078 -0.419,0.005 -0.706,-0.006 -0.87,-0.033 z m -0.428,-4.498 c 0,-0.006 -0.039,-0.034 -0.086,-0.062 l -0.086,-0.05 0.074,0.062 c 0.072,0.06 0.098,0.074 0.098,0.05 z m 4.304,-3.144 c -0.01,-0.024 -0.017,-0.017 -0.019,0.018 -0.002,0.032 0.006,0.049 0.016,0.039 0.01,-0.01 0.012,-0.036 0.002,-0.058 z m -7.095,-3.147 c 0.039,-0.048 0.038,-0.049 -0.012,-0.011 -0.03,0.023 -0.055,0.046 -0.055,0.052 0,0.025 0.026,0.009 0.066,-0.041 z M 13.96,12.87 c 0.031,-0.033 0.05,-0.06 0.041,-0.06 -0.009,0 -0.041,0.027 -0.072,0.06 -0.031,0.033 -0.05,0.06 -0.041,0.06 0.009,0 0.041,-0.027 0.072,-0.06 z m 0.394,-0.211 c 0.103,-0.034 0.162,-0.04 0.183,-0.018 0.022,0.021 0.102,0.008 0.252,-0.039 0.121,-0.038 0.215,-0.075 0.208,-0.081 -0.007,-0.007 -0.106,0.018 -0.222,0.055 -0.158,0.051 -0.215,0.058 -0.233,0.031 -0.03,-0.046 -0.314,0.045 -0.436,0.14 l -0.084,0.065 0.09,-0.052 c 0.05,-0.028 0.158,-0.074 0.242,-0.101 z m 0.901,-0.076 c 0.091,-0.026 0.16,-0.052 0.153,-0.058 -0.015,-0.014 -0.338,0.075 -0.338,0.093 0,0.018 0.003,0.018 0.185,-0.034 z m 0.518,-0.164 0.125,-0.022 -0.11,-0.003 c -0.06,-0.002 -0.144,0.018 -0.188,0.043 -0.05,0.03 -0.056,0.038 -0.016,0.024 0.034,-0.012 0.119,-0.031 0.188,-0.043 z m 0.248,-0.057 c 0.01,-0.015 -0.011,-0.02 -0.045,-0.012 -0.073,0.018 -0.082,0.039 -0.018,0.039 0.025,0 0.053,-0.012 0.062,-0.027 z m 1.01,0.009 c -0.01,-0.01 -0.037,-0.011 -0.06,-0.002 -0.025,0.01 -0.018,0.017 0.019,0.018 0.033,0.001 0.051,-0.006 0.041,-0.016 z m -0.187,-0.033 c -0.03,-0.008 -0.079,-0.008 -0.11,0 -0.03,0.008 -0.006,0.014 0.055,0.014 0.06,0 0.085,-0.006 0.055,-0.014 z m -0.312,-0.031 c -0.064,-0.006 -0.176,-0.006 -0.25,-1.96e-4 -0.074,0.006 -0.021,0.012 0.116,0.012 0.138,1.09e-4 0.198,-0.005 0.134,-0.012 z m -0.408,-0.026 c -0.01,-0.01 -0.037,-0.011 -0.06,-0.002 -0.025,0.01 -0.018,0.017 0.019,0.018 0.033,0.001 0.051,-0.006 0.041,-0.016 z m -0.211,7.212 c -0.318,-0.219 -0.436,-0.332 -0.436,-0.419 0,-0.046 0.011,-0.084 0.024,-0.084 0.045,0 0.578,0.533 0.566,0.567 -0.007,0.02 -0.071,-0.008 -0.154,-0.064 z m -0.164,-0.556 c -0.165,-0.16 -0.218,-0.247 -0.152,-0.247 0.04,0 0.348,0.338 0.348,0.382 0,0.021 -0.004,0.038 -0.009,0.038 -0.005,0 -0.089,-0.078 -0.188,-0.173 z m 1.83,-0.656 c -0.087,-0.034 -0.033,-0.096 0.11,-0.126 0.082,-0.017 0.212,-0.058 0.288,-0.091 0.077,-0.033 0.146,-0.055 0.152,-0.048 0.007,0.006 -0.028,0.073 -0.078,0.148 -0.089,0.136 -0.091,0.136 -0.262,0.134 -0.094,-0.001 -0.19,-0.009 -0.211,-0.018 z m 0.938,-0.671 c -0.084,-0.032 -0.088,-0.088 -0.018,-0.277 0.06,-0.162 0.123,-0.194 0.088,-0.045 -0.012,0.054 -0.029,0.131 -0.037,0.172 l -0.014,0.075 0.062,-0.068 c 0.037,-0.04 0.071,-0.135 0.084,-0.232 0.012,-0.09 0.034,-0.156 0.049,-0.148 0.039,0.023 0.034,0.26 -0.007,0.42 -0.036,0.139 -0.07,0.156 -0.207,0.102 z m -7.399,-0.377 c -0.01,-0.026 -0.019,-0.128 -0.019,-0.228 0,-0.13 0.011,-0.176 0.039,-0.168 0.046,0.015 0.074,0.443 0.028,0.443 -0.016,0 -0.038,-0.021 -0.048,-0.048 z m 7.521,-0.702 c -0.048,-0.063 -0.064,-0.113 -0.05,-0.166 0.028,-0.108 0.102,-0.093 0.157,0.032 0.085,0.195 0.011,0.286 -0.107,0.133 z m -7.528,-0.476 c -0.002,-0.17 -1.7e-5,-0.175 0.078,-0.172 0.066,0.002 0.083,0.019 0.09,0.094 0.009,0.085 -0.088,0.254 -0.145,0.254 -0.012,0 -0.023,-0.079 -0.024,-0.176 z m 8.104,-3.688 c 0.004,-0.268 0.052,-0.36 0.088,-0.172 0.026,0.131 -0.007,0.362 -0.056,0.402 -0.027,0.022 -0.035,-0.037 -0.032,-0.23 z m -4.108,-0.161 c 0.013,-0.036 0.444,-0.206 0.524,-0.206 0.094,0 -0.074,0.11 -0.268,0.176 -0.216,0.073 -0.273,0.08 -0.256,0.03 z"
    class="ColorScheme-Background" fill="currentColor" />
</svg>