<svg height="32" width="32" version="1.1" xmlns="http://www.w3.org/2000/svg" xmlns:svg="http://www.w3.org/2000/svg">
  <defs>
    <style type="text/css" id="current-color-scheme">
      .ColorScheme-Accent {
        color: #95ccff;
      }

      .ColorScheme-Background {
        color: #28292d;
      }
    </style>
    <linearGradient id="lg1" x1="48" y1="26.667" x2="48" y2="5.334" gradientUnits="userSpaceOnUse">
      <stop stop-opacity="0.15" offset="0" />
      <stop stop-opacity="0" offset="1" />
    </linearGradient>
    <path id="folder-back"
      d="M 2.667,12 v -4.444 q 0,-0.878 0.661,-1.55 0.661,-0.672 1.561,-0.672 h 8.911 l 2.222,2.222 v 4.444 z" />
    <path id="icon"
      d="m 16.004,24.018 q -1.197,0 -2.255,-0.453 -1.057,-0.453 -1.85,-1.246 Q 11.106,21.526 10.653,20.469 10.2,19.412 10.2,18.211 q 0,-1.201 0.453,-2.251 0.453,-1.05 1.246,-1.843 0.793,-0.793 1.85,-1.246 1.057,-0.453 2.258,-0.453 1.201,0 2.251,0.453 1.05,0.453 1.843,1.246 0.793,0.793 1.246,1.846 0.453,1.053 0.453,2.251 0,1.197 -0.453,2.255 -0.453,1.057 -1.246,1.85 -0.793,0.793 -1.846,1.246 -1.053,0.453 -2.251,0.453 z M 15.275,22.87 v -1.027 q -0.302,0 -0.514,-0.213 -0.211,-0.213 -0.211,-0.512 v -0.725 l -3.157,-3.157 q -0.06,0.287 -0.083,0.529 -0.023,0.242 -0.023,0.453 0,1.737 1.125,3.066 1.125,1.329 2.862,1.586 z m 4.35,-1.646 q 0.272,-0.317 0.476,-0.665 0.204,-0.347 0.338,-0.733 0.134,-0.386 0.204,-0.793 0.07,-0.407 0.07,-0.815 0,-1.429 -0.785,-2.61 -0.785,-1.181 -2.115,-1.74 v 0.362 q 0,0.449 -0.319,0.768 -0.319,0.319 -0.768,0.319 h -1.45 v 0.725 q 0,0.308 -0.208,0.517 -0.208,0.208 -0.517,0.208 h -0.725 v 1.45 h 3.625 q 0.308,0 0.517,0.208 0.208,0.208 0.208,0.517 v 1.45 h 0.619 q 0.347,0 0.589,0.242 0.242,0.242 0.242,0.589 z" />
  </defs>
  <use href="#folder-back" class="ColorScheme-Accent" fill="currentColor" />
  <use href="#folder-back" class="ColorScheme-Background" fill="currentColor" opacity="0.3" />
  <path
    d="M 4.889,26.667 q -0.9,0 -1.561,-0.672 -0.661,-0.672 -0.661,-1.55 v -12.445 q 0,-0.878 0.661,-1.55 0.661,-0.672 1.561,-0.672 h 8.911 l 2.222,-2.222 h 11.089 q 0.878,0 1.55,0.672 0.672,0.672 0.672,1.55 v 14.667 q 0,0.878 -0.672,1.55 -0.672,0.672 -1.55,0.672 z"
    class="ColorScheme-Accent" fill="currentColor" />
  <use href="#icon" class="ColorScheme-Background" fill="currentColor" opacity="0.8" />
  <path
    d="m 4.889,26.667 q -0.9,0 -1.561,-0.672 -0.661,-0.672 -0.661,-1.55 V 7.556 q 0,-0.878 0.661,-1.55 Q 3.989,5.334 4.889,5.334 h 8.911 l 2.222,2.222 h 11.089 q 0.878,0 1.55,0.672 0.672,0.672 0.672,1.55 V 24.445 q 0,0.878 -0.672,1.55 -0.672,0.672 -1.55,0.672 z"
    fill="url(#lg1)" />
</svg>