<svg viewBox="0 0 32 32" xmlns="http://www.w3.org/2000/svg">
  <defs>
    <style type="text/css" id="current-color-scheme">
      .ColorScheme-Accent {
        color: #95ccff;
      }

      .ColorScheme-Background {
        color: #1e2022;
      }
    </style>
    <path id="folder-back" d="M 2.667,26.667 V 5.333 H 14.033 l 2,2 h 13.3 V 26.667 Z" />
  </defs>
  <use href="#folder-back" class="ColorScheme-Accent" fill="currentColor" />
  <use href="#folder-back" class="ColorScheme-Background" fill="currentColor" opacity="0.3" />
  <path d="M 2.667,26.667 V 9.333 H 14.033 l 2,-2 h 13.3 V 26.667 Z" class="ColorScheme-Accent" fill="currentColor" />
  <path
    d="m 9.354,22.833 v -1.692 q 0,-0.514 0.264,-0.944 0.264,-0.43 0.702,-0.657 0.936,-0.468 1.903,-0.702 0.967,-0.234 1.964,-0.234 0.997,0 1.964,0.234 0.967,0.234 1.903,0.702 0.438,0.227 0.702,0.657 0.264,0.43 0.264,0.944 v 1.692 z m 10.875,0 v -1.813 q 0,-0.665 -0.37,-1.276 -0.37,-0.612 -1.05,-1.05 0.77,0.091 1.45,0.31 0.68,0.219 1.269,0.536 0.544,0.302 0.831,0.672 0.287,0.37 0.287,0.808 v 1.813 z M 14.188,18 q -0.997,0 -1.707,-0.71 -0.71,-0.71 -0.71,-1.707 0,-0.997 0.71,-1.707 0.71,-0.71 1.707,-0.71 0.997,0 1.707,0.71 0.71,0.71 0.71,1.707 0,0.997 -0.71,1.707 Q 15.184,18 14.188,18 Z m 6.042,-2.417 q 0,0.997 -0.71,1.707 Q 18.809,18 17.813,18 q -0.166,0 -0.423,-0.038 -0.257,-0.038 -0.423,-0.083 0.408,-0.483 0.627,-1.072 0.219,-0.589 0.219,-1.223 0,-0.634 -0.219,-1.223 -0.219,-0.589 -0.627,-1.072 0.211,-0.076 0.423,-0.098 0.211,-0.023 0.423,-0.023 0.997,0 1.707,0.71 0.71,0.71 0.71,1.707 z M 10.563,21.625 h 7.25 v -0.483 q 0,-0.166 -0.083,-0.302 Q 17.646,20.704 17.51,20.628 16.695,20.22 15.864,20.016 15.033,19.813 14.188,19.813 q -0.846,0 -1.677,0.204 -0.831,0.204 -1.646,0.612 -0.136,0.076 -0.219,0.211 -0.083,0.136 -0.083,0.302 z m 3.625,-4.833 q 0.498,0 0.853,-0.355 0.355,-0.355 0.355,-0.853 0,-0.498 -0.355,-0.853 Q 14.686,14.375 14.188,14.375 q -0.498,0 -0.853,0.355 -0.355,0.355 -0.355,0.853 0,0.498 0.355,0.853 0.355,0.355 0.853,0.355 z m 0,4.833 z m 0,-6.042 z"
    class="ColorScheme-Background" fill="currentColor" />
</svg>