<svg height="32" width="32" version="1.1" xmlns="http://www.w3.org/2000/svg" xmlns:svg="http://www.w3.org/2000/svg">
  <defs>
    <style type="text/css" id="current-color-scheme">
      .ColorScheme-Accent {
        color: #95ccff;
      }

      .ColorScheme-Background {
        color: #28292d;
      }
    </style>
    <linearGradient id="lg1" x1="48" y1="26.667" x2="48" y2="5.334" gradientUnits="userSpaceOnUse">
      <stop stop-opacity="0.15" offset="0" />
      <stop stop-opacity="0" offset="1" />
    </linearGradient>
    <path id="folder-back"
      d="M 2.667,12 v -4.444 q 0,-0.878 0.661,-1.55 0.661,-0.672 1.561,-0.672 h 8.911 l 2.222,2.222 v 4.444 z" />
    <path id="icon"
      d="m 12.375,22.568 q -1.208,0 -2.054,-0.846 -0.846,-0.846 -0.846,-2.054 0,-1.148 0.785,-1.986 0.785,-0.838 1.918,-0.914 0.347,-1.284 1.397,-2.092 1.05,-0.808 2.424,-0.808 1.556,0 2.704,1.05 1.148,1.05 1.284,2.575 1.057,0 1.797,0.74 0.74,0.74 0.74,1.797 0,1.057 -0.74,1.797 -0.74,0.74 -1.797,0.74 z m 0,-1.088 h 7.613 q 0.604,0 1.027,-0.423 0.423,-0.423 0.423,-1.027 0,-0.604 -0.423,-1.027 -0.423,-0.423 -1.027,-0.423 h -0.997 l -0.091,-0.982 Q 18.794,16.481 17.964,15.718 q -0.831,-0.763 -1.964,-0.763 -0.967,0 -1.737,0.582 -0.77,0.582 -1.027,1.533 l -0.211,0.74 -0.77,0.045 q -0.725,0.045 -1.208,0.566 -0.483,0.521 -0.483,1.246 0,0.755 0.529,1.284 0.529,0.529 1.284,0.529 z m 3.625,-3.262 z" />
  </defs>
  <use href="#folder-back" class="ColorScheme-Accent" fill="currentColor" />
  <use href="#folder-back" class="ColorScheme-Background" fill="currentColor" opacity="0.3" />
  <path
    d="M 4.889,26.667 q -0.9,0 -1.561,-0.672 -0.661,-0.672 -0.661,-1.55 v -12.445 q 0,-0.878 0.661,-1.55 0.661,-0.672 1.561,-0.672 h 8.911 l 2.222,-2.222 h 11.089 q 0.878,0 1.55,0.672 0.672,0.672 0.672,1.55 v 14.667 q 0,0.878 -0.672,1.55 -0.672,0.672 -1.55,0.672 z"
    class="ColorScheme-Accent" fill="currentColor" />
  <use href="#icon" class="ColorScheme-Background" fill="currentColor" opacity="0.8" />
  <path
    d="m 4.889,26.667 q -0.9,0 -1.561,-0.672 -0.661,-0.672 -0.661,-1.55 V 7.556 q 0,-0.878 0.661,-1.55 Q 3.989,5.334 4.889,5.334 h 8.911 l 2.222,2.222 h 11.089 q 0.878,0 1.55,0.672 0.672,0.672 0.672,1.55 V 24.445 q 0,0.878 -0.672,1.55 -0.672,0.672 -1.55,0.672 z"
    fill="url(#lg1)" />
  <!-- <rect style="fill:#00ffff;fill-opacity:0.336;stroke-width:1" width="26.666" height="16.88" x="2.667" y="9.778" />
  <rect style="fill:#008000;fill-opacity:0.336;stroke-width:1" width="20" height="20" x="0" y="0" /> -->
</svg>