<svg viewBox="0 0 32 32" xmlns="http://www.w3.org/2000/svg">
  <defs>
    <style type="text/css" id="current-color-scheme">
      .ColorScheme-Accent {
        color: #95ccff;
      }

      .ColorScheme-Background {
        color: #1e2022;
      }
    </style>
    <path id="folder-back" d="M 2.667,26.667 V 5.333 H 14.033 l 2,2 h 13.3 V 26.667 Z" />
  </defs>
  <use href="#folder-back" class="ColorScheme-Accent" fill="currentColor" />
  <use href="#folder-back" class="ColorScheme-Background" fill="currentColor" opacity="0.3" />
  <path d="M 2.667,26.667 V 9.333 H 14.033 l 2,-2 h 13.3 V 26.667 Z" class="ColorScheme-Accent" fill="currentColor" />
  <path
    d="m 21.438,23.438 v -9.667 h -10.875 v 4.833 H 9.354 V 12.563 H 22.646 v 10.875 z m -7.25,-4.229 q -0.997,0 -1.707,-0.71 -0.71,-0.71 -0.71,-1.707 0,-0.997 0.71,-1.707 Q 13.191,14.375 14.188,14.375 q 0.997,0 1.707,0.71 0.71,0.71 0.71,1.707 0,0.997 -0.71,1.707 -0.71,0.71 -1.707,0.71 z M 14.188,18 q 0.498,0 0.853,-0.355 0.355,-0.355 0.355,-0.853 0,-0.498 -0.355,-0.853 -0.355,-0.355 -0.853,-0.355 -0.498,0 -0.853,0.355 -0.355,0.355 -0.355,0.853 0,0.498 0.355,0.853 Q 13.689,18 14.188,18 Z M 9.354,24.042 V 22.35 q 0,-0.514 0.264,-0.944 0.264,-0.43 0.702,-0.657 0.936,-0.468 1.903,-0.702 0.967,-0.234 1.964,-0.234 0.997,0 1.964,0.234 0.967,0.234 1.903,0.702 0.438,0.227 0.702,0.657 0.264,0.43 0.264,0.944 v 1.692 z M 10.563,22.833 h 7.25 V 22.35 q 0,-0.166 -0.083,-0.302 -0.083,-0.136 -0.219,-0.211 -0.816,-0.408 -1.646,-0.612 -0.831,-0.204 -1.677,-0.204 -0.846,0 -1.677,0.204 -0.831,0.204 -1.646,0.612 -0.136,0.076 -0.219,0.211 Q 10.563,22.184 10.563,22.35 Z m 3.625,-6.042 z m 0,6.042 z"
    class="ColorScheme-Background" fill="currentColor" />
</svg>