<svg viewBox="0 0 32 32" xmlns="http://www.w3.org/2000/svg">
  <defs>
    <style type="text/css" id="current-color-scheme">
      .ColorScheme-Accent {
        color: #95ccff;
      }

      .ColorScheme-Background {
        color: #1e2022;
      }
    </style>
    <path id="folder-back" d="M 2.667,26.667 V 5.333 H 14.033 l 2,2 h 13.3 V 26.667 Z" />
  </defs>
  <use href="#folder-back" class="ColorScheme-Accent" fill="currentColor" />
  <use href="#folder-back" class="ColorScheme-Background" fill="currentColor" opacity="0.3" />
  <path d="M 2.667,26.667 V 9.333 H 14.033 l 2,-2 h 13.3 V 26.667 Z" class="ColorScheme-Accent" fill="currentColor" />
  <path d="m 20.822,15.216 v 5.568 l -4.822,2.784 V 18 Z" class="ColorScheme-Background" fill="currentColor" />
  <path
    d="m 16,18 v -5.568 l -4.822,2.784 z m -4.607,-3.589 c -0.499,0.288 -0.805,0.818 -0.805,1.394 v 4.39 c 0,0.576 0.306,1.106 0.805,1.394 l 3.802,2.195 c 0.499,0.288 1.111,0.288 1.61,0 l 3.802,-2.195 c 0.499,-0.288 0.805,-0.818 0.805,-1.394 v -4.39 c 0,-0.576 -0.306,-1.106 -0.805,-1.394 L 16.805,12.216 c -0.499,-0.288 -1.111,-0.288 -1.61,0 z m 4.822,-1.174 3.802,2.195 c 0.133,0.077 0.216,0.22 0.216,0.374 v 4.39 c 0,0.153 -0.083,0.297 -0.216,0.374 l -3.802,2.195 c -0.133,0.077 -0.299,0.077 -0.431,0 l -3.802,-2.195 c -0.133,-0.077 -0.216,-0.22 -0.216,-0.374 v -4.39 c 0,-0.153 0.083,-0.297 0.216,-0.374 l 3.802,-2.195 c 0.133,-0.077 0.299,-0.077 0.431,0 z"
    class="ColorScheme-Background" fill="currentColor" />
</svg>