<svg height="32" width="32" version="1.1" xmlns="http://www.w3.org/2000/svg" xmlns:svg="http://www.w3.org/2000/svg">
  <defs>
    <style type="text/css" id="current-color-scheme">
      .ColorScheme-Accent {
        color: #95ccff;
      }

      .ColorScheme-Background {
        color: #28292d;
      }
    </style>
    <linearGradient id="lg1" x1="48" y1="26.667" x2="48" y2="5.334" gradientUnits="userSpaceOnUse">
      <stop stop-opacity="0.15" offset="0" />
      <stop stop-opacity="0" offset="1" />
    </linearGradient>
    <path id="folder-back"
      d="M 2.667,12 v -4.444 q 0,-0.878 0.661,-1.55 0.661,-0.672 1.561,-0.672 h 8.911 l 2.222,2.222 v 4.444 z" />
    <path id="icon"
      d="m 13.641,21.118 q 0.23,0 0.388,-0.155 0.159,-0.155 0.159,-0.385 0,-0.23 -0.155,-0.388 -0.155,-0.159 -0.385,-0.159 -0.23,0 -0.388,0.155 Q 13.1,20.341 13.1,20.571 q 0,0.23 0.155,0.388 0.155,0.159 0.385,0.159 z m 0,-2.356 q 0.23,0 0.388,-0.155 0.159,-0.155 0.159,-0.385 0,-0.23 -0.155,-0.388 -0.155,-0.159 -0.385,-0.159 -0.23,0 -0.388,0.155 Q 13.1,17.985 13.1,18.215 q 0,0.23 0.155,0.388 0.155,0.159 0.385,0.159 z m 0,-2.356 q 0.23,0 0.388,-0.155 0.159,-0.155 0.159,-0.385 0,-0.23 -0.155,-0.388 -0.155,-0.159 -0.385,-0.159 -0.23,0 -0.388,0.155 Q 13.1,15.629 13.1,15.859 q 0,0.23 0.155,0.388 0.155,0.159 0.385,0.159 z m 1.634,4.713 h 3.625 v -1.088 h -3.625 z m 0,-2.356 h 3.625 v -1.088 h -3.625 z m 0,-2.356 h 3.625 v -1.088 h -3.625 z M 12.013,23.293 q -0.449,0 -0.768,-0.319 Q 10.925,22.654 10.925,22.205 v -7.975 q 0,-0.449 0.319,-0.768 0.319,-0.319 0.768,-0.319 h 7.975 q 0.449,0 0.768,0.319 0.319,0.319 0.319,0.768 v 7.975 q 0,0.449 -0.319,0.768 -0.319,0.319 -0.768,0.319 z m 0,-1.087 h 7.975 v -7.975 H 12.013 Z m 0,-7.975 v 7.975 z" />
  </defs>
  <use href="#folder-back" class="ColorScheme-Accent" fill="currentColor" />
  <use href="#folder-back" class="ColorScheme-Background" fill="currentColor" opacity="0.3" />
  <path
    d="M 4.889,26.667 q -0.9,0 -1.561,-0.672 -0.661,-0.672 -0.661,-1.55 v -12.445 q 0,-0.878 0.661,-1.55 0.661,-0.672 1.561,-0.672 h 8.911 l 2.222,-2.222 h 11.089 q 0.878,0 1.55,0.672 0.672,0.672 0.672,1.55 v 14.667 q 0,0.878 -0.672,1.55 -0.672,0.672 -1.55,0.672 z"
    class="ColorScheme-Accent" fill="currentColor" />
  <use href="#icon" class="ColorScheme-Background" fill="currentColor" opacity="0.8" />
  <path
    d="m 4.889,26.667 q -0.9,0 -1.561,-0.672 -0.661,-0.672 -0.661,-1.55 V 7.556 q 0,-0.878 0.661,-1.55 Q 3.989,5.334 4.889,5.334 h 8.911 l 2.222,2.222 h 11.089 q 0.878,0 1.55,0.672 0.672,0.672 0.672,1.55 V 24.445 q 0,0.878 -0.672,1.55 -0.672,0.672 -1.55,0.672 z"
    fill="url(#lg1)" />
</svg>