<svg height="32" width="32" version="1.1" xmlns="http://www.w3.org/2000/svg" xmlns:svg="http://www.w3.org/2000/svg">
  <defs>
    <style type="text/css" id="current-color-scheme">
      .ColorScheme-Accent {
        color: #95ccff;
      }

      .ColorScheme-Background {
        color: #28292d;
      }
    </style>
    <linearGradient id="lg1" x1="48" y1="26.667" x2="48" y2="5.334" gradientUnits="userSpaceOnUse">
      <stop stop-opacity="0.15" offset="0" />
      <stop stop-opacity="0" offset="1" />
    </linearGradient>
    <path id="folder-back"
      d="M 2.667,12 v -4.444 q 0,-0.878 0.661,-1.55 0.661,-0.672 1.561,-0.672 h 8.911 l 2.222,2.222 v 4.444 z" />
    <path id="icon"
      d="m 12.375,20.393 h 5.619 V 17.674 H 12.375 Z m 6.344,-1.631 h 0.906 v -2.719 h -5.74 v 0.906 h 4.833 z m -7.431,3.806 q -0.449,0 -0.768,-0.32 Q 10.2,21.929 10.2,21.48 V 14.951 q 0,-0.449 0.319,-0.766 0.319,-0.317 0.768,-0.317 h 9.425 q 0.449,0 0.768,0.32 0.319,0.32 0.319,0.769 v 6.529 q 0,0.449 -0.319,0.766 -0.319,0.317 -0.768,0.317 z m 0,-1.088 h 9.425 V 14.955 H 11.288 Z m 0,0 v -6.525 z" />
  </defs>
  <use href="#folder-back" class="ColorScheme-Accent" fill="currentColor" />
  <use href="#folder-back" class="ColorScheme-Background" fill="currentColor" opacity="0.3" />
  <path
    d="M 4.889,26.667 q -0.9,0 -1.561,-0.672 -0.661,-0.672 -0.661,-1.55 v -12.445 q 0,-0.878 0.661,-1.55 0.661,-0.672 1.561,-0.672 h 8.911 l 2.222,-2.222 h 11.089 q 0.878,0 1.55,0.672 0.672,0.672 0.672,1.55 v 14.667 q 0,0.878 -0.672,1.55 -0.672,0.672 -1.55,0.672 z"
    class="ColorScheme-Accent" fill="currentColor" />
  <use href="#icon" class="ColorScheme-Background" fill="currentColor" opacity="0.8" />
  <path
    d="m 4.889,26.667 q -0.9,0 -1.561,-0.672 -0.661,-0.672 -0.661,-1.55 V 7.556 q 0,-0.878 0.661,-1.55 Q 3.989,5.334 4.889,5.334 h 8.911 l 2.222,2.222 h 11.089 q 0.878,0 1.55,0.672 0.672,0.672 0.672,1.55 V 24.445 q 0,0.878 -0.672,1.55 -0.672,0.672 -1.55,0.672 z"
    fill="url(#lg1)" />
</svg>