<svg height="32" width="32" version="1.1" xmlns="http://www.w3.org/2000/svg" xmlns:svg="http://www.w3.org/2000/svg">
  <defs>
    <style type="text/css" id="current-color-scheme">
      .ColorScheme-Accent {
        color: #95ccff;
      }

      .ColorScheme-Background {
        color: #28292d;
      }
    </style>
    <linearGradient x1="48" y1="26.667" x2="48" y2="5.334" gradientUnits="userSpaceOnUse">
      <stop stop-opacity="0.15" offset="0" />
      <stop stop-opacity="0" offset="1" />
    </linearGradient>
    <path id="folder-back"
      d="M 2.667,12 v -4.444 q 0,-0.878 0.661,-1.55 0.661,-0.672 1.561,-0.672 h 8.911 l 2.222,2.222 v 4.444 z" />
    <path id="icon"
      d="m 12.375,23.293 q -0.906,0 -1.541,-0.634 -0.634,-0.634 -0.634,-1.541 0,-0.906 0.634,-1.541 0.634,-0.634 1.541,-0.634 0.906,0 1.541,0.634 0.634,0.634 0.634,1.541 0,0.906 -0.634,1.541 -0.634,0.634 -1.541,0.634 z m 7.25,0 q -0.906,0 -1.541,-0.634 Q 17.45,22.024 17.45,21.118 q 0,-0.906 0.634,-1.541 0.634,-0.634 1.541,-0.634 0.906,0 1.541,0.634 0.634,0.634 0.634,1.541 0,0.906 -0.634,1.541 -0.634,0.634 -1.541,0.634 z m -7.247,-1.087 q 0.45,0 0.767,-0.32 0.317,-0.32 0.317,-0.77 0,-0.45 -0.32,-0.767 -0.32,-0.317 -0.77,-0.317 -0.45,0 -0.767,0.32 -0.317,0.32 -0.317,0.77 0,0.45 0.32,0.767 0.32,0.317 0.77,0.317 z m 7.25,0 q 0.45,0 0.767,-0.32 0.317,-0.32 0.317,-0.77 0,-0.45 -0.32,-0.767 -0.32,-0.317 -0.77,-0.317 -0.45,0 -0.767,0.32 -0.317,0.32 -0.317,0.77 0,0.45 0.32,0.767 0.32,0.317 0.77,0.317 z M 16,17.493 q -0.906,0 -1.541,-0.634 -0.634,-0.634 -0.634,-1.541 0,-0.906 0.634,-1.541 0.634,-0.634 1.541,-0.634 0.906,0 1.541,0.634 Q 18.175,14.412 18.175,15.318 q 0,0.906 -0.634,1.541 Q 16.906,17.493 16,17.493 Z m 0.003,-1.088 q 0.45,0 0.767,-0.32 0.317,-0.32 0.317,-0.77 0,-0.45 -0.32,-0.767 Q 16.447,14.231 15.997,14.231 q -0.45,0 -0.767,0.32 -0.317,0.32 -0.317,0.77 0,0.45 0.32,0.767 0.32,0.317 0.77,0.317 z m -0.003,-1.088 z M 19.625,21.118 Z m -7.25,0 z" />
  </defs>
  <use href="#folder-back" class="ColorScheme-Accent" fill="currentColor" />
  <use href="#folder-back" class="ColorScheme-Background" fill="currentColor" opacity="0.3" />
  <path
    d="M 4.889,26.667 q -0.9,0 -1.561,-0.672 -0.661,-0.672 -0.661,-1.55 v -12.445 q 0,-0.878 0.661,-1.55 0.661,-0.672 1.561,-0.672 h 8.911 l 2.222,-2.222 h 11.089 q 0.878,0 1.55,0.672 0.672,0.672 0.672,1.55 v 14.667 q 0,0.878 -0.672,1.55 -0.672,0.672 -1.55,0.672 z"
    class="ColorScheme-Accent" fill="currentColor" />
  <use href="#icon" class="ColorScheme-Background" fill="currentColor" opacity="0.8" />
  <path
    d="m 4.889,26.667 q -0.9,0 -1.561,-0.672 -0.661,-0.672 -0.661,-1.55 V 7.556 q 0,-0.878 0.661,-1.55 Q 3.989,5.334 4.889,5.334 h 8.911 l 2.222,2.222 h 11.089 q 0.878,0 1.55,0.672 0.672,0.672 0.672,1.55 V 24.445 q 0,0.878 -0.672,1.55 -0.672,0.672 -1.55,0.672 z"
    fill="url(#lg1)" />
</svg>