<svg height="32" width="32" version="1.1" xmlns="http://www.w3.org/2000/svg" xmlns:svg="http://www.w3.org/2000/svg">
  <defs>
    <style type="text/css" id="current-color-scheme">
      .ColorScheme-Accent {
        color: #95ccff;
      }

      .ColorScheme-Background {
        color: #28292d;
      }
    </style>
    <linearGradient id="lg1" x1="48" y1="26.667" x2="48" y2="5.334" gradientUnits="userSpaceOnUse">
      <stop stop-opacity="0.15" offset="0" />
      <stop stop-opacity="0" offset="1" />
    </linearGradient>
    <path id="folder-back"
      d="M 2.667,12 v -4.444 q 0,-0.878 0.661,-1.55 0.661,-0.672 1.561,-0.672 h 8.911 l 2.222,2.222 v 4.444 z" />
    <path id="icon"
      d="M 14.006,20.212 12.013,18.218 l 1.994,-1.994 0.77,0.77 -1.223,1.223 1.223,1.223 z m 3.987,0 L 17.223,19.441 18.447,18.218 17.223,16.995 17.994,16.224 19.988,18.218 Z m -5.981,3.081 q -0.449,0 -0.768,-0.319 -0.319,-0.319 -0.319,-0.768 v -2.538 h 1.088 v 2.538 H 14.55 v 1.087 z m 5.437,0 v -1.087 h 2.538 v -2.538 h 1.088 v 2.538 q 0,0.449 -0.319,0.768 -0.319,0.319 -0.768,0.319 z M 10.925,16.768 v -2.538 q 0,-0.449 0.319,-0.768 Q 11.564,13.143 12.013,13.143 H 14.55 v 1.088 h -2.537 v 2.538 z m 9.062,0 V 14.231 H 17.45 V 13.143 h 2.538 q 0.449,0 0.768,0.319 Q 21.075,13.782 21.075,14.231 v 2.538 z" />
  </defs>
  <use href="#folder-back" class="ColorScheme-Accent" fill="currentColor" />
  <use href="#folder-back" class="ColorScheme-Background" fill="currentColor" opacity="0.3" />
  <path
    d="M 4.889,26.667 q -0.9,0 -1.561,-0.672 -0.661,-0.672 -0.661,-1.55 v -12.445 q 0,-0.878 0.661,-1.55 0.661,-0.672 1.561,-0.672 h 8.911 l 2.222,-2.222 h 11.089 q 0.878,0 1.55,0.672 0.672,0.672 0.672,1.55 v 14.667 q 0,0.878 -0.672,1.55 -0.672,0.672 -1.55,0.672 z"
    class="ColorScheme-Accent" fill="currentColor" />
  <use href="#icon" class="ColorScheme-Background" fill="currentColor" opacity="0.8" />
  <path
    d="m 4.889,26.667 q -0.9,0 -1.561,-0.672 -0.661,-0.672 -0.661,-1.55 V 7.556 q 0,-0.878 0.661,-1.55 Q 3.989,5.334 4.889,5.334 h 8.911 l 2.222,2.222 h 11.089 q 0.878,0 1.55,0.672 0.672,0.672 0.672,1.55 V 24.445 q 0,0.878 -0.672,1.55 -0.672,0.672 -1.55,0.672 z"
    fill="url(#lg1)" />
</svg>