<svg height="32" width="32" version="1.1" xmlns="http://www.w3.org/2000/svg" xmlns:svg="http://www.w3.org/2000/svg">
  <defs>
    <style type="text/css" id="current-color-scheme">
      .ColorScheme-NegativeText {
        color: #ff5540;
      }

      .ColorScheme-Background {
        color: #28292d;
      }
    </style>
    <linearGradient id="lg1" x1="48" y1="26.667" x2="48" y2="5.334" gradientUnits="userSpaceOnUse">
      <stop stop-opacity="0.15" offset="0" />
      <stop stop-opacity="0" offset="1" />
    </linearGradient>
    <path id="folder-back"
      d="M 2.667,12 v -4.444 q 0,-0.878 0.661,-1.55 0.661,-0.672 1.561,-0.672 h 8.911 l 2.222,2.222 v 4.444 z" />
    <path id="icon"
      d="m 15.23,20.061 q 0.347,0.332 0.861,0.31 0.514,-0.023 0.755,-0.385 l 3.142,-4.667 -4.67,3.146 q -0.375,0.253 -0.405,0.759 -0.03,0.506 0.317,0.838 z m 0.785,-6.193 q 0.906,0 1.631,0.234 0.725,0.234 1.314,0.582 l -1.042,0.68 q -0.423,-0.196 -0.884,-0.302 -0.461,-0.106 -1.02,-0.106 -1.965,0 -3.346,1.412 -1.381,1.412 -1.381,3.3 0,0.574 0.083,0.944 0.083,0.37 0.264,0.868 h 8.715 q 0.196,-0.498 0.279,-0.914 0.083,-0.415 0.083,-0.899 0,-0.634 -0.174,-1.269 -0.174,-0.634 -0.506,-1.163 l 0.649,-0.982 q 0.529,0.725 0.823,1.601 0.295,0.876 0.295,1.782 0,0.77 -0.128,1.344 -0.128,0.574 -0.415,1.057 -0.151,0.257 -0.385,0.393 -0.234,0.136 -0.521,0.136 H 11.65 q -0.287,0 -0.521,-0.136 Q 10.895,22.296 10.744,22.039 10.457,21.556 10.328,20.982 10.2,20.408 10.2,19.638 q 0,-1.204 0.461,-2.256 0.461,-1.052 1.246,-1.83 0.785,-0.778 1.849,-1.231 1.064,-0.453 2.259,-0.453 z m -0.015,4.214 z" />
  </defs>
  <use href="#folder-back" class="ColorScheme-NegativeText" fill="currentColor" />
  <use href="#folder-back" class="ColorScheme-Background" fill="currentColor" opacity="0.3" />
  <path
    d="M 4.889,26.667 q -0.9,0 -1.561,-0.672 -0.661,-0.672 -0.661,-1.55 v -12.445 q 0,-0.878 0.661,-1.55 0.661,-0.672 1.561,-0.672 h 8.911 l 2.222,-2.222 h 11.089 q 0.878,0 1.55,0.672 0.672,0.672 0.672,1.55 v 14.667 q 0,0.878 -0.672,1.55 -0.672,0.672 -1.55,0.672 z"
    class="ColorScheme-NegativeText" fill="currentColor" />
  <use href="#icon" class="ColorScheme-Background" fill="currentColor" opacity="0.8" />
  <path
    d="m 4.889,26.667 q -0.9,0 -1.561,-0.672 -0.661,-0.672 -0.661,-1.55 V 7.556 q 0,-0.878 0.661,-1.55 Q 3.989,5.334 4.889,5.334 h 8.911 l 2.222,2.222 h 11.089 q 0.878,0 1.55,0.672 0.672,0.672 0.672,1.55 V 24.445 q 0,0.878 -0.672,1.55 -0.672,0.672 -1.55,0.672 z"
    fill="url(#lg1)" />
</svg>