<svg height="32" width="32" version="1.1" xmlns="http://www.w3.org/2000/svg" xmlns:svg="http://www.w3.org/2000/svg">
  <defs>
    <style type="text/css" id="current-color-scheme">
      .ColorScheme-Accent {
        color: #95ccff;
      }

      .ColorScheme-Background {
        color: #28292d;
      }
    </style>
    <linearGradient id="lg1" x1="48" y1="26.667" x2="48" y2="5.334" gradientUnits="userSpaceOnUse">
      <stop stop-opacity="0.15" offset="0" />
      <stop stop-opacity="0" offset="1" />
    </linearGradient>
    <path id="folder-back"
      d="M 2.667,12 v -4.444 q 0,-0.878 0.661,-1.55 0.661,-0.672 1.561,-0.672 h 8.911 l 2.222,2.222 v 4.444 z" />
    <path id="icon"
      d="m 12.031,22.568 q -0.826,0 -1.402,-0.587 -0.576,-0.587 -0.603,-1.42 0,-0.123 0.014,-0.245 0.014,-0.122 0.041,-0.244 l 1.157,-4.552 Q 11.431,14.789 12.005,14.329 12.579,13.868 13.33,13.868 h 5.325 q 0.751,0 1.325,0.461 0.574,0.461 0.767,1.192 l 1.158,4.552 q 0.027,0.122 0.048,0.251 0.021,0.129 0.021,0.251 0,0.833 -0.589,1.413 -0.589,0.58 -1.43,0.58 -0.579,0 -1.062,-0.295 -0.483,-0.295 -0.74,-0.808 l -0.384,-0.773 q -0.069,-0.133 -0.197,-0.216 -0.128,-0.083 -0.295,-0.083 h -2.583 q -0.166,0 -0.287,0.083 -0.121,0.083 -0.192,0.217 l -0.398,0.777 q -0.256,0.509 -0.732,0.804 -0.476,0.295 -1.054,0.295 z m 0.01,-1.088 q 0.251,0 0.47,-0.143 0.219,-0.143 0.333,-0.369 l 0.399,-0.756 q 0.211,-0.423 0.597,-0.665 0.385,-0.242 0.851,-0.242 h 2.603 q 0.466,0 0.851,0.247 0.385,0.247 0.597,0.659 l 0.393,0.755 q 0.121,0.242 0.336,0.378 0.215,0.136 0.479,0.136 0.379,0 0.65,-0.257 0.271,-0.257 0.271,-0.634 0,-0.091 -0.03,-0.242 l -1.129,-4.557 q -0.094,-0.367 -0.389,-0.601 Q 19.028,14.956 18.647,14.956 h -5.313 q -0.384,0 -0.68,0.227 -0.295,0.227 -0.378,0.588 l -1.136,4.555 q -0.027,0.082 -0.027,0.245 0,0.381 0.271,0.645 0.271,0.264 0.655,0.264 z m 4.855,-3.806 q 0.23,0 0.388,-0.155 0.159,-0.155 0.159,-0.385 0,-0.23 -0.155,-0.388 -0.155,-0.159 -0.385,-0.159 -0.23,0 -0.388,0.155 -0.159,0.155 -0.159,0.385 0,0.23 0.155,0.388 0.155,0.159 0.385,0.159 z m 1.088,-1.088 q 0.23,0 0.388,-0.155 0.159,-0.155 0.159,-0.385 0,-0.23 -0.155,-0.388 -0.155,-0.159 -0.385,-0.159 -0.23,0 -0.388,0.155 -0.159,0.155 -0.159,0.385 0,0.23 0.155,0.388 0.155,0.159 0.385,0.159 z m 0,2.175 q 0.23,0 0.388,-0.155 0.159,-0.155 0.159,-0.385 0,-0.23 -0.155,-0.388 -0.155,-0.159 -0.385,-0.159 -0.23,0 -0.388,0.155 -0.159,0.155 -0.159,0.385 0,0.23 0.155,0.388 0.155,0.159 0.385,0.159 z m 1.088,-1.087 q 0.23,0 0.388,-0.155 0.159,-0.155 0.159,-0.385 0,-0.23 -0.155,-0.388 -0.155,-0.159 -0.385,-0.159 -0.23,0 -0.388,0.155 -0.159,0.155 -0.159,0.385 0,0.23 0.155,0.388 0.155,0.159 0.385,0.159 z m -4.891,0.725 q 0.157,0 0.26,-0.103 0.103,-0.103 0.103,-0.26 V 17.493 h 0.544 q 0.157,0 0.26,-0.103 0.103,-0.103 0.103,-0.26 0,-0.157 -0.103,-0.26 Q 15.243,16.768 15.086,16.768 h -0.544 v -0.544 q 0,-0.157 -0.103,-0.26 -0.103,-0.103 -0.26,-0.103 -0.157,0 -0.26,0.103 -0.103,0.103 -0.103,0.26 V 16.768 h -0.544 q -0.157,0 -0.26,0.103 -0.103,0.103 -0.103,0.26 0,0.157 0.103,0.26 0.103,0.103 0.26,0.103 h 0.544 v 0.544 q 0,0.157 0.103,0.26 0.103,0.103 0.26,0.103 z M 15.992,18.218 Z" />
  </defs>
  <use href="#folder-back" class="ColorScheme-Accent" fill="currentColor" />
  <use href="#folder-back" class="ColorScheme-Background" fill="currentColor" opacity="0.3" />
  <path
    d="M 4.889,26.667 q -0.9,0 -1.561,-0.672 -0.661,-0.672 -0.661,-1.55 v -12.445 q 0,-0.878 0.661,-1.55 0.661,-0.672 1.561,-0.672 h 8.911 l 2.222,-2.222 h 11.089 q 0.878,0 1.55,0.672 0.672,0.672 0.672,1.55 v 14.667 q 0,0.878 -0.672,1.55 -0.672,0.672 -1.55,0.672 z"
    class="ColorScheme-Accent" fill="currentColor" />
  <use href="#icon" class="ColorScheme-Background" fill="currentColor" opacity="0.8" />
  <path
    d="m 4.889,26.667 q -0.9,0 -1.561,-0.672 -0.661,-0.672 -0.661,-1.55 V 7.556 q 0,-0.878 0.661,-1.55 Q 3.989,5.334 4.889,5.334 h 8.911 l 2.222,2.222 h 11.089 q 0.878,0 1.55,0.672 0.672,0.672 0.672,1.55 V 24.445 q 0,0.878 -0.672,1.55 -0.672,0.672 -1.55,0.672 z"
    fill="url(#lg1)" />
</svg>