<svg height="32" width="32" version="1.1" xmlns="http://www.w3.org/2000/svg" xmlns:svg="http://www.w3.org/2000/svg">
  <defs>
    <style type="text/css" id="current-color-scheme">
      .ColorScheme-Accent {
        color: #95ccff;
      }

      .ColorScheme-Background {
        color: #28292d;
      }
    </style>
    <linearGradient id="lg1" x1="48" y1="26.667" x2="48" y2="5.334" gradientUnits="userSpaceOnUse">
      <stop stop-opacity="0.15" offset="0" />
      <stop stop-opacity="0" offset="1" />
    </linearGradient>
    <path id="folder-back"
      d="M 2.667,12 v -4.444 q 0,-0.878 0.661,-1.55 0.661,-0.672 1.561,-0.672 h 8.911 l 2.222,2.222 v 4.444 z" />
    <path id="icon"
      d="m 17.208,18.716 q 1.103,-0.831 1.76,-1.858 0.657,-1.027 0.657,-2.054 0,-0.468 -0.159,-0.702 -0.159,-0.234 -0.476,-0.234 -0.77,0 -1.307,1.133 -0.536,1.133 -0.536,2.749 0,0.272 0.015,0.514 0.015,0.242 0.045,0.453 z M 10.925,23.293 v -1.087 h 1.088 v 1.087 z m 2.266,0 v -1.087 h 1.088 v 1.087 z m 2.266,0 v -1.087 h 1.088 v 1.087 z m 2.266,0 v -1.087 h 1.088 v 1.087 z m 2.266,0 v -1.087 h 1.088 v 1.087 z M 10.97,21.118 10.2,20.348 11.242,19.305 10.2,18.263 l 0.77,-0.77 1.042,1.042 1.042,-1.042 0.77,0.77 -1.042,1.042 1.042,1.042 -0.77,0.77 L 12.013,20.076 Z m 7.069,0 q -0.438,0 -0.785,-0.196 -0.347,-0.196 -0.604,-0.559 -0.363,0.196 -0.748,0.37 -0.385,0.174 -0.808,0.34 l -0.378,-1.012 q 0.393,-0.136 0.778,-0.31 0.385,-0.174 0.733,-0.385 -0.091,-0.347 -0.136,-0.748 -0.045,-0.4 -0.045,-0.868 0.015,-2.22 0.823,-3.595 0.808,-1.374 2.122,-1.374 0.816,0 1.269,0.536 0.453,0.536 0.453,1.488 0,1.374 -0.816,2.666 -0.816,1.291 -2.296,2.318 0.106,0.121 0.219,0.181 0.113,0.06 0.264,0.06 0.438,0 0.967,-0.498 0.529,-0.498 0.982,-1.329 l 0.982,0.453 q -0.136,0.347 -0.174,0.74 -0.038,0.393 0.038,0.619 0.166,-0.076 0.408,-0.287 0.242,-0.211 0.438,-0.468 l 0.861,0.665 q -0.438,0.559 -0.914,0.876 -0.476,0.317 -0.868,0.317 -0.332,0 -0.597,-0.219 -0.264,-0.219 -0.385,-0.597 -0.438,0.438 -0.884,0.627 -0.446,0.189 -0.899,0.189 z" />
  </defs>
  <use href="#folder-back" class="ColorScheme-Accent" fill="currentColor" />
  <use href="#folder-back" class="ColorScheme-Background" fill="currentColor" opacity="0.3" />
  <path
    d="M 4.889,26.667 q -0.9,0 -1.561,-0.672 -0.661,-0.672 -0.661,-1.55 v -12.445 q 0,-0.878 0.661,-1.55 0.661,-0.672 1.561,-0.672 h 8.911 l 2.222,-2.222 h 11.089 q 0.878,0 1.55,0.672 0.672,0.672 0.672,1.55 v 14.667 q 0,0.878 -0.672,1.55 -0.672,0.672 -1.55,0.672 z"
    class="ColorScheme-Accent" fill="currentColor" />
  <use href="#icon" class="ColorScheme-Background" fill="currentColor" opacity="0.8" />
  <path
    d="m 4.889,26.667 q -0.9,0 -1.561,-0.672 -0.661,-0.672 -0.661,-1.55 V 7.556 q 0,-0.878 0.661,-1.55 Q 3.989,5.334 4.889,5.334 h 8.911 l 2.222,2.222 h 11.089 q 0.878,0 1.55,0.672 0.672,0.672 0.672,1.55 V 24.445 q 0,0.878 -0.672,1.55 -0.672,0.672 -1.55,0.672 z"
    fill="url(#lg1)" />
</svg>