<svg height="32" width="32" version="1.1" xmlns="http://www.w3.org/2000/svg" xmlns:svg="http://www.w3.org/2000/svg">
  <defs>
    <style type="text/css" id="current-color-scheme">
      .ColorScheme-Accent {
        color: #95ccff;
      }

      .ColorScheme-Background {
        color: #28292d;
      }
    </style>
    <linearGradient id="lg1" x1="48" y1="26.667" x2="48" y2="5.334" gradientUnits="userSpaceOnUse">
      <stop stop-opacity="0.15" offset="0" />
      <stop stop-opacity="0" offset="1" />
    </linearGradient>
    <path id="folder-back"
      d="M 2.667,12 v -4.444 q 0,-0.878 0.661,-1.55 0.661,-0.672 1.561,-0.672 h 8.911 l 2.222,2.222 v 4.444 z" />
    <path id="icon"
      d="M 12.873,23.293 12.738,22.085 14.369,17.614 q 0.211,0.166 0.452,0.298 0.24,0.132 0.515,0.201 l -1.571,4.35 z m 6.253,0 -0.891,-0.846 -1.571,-4.335 q 0.275,-0.069 0.515,-0.201 0.24,-0.132 0.452,-0.313 l 1.631,4.486 z m -3.127,-5.8 q -0.755,0 -1.284,-0.529 -0.529,-0.529 -0.529,-1.284 0,-0.619 0.363,-1.088 0.363,-0.468 0.906,-0.634 v -0.816 h 1.088 v 0.816 q 0.544,0.166 0.906,0.634 0.363,0.468 0.363,1.088 0,0.755 -0.529,1.284 -0.529,0.529 -1.284,0.529 z m 0,-1.088 q 0.308,0 0.517,-0.208 0.208,-0.208 0.208,-0.517 0,-0.308 -0.208,-0.517 -0.208,-0.208 -0.517,-0.208 -0.308,0 -0.517,0.208 -0.208,0.208 -0.208,0.517 0,0.308 0.208,0.517 0.208,0.208 0.517,0.208 z" />
  </defs>
  <use href="#folder-back" class="ColorScheme-Accent" fill="currentColor" />
  <use href="#folder-back" class="ColorScheme-Background" fill="currentColor" opacity="0.3" />
  <path
    d="M 4.889,26.667 q -0.9,0 -1.561,-0.672 -0.661,-0.672 -0.661,-1.55 v -12.445 q 0,-0.878 0.661,-1.55 0.661,-0.672 1.561,-0.672 h 8.911 l 2.222,-2.222 h 11.089 q 0.878,0 1.55,0.672 0.672,0.672 0.672,1.55 v 14.667 q 0,0.878 -0.672,1.55 -0.672,0.672 -1.55,0.672 z"
    class="ColorScheme-Accent" fill="currentColor" />
  <use href="#icon" class="ColorScheme-Background" fill="currentColor" opacity="0.8" />
  <path
    d="m 4.889,26.667 q -0.9,0 -1.561,-0.672 -0.661,-0.672 -0.661,-1.55 V 7.556 q 0,-0.878 0.661,-1.55 Q 3.989,5.334 4.889,5.334 h 8.911 l 2.222,2.222 h 11.089 q 0.878,0 1.55,0.672 0.672,0.672 0.672,1.55 V 24.445 q 0,0.878 -0.672,1.55 -0.672,0.672 -1.55,0.672 z"
    fill="url(#lg1)" />
</svg>