<svg viewBox="0 0 32 32" xmlns="http://www.w3.org/2000/svg">
  <defs>
    <style type="text/css" id="current-color-scheme">
      .ColorScheme-Accent {
        color: #95ccff;
      }

      .ColorScheme-Background {
        color: #1e2022;
      }
    </style>
    <path id="folder-back" d="M 2.667,26.667 V 5.333 H 14.033 l 2,2 h 13.3 V 26.667 Z" />
  </defs>
  <use href="#folder-back" class="ColorScheme-Accent" fill="currentColor" />
  <use href="#folder-back" class="ColorScheme-Background" fill="currentColor" opacity="0.3" />
  <path d="M 2.667,26.667 V 9.333 H 14.033 l 2,-2 h 13.3 V 26.667 Z" class="ColorScheme-Accent" fill="currentColor" />
  <path
    d="m 20.637,23.06 0.423,-0.423 -1.133,-1.133 V 19.813 h -0.604 v 1.933 z M 10.563,23.438 v -10.875 h 10.875 v 5.256 q -0.287,-0.136 -0.589,-0.234 -0.302,-0.098 -0.619,-0.143 v -3.67 h -8.458 v 8.458 h 3.655 q 0.045,0.332 0.143,0.634 0.098,0.302 0.234,0.574 z m 1.208,-1.813 v 0.604 -8.458 3.67 -0.045 z m 1.208,-0.604 h 2.462 q 0.045,-0.317 0.143,-0.619 0.098,-0.302 0.219,-0.589 h -2.824 z m 0,-2.417 h 3.685 q 0.483,-0.453 1.08,-0.755 0.597,-0.302 1.276,-0.408 v -0.045 h -6.042 z m 0,-2.417 h 6.042 V 14.979 H 12.979 Z M 19.625,24.646 q -1.254,0 -2.137,-0.884 -0.884,-0.884 -0.884,-2.137 0,-1.254 0.884,-2.137 0.884,-0.884 2.137,-0.884 1.254,0 2.137,0.884 0.884,0.884 0.884,2.137 0,1.254 -0.884,2.137 -0.884,0.884 -2.137,0.884 z"
    class="ColorScheme-Background" fill="currentColor" />
</svg>