<svg height="32" width="32" version="1.1" xmlns="http://www.w3.org/2000/svg" xmlns:svg="http://www.w3.org/2000/svg">
  <defs>
    <style type="text/css" id="current-color-scheme">
      .ColorScheme-Accent {
        color: #95ccff;
      }

      .ColorScheme-Background {
        color: #28292d;
      }
    </style>
    <linearGradient id="lg1" x1="48" y1="26.667" x2="48" y2="5.334" gradientUnits="userSpaceOnUse">
      <stop stop-opacity="0.15" offset="0" />
      <stop stop-opacity="0" offset="1" />
    </linearGradient>
    <path id="folder-back"
      d="M 2.667,12 v -4.444 q 0,-0.878 0.661,-1.55 0.661,-0.672 1.561,-0.672 h 8.911 l 2.222,2.222 v 4.444 z" />
    <g id="icon">
      <path
        d="M 10.82,12.218 C 10.369,12.218 10,12.587 10,13.038 v 10.359 c 0,0.452 0.369,0.82 0.82,0.82 h 10.359 c 0.452,0 0.82,-0.369 0.82,-0.82 V 13.038 c 0,-0.452 -0.369,-0.82 -0.82,-0.82 z m 0,0.3 h 10.359 c 0.291,0 0.52,0.229 0.52,0.52 v 10.359 c 0,0.291 -0.229,0.52 -0.52,0.52 H 10.82 c -0.291,0 -0.52,-0.229 -0.52,-0.52 V 13.038 c 0,-0.291 0.229,-0.52 0.52,-0.52 z" />
      <path d="m 15.1,13.428 v 1.8 h -0.956 l 1.856,2.1 1.856,-2.1 h -0.956 v -1.8 z" />
      <path
        d="m 15.672,17.628 c -0.052,0 -0.085,0.088 -0.085,0.197 v 0.685 c -0.209,0.047 -0.405,0.133 -0.581,0.244 l -0.487,-0.488 c -0.076,-0.077 -0.16,-0.112 -0.197,-0.075 l -0.459,0.459 c -0.037,0.037 -0.002,0.12 0.075,0.197 L 14.425,19.334 C 14.314,19.51 14.229,19.707 14.181,19.915 H 13.497 C 13.388,19.915 13.3,19.948 13.3,20 v 0.656 c 0,0.052 0.088,0.085 0.197,0.085 h 0.685 c 0.047,0.209 0.133,0.405 0.244,0.581 l -0.488,0.488 c -0.077,0.077 -0.112,0.16 -0.075,0.197 l 0.459,0.459 c 0.037,0.037 0.12,0.002 0.197,-0.075 l 0.488,-0.488 c 0.176,0.111 0.373,0.196 0.581,0.244 V 22.832 c 0,0.109 0.033,0.197 0.085,0.197 h 0.656 c 0.052,0 0.085,-0.088 0.085,-0.197 v -0.685 c 0.209,-0.047 0.405,-0.133 0.581,-0.244 l 0.488,0.488 c 0.077,0.077 0.16,0.112 0.197,0.075 l 0.459,-0.459 c 0.037,-0.037 0.002,-0.12 -0.075,-0.197 l -0.488,-0.488 c 0.111,-0.176 0.196,-0.373 0.244,-0.581 h 0.685 c 0.109,0 0.197,-0.033 0.197,-0.085 v -0.656 c 0,-0.052 -0.088,-0.085 -0.197,-0.085 h -0.685 c -0.047,-0.209 -0.133,-0.406 -0.243,-0.582 l 0.488,-0.488 c 0.077,-0.077 0.112,-0.16 0.075,-0.197 l -0.459,-0.459 c -0.037,-0.037 -0.12,-0.002 -0.197,0.075 L 16.994,18.753 C 16.819,18.642 16.622,18.557 16.413,18.509 v -0.685 c 0,-0.109 -0.033,-0.197 -0.085,-0.197 z M 16,19.493 c 0.459,0 0.835,0.376 0.835,0.835 0,0.459 -0.376,0.835 -0.835,0.835 -0.459,0 -0.835,-0.376 -0.835,-0.835 0,-0.459 0.376,-0.835 0.835,-0.835 z" />
    </g>
  </defs>
  <use href="#folder-back" class="ColorScheme-Accent" fill="currentColor" />
  <use href="#folder-back" class="ColorScheme-Background" fill="currentColor" opacity="0.3" />
  <path
    d="M 4.889,26.667 q -0.9,0 -1.561,-0.672 -0.661,-0.672 -0.661,-1.55 v -12.445 q 0,-0.878 0.661,-1.55 0.661,-0.672 1.561,-0.672 h 8.911 l 2.222,-2.222 h 11.089 q 0.878,0 1.55,0.672 0.672,0.672 0.672,1.55 v 14.667 q 0,0.878 -0.672,1.55 -0.672,0.672 -1.55,0.672 z"
    class="ColorScheme-Accent" fill="currentColor" />
  <use href="#icon" class="ColorScheme-Background" fill="currentColor" opacity="0.8" />
  <path
    d="m 4.889,26.667 q -0.9,0 -1.561,-0.672 -0.661,-0.672 -0.661,-1.55 V 7.556 q 0,-0.878 0.661,-1.55 Q 3.989,5.334 4.889,5.334 h 8.911 l 2.222,2.222 h 11.089 q 0.878,0 1.55,0.672 0.672,0.672 0.672,1.55 V 24.445 q 0,0.878 -0.672,1.55 -0.672,0.672 -1.55,0.672 z"
    fill="url(#lg1)" />
</svg>