<svg viewBox="0 0 32 32" xmlns="http://www.w3.org/2000/svg">
  <defs>
    <style type="text/css" id="current-color-scheme">
      .ColorScheme-Accent {
        color: #95ccff;
      }

      .ColorScheme-Background {
        color: #1e2022;
      }
    </style>
    <path id="folder-back" d="M 2.667,26.667 V 5.333 H 14.033 l 2,2 h 13.3 V 26.667 Z" />
  </defs>
  <use href="#folder-back" class="ColorScheme-Accent" fill="currentColor" />
  <use href="#folder-back" class="ColorScheme-Background" fill="currentColor" opacity="0.3" />
  <path d="M 2.667,26.667 V 9.333 H 14.033 l 2,-2 h 13.3 V 26.667 Z" class="ColorScheme-Accent" fill="currentColor" />
  <path
    d="m 12.828,23.438 -0.151,-1.329 1.722,-4.743 q 0.227,0.211 0.491,0.355 0.264,0.143 0.566,0.219 l -1.661,4.561 z m 6.344,0 -0.967,-0.936 -1.661,-4.561 q 0.302,-0.076 0.566,-0.219 0.264,-0.143 0.491,-0.355 l 1.722,4.743 z M 16,17.396 q -0.755,0 -1.284,-0.529 -0.529,-0.529 -0.529,-1.284 0,-0.589 0.34,-1.05 0.34,-0.461 0.868,-0.642 V 12.563 h 1.208 v 1.329 q 0.529,0.181 0.868,0.642 0.34,0.461 0.34,1.05 0,0.755 -0.529,1.284 Q 16.755,17.396 16,17.396 Z M 16,16.188 q 0.257,0 0.43,-0.174 0.174,-0.174 0.174,-0.43 0,-0.257 -0.174,-0.43 Q 16.257,14.979 16,14.979 q -0.257,0 -0.43,0.174 -0.174,0.174 -0.174,0.43 0,0.257 0.174,0.43 Q 15.743,16.188 16,16.188 Z"
    class="ColorScheme-Background" fill="currentColor" />
</svg>