<svg viewBox="0 0 32 32" xmlns="http://www.w3.org/2000/svg">
  <defs>
    <style type="text/css" id="current-color-scheme">
      .ColorScheme-Accent {
        color: #95ccff;
      }

      .ColorScheme-Background {
        color: #1e2022;
      }
    </style>
    <path id="folder-back" d="M 2.667,26.667 V 5.333 H 14.033 l 2,2 h 13.3 V 26.667 Z" />
  </defs>
  <use href="#folder-back" class="ColorScheme-Accent" fill="currentColor" />
  <use href="#folder-back" class="ColorScheme-Background" fill="currentColor" opacity="0.3" />
  <path d="M 2.667,26.667 V 9.333 H 14.033 l 2,-2 h 13.3 V 26.667 Z" class="ColorScheme-Accent" fill="currentColor" />
  <path
    d="m 17.254,17.834 q 1.103,-0.816 1.722,-1.79 0.619,-0.974 0.619,-1.941 0,-0.483 -0.159,-0.71 -0.159,-0.227 -0.43,-0.227 -0.71,0 -1.254,1.201 -0.544,1.201 -0.544,2.711 0,0.211 0.008,0.4 0.008,0.189 0.038,0.355 z M 10.563,23.438 v -1.208 h 1.208 V 23.438 Z m 2.417,0 V 22.229 H 14.188 V 23.438 Z m 2.417,0 v -1.208 h 1.208 V 23.438 Z m 2.417,0 v -1.208 h 1.208 V 23.438 Z m 2.417,0 V 22.229 H 21.438 V 23.438 Z m -9.425,-2.417 L 9.958,20.175 10.925,19.208 9.958,18.242 10.804,17.396 11.771,18.363 12.738,17.396 13.583,18.242 12.617,19.208 13.583,20.175 12.738,21.021 11.771,20.054 Z m 7.28,-0.604 q -0.453,0 -0.831,-0.174 -0.378,-0.174 -0.649,-0.566 -0.378,0.211 -0.778,0.378 -0.4,0.166 -0.823,0.332 l -0.423,-1.133 q 0.423,-0.151 0.808,-0.325 0.385,-0.174 0.748,-0.37 -0.076,-0.332 -0.113,-0.725 -0.038,-0.393 -0.038,-0.846 0,-2.175 0.861,-3.602 0.861,-1.427 2.16,-1.427 0.785,0 1.284,0.582 0.498,0.582 0.498,1.624 0,1.299 -0.823,2.568 -0.823,1.269 -2.288,2.281 0.106,0.106 0.219,0.159 0.113,0.053 0.234,0.053 0.393,0 0.914,-0.498 0.521,-0.498 0.944,-1.314 l 1.103,0.514 q -0.106,0.257 -0.166,0.619 -0.06,0.363 0.015,0.634 0.151,-0.076 0.355,-0.257 0.204,-0.181 0.415,-0.453 l 0.952,0.74 q -0.393,0.544 -0.906,0.876 -0.514,0.332 -0.952,0.332 -0.317,0 -0.566,-0.189 -0.249,-0.189 -0.415,-0.582 -0.423,0.378 -0.861,0.574 -0.438,0.196 -0.876,0.196 z"
    class="ColorScheme-Background" fill="currentColor" />
</svg>