<svg height="32" width="32" version="1.1" xmlns="http://www.w3.org/2000/svg" xmlns:svg="http://www.w3.org/2000/svg">
  <defs>
    <style type="text/css" id="current-color-scheme">
      .ColorScheme-Accent {
        color: #95ccff;
      }

      .ColorScheme-Background {
        color: #28292d;
      }
    </style>
    <linearGradient id="lg1" x1="48" y1="26.667" x2="48" y2="5.334" gradientUnits="userSpaceOnUse">
      <stop stop-opacity="0.15" offset="0" />
      <stop stop-opacity="0" offset="1" />
    </linearGradient>
    <path id="folder-back"
      d="M 2.667,12 v -4.444 q 0,-0.878 0.661,-1.55 0.661,-0.672 1.561,-0.672 h 8.911 l 2.222,2.222 v 4.444 z" />
    <path id="icon"
      d="M 11.65,23.293 V 20.982 l 7.522,-7.522 q 0.166,-0.166 0.363,-0.242 0.196,-0.076 0.408,-0.076 0.211,0 0.408,0.076 0.196,0.076 0.363,0.242 l 0.77,0.77 q 0.166,0.166 0.242,0.363 0.076,0.196 0.076,0.408 0,0.211 -0.076,0.408 -0.076,0.196 -0.242,0.363 l -7.522,7.522 z m 1.088,-1.087 h 0.77 l 5.74,-5.74 -0.378,-0.393 -0.393,-0.378 -5.74,5.74 z m 8.141,-7.416 -0.77,-0.77 z m -2.009,1.284 -0.393,-0.378 0.77,0.77 z m -1.601,7.22 q 0.921,0 1.82,-0.536 0.899,-0.536 0.899,-1.458 0,-0.514 -0.234,-0.853 -0.234,-0.34 -0.748,-0.657 l -0.816,0.801 q 0.378,0.196 0.544,0.34 0.166,0.143 0.166,0.37 0,0.347 -0.536,0.627 -0.536,0.279 -1.095,0.279 -0.211,0 -0.378,0.166 -0.166,0.166 -0.166,0.378 0,0.227 0.166,0.385 0.166,0.159 0.378,0.159 z M 12.013,19.079 12.858,18.233 Q 12.541,18.158 12.277,17.991 12.013,17.825 12.013,17.674 q 0,-0.151 0.264,-0.34 0.264,-0.189 1.02,-0.566 1.193,-0.604 1.586,-1.035 0.393,-0.43 0.393,-0.959 0,-0.77 -0.566,-1.201 -0.566,-0.43 -1.458,-0.43 -0.619,0 -1.178,0.204 -0.559,0.204 -0.816,0.536 -0.136,0.181 -0.121,0.4 0.015,0.219 0.196,0.355 0.166,0.136 0.4,0.113 0.234,-0.023 0.37,-0.174 0.196,-0.196 0.498,-0.272 0.302,-0.076 0.649,-0.076 0.468,0 0.702,0.159 0.234,0.159 0.234,0.385 0,0.196 -0.249,0.4 -0.249,0.204 -1.125,0.627 -1.057,0.514 -1.473,0.921 Q 10.925,17.131 10.925,17.674 q 0,0.438 0.264,0.801 0.264,0.363 0.823,0.604 z" />
  </defs>
  <use href="#folder-back" class="ColorScheme-Accent" fill="currentColor" />
  <use href="#folder-back" class="ColorScheme-Background" fill="currentColor" opacity="0.3" />
  <path
    d="M 4.889,26.667 q -0.9,0 -1.561,-0.672 -0.661,-0.672 -0.661,-1.55 v -12.445 q 0,-0.878 0.661,-1.55 0.661,-0.672 1.561,-0.672 h 8.911 l 2.222,-2.222 h 11.089 q 0.878,0 1.55,0.672 0.672,0.672 0.672,1.55 v 14.667 q 0,0.878 -0.672,1.55 -0.672,0.672 -1.55,0.672 z"
    class="ColorScheme-Accent" fill="currentColor" />
  <use href="#icon" class="ColorScheme-Background" fill="currentColor" opacity="0.8" />
  <path
    d="m 4.889,26.667 q -0.9,0 -1.561,-0.672 -0.661,-0.672 -0.661,-1.55 V 7.556 q 0,-0.878 0.661,-1.55 Q 3.989,5.334 4.889,5.334 h 8.911 l 2.222,2.222 h 11.089 q 0.878,0 1.55,0.672 0.672,0.672 0.672,1.55 V 24.445 q 0,0.878 -0.672,1.55 -0.672,0.672 -1.55,0.672 z"
    fill="url(#lg1)" />
</svg>