<svg height="32" width="32" version="1.1" xmlns="http://www.w3.org/2000/svg" xmlns:svg="http://www.w3.org/2000/svg">
  <defs>
    <style type="text/css" id="current-color-scheme">
      .ColorScheme-Accent {
        color: #95ccff;
      }

      .ColorScheme-Background {
        color: #28292d;
      }
    </style>
    <linearGradient id="lg1" x1="48" y1="26.667" x2="48" y2="5.334" gradientUnits="userSpaceOnUse">
      <stop stop-opacity="0.15" offset="0" />
      <stop stop-opacity="0" offset="1" />
    </linearGradient>
    <path id="folder-back"
      d="M 2.667,12 v -4.444 q 0,-0.878 0.661,-1.55 0.661,-0.672 1.561,-0.672 h 8.911 l 2.222,2.222 v 4.444 z" />
    <path id="icon"
      d="m 12.733,24.018 q -0.449,0 -0.766,-0.319 Q 11.65,23.379 11.65,22.93 v -5.8 q 0,-0.449 0.319,-0.768 0.319,-0.319 0.768,-0.319 H 13.1 v -1.45 q 0,-1.203 0.849,-2.052 0.849,-0.848 2.054,-0.848 1.205,0 2.051,0.848 0.846,0.848 0.846,2.052 v 1.45 h 0.363 q 0.449,0 0.768,0.319 0.319,0.319 0.319,0.768 v 5.8 q 0,0.449 -0.32,0.768 -0.32,0.319 -0.769,0.319 z m 0.004,-1.087 h 6.525 v -5.8 H 12.738 Z m 3.266,-1.813 q 0.45,0 0.767,-0.32 0.317,-0.32 0.317,-0.77 0,-0.45 -0.32,-0.767 -0.32,-0.317 -0.77,-0.317 -0.45,0 -0.767,0.32 -0.317,0.32 -0.317,0.77 0,0.45 0.32,0.767 0.32,0.317 0.77,0.317 z m -1.816,-5.075 h 3.625 v -1.45 q 0,-0.755 -0.529,-1.284 -0.529,-0.529 -1.284,-0.529 -0.755,0 -1.284,0.529 -0.529,0.529 -0.529,1.284 z m -1.45,6.888 v -5.8 z" />
  </defs>
  <use href="#folder-back" class="ColorScheme-Accent" fill="currentColor" />
  <use href="#folder-back" class="ColorScheme-Background" fill="currentColor" opacity="0.3" />
  <path
    d="M 4.889,26.667 q -0.9,0 -1.561,-0.672 -0.661,-0.672 -0.661,-1.55 v -12.445 q 0,-0.878 0.661,-1.55 0.661,-0.672 1.561,-0.672 h 8.911 l 2.222,-2.222 h 11.089 q 0.878,0 1.55,0.672 0.672,0.672 0.672,1.55 v 14.667 q 0,0.878 -0.672,1.55 -0.672,0.672 -1.55,0.672 z"
    class="ColorScheme-Accent" fill="currentColor" />
  <use href="#icon" class="ColorScheme-Background" fill="currentColor" opacity="0.8" />
  <path
    d="m 4.889,26.667 q -0.9,0 -1.561,-0.672 -0.661,-0.672 -0.661,-1.55 V 7.556 q 0,-0.878 0.661,-1.55 Q 3.989,5.334 4.889,5.334 h 8.911 l 2.222,2.222 h 11.089 q 0.878,0 1.55,0.672 0.672,0.672 0.672,1.55 V 24.445 q 0,0.878 -0.672,1.55 -0.672,0.672 -1.55,0.672 z"
    fill="url(#lg1)" />
</svg>