<svg viewBox="0 0 32 32" xmlns="http://www.w3.org/2000/svg">
  <defs>
    <style type="text/css" id="current-color-scheme">
      .ColorScheme-Accent {
        color: #95ccff;
      }

      .ColorScheme-Background {
        color: #1e2022;
      }
    </style>
    <path id="folder-back" d="M 2.667,26.667 V 5.333 H 14.033 l 2,2 h 13.3 V 26.667 Z" />
  </defs>
  <use href="#folder-back" class="ColorScheme-Accent" fill="currentColor" />
  <use href="#folder-back" class="ColorScheme-Background" fill="currentColor" opacity="0.3" />
  <path d="M 2.667,26.667 V 9.333 H 14.033 l 2,-2 h 13.3 V 26.667 Z" class="ColorScheme-Accent" fill="currentColor" />
  <path
    d="M 19.794,24.087 15.419,19.679 q -0.323,0.129 -0.654,0.194 -0.331,0.065 -0.702,0.065 -1.615,0 -2.745,-1.13 Q 10.188,17.677 10.188,16.063 q 0,-0.581 0.161,-1.106 0.161,-0.525 0.452,-0.993 l 2.357,2.357 1.163,-1.163 -2.357,-2.357 Q 12.432,12.51 12.957,12.349 13.481,12.188 14.063,12.188 q 1.615,0 2.745,1.13 1.13,1.13 1.13,2.745 0,0.371 -0.065,0.702 -0.065,0.331 -0.194,0.654 l 4.408,4.376 z m 0,-1.841 0.436,-0.436 -4.133,-4.133 q 0.291,-0.323 0.42,-0.751 0.129,-0.428 0.129,-0.864 0,-0.969 -0.622,-1.687 -0.622,-0.718 -1.542,-0.864 l 1.647,1.647 -2.971,2.971 -1.647,-1.647 q 0.145,0.92 0.864,1.542 0.718,0.622 1.687,0.622 0.42,0 0.84,-0.129 0.42,-0.129 0.759,-0.404 z m -3.923,-4.376 z"
    class="ColorScheme-Background" fill="currentColor" />
</svg>