<svg viewBox="0 0 32 32" xmlns="http://www.w3.org/2000/svg">
  <defs>
    <style type="text/css" id="current-color-scheme">
      .ColorScheme-Accent {
        color: #95ccff;
      }

      .ColorScheme-Background {
        color: #1e2022;
      }
    </style>
    <path id="folder-back" d="M 2.667,26.667 V 5.333 H 14.033 l 2,2 h 13.3 V 26.667 Z" />
  </defs>
  <use href="#folder-back" class="ColorScheme-Accent" fill="currentColor" />
  <use href="#folder-back" class="ColorScheme-Background" fill="currentColor" opacity="0.3" />
  <path d="M 2.667,26.667 V 9.333 H 14.033 l 2,-2 h 13.3 V 26.667 Z" class="ColorScheme-Accent" fill="currentColor" />
  <path
    d="M 14.067,23.438 H 10.563 v -3.504 q 0.725,0 1.269,-0.461 0.544,-0.461 0.544,-1.171 0,-0.71 -0.544,-1.171 -0.544,-0.461 -1.269,-0.461 v -3.504 h 3.625 q 0,-0.634 0.438,-1.072 0.438,-0.438 1.072,-0.438 0.634,0 1.072,0.438 0.438,0.438 0.438,1.072 h 3.625 v 3.625 q 0.634,0 1.072,0.438 0.438,0.438 0.438,1.072 0,0.634 -0.438,1.072 -0.438,0.438 -1.072,0.438 v 3.625 h -3.504 q 0,-0.755 -0.476,-1.284 Q 16.378,21.625 15.698,21.625 q -0.68,0 -1.155,0.529 -0.476,0.529 -0.476,1.284 z m -2.296,-1.208 h 1.284 q 0.363,-0.997 1.163,-1.405 0.801,-0.408 1.48,-0.408 0.68,0 1.48,0.408 0.801,0.408 1.163,1.405 H 19.625 v -3.625 h 1.208 q 0.121,0 0.211,-0.091 0.091,-0.091 0.091,-0.211 0,-0.121 -0.091,-0.211 Q 20.954,18 20.833,18 H 19.625 V 14.375 H 16 v -1.208 q 0,-0.121 -0.091,-0.211 -0.091,-0.091 -0.211,-0.091 -0.121,0 -0.211,0.091 -0.091,0.091 -0.091,0.211 V 14.375 h -3.625 v 1.329 q 0.816,0.302 1.314,1.012 0.498,0.71 0.498,1.586 0,0.861 -0.498,1.571 Q 12.586,20.583 11.771,20.9 Z m 3.927,-3.927 z"
    class="ColorScheme-Background" fill="currentColor" />
</svg>