<svg viewBox="0 0 32 32" xmlns="http://www.w3.org/2000/svg">
  <defs>
    <style type="text/css" id="current-color-scheme">
      .ColorScheme-NegativeText {
        color: #ff5540;
      }

      .ColorScheme-Background {
        color: #1e2022;
      }
    </style>
    <path id="folder-back" d="M 2.667,26.667 V 5.333 H 14.033 l 2,2 h 13.3 V 26.667 Z" />
  </defs>
  <use href="#folder-back" class="ColorScheme-NegativeText" fill="currentColor" />
  <use href="#folder-back" class="ColorScheme-Background" fill="currentColor" opacity="0.3" />
  <path d="M 2.667,26.667 V 9.333 H 14.033 l 2,-2 h 13.3 V 26.667 Z" class="ColorScheme-NegativeText"
    fill="currentColor" />
  <path
    d="m 15.064,20.115 q 0.363,0.363 0.936,0.355 0.574,-0.008 0.846,-0.415 l 3.383,-5.075 -5.075,3.383 q -0.408,0.272 -0.43,0.831 -0.023,0.559 0.34,0.921 z M 16,13.167 q 0.891,0 1.714,0.249 0.823,0.249 1.548,0.748 l -1.148,0.725 Q 17.616,14.632 17.08,14.503 16.544,14.375 16,14.375 q -2.009,0 -3.421,1.412 -1.412,1.412 -1.412,3.421 0,0.634 0.174,1.254 0.174,0.619 0.491,1.163 h 8.338 q 0.347,-0.574 0.506,-1.193 0.159,-0.619 0.159,-1.284 0,-0.544 -0.128,-1.057 -0.128,-0.514 -0.385,-0.997 l 0.725,-1.148 q 0.453,0.71 0.717,1.51 0.264,0.801 0.279,1.661 0.015,0.861 -0.196,1.646 -0.211,0.785 -0.619,1.495 -0.166,0.272 -0.453,0.423 -0.287,0.151 -0.604,0.151 h -8.338 q -0.317,0 -0.604,-0.151 -0.287,-0.151 -0.453,-0.423 -0.393,-0.68 -0.604,-1.442 -0.211,-0.763 -0.211,-1.609 0,-1.254 0.476,-2.349 0.476,-1.095 1.299,-1.918 0.823,-0.823 1.926,-1.299 Q 14.761,13.167 16,13.167 Z m 0.106,4.728 z"
    class="ColorScheme-Background" fill="currentColor" />
</svg>