<svg viewBox="0 0 32 32" xmlns="http://www.w3.org/2000/svg">
  <defs>
    <style type="text/css" id="current-color-scheme">
      .ColorScheme-Accent {
        color: #95ccff;
      }

      .ColorScheme-Background {
        color: #1e2022;
      }
    </style>
    <path id="folder-back" d="M 2.667,26.667 V 5.333 H 14.033 l 2,2 h 13.3 V 26.667 Z" />
  </defs>
  <use href="#folder-back" class="ColorScheme-Accent" fill="currentColor" />
  <use href="#folder-back" class="ColorScheme-Background" fill="currentColor" opacity="0.3" />
  <path d="M 2.667,26.667 V 9.333 H 14.033 l 2,-2 h 13.3 V 26.667 Z" class="ColorScheme-Accent" fill="currentColor" />
  <path
    d="M 9.354,21.625 Q 9.49,20.009 10.343,18.65 11.197,17.29 12.617,16.49 l -1.118,-1.933 q -0.091,-0.136 -0.045,-0.287 0.045,-0.151 0.196,-0.227 0.121,-0.076 0.272,-0.03 0.151,0.045 0.242,0.181 l 1.118,1.933 q 1.299,-0.544 2.719,-0.544 1.42,0 2.719,0.544 l 1.118,-1.933 q 0.091,-0.136 0.242,-0.181 0.151,-0.045 0.272,0.03 0.151,0.076 0.196,0.227 0.045,0.151 -0.045,0.287 l -1.118,1.933 q 1.42,0.801 2.273,2.16 0.853,1.359 0.989,2.976 z m 3.625,-1.661 q 0.317,0 0.536,-0.219 0.219,-0.219 0.219,-0.536 0,-0.317 -0.219,-0.536 -0.219,-0.219 -0.536,-0.219 -0.317,0 -0.536,0.219 -0.219,0.219 -0.219,0.536 0,0.317 0.219,0.536 0.219,0.219 0.536,0.219 z m 6.042,0 q 0.317,0 0.536,-0.219 0.219,-0.219 0.219,-0.536 0,-0.317 -0.219,-0.536 -0.219,-0.219 -0.536,-0.219 -0.317,0 -0.536,0.219 -0.219,0.219 -0.219,0.536 0,0.317 0.219,0.536 0.219,0.219 0.536,0.219 z"
    class="ColorScheme-Background" fill="currentColor" />
</svg>