<svg height="32" width="32" version="1.1" xmlns="http://www.w3.org/2000/svg" xmlns:svg="http://www.w3.org/2000/svg">
  <defs>
    <style type="text/css" id="current-color-scheme">
      .ColorScheme-Accent {
        color: #95ccff;
      }

      .ColorScheme-Background {
        color: #28292d;
      }
    </style>
    <linearGradient id="lg1" x1="48" y1="26.667" x2="48" y2="5.334" gradientUnits="userSpaceOnUse">
      <stop stop-opacity="0.15" offset="0" />
      <stop stop-opacity="0" offset="1" />
    </linearGradient>
    <path id="folder-back"
      d="M 2.667,12 v -4.444 q 0,-0.878 0.661,-1.55 0.661,-0.672 1.561,-0.672 h 8.911 l 2.222,2.222 v 4.444 z" />
    <path id="icon"
      d="m 15.992,23.293 q -2.122,0 -3.595,-0.632 Q 10.925,22.029 10.925,21.118 v -5.8 q 0,-0.906 1.48,-1.541 1.48,-0.634 3.587,-0.634 2.107,0 3.595,0.634 1.488,0.634 1.488,1.541 v 5.8 q 0,0.911 -1.48,1.543 -1.48,0.632 -3.602,0.632 z m 0.007,-6.887 q 1.299,0 2.508,-0.325 1.208,-0.325 1.48,-0.763 -0.272,-0.423 -1.488,-0.755 -1.216,-0.332 -2.5,-0.332 -1.299,0 -2.514,0.332 -1.216,0.332 -1.473,0.755 0.257,0.438 1.458,0.763 1.201,0.325 2.529,0.325 z m 4.53e-4,2.9 q 0.634,0 1.208,-0.068 0.574,-0.068 1.08,-0.189 0.506,-0.121 0.936,-0.31 0.43,-0.189 0.763,-0.43 V 16.662 q -0.366,0.2 -0.81,0.357 -0.444,0.157 -0.955,0.26 -0.511,0.103 -1.072,0.159 -0.561,0.055 -1.158,0.055 -0.597,0 -1.165,-0.055 -0.568,-0.055 -1.072,-0.159 Q 13.251,17.176 12.805,17.017 12.36,16.859 12.013,16.662 v 1.646 q 0.338,0.241 0.758,0.43 0.42,0.189 0.926,0.31 0.506,0.121 1.088,0.189 0.582,0.068 1.216,0.068 z m 0.005,2.9 q 0.654,0 1.33,-0.097 0.676,-0.097 1.245,-0.255 0.569,-0.159 0.953,-0.359 0.384,-0.2 0.455,-0.407 v -1.526 q -0.366,0.2 -0.81,0.357 -0.444,0.157 -0.955,0.26 -0.511,0.103 -1.072,0.159 -0.561,0.055 -1.158,0.055 -0.597,0 -1.165,-0.055 -0.568,-0.055 -1.072,-0.159 -0.504,-0.103 -0.95,-0.262 -0.446,-0.159 -0.793,-0.355 v 1.556 q 0.076,0.196 0.461,0.393 0.385,0.196 0.952,0.347 0.566,0.151 1.246,0.249 0.68,0.098 1.334,0.098 z" />
  </defs>
  <use href="#folder-back" class="ColorScheme-Accent" fill="currentColor" />
  <use href="#folder-back" class="ColorScheme-Background" fill="currentColor" opacity="0.3" />
  <path
    d="M 4.889,26.667 q -0.9,0 -1.561,-0.672 -0.661,-0.672 -0.661,-1.55 v -12.445 q 0,-0.878 0.661,-1.55 0.661,-0.672 1.561,-0.672 h 8.911 l 2.222,-2.222 h 11.089 q 0.878,0 1.55,0.672 0.672,0.672 0.672,1.55 v 14.667 q 0,0.878 -0.672,1.55 -0.672,0.672 -1.55,0.672 z"
    class="ColorScheme-Accent" fill="currentColor" />
  <use href="#icon" class="ColorScheme-Background" fill="currentColor" opacity="0.8" />
  <path
    d="m 4.889,26.667 q -0.9,0 -1.561,-0.672 -0.661,-0.672 -0.661,-1.55 V 7.556 q 0,-0.878 0.661,-1.55 Q 3.989,5.334 4.889,5.334 h 8.911 l 2.222,2.222 h 11.089 q 0.878,0 1.55,0.672 0.672,0.672 0.672,1.55 V 24.445 q 0,0.878 -0.672,1.55 -0.672,0.672 -1.55,0.672 z"
    fill="url(#lg1)" />
</svg>