<svg height="32" width="32" version="1.1" xmlns="http://www.w3.org/2000/svg" xmlns:svg="http://www.w3.org/2000/svg">
  <defs>
    <style type="text/css" id="current-color-scheme">
      .ColorScheme-PositiveText {
        color: #50c24b;
      }

      .ColorScheme-Background {
        color: #28292d;
      }
    </style>
    <linearGradient id="lg1" x1="48" y1="26.667" x2="48" y2="5.334" gradientUnits="userSpaceOnUse">
      <stop stop-opacity="0.15" offset="0" />
      <stop stop-opacity="0" offset="1" />
    </linearGradient>
    <path id="folder-back"
      d="M 2.667,12 v -4.444 q 0,-0.878 0.661,-1.55 0.661,-0.672 1.561,-0.672 h 8.911 l 2.222,2.222 v 4.444 z" />
    <path id="icon"
      d="m 15.124,20.03 h 1.752 l -0.332,-1.948 q 0.253,-0.135 0.398,-0.392 0.145,-0.257 0.145,-0.567 0,-0.446 -0.32,-0.763 -0.32,-0.317 -0.77,-0.317 -0.45,0 -0.767,0.319 -0.317,0.319 -0.317,0.768 0,0.308 0.145,0.563 0.145,0.255 0.398,0.389 z m 0.876,3.987 Q 13.961,23.52 12.624,21.709 11.288,19.899 11.288,17.689 v -3.459 l 4.712,-1.812 4.713,1.812 v 3.459 q 0,2.21 -1.337,4.02 -1.337,1.81 -3.376,2.309 z m 0,-1.133 q 1.571,-0.487 2.598,-1.948 1.027,-1.461 1.027,-3.247 v -2.719 l -3.625,-1.39 -3.625,1.39 v 2.719 q 0,1.786 1.027,3.247 1.027,1.461 2.598,1.948 z m 0,-4.652 z" />
  </defs>
  <use href="#folder-back" class="ColorScheme-PositiveText" fill="currentColor" />
  <use href="#folder-back" class="ColorScheme-Background" fill="currentColor" opacity="0.3" />
  <path
    d="M 4.889,26.667 q -0.9,0 -1.561,-0.672 -0.661,-0.672 -0.661,-1.55 v -12.445 q 0,-0.878 0.661,-1.55 0.661,-0.672 1.561,-0.672 h 8.911 l 2.222,-2.222 h 11.089 q 0.878,0 1.55,0.672 0.672,0.672 0.672,1.55 v 14.667 q 0,0.878 -0.672,1.55 -0.672,0.672 -1.55,0.672 z"
    class="ColorScheme-PositiveText" fill="currentColor" />
  <use href="#icon" class="ColorScheme-Background" fill="currentColor" opacity="0.8" />
  <path
    d="m 4.889,26.667 q -0.9,0 -1.561,-0.672 -0.661,-0.672 -0.661,-1.55 V 7.556 q 0,-0.878 0.661,-1.55 Q 3.989,5.334 4.889,5.334 h 8.911 l 2.222,2.222 h 11.089 q 0.878,0 1.55,0.672 0.672,0.672 0.672,1.55 V 24.445 q 0,0.878 -0.672,1.55 -0.672,0.672 -1.55,0.672 z"
    fill="url(#lg1)" />
</svg>