<svg height="32" width="32" version="1.1" xmlns="http://www.w3.org/2000/svg" xmlns:svg="http://www.w3.org/2000/svg">
  <defs>
    <style type="text/css" id="current-color-scheme">
      .ColorScheme-Accent {
        color: #95ccff;
      }

      .ColorScheme-Background {
        color: #28292d;
      }
    </style>
    <linearGradient id="lg1" x1="48" y1="26.667" x2="48" y2="5.334" gradientUnits="userSpaceOnUse">
      <stop stop-opacity="0.15" offset="0" />
      <stop stop-opacity="0" offset="1" />
    </linearGradient>
    <path id="folder-back"
      d="M 2.667,12 v -4.444 q 0,-0.878 0.661,-1.55 0.661,-0.672 1.561,-0.672 h 8.911 l 2.222,2.222 v 4.444 z" />
    <path id="icon"
      d="m 18.809,23.006 -2.885,-2.885 q -0.302,0.121 -0.657,0.189 -0.355,0.068 -0.717,0.068 -1.495,0 -2.56,-1.057 Q 10.925,18.263 10.925,16.768 q 0,-0.571 0.143,-1.086 0.143,-0.515 0.43,-0.953 l 2.175,2.175 1.057,-1.057 -2.175,-2.175 q 0.438,-0.257 0.944,-0.393 0.506,-0.136 1.05,-0.136 1.51,0 2.568,1.072 1.057,1.072 1.057,2.571 0,0.345 -0.068,0.639 -0.068,0.295 -0.189,0.597 l 2.945,2.93 q 0.211,0.217 0.211,0.524 0,0.307 -0.211,0.519 l -1.027,1.012 q -0.213,0.211 -0.514,0.211 -0.301,0 -0.513,-0.211 z m 0.514,-1.027 0.529,-0.514 -3.247,-3.217 q 0.302,-0.363 0.393,-0.793 0.091,-0.43 0.091,-0.672 0,-1.01 -0.717,-1.758 -0.717,-0.749 -1.729,-0.794 l 1.239,1.223 q 0.166,0.169 0.166,0.394 0,0.225 -0.171,0.395 l -1.819,1.806 q -0.171,0.169 -0.385,0.169 -0.214,0 -0.375,-0.166 L 12.013,16.768 q 0,1.042 0.748,1.782 0.748,0.74 1.79,0.74 0.257,0 0.71,-0.106 0.453,-0.106 0.846,-0.423 z m -3.383,-3.882 z" />
  </defs>
  <use href="#folder-back" class="ColorScheme-Accent" fill="currentColor" />
  <use href="#folder-back" class="ColorScheme-Background" fill="currentColor" opacity="0.3" />
  <path
    d="M 4.889,26.667 q -0.9,0 -1.561,-0.672 -0.661,-0.672 -0.661,-1.55 v -12.445 q 0,-0.878 0.661,-1.55 0.661,-0.672 1.561,-0.672 h 8.911 l 2.222,-2.222 h 11.089 q 0.878,0 1.55,0.672 0.672,0.672 0.672,1.55 v 14.667 q 0,0.878 -0.672,1.55 -0.672,0.672 -1.55,0.672 z"
    class="ColorScheme-Accent" fill="currentColor" />
  <use href="#icon" class="ColorScheme-Background" fill="currentColor" opacity="0.8" />
  <path
    d="m 4.889,26.667 q -0.9,0 -1.561,-0.672 -0.661,-0.672 -0.661,-1.55 V 7.556 q 0,-0.878 0.661,-1.55 Q 3.989,5.334 4.889,5.334 h 8.911 l 2.222,2.222 h 11.089 q 0.878,0 1.55,0.672 0.672,0.672 0.672,1.55 V 24.445 q 0,0.878 -0.672,1.55 -0.672,0.672 -1.55,0.672 z"
    fill="url(#lg1)" />
</svg>