<svg viewBox="0 0 32 32" xmlns="http://www.w3.org/2000/svg">
  <defs>
    <style type="text/css" id="current-color-scheme">
      .ColorScheme-Accent {
        color: #95ccff;
      }

      .ColorScheme-Background {
        color: #1e2022;
      }
    </style>
    <path id="folder-back" d="M 2.667,26.667 V 5.333 H 14.033 l 2,2 h 13.3 V 26.667 Z" />
  </defs>
  <use href="#folder-back" class="ColorScheme-Accent" fill="currentColor" />
  <use href="#folder-back" class="ColorScheme-Background" fill="currentColor" opacity="0.3" />
  <path d="M 2.667,26.667 V 9.333 H 14.033 l 2,-2 h 13.3 V 26.667 Z" class="ColorScheme-Accent" fill="currentColor" />
  <path
    d="m 16,23.438 q -2.281,0 -3.859,-0.702 Q 10.563,22.033 10.563,21.021 v -6.042 q 0,-0.997 1.593,-1.707 Q 13.749,12.563 16,12.563 q 2.251,0 3.844,0.71 1.593,0.71 1.593,1.707 v 6.042 q 0,1.012 -1.578,1.714 Q 18.281,23.438 16,23.438 Z m 0,-7.235 q 1.344,0 2.704,-0.385 1.359,-0.385 1.526,-0.823 Q 20.063,14.556 18.711,14.164 17.359,13.771 16,13.771 q -1.374,0 -2.696,0.385 -1.322,0.385 -1.533,0.838 0.211,0.453 1.533,0.831 Q 14.626,16.203 16,16.203 Z m 0,3.006 q 0.634,0 1.223,-0.06 0.589,-0.06 1.125,-0.174 0.536,-0.113 1.012,-0.279 0.476,-0.166 0.868,-0.378 v -1.813 q -0.393,0.211 -0.868,0.378 -0.476,0.166 -1.012,0.279 Q 17.813,17.275 17.223,17.335 16.634,17.396 16,17.396 q -0.634,0 -1.239,-0.06 -0.604,-0.06 -1.14,-0.174 -0.536,-0.113 -1.004,-0.279 -0.468,-0.166 -0.846,-0.378 v 1.813 q 0.378,0.211 0.846,0.378 0.468,0.166 1.004,0.279 0.536,0.113 1.14,0.174 0.604,0.06 1.239,0.06 z m 0,3.021 q 0.695,0 1.412,-0.106 0.717,-0.106 1.322,-0.279 0.604,-0.174 1.012,-0.393 0.408,-0.219 0.483,-0.446 v -1.48 q -0.393,0.211 -0.868,0.378 -0.476,0.166 -1.012,0.279 -0.536,0.113 -1.125,0.174 -0.589,0.06 -1.223,0.06 -0.634,0 -1.239,-0.06 -0.604,-0.06 -1.14,-0.174 -0.536,-0.113 -1.004,-0.279 -0.468,-0.166 -0.846,-0.378 v 1.495 q 0.076,0.227 0.476,0.438 0.4,0.211 1.004,0.385 0.604,0.174 1.329,0.279 0.725,0.106 1.42,0.106 z"
    class="ColorScheme-Background" fill="currentColor" />
</svg>