<svg viewBox="0 0 32 32" xmlns="http://www.w3.org/2000/svg">
  <defs>
    <style type="text/css" id="current-color-scheme">
      .ColorScheme-Accent {
        color: #95ccff;
      }

      .ColorScheme-Background {
        color: #1e2022;
      }
    </style>
    <path id="folder-back" d="M 2.667,26.667 V 5.333 H 14.033 l 2,2 h 13.3 V 26.667 Z" />
  </defs>
  <use href="#folder-back" class="ColorScheme-Accent" fill="currentColor" />
  <use href="#folder-back" class="ColorScheme-Background" fill="currentColor" opacity="0.3" />
  <path d="M 2.667,26.667 V 9.333 H 14.033 l 2,-2 h 13.3 V 26.667 Z" class="ColorScheme-Accent" fill="currentColor" />
  <path
    d="m 12.677,22.833 q -1.374,0 -2.349,-0.952 -0.974,-0.952 -0.974,-2.326 0,-1.178 0.71,-2.099 0.71,-0.921 1.858,-1.178 0.378,-1.39 1.51,-2.251 Q 14.565,13.167 16,13.167 q 1.767,0 2.998,1.231 1.231,1.231 1.231,2.998 1.042,0.121 1.729,0.899 0.687,0.778 0.687,1.82 0,1.133 -0.793,1.926 -0.793,0.793 -1.926,0.793 z m 0,-1.208 h 7.25 q 0.634,0 1.072,-0.438 0.438,-0.438 0.438,-1.072 0,-0.634 -0.438,-1.072 -0.438,-0.438 -1.072,-0.438 h -0.906 v -1.208 q 0,-1.254 -0.884,-2.137 Q 17.254,14.375 16,14.375 q -1.254,0 -2.137,0.884 -0.884,0.884 -0.884,2.137 h -0.302 q -0.876,0 -1.495,0.619 -0.619,0.619 -0.619,1.495 0,0.876 0.619,1.495 Q 11.801,21.625 12.677,21.625 Z M 16,18 Z"
    class="ColorScheme-Background" fill="currentColor" />
</svg>