<svg height="32" width="32" version="1.1" xmlns="http://www.w3.org/2000/svg" xmlns:svg="http://www.w3.org/2000/svg">
  <defs>
    <style type="text/css" id="current-color-scheme">
      .ColorScheme-Accent {
        color: #95ccff;
      }

      .ColorScheme-Background {
        color: #28292d;
      }
    </style>
    <linearGradient id="lg1" x1="48" y1="26.667" x2="48" y2="5.334" gradientUnits="userSpaceOnUse">
      <stop stop-opacity="0.15" offset="0" />
      <stop stop-opacity="0" offset="1" />
    </linearGradient>
    <path id="folder-back"
      d="M 2.667,12 v -4.444 q 0,-0.878 0.661,-1.55 0.661,-0.672 1.561,-0.672 h 8.911 l 2.222,2.222 v 4.444 z" />
    <g id="icon">
      <path
        d="m 14.779,12.56 c -0.548,0.122 -1.09,0.292 -1.599,0.547 0.012,0.449 0.041,0.879 0.099,1.316 -0.197,0.126 -0.405,0.235 -0.589,0.383 -0.187,0.144 -0.379,0.282 -0.548,0.451 -0.339,-0.224 -0.698,-0.435 -1.067,-0.621 -0.398,0.429 -0.771,0.891 -1.075,1.409 0.229,0.37 0.468,0.717 0.726,1.047 h 0.007 v 2.558 0.325 0.296 c 0.006,5.2e-5 0.012,2.84e-4 0.017,8.15e-4 l 1.948,0.188 c 0.102,0.01 0.182,0.092 0.189,0.194 l 0.06,0.86 1.7,0.121 0.117,-0.794 c 0.015,-0.103 0.103,-0.179 0.208,-0.179 h 2.056 c 0.104,0 0.192,0.076 0.208,0.179 l 0.117,0.794 1.7,-0.121 0.06,-0.86 c 0.007,-0.102 0.087,-0.184 0.189,-0.194 l 1.948,-0.188 c 0.006,-5.43e-4 0.012,-7.63e-4 0.017,-8.15e-4 v -0.254 l 8.15e-4,-2.72e-4 v -2.924 h 0.007 c 0.258,-0.329 0.497,-0.677 0.726,-1.047 -0.304,-0.518 -0.677,-0.981 -1.075,-1.409 -0.369,0.186 -0.728,0.397 -1.067,0.621 -0.17,-0.169 -0.361,-0.307 -0.548,-0.451 -0.184,-0.148 -0.392,-0.257 -0.589,-0.383 0.059,-0.437 0.088,-0.867 0.099,-1.316 -0.508,-0.256 -1.051,-0.426 -1.599,-0.547 -0.219,0.368 -0.419,0.767 -0.594,1.156 -0.207,-0.035 -0.415,-0.047 -0.623,-0.05 v -3.36e-4 c -0.001,0 -0.003,3.36e-4 -0.004,3.36e-4 -0.001,0 -0.003,-3.36e-4 -0.004,-3.36e-4 v 3.36e-4 c -0.208,0.003 -0.416,0.015 -0.623,0.05 -0.174,-0.39 -0.374,-0.788 -0.594,-1.156 z m -1.541,4.649 c 0.649,0 1.174,0.525 1.174,1.174 0,0.649 -0.526,1.174 -1.174,1.174 -0.648,0 -1.174,-0.526 -1.174,-1.174 0,-0.648 0.526,-1.174 1.174,-1.174 z m 5.524,0 c 0.648,0 1.174,0.525 1.174,1.174 0,0.649 -0.526,1.174 -1.174,1.174 -0.649,0 -1.174,-0.526 -1.174,-1.174 0,-0.648 0.526,-1.174 1.174,-1.174 z m -2.762,0.687 c 0.209,0 0.378,0.154 0.378,0.343 v 1.081 c 0,0.19 -0.17,0.343 -0.378,0.343 -0.209,0 -0.378,-0.154 -0.378,-0.343 v -1.081 c 0,-0.189 0.169,-0.343 0.378,-0.343 z" />
      <path
        d="m 19.518,20.86 -0.06,0.865 c -0.007,0.104 -0.09,0.187 -0.194,0.195 l -2.075,0.148 c -0.005,3.75e-4 -0.01,5.44e-4 -0.015,5.44e-4 -0.103,0 -0.192,-0.076 -0.207,-0.179 l -0.119,-0.807 h -1.693 l -0.119,0.807 c -0.016,0.109 -0.113,0.187 -0.222,0.179 L 12.737,21.919 c -0.104,-0.008 -0.187,-0.09 -0.194,-0.195 l -0.06,-0.865 -1.752,-0.169 c 8.01e-4,0.188 0.003,0.395 0.003,0.436 0,1.85 2.347,2.74 5.263,2.75 h 0.004 0.004 c 2.916,-0.01 5.262,-0.9 5.262,-2.75 0,-0.042 0.003,-0.247 0.003,-0.436 z" />
      <circle cx="13.35" cy="18.452" r="0.779" />
      <circle cx="18.65" cy="18.452" r="0.779" />
    </g>
  </defs>
  <use href="#folder-back" class="ColorScheme-Accent" fill="currentColor" />
  <use href="#folder-back" class="ColorScheme-Background" fill="currentColor" opacity="0.3" />
  <path
    d="M 4.889,26.667 q -0.9,0 -1.561,-0.672 -0.661,-0.672 -0.661,-1.55 v -12.445 q 0,-0.878 0.661,-1.55 0.661,-0.672 1.561,-0.672 h 8.911 l 2.222,-2.222 h 11.089 q 0.878,0 1.55,0.672 0.672,0.672 0.672,1.55 v 14.667 q 0,0.878 -0.672,1.55 -0.672,0.672 -1.55,0.672 z"
    class="ColorScheme-Accent" fill="currentColor" />
  <use href="#icon" class="ColorScheme-Background" fill="currentColor" opacity="0.8" />
  <path
    d="m 4.889,26.667 q -0.9,0 -1.561,-0.672 -0.661,-0.672 -0.661,-1.55 V 7.556 q 0,-0.878 0.661,-1.55 Q 3.989,5.334 4.889,5.334 h 8.911 l 2.222,2.222 h 11.089 q 0.878,0 1.55,0.672 0.672,0.672 0.672,1.55 V 24.445 q 0,0.878 -0.672,1.55 -0.672,0.672 -1.55,0.672 z"
    fill="url(#lg1)" />
</svg>