<svg viewBox="0 0 32 32" xmlns="http://www.w3.org/2000/svg">
  <defs>
    <style type="text/css" id="current-color-scheme">
      .ColorScheme-Accent {
        color: #95ccff;
      }

      .ColorScheme-Background {
        color: #1e2022;
      }
    </style>
    <path id="folder-back" d="M 2.667,26.667 V 5.333 H 14.033 l 2,2 h 13.3 V 26.667 Z" />
  </defs>
  <use href="#folder-back" class="ColorScheme-Accent" fill="currentColor" />
  <use href="#folder-back" class="ColorScheme-Background" fill="currentColor" opacity="0.3" />
  <path d="M 2.667,26.667 V 9.333 H 14.033 l 2,-2 h 13.3 V 26.667 Z" class="ColorScheme-Accent" fill="currentColor" />
  <path
    d="m 16,24.042 q -1.239,0 -2.341,-0.476 -1.103,-0.476 -1.926,-1.299 -0.823,-0.823 -1.299,-1.926 -0.476,-1.103 -0.476,-2.341 0,-1.254 0.491,-2.356 0.491,-1.103 1.329,-1.918 0.838,-0.816 1.956,-1.291 1.118,-0.476 2.386,-0.476 1.208,0 2.281,0.415 1.072,0.415 1.88,1.148 0.808,0.733 1.284,1.737 0.476,1.004 0.476,2.167 0,1.737 -1.057,2.666 -1.057,0.929 -2.568,0.929 h -1.118 q -0.136,0 -0.189,0.076 -0.053,0.076 -0.053,0.166 0,0.181 0.227,0.521 0.227,0.34 0.227,0.778 0,0.755 -0.415,1.118 -0.415,0.363 -1.095,0.363 z m 0,-6.042 z m -3.323,0.604 q 0.393,0 0.649,-0.257 0.257,-0.257 0.257,-0.649 0,-0.393 -0.257,-0.649 -0.257,-0.257 -0.649,-0.257 -0.393,0 -0.649,0.257 -0.257,0.257 -0.257,0.649 0,0.393 0.257,0.649 0.257,0.257 0.649,0.257 z m 1.813,-2.417 q 0.393,0 0.649,-0.257 0.257,-0.257 0.257,-0.649 0,-0.393 -0.257,-0.649 -0.257,-0.257 -0.649,-0.257 -0.393,0 -0.649,0.257 -0.257,0.257 -0.257,0.649 0,0.393 0.257,0.649 0.257,0.257 0.649,0.257 z m 3.021,0 q 0.393,0 0.649,-0.257 0.257,-0.257 0.257,-0.649 0,-0.393 -0.257,-0.649 -0.257,-0.257 -0.649,-0.257 -0.393,0 -0.649,0.257 -0.257,0.257 -0.257,0.649 0,0.393 0.257,0.649 0.257,0.257 0.649,0.257 z m 1.813,2.417 q 0.393,0 0.649,-0.257 0.257,-0.257 0.257,-0.649 0,-0.393 -0.257,-0.649 -0.257,-0.257 -0.649,-0.257 -0.393,0 -0.649,0.257 -0.257,0.257 -0.257,0.649 0,0.393 0.257,0.649 0.257,0.257 0.649,0.257 z M 16,22.833 q 0.136,0 0.219,-0.076 0.083,-0.076 0.083,-0.196 0,-0.211 -0.227,-0.498 -0.227,-0.287 -0.227,-0.861 0,-0.634 0.438,-1.012 0.438,-0.378 1.072,-0.378 h 1.057 q 0.997,0 1.707,-0.582 0.71,-0.582 0.71,-1.805 0,-1.828 -1.397,-3.043 -1.397,-1.216 -3.315,-1.216 -2.054,0 -3.504,1.405 -1.45,1.405 -1.45,3.429 0,2.009 1.412,3.421 1.412,1.412 3.421,1.412 z"
    class="ColorScheme-Background" fill="currentColor" />
</svg>