<svg viewBox="0 0 32 32" xmlns="http://www.w3.org/2000/svg">
  <defs>
    <style type="text/css" id="current-color-scheme">
      .ColorScheme-Accent {
        color: #95ccff;
      }

      .ColorScheme-Background {
        color: #1e2022;
      }
    </style>
    <path id="folder-back" d="M 2.667,26.667 V 5.333 H 14.033 l 2,2 h 13.3 V 26.667 Z" />
  </defs>
  <use href="#folder-back" class="ColorScheme-Accent" fill="currentColor" />
  <use href="#folder-back" class="ColorScheme-Background" fill="currentColor" opacity="0.3" />
  <path d="M 2.667,26.667 V 9.333 H 14.033 l 2,-2 h 13.3 V 26.667 Z" class="ColorScheme-Accent" fill="currentColor" />
  <path
    d="m 16,18 q -0.997,0 -1.707,-0.71 -0.71,-0.71 -0.71,-1.707 0,-0.997 0.71,-1.707 Q 15.003,13.167 16,13.167 q 0.997,0 1.707,0.71 0.71,0.71 0.71,1.707 0,0.997 -0.71,1.707 Q 16.997,18 16,18 Z m -4.833,4.833 v -1.692 q 0,-0.514 0.264,-0.944 0.264,-0.43 0.702,-0.657 0.936,-0.468 1.903,-0.702 Q 15.003,18.604 16,18.604 q 0.997,0 1.964,0.234 0.967,0.234 1.903,0.702 0.438,0.227 0.702,0.657 0.264,0.43 0.264,0.944 v 1.692 z M 12.375,21.625 h 7.25 v -0.483 q 0,-0.166 -0.083,-0.302 Q 19.459,20.704 19.323,20.628 18.507,20.22 17.677,20.016 16.846,19.813 16,19.813 q -0.846,0 -1.677,0.204 -0.831,0.204 -1.646,0.612 -0.136,0.076 -0.219,0.211 Q 12.375,20.976 12.375,21.142 Z M 16,16.792 q 0.498,0 0.853,-0.355 0.355,-0.355 0.355,-0.853 0,-0.498 -0.355,-0.853 Q 16.498,14.375 16,14.375 q -0.498,0 -0.853,0.355 -0.355,0.355 -0.355,0.853 0,0.498 0.355,0.853 Q 15.502,16.792 16,16.792 Z m 0,-1.208 z M 16,21.625 Z"
    class="ColorScheme-Background" fill="currentColor" />
</svg>