<svg viewBox="0 0 32 32" xmlns="http://www.w3.org/2000/svg">
  <defs>
    <style type="text/css" id="current-color-scheme">
      .ColorScheme-NegativeText {
        color: #ff5540;
      }

      .ColorScheme-Background {
        color: #1e2022;
      }
    </style>
    <path id="folder-back" d="M 2.667,26.667 V 5.333 H 14.033 l 2,2 h 13.3 V 26.667 Z" />
  </defs>
  <use href="#folder-back" class="ColorScheme-NegativeText" fill="currentColor" />
  <use href="#folder-back" class="ColorScheme-Background" fill="currentColor" opacity="0.3" />
  <path d="M 2.667,26.667 V 9.333 H 14.033 l 2,-2 h 13.3 V 26.667 Z" class="ColorScheme-NegativeText"
    fill="currentColor" />
  <path
    d="m 16,22.229 q 0.997,0 1.707,-0.71 0.71,-0.71 0.71,-1.707 v -2.417 q 0,-0.997 -0.71,-1.707 Q 16.997,14.979 16,14.979 q -0.997,0 -1.707,0.71 -0.71,0.71 -0.71,1.707 V 19.813 q 0,0.997 0.71,1.707 Q 15.003,22.229 16,22.229 Z m -1.208,-1.813 h 2.417 v -1.208 h -2.417 z m 0,-2.417 h 2.417 V 16.792 H 14.792 Z M 16,18.604 Z m 0,4.833 q -0.982,0 -1.82,-0.483 Q 13.342,22.471 12.858,21.625 h -1.692 v -1.208 h 1.269 Q 12.39,20.115 12.383,19.813 12.375,19.51 12.375,19.208 H 11.167 V 18 H 12.375 q 0,-0.302 0.008,-0.604 0.008,-0.302 0.053,-0.604 h -1.269 v -1.208 h 1.692 q 0.211,-0.347 0.476,-0.649 0.264,-0.302 0.612,-0.529 L 12.979,13.408 13.825,12.563 l 1.299,1.299 q 0.423,-0.136 0.861,-0.136 0.438,0 0.861,0.136 L 18.175,12.563 l 0.846,0.846 -0.997,0.997 q 0.347,0.227 0.627,0.521 0.279,0.295 0.491,0.657 h 1.692 v 1.208 h -1.269 q 0.045,0.302 0.053,0.604 Q 19.625,17.698 19.625,18 h 1.208 v 1.208 H 19.625 q 0,0.302 -0.008,0.604 -0.008,0.302 -0.053,0.604 h 1.269 V 21.625 H 19.142 Q 18.658,22.471 17.82,22.954 16.982,23.438 16,23.438 Z"
    class="ColorScheme-Background" fill="currentColor" />
</svg>