<svg height="32" width="32" version="1.1" xmlns="http://www.w3.org/2000/svg" xmlns:svg="http://www.w3.org/2000/svg">
  <defs>
    <style type="text/css" id="current-color-scheme">
      .ColorScheme-Accent {
        color: #95ccff;
      }

      .ColorScheme-Background {
        color: #28292d;
      }
    </style>
    <linearGradient id="lg1" x1="48" y1="26.667" x2="48" y2="5.334" gradientUnits="userSpaceOnUse">
      <stop stop-opacity="0.15" offset="0" />
      <stop stop-opacity="0" offset="1" />
    </linearGradient>
    <path id="folder-back"
      d="M 2.667,12 v -4.444 q 0,-0.878 0.661,-1.55 0.661,-0.672 1.561,-0.672 h 8.911 l 2.222,2.222 v 4.444 z" />
    <path id="icon"
      d="m 10.2,22.568 v -1.39 q 0,-0.389 0.189,-0.716 0.189,-0.326 0.521,-0.523 0.816,-0.483 1.729,-0.74 0.914,-0.257 1.911,-0.257 0.997,0 1.911,0.257 0.914,0.257 1.729,0.74 0.332,0.196 0.521,0.523 Q 18.9,20.789 18.9,21.178 v 1.39 z m 9.787,0 v -1.39 q 0,-0.634 -0.295,-1.178 -0.295,-0.544 -0.793,-0.891 0.589,0.121 1.14,0.325 0.551,0.204 1.05,0.506 0.332,0.196 0.521,0.524 0.189,0.327 0.189,0.715 v 1.39 z m -5.437,-4.35 q -0.906,0 -1.541,-0.634 -0.634,-0.634 -0.634,-1.541 0,-0.906 0.634,-1.541 0.634,-0.634 1.541,-0.634 0.906,0 1.541,0.634 0.634,0.634 0.634,1.541 0,0.906 -0.634,1.541 -0.634,0.634 -1.541,0.634 z M 19.625,16.043 q 0,0.906 -0.634,1.541 -0.634,0.634 -1.541,0.634 -0.121,0 -0.227,-0.008 -0.106,-0.008 -0.227,-0.038 0.378,-0.438 0.597,-0.974 0.219,-0.536 0.219,-1.155 0,-0.619 -0.219,-1.155 -0.219,-0.536 -0.597,-0.974 0.121,-0.03 0.227,-0.038 0.106,-0.008 0.227,-0.008 0.906,0 1.541,0.634 Q 19.625,15.137 19.625,16.043 Z m -8.337,5.437 H 17.813 v -0.302 q 0,-0.098 -0.046,-0.178 -0.046,-0.08 -0.12,-0.124 -0.71,-0.408 -1.495,-0.627 -0.785,-0.219 -1.601,-0.219 -0.816,0 -1.601,0.211 -0.785,0.211 -1.495,0.634 -0.075,0.043 -0.121,0.119 -0.046,0.077 -0.046,0.181 z m 3.266,-4.35 q 0.45,0 0.767,-0.32 0.317,-0.32 0.317,-0.77 0,-0.45 -0.32,-0.767 -0.32,-0.317 -0.77,-0.317 -0.45,0 -0.767,0.32 -0.317,0.32 -0.317,0.77 0,0.45 0.32,0.767 0.32,0.317 0.77,0.317 z m -0.003,4.35 z m 0,-5.437 z" />
  </defs>
  <use href="#folder-back" class="ColorScheme-Accent" fill="currentColor" />
  <use href="#folder-back" class="ColorScheme-Background" fill="currentColor" opacity="0.3" />
  <path
    d="M 4.889,26.667 q -0.9,0 -1.561,-0.672 -0.661,-0.672 -0.661,-1.55 v -12.445 q 0,-0.878 0.661,-1.55 0.661,-0.672 1.561,-0.672 h 8.911 l 2.222,-2.222 h 11.089 q 0.878,0 1.55,0.672 0.672,0.672 0.672,1.55 v 14.667 q 0,0.878 -0.672,1.55 -0.672,0.672 -1.55,0.672 z"
    class="ColorScheme-Accent" fill="currentColor" />
  <use href="#icon" class="ColorScheme-Background" fill="currentColor" opacity="0.8" />
  <path
    d="m 4.889,26.667 q -0.9,0 -1.561,-0.672 -0.661,-0.672 -0.661,-1.55 V 7.556 q 0,-0.878 0.661,-1.55 Q 3.989,5.334 4.889,5.334 h 8.911 l 2.222,2.222 h 11.089 q 0.878,0 1.55,0.672 0.672,0.672 0.672,1.55 V 24.445 q 0,0.878 -0.672,1.55 -0.672,0.672 -1.55,0.672 z"
    fill="url(#lg1)" />
</svg>