<svg viewBox="0 0 32 32" xmlns="http://www.w3.org/2000/svg">
  <defs>
    <style type="text/css" id="current-color-scheme">
      .ColorScheme-Accent {
        color: #95ccff;
      }

      .ColorScheme-Background {
        color: #1e2022;
      }
    </style>
    <path id="folder-back" d="M 2.667,26.667 V 5.333 H 14.033 l 2,2 h 13.3 V 26.667 Z" />
  </defs>
  <use href="#folder-back" class="ColorScheme-Accent" fill="currentColor" />
  <use href="#folder-back" class="ColorScheme-Background" fill="currentColor" opacity="0.3" />
  <path d="M 2.667,26.667 V 9.333 H 14.033 l 2,-2 h 13.3 V 26.667 Z" class="ColorScheme-Accent" fill="currentColor" />
  <path
    d="m 14.425,21.28 c 0,0 -0.458,0.267 0.327,0.357 0.951,0.109 1.437,0.093 2.485,-0.105 0,0 0.276,0.173 0.661,0.322 -2.349,1.007 -5.317,-0.058 -3.472,-0.574 z m -0.287,-1.314 c 0,0 -0.514,0.381 0.271,0.462 1.016,0.105 1.818,0.113 3.206,-0.154 0,0 0.192,0.195 0.493,0.301 -2.84,0.831 -6.003,0.065 -3.971,-0.609 z"
    class="ColorScheme-Background" fill="currentColor" />
  <path
    d="m 16.558,17.738 c 0.579,0.667 -0.152,1.266 -0.152,1.266 0,0 1.47,-0.759 0.795,-1.709 -0.63,-0.886 -1.114,-1.326 1.503,-2.844 -9.9e-5,-10e-5 -4.108,1.026 -2.146,3.286 z"
    class="ColorScheme-Background" fill="currentColor" />
  <path
    d="m 19.665,22.252 c 0,0 0.339,0.28 -0.374,0.496 -1.356,0.411 -5.644,0.534 -6.835,0.016 -0.428,-0.186 0.375,-0.445 0.627,-0.499 0.263,-0.057 0.414,-0.047 0.414,-0.047 -0.476,-0.335 -3.078,0.658 -1.321,0.944 4.789,0.777 8.731,-0.35 7.488,-0.91 z m -5.019,-3.647 c 0,0 -2.181,0.518 -0.772,0.706 0.595,0.08 1.78,0.061 2.885,-0.031 0.903,-0.076 1.809,-0.238 1.809,-0.238 0,0 -0.318,0.136 -0.548,0.294 -2.215,0.583 -6.493,0.311 -5.261,-0.284 1.041,-0.504 1.888,-0.446 1.888,-0.446 z m 3.913,2.187 c 2.251,-1.17 1.21,-2.294 0.484,-2.142 -0.178,0.037 -0.257,0.069 -0.257,0.069 0,0 0.066,-0.104 0.192,-0.148 1.438,-0.505 2.543,1.49 -0.463,2.281 -10e-5,0 0.035,-0.031 0.045,-0.059 z"
    class="ColorScheme-Background" fill="currentColor" />
  <path
    d="m 17.201,12 c 0,0 1.247,1.247 -1.183,3.165 -1.948,1.539 -0.444,2.416 -5.97e-4,3.418 -1.137,-1.026 -1.972,-1.929 -1.412,-2.77 C 15.427,14.58 17.704,13.981 17.201,12 Z"
    class="ColorScheme-Background" fill="currentColor" />
  <path
    d="m 14.867,23.962 c 2.161,0.138 5.479,-0.077 5.558,-1.099 0,0 -0.151,0.388 -1.786,0.695 -1.844,0.347 -4.12,0.307 -5.469,0.084 0,0 0.276,0.229 1.697,0.32 z"
    class="ColorScheme-Background" fill="currentColor" />
</svg>