<svg height="32" width="32" version="1.1" xmlns="http://www.w3.org/2000/svg" xmlns:svg="http://www.w3.org/2000/svg">
  <defs>
    <style type="text/css" id="current-color-scheme">
      .ColorScheme-NeutralText {
        color: #f9bd00;
      }

      .ColorScheme-Background {
        color: #28292d;
      }
    </style>
    <linearGradient id="lg1" x1="48" y1="26.667" x2="48" y2="5.334" gradientUnits="userSpaceOnUse">
      <stop stop-opacity="0.15" offset="0" />
      <stop stop-opacity="0" offset="1" />
    </linearGradient>
    <path id="folder-back"
      d="M 2.667,12 v -4.444 q 0,-0.878 0.661,-1.55 0.661,-0.672 1.561,-0.672 h 8.911 l 2.222,2.222 v 4.444 z" />
    <path id="icon"
      d="m 16.959,17.644 q 0.068,-0.121 0.098,-0.25 0.03,-0.129 0.03,-0.265 0,-0.448 -0.321,-0.767 -0.321,-0.319 -0.767,-0.319 -0.135,0 -0.264,0.038 -0.128,0.038 -0.249,0.105 z m 3.028,3.036 -0.816,-0.831 q 0.227,-0.529 0.34,-1.08 0.113,-0.551 0.113,-1.08 v -2.704 l -3.625,-1.39 -2.235,0.846 -0.846,-0.831 3.081,-1.193 4.713,1.812 v 3.459 q 0,0.76 -0.181,1.505 -0.181,0.745 -0.544,1.485 z m 0.378,3.444 -1.646,-1.646 q -0.544,0.544 -1.231,0.936 -0.687,0.393 -1.488,0.604 Q 13.931,23.489 12.609,21.707 11.288,19.925 11.288,17.689 v -2.643 l -1.178,-1.178 0.77,-0.77 10.256,10.256 z m -5.075,-5.075 z m 0.74,-2.326 z m -0.03,6.162 q 0.574,-0.196 1.065,-0.498 0.491,-0.302 0.868,-0.695 L 16.272,20.03 H 15.124 L 15.29,19.049 12.375,16.134 v 1.556 q 0,1.759 0.989,3.198 0.989,1.439 2.636,1.998 z" />
  </defs>
  <use href="#folder-back" class="ColorScheme-NeutralText" fill="currentColor" />
  <use href="#folder-back" class="ColorScheme-Background" fill="currentColor" opacity="0.3" />
  <path
    d="M 4.889,26.667 q -0.9,0 -1.561,-0.672 -0.661,-0.672 -0.661,-1.55 v -12.445 q 0,-0.878 0.661,-1.55 0.661,-0.672 1.561,-0.672 h 8.911 l 2.222,-2.222 h 11.089 q 0.878,0 1.55,0.672 0.672,0.672 0.672,1.55 v 14.667 q 0,0.878 -0.672,1.55 -0.672,0.672 -1.55,0.672 z"
    class="ColorScheme-NeutralText" fill="currentColor" />
  <use href="#icon" class="ColorScheme-Background" fill="currentColor" opacity="0.8" />
  <path
    d="m 4.889,26.667 q -0.9,0 -1.561,-0.672 -0.661,-0.672 -0.661,-1.55 V 7.556 q 0,-0.878 0.661,-1.55 Q 3.989,5.334 4.889,5.334 h 8.911 l 2.222,2.222 h 11.089 q 0.878,0 1.55,0.672 0.672,0.672 0.672,1.55 V 24.445 q 0,0.878 -0.672,1.55 -0.672,0.672 -1.55,0.672 z"
    fill="url(#lg1)" />
</svg>