<svg height="32" width="32" version="1.1" xmlns="http://www.w3.org/2000/svg" xmlns:svg="http://www.w3.org/2000/svg">
  <defs>
    <style type="text/css" id="current-color-scheme">
      .ColorScheme-Accent {
        color: #95ccff;
      }

      .ColorScheme-Background {
        color: #28292d;
      }
    </style>
    <linearGradient id="lg1" x1="48" y1="26.667" x2="48" y2="5.334" gradientUnits="userSpaceOnUse">
      <stop stop-opacity="0.15" offset="0" />
      <stop stop-opacity="0" offset="1" />
    </linearGradient>
    <path id="folder-back"
      d="M 2.667,12 v -4.444 q 0,-0.878 0.661,-1.55 0.661,-0.672 1.561,-0.672 h 8.911 l 2.222,2.222 v 4.444 z" />
    <path id="icon"
      d="m 11.189,16.119 c 0.034,-0.108 0.068,-0.25 0.096,-0.394 l 0.004,-0.026 c -0.175,0.22 -0.085,0.265 -0.1,0.415 z m 0.315,-1.33 c 0.035,0.285 -0.215,0.4 0.055,0.21 0.15,-0.33 -0.055,-0.09 -0.05,-0.21 z m 4.721,-2.51 c 0.131,-0.025 0.294,-0.046 0.458,-0.059 l 0.016,-0.001 c -0.185,0.015 -0.37,0.025 -0.55,0.05 l 0.075,0.01 z m 4.327,5.351 -0.035,0.075 c -0.058,0.412 -0.179,0.785 -0.354,1.126 l 0.009,-0.02 c 0.189,-0.342 0.321,-0.741 0.373,-1.165 l 0.002,-0.016 z m -5.471,1.191 c -0.061,-0.075 -0.113,-0.16 -0.152,-0.253 l -0.003,-0.007 c 0.054,0.168 0.126,0.314 0.218,0.445 l -0.004,-0.005 -0.06,-0.18 z m -0.31,0.015 -0.025,0.14 c 0.119,0.191 0.251,0.356 0.4,0.505 v 0 c -0.12,-0.235 -0.21,-0.33 -0.375,-0.65 z m 4.94,-1.431 c -0.011,0.275 -0.08,0.531 -0.195,0.76 l 0.005,-0.011 -0.175,0.09 c -0.14,0.27 0.015,0.175 -0.085,0.39 -0.241,0.238 -0.506,0.452 -0.79,0.638 l -0.019,0.012 c -0.1,0 0.07,-0.125 0.095,-0.17 -0.296,0.2 -0.24,0.3 -0.685,0.425 l -0.015,-0.03 c -0.187,0.064 -0.403,0.101 -0.628,0.101 -1.104,0 -1.998,-0.895 -1.998,-1.998 0,-0.008 0,-0.016 0,-0.024 v 0.001 c -0.015,0.085 -0.035,0.065 -0.06,0.1 -0.004,-0.045 -0.006,-0.097 -0.006,-0.15 0,-0.701 0.406,-1.307 0.996,-1.596 l 0.01,-0.005 c 0.22,-0.113 0.48,-0.179 0.755,-0.179 0.426,0 0.816,0.159 1.112,0.421 l -0.002,-0.002 c -0.308,-0.397 -0.786,-0.65 -1.322,-0.65 -0.013,0 -0.026,0 -0.04,4e-4 h 0.002 c -0.567,0.005 -1.06,0.317 -1.321,0.777 l -0.004,0.008 c -0.3,0.19 -0.335,0.735 -0.465,0.83 -0.027,0.135 -0.043,0.29 -0.043,0.448 0,0.89 0.493,1.664 1.22,2.066 l 0.012,0.006 c 0.135,0.095 0.04,0.105 0.06,0.175 -0.301,-0.145 -0.555,-0.34 -0.762,-0.577 l -0.002,-0.003 c 0.112,0.176 0.244,0.326 0.397,0.452 l 0.003,0.002 c -0.275,-0.09 -0.635,-0.65 -0.74,-0.675 0.465,0.83 1.89,1.46 2.63,1.15 -0.066,0.005 -0.142,0.008 -0.219,0.008 -0.338,0 -0.663,-0.054 -0.968,-0.154 l 0.022,0.006 c -0.165,-0.08 -0.385,-0.255 -0.35,-0.285 0.332,0.144 0.718,0.227 1.124,0.227 0.694,0 1.332,-0.244 1.831,-0.651 l -0.005,0.004 c 0.22,-0.175 0.465,-0.47 0.535,-0.475 -0.1,0.16 0.02,0.08 -0.06,0.22 0.22,-0.36 -0.1,-0.15 0.23,-0.62 l 0.12,0.165 c -0.045,-0.3 0.37,-0.66 0.33,-1.131 0.095,-0.15 0.1,0.15 0,0.485 0.145,-0.37 0.04,-0.425 0.075,-0.73 0.04,0.086 0.079,0.19 0.111,0.298 l 0.004,0.017 c -0.006,-0.048 -0.009,-0.105 -0.009,-0.162 0,-0.232 0.055,-0.452 0.153,-0.646 l -0.004,0.008 c -0.045,-0.025 -0.14,0.15 -0.16,-0.265 0,-0.185 0.05,-0.1 0.07,-0.14 -0.101,-0.117 -0.169,-0.264 -0.19,-0.426 l -4e-4,-0.004 c 0.04,-0.065 0.11,0.165 0.17,0.17 -0.044,-0.154 -0.08,-0.338 -0.099,-0.526 l -10e-4,-0.014 c -0.17,-0.34 -0.06,0.05 -0.2,-0.15 -0.17,-0.545 0.15,-0.125 0.17,-0.37 0.213,0.354 0.382,0.764 0.485,1.201 l 0.006,0.029 c -0.06,-0.335 -0.145,-0.63 -0.256,-0.912 l 0.011,0.032 c 0.08,0.035 -0.13,-0.62 0.105,-0.185 -0.322,-0.95 -0.971,-1.718 -1.81,-2.186 l -0.02,-0.01 c 0.09,0.085 0.21,0.195 0.165,0.21 -0.375,-0.225 -0.31,-0.24 -0.365,-0.335 -0.305,-0.125 -0.325,0.01 -0.53,0 -0.346,-0.18 -0.751,-0.342 -1.173,-0.463 l -0.048,-0.012 0.025,0.115 c -0.385,-0.125 -0.45,0.05 -0.865,0 -0.025,-0.02 0.135,-0.07 0.265,-0.09 -0.37,0.05 -0.35,-0.07 -0.715,0.015 0.078,-0.053 0.168,-0.106 0.261,-0.154 l 0.014,-0.006 c -0.3,0.02 -0.72,0.175 -0.59,0.035 -0.71,0.257 -1.326,0.593 -1.879,1.008 l 0.018,-0.013 -0.014,-0.11 c -0.225,0.27 -0.98,0.805 -1.04,1.155 l -0.066,0.015 c -0.115,0.2 -0.19,0.425 -0.285,0.63 -0.15,0.26 -0.225,0.1 -0.2,0.14 -0.214,0.434 -0.411,0.949 -0.563,1.483 l -0.016,0.068 c 0.03,0.276 0.046,0.597 0.046,0.922 0,0.161 -0.004,0.321 -0.012,0.48 l 8e-4,-0.022 c -10e-4,0.044 -0.002,0.097 -0.002,0.15 0,2.699 1.728,4.994 4.139,5.839 l 0.043,0.013 c 0.324,0.081 0.697,0.128 1.081,0.128 0.058,0 0.115,-10e-4 0.172,-0.003 l -0.008,4e-4 c -0.495,-0.14 -0.56,-0.075 -1.04,-0.245 -0.35,-0.16 -0.425,-0.35 -0.67,-0.565 l 0.1,0.175 c -0.485,-0.17 -0.285,-0.21 -0.68,-0.335 l 0.105,-0.135 c -0.208,-0.076 -0.376,-0.218 -0.482,-0.4 l -0.002,-0.004 -0.17,0.005 c -0.205,-0.25 -0.315,-0.435 -0.305,-0.58 l -0.056,0.1 c -0.065,-0.105 -0.76,-0.95 -0.4,-0.755 -0.103,-0.072 -0.188,-0.164 -0.248,-0.271 l -0.002,-0.004 0.07,-0.085 c -0.146,-0.165 -0.253,-0.367 -0.308,-0.59 l -0.002,-0.01 c 0.052,0.079 0.13,0.138 0.222,0.164 l 0.003,8e-4 c -0.44,-1.086 -0.465,-0.06 -0.8,-1.101 l 0.075,-0.01 c -0.042,-0.07 -0.085,-0.153 -0.124,-0.24 l -0.006,-0.016 0.03,-0.3 c -0.315,-0.37 -0.09,-1.55 -0.045,-2.2 0.135,-0.386 0.284,-0.712 0.457,-1.024 l -0.017,0.033 -0.105,-0.02 c 0.2,-0.355 1.17,-1.436 1.62,-1.38 0.215,-0.275 -0.045,0 -0.09,-0.07 0.48,-0.495 0.63,-0.35 0.95,-0.44 0.35,-0.2 -0.3,0.08 -0.135,-0.076 0.6,-0.15 0.425,-0.35 1.21,-0.425 0.08,0.05 -0.195,0.07 -0.26,0.13 0.288,-0.092 0.618,-0.146 0.961,-0.146 0.478,0 0.931,0.104 1.34,0.289 l -0.02,-0.008 c 0.957,0.51 1.628,1.447 1.763,2.549 l 0.002,0.016 0.04,0.01 c 0.01,0.114 0.015,0.246 0.015,0.38 0,0.345 -0.036,0.682 -0.106,1.007 l 0.006,-0.032 0.1,-0.21 z m -3.311,-4.971 -0.075,0.015 0.07,-0.005 v -0.01 z m -0.21,-0.06 c 0.1,0.02 0.225,0.035 0.21,0.06 0.115,-0.025 0.14,-0.05 -0.215,-0.06 z m 2.21,4.896 c 0.025,-0.36 -0.07,-0.25 -0.1,-0.11 0.035,0.02 0.065,0.25 0.1,0.11 z m -0.39,1.025 c 0.11,-0.15 0.192,-0.328 0.233,-0.521 l 0.002,-0.009 c -0.04,0.139 -0.096,0.26 -0.168,0.37 l 0.003,-0.005 c -0.375,0.235 -0.035,-0.135 0,-0.28 -0.4,0.505 -0.055,0.3 -0.07,0.445 z m -1.07,0.265 c -0.2,0 0.04,0.1 0.3,0.14 0.072,-0.054 0.136,-0.108 0.196,-0.166 l -8e-4,8e-4 c -0.097,0.022 -0.208,0.035 -0.322,0.035 -0.061,0 -0.121,-0.004 -0.18,-0.011 l 0.007,8e-4 z" />
  </defs>
  <use href="#folder-back" class="ColorScheme-Accent" fill="currentColor" />
  <use href="#folder-back" class="ColorScheme-Background" fill="currentColor" opacity="0.3" />
  <path
    d="M 4.889,26.667 q -0.9,0 -1.561,-0.672 -0.661,-0.672 -0.661,-1.55 v -12.445 q 0,-0.878 0.661,-1.55 0.661,-0.672 1.561,-0.672 h 8.911 l 2.222,-2.222 h 11.089 q 0.878,0 1.55,0.672 0.672,0.672 0.672,1.55 v 14.667 q 0,0.878 -0.672,1.55 -0.672,0.672 -1.55,0.672 z"
    class="ColorScheme-Accent" fill="currentColor" />
  <use href="#icon" class="ColorScheme-Background" fill="currentColor" opacity="0.8" />
  <path
    d="m 4.889,26.667 q -0.9,0 -1.561,-0.672 -0.661,-0.672 -0.661,-1.55 V 7.556 q 0,-0.878 0.661,-1.55 Q 3.989,5.334 4.889,5.334 h 8.911 l 2.222,2.222 h 11.089 q 0.878,0 1.55,0.672 0.672,0.672 0.672,1.55 V 24.445 q 0,0.878 -0.672,1.55 -0.672,0.672 -1.55,0.672 z"
    fill="url(#lg1)" />
</svg>