<svg viewBox="0 0 32 32" xmlns="http://www.w3.org/2000/svg">
  <defs>
    <style type="text/css" id="current-color-scheme">
      .ColorScheme-Accent {
        color: #95ccff;
      }

      .ColorScheme-Background {
        color: #1e2022;
      }
    </style>
    <path id="folder-back" d="M 2.667,26.667 V 5.333 H 14.033 l 2,2 h 13.3 V 26.667 Z" />
  </defs>
  <use href="#folder-back" class="ColorScheme-Accent" fill="currentColor" />
  <use href="#folder-back" class="ColorScheme-Background" fill="currentColor" opacity="0.3" />
  <path d="M 2.667,26.667 V 9.333 H 14.033 l 2,-2 h 13.3 V 26.667 Z" class="ColorScheme-Accent" fill="currentColor" />
  <path
    d="m 11.605,22.833 q -0.906,0 -1.548,-0.649 -0.642,-0.649 -0.672,-1.571 0,-0.136 0.015,-0.272 0.015,-0.136 0.045,-0.272 l 1.269,-5.075 q 0.211,-0.816 0.861,-1.322 0.649,-0.506 1.48,-0.506 h 5.891 q 0.831,0 1.48,0.506 0.649,0.506 0.861,1.322 l 1.269,5.075 q 0.03,0.136 0.053,0.279 0.023,0.143 0.023,0.279 0,0.921 -0.657,1.563 -0.657,0.642 -1.578,0.642 -0.634,0 -1.178,-0.332 -0.544,-0.332 -0.816,-0.906 L 17.979,20.719 q -0.076,-0.151 -0.227,-0.227 -0.151,-0.076 -0.317,-0.076 h -2.87 q -0.166,0 -0.317,0.076 -0.151,0.076 -0.227,0.227 l -0.423,0.876 q -0.272,0.574 -0.816,0.906 -0.544,0.332 -1.178,0.332 z M 11.65,21.625 q 0.287,0 0.521,-0.151 0.234,-0.151 0.355,-0.408 l 0.423,-0.861 q 0.227,-0.468 0.665,-0.733 0.438,-0.264 0.952,-0.264 h 2.87 q 0.514,0 0.952,0.272 0.438,0.272 0.68,0.725 l 0.423,0.861 q 0.121,0.257 0.355,0.408 0.234,0.151 0.521,0.151 0.423,0 0.725,-0.279 0.302,-0.279 0.317,-0.702 0,0.015 -0.03,-0.287 L 20.108,15.296 Q 20.003,14.889 19.685,14.632 19.368,14.375 18.945,14.375 h -5.891 q -0.423,0 -0.748,0.257 -0.325,0.257 -0.415,0.665 l -1.269,5.06 q -0.03,0.091 -0.03,0.272 0,0.423 0.31,0.71 Q 11.212,21.625 11.65,21.625 Z m 5.256,-4.229 q 0.257,0 0.43,-0.174 0.174,-0.174 0.174,-0.43 0,-0.257 -0.174,-0.43 Q 17.163,16.188 16.906,16.188 q -0.257,0 -0.43,0.174 -0.174,0.174 -0.174,0.43 0,0.257 0.174,0.43 0.174,0.174 0.43,0.174 z M 18.115,16.188 q 0.257,0 0.43,-0.174 0.174,-0.174 0.174,-0.43 0,-0.257 -0.174,-0.43 -0.174,-0.174 -0.43,-0.174 -0.257,0 -0.43,0.174 -0.174,0.174 -0.174,0.43 0,0.257 0.174,0.43 0.174,0.174 0.43,0.174 z m 0,2.417 q 0.257,0 0.43,-0.174 Q 18.719,18.257 18.719,18 q 0,-0.257 -0.174,-0.43 -0.174,-0.174 -0.43,-0.174 -0.257,0 -0.43,0.174 Q 17.51,17.743 17.51,18 q 0,0.257 0.174,0.43 0.174,0.174 0.43,0.174 z m 1.208,-1.208 q 0.257,0 0.43,-0.174 0.174,-0.174 0.174,-0.43 0,-0.257 -0.174,-0.43 -0.174,-0.174 -0.43,-0.174 -0.257,0 -0.43,0.174 -0.174,0.174 -0.174,0.43 0,0.257 0.174,0.43 0.174,0.174 0.43,0.174 z m -5.438,0.906 q 0.196,0 0.325,-0.128 0.128,-0.128 0.128,-0.325 v -0.604 h 0.604 q 0.196,0 0.325,-0.128 0.128,-0.128 0.128,-0.325 0,-0.196 -0.128,-0.325 -0.128,-0.128 -0.325,-0.128 h -0.604 v -0.604 q 0,-0.196 -0.128,-0.325 -0.128,-0.128 -0.325,-0.128 -0.196,0 -0.325,0.128 -0.128,0.128 -0.128,0.325 v 0.604 h -0.604 q -0.196,0 -0.325,0.128 -0.128,0.128 -0.128,0.325 0,0.196 0.128,0.325 0.128,0.128 0.325,0.128 h 0.604 v 0.604 q 0,0.196 0.128,0.325 0.128,0.128 0.325,0.128 z M 16,18 Z"
    class="ColorScheme-Background" fill="currentColor" />
</svg>