<svg height="32" width="32" version="1.1" xmlns="http://www.w3.org/2000/svg" xmlns:svg="http://www.w3.org/2000/svg">
  <defs>
    <style type="text/css" id="current-color-scheme">
      .ColorScheme-Accent {
        color: #95ccff;
      }

      .ColorScheme-Background {
        color: #28292d;
      }
    </style>
    <linearGradient id="lg1" x1="48" y1="26.667" x2="48" y2="5.334" gradientUnits="userSpaceOnUse">
      <stop stop-opacity="0.15" offset="0" />
      <stop stop-opacity="0" offset="1" />
    </linearGradient>
    <path id="folder-back"
      d="M 2.667,12 v -4.444 q 0,-0.878 0.661,-1.55 0.661,-0.672 1.561,-0.672 h 8.911 l 2.222,2.222 v 4.444 z" />
    <path id="icon"
      d="m 18.537,24.018 q -0.755,0 -1.284,-0.529 -0.529,-0.529 -0.529,-1.284 0,-0.136 0.06,-0.438 l -3.58,-2.19 q -0.242,0.211 -0.545,0.332 -0.303,0.121 -0.649,0.121 -0.755,0 -1.284,-0.529 Q 10.2,18.973 10.2,18.218 q 0,-0.755 0.529,-1.284 0.529,-0.529 1.284,-0.529 0.347,0 0.649,0.121 0.302,0.121 0.544,0.332 l 3.58,-2.19 q -0.03,-0.106 -0.045,-0.209 -0.015,-0.103 -0.015,-0.229 0,-0.755 0.529,-1.284 0.529,-0.529 1.284,-0.529 0.755,0 1.284,0.529 0.529,0.529 0.529,1.284 0,0.755 -0.529,1.284 -0.529,0.529 -1.284,0.529 -0.347,0 -0.649,-0.121 -0.302,-0.121 -0.544,-0.332 l -3.58,2.19 q 0.03,0.106 0.045,0.209 0.015,0.103 0.015,0.229 0,0.127 -0.015,0.229 -0.015,0.103 -0.045,0.209 l 3.58,2.19 q 0.242,-0.211 0.545,-0.332 0.303,-0.121 0.649,-0.121 0.755,0 1.284,0.529 0.529,0.529 0.529,1.284 0,0.755 -0.529,1.284 -0.529,0.529 -1.284,0.529 z m 0,-1.087 q 0.308,0 0.517,-0.208 0.208,-0.208 0.208,-0.517 0,-0.308 -0.208,-0.517 -0.208,-0.208 -0.517,-0.208 -0.308,0 -0.517,0.208 -0.208,0.208 -0.208,0.517 0,0.308 0.208,0.517 0.208,0.208 0.517,0.208 z m -6.525,-3.988 q 0.308,0 0.517,-0.208 0.208,-0.208 0.208,-0.517 0,-0.308 -0.208,-0.517 -0.208,-0.208 -0.517,-0.208 -0.308,0 -0.517,0.208 -0.208,0.208 -0.208,0.517 0,0.308 0.208,0.517 0.208,0.208 0.517,0.208 z m 6.525,-3.988 q 0.308,0 0.517,-0.208 0.208,-0.208 0.208,-0.517 0,-0.308 -0.208,-0.517 -0.208,-0.208 -0.517,-0.208 -0.308,0 -0.517,0.208 -0.208,0.208 -0.208,0.517 0,0.308 0.208,0.517 0.208,0.208 0.517,0.208 z m 0,7.25 z m -6.525,-3.988 z m 6.525,-3.988 z" />
  </defs>
  <use href="#folder-back" class="ColorScheme-Accent" fill="currentColor" />
  <use href="#folder-back" class="ColorScheme-Background" fill="currentColor" opacity="0.3" />
  <path
    d="M 4.889,26.667 q -0.9,0 -1.561,-0.672 -0.661,-0.672 -0.661,-1.55 v -12.445 q 0,-0.878 0.661,-1.55 0.661,-0.672 1.561,-0.672 h 8.911 l 2.222,-2.222 h 11.089 q 0.878,0 1.55,0.672 0.672,0.672 0.672,1.55 v 14.667 q 0,0.878 -0.672,1.55 -0.672,0.672 -1.55,0.672 z"
    class="ColorScheme-Accent" fill="currentColor" />
  <use href="#icon" class="ColorScheme-Background" fill="currentColor" opacity="0.8" />
  <path
    d="m 4.889,26.667 q -0.9,0 -1.561,-0.672 -0.661,-0.672 -0.661,-1.55 V 7.556 q 0,-0.878 0.661,-1.55 Q 3.989,5.334 4.889,5.334 h 8.911 l 2.222,2.222 h 11.089 q 0.878,0 1.55,0.672 0.672,0.672 0.672,1.55 V 24.445 q 0,0.878 -0.672,1.55 -0.672,0.672 -1.55,0.672 z"
    fill="url(#lg1)" />
</svg>