<svg viewBox="0 0 32 32" xmlns="http://www.w3.org/2000/svg">
  <defs>
    <style type="text/css" id="current-color-scheme">
      .ColorScheme-Accent {
        color: #95ccff;
      }

      .ColorScheme-Background {
        color: #1e2022;
      }
    </style>
    <path id="folder-back" d="M 2.667,26.667 V 5.333 H 14.033 l 2,2 h 13.3 V 26.667 Z" />
  </defs>
  <use href="#folder-back" class="ColorScheme-Accent" fill="currentColor" />
  <use href="#folder-back" class="ColorScheme-Background" fill="currentColor" opacity="0.3" />
  <path d="M 2.667,26.667 V 9.333 H 14.033 l 2,-2 h 13.3 V 26.667 Z" class="ColorScheme-Accent" fill="currentColor" />
  <path
    d="m 11.167,23.438 v -2.568 l 8.821,-8.791 2.538,2.538 -8.791,8.821 z M 12.375,22.229 h 0.846 l 5.936,-5.921 -0.423,-0.438 -0.438,-0.423 -5.921,5.936 z m 8.458,-7.597 -0.861,-0.861 z m -2.099,1.239 -0.438,-0.423 0.861,0.861 z m 1.495,5.453 q 0,-0.544 -0.287,-0.936 -0.287,-0.393 -0.77,-0.68 l -0.891,0.891 q 0.347,0.151 0.544,0.332 0.196,0.181 0.196,0.393 0,0.347 -0.627,0.627 -0.627,0.279 -1.79,0.279 V 23.438 q 1.571,0 2.598,-0.559 1.027,-0.559 1.027,-1.556 z m -8.715,-2.507 0.906,-0.906 q -0.317,-0.121 -0.483,-0.257 -0.166,-0.136 -0.166,-0.257 0,-0.181 0.279,-0.37 0.279,-0.189 1.14,-0.551 1.223,-0.529 1.714,-0.989 0.491,-0.461 0.491,-1.11 0,-0.861 -0.597,-1.337 -0.597,-0.476 -1.669,-0.476 -0.665,0 -1.337,0.332 -0.672,0.332 -1.155,0.876 l 0.831,0.801 q 0.378,-0.378 0.823,-0.589 0.446,-0.211 0.838,-0.211 0.514,0 0.785,0.151 0.272,0.151 0.272,0.453 0,0.211 -0.249,0.385 -0.249,0.174 -1.231,0.612 -1.239,0.574 -1.692,0.997 -0.453,0.423 -0.453,1.027 0,0.438 0.234,0.793 0.234,0.355 0.717,0.627 z"
    class="ColorScheme-Background" fill="currentColor" />
</svg>