<svg height="32" width="32" version="1.1" xmlns="http://www.w3.org/2000/svg" xmlns:svg="http://www.w3.org/2000/svg">
  <defs>
    <style type="text/css" id="current-color-scheme">
      .ColorScheme-Accent {
        color: #95ccff;
      }

      .ColorScheme-Background {
        color: #28292d;
      }
    </style>
    <linearGradient id="lg1" x1="48" y1="26.667" x2="48" y2="5.334" gradientUnits="userSpaceOnUse">
      <stop stop-opacity="0.15" offset="0" />
      <stop stop-opacity="0" offset="1" />
    </linearGradient>
    <path id="folder-back"
      d="M 2.667,12 v -4.444 q 0,-0.878 0.661,-1.55 0.661,-0.672 1.561,-0.672 h 8.911 l 2.222,2.222 v 4.444 z" />
    <path id="icon" fill-rule="evenodd" clip-rule="evenodd"
      d="m 14.261,13.143 c -0.361,0 -0.695,0.192 -0.877,0.504 l -3.246,5.565 c -0.195,0.335 -0.183,0.752 0.032,1.075 l 1.704,2.556 c 0.188,0.282 0.505,0.452 0.845,0.452 h 6.562 c 0.339,0 0.656,-0.17 0.845,-0.452 l 1.704,-2.556 c 0.215,-0.323 0.228,-0.74 0.032,-1.075 l -3.246,-5.565 c -0.182,-0.312 -0.516,-0.504 -0.877,-0.504 z m 0.624,1.015 h 2.853 l 2.961,5.075 h -2.642 z m 1.975,5.075 -0.907,-1.451 -0.846,1.451 z m -2.346,1.015 -1.184,2.03 h 5.95 l 1.353,-2.03 z m 0.831,-3.439 -2.927,5.018 -1.403,-2.105 2.97,-5.091 z" />
  </defs>
  <use href="#folder-back" class="ColorScheme-Accent" fill="currentColor" />
  <use href="#folder-back" class="ColorScheme-Background" fill="currentColor" opacity="0.3" />
  <path
    d="M 4.889,26.667 q -0.9,0 -1.561,-0.672 -0.661,-0.672 -0.661,-1.55 v -12.445 q 0,-0.878 0.661,-1.55 0.661,-0.672 1.561,-0.672 h 8.911 l 2.222,-2.222 h 11.089 q 0.878,0 1.55,0.672 0.672,0.672 0.672,1.55 v 14.667 q 0,0.878 -0.672,1.55 -0.672,0.672 -1.55,0.672 z"
    class="ColorScheme-Accent" fill="currentColor" />
  <use href="#icon" class="ColorScheme-Background" fill="currentColor" opacity="0.8" />
  <path
    d="m 4.889,26.667 q -0.9,0 -1.561,-0.672 -0.661,-0.672 -0.661,-1.55 V 7.556 q 0,-0.878 0.661,-1.55 Q 3.989,5.334 4.889,5.334 h 8.911 l 2.222,2.222 h 11.089 q 0.878,0 1.55,0.672 0.672,0.672 0.672,1.55 V 24.445 q 0,0.878 -0.672,1.55 -0.672,0.672 -1.55,0.672 z"
    fill="url(#lg1)" />
</svg>