<svg viewBox="0 0 32 32" xmlns="http://www.w3.org/2000/svg">
  <defs>
    <style type="text/css" id="current-color-scheme">
      .ColorScheme-Accent {
        color: #95ccff;
      }

      .ColorScheme-Background {
        color: #1e2022;
      }
    </style>
    <path id="folder-back" d="M 2.667,26.667 V 5.333 H 14.033 l 2,2 h 13.3 V 26.667 Z" />
  </defs>
  <use href="#folder-back" class="ColorScheme-Accent" fill="currentColor" />
  <use href="#folder-back" class="ColorScheme-Background" fill="currentColor" opacity="0.3" />
  <path d="M 2.667,26.667 V 9.333 H 14.033 l 2,-2 h 13.3 V 26.667 Z" class="ColorScheme-Accent" fill="currentColor" />
  <path
    d="m 13.281,24.042 q -0.876,0 -1.495,-0.619 -0.619,-0.619 -0.619,-1.495 v -7.854 q 0,-0.876 0.619,-1.495 0.619,-0.619 1.495,-0.619 h 7.552 v 9.063 q -0.378,0 -0.642,0.264 -0.264,0.264 -0.264,0.642 0,0.378 0.264,0.642 0.264,0.264 0.642,0.264 v 1.208 z M 12.375,20.009 q 0.211,-0.106 0.438,-0.151 0.227,-0.045 0.468,-0.045 h 0.302 V 13.167 H 13.281 q -0.378,0 -0.642,0.264 Q 12.375,13.695 12.375,14.073 Z M 14.792,19.813 H 19.625 V 13.167 H 14.792 Z M 12.375,20.009 v -6.842 z m 0.906,2.824 h 5.634 q -0.091,-0.211 -0.143,-0.43 -0.053,-0.219 -0.053,-0.476 0,-0.242 0.045,-0.468 0.045,-0.227 0.151,-0.438 H 13.281 q -0.393,0 -0.649,0.264 -0.257,0.264 -0.257,0.642 0,0.393 0.257,0.649 0.257,0.257 0.649,0.257 z"
    class="ColorScheme-Background" fill="currentColor" />
</svg>