<svg viewBox="0 0 32 32" xmlns="http://www.w3.org/2000/svg">
  <defs>
    <style type="text/css" id="current-color-scheme">
      .ColorScheme-Accent {
        color: #95ccff;
      }

      .ColorScheme-Background {
        color: #1e2022;
      }
    </style>
    <path id="folder-back" d="M 2.667,26.667 V 5.333 H 14.033 l 2,2 h 13.3 V 26.667 Z" />
  </defs>
  <use href="#folder-back" class="ColorScheme-Accent" fill="currentColor" />
  <use href="#folder-back" class="ColorScheme-Background" fill="currentColor" opacity="0.3" />
  <path d="M 2.667,26.667 V 9.333 H 14.033 l 2,-2 h 13.3 V 26.667 Z" class="ColorScheme-Accent" fill="currentColor" />
  <path
    d="m 11.167,24.042 v -8.458 h 1.813 v -1.208 q 0,-1.254 0.884,-2.137 0.884,-0.884 2.137,-0.884 1.254,0 2.137,0.884 0.884,0.884 0.884,2.137 v 1.208 h 1.813 v 8.458 z m 1.208,-1.208 h 7.25 v -6.042 h -7.25 z m 3.625,-1.813 q 0.498,0 0.853,-0.355 0.355,-0.355 0.355,-0.853 0,-0.498 -0.355,-0.853 -0.355,-0.355 -0.853,-0.355 -0.498,0 -0.853,0.355 -0.355,0.355 -0.355,0.853 0,0.498 0.355,0.853 0.355,0.355 0.853,0.355 z m -1.813,-5.438 h 3.625 v -1.208 q 0,-0.755 -0.529,-1.284 -0.529,-0.529 -1.284,-0.529 -0.755,0 -1.284,0.529 -0.529,0.529 -0.529,1.284 z m -1.813,7.25 v -6.042 z"
    class="ColorScheme-Background" fill="currentColor" />
</svg>