<svg viewBox="0 0 32 32" xmlns="http://www.w3.org/2000/svg">
  <defs>
    <style type="text/css" id="current-color-scheme">
      .ColorScheme-Accent {
        color: #95ccff;
      }

      .ColorScheme-Background {
        color: #1e2022;
      }
    </style>
    <path id="folder-back" d="M 2.667,26.667 V 5.333 H 14.033 l 2,2 h 13.3 V 26.667 Z" />
  </defs>
  <use href="#folder-back" class="ColorScheme-Accent" fill="currentColor" />
  <use href="#folder-back" class="ColorScheme-Background" fill="currentColor" opacity="0.3" />
  <path d="M 2.667,26.667 V 9.333 H 14.033 l 2,-2 h 13.3 V 26.667 Z" class="ColorScheme-Accent" fill="currentColor" />
  <path
    d="m 14.758,12 v 2.25 H 13.563 l 2.32,2.625 2.321,-2.625 h -1.196 V 12 Z m 0.832,5.25 c -0.065,0 -0.105,0.111 -0.105,0.246 v 0.855 C 15.223,18.411 14.977,18.518 14.758,18.656 L 14.148,18.047 c -0.096,-0.096 -0.2,-0.14 -0.246,-0.094 l -0.574,0.574 c -0.046,0.046 -0.002,0.15 0.094,0.246 l 0.609,0.609 C 13.893,19.602 13.786,19.848 13.726,20.109 H 12.871 c -0.135,0 -0.246,0.041 -0.246,0.105 v 0.821 c 0,0.065 0.111,0.105 0.246,0.105 h 0.855 c 0.059,0.261 0.166,0.507 0.305,0.727 l -0.609,0.609 c -0.096,0.096 -0.14,0.2 -0.094,0.246 l 0.574,0.574 c 0.046,0.046 0.15,0.002 0.246,-0.094 l 0.609,-0.609 c 0.22,0.139 0.465,0.245 0.727,0.305 V 23.754 c 0,0.135 0.041,0.246 0.105,0.246 h 0.82 c 0.065,0 0.105,-0.111 0.105,-0.246 v -0.855 c 0.261,-0.059 0.507,-0.166 0.727,-0.305 l 0.609,0.609 c 0.096,0.096 0.2,0.14 0.246,0.094 l 0.574,-0.574 c 0.046,-0.046 0.002,-0.15 -0.094,-0.246 L 17.969,21.867 C 18.108,21.648 18.214,21.402 18.274,21.141 H 19.129 c 0.135,0 0.246,-0.041 0.246,-0.105 v -0.821 c 0,-0.065 -0.111,-0.105 -0.246,-0.105 h -0.855 c -0.059,-0.261 -0.166,-0.507 -0.305,-0.727 l 0.609,-0.609 c 0.096,-0.096 0.14,-0.2 0.094,-0.246 l -0.575,-0.574 c -0.046,-0.046 -0.15,-0.002 -0.246,0.094 L 17.242,18.656 C 17.022,18.518 16.777,18.411 16.515,18.351 V 17.496 c 3.75e-4,-0.135 -0.041,-0.246 -0.105,-0.246 h -0.821 z M 16,19.582 c 0.573,0 1.043,0.47 1.043,1.043 0,0.573 -0.47,1.043 -1.043,1.043 -0.573,0 -1.043,-0.47 -1.043,-1.043 0,-0.573 0.47,-1.043 1.043,-1.043 z"
    class="ColorScheme-Background" fill="currentColor" />
</svg>