<svg viewBox="0 0 32 32" xmlns="http://www.w3.org/2000/svg">
  <defs>
    <style type="text/css" id="current-color-scheme">
      .ColorScheme-Accent {
        color: #95ccff;
      }

      .ColorScheme-Background {
        color: #1e2022;
      }
    </style>
    <path id="folder-back" d="M 2.667,26.667 V 5.333 H 14.033 l 2,2 h 13.3 V 26.667 Z" />
  </defs>
  <use href="#folder-back" class="ColorScheme-Accent" fill="currentColor" />
  <use href="#folder-back" class="ColorScheme-Background" fill="currentColor" opacity="0.3" />
  <path d="M 2.667,26.667 V 9.333 H 14.033 l 2,-2 h 13.3 V 26.667 Z" class="ColorScheme-Accent" fill="currentColor" />
  <path
    d="m 11.771,23.438 q -0.498,0 -0.853,-0.355 -0.355,-0.355 -0.355,-0.853 0,-0.498 0.355,-0.853 0.355,-0.355 0.853,-0.355 0.498,0 0.853,0.355 0.355,0.355 0.355,0.853 0,0.498 -0.355,0.853 -0.355,0.355 -0.853,0.355 z m 7.25,0 q 0,-1.767 -0.665,-3.3 -0.665,-1.533 -1.813,-2.681 -1.148,-1.148 -2.681,-1.813 -1.533,-0.665 -3.3,-0.665 v -1.813 q 2.145,0 4.003,0.801 1.858,0.801 3.263,2.205 1.405,1.405 2.205,3.263 0.801,1.858 0.801,4.003 z m -3.625,0 q 0,-1.012 -0.378,-1.88 -0.378,-0.868 -1.042,-1.533 -0.665,-0.665 -1.533,-1.042 -0.868,-0.378 -1.88,-0.378 v -1.813 q 1.39,0 2.59,0.521 1.201,0.521 2.107,1.427 0.906,0.906 1.427,2.107 0.521,1.201 0.521,2.59 z"
    class="ColorScheme-Background" fill="currentColor" />
</svg>