<svg viewBox="0 0 32 32" xmlns="http://www.w3.org/2000/svg">
  <defs>
    <style type="text/css" id="current-color-scheme">
      .ColorScheme-Accent {
        color: #95ccff;
      }

      .ColorScheme-Background {
        color: #1e2022;
      }
    </style>
    <path id="folder-back" d="M 2.667,26.667 V 5.333 H 14.033 l 2,2 h 13.3 V 26.667 Z" />
  </defs>
  <use href="#folder-back" class="ColorScheme-Accent" fill="currentColor" />
  <use href="#folder-back" class="ColorScheme-Background" fill="currentColor" opacity="0.3" />
  <path d="M 2.667,26.667 V 9.333 H 14.033 l 2,-2 h 13.3 V 26.667 Z" class="ColorScheme-Accent" fill="currentColor" />
  <path
    d="m 26.4,10.266 v -2.933 h 2.933 v 2.933 z m -2.933,2.933 v -2.933 h 2.933 v 2.933 z m 2.933,2.933 v -2.933 h 2.933 v 2.933 z m -2.933,2.933 v -2.933 h 2.933 v 2.933 z m 2.933,2.933 v -2.933 h 2.933 v 2.933 z m -2.933,2.933 v -2.933 h 2.933 v 2.933 z m 2.933,1.736 v -1.736 h 2.933 v 1.736 z"
    class="ColorScheme-Background" fill="currentColor" />
  <path
    d="m 14.139,17.351 q 0.076,-0.121 0.106,-0.264 0.03,-0.143 0.03,-0.295 0,-0.498 -0.355,-0.853 -0.355,-0.355 -0.853,-0.355 -0.151,0 -0.295,0.03 -0.143,0.03 -0.264,0.106 z m 3.066,3.096 -0.906,-0.936 Q 16.481,19.027 16.586,18.506 16.692,17.985 16.692,17.456 v -2.855 l -3.625,-1.359 -2.205,0.831 -0.936,-0.936 3.142,-1.178 4.833,1.813 v 3.685 q 0,0.77 -0.174,1.526 -0.174,0.755 -0.521,1.465 z M 17.78,24.404 15.816,22.441 Q 15.242,23.03 14.54,23.43 13.837,23.83 13.067,24.042 10.968,23.513 9.601,21.633 8.234,19.752 8.234,17.456 V 14.858 L 6.663,13.288 7.509,12.442 18.625,23.558 Z M 12.312,18.936 Z M 13.173,16.369 Z M 13.067,22.773 q 0.529,-0.166 1.012,-0.468 0.483,-0.302 0.891,-0.71 L 13.188,19.813 H 12.161 l 0.151,-0.876 -2.87,-2.87 v 1.39 q 0,1.828 1.027,3.323 1.027,1.495 2.598,1.994 z"
    class="ColorScheme-Background" fill="currentColor" />
</svg>