<svg height="32" width="32" version="1.1" xmlns="http://www.w3.org/2000/svg" xmlns:svg="http://www.w3.org/2000/svg">
  <defs>
    <style type="text/css" id="current-color-scheme">
      .ColorScheme-Accent {
        color: #95ccff;
      }

      .ColorScheme-Background {
        color: #28292d;
      }
    </style>
    <linearGradient id="lg1" x1="48" y1="26.667" x2="48" y2="5.334" gradientUnits="userSpaceOnUse">
      <stop stop-opacity="0.15" offset="0" />
      <stop stop-opacity="0" offset="1" />
    </linearGradient>
    <path id="folder-back"
      d="M 2.667,12 v -4.444 q 0,-0.878 0.661,-1.55 0.661,-0.672 1.561,-0.672 h 8.911 l 2.222,2.222 v 4.444 z" />
    <path id="icon"
      d="m 9.52,21.481 q 0.136,-1.586 1.035,-2.885 0.899,-1.299 2.288,-2.084 L 11.695,14.533 q -0.076,-0.136 -0.036,-0.275 0.04,-0.139 0.172,-0.208 0.121,-0.076 0.272,-0.045 0.151,0.03 0.227,0.166 l 1.163,2.024 q 1.208,-0.514 2.515,-0.514 1.307,0 2.515,0.514 l 1.148,-2.024 q 0.076,-0.136 0.227,-0.166 0.151,-0.03 0.272,0.045 0.132,0.069 0.172,0.208 0.04,0.139 -0.036,0.275 l -1.148,1.979 q 1.39,0.785 2.288,2.084 0.899,1.299 1.035,2.885 z m 3.578,-0.801 q 0.304,0 0.515,-0.21 0.211,-0.21 0.211,-0.514 0,-0.304 -0.21,-0.515 -0.21,-0.211 -0.514,-0.211 -0.304,0 -0.515,0.21 -0.211,0.21 -0.211,0.514 0,0.304 0.21,0.515 0.21,0.211 0.514,0.211 z m 5.8,0 q 0.304,0 0.515,-0.21 0.211,-0.21 0.211,-0.514 0,-0.304 -0.21,-0.515 -0.21,-0.211 -0.514,-0.211 -0.304,0 -0.515,0.21 -0.211,0.21 -0.211,0.514 0,0.304 0.21,0.515 0.21,0.211 0.514,0.211 z" />
  </defs>
  <use href="#folder-back" class="ColorScheme-Accent" fill="currentColor" />
  <use href="#folder-back" class="ColorScheme-Background" fill="currentColor" opacity="0.3" />
  <path
    d="M 4.889,26.667 q -0.9,0 -1.561,-0.672 -0.661,-0.672 -0.661,-1.55 v -12.445 q 0,-0.878 0.661,-1.55 0.661,-0.672 1.561,-0.672 h 8.911 l 2.222,-2.222 h 11.089 q 0.878,0 1.55,0.672 0.672,0.672 0.672,1.55 v 14.667 q 0,0.878 -0.672,1.55 -0.672,0.672 -1.55,0.672 z"
    class="ColorScheme-Accent" fill="currentColor" />
  <use href="#icon" class="ColorScheme-Background" fill="currentColor" opacity="0.8" />
  <path
    d="m 4.889,26.667 q -0.9,0 -1.561,-0.672 -0.661,-0.672 -0.661,-1.55 V 7.556 q 0,-0.878 0.661,-1.55 Q 3.989,5.334 4.889,5.334 h 8.911 l 2.222,2.222 h 11.089 q 0.878,0 1.55,0.672 0.672,0.672 0.672,1.55 V 24.445 q 0,0.878 -0.672,1.55 -0.672,0.672 -1.55,0.672 z"
    fill="url(#lg1)" />
</svg>