<svg height="32" width="32" version="1.1" xmlns="http://www.w3.org/2000/svg" xmlns:svg="http://www.w3.org/2000/svg">
  <defs>
    <style type="text/css" id="current-color-scheme">
      .ColorScheme-Accent {
        color: #95ccff;
      }

      .ColorScheme-Background {
        color: #28292d;
      }
    </style>
    <linearGradient id="lg1" x1="48" y1="26.667" x2="48" y2="5.334" gradientUnits="userSpaceOnUse">
      <stop stop-opacity="0.15" offset="0" />
      <stop stop-opacity="0" offset="1" />
    </linearGradient>
    <path id="folder-back"
      d="M 2.667,12 v -4.444 q 0,-0.878 0.661,-1.55 0.661,-0.672 1.561,-0.672 h 8.911 l 2.222,2.222 v 4.444 z" />
    <path id="icon"
      d="m 18.537,16.043 v -1.813 h -5.075 v 1.813 H 12.375 v -2.9 h 7.25 v 2.9 z m -7.25,1.088 h 9.44 z m 8.153,1.45 q 0.23,0 0.388,-0.155 0.159,-0.155 0.159,-0.385 0,-0.23 -0.155,-0.388 -0.155,-0.159 -0.385,-0.159 -0.23,0 -0.388,0.155 -0.159,0.155 -0.159,0.385 0,0.23 0.155,0.388 0.155,0.159 0.385,0.159 z m -0.903,3.625 v -2.175 h -5.075 v 2.175 z m 1.088,1.087 H 12.375 V 21.118 H 10.2 v -3.625 q 0,-0.604 0.423,-1.027 0.423,-0.423 1.027,-0.423 h 8.7 q 0.604,0 1.027,0.423 0.423,0.423 0.423,1.027 v 3.625 h -2.175 z m 1.103,-3.262 v -2.321 q 0,-0.247 -0.181,-0.413 -0.181,-0.166 -0.423,-0.166 h -8.262 q -0.244,0 -0.409,0.167 -0.165,0.167 -0.165,0.413 v 2.32 h 1.088 v -1.088 h 7.25 v 1.088 z" />
  </defs>
  <use href="#folder-back" class="ColorScheme-Accent" fill="currentColor" />
  <use href="#folder-back" class="ColorScheme-Background" fill="currentColor" opacity="0.3" />
  <path
    d="M 4.889,26.667 q -0.9,0 -1.561,-0.672 -0.661,-0.672 -0.661,-1.55 v -12.445 q 0,-0.878 0.661,-1.55 0.661,-0.672 1.561,-0.672 h 8.911 l 2.222,-2.222 h 11.089 q 0.878,0 1.55,0.672 0.672,0.672 0.672,1.55 v 14.667 q 0,0.878 -0.672,1.55 -0.672,0.672 -1.55,0.672 z"
    class="ColorScheme-Accent" fill="currentColor" />
  <use href="#icon" class="ColorScheme-Background" fill="currentColor" opacity="0.8" />
  <path
    d="m 4.889,26.667 q -0.9,0 -1.561,-0.672 -0.661,-0.672 -0.661,-1.55 V 7.556 q 0,-0.878 0.661,-1.55 Q 3.989,5.334 4.889,5.334 h 8.911 l 2.222,2.222 h 11.089 q 0.878,0 1.55,0.672 0.672,0.672 0.672,1.55 V 24.445 q 0,0.878 -0.672,1.55 -0.672,0.672 -1.55,0.672 z"
    fill="url(#lg1)" />
</svg>