<svg height="32" width="32" version="1.1" xmlns="http://www.w3.org/2000/svg" xmlns:svg="http://www.w3.org/2000/svg">
  <defs>
    <style type="text/css" id="current-color-scheme">
      .ColorScheme-Accent {
        color: #95ccff;
      }

      .ColorScheme-Background {
        color: #28292d;
      }
    </style>
    <linearGradient id="lg1" x1="48" y1="26.667" x2="48" y2="5.334" gradientUnits="userSpaceOnUse">
      <stop stop-opacity="0.15" offset="0" />
      <stop stop-opacity="0" offset="1" />
    </linearGradient>
    <path id="folder-back"
      d="M 2.667,12 v -4.444 q 0,-0.878 0.661,-1.55 0.661,-0.672 1.561,-0.672 h 8.911 l 2.222,2.222 v 4.444 z" />
    <path id="icon"
      d="m 16,18.218 q -0.906,0 -1.541,-0.634 -0.634,-0.634 -0.634,-1.541 0,-0.906 0.634,-1.541 0.634,-0.634 1.541,-0.634 0.906,0 1.541,0.634 0.634,0.634 0.634,1.541 0,0.906 -0.634,1.541 -0.634,0.634 -1.541,0.634 z M 11.65,22.568 v -1.45 q 0,-0.347 0.189,-0.657 0.189,-0.31 0.521,-0.521 0.831,-0.483 1.756,-0.74 0.926,-0.257 1.88,-0.257 0.955,0 1.884,0.257 0.929,0.257 1.76,0.74 0.332,0.196 0.521,0.514 0.189,0.317 0.189,0.665 v 1.45 z m 1.088,-1.088 h 6.525 v -0.363 q 0,-0.078 -0.046,-0.142 -0.046,-0.064 -0.12,-0.1 -0.695,-0.423 -1.48,-0.634 -0.785,-0.211 -1.616,-0.211 -0.831,0 -1.616,0.211 -0.785,0.211 -1.48,0.634 -0.076,0.06 -0.121,0.117 -0.045,0.056 -0.045,0.125 z m 3.266,-4.35 q 0.45,0 0.767,-0.32 0.317,-0.32 0.317,-0.77 0,-0.45 -0.32,-0.767 -0.32,-0.317 -0.77,-0.317 -0.45,0 -0.767,0.32 -0.317,0.32 -0.317,0.77 0,0.45 0.32,0.767 0.32,0.317 0.77,0.317 z m -0.003,-1.088 z m 0,5.437 z" />
  </defs>
  <use href="#folder-back" class="ColorScheme-Accent" fill="currentColor" />
  <use href="#folder-back" class="ColorScheme-Background" fill="currentColor" opacity="0.3" />
  <path
    d="M 4.889,26.667 q -0.9,0 -1.561,-0.672 -0.661,-0.672 -0.661,-1.55 v -12.445 q 0,-0.878 0.661,-1.55 0.661,-0.672 1.561,-0.672 h 8.911 l 2.222,-2.222 h 11.089 q 0.878,0 1.55,0.672 0.672,0.672 0.672,1.55 v 14.667 q 0,0.878 -0.672,1.55 -0.672,0.672 -1.55,0.672 z"
    class="ColorScheme-Accent" fill="currentColor" />
  <use href="#icon" class="ColorScheme-Background" fill="currentColor" opacity="0.8" />
  <path
    d="m 4.889,26.667 q -0.9,0 -1.561,-0.672 -0.661,-0.672 -0.661,-1.55 V 7.556 q 0,-0.878 0.661,-1.55 Q 3.989,5.334 4.889,5.334 h 8.911 l 2.222,2.222 h 11.089 q 0.878,0 1.55,0.672 0.672,0.672 0.672,1.55 V 24.445 q 0,0.878 -0.672,1.55 -0.672,0.672 -1.55,0.672 z"
    fill="url(#lg1)" />
</svg>