<svg height="32" width="32" version="1.1" xmlns="http://www.w3.org/2000/svg" xmlns:svg="http://www.w3.org/2000/svg">
  <defs>
    <style type="text/css" id="current-color-scheme">
      .ColorScheme-Accent {
        color: #95ccff;
      }

      .ColorScheme-Background {
        color: #28292d;
      }
    </style>
    <linearGradient id="lg1" x1="48" y1="26.667" x2="48" y2="5.334" gradientUnits="userSpaceOnUse">
      <stop stop-opacity="0.15" offset="0" />
      <stop stop-opacity="0" offset="1" />
    </linearGradient>
    <path id="folder-back"
      d="M 2.667,12 v -4.444 q 0,-0.878 0.661,-1.55 0.661,-0.672 1.561,-0.672 h 8.911 l 2.222,2.222 v 4.444 z" />
    <path id="icon"
      d="m 19.718,20.507 c -0.49,0.48 -1.162,0.776 -1.903,0.776 -0.738,0 -1.407,-0.294 -1.898,-0.77 l 8e-4,8e-4 c -0.223,-0.224 -0.4,-0.495 -0.513,-0.796 l -0.005,-0.016 c -0.08,-0.215 -0.126,-0.465 -0.126,-0.725 0,-0.38 0.099,-0.738 0.273,-1.047 l -0.006,0.011 c 0.152,-0.27 0.344,-0.497 0.573,-0.683 l 0.004,-0.003 c 0.463,-0.37 1.057,-0.593 1.703,-0.593 0.643,0 1.235,0.221 1.703,0.592 l -0.006,-0.004 c 0.233,0.188 0.425,0.415 0.57,0.672 l 0.006,0.012 c 0.139,0.246 0.233,0.537 0.261,0.845 l 8e-4,0.008 c 0.005,0.055 0.008,0.118 0.008,0.182 0,0.26 -0.047,0.509 -0.132,0.739 l 0.005,-0.015 c -0.119,0.318 -0.295,0.589 -0.518,0.814 v 0 z m -6.051,-0.871 c 0.016,0.256 0.062,0.494 0.134,0.721 l -0.006,-0.021 c 0.173,0.536 0.446,0.997 0.8,1.383 l -0.002,-0.003 c 0.383,0.42 0.847,0.758 1.369,0.991 l 0.026,0.01 c 0.537,0.24 1.164,0.38 1.824,0.38 0.665,0 1.297,-0.142 1.867,-0.398 l -0.029,0.012 c 0.547,-0.246 1.011,-0.585 1.391,-1.002 l 0.003,-0.003 c 0.351,-0.384 0.624,-0.846 0.789,-1.356 l 0.007,-0.026 c 0.102,-0.312 0.16,-0.672 0.16,-1.045 0,-0.174 -0.013,-0.345 -0.037,-0.513 l 0.002,0.019 c -0.076,-0.523 -0.256,-0.993 -0.517,-1.405 l 0.009,0.014 c -0.252,-0.4 -0.56,-0.739 -0.918,-1.016 l -0.009,-0.007 h 0.001 l -3.763,-2.889 c -0.131,-0.089 -0.292,-0.141 -0.465,-0.141 -0.174,0 -0.336,0.053 -0.469,0.144 l 0.003,-0.002 c -0.135,0.073 -0.225,0.213 -0.225,0.374 0,0.135 0.064,0.256 0.163,0.334 l 8e-4,8e-4 -4e-4,4e-4 1.564,1.273 -4.776,0.005 c -0.008,-4e-4 -0.017,-4e-4 -0.026,-4e-4 -0.379,0 -0.702,0.243 -0.821,0.581 l -0.002,0.006 c -0.077,0.333 0.19,0.609 0.601,0.611 v 8e-4 l 2.417,-0.005 -4.331,3.324 c -0.243,0.152 -0.403,0.418 -0.403,0.721 0,0.161 0.045,0.312 0.123,0.44 l -0.002,-0.004 c 0.157,0.156 0.374,0.253 0.613,0.253 0.238,0 0.454,-0.096 0.612,-0.251 v 0 l 2.354,-1.926 c -0.017,0.123 -0.029,0.266 -0.032,0.413 v 0.004 z m 2.582,-0.809 c 0.028,-0.405 0.221,-0.761 0.513,-1.002 l 0.002,-0.002 c 0.299,-0.246 0.685,-0.395 1.107,-0.395 0.422,0 0.808,0.149 1.11,0.398 l -0.003,-0.002 c 0.294,0.243 0.487,0.598 0.514,0.999 l 4e-4,0.004 c 10e-4,0.02 0.002,0.043 0.002,0.067 0,0.398 -0.167,0.757 -0.434,1.01 l -8e-4,4e-4 c -0.31,0.291 -0.729,0.469 -1.189,0.469 -0.46,0 -0.879,-0.179 -1.189,-0.47 l 8.1e-4,8e-4 c -0.268,-0.254 -0.435,-0.613 -0.435,-1.011 0,-0.023 4e-4,-0.046 0.002,-0.07 v 0.003 z" />
  </defs>
  <use href="#folder-back" class="ColorScheme-Accent" fill="currentColor" />
  <use href="#folder-back" class="ColorScheme-Background" fill="currentColor" opacity="0.3" />
  <path
    d="M 4.889,26.667 q -0.9,0 -1.561,-0.672 -0.661,-0.672 -0.661,-1.55 v -12.445 q 0,-0.878 0.661,-1.55 0.661,-0.672 1.561,-0.672 h 8.911 l 2.222,-2.222 h 11.089 q 0.878,0 1.55,0.672 0.672,0.672 0.672,1.55 v 14.667 q 0,0.878 -0.672,1.55 -0.672,0.672 -1.55,0.672 z"
    class="ColorScheme-Accent" fill="currentColor" />
  <use href="#icon" class="ColorScheme-Background" fill="currentColor" opacity="0.8" />
  <path
    d="m 4.889,26.667 q -0.9,0 -1.561,-0.672 -0.661,-0.672 -0.661,-1.55 V 7.556 q 0,-0.878 0.661,-1.55 Q 3.989,5.334 4.889,5.334 h 8.911 l 2.222,2.222 h 11.089 q 0.878,0 1.55,0.672 0.672,0.672 0.672,1.55 V 24.445 q 0,0.878 -0.672,1.55 -0.672,0.672 -1.55,0.672 z"
    fill="url(#lg1)" />
</svg>