<svg viewBox="0 0 32 32" xmlns="http://www.w3.org/2000/svg">
  <defs>
    <style type="text/css" id="current-color-scheme">
      .ColorScheme-Accent {
        color: #95ccff;
      }

      .ColorScheme-Background {
        color: #1e2022;
      }
    </style>
    <path id="folder-back" d="M 2.667,26.667 V 5.333 H 14.033 l 2,2 h 13.3 V 26.667 Z" />
  </defs>
  <use href="#folder-back" class="ColorScheme-Accent" fill="currentColor" />
  <use href="#folder-back" class="ColorScheme-Background" fill="currentColor" opacity="0.3" />
  <path d="M 2.667,26.667 V 9.333 H 14.033 l 2,-2 h 13.3 V 26.667 Z" class="ColorScheme-Accent" fill="currentColor" />
  <path
    d="m 17.139,12.32 c -0.238,0.469 -0.419,0.949 -0.57,1.406 a 4.806,3.327 0 0 0 -0.57,-0.027 4.806,3.327 0 0 0 -0.569,0.029 C 15.278,13.273 15.098,12.796 14.862,12.329 a 6.654,6.654 0 0 0 -1.792,0.582 c 0.05,0.478 0.144,0.936 0.249,1.366 a 4.806,3.327 0 0 0 -1.176,0.786 C 11.826,14.825 11.485,14.586 11.115,14.371 A 6.654,6.654 0 0 0 10,16.01 c 0.268,0.288 0.548,0.551 0.823,0.792 v 3.397 l 2.15,0.186 0.074,0.975 1.757,0.093 0.11,-0.767 h 2.169 l 0.11,0.767 1.757,-0.093 0.074,-0.975 2.15,-0.186 V 16.803 C 21.448,16.561 21.731,16.296 22,16.006 a 6.654,6.654 0 0 0 -1.109,-1.64 c -0.372,0.215 -0.713,0.454 -1.031,0.692 a 4.806,3.327 0 0 0 -1.18,-0.786 c 0.105,-0.431 0.199,-0.891 0.249,-1.37 a 6.654,6.654 0 0 0 -1.79,-0.582 z m -3.913,4.705 a 1.294,1.294 0 0 1 1.294,1.294 1.294,1.294 0 0 1 -1.294,1.294 1.294,1.294 0 0 1 -1.294,-1.294 1.294,1.294 0 0 1 1.294,-1.294 z m 5.545,0 a 1.294,1.294 0 0 1 1.294,1.294 1.294,1.294 0 0 1 -1.294,1.294 1.294,1.294 0 0 1 -1.294,-1.294 1.294,1.294 0 0 1 1.294,-1.294 z m -5.36,0.554 a 0.739,0.739 0 0 0 -0.739,0.739 0.739,0.739 0 0 0 0.739,0.739 0.739,0.739 0 0 0 0.739,-0.739 0.739,0.739 0 0 0 -0.739,-0.739 z m 5.175,0 a 0.739,0.739 0 0 0 -0.739,0.739 0.739,0.739 0 0 0 0.739,0.739 0.739,0.739 0 0 0 0.739,-0.739 0.739,0.739 0 0 0 -0.739,-0.739 z m -2.588,0.185 c 0.205,0 0.37,0.165 0.37,0.37 v 1.109 c 0,0.205 -0.165,0.37 -0.37,0.37 -0.205,0 -0.37,-0.165 -0.37,-0.37 v -1.109 c 0,-0.205 0.165,-0.37 0.37,-0.37 z m -5.173,2.805 c 0.021,1.094 0.34,3.109 5.173,3.109 4.833,0 5.152,-2.015 5.173,-3.109 l -1.803,0.156 -0.074,0.985 -2.42,0.129 -0.112,-0.785 h -1.527 l -0.112,0.785 -2.42,-0.129 -0.075,-0.985 z"
    class="ColorScheme-Background" fill="currentColor" />
</svg>