<svg viewBox="0 0 32 32" xmlns="http://www.w3.org/2000/svg">
  <defs>
    <style type="text/css" id="current-color-scheme">
      .ColorScheme-Accent {
        color: #95ccff;
      }

      .ColorScheme-Background {
        color: #1e2022;
      }
    </style>
    <path id="folder-back" d="M 2.667,26.667 V 5.333 H 14.033 l 2,2 h 13.3 V 26.667 Z" />
  </defs>
  <use href="#folder-back" class="ColorScheme-Accent" fill="currentColor" />
  <use href="#folder-back" class="ColorScheme-Background" fill="currentColor" opacity="0.3" />
  <path d="M 2.667,26.667 V 9.333 H 14.033 l 2,-2 h 13.3 V 26.667 Z" class="ColorScheme-Accent" fill="currentColor" />
  <path
    d="m 15.94,24.042 2.749,-7.25 h 1.269 l 2.749,7.25 H 21.438 l -0.649,-1.843 h -2.93 l -0.649,1.843 z m -4.773,-1.813 -0.846,-0.846 3.051,-3.051 q -0.529,-0.529 -0.959,-1.208 -0.43,-0.68 -0.793,-1.541 h 1.269 q 0.302,0.589 0.604,1.027 0.302,0.438 0.725,0.876 0.498,-0.498 1.035,-1.397 0.536,-0.899 0.808,-1.714 H 9.354 v -1.208 h 4.229 v -1.208 h 1.208 v 1.208 h 4.229 V 14.375 H 17.269 q -0.317,1.088 -0.952,2.235 -0.634,1.148 -1.254,1.752 l 1.45,1.48 -0.453,1.239 -1.843,-1.888 z m 7.069,-1.088 h 2.175 l -1.088,-3.081 z"
    class="ColorScheme-Background" fill="currentColor" />
</svg>