<svg height="32" width="32" version="1.1" xmlns="http://www.w3.org/2000/svg" xmlns:svg="http://www.w3.org/2000/svg">
  <defs>
    <style type="text/css" id="current-color-scheme">
      .ColorScheme-Accent {
        color: #95ccff;
      }

      .ColorScheme-Background {
        color: #28292d;
      }
    </style>
    <linearGradient id="lg1" x1="48" y1="26.667" x2="48" y2="5.334" gradientUnits="userSpaceOnUse">
      <stop stop-opacity="0.15" offset="0" />
      <stop stop-opacity="0" offset="1" />
    </linearGradient>
    <path id="folder-back"
      d="M 2.667,12 v -4.444 q 0,-0.878 0.661,-1.55 0.661,-0.672 1.561,-0.672 h 8.911 l 2.222,2.222 v 4.444 z" />
    <path id="icon"
      d="m 16,24.018 q -1.193,0 -2.251,-0.453 -1.057,-0.453 -1.85,-1.246 Q 11.106,21.526 10.653,20.469 10.2,19.411 10.2,18.218 q 0,-1.208 0.461,-2.258 0.461,-1.05 1.269,-1.843 0.808,-0.793 1.888,-1.246 1.08,-0.453 2.303,-0.453 1.178,0 2.213,0.408 1.035,0.408 1.805,1.118 0.77,0.71 1.216,1.661 0.446,0.952 0.446,2.039 0,1.45 -1.012,2.462 -1.012,1.012 -2.462,1.012 h -1.027 q -0.121,0 -0.211,0.076 -0.091,0.076 -0.091,0.196 0,0.227 0.227,0.378 0.227,0.151 0.227,0.801 0,0.559 -0.408,1.004 -0.408,0.446 -1.042,0.446 z m 0,-5.8 z m -3.263,0.544 q 0.378,0 0.642,-0.264 0.264,-0.264 0.264,-0.642 0,-0.378 -0.264,-0.642 -0.264,-0.264 -0.642,-0.264 -0.378,0 -0.642,0.264 -0.264,0.264 -0.264,0.642 0,0.378 0.264,0.642 0.264,0.264 0.642,0.264 z m 1.813,-2.175 q 0.378,0 0.642,-0.264 0.264,-0.264 0.264,-0.642 0,-0.378 -0.264,-0.642 -0.264,-0.264 -0.642,-0.264 -0.378,0 -0.642,0.264 -0.264,0.264 -0.264,0.642 0,0.378 0.264,0.642 0.264,0.264 0.642,0.264 z m 2.9,0 q 0.378,0 0.642,-0.264 0.264,-0.264 0.264,-0.642 0,-0.378 -0.264,-0.642 -0.264,-0.264 -0.642,-0.264 -0.378,0 -0.642,0.264 -0.264,0.264 -0.264,0.642 0,0.378 0.264,0.642 0.264,0.264 0.642,0.264 z m 1.813,2.175 q 0.378,0 0.642,-0.264 0.264,-0.264 0.264,-0.642 0,-0.378 -0.264,-0.642 -0.264,-0.264 -0.642,-0.264 -0.378,0 -0.642,0.264 -0.264,0.264 -0.264,0.642 0,0.378 0.264,0.642 0.264,0.264 0.642,0.264 z m -3.263,4.169 q 0.166,0 0.264,-0.128 0.098,-0.128 0.098,-0.234 0,-0.242 -0.227,-0.423 -0.227,-0.181 -0.227,-0.755 0,-0.574 0.4,-0.967 0.4,-0.393 0.974,-0.393 h 1.042 q 0.997,0 1.692,-0.695 0.695,-0.695 0.695,-1.692 0,-1.737 -1.337,-2.938 -1.337,-1.201 -3.255,-1.201 -2.024,0 -3.429,1.374 -1.405,1.374 -1.405,3.338 0,1.964 1.374,3.338 1.374,1.374 3.338,1.374 z" />
  </defs>
  <use href="#folder-back" class="ColorScheme-Accent" fill="currentColor" />
  <use href="#folder-back" class="ColorScheme-Background" fill="currentColor" opacity="0.3" />
  <path
    d="M 4.889,26.667 q -0.9,0 -1.561,-0.672 -0.661,-0.672 -0.661,-1.55 v -12.445 q 0,-0.878 0.661,-1.55 0.661,-0.672 1.561,-0.672 h 8.911 l 2.222,-2.222 h 11.089 q 0.878,0 1.55,0.672 0.672,0.672 0.672,1.55 v 14.667 q 0,0.878 -0.672,1.55 -0.672,0.672 -1.55,0.672 z"
    class="ColorScheme-Accent" fill="currentColor" />
  <use href="#icon" class="ColorScheme-Background" fill="currentColor" opacity="0.8" />
  <path
    d="m 4.889,26.667 q -0.9,0 -1.561,-0.672 -0.661,-0.672 -0.661,-1.55 V 7.556 q 0,-0.878 0.661,-1.55 Q 3.989,5.334 4.889,5.334 h 8.911 l 2.222,2.222 h 11.089 q 0.878,0 1.55,0.672 0.672,0.672 0.672,1.55 V 24.445 q 0,0.878 -0.672,1.55 -0.672,0.672 -1.55,0.672 z"
    fill="url(#lg1)" />
</svg>