<svg height="32" width="32" version="1.1" xmlns="http://www.w3.org/2000/svg" xmlns:svg="http://www.w3.org/2000/svg">
  <defs>
    <style type="text/css" id="current-color-scheme">
      .ColorScheme-Accent {
        color: #95ccff;
      }

      .ColorScheme-Background {
        color: #28292d;
      }
    </style>
    <linearGradient id="lg1" x1="48" y1="26.667" x2="48" y2="5.334" gradientUnits="userSpaceOnUse">
      <stop stop-opacity="0.15" offset="0" />
      <stop stop-opacity="0" offset="1" />
    </linearGradient>
    <path id="folder-back"
      d="M 2.667,12 v -4.444 q 0,-0.878 0.661,-1.55 0.661,-0.672 1.561,-0.672 h 8.911 l 2.222,2.222 v 4.444 z" />
    <path id="icon"
      d="m 14.542,17.099 c -0.111,-0.246 -0.161,-0.532 -0.076,-0.792 0.085,-0.266 0.275,-0.479 0.465,-0.678 0.529,-0.529 1.181,-0.918 1.698,-1.456 0.286,-0.295 0.523,-0.649 0.605,-1.055 0.067,-0.298 0.035,-0.605 -0.026,-0.9 0.275,0.313 0.365,0.76 0.286,1.163 -0.085,0.453 -0.336,0.853 -0.631,1.198 -0.237,0.278 -0.509,0.523 -0.792,0.751 -0.33,0.266 -0.655,0.552 -0.862,0.927 -0.175,0.304 -0.216,0.678 -0.097,1.008 0.196,0.567 0.652,0.988 0.9,1.523 -0.275,-0.243 -0.544,-0.494 -0.795,-0.76 -0.263,-0.281 -0.511,-0.579 -0.675,-0.93 z m 1.491,-0.444 c -0.05,0.465 0.193,0.903 0.482,1.248 0.14,0.155 0.26,0.345 0.266,0.561 0.006,0.289 -0.158,0.558 -0.368,0.748 0.05,-0.006 0.085,-0.05 0.126,-0.073 0.316,-0.202 0.62,-0.456 0.775,-0.804 0.102,-0.237 0.079,-0.517 -0.056,-0.737 -0.158,-0.257 -0.365,-0.485 -0.488,-0.766 -0.067,-0.158 -0.091,-0.342 -0.035,-0.509 0.073,-0.225 0.231,-0.409 0.398,-0.57 0.459,-0.435 1.014,-0.745 1.546,-1.084 -0.672,0.193 -1.336,0.459 -1.903,0.877 -0.36,0.269 -0.693,0.643 -0.742,1.108 z m 3.195,2.198 c 0.319,0.018 0.631,0.251 0.69,0.573 0.056,0.278 -0.079,0.552 -0.251,0.763 -0.284,0.339 -0.667,0.582 -1.052,0.789 -0.038,0.023 -0.07,0.053 -0.099,0.085 0.509,-0.129 1.017,-0.321 1.429,-0.652 0.228,-0.19 0.43,-0.441 0.474,-0.743 0.041,-0.26 -0.067,-0.529 -0.26,-0.701 -0.234,-0.213 -0.564,-0.292 -0.874,-0.251 -0.178,0.023 -0.374,0.061 -0.497,0.21 0.146,-0.029 0.289,-0.088 0.441,-0.073 z m -6.346,0.836 c 0.383,0.102 0.777,0.132 1.169,0.158 0.351,0.023 0.702,0.029 1.055,0.026 0.912,-0.015 1.83,-0.076 2.724,-0.275 0.085,-0.02 0.178,-0.035 0.254,-0.088 0.149,-0.097 0.313,-0.173 0.473,-0.249 -0.728,0.117 -1.459,0.216 -2.195,0.263 -0.745,0.047 -1.497,0.076 -2.245,0.026 -0.213,-0.02 -0.433,-0.032 -0.631,-0.114 -0.047,-0.02 -0.111,-0.061 -0.088,-0.123 0.044,-0.079 0.132,-0.117 0.208,-0.158 0.322,-0.152 0.672,-0.237 1.014,-0.336 -0.588,-0.009 -1.172,0.14 -1.71,0.371 -0.12,0.059 -0.254,0.105 -0.351,0.205 -0.038,0.041 -0.038,0.111 0.006,0.146 0.088,0.079 0.205,0.114 0.316,0.146 z m 4.735,0.804 c -0.512,0.091 -1.026,0.175 -1.543,0.202 -0.567,0.038 -1.134,0.006 -1.695,-0.053 -0.108,-0.015 -0.216,-0.032 -0.313,-0.082 -0.05,-0.029 -0.099,-0.076 -0.096,-0.137 0.006,-0.096 0.088,-0.164 0.146,-0.234 -0.181,0.064 -0.362,0.131 -0.514,0.251 -0.064,0.05 -0.129,0.129 -0.111,0.216 0.026,0.102 0.126,0.164 0.213,0.21 0.216,0.111 0.459,0.161 0.696,0.205 0.599,0.097 1.21,0.1 1.812,0.058 0.637,-0.05 1.272,-0.155 1.888,-0.336 -0.175,-0.079 -0.342,-0.17 -0.482,-0.301 z m -3.212,1.011 c -0.164,0.047 -0.33,0.102 -0.465,0.21 -0.067,0.053 -0.12,0.143 -0.088,0.228 0.041,0.108 0.143,0.173 0.24,0.228 0.251,0.137 0.535,0.202 0.813,0.251 0.629,0.099 1.274,0.085 1.9,-0.026 0.371,-0.07 0.742,-0.17 1.087,-0.324 -0.225,-0.094 -0.444,-0.199 -0.655,-0.322 -0.365,0.064 -0.734,0.132 -1.108,0.155 -0.494,0.038 -0.994,-0.003 -1.488,-0.064 -0.117,-0.026 -0.263,-0.038 -0.342,-0.14 -0.041,-0.085 0.053,-0.146 0.105,-0.196 z m 3.999,1.879 c 0.409,-0.085 0.821,-0.181 1.195,-0.371 0.117,-0.067 0.26,-0.14 0.298,-0.281 0.02,-0.134 -0.12,-0.205 -0.219,-0.26 0.061,0.07 0.102,0.173 0.041,0.254 -0.102,0.137 -0.278,0.19 -0.433,0.243 -0.485,0.137 -0.988,0.193 -1.488,0.249 -1.324,0.12 -2.657,0.149 -3.981,0.038 -0.444,-0.047 -0.897,-0.097 -1.321,-0.254 -0.067,-0.029 -0.169,-0.059 -0.169,-0.149 0.026,-0.079 0.102,-0.123 0.169,-0.161 0.304,-0.155 0.643,-0.24 0.982,-0.26 -0.099,-0.059 -0.216,-0.064 -0.33,-0.061 -0.284,0.009 -0.561,0.082 -0.83,0.173 -0.231,0.085 -0.468,0.178 -0.652,0.348 -0.073,0.064 -0.14,0.187 -0.064,0.275 0.117,0.126 0.298,0.158 0.459,0.196 0.9,0.155 1.812,0.243 2.724,0.275 1.21,0.035 2.429,-0.018 3.619,-0.251 z m 1.198,0.158 c -0.55,0.175 -1.12,0.272 -1.687,0.351 -0.979,0.123 -1.967,0.161 -2.952,0.132 -0.599,-0.023 -1.198,-0.064 -1.789,-0.164 0.137,0.094 0.307,0.123 0.465,0.167 0.664,0.14 1.345,0.167 2.02,0.187 0.991,0.018 1.982,-0.02 2.958,-0.175 0.462,-0.082 0.927,-0.181 1.342,-0.398 0.216,-0.114 0.436,-0.289 0.473,-0.544 -0.219,0.234 -0.535,0.342 -0.83,0.444 z" />
  </defs>
  <use href="#folder-back" class="ColorScheme-Accent" fill="currentColor" />
  <use href="#folder-back" class="ColorScheme-Background" fill="currentColor" opacity="0.3" />
  <path
    d="M 4.889,26.667 q -0.9,0 -1.561,-0.672 -0.661,-0.672 -0.661,-1.55 v -12.445 q 0,-0.878 0.661,-1.55 0.661,-0.672 1.561,-0.672 h 8.911 l 2.222,-2.222 h 11.089 q 0.878,0 1.55,0.672 0.672,0.672 0.672,1.55 v 14.667 q 0,0.878 -0.672,1.55 -0.672,0.672 -1.55,0.672 z"
    class="ColorScheme-Accent" fill="currentColor" />
  <use href="#icon" class="ColorScheme-Background" fill="currentColor" opacity="0.8" />
  <path
    d="m 4.889,26.667 q -0.9,0 -1.561,-0.672 -0.661,-0.672 -0.661,-1.55 V 7.556 q 0,-0.878 0.661,-1.55 Q 3.989,5.334 4.889,5.334 h 8.911 l 2.222,2.222 h 11.089 q 0.878,0 1.55,0.672 0.672,0.672 0.672,1.55 V 24.445 q 0,0.878 -0.672,1.55 -0.672,0.672 -1.55,0.672 z"
    fill="url(#lg1)" />
</svg>