<svg height="32" width="32" version="1.1" xmlns="http://www.w3.org/2000/svg" xmlns:svg="http://www.w3.org/2000/svg">
  <defs>
    <style type="text/css" id="current-color-scheme">
      .ColorScheme-Accent {
        color: #95ccff;
      }

      .ColorScheme-Background {
        color: #28292d;
      }
    </style>
    <linearGradient id="lg1" x1="48" y1="26.667" x2="48" y2="5.334" gradientUnits="userSpaceOnUse">
      <stop stop-opacity="0.15" offset="0" />
      <stop stop-opacity="0" offset="1" />
    </linearGradient>
    <path id="folder-back"
      d="M 2.667,12 v -4.444 q 0,-0.878 0.661,-1.55 0.661,-0.672 1.561,-0.672 h 8.911 l 2.222,2.222 v 4.444 z" />
    <path id="icon"
      d="m 13.463,14.593 q -0.302,0 -0.514,0.211 -0.211,0.211 -0.211,0.514 0,0.302 0.211,0.514 0.211,0.211 0.514,0.211 0.302,0 0.514,-0.211 Q 14.188,15.62 14.188,15.318 q 0,-0.302 -0.211,-0.514 Q 13.765,14.593 13.463,14.593 Z m 0,5.8 q -0.302,0 -0.514,0.211 -0.211,0.211 -0.211,0.514 0,0.302 0.211,0.514 0.211,0.211 0.514,0.211 0.302,0 0.514,-0.211 0.211,-0.211 0.211,-0.514 0,-0.302 -0.211,-0.514 Q 13.765,20.393 13.463,20.393 Z M 11.65,12.781 H 20.35 q 0.308,0 0.517,0.208 Q 21.075,13.197 21.075,13.506 v 3.625 q 0,0.308 -0.208,0.517 Q 20.658,17.856 20.35,17.856 h -8.7 q -0.308,0 -0.517,-0.208 -0.208,-0.208 -0.208,-0.517 v -3.625 q 0,-0.308 0.208,-0.517 0.208,-0.208 0.517,-0.208 z m 0.363,1.088 v 2.9 H 19.988 v -2.9 z m -0.363,4.712 H 20.35 q 0.308,0 0.517,0.208 0.208,0.208 0.208,0.517 v 3.625 q 0,0.308 -0.208,0.517 -0.208,0.208 -0.517,0.208 h -8.7 q -0.308,0 -0.517,-0.208 -0.208,-0.208 -0.208,-0.517 v -3.625 q 0,-0.308 0.208,-0.517 0.208,-0.208 0.517,-0.208 z m 0.363,1.088 v 2.9 H 19.988 v -2.9 z m 0,-5.8 v 2.9 z m 0,5.8 v 2.9 z" />
  </defs>
  <use href="#folder-back" class="ColorScheme-Accent" fill="currentColor" />
  <use href="#folder-back" class="ColorScheme-Background" fill="currentColor" opacity="0.3" />
  <path
    d="M 4.889,26.667 q -0.9,0 -1.561,-0.672 -0.661,-0.672 -0.661,-1.55 v -12.445 q 0,-0.878 0.661,-1.55 0.661,-0.672 1.561,-0.672 h 8.911 l 2.222,-2.222 h 11.089 q 0.878,0 1.55,0.672 0.672,0.672 0.672,1.55 v 14.667 q 0,0.878 -0.672,1.55 -0.672,0.672 -1.55,0.672 z"
    class="ColorScheme-Accent" fill="currentColor" />
  <use href="#icon" class="ColorScheme-Background" fill="currentColor" opacity="0.8" />
  <path
    d="m 4.889,26.667 q -0.9,0 -1.561,-0.672 -0.661,-0.672 -0.661,-1.55 V 7.556 q 0,-0.878 0.661,-1.55 Q 3.989,5.334 4.889,5.334 h 8.911 l 2.222,2.222 h 11.089 q 0.878,0 1.55,0.672 0.672,0.672 0.672,1.55 V 24.445 q 0,0.878 -0.672,1.55 -0.672,0.672 -1.55,0.672 z"
    fill="url(#lg1)" />
</svg>