<svg viewBox="0 0 32 32" xmlns="http://www.w3.org/2000/svg">
  <defs>
    <style type="text/css" id="current-color-scheme">
      .ColorScheme-Text {
        color: #e2e2e5;
      }

      .ColorScheme-Background {
        color: #1e2022;
      }
    </style>
    <path id="background"
      d="M 11.711 4 L 11.711 5.111 L 5.289 5.111 L 5.289 7.332 L 6.689 7.332 L 6.689 28 L 14.955 28 L 14.977 27.967 A 9.29 9.29 0 0 1 13.119 22.434 A 9.29 9.29 0 0 1 22.41 13.145 A 9.29 9.29 0 0 1 24.91 13.49 L 24.91 13.488 L 24.91 7.332 L 26.311 7.332 L 26.311 5.111 L 19.889 5.111 L 19.889 4 L 11.711 4 z" />
    <path id="icon"
      d="M 8.911,7.333 V 25.778 Z M 14.955,28 H 6.689 V 7.333 H 5.289 V 5.111 h 6.422 V 4 h 8.178 v 1.111 h 6.422 v 2.222 h -1.4 v 6.156 q -0.5,-0.145 -1.105,-0.25 -0.606,-0.106 -1.117,-0.128 V 7.333 H 8.911 V 25.778 h 4.956 q 0.156,0.478 0.467,1.106 0.311,0.628 0.622,1.117 z m -2.956,-5.022 h 1.111 q 0,-2.433 0.556,-3.705 l 0.556,-1.272 v -7.889 h -2.222 z m 5.4,-8.378 q 0.456,-0.3 1.072,-0.589 0.617,-0.289 1.15,-0.455 v -3.445 h -2.222 z m 5,14.756 q -2.877,0 -4.894,-2.028 -2.017,-2.028 -2.017,-4.905 0,-2.878 2.021,-4.894 2.022,-2.017 4.89,-2.017 2.877,0 4.905,2.022 2.028,2.021 2.028,4.89 0,2.877 -2.028,4.905 -2.028,2.028 -4.906,2.028 z m 2.178,-3.778 0.933,-0.933 -2.467,-2.467 v -3.733 h -1.333 v 4.267 z" />
  </defs>
  <use href="#background" class="ColorScheme-Background" fill="currentColor" />
  <use href="#background" class="ColorScheme-Text" fill="currentColor" opacity="0.33" />
  <use href="#icon" class="ColorScheme-Background" fill="currentColor" />
  <use href="#icon" class="ColorScheme-Text" fill="currentColor" opacity="0.66" />
</svg>