<svg height="16" width="16" xmlns="http://www.w3.org/2000/svg">
  <style type="text/css" id="current-color-scheme">
    .ColorScheme-Text {
      color: #e2e2e5;
    }
  </style>
  <path
    d="m 5.4,14.4 q -0.911,0 -1.556,-0.644 Q 3.2,13.111 3.2,12.2 V 3.8 Q 3.2,2.888 3.844,2.244 4.488,1.6 5.4,1.6 h 7.4 v 9.583 q -0.417,0 -0.708,0.299 -0.292,0.299 -0.292,0.725 0,0.427 0.292,0.718 0.292,0.292 0.708,0.292 v 1.183 z M 4.4,10.233 q 0.233,-0.117 0.475,-0.175 0.242,-0.058 0.525,-0.058 h 0.2 V 2.8 h -0.2 q -0.417,0 -0.708,0.292 Q 4.4,3.383 4.4,3.8 Z M 6.8,10 H 11.6 V 2.8 H 6.8 Z M 4.4,10.233 V 2.8 Z m 1,2.967 h 5.433 q -0.117,-0.233 -0.175,-0.467 -0.058,-0.233 -0.058,-0.521 0,-0.271 0.067,-0.525 0.067,-0.254 0.183,-0.487 H 5.4 q -0.433,0 -0.717,0.292 -0.283,0.292 -0.283,0.708 0,0.433 0.283,0.717 0.283,0.283 0.717,0.283 z"
    class="ColorScheme-Text" fill="currentColor" />
</svg>