<svg height="16" width="16" version="1.1" xmlns="http://www.w3.org/2000/svg" xmlns:svg="http://www.w3.org/2000/svg">
  <style type="text/css" id="current-color-scheme">
    .ColorScheme-Text {
      color: #e2e2e5;
    }
  </style>
  <path
    d="M 5.2,10.8 9.6,9.6 10.8,5.2 6.4,6.4 Z M 8,8.8 Q 7.667,8.817 7.433,8.578 7.2,8.34 7.2,8 q 0,-0.333 0.233,-0.567 0.233,-0.233 0.567,-0.233 0.333,0 0.567,0.233 0.233,0.233 0.233,0.567 0,0.333 -0.233,0.567 Q 8.333,8.8 8,8.8 Z m 0.005,5.6 q -1.321,0 -2.488,-0.5 -1.167,-0.5 -2.042,-1.375 -0.875,-0.875 -1.375,-2.041 Q 1.6,9.318 1.6,7.992 1.6,6.667 2.1,5.508 2.6,4.35 3.475,3.475 4.35,2.6 5.516,2.1 6.682,1.6 8.008,1.6 q 1.326,0 2.484,0.5 1.158,0.5 2.033,1.375 0.875,0.875 1.375,2.037 0.5,1.162 0.5,2.483 0,1.321 -0.5,2.488 -0.5,1.167 -1.375,2.042 -0.875,0.875 -2.037,1.375 -1.162,0.5 -2.483,0.5 z m -8e-4,-1.2 q 2.163,0 3.679,-1.521 1.517,-1.521 1.517,-3.683 0,-2.163 -1.521,-3.679 -1.521,-1.517 -3.683,-1.517 -2.163,0 -3.679,1.52 -1.517,1.52 -1.517,3.683 0,2.163 1.52,3.68 1.52,1.517 3.683,1.517 z M 8,8 Z"
    class="ColorScheme-Text" fill="currentColor" />
</svg>