<svg height="16" width="16" version="1.1" xmlns="http://www.w3.org/2000/svg" xmlns:svg="http://www.w3.org/2000/svg">
  <style type="text/css" id="current-color-scheme">
    .ColorScheme-Text {
      color: #e2e2e5;
    }
  </style>
  <path
    d="m 8,14.4 q -1.317,0 -2.483,-0.5 -1.167,-0.5 -2.042,-1.375 Q 2.6,11.65 2.1,10.483 1.6,9.317 1.6,8 1.6,6.667 2.1,5.508 2.6,4.35 3.475,3.475 4.35,2.6 5.517,2.1 6.683,1.6 8,1.6 q 1.333,0 2.492,0.5 1.158,0.5 2.033,1.375 0.875,0.875 1.375,2.033 0.5,1.158 0.5,2.492 0,1.317 -0.5,2.483 -0.5,1.167 -1.375,2.042 -0.875,0.875 -2.033,1.375 -1.158,0.5 -2.492,0.5 z m 0,-1.2 q 0.917,0 1.733,-0.3 0.817,-0.3 1.483,-0.833 L 3.933,4.783 Q 3.4,5.45 3.1,6.267 2.8,7.083 2.8,8 q 0,2.167 1.517,3.683 1.517,1.517 3.683,1.517 z m 4.067,-1.983 q 0.533,-0.667 0.833,-1.483 0.3,-0.817 0.3,-1.733 0,-2.167 -1.517,-3.683 -1.517,-1.517 -3.683,-1.517 -0.917,0 -1.733,0.3 Q 5.45,3.4 4.783,3.933 Z"
    class="ColorScheme-Text" fill="currentColor" />
</svg>