<svg height="16" width="16" version="1.1" xmlns="http://www.w3.org/2000/svg" xmlns:svg="http://www.w3.org/2000/svg">
  <style type="text/css" id="current-color-scheme">
    .ColorScheme-Text {
      color: #e2e2e5;
    }
  </style>
  <path
    d="m 3.6,13.6 q -0.495,0 -0.847,-0.353 Q 2.4,12.895 2.4,12.4 V 3.6 Q 2.4,3.105 2.752,2.752 3.105,2.4 3.6,2.4 h 7.6 l 2.4,2.4 V 8.133 q -0.285,-0.092 -0.593,-0.121 -0.308,-0.029 -0.608,0.055 V 5.3 l -1.7,-1.7 H 3.6 v 8.8 h 4 v 1.2 z m 0,-10 V 12.4 Z M 8.8,14.8 V 12.917 L 12.3,9.433 q 0.121,-0.124 0.269,-0.179 Q 12.717,9.2 12.863,9.2 q 0.159,0 0.305,0.058 0.146,0.058 0.265,0.175 l 0.733,0.75 q 0.11,0.121 0.172,0.269 0.062,0.148 0.062,0.294 0,0.146 -0.055,0.299 -0.055,0.153 -0.179,0.272 l -3.483,3.483 z m 4.8,-4.05 -0.75,-0.75 z m -4,3.25 h 0.75 l 1.917,-1.917 -0.367,-0.383 -0.367,-0.367 -1.933,1.917 z m 2.3,-2.3 -0.367,-0.367 0.733,0.75 z M 4.4,6.8 H 10 V 4.4 H 4.4 Z m 3.6,5 h 0.117 q 0.05,0 0.117,-0.017 L 9.783,10.25 q 0.017,-0.067 0.017,-0.125 v -0.125 q 0,-0.75 -0.525,-1.275 -0.525,-0.525 -1.275,-0.525 -0.75,0 -1.275,0.525 -0.525,0.525 -0.525,1.275 0,0.75 0.525,1.275 0.525,0.525 1.275,0.525 z"
    class="ColorScheme-Text" fill="currentColor" />
</svg>