<svg height="16" width="16" xmlns="http://www.w3.org/2000/svg">
  <style type="text/css" id="current-color-scheme">
    .ColorScheme-Text {
      color: #e2e2e5;
    }
  </style>
  <path
    d="m 6.667,10.583 1.333,-1.333 1.333,1.333 0.85,-0.85 -1.333,-1.333 1.333,-1.333 -0.85,-0.85 -1.333,1.333 -1.333,-1.333 -0.85,0.85 L 7.15,8.4 5.817,9.733 Z M 5.2,13.6 q -0.495,0 -0.848,-0.353 -0.353,-0.353 -0.353,-0.848 V 4.4 H 3.2 V 3.2 H 6.4 V 2.4 h 3.2 v 0.8 h 3.2 v 1.2 h -0.8 v 7.993 q 0,0.507 -0.353,0.857 -0.353,0.35 -0.848,0.35 z M 10.8,4.4 H 5.2 v 8 h 5.6 z m -5.6,0 v 8 z"
    class="ColorScheme-Text" fill="currentColor" />
</svg>