<svg height="16" width="16" version="1.1" xmlns="http://www.w3.org/2000/svg" xmlns:svg="http://www.w3.org/2000/svg">
  <style type="text/css" id="current-color-scheme">
    .ColorScheme-Text {
      color: #e2e2e5;
    }
  </style>
  <path
    d="m 3.6,13.6 q -0.495,0 -0.848,-0.353 Q 2.4,12.895 2.4,12.4 V 3.6 q 0,-0.495 0.352,-0.847 0.353,-0.352 0.848,-0.352 h 2.85 Q 6.583,1.883 7.008,1.542 7.433,1.2 8,1.2 q 0.567,0 0.992,0.342 0.425,0.342 0.558,0.858 h 2.85 q 0.495,0 0.848,0.352 0.353,0.353 0.353,0.847 v 8.8 q 0,0.495 -0.353,0.848 -0.353,0.353 -0.848,0.353 z m 0,-1.2 H 12.4 V 3.6 h -1.2 V 5.6 H 4.8 V 3.6 h -1.2 z M 7.996,3.6 q 0.254,0 0.429,-0.172 0.175,-0.172 0.175,-0.425 0,-0.253 -0.172,-0.428 -0.172,-0.175 -0.425,-0.175 -0.254,0 -0.429,0.172 -0.175,0.172 -0.175,0.425 0,0.254 0.171,0.428 0.172,0.175 0.425,0.175 z"
    class="ColorScheme-Text" fill="currentColor" />
</svg>