<svg height="16" width="16" xmlns="http://www.w3.org/2000/svg">
  <style type="text/css" id="current-color-scheme">
    .ColorScheme-Text {
      color: #e2e2e5;
    }
  </style>
  <path
    d="M 4.9,11.1 V 4.9 H 11.1 V 11.1 Z M 6.1,9.9 H 9.9 V 6.1 H 6.1 Z M 3.6,12.4 v 1.2 q -0.495,0 -0.847,-0.353 Q 2.4,12.895 2.4,12.4 Z M 2.4,11.1 V 9.9 h 1.2 v 1.2 z m 0,-2.5 v -1.2 h 1.2 v 1.2 z m 0,-2.5 v -1.2 h 1.2 v 1.2 z M 3.6,3.6 H 2.4 Q 2.4,3.105 2.752,2.752 3.105,2.4 3.6,2.4 Z m 1.3,10 v -1.2 h 1.2 v 1.2 z m 0,-10 V 2.4 h 1.2 v 1.2 z m 2.5,10 v -1.2 h 1.2 v 1.2 z m 0,-10 V 2.4 h 1.2 v 1.2 z m 2.5,10 v -1.2 h 1.2 v 1.2 z m 0,-10 V 2.4 h 1.2 v 1.2 z m 2.5,10 v -1.2 h 1.2 q 0,0.5 -0.353,0.85 -0.353,0.35 -0.848,0.35 z m 0,-2.5 V 9.9 h 1.2 v 1.2 z m 0,-2.5 v -1.2 h 1.2 v 1.2 z m 0,-2.5 v -1.2 h 1.2 v 1.2 z m 0,-2.5 V 2.4 q 0.495,0 0.848,0.352 0.353,0.353 0.353,0.847 z"
    class="ColorScheme-Text" fill="currentColor" />
</svg>