<svg height="16" width="16" xmlns="http://www.w3.org/2000/svg">
  <style type="text/css" id="current-color-scheme">
    .ColorScheme-Text {
      color: #e2e2e5;
    }
  </style>
  <path
    d="m 12.8,13.65 -2.55,-2.55 H 4.9 V 5.75 L 1.5,2.35 2.35,1.5 13.65,12.8 Z M 6.1,9.9 H 9.05 L 6.1,6.95 Z m 5,-1.35 -1.2,-1.2 v -1.25 H 8.65 l -1.2,-1.2 H 11.1 Z M 3.6,12.4 v 1.2 q -0.495,0 -0.847,-0.353 -0.353,-0.353 -0.353,-0.848 z m -1.2,-1.3 V 9.9 h 1.2 v 1.2 z m 0,-2.5 V 7.4 h 1.2 v 1.2 z m 0,-2.5 v -1.2 h 1.2 v 1.2 z m 2.5,7.5 v -1.2 h 1.2 v 1.2 z m 0,-10 V 2.4 h 1.2 v 1.2 z m 2.5,10 v -1.2 h 1.2 v 1.2 z m 0,-10 V 2.4 h 1.2 v 1.2 z m 2.5,10 v -1.2 h 1.2 v 1.2 z m 0,-10 V 2.4 H 11.1 V 3.6 Z M 12.4,11.1 V 9.9 h 1.2 v 1.2 z m 0,-2.5 V 7.4 h 1.2 v 1.2 z m 0,-2.5 v -1.2 h 1.2 v 1.2 z m 0,-2.5 V 2.4 q 0.495,0 0.848,0.353 0.353,0.353 0.353,0.847 z"
    class="ColorScheme-Text" fill="currentColor" />
</svg>