<svg height="16" width="16" xmlns="http://www.w3.org/2000/svg">
  <style type="text/css" id="current-color-scheme">
    .ColorScheme-Text {
      color: #e2e2e5;
    }
  </style>
  <path
    d="m 8.005,14.4 q -1.321,0 -2.488,-0.5 -1.167,-0.5 -2.042,-1.375 -0.875,-0.875 -1.375,-2.041 Q 1.6,9.318 1.6,7.992 1.6,6.667 2.1,5.508 2.6,4.35 3.475,3.475 4.35,2.6 5.516,2.1 6.682,1.6 8.008,1.6 q 1.326,0 2.484,0.5 1.158,0.5 2.033,1.375 0.875,0.875 1.375,2.037 0.5,1.162 0.5,2.483 0,1.321 -0.5,2.488 -0.5,1.167 -1.375,2.042 -0.875,0.875 -2.037,1.375 -1.162,0.5 -2.483,0.5 z M 7.2,13.133 v -1.133 q -0.333,0 -0.567,-0.235 -0.233,-0.235 -0.233,-0.565 v -0.8 L 2.917,6.917 q -0.067,0.317 -0.092,0.583 -0.025,0.267 -0.025,0.5 0,1.917 1.242,3.383 1.242,1.467 3.158,1.75 z m 4.8,-1.817 q 0.3,-0.35 0.525,-0.733 0.225,-0.383 0.373,-0.809 0.148,-0.426 0.225,-0.875 0.077,-0.449 0.077,-0.899 0,-1.577 -0.867,-2.88 -0.867,-1.303 -2.333,-1.92 v 0.4 q 0,0.495 -0.353,0.847 -0.353,0.352 -0.847,0.352 h -1.6 v 0.8 q 0,0.34 -0.23,0.57 -0.23,0.23 -0.57,0.23 h -0.8 v 1.6 h 4 q 0.34,0 0.57,0.23 0.23,0.23 0.23,0.57 v 1.6 h 0.683 q 0.383,0 0.65,0.267 0.267,0.267 0.267,0.65 z"
    class="ColorScheme-Text" fill="currentColor" />
</svg>