<svg height="16" width="16" xmlns="http://www.w3.org/2000/svg">
  <style type="text/css" id="current-color-scheme">
    .ColorScheme-Text {
      color: #e2e2e5;
    }
  </style>
  <path
    d="M 7.4,11.2 H 8.6 V 7.2 H 7.4 Z M 7.996,6 q 0.254,0 0.429,-0.172 0.175,-0.172 0.175,-0.425 0,-0.254 -0.172,-0.429 -0.172,-0.175 -0.425,-0.175 -0.253,0 -0.428,0.172 -0.175,0.172 -0.175,0.425 0,0.253 0.172,0.428 0.172,0.175 0.425,0.175 z m 0.008,8.4 q -1.321,0 -2.488,-0.5 -1.167,-0.5 -2.042,-1.375 -0.875,-0.875 -1.375,-2.041 Q 1.6,9.318 1.6,7.992 1.6,6.667 2.1,5.508 2.6,4.35 3.475,3.475 4.35,2.6 5.516,2.1 6.682,1.6 8.008,1.6 q 1.326,0 2.484,0.5 1.158,0.5 2.033,1.375 0.875,0.875 1.375,2.037 0.5,1.162 0.5,2.483 0,1.321 -0.5,2.488 -0.5,1.167 -1.375,2.042 -0.875,0.875 -2.037,1.375 -1.162,0.5 -2.483,0.5 z m -0.005,-1.2 q 2.167,0 3.683,-1.517 1.517,-1.517 1.517,-3.683 0,-2.167 -1.517,-3.683 -1.517,-1.517 -3.683,-1.517 -2.167,0 -3.683,1.517 Q 2.8,5.833 2.8,8 q 0,2.167 1.517,3.683 1.517,1.517 3.683,1.517 z m 0,-5.2 z"
    class="ColorScheme-Text" fill="currentColor" />
</svg>