<svg height="16" width="16" xmlns="http://www.w3.org/2000/svg">
  <style type="text/css" id="current-color-scheme">
    .ColorScheme-Text {
      color: #e2e2e5;
    }
  </style>
  <path
    d="m 8,8 q -1,0 -1.7,-0.7 -0.7,-0.7 -0.7,-1.7 0,-1 0.7,-1.7 0.7,-0.7 1.7,-0.7 1,0 1.7,0.7 0.7,0.7 0.7,1.7 0,1 -0.7,1.7 -0.7,0.7 -1.7,0.7 z M 3.2,12.8 v -1.6 q 0,-0.383 0.208,-0.725 Q 3.617,10.133 3.983,9.9 4.9,9.367 5.921,9.083 q 1.022,-0.283 2.075,-0.283 1.054,0 2.078,0.283 1.025,0.283 1.942,0.817 0.367,0.217 0.575,0.567 0.208,0.35 0.208,0.733 v 1.6 z m 1.2,-1.2 h 7.2 v -0.4 q 0,-0.086 -0.051,-0.157 -0.05,-0.071 -0.133,-0.11 -0.767,-0.467 -1.633,-0.7 -0.867,-0.233 -1.783,-0.233 -0.917,0 -1.783,0.233 -0.867,0.233 -1.633,0.7 -0.083,0.067 -0.133,0.129 -0.05,0.062 -0.05,0.138 z M 8.003,6.8 q 0.497,0 0.847,-0.354 0.35,-0.354 0.35,-0.85 0,-0.497 -0.354,-0.847 -0.354,-0.35 -0.85,-0.35 -0.497,0 -0.847,0.354 -0.35,0.354 -0.35,0.85 0,0.497 0.354,0.847 0.354,0.35 0.85,0.35 z m -0.004,-1.2 z m 0,6 z"
    class="ColorScheme-Text" fill="currentColor" />
</svg>