<svg height="16" width="16" xmlns="http://www.w3.org/2000/svg">
  <style type="text/css" id="current-color-scheme">
    .ColorScheme-Text {
      color: #e2e2e5;
    }
  </style>
  <path
    d="m 14.4,14.4 -2.4,-2.4 H 6 q -0.495,0 -0.848,-0.353 -0.352,-0.353 -0.352,-0.848 V 10 h 6.4 q 0.495,0 0.848,-0.353 0.353,-0.353 0.353,-0.847 V 4.8 h 0.8 q 0.495,0 0.848,0.353 0.353,0.353 0.353,0.847 z M 2.8,8.3 3.5,7.6 H 10 V 2.8 H 2.8 Z M 1.6,11.2 V 2.8 q 0,-0.495 0.352,-0.847 Q 2.305,1.6 2.8,1.6 h 7.2 q 0.495,0 0.847,0.352 0.353,0.352 0.353,0.847 V 7.6 q 0,0.495 -0.353,0.848 -0.353,0.353 -0.847,0.353 H 4 Z M 2.8,7.6 V 2.8 Z"
    class="ColorScheme-Text" fill="currentColor" />
</svg>