<svg height="16" width="16" xmlns="http://www.w3.org/2000/svg">
  <style type="text/css" id="current-color-scheme">
    .ColorScheme-Text {
      color: #e2e2e5;
    }
  </style>
  <path
    d="m 3.2,12.4 v -1.2 H 4 V 7.2 q 0,-0.683 0.225,-1.308 0.225,-0.625 0.608,-1.175 L 5.717,5.6 q -0.25,0.35 -0.383,0.763 -0.133,0.413 -0.133,0.838 v 4 h 4.4 L 1.5,3.1 2.35,2.233 13.65,13.55 l -0.85,0.85 -2,-2 z m 8.8,-2.2 -1.2,-1.2 V 7.2 q 0,-1.167 -0.817,-1.983 -0.817,-0.817 -1.983,-0.817 -0.381,0 -0.732,0.1 -0.351,0.1 -0.685,0.283 L 5.717,3.908 q 0.333,-0.242 0.708,-0.392 0.375,-0.15 0.775,-0.233 V 2.4 q 0,-0.333 0.233,-0.567 Q 7.667,1.6 8,1.6 8.333,1.6 8.567,1.833 8.8,2.067 8.8,2.4 V 3.283 q 1.417,0.267 2.308,1.367 0.892,1.1 0.892,2.55 z M 7.4,9 Z m 0.597,5.4 q -0.497,0 -0.847,-0.353 -0.35,-0.353 -0.35,-0.848 h 2.4 q 0,0.5 -0.353,0.85 -0.354,0.35 -0.85,0.35 z m 0.704,-7.517 z"
    class="ColorScheme-Text" fill="currentColor" />
</svg>