<svg height="16" width="16" xmlns="http://www.w3.org/2000/svg">
  <style type="text/css" id="current-color-scheme">
    .ColorScheme-Text {
      color: #e2e2e5;
    }
  </style>
  <path
    d="m 3.2,12.4 v -1.2 H 4 V 7.2 q 0,-1.45 0.892,-2.55 Q 5.783,3.55 7.2,3.283 V 2.4 q 0,-0.333 0.233,-0.567 Q 7.667,1.6 8,1.6 8.333,1.6 8.567,1.833 8.8,2.067 8.8,2.4 V 3.283 q 1.417,0.267 2.308,1.367 0.892,1.1 0.892,2.55 v 4 h 0.8 v 1.2 z M 8,7.8 Z m -0.004,6.6 q -0.497,0 -0.847,-0.353 -0.35,-0.353 -0.35,-0.848 h 2.4 q 0,0.5 -0.354,0.85 -0.354,0.35 -0.85,0.35 z m -2.796,-3.2 H 10.8 V 7.2 q 0,-1.167 -0.817,-1.983 -0.817,-0.817 -1.983,-0.817 -1.167,0 -1.983,0.817 -0.817,0.817 -0.817,1.983 z"
    class="ColorScheme-Text" fill="currentColor" />
</svg>