<svg height="16" width="16" xmlns="http://www.w3.org/2000/svg">
  <style type="text/css" id="current-color-scheme">
    .ColorScheme-Text {
      color: #e2e2e5;
    }
  </style>
  <path
    d="M 7.4,13.6 Q 5.617,13.367 4.408,12.025 3.2,10.684 3.2,8.834 3.2,7.817 3.583,6.942 3.967,6.067 4.633,5.417 l 0.85,0.85 q -0.5,0.483 -0.792,1.15 -0.292,0.667 -0.292,1.417 0,1.35 0.858,2.333 0.858,0.983 2.142,1.217 z m 1.2,0 v -1.217 q 1.283,-0.217 2.142,-1.208 0.858,-0.992 0.858,-2.342 0,-1.5 -1.05,-2.55 Q 9.5,5.234 8,5.234 H 7.883 l 0.767,0.767 -0.85,0.833 L 5.6,4.634 7.8,2.434 l 0.85,0.85 -0.75,0.75 h 0.1 q 2,0 3.4,1.4 1.4,1.4 1.4,3.4 0,1.85 -1.208,3.2 -1.208,1.35 -2.992,1.567 z"
    class="ColorScheme-Text" fill="currentColor" />
</svg>