<svg height="16" width="16" version="1.1" xmlns="http://www.w3.org/2000/svg" xmlns:svg="http://www.w3.org/2000/svg">
  <style type="text/css" id="current-color-scheme">
    .ColorScheme-Text {
      color: #e2e2e5;
    }
  </style>
  <path
    d="M 2 3.199 C 1.67 3.199 1.387 3.317 1.152 3.553 C 0.917 3.787 0.801 4.07 0.801 4.4 L 0.801 11.6 C 0.801 11.93 0.917 12.213 1.152 12.447 C 1.387 12.683 1.67 12.801 2 12.801 L 14 12.801 C 14.33 12.801 14.612 12.683 14.848 12.447 C 15.083 12.212 15.201 11.93 15.201 11.6 L 15.201 4.398 C 15.201 4.068 15.083 3.787 14.848 3.553 C 14.612 3.318 14.33 3.199 14 3.199 L 2 3.199 z M 2 4.4 L 14 4.4 L 14 11.6 L 2 11.6 L 2 4.4 z "
    class="ColorScheme-Text" fill="currentColor" />
  <path
    d="m 6.4,10.4 q -0.165,0 -0.282,-0.118 Q 6,10.165 6,10 V 7.6 q 0,-0.165 0.118,-0.282 Q 6.235,7.2 6.4,7.2 H 6.8 v -0.4 q 0,-0.483 0.354,-0.842 0.354,-0.358 0.85,-0.358 0.497,0 0.846,0.358 0.35,0.358 0.35,0.842 v 0.4 h 0.4 q 0.165,0 0.282,0.118 0.118,0.118 0.118,0.282 v 2.4 q 0,0.165 -0.118,0.282 -0.118,0.118 -0.282,0.118 z M 7.4,7.2 h 1.2 v -0.4 q 0,-0.255 -0.172,-0.428 -0.172,-0.172 -0.425,-0.172 -0.254,0 -0.429,0.172 -0.175,0.173 -0.175,0.428 z"
    class="ColorScheme-Text" fill="currentColor" />
</svg>