<svg viewBox="0 0 16 16" xmlns="http://www.w3.org/2000/svg">
  <defs>
    <style type="text/css" id="current-color-scheme">
      .ColorScheme-Text {
        color: #e2e2e5;
      }
    </style>
  </defs>
  <path
    d="m 8,14.667 q -1.383,0 -2.6,-0.525 -1.217,-0.525 -2.117,-1.425 -0.9,-0.9 -1.425,-2.117 -0.525,-1.217 -0.525,-2.6 0,-1.4 0.525,-2.608 0.525,-1.208 1.425,-2.108 L 4.217,4.217 Q 3.483,4.95 3.075,5.917 2.667,6.883 2.667,8 q 0,2.233 1.55,3.783 1.55,1.55 3.783,1.55 2.233,0 3.783,-1.55 1.55,-1.55 1.55,-3.783 0,-1.117 -0.408,-2.083 -0.408,-0.967 -1.142,-1.7 l 0.933,-0.933 q 0.9,0.9 1.425,2.108 Q 14.667,6.6 14.667,8 q 0,1.383 -0.525,2.6 -0.525,1.217 -1.425,2.117 -0.9,0.9 -2.117,1.425 -1.217,0.525 -2.6,0.525 z M 7.333,8.667 V 1.333 h 1.333 v 7.333 z"
    class="ColorScheme-Text" fill="currentColor" />
</svg>