<svg height="16" width="16" xmlns="http://www.w3.org/2000/svg">
  <style type="text/css" id="current-color-scheme">
    .ColorScheme-Text {
      color: #e2e2e5;
    }
  </style>
  <path
    d="m 8,14.4 q -1.317,0 -2.483,-0.5 -1.167,-0.5 -2.042,-1.375 -0.875,-0.875 -1.375,-2.042 Q 1.6,9.317 1.6,8 1.6,6.667 2.108,5.5 2.617,4.333 3.483,3.467 L 4.333,4.317 Q 3.633,5.017 3.217,5.967 2.8,6.917 2.8,8 q 0,2.167 1.517,3.683 1.517,1.517 3.683,1.517 2.167,0 3.683,-1.517 1.517,-1.517 1.517,-3.683 0,-1.083 -0.4,-2.033 -0.4,-0.95 -1.117,-1.65 l 0.85,-0.85 q 0.883,0.867 1.375,2.033 0.492,1.167 0.492,2.5 0,1.317 -0.5,2.483 -0.5,1.167 -1.375,2.042 -0.875,0.875 -2.033,1.375 -1.158,0.5 -2.492,0.5 z m -0.6,-5.6 V 1.6 h 1.2 v 7.2 z"
    class="ColorScheme-Text" fill="currentColor" />
</svg>