<svg height="16" width="16" xmlns="http://www.w3.org/2000/svg">
  <style type="text/css" id="current-color-scheme">
    .ColorScheme-Text {
      color: #e2e2e5;
    }
  </style>
  <path
    d="m 8,10.8 q 1.167,0 1.983,-0.817 0.817,-0.817 0.817,-1.983 0,-1.167 -0.817,-1.983 -0.817,-0.817 -1.983,-0.817 -1.167,0 -1.983,0.817 -0.817,0.817 -0.817,1.983 0,1.167 0.817,1.983 0.817,0.817 1.983,0.817 z m 0,-1.2 q -0.667,0 -1.133,-0.467 -0.467,-0.467 -0.467,-1.133 0,-0.667 0.467,-1.133 0.467,-0.467 1.133,-0.467 0.667,0 1.133,0.467 0.467,0.467 0.467,1.133 0,0.667 -0.467,1.133 -0.467,0.467 -1.133,0.467 z m 0,3.2 q -2.377,0 -4.33,-1.308 Q 1.717,10.183 0.8,8 1.717,5.817 3.67,4.508 5.623,3.2 8,3.2 q 2.377,0 4.33,1.308 1.953,1.308 2.87,3.492 -0.917,2.183 -2.87,3.492 -1.953,1.308 -4.33,1.308 z m 0,-4.8 z m 0,3.6 q 1.867,0 3.45,-0.967 1.583,-0.967 2.433,-2.633 -0.85,-1.667 -2.433,-2.633 -1.583,-0.967 -3.45,-0.967 -1.867,0 -3.45,0.967 -1.583,0.967 -2.433,2.633 0.85,1.667 2.433,2.633 1.583,0.967 3.45,0.967 z"
    class="ColorScheme-Text" fill="currentColor" />
</svg>