<svg height="16" width="16" xmlns="http://www.w3.org/2000/svg">
  <style type="text/css" id="current-color-scheme">
    .ColorScheme-Text {
      color: #e2e2e5;
    }
  </style>
  <path
    d="M 10.617,8.917 9.583,7.884 Q 9.65,7.25 9.2,6.792 8.75,6.334 8.117,6.4 L 7.083,5.367 q 0.217,-0.083 0.45,-0.125 0.233,-0.042 0.467,-0.042 1.167,0 1.983,0.817 0.817,0.817 0.817,1.983 0,0.233 -0.042,0.467 -0.042,0.233 -0.142,0.45 z m 2.217,2.217 -0.867,-0.867 q 0.6,-0.467 1.092,-1.025 0.492,-0.558 0.825,-1.242 Q 13.067,6.317 11.475,5.359 9.883,4.4 8,4.4 q -0.433,0 -0.85,0.05 -0.417,0.05 -0.817,0.167 L 5.367,3.65 q 0.633,-0.25 1.292,-0.35 0.658,-0.1 1.342,-0.1 2.383,0 4.358,1.292 1.975,1.292 2.842,3.508 -0.367,0.95 -0.975,1.725 -0.608,0.775 -1.392,1.408 z m -0.033,3.367 -2.167,-2.167 q -0.633,0.233 -1.292,0.35 -0.658,0.117 -1.342,0.117 -2.383,0 -4.358,-1.292 Q 1.667,10.217 0.8,8 1.167,7.05 1.767,6.267 2.367,5.484 3.167,4.85 L 1.5,3.184 2.35,2.334 13.65,13.65 Z M 4.017,5.717 Q 3.433,6.184 2.933,6.742 q -0.5,0.558 -0.817,1.258 0.817,1.683 2.408,2.642 1.592,0.958 3.475,0.958 0.433,0 0.85,-0.058 0.417,-0.058 0.833,-0.158 l -0.75,-0.75 q -0.233,0.083 -0.467,0.125 -0.233,0.042 -0.467,0.042 -1.167,0 -1.983,-0.817 Q 5.2,9.167 5.2,8 q 0,-0.233 0.058,-0.467 0.058,-0.233 0.108,-0.467 z M 8.8,7.2 Z M 7.2,8.8 Z"
    class="ColorScheme-Text" fill="currentColor" />
</svg>