<svg height="16" width="16" xmlns="http://www.w3.org/2000/svg">
  <style type="text/css" id="current-color-scheme">
    .ColorScheme-Text {
      color: #e2e2e5;
    }
  </style>
  <path
    d="m 2.8,14.4 q -0.495,0 -0.847,-0.353 Q 1.6,13.695 1.6,13.2 V 7.6 Q 1.6,7.105 1.952,6.752 2.305,6.4 2.8,6.4 H 4 V 2.8 q 0,-0.495 0.352,-0.847 Q 4.705,1.6 5.2,1.6 h 8 q 0.495,0 0.848,0.352 0.353,0.352 0.353,0.847 v 5.6 q 0,0.495 -0.353,0.847 -0.353,0.353 -0.848,0.353 h -1.2 v 3.6 q 0,0.495 -0.353,0.848 -0.353,0.353 -0.848,0.353 z m 0,-1.2 H 10.8 V 8.8 H 2.8 Z M 12,8.4 h 1.2 V 4 H 5.2 v 2.4 h 5.6 q 0.495,0 0.848,0.352 0.353,0.353 0.353,0.848 z"
    class="ColorScheme-Text" fill="currentColor" />
</svg>