<svg height="8" width="8" xmlns="http://www.w3.org/2000/svg">
  <style type="text/css" id="current-color-scheme">
    .ColorScheme-NegativeText {
      color: #ff5540;
    }

    .ColorScheme-Background {
      color: #28292d;
    }
  </style>
  <circle cx="4" cy="4" r="3.2" class="ColorScheme-Background" fill="currentColor" stroke="currentColor" />
  <path
    d="m 3.998,5.6 q 0.127,0 0.214,-0.086 0.088,-0.086 0.088,-0.213 0,-0.127 -0.086,-0.214 -0.086,-0.088 -0.213,-0.088 -0.127,0 -0.214,0.086 -0.088,0.086 -0.088,0.213 0,0.127 0.086,0.214 0.086,0.088 0.213,0.088 z M 3.7,4.4 H 4.3 V 2.4 H 3.7 Z m 0.302,2.8 q -0.661,0 -1.244,-0.25 Q 2.175,6.7 1.737,6.262 1.3,5.825 1.05,5.242 0.8,4.659 0.8,3.996 0.8,3.333 1.05,2.754 1.3,2.175 1.737,1.737 2.175,1.3 2.758,1.05 3.341,0.8 4.004,0.8 q 0.663,0 1.242,0.25 0.579,0.25 1.017,0.687 0.438,0.438 0.688,1.018 0.25,0.581 0.25,1.242 0,0.661 -0.25,1.244 -0.25,0.583 -0.688,1.021 -0.438,0.438 -1.019,0.687 -0.581,0.25 -1.242,0.25 z m -0.002,-0.6 q 1.083,0 1.842,-0.758 0.758,-0.758 0.758,-1.842 0,-1.083 -0.758,-1.842 Q 5.083,1.4 4,1.4 q -1.083,0 -1.842,0.758 -0.758,0.758 -0.758,1.842 0,1.083 0.758,1.842 0.758,0.758 1.842,0.758 z m 0,-2.6 z"
    class="ColorScheme-NegativeText" fill="currentColor" />
</svg>