<svg height="8" width="8" xmlns="http://www.w3.org/2000/svg">
  <style type="text/css" id="current-color-scheme">
    .ColorScheme-PositiveText {
      color: #50c24b;
    }

    .ColorScheme-Background {
      color: #28292d;
    }
  </style>
  <rect width="8" height="8" opacity="0" />
  <path
    d="m 3.8,6.2 h 0.4 v -0.45 l 1.2,-1.2 V 3 H 2.6 v 1.55 l 1.2,1.2 z M 3.2,6.8 V 6 l -1.2,-1.2 V 3 q 0,-0.248 0.176,-0.424 Q 2.353,2.4 2.6,2.4 H 3.05 L 2.8,2.767 V 1.2 h 0.6 v 1.2 h 1.2 V 1.2 h 0.6 v 1.567 l -0.25,-0.367 h 0.45 q 0.248,0 0.424,0.176 0.176,0.176 0.176,0.424 v 1.8 l -1.2,1.2 V 6.8 Z M 4,4.625 Z"
    class="ColorScheme-Background" stroke-width="1" stroke="currentColor" />
  <path
    d="m 3.8,6.2 h 0.4 v -0.45 l 1.2,-1.2 V 3 H 2.6 v 1.55 l 1.2,1.2 z M 3.2,6.8 V 6 l -1.2,-1.2 V 3 q 0,-0.248 0.176,-0.424 Q 2.353,2.4 2.6,2.4 H 3.05 L 2.8,2.767 V 1.2 h 0.6 v 1.2 h 1.2 V 1.2 h 0.6 v 1.567 l -0.25,-0.367 h 0.45 q 0.248,0 0.424,0.176 0.176,0.176 0.176,0.424 v 1.8 l -1.2,1.2 V 6.8 Z M 4,4.625 Z"
    class="ColorScheme-PositiveText" fill="currentColor" />
</svg>