<svg height="8" width="8" xmlns="http://www.w3.org/2000/svg">
  <defs>
    <style type="text/css" id="current-color-scheme">
      .ColorScheme-NeutralText {
        color: #f9bd00;
      }

      .ColorScheme-Background {
        color: #1e2022;
      }
    </style>
    <path id="icon"
      d="M 1.714,7 V 3 H 4.857 V 2.429 q 0,-0.357 -0.25,-0.607 -0.25,-0.25 -0.607,-0.25 -0.357,0 -0.607,0.25 -0.25,0.25 -0.25,0.607 H 2.571 q 0,-0.593 0.418,-1.011 Q 3.407,1 4,1 q 0.593,0 1.011,0.418 0.418,0.418 0.418,1.011 V 3 H 6.286 V 7 Z M 2.286,6.429 H 5.714 V 3.571 H 2.286 Z M 4,5.571 q 0.236,0 0.404,-0.168 Q 4.571,5.236 4.571,5 4.571,4.764 4.404,4.596 4.236,4.429 4,4.429 q -0.236,0 -0.404,0.168 -0.168,0.168 -0.168,0.404 0,0.236 0.168,0.404 Q 3.764,5.571 4,5.571 Z M 2.286,6.429 V 3.571 Z" />
  </defs>
  <use href="#icon" class="ColorScheme-NeutralText" stroke="currentColor" stroke-width="1" />
  <use href="#icon" class="ColorScheme-Background" fill="currentColor" />
</svg>