<svg height="8" width="8" xmlns="http://www.w3.org/2000/svg">
  <style type="text/css" id="current-color-scheme">
    .ColorScheme-NeutralText {
      color: #f9bd00;
    }

    .ColorScheme-Background {
      color: #28292d;
    }
  </style>
  <rect width="8" height="8" opacity="0" />
  <path
    d="M 3.2,6.8 V 6 L 2,4.8 V 3.012 Q 2,2.817 2.108,2.65 2.217,2.484 2.392,2.392 l 0.608,0.608 h -0.4 v 1.55 l 1.2,1.2 v 0.45 h 0.4 v -0.45 l 0.35,-0.35 L 0.75,1.6 1.175,1.175 l 5.65,5.65 -0.425,0.425 -1.425,-1.425 -0.175,0.175 v 0.8 z m 2.625,-1.825 -0.425,-0.429 V 3 H 3.85 l -1.05,-1.05 V 1.2 h 0.6 V 2.4 H 4.6 V 1.2 h 0.6 v 1.6 l -0.317,-0.4 h 0.517 q 0.248,0 0.424,0.176 0.176,0.176 0.176,0.424 v 1.8 z m -1.225,-1.175 z M 3.6,4.409 Z"
    class="ColorScheme-Background" stroke-width="1" stroke="currentColor" />
  <path
    d="M 3.2,6.8 V 6 L 2,4.8 V 3.012 Q 2,2.817 2.108,2.65 2.217,2.484 2.392,2.392 l 0.608,0.608 h -0.4 v 1.55 l 1.2,1.2 v 0.45 h 0.4 v -0.45 l 0.35,-0.35 L 0.75,1.6 1.175,1.175 l 5.65,5.65 -0.425,0.425 -1.425,-1.425 -0.175,0.175 v 0.8 z m 2.625,-1.825 -0.425,-0.429 V 3 H 3.85 l -1.05,-1.05 V 1.2 h 0.6 V 2.4 H 4.6 V 1.2 h 0.6 v 1.6 l -0.317,-0.4 h 0.517 q 0.248,0 0.424,0.176 0.176,0.176 0.176,0.424 v 1.8 z m -1.225,-1.175 z M 3.6,4.409 Z"
    class="ColorScheme-NeutralText" fill="currentColor" />
</svg>