<svg height="8" width="8" xmlns="http://www.w3.org/2000/svg">
  <style type="text/css" id="current-color-scheme">
    .ColorScheme-NeutralText {
      color: #f9bd00;
    }

    .ColorScheme-Background {
      color: #28292d;
    }
  </style>
  <rect width="8" height="8" opacity="0" />
  <path
    d="M 2.2,2.8 H 5 V 2 q 0,-0.417 -0.292,-0.708 -0.292,-0.292 -0.708,-0.292 -0.417,0 -0.708,0.292 -0.292,0.292 -0.292,0.708 h -0.6 q 0,-0.667 0.469,-1.133 Q 3.337,0.4 4.002,0.4 4.667,0.4 5.133,0.868 5.6,1.336 5.6,2 v 0.8 h 0.2 q 0.248,0 0.424,0.176 0.176,0.176 0.176,0.424 v 3.2 q 0,0.247 -0.176,0.424 -0.176,0.176 -0.424,0.176 H 2.198 q -0.248,0 -0.423,-0.176 Q 1.6,6.847 1.6,6.6 V 3.4 q 0,-0.248 0.176,-0.424 0.176,-0.176 0.424,-0.176 z m 0,3.8 H 5.8 V 3.4 H 2.2 Z m 1.802,-1 q 0.248,0 0.423,-0.177 0.175,-0.177 0.175,-0.425 0,-0.248 -0.177,-0.423 -0.177,-0.175 -0.425,-0.175 -0.248,0 -0.423,0.177 -0.175,0.177 -0.175,0.425 0,0.248 0.177,0.423 0.177,0.175 0.425,0.175 z m -1.802,1 V 3.4 Z"
    class="ColorScheme-Background" stroke-width="1" stroke="currentColor" />
  <path
    d="M 2.2,2.8 H 5 V 2 q 0,-0.417 -0.292,-0.708 -0.292,-0.292 -0.708,-0.292 -0.417,0 -0.708,0.292 -0.292,0.292 -0.292,0.708 h -0.6 q 0,-0.667 0.469,-1.133 Q 3.337,0.4 4.002,0.4 4.667,0.4 5.133,0.868 5.6,1.336 5.6,2 v 0.8 h 0.2 q 0.248,0 0.424,0.176 0.176,0.176 0.176,0.424 v 3.2 q 0,0.247 -0.176,0.424 -0.176,0.176 -0.424,0.176 H 2.198 q -0.248,0 -0.423,-0.176 Q 1.6,6.847 1.6,6.6 V 3.4 q 0,-0.248 0.176,-0.424 0.176,-0.176 0.424,-0.176 z m 0,3.8 H 5.8 V 3.4 H 2.2 Z m 1.802,-1 q 0.248,0 0.423,-0.177 0.175,-0.177 0.175,-0.425 0,-0.248 -0.177,-0.423 -0.177,-0.175 -0.425,-0.175 -0.248,0 -0.423,0.177 -0.175,0.177 -0.175,0.425 0,0.248 0.177,0.423 0.177,0.175 0.425,0.175 z m -1.802,1 V 3.4 Z"
    class="ColorScheme-NeutralText" fill="currentColor" />
</svg>