<svg height="8" width="8" xmlns="http://www.w3.org/2000/svg">
  <defs>
    <style type="text/css" id="current-color-scheme">
      .ColorScheme-NegativeText {
        color: #ff5540;
      }

      .ColorScheme-Background {
        color: #1e2022;
      }
    </style>
    <path id="icon"
      d="M 4,5.5 Q 4.128,5.5 4.214,5.414 4.3,5.328 4.3,5.2 4.3,5.073 4.214,4.986 4.128,4.9 4,4.9 3.873,4.9 3.786,4.986 3.7,5.073 3.7,5.2 3.7,5.328 3.786,5.414 3.873,5.5 4,5.5 Z M 3.7,4.3 H 4.3 V 2.5 H 3.7 Z M 4,7 Q 3.378,7 2.83,6.764 2.283,6.528 1.878,6.123 1.473,5.718 1.236,5.17 1,4.623 1,4 1,3.378 1.236,2.83 1.473,2.283 1.878,1.878 2.283,1.473 2.83,1.236 3.378,1 4,1 4.623,1 5.17,1.236 5.718,1.473 6.123,1.878 6.528,2.283 6.764,2.83 7,3.378 7,4 7,4.623 6.764,5.17 6.528,5.718 6.123,6.123 5.718,6.528 5.17,6.764 4.623,7 4,7 Z M 4,6.4 Q 5.005,6.4 5.703,5.703 6.4,5.005 6.4,4 6.4,2.995 5.703,2.298 5.005,1.6 4,1.6 2.995,1.6 2.298,2.298 1.6,2.995 1.6,4 1.6,5.005 2.298,5.703 2.995,6.4 4,6.4 Z M 4,4 Z" />
  </defs>
  <use href="#icon" class="ColorScheme-NegativeText" stroke="currentColor" stroke-width="1" />
  <use href="#icon" class="ColorScheme-Background" fill="currentColor" />
</svg>