<svg height="8" width="8" xmlns="http://www.w3.org/2000/svg">
  <style type="text/css" id="current-color-scheme">
    .ColorScheme-Text {
      color: #e2e2e5;
    }

    .ColorScheme-Background {
      color: #28292d;
    }
  </style>
  <path
    d="M 2.4,5.6 q -0.664,0 -1.132,-0.469 -0.468,-0.468 -0.468,-1.133 0,-0.665 0.468,-1.131 0.468,-0.467 1.132,-0.467 h 3.2 q 0.664,0 1.132,0.469 0.468,0.468 0.468,1.133 0,0.665 -0.468,1.131 -0.468,0.467 -1.132,0.467 z"
    class="ColorScheme-Background" stroke="currentColor" fill="currentColor" />
  <path
    d="M 3.6,5.6 H 2.4 q -0.664,0 -1.132,-0.469 Q 0.8,4.663 0.8,3.998 0.8,3.333 1.268,2.867 1.736,2.4 2.4,2.4 H 3.6 V 3 H 2.4 q -0.417,0 -0.708,0.292 -0.292,0.292 -0.292,0.708 0,0.417 0.292,0.708 0.292,0.292 0.708,0.292 h 1.2 z m -0.8,-1.3 V 3.7 h 2.4 v 0.6 z m 1.6,1.3 v -0.6 h 1.2 q 0.417,0 0.708,-0.292 0.292,-0.292 0.292,-0.708 0,-0.417 -0.292,-0.708 Q 6.017,3 5.6,3 H 4.4 V 2.4 h 1.2 q 0.664,0 1.132,0.469 0.468,0.468 0.468,1.133 0,0.665 -0.468,1.131 -0.468,0.467 -1.132,0.467 z"
    class="ColorScheme-Text" fill="currentColor" />
</svg>