<svg height="8" width="8" xmlns="http://www.w3.org/2000/svg">
  <style type="text/css" id="current-color-scheme">
    .ColorScheme-Text {
      color: #e2e2e5;
    }

    .ColorScheme-Background {
      color: #28292d;
    }
  </style>
  <rect width="8" height="8" opacity="0" />
  <path
    d="m 3.566,5 q 0,-0.6 0.121,-0.896 0.121,-0.296 0.504,-0.629 0.358,-0.308 0.483,-0.496 0.125,-0.188 0.125,-0.421 0,-0.317 -0.225,-0.521 -0.225,-0.204 -0.575,-0.204 -0.308,0 -0.542,0.192 -0.233,0.192 -0.333,0.525 L 2.325,2.217 Q 2.5,1.667 2.962,1.333 3.425,1 4,1 q 0.742,0 1.208,0.429 0.467,0.429 0.467,1.104 0,0.35 -0.154,0.637 -0.154,0.288 -0.554,0.662 -0.342,0.317 -0.421,0.504 -0.079,0.188 -0.088,0.662 z m 0.433,1.8 q -0.25,0 -0.425,-0.175 -0.175,-0.175 -0.175,-0.425 0,-0.25 0.175,-0.425 0.175,-0.175 0.425,-0.175 0.25,0 0.425,0.175 0.175,0.175 0.175,0.425 0,0.25 -0.175,0.425 -0.175,0.175 -0.425,0.175 z"
    class="ColorScheme-Background" stroke-width="1" stroke="currentColor" />
  <path
    d="m 3.566,5 q 0,-0.6 0.121,-0.896 0.121,-0.296 0.504,-0.629 0.358,-0.308 0.483,-0.496 0.125,-0.188 0.125,-0.421 0,-0.317 -0.225,-0.521 -0.225,-0.204 -0.575,-0.204 -0.308,0 -0.542,0.192 -0.233,0.192 -0.333,0.525 L 2.325,2.217 Q 2.5,1.667 2.962,1.333 3.425,1 4,1 q 0.742,0 1.208,0.429 0.467,0.429 0.467,1.104 0,0.35 -0.154,0.637 -0.154,0.288 -0.554,0.662 -0.342,0.317 -0.421,0.504 -0.079,0.188 -0.088,0.662 z m 0.433,1.8 q -0.25,0 -0.425,-0.175 -0.175,-0.175 -0.175,-0.425 0,-0.25 0.175,-0.425 0.175,-0.175 0.425,-0.175 0.25,0 0.425,0.175 0.175,0.175 0.175,0.425 0,0.25 -0.175,0.425 -0.175,0.175 -0.425,0.175 z"
    class="ColorScheme-Text" fill="currentColor" />
</svg>