<svg height="8" width="8" xmlns="http://www.w3.org/2000/svg">
  <defs>
    <style type="text/css" id="current-color-scheme">
      .ColorScheme-Accent {
        color: #95ccff;
      }

      .ColorScheme-Background {
        color: #1e2022;
      }
    </style>
    <path id="icon"
      d="M 5.8,7 Q 5.425,7 5.163,6.738 4.9,6.475 4.9,6.1 4.9,6.055 4.923,5.89 L 2.815,4.66 Q 2.695,4.773 2.538,4.836 2.38,4.9 2.2,4.9 1.825,4.9 1.563,4.638 1.3,4.375 1.3,4 1.3,3.625 1.563,3.363 1.825,3.1 2.2,3.1 2.38,3.1 2.538,3.164 2.695,3.228 2.815,3.34 L 4.923,2.11 Q 4.908,2.058 4.904,2.009 4.9,1.96 4.9,1.9 4.9,1.525 5.163,1.263 5.425,1 5.8,1 6.175,1 6.438,1.263 6.7,1.525 6.7,1.9 6.7,2.275 6.438,2.538 6.175,2.8 5.8,2.8 5.62,2.8 5.463,2.736 5.305,2.673 5.185,2.56 L 3.078,3.79 Q 3.093,3.843 3.096,3.891 3.1,3.94 3.1,4 3.1,4.06 3.096,4.109 3.093,4.158 3.078,4.21 L 5.185,5.44 Q 5.305,5.328 5.463,5.264 5.62,5.2 5.8,5.2 6.175,5.2 6.438,5.463 6.7,5.725 6.7,6.1 6.7,6.475 6.438,6.738 6.175,7 5.8,7 Z m 0,-0.6 Q 5.928,6.4 6.014,6.314 6.1,6.228 6.1,6.1 6.1,5.973 6.014,5.886 5.928,5.8 5.8,5.8 5.673,5.8 5.586,5.886 5.5,5.973 5.5,6.1 5.5,6.228 5.586,6.314 5.673,6.4 5.8,6.4 Z M 2.2,4.3 Q 2.328,4.3 2.414,4.214 2.5,4.128 2.5,4 2.5,3.873 2.414,3.786 2.328,3.7 2.2,3.7 2.073,3.7 1.986,3.786 1.9,3.873 1.9,4 1.9,4.128 1.986,4.214 2.073,4.3 2.2,4.3 Z M 5.8,2.2 Q 5.928,2.2 6.014,2.114 6.1,2.027 6.1,1.9 6.1,1.773 6.014,1.686 5.928,1.6 5.8,1.6 5.673,1.6 5.586,1.686 5.5,1.773 5.5,1.9 5.5,2.027 5.586,2.114 5.673,2.2 5.8,2.2 Z m 0,3.9 z M 2.2,4 Z M 5.8,1.9 Z" />
  </defs>
  <use href="#icon" class="ColorScheme-Accent" stroke="currentColor" stroke-width="1" />
  <use href="#icon" class="ColorScheme-Background" fill="currentColor" />
</svg>