<svg height="8" width="8" xmlns="http://www.w3.org/2000/svg">
  <style type="text/css" id="current-color-scheme">
    .ColorScheme-Accent {
      color: #95ccff;
    }

    .ColorScheme-Background {
      color: #28292d;
    }
  </style>
  <rect width="8" height="8" opacity="0" />
  <path
    d="m 5.4,7.2 q -0.417,0 -0.708,-0.292 -0.292,-0.292 -0.292,-0.708 0,-0.075 0.033,-0.242 L 2.458,4.75 Q 2.325,4.867 2.158,4.933 q -0.167,0.067 -0.358,0.067 -0.417,0 -0.708,-0.292 Q 0.8,4.417 0.8,4 0.8,3.583 1.092,3.292 1.383,3 1.8,3 q 0.192,0 0.358,0.067 0.167,0.067 0.3,0.183 L 4.433,2.042 q -0.017,-0.058 -0.025,-0.115 -0.008,-0.057 -0.008,-0.127 0,-0.417 0.292,-0.708 Q 4.983,0.8 5.4,0.8 q 0.417,0 0.708,0.292 0.292,0.292 0.292,0.708 0,0.417 -0.292,0.708 -0.292,0.292 -0.708,0.292 -0.192,0 -0.358,-0.067 -0.167,-0.067 -0.3,-0.183 L 2.767,3.758 q 0.017,0.058 0.025,0.115 0.008,0.057 0.008,0.127 0,0.07 -0.008,0.127 -0.008,0.057 -0.025,0.115 L 4.742,5.45 Q 4.875,5.333 5.042,5.267 q 0.167,-0.067 0.358,-0.067 0.417,0 0.708,0.292 0.292,0.292 0.292,0.708 0,0.417 -0.292,0.708 -0.292,0.292 -0.708,0.292 z m 0,-0.6 q 0.17,0 0.285,-0.115 0.115,-0.115 0.115,-0.285 0,-0.17 -0.115,-0.285 -0.115,-0.115 -0.285,-0.115 -0.17,0 -0.285,0.115 -0.115,0.115 -0.115,0.285 0,0.17 0.115,0.285 0.115,0.115 0.285,0.115 z m -3.6,-2.2 q 0.17,0 0.285,-0.115 0.115,-0.115 0.115,-0.285 0,-0.17 -0.115,-0.285 -0.115,-0.115 -0.285,-0.115 -0.17,0 -0.285,0.115 -0.115,0.115 -0.115,0.285 0,0.17 0.115,0.285 0.115,0.115 0.285,0.115 z M 5.4,2.2 q 0.17,0 0.285,-0.115 0.115,-0.115 0.115,-0.285 0,-0.17 -0.115,-0.285 -0.115,-0.115 -0.285,-0.115 -0.17,0 -0.285,0.115 -0.115,0.115 -0.115,0.285 0,0.17 0.115,0.285 0.115,0.115 0.285,0.115 z m 0,4 z M 1.8,4 Z M 5.4,1.8 Z"
    class="ColorScheme-Background" stroke-width="1" stroke="currentColor" />
  <path
    d="m 5.4,7.2 q -0.417,0 -0.708,-0.292 -0.292,-0.292 -0.292,-0.708 0,-0.075 0.033,-0.242 L 2.458,4.75 Q 2.325,4.867 2.158,4.933 q -0.167,0.067 -0.358,0.067 -0.417,0 -0.708,-0.292 Q 0.8,4.417 0.8,4 0.8,3.583 1.092,3.292 1.383,3 1.8,3 q 0.192,0 0.358,0.067 0.167,0.067 0.3,0.183 L 4.433,2.042 q -0.017,-0.058 -0.025,-0.115 -0.008,-0.057 -0.008,-0.127 0,-0.417 0.292,-0.708 Q 4.983,0.8 5.4,0.8 q 0.417,0 0.708,0.292 0.292,0.292 0.292,0.708 0,0.417 -0.292,0.708 -0.292,0.292 -0.708,0.292 -0.192,0 -0.358,-0.067 -0.167,-0.067 -0.3,-0.183 L 2.767,3.758 q 0.017,0.058 0.025,0.115 0.008,0.057 0.008,0.127 0,0.07 -0.008,0.127 -0.008,0.057 -0.025,0.115 L 4.742,5.45 Q 4.875,5.333 5.042,5.267 q 0.167,-0.067 0.358,-0.067 0.417,0 0.708,0.292 0.292,0.292 0.292,0.708 0,0.417 -0.292,0.708 -0.292,0.292 -0.708,0.292 z m 0,-0.6 q 0.17,0 0.285,-0.115 0.115,-0.115 0.115,-0.285 0,-0.17 -0.115,-0.285 -0.115,-0.115 -0.285,-0.115 -0.17,0 -0.285,0.115 -0.115,0.115 -0.115,0.285 0,0.17 0.115,0.285 0.115,0.115 0.285,0.115 z m -3.6,-2.2 q 0.17,0 0.285,-0.115 0.115,-0.115 0.115,-0.285 0,-0.17 -0.115,-0.285 -0.115,-0.115 -0.285,-0.115 -0.17,0 -0.285,0.115 -0.115,0.115 -0.115,0.285 0,0.17 0.115,0.285 0.115,0.115 0.285,0.115 z M 5.4,2.2 q 0.17,0 0.285,-0.115 0.115,-0.115 0.115,-0.285 0,-0.17 -0.115,-0.285 -0.115,-0.115 -0.285,-0.115 -0.17,0 -0.285,0.115 -0.115,0.115 -0.115,0.285 0,0.17 0.115,0.285 0.115,0.115 0.285,0.115 z m 0,4 z M 1.8,4 Z M 5.4,1.8 Z"
    class="ColorScheme-Accent" fill="currentColor" />
</svg>