<svg height="8" width="8" xmlns="http://www.w3.org/2000/svg">
  <style type="text/css" id="current-color-scheme">
    .ColorScheme-NeutralText {
      color: #f9bd00;
    }

    .ColorScheme-Background {
      color: #28292d;
    }
  </style>
  <rect width="8" height="8" opacity="0" />
  <path
    d="M 0.4,6.8 4,0.8 7.6,6.8 Z M 1.458,6.2 H 6.542 L 4,1.967 Z m 2.54,-0.4 q 0.127,0 0.214,-0.086 0.088,-0.086 0.088,-0.213 0,-0.127 -0.086,-0.214 -0.086,-0.088 -0.213,-0.088 -0.127,0 -0.214,0.086 -0.088,0.086 -0.088,0.213 0,0.127 0.086,0.214 0.086,0.088 0.212,0.088 z m -0.298,-1 H 4.3 V 3.2 H 3.7 Z M 4,4.083 Z"
    class="ColorScheme-Background" stroke-width="1" stroke="currentColor" />
  <path
    d="M 0.4,6.8 4,0.8 7.6,6.8 Z M 1.458,6.2 H 6.542 L 4,1.967 Z m 2.54,-0.4 q 0.127,0 0.214,-0.086 0.088,-0.086 0.088,-0.213 0,-0.127 -0.086,-0.214 -0.086,-0.088 -0.213,-0.088 -0.127,0 -0.214,0.086 -0.088,0.086 -0.088,0.213 0,0.127 0.086,0.214 0.086,0.088 0.212,0.088 z m -0.298,-1 H 4.3 V 3.2 H 3.7 Z M 4,4.083 Z"
    class="ColorScheme-NeutralText" fill="currentColor" />
</svg>