<svg height="8" width="8" xmlns="http://www.w3.org/2000/svg">
  <style type="text/css" id="current-color-scheme">
    .ColorScheme-Accent {
      color: #95ccff;
    }

    .ColorScheme-Background {
      color: #28292d;
    }
  </style>
  <rect width="8" height="8" rx="1" class="ColorScheme-Accent" fill="currentColor" />
  <path
    d="m 4.1,3.8 h 0.6 v -0.6 h 0.6 V 2.6 h -0.6 V 2 H 4.1 v 0.6 h -0.6 v 0.6 h 0.6 z m -0.6,1.2 h 1.8 v -0.6 H 3.5 Z m -0.9,1.4 q -0.242,0 -0.421,-0.179 Q 2,6.042 2,5.8 V 1 q 0,-0.242 0.179,-0.421 Q 2.358,0.4 2.6,0.4 h 2.6 l 1.6,1.6 v 3.8 q 0,0.242 -0.179,0.421 -0.179,0.179 -0.421,0.179 z m 0,-0.6 H 6.2 V 2.25 l -1.25,-1.25 H 2.6 Z M 1.4,7.6 q -0.242,0 -0.421,-0.179 Q 0.8,7.242 0.8,7 V 2.4 h 0.6 v 4.6 h 3.6 v 0.6 z M 2.6,5.8 V 1 Z"
    class="ColorScheme-Background" fill="currentColor" />
</svg>