<svg height="8" width="8" xmlns="http://www.w3.org/2000/svg">
  <defs>
    <style type="text/css" id="current-color-scheme">
      .ColorScheme-NeutralText {
        color: #f9bd00;
      }

      .ColorScheme-Background {
        color: #1e2022;
      }
    </style>
    <path id="icon"
      d="m 4,7 q -0.625,0 -1.171,-0.238 -0.546,-0.238 -0.95,-0.642 Q 1.475,5.717 1.238,5.171 1,4.625 1,4 1,3.375 1.238,2.829 1.475,2.283 1.879,1.879 2.283,1.475 2.829,1.238 3.375,1 4,1 q 0.683,0 1.296,0.292 0.613,0.292 1.038,0.825 V 1.333 H 7 v 2 H 5 V 2.667 H 5.917 Q 5.575,2.2 5.075,1.933 4.575,1.667 4,1.667 q -0.975,0 -1.654,0.679 -0.679,0.679 -0.679,1.654 0,0.975 0.679,1.654 Q 3.025,6.333 4,6.333 q 0.875,0 1.529,-0.567 Q 6.183,5.2 6.3,4.333 H 6.983 Q 6.858,5.475 6.004,6.237 5.15,7 4,7 Z m 0.933,-1.6 -1.267,-1.267 v -1.8 H 4.333 V 3.867 L 5.4,4.933 Z" />
  </defs>
  <use href="#icon" class="ColorScheme-NeutralText" stroke="currentColor" stroke-width="1" />
  <use href="#icon" class="ColorScheme-Background" fill="currentColor" />
</svg>