<svg viewBox="0 0 16 16" xmlns="http://www.w3.org/2000/svg">
  <defs>
    <style type="text/css" id="current-color-scheme">
      .ColorScheme-Text {
        color: #e2e2e5;
      }
    </style>
  </defs>
  <path
    d="M 6.773 2.313 C 6.222 2.435 5.677 2.604 5.166 2.861 C 5.178 3.313 5.206 3.746 5.266 4.186 C 5.067 4.313 4.859 4.421 4.674 4.57 C 4.485 4.715 4.292 4.854 4.121 5.023 C 3.78 4.798 3.42 4.585 3.049 4.398 C 2.648 4.829 2.275 5.296 1.969 5.816 C 2.209 6.194 2.466 6.573 2.705 6.869 L 2.705 9.439 L 2.705 9.766 L 2.705 10.063 C 2.711 10.063 2.717 10.064 2.723 10.064 L 4.682 10.254 C 4.784 10.264 4.864 10.346 4.871 10.449 L 4.932 11.313 L 6.641 11.436 L 6.758 10.637 C 6.773 10.533 6.862 10.457 6.967 10.457 L 9.033 10.457 C 9.138 10.457 9.227 10.533 9.242 10.637 L 9.359 11.436 L 11.068 11.313 L 11.129 10.449 C 11.136 10.346 11.216 10.264 11.318 10.254 L 13.277 10.064 C 13.283 10.064 13.289 10.063 13.295 10.063 L 13.295 9.809 L 13.295 6.869 C 13.571 6.522 13.831 6.139 14.031 5.816 C 13.725 5.296 13.352 4.829 12.951 4.398 C 12.58 4.585 12.22 4.798 11.879 5.023 C 11.708 4.854 11.515 4.715 11.326 4.57 C 11.141 4.421 10.932 4.313 10.734 4.186 C 10.793 3.746 10.822 3.313 10.834 2.861 C 10.323 2.604 9.778 2.435 9.227 2.313 C 9.006 2.682 8.806 3.083 8.631 3.475 C 8.423 3.44 8.213 3.426 8.004 3.424 C 8.002 3.424 8.001 3.424 8 3.424 C 7.999 3.424 7.997 3.424 7.996 3.424 C 7.787 3.426 7.577 3.44 7.369 3.475 C 7.194 3.083 6.994 2.682 6.773 2.313 z M 5.223 6.986 C 5.875 6.986 6.404 7.514 6.404 8.166 C 6.404 8.818 5.875 9.346 5.223 9.346 C 4.571 9.346 4.043 8.818 4.043 8.166 C 4.043 7.514 4.571 6.986 5.223 6.986 z M 10.777 6.986 C 11.429 6.986 11.957 7.514 11.957 8.166 C 11.957 8.818 11.429 9.346 10.777 9.346 C 10.125 9.346 9.596 8.818 9.596 8.166 C 9.596 7.514 10.125 6.986 10.777 6.986 z M 2.701 10.486 C 2.702 10.676 2.705 10.883 2.705 10.924 C 2.705 12.784 5.064 13.677 7.996 13.688 L 8 13.688 L 8.004 13.688 C 10.936 13.677 13.295 12.784 13.295 10.924 C 13.295 10.882 13.296 10.676 13.297 10.486 L 11.537 10.656 L 11.477 11.525 C 11.469 11.63 11.386 11.713 11.281 11.721 L 9.195 11.869 C 9.19 11.87 9.185 11.869 9.18 11.869 C 9.076 11.869 8.986 11.794 8.971 11.689 L 8.852 10.879 L 7.148 10.879 L 7.029 11.689 C 7.013 11.799 6.915 11.877 6.805 11.869 L 4.719 11.721 C 4.614 11.713 4.531 11.63 4.523 11.525 L 4.463 10.656 L 2.701 10.486 z"
    class="ColorScheme-Text" fill="currentColor" />
</svg>