<svg height="16" width="16" xmlns="http://www.w3.org/2000/svg">
  <style type="text/css" id="current-color-scheme">
    .ColorScheme-Text {
      color: #e2e2e5;
    }
  </style>
  <path
    d="m 11.469,10.136 c -0.458,0.448 -1.084,0.724 -1.776,0.724 -0.689,0 -1.313,-0.274 -1.771,-0.719 l 7.5e-4,7.5e-4 C 7.715,9.933 7.55,9.68 7.444,9.399 l -0.005,-0.015 C 7.364,9.183 7.321,8.95 7.321,8.708 7.321,8.353 7.413,8.019 7.576,7.73 l -0.005,0.01 C 7.712,7.489 7.892,7.277 8.105,7.103 l 0.004,-0.003 c 0.432,-0.345 0.987,-0.554 1.59,-0.554 0.6,0 1.152,0.207 1.589,0.553 l -0.005,-0.004 c 0.217,0.176 0.397,0.388 0.532,0.628 l 0.006,0.011 c 0.13,0.23 0.217,0.501 0.243,0.789 l 7.4e-4,0.008 c 0.004,0.051 0.007,0.11 0.007,0.17 0,0.243 -0.044,0.475 -0.123,0.689 l 0.004,-0.014 c -0.111,0.296 -0.275,0.55 -0.484,0.76 v 0 z M 5.822,9.323 C 5.837,9.561 5.88,9.784 5.947,9.996 l -0.005,-0.02 c 0.161,0.5 0.416,0.93 0.746,1.29 l -0.002,-0.003 c 0.357,0.392 0.791,0.708 1.277,0.925 l 0.024,0.01 c 0.501,0.224 1.087,0.355 1.703,0.355 0.621,0 1.21,-0.133 1.742,-0.372 l -0.027,0.011 c 0.511,-0.229 0.943,-0.546 1.298,-0.936 l 0.003,-0.003 c 0.327,-0.358 0.582,-0.789 0.737,-1.266 l 0.007,-0.025 c 0.095,-0.292 0.15,-0.627 0.15,-0.975 0,-0.163 -0.012,-0.322 -0.035,-0.478 l 0.002,0.018 C 13.496,8.039 13.329,7.6 13.085,7.216 l 0.008,0.014 C 12.858,6.856 12.57,6.54 12.236,6.281 l -0.008,-0.006 h 10e-4 L 8.717,3.579 C 8.595,3.496 8.445,3.447 8.284,3.447 c -0.162,0 -0.313,0.05 -0.438,0.135 l 0.003,-0.002 C 7.723,3.647 7.639,3.778 7.639,3.929 c 0,0.126 0.059,0.239 0.152,0.311 l 7.5e-4,7.4e-4 -3.7e-4,3.8e-4 1.46,1.188 -4.457,0.004 c -0.007,-3.7e-4 -0.016,-3.7e-4 -0.024,-3.7e-4 -0.354,0 -0.655,0.227 -0.766,0.542 l -0.002,0.006 C 3.929,6.291 4.179,6.549 4.562,6.551 v 7.5e-4 l 2.256,-0.004 -4.042,3.102 c -0.227,0.142 -0.376,0.39 -0.376,0.673 0,0.15 0.042,0.291 0.115,0.411 l -0.002,-0.003 c 0.147,0.146 0.349,0.236 0.572,0.236 0.222,0 0.424,-0.089 0.571,-0.234 v 0 L 5.853,8.935 c -0.016,0.114 -0.027,0.249 -0.03,0.385 v 0.003 z M 8.232,8.567 C 8.258,8.189 8.439,7.857 8.711,7.632 l 0.002,-0.002 C 8.992,7.4 9.353,7.261 9.746,7.261 c 0.394,0 0.754,0.139 1.036,0.371 l -0.003,-0.002 c 0.274,0.227 0.455,0.558 0.48,0.933 l 3.8e-4,0.004 c 10e-4,0.019 10e-4,0.04 10e-4,0.062 0,0.371 -0.155,0.706 -0.405,0.943 l -7.5e-4,3.8e-4 c -0.289,0.271 -0.68,0.438 -1.109,0.438 -0.429,0 -0.82,-0.167 -1.11,-0.439 l 7.5e-4,7.5e-4 C 8.386,9.335 8.23,9 8.23,8.629 c 0,-0.022 3.7e-4,-0.043 10e-4,-0.065 v 0.003 z"
    class="ColorScheme-Text" fill="currentColor" />
</svg>