<svg height="16" width="16" xmlns="http://www.w3.org/2000/svg">
  <style type="text/css" id="current-color-scheme">
    .ColorScheme-Text {
      color: #e2e2e5;
    }

    .ColorScheme-NegativeText {
      color: #ff5540;
    }
  </style>
  <path
    d="m 8,12.4 q 0.811,0 1.389,-0.583 0.578,-0.583 0.611,-1.417 V 7.2 Q 10.033,6.367 9.442,5.783 8.85,5.2 8.008,5.2 q -0.842,0 -1.417,0.583 -0.575,0.583 -0.592,1.417 v 3.2 q -0.017,0.833 0.567,1.417 0.583,0.583 1.433,0.583 z m -1.2,-2 h 2.4 V 9.2 h -2.4 z m 0,-2 h 2.4 V 7.2 h -2.4 z m 1.2,0.433 z m 0,4.767 q -1,0 -1.817,-0.542 Q 5.367,12.517 5.033,11.6 H 3.2 v -1.2 H 4.8 V 9.4 H 3.2 V 8.2 H 4.8 V 7.2 H 3.2 v -1.2 H 5.033 Q 5.167,5.567 5.463,5.215 5.76,4.864 6.15,4.6 L 4.8,3.25 5.65,2.4 7.333,4.067 q 0.331,-0.083 0.674,-0.083 0.343,0 0.676,0.083 L 10.35,2.4 11.2,3.25 9.85,4.6 q 0.383,0.267 0.667,0.617 0.283,0.35 0.45,0.783 h 1.833 v 1.2 h -1.6 v 1 h 1.6 v 1.2 h -1.6 v 1 h 1.6 v 1.2 h -1.833 q -0.333,0.917 -1.15,1.458 -0.817,0.542 -1.817,0.542 z"
    class="ColorScheme-NegativeText" fill="currentColor" />
</svg>