<svg viewBox="0 0 16 16" xmlns="http://www.w3.org/2000/svg">
  <defs>
    <style type="text/css" id="current-color-scheme">
      .ColorScheme-Text {
        color: #e2e2e5;
      }
    </style>
  </defs>
  <path
    d="m 2.667,14 v -2.833 l 9.733,-9.7 2.8,2.8 -9.7,9.733 z M 4,12.667 H 4.933 L 11.483,6.133 11.017,5.65 10.533,5.183 4,11.733 Z m 9.333,-8.383 -0.95,-0.95 z m -2.317,1.367 -0.483,-0.467 0.95,0.95 z m 1.65,6.017 q 0,-0.6 -0.317,-1.033 -0.317,-0.433 -0.85,-0.75 l -0.983,0.983 q 0.383,0.167 0.6,0.367 0.217,0.2 0.217,0.433 0,0.383 -0.692,0.692 -0.692,0.308 -1.975,0.308 v 1.333 q 1.733,0 2.867,-0.617 1.133,-0.617 1.133,-1.717 z m -9.617,-2.767 1,-1 q -0.35,-0.133 -0.533,-0.283 -0.183,-0.15 -0.183,-0.283 0,-0.2 0.308,-0.408 Q 3.95,6.717 4.9,6.317 6.25,5.733 6.792,5.225 q 0.542,-0.508 0.542,-1.225 0,-0.95 -0.658,-1.475 Q 6.017,2 4.833,2 4.1,2 3.358,2.367 q -0.742,0.367 -1.275,0.967 l 0.917,0.883 q 0.417,-0.417 0.908,-0.65 0.492,-0.233 0.925,-0.233 0.567,0 0.867,0.167 0.3,0.167 0.3,0.5 0,0.233 -0.275,0.425 -0.275,0.192 -1.358,0.675 Q 3,5.733 2.5,6.2 2,6.667 2,7.333 q 0,0.483 0.258,0.875 0.258,0.392 0.792,0.692 z"
    class="ColorScheme-Text" fill="currentColor" />
</svg>