<svg height="16" width="16" xmlns="http://www.w3.org/2000/svg">
  <style type="text/css" id="current-color-scheme">
    .ColorScheme-Text {
      color: #e2e2e5;
    }
  </style>
  <path
    d="M 11.1,13.283 7.917,10.1 q -0.333,0.133 -0.725,0.208 -0.392,0.075 -0.792,0.075 -1.65,0 -2.825,-1.167 Q 2.4,8.05 2.4,6.4 2.4,5.77 2.558,5.202 2.717,4.633 3.033,4.15 L 5.433,6.55 6.6,5.383 4.2,2.983 Q 4.683,2.7 5.242,2.55 5.8,2.4 6.4,2.4 q 1.667,0 2.833,1.183 1.167,1.183 1.167,2.836 0,0.38 -0.075,0.705 -0.075,0.325 -0.208,0.658 l 3.25,3.233 q 0.233,0.239 0.233,0.578 0,0.339 -0.233,0.572 l -1.133,1.117 q -0.235,0.233 -0.567,0.233 -0.333,0 -0.566,-0.233 z m 0.567,-1.133 0.583,-0.567 -3.583,-3.55 q 0.333,-0.4 0.433,-0.875 0.1,-0.475 0.1,-0.742 0,-1.114 -0.792,-1.94 Q 7.617,3.65 6.5,3.6 l 1.367,1.35 q 0.183,0.186 0.183,0.435 0,0.248 -0.188,0.435 L 5.855,7.813 q -0.188,0.187 -0.424,0.187 -0.236,0 -0.414,-0.183 L 3.6,6.4 q 0,1.15 0.825,1.967 0.825,0.817 1.975,0.817 0.283,0 0.783,-0.117 0.5,-0.117 0.933,-0.467 z M 7.933,7.867 Z"
    class="ColorScheme-Text" fill="currentColor" />
</svg>