<svg height="16" width="16" xmlns="http://www.w3.org/2000/svg">
  <style type="text/css" id="current-color-scheme">
    .ColorScheme-Text {
      color: #e2e2e5;
    }
  </style>
  <path
    d="m 3.6,13.6 q -0.55,0 -0.875,-0.325 Q 2.4,12.95 2.4,12.4 V 3.6 Q 2.4,3.05 2.725,2.725 3.05,2.4 3.6,2.4 h 8.8 q 0.55,0 0.875,0.325 0.325,0.325 0.325,0.875 v 8.8 q 0,0.55 -0.325,0.875 -0.325,0.325 -0.875,0.325 z M 7.4,9.8 H 3.6 v 2.6 h 3.8 z m 1.2,0 V 12.4 H 12.4 V 9.8 Z m -1.2,-1.2 V 6 H 3.6 v 2.6 z m 1.2,0 H 12.4 V 6 H 8.6 Z M 3.6,4.8 H 12.4 V 3.6 H 3.6 Z"
    class="ColorScheme-Text" fill="currentColor" />
</svg>