<svg height="16" width="16" xmlns="http://www.w3.org/2000/svg">
  <style type="text/css" id="current-color-scheme">
    .ColorScheme-Text {
      color: #e2e2e5;
    }
  </style>
  <path
    d="m 5.396,11.2 q 0.254,0 0.428,-0.172 0.175,-0.172 0.175,-0.425 0,-0.254 -0.172,-0.429 -0.171,-0.175 -0.425,-0.175 -0.253,0 -0.428,0.171 -0.175,0.172 -0.175,0.425 0,0.254 0.172,0.429 0.172,0.175 0.425,0.175 z m 0,-2.6 q 0.254,0 0.428,-0.172 0.175,-0.172 0.175,-0.425 0,-0.254 -0.172,-0.429 -0.171,-0.175 -0.425,-0.175 -0.253,0 -0.428,0.172 -0.175,0.172 -0.175,0.425 0,0.254 0.172,0.429 0.172,0.175 0.425,0.175 z m 0,-2.6 q 0.254,0 0.428,-0.172 0.175,-0.171 0.175,-0.425 0,-0.253 -0.172,-0.428 -0.171,-0.175 -0.425,-0.175 -0.253,0 -0.428,0.172 -0.175,0.172 -0.175,0.425 0,0.254 0.172,0.428 0.172,0.175 0.425,0.175 z M 7.2,11.2 H 11.2 V 10 H 7.2 Z m 0,-2.6 h 4 v -1.2 H 7.2 Z m 0,-2.6 H 11.2 V 4.8 H 7.2 Z M 3.6,13.6 q -0.495,0 -0.847,-0.353 Q 2.4,12.895 2.4,12.4 V 3.6 Q 2.4,3.105 2.752,2.752 3.105,2.4 3.6,2.4 h 8.8 q 0.495,0 0.848,0.352 0.353,0.353 0.353,0.847 v 8.8 q 0,0.495 -0.353,0.848 -0.353,0.353 -0.848,0.353 z m 0,-1.2 H 12.4 V 3.6 H 3.6 Z m 0,-8.8 v 8.8 z"
    class="ColorScheme-Text" fill="currentColor" />
</svg>