<svg viewBox="0 0 16 16" xmlns="http://www.w3.org/2000/svg">
  <defs>
    <style type="text/css" id="current-color-scheme">
      .ColorScheme-Text {
        color: #e2e2e5;
      }
    </style>
  </defs>
  <path
    d="M 7.623 1.996 C 7.543 1.996 7.113 2.165 7.1 2.201 L 7.1 2.203 C 7.083 2.252 7.139 2.245 7.355 2.172 C 7.549 2.106 7.717 1.996 7.623 1.996 z M 11.273 2.102 C 11.245 2.06 11.219 2.162 11.215 2.363 L 11.213 2.363 C 11.21 2.557 11.217 2.615 11.244 2.594 C 11.294 2.555 11.329 2.322 11.303 2.191 C 11.294 2.144 11.283 2.115 11.273 2.102 z M 9.664 2.152 C 9.58 2.156 9.487 2.179 9.414 2.219 C 9.294 2.286 9.295 2.285 8.971 2.234 C 8.793 2.206 8.475 2.173 8.264 2.162 C 7.931 2.145 7.881 2.149 7.881 2.189 C 7.881 2.221 7.83 2.248 7.723 2.27 C 7.636 2.288 7.508 2.329 7.438 2.363 C 7.368 2.397 7.303 2.418 7.293 2.408 C 7.284 2.4 7.294 2.391 7.318 2.391 C 7.354 2.39 7.355 2.385 7.316 2.359 C 7.277 2.334 7.28 2.324 7.332 2.334 C 7.408 2.341 7.504 2.305 7.504 2.268 C 7.504 2.234 7.337 2.23 7.229 2.258 C 7.186 2.269 7.162 2.29 7.172 2.314 C 7.183 2.341 7.151 2.36 7.072 2.373 C 7.008 2.383 6.906 2.404 6.846 2.418 C 6.74 2.443 6.739 2.441 6.807 2.396 C 6.845 2.37 6.877 2.339 6.877 2.324 C 6.877 2.274 6.78 2.298 6.561 2.404 C 6.44 2.462 6.317 2.504 6.287 2.494 C 6.179 2.461 5.01 3.428 4.762 3.756 C 4.704 3.832 4.65 3.875 4.617 3.865 C 4.582 3.858 4.546 3.891 4.512 3.955 C 4.483 4.01 4.371 4.19 4.264 4.355 C 4.02 4.731 3.941 4.878 3.883 5.072 C 3.858 5.156 3.819 5.266 3.795 5.316 C 3.772 5.366 3.731 5.551 3.705 5.727 C 3.659 6.048 3.612 6.187 3.561 6.156 C 3.546 6.15 3.526 6.156 3.518 6.168 C 3.476 6.233 3.399 6.853 3.375 7.311 C 3.35 7.794 3.352 7.841 3.41 7.986 C 3.444 8.071 3.526 8.346 3.592 8.594 C 3.855 9.591 3.946 9.882 4.115 10.26 C 4.622 11.396 5.443 12.306 6.699 13.125 C 7.271 13.498 8.194 13.864 8.838 13.971 L 8.838 13.963 C 9.002 13.986 9.287 14.004 9.707 13.994 C 10.24 13.988 10.379 13.978 10.639 13.918 C 10.836 13.872 10.943 13.833 10.943 13.807 C 10.943 13.771 10.903 13.768 10.779 13.779 C 9.941 13.852 9.73 13.828 9.309 13.602 C 9.008 13.44 8.92 13.412 9.004 13.51 C 9.061 13.576 8.966 13.571 8.738 13.496 C 8.638 13.463 8.523 13.436 8.482 13.436 C 8.418 13.436 8.411 13.429 8.439 13.379 C 8.492 13.285 8.478 13.256 8.377 13.256 C 8.274 13.256 8.153 13.205 7.955 13.076 C 7.856 13.008 7.812 12.999 7.742 13.018 C 7.665 13.039 7.634 13.025 7.508 12.916 C 7.309 12.743 7.255 12.679 7.254 12.617 C 7.253 12.561 7.19 12.549 7.141 12.594 C 7.122 12.611 6.993 12.521 6.801 12.361 C 6.63 12.218 6.507 12.102 6.527 12.092 C 6.593 12.071 6.565 12.001 6.477 11.969 C 6.336 11.917 6.273 11.855 6.295 11.789 C 6.31 11.743 6.279 11.702 6.158 11.604 C 6.071 11.535 5.98 11.446 5.955 11.41 C 5.912 11.347 5.915 11.345 6.002 11.357 C 6.137 11.376 6.115 11.322 5.912 11.117 C 5.717 10.92 5.59 10.85 5.465 10.873 C 5.408 10.884 5.354 10.867 5.283 10.809 C 5.141 10.695 4.988 10.472 5.037 10.455 C 5.063 10.446 5.041 10.406 4.975 10.34 C 4.903 10.268 4.865 10.19 4.842 10.074 C 4.822 9.977 4.778 9.881 4.734 9.836 C 4.545 9.642 4.447 9.329 4.277 8.393 C 4.138 7.625 4.138 7.642 4.266 7.096 C 4.354 6.721 4.359 6.65 4.295 6.65 C 4.234 6.65 4.232 6.661 4.344 6.389 C 4.595 5.78 5.061 5.114 5.328 4.99 C 5.449 4.934 5.531 4.84 5.531 4.754 C 5.531 4.73 5.509 4.728 5.482 4.738 C 5.444 4.753 5.446 4.741 5.494 4.676 C 5.616 4.514 5.77 4.4 6.006 4.297 C 6.146 4.236 6.261 4.164 6.283 4.125 C 6.317 4.064 6.315 4.058 6.252 4.074 C 6.214 4.084 6.187 4.096 6.193 4.086 C 6.199 4.081 6.314 3.98 6.449 3.861 C 6.672 3.664 7.018 3.443 6.914 3.564 C 6.891 3.591 6.885 3.619 6.902 3.629 C 6.918 3.638 6.95 3.626 6.971 3.602 C 7.017 3.549 7.287 3.424 7.564 3.33 C 8.131 3.138 8.927 3.091 9.396 3.221 C 9.947 3.374 10.529 3.72 10.992 4.168 C 11.314 4.479 11.521 4.766 11.639 5.063 C 11.674 5.151 11.714 5.228 11.729 5.238 C 11.777 5.267 11.985 6.089 12.006 6.334 C 12.021 6.519 12.036 6.574 12.072 6.574 C 12.111 6.574 12.116 6.619 12.107 6.83 C 12.097 7.067 12.09 7.094 12.002 7.182 C 11.911 7.273 11.908 7.285 11.928 7.467 L 11.949 7.656 L 11.76 7.945 C 11.59 8.203 11.26 8.606 11.4 8.385 C 11.442 8.317 11.444 8.301 11.408 8.301 C 11.383 8.301 11.303 8.389 11.23 8.496 C 11.098 8.689 10.987 8.79 10.805 8.879 C 10.753 8.904 10.632 8.967 10.537 9.018 C 10.3 9.144 10.043 9.201 9.725 9.201 C 9.112 9.201 8.464 8.908 8.064 8.447 C 7.898 8.255 7.658 7.827 7.658 7.721 C 7.658 7.69 7.643 7.67 7.615 7.68 C 7.582 7.692 7.563 7.643 7.537 7.473 C 7.491 7.177 7.494 7.093 7.553 6.795 C 7.641 6.35 7.887 6.003 8.332 5.703 C 8.646 5.491 8.862 5.434 9.303 5.434 C 9.617 5.436 9.706 5.447 9.844 5.502 C 9.935 5.538 10.026 5.567 10.047 5.566 C 10.135 5.564 9.843 5.381 9.613 5.293 C 9.41 5.215 9.307 5.195 9.063 5.184 C 8.558 5.162 8.169 5.311 7.795 5.67 C 7.583 5.873 7.377 6.188 7.377 6.307 C 7.377 6.334 7.348 6.4 7.313 6.455 C 7.174 6.671 7.092 7.359 7.168 7.672 C 7.375 8.527 7.793 8.976 8.793 9.424 C 9.11 9.565 9.201 9.647 8.965 9.578 C 8.748 9.515 8.448 9.391 8.35 9.324 C 8.242 9.25 8.221 9.248 8.221 9.307 C 8.221 9.338 8.163 9.317 8.027 9.234 C 7.921 9.17 7.822 9.123 7.807 9.133 C 7.727 9.181 8.251 9.528 8.604 9.662 C 9.124 9.855 9.712 9.936 10.152 9.865 C 10.411 9.823 10.848 9.639 10.799 9.592 C 10.778 9.579 10.738 9.58 10.678 9.602 C 10.527 9.657 10.193 9.716 9.91 9.738 C 9.694 9.755 9.605 9.747 9.455 9.703 L 9.27 9.648 L 9.646 9.629 C 10.063 9.606 10.312 9.558 10.682 9.428 C 11.31 9.208 11.863 8.74 12.213 8.137 C 12.343 7.913 12.385 7.873 12.385 7.98 C 12.385 8.065 12.461 8.037 12.475 7.947 C 12.481 7.908 12.467 7.83 12.447 7.77 C 12.419 7.688 12.419 7.63 12.447 7.531 C 12.48 7.413 12.487 7.406 12.535 7.445 C 12.653 7.541 12.667 7.537 12.648 7.402 C 12.638 7.331 12.652 7.16 12.68 7.021 C 12.707 6.882 12.731 6.687 12.734 6.586 L 12.74 6.402 L 12.758 6.574 C 12.777 6.752 12.832 6.811 12.85 6.672 C 12.86 6.598 12.823 6.408 12.777 6.281 C 12.755 6.224 12.757 6.224 12.805 6.281 C 12.881 6.37 12.892 6.324 12.84 6.133 C 12.806 6.007 12.799 5.887 12.813 5.707 C 12.833 5.463 12.816 5.417 12.738 5.492 C 12.688 5.539 12.598 5.357 12.594 5.203 C 12.592 5.119 12.571 5.067 12.527 5.033 C 12.492 5.006 12.437 4.94 12.404 4.885 L 12.344 4.783 L 12.432 4.852 C 12.481 4.889 12.527 4.914 12.535 4.904 C 12.543 4.897 12.508 4.818 12.457 4.73 C 12.406 4.642 12.345 4.525 12.322 4.467 C 12.252 4.289 12.099 4.163 12.066 4.258 C 12.06 4.275 12.024 4.231 11.986 4.16 L 11.918 4.029 L 11.988 4.02 C 12.026 4.015 12.075 3.991 12.094 3.967 C 12.123 3.931 12.16 3.96 12.301 4.127 C 12.396 4.239 12.569 4.472 12.686 4.645 C 12.803 4.818 12.903 4.945 12.91 4.926 C 12.925 4.882 12.861 4.76 12.633 4.402 C 12.532 4.244 12.449 4.098 12.449 4.078 C 12.449 4.058 12.426 4 12.398 3.947 L 12.348 3.852 L 12.414 3.908 C 12.531 4.008 12.524 3.935 12.4 3.77 C 11.879 3.075 11.175 2.58 10.313 2.303 C 10.046 2.215 9.978 2.213 10.047 2.293 C 10.083 2.336 10.076 2.336 9.99 2.293 C 9.937 2.267 9.876 2.223 9.854 2.197 C 9.823 2.162 9.748 2.149 9.664 2.152 z M 8.059 2.281 C 8.082 2.27 8.109 2.271 8.119 2.281 L 8.119 2.283 C 8.129 2.289 8.111 2.301 8.078 2.301 C 8.041 2.3 8.034 2.291 8.059 2.281 z M 8.275 2.309 C 8.348 2.299 8.461 2.299 8.525 2.309 C 8.585 2.311 8.529 2.32 8.393 2.32 C 8.255 2.32 8.201 2.319 8.275 2.309 z M 8.729 2.34 C 8.76 2.33 8.808 2.33 8.838 2.34 C 8.868 2.344 8.843 2.354 8.783 2.354 C 8.723 2.354 8.699 2.35 8.729 2.34 z M 7.971 2.35 C 8.005 2.342 8.026 2.346 8.016 2.361 C 8.006 2.375 7.976 2.389 7.951 2.389 C 7.887 2.389 7.898 2.369 7.971 2.35 z M 8.965 2.371 C 8.988 2.36 9.015 2.361 9.025 2.371 L 9.025 2.373 C 9.035 2.379 9.017 2.391 8.984 2.391 C 8.947 2.39 8.94 2.381 8.965 2.371 z M 7.781 2.396 L 7.891 2.396 L 7.766 2.42 L 7.766 2.422 C 7.697 2.434 7.61 2.453 7.576 2.465 C 7.536 2.48 7.543 2.469 7.594 2.439 C 7.637 2.414 7.721 2.396 7.781 2.396 z M 6.99 2.52 C 6.997 2.526 6.902 2.564 6.781 2.602 C 6.63 2.651 6.551 2.662 6.529 2.641 C 6.507 2.621 6.449 2.624 6.346 2.658 C 6.263 2.685 6.153 2.732 6.104 2.76 L 6.014 2.811 L 6.098 2.746 C 6.22 2.651 6.505 2.559 6.535 2.605 C 6.552 2.632 6.61 2.625 6.768 2.574 C 6.883 2.538 6.983 2.51 6.99 2.52 z M 7.4 2.523 C 7.407 2.53 7.337 2.556 7.246 2.582 C 7.064 2.633 7.063 2.635 7.063 2.617 C 7.063 2.599 7.385 2.509 7.4 2.523 z M 5.992 2.811 C 6.001 2.811 5.982 2.836 5.951 2.869 C 5.92 2.902 5.888 2.93 5.879 2.93 C 5.87 2.93 5.889 2.902 5.92 2.869 C 5.951 2.836 5.983 2.811 5.992 2.811 z M 5.623 3.111 C 5.625 3.113 5.614 3.125 5.596 3.146 C 5.555 3.198 5.527 3.213 5.527 3.189 C 5.527 3.183 5.552 3.16 5.582 3.137 C 5.607 3.118 5.621 3.11 5.623 3.111 z M 3.18 5.885 C 3.101 5.882 3.1 5.887 3.102 6.057 C 3.103 6.154 3.113 6.232 3.125 6.232 C 3.182 6.232 3.279 6.064 3.27 5.979 C 3.263 5.903 3.247 5.885 3.18 5.885 z M 10.656 6.297 C 10.627 6.291 10.602 6.313 10.588 6.367 C 10.574 6.42 10.588 6.47 10.637 6.533 C 10.755 6.687 10.829 6.595 10.744 6.4 C 10.717 6.337 10.685 6.303 10.656 6.297 z M 12.719 6.318 C 12.729 6.34 12.727 6.367 12.717 6.377 C 12.707 6.388 12.698 6.37 12.699 6.338 C 12.701 6.303 12.709 6.294 12.719 6.318 z M 3.127 6.842 C 3.099 6.833 3.088 6.879 3.088 7.01 C 3.088 7.109 3.097 7.21 3.107 7.236 C 3.117 7.262 3.138 7.283 3.154 7.283 C 3.2 7.283 3.174 6.857 3.127 6.842 z M 10.729 7.092 C 10.714 7.083 10.692 7.15 10.68 7.24 C 10.667 7.337 10.633 7.433 10.596 7.473 L 10.533 7.541 L 10.547 7.467 C 10.555 7.425 10.571 7.346 10.584 7.293 C 10.619 7.144 10.557 7.176 10.496 7.338 C 10.426 7.526 10.431 7.58 10.514 7.613 C 10.652 7.667 10.686 7.651 10.723 7.512 C 10.765 7.353 10.768 7.115 10.729 7.092 z M 10.123 8.021 C 10.117 8.015 10.05 8.037 9.973 8.07 C 9.896 8.103 9.766 8.145 9.684 8.162 C 9.541 8.191 9.485 8.253 9.572 8.287 L 9.574 8.287 C 9.595 8.294 9.69 8.305 9.785 8.305 C 9.956 8.307 9.958 8.306 10.047 8.17 C 10.096 8.095 10.13 8.031 10.123 8.021 z M 7.59 8.699 C 7.523 8.699 7.576 8.784 7.742 8.945 C 7.84 9.041 7.925 9.119 7.93 9.119 C 7.935 9.119 7.938 9.103 7.938 9.082 C 7.938 9.038 7.63 8.699 7.59 8.699 z M 7.494 8.998 C 7.481 8.998 7.471 9.036 7.471 9.082 C 7.471 9.168 7.587 9.283 7.906 9.502 L 7.906 9.504 C 7.989 9.558 8.054 9.586 8.061 9.566 C 8.073 9.532 7.539 8.998 7.494 8.998 z M 8.238 9.355 L 8.324 9.404 C 8.371 9.432 8.41 9.457 8.41 9.467 C 8.41 9.491 8.385 9.478 8.313 9.418 L 8.238 9.355 z"
    class="ColorScheme-Text" fill="currentColor" />
</svg>