<svg height="16" width="16" xmlns="http://www.w3.org/2000/svg">
   <style type="text/css" id="current-color-scheme">
      .ColorScheme-Text {
         color: #e2e2e5;
      }
   </style>
   <g class="ColorScheme-Text" fill="currentColor">
      <path d="M 12.501,5.401 V 10.599 L 8,13.197 V 8 Z" />
      <path d="M 8,8 V 2.803 l -4.501,2.599 z" />
      <path
         d="M 3.7,4.65 C 3.235,4.919 2.949,5.414 2.949,5.951 v 4.097 c 0,0.538 0.286,1.033 0.751,1.301 l 3.548,2.049 c 0.466,0.269 1.037,0.269 1.503,0 l 3.548,-2.049 c 0.466,-0.269 0.751,-0.764 0.751,-1.301 V 5.951 c 0,-0.538 -0.286,-1.033 -0.751,-1.301 L 8.751,2.602 c -0.466,-0.269 -1.037,-0.269 -1.503,0 z m 4.501,-1.096 3.548,2.049 c 0.124,0.072 0.201,0.206 0.201,0.349 v 4.097 c 0,0.143 -0.077,0.277 -0.201,0.349 l -3.548,2.049 c -0.124,0.072 -0.279,0.072 -0.403,0 L 4.251,10.397 C 4.126,10.326 4.049,10.192 4.049,10.049 V 5.951 c 0,-0.143 0.077,-0.277 0.201,-0.349 L 7.799,3.554 c 0.124,-0.072 0.279,-0.072 0.403,0 z" />
   </g>
</svg>