<svg viewBox="0 0 16 16" xmlns="http://www.w3.org/2000/svg">
  <defs>
    <style type="text/css" id="current-color-scheme">
      .ColorScheme-Text {
        color: #e2e2e5;
      }
    </style>
  </defs>
  <path
    d="M 0.667,12 Q 0.817,10.217 1.758,8.717 2.7,7.217 4.267,6.333 L 3.033,4.2 q -0.1,-0.15 -0.05,-0.317 0.05,-0.167 0.217,-0.25 0.133,-0.083 0.3,-0.033 0.167,0.05 0.267,0.2 L 5,5.933 q 1.433,-0.6 3,-0.6 1.567,0 3,0.6 l 1.233,-2.133 q 0.1,-0.15 0.267,-0.2 0.167,-0.05 0.3,0.033 0.167,0.083 0.217,0.25 0.05,0.167 -0.05,0.317 L 11.733,6.333 Q 13.3,7.217 14.242,8.717 q 0.942,1.5 1.092,3.283 z M 4.667,10.167 q 0.35,0 0.592,-0.242 Q 5.5,9.683 5.5,9.333 5.5,8.983 5.258,8.742 5.017,8.5 4.667,8.5 q -0.35,0 -0.592,0.242 -0.242,0.242 -0.242,0.592 0,0.35 0.242,0.592 0.242,0.242 0.592,0.242 z m 6.667,0 q 0.35,0 0.592,-0.242 0.242,-0.242 0.242,-0.592 0,-0.35 -0.242,-0.592 -0.242,-0.242 -0.592,-0.242 -0.35,0 -0.592,0.242 Q 10.5,8.983 10.5,9.333 q 0,0.35 0.242,0.592 0.242,0.242 0.592,0.242 z"
    class="ColorScheme-Text" fill="currentColor" />
</svg>