<svg viewBox="0 0 16 16" xmlns="http://www.w3.org/2000/svg">
  <defs>
    <style type="text/css" id="current-color-scheme">
      .ColorScheme-Text {
        color: #e2e2e5;
      }
    </style>
  </defs>
  <path
    d="M 10.2,11.133 11.133,10.2 8.667,7.733 V 4.667 H 7.333 v 3.6 z M 8,14.667 q -1.383,0 -2.6,-0.525 -1.217,-0.525 -2.117,-1.425 -0.9,-0.9 -1.425,-2.117 -0.525,-1.217 -0.525,-2.6 0,-1.383 0.525,-2.6 0.525,-1.217 1.425,-2.117 0.9,-0.9 2.117,-1.425 1.217,-0.525 2.6,-0.525 1.383,0 2.6,0.525 1.217,0.525 2.117,1.425 0.9,0.9 1.425,2.117 0.525,1.217 0.525,2.6 0,1.383 -0.525,2.6 -0.525,1.217 -1.425,2.117 -0.9,0.9 -2.117,1.425 -1.217,0.525 -2.6,0.525 z M 8,8 Z m 0,5.333 q 2.217,0 3.775,-1.558 Q 13.333,10.217 13.333,8 13.333,5.783 11.775,4.225 10.217,2.667 8,2.667 5.783,2.667 4.225,4.225 2.667,5.783 2.667,8 q 0,2.217 1.558,3.775 1.558,1.558 3.775,1.558 z"
    class="ColorScheme-Text" fill="currentColor" />
</svg>