<svg height="16" width="16" xmlns="http://www.w3.org/2000/svg">
  <style type="text/css" id="current-color-scheme">
    .ColorScheme-Text {
      color: #e2e2e5;
    }
  </style>
  <path
    d="m 4,12.8 q -1.333,0 -2.267,-0.933 Q 0.8,10.933 0.8,9.6 0.8,8.333 1.667,7.408 2.533,6.483 3.783,6.4 4.167,4.983 5.325,4.092 6.483,3.2 8,3.2 q 1.717,0 2.983,1.158 1.267,1.158 1.417,2.842 1.167,0 1.983,0.817 0.817,0.817 0.817,1.983 0,1.167 -0.817,1.983 -0.817,0.817 -1.983,0.817 z m 0,-1.2 h 8.4 q 0.667,0 1.133,-0.467 0.467,-0.467 0.467,-1.133 0,-0.667 -0.467,-1.133 -0.467,-0.467 -1.133,-0.467 h -1.1 l -0.1,-1.083 Q 11.083,6.083 10.167,5.242 9.25,4.4 8,4.4 q -1.067,0 -1.917,0.642 -0.85,0.642 -1.133,1.692 l -0.233,0.817 -0.85,0.05 q -0.8,0.05 -1.333,0.625 -0.533,0.575 -0.533,1.375 0,0.833 0.583,1.417 0.583,0.583 1.417,0.583 z M 8,8 Z"
    class="ColorScheme-Text" fill="currentColor" />
</svg>