<svg viewBox="0 0 16 16" xmlns="http://www.w3.org/2000/svg">
  <defs>
    <style type="text/css" id="current-color-scheme">
      .ColorScheme-Text {
        color: #e2e2e5;
      }
    </style>
  </defs>
  <path
    d="M 0.667,13.333 V 11.467 Q 0.667,10.9 0.958,10.425 1.25,9.95 1.733,9.7 2.767,9.183 3.833,8.925 4.9,8.667 6,8.667 q 1.1,0 2.167,0.258 1.067,0.258 2.1,0.775 0.483,0.25 0.775,0.725 0.292,0.475 0.292,1.042 v 1.867 z m 12,0 v -2 Q 12.667,10.6 12.258,9.925 11.85,9.25 11.1,8.767 q 0.85,0.1 1.6,0.342 Q 13.45,9.35 14.1,9.7 q 0.6,0.333 0.917,0.742 0.317,0.408 0.317,0.892 v 2 z M 6,8 Q 4.9,8 4.117,7.217 3.333,6.433 3.333,5.333 q 0,-1.1 0.783,-1.883 Q 4.9,2.667 6,2.667 q 1.1,0 1.883,0.783 0.783,0.783 0.783,1.883 0,1.1 -0.783,1.883 Q 7.1,8 6,8 Z m 6.667,-2.667 q 0,1.1 -0.783,1.883 Q 11.1,8 10,8 9.817,8 9.533,7.958 9.25,7.917 9.067,7.867 9.517,7.333 9.758,6.683 10,6.033 10,5.333 q 0,-0.7 -0.242,-1.35 Q 9.517,3.333 9.067,2.8 9.3,2.717 9.533,2.692 9.767,2.667 10,2.667 q 1.1,0 1.883,0.783 0.783,0.783 0.783,1.883 z M 2,12 h 8 V 11.467 Q 10,11.283 9.908,11.133 9.817,10.983 9.667,10.9 8.767,10.45 7.85,10.225 6.933,10 6,10 5.067,10 4.15,10.225 3.233,10.45 2.333,10.9 q -0.15,0.083 -0.242,0.233 Q 2,11.283 2,11.467 Z M 6,6.667 q 0.55,0 0.942,-0.392 0.392,-0.392 0.392,-0.942 0,-0.55 -0.392,-0.942 Q 6.55,4 6,4 5.45,4 5.058,4.392 4.667,4.783 4.667,5.333 q 0,0.55 0.392,0.942 Q 5.45,6.667 6,6.667 Z M 6,12 Z M 6,5.333 Z"
    class="ColorScheme-Text" fill="currentColor" />
</svg>