<svg height="16" width="16" xmlns="http://www.w3.org/2000/svg">
  <style type="text/css" id="current-color-scheme">
    .ColorScheme-Text {
      color: #e2e2e5;
    }
  </style>
  <path
    d="M 14,13.6 V 3.6 H 2 v 6 H 0.8 V 3.6 Q 0.8,3.105 1.153,2.753 1.505,2.4 2,2.4 h 12 q 0.495,0 0.848,0.353 0.353,0.353 0.353,0.847 v 8.8 q 0,0.483 -0.353,0.842 -0.353,0.358 -0.848,0.358 z M 5.6,9.6 q -1,0 -1.7,-0.7 -0.7,-0.7 -0.7,-1.7 0,-1 0.7,-1.7 0.7,-0.7 1.7,-0.7 1,0 1.7,0.7 0.7,0.7 0.7,1.7 0,1 -0.7,1.7 -0.7,0.7 -1.7,0.7 z m 0.004,-1.2 q 0.497,0 0.847,-0.354 0.35,-0.353 0.35,-0.85 0,-0.497 -0.354,-0.847 -0.354,-0.35 -0.85,-0.35 -0.497,0 -0.847,0.354 -0.35,0.354 -0.35,0.85 0,0.497 0.354,0.846 0.354,0.35 0.85,0.35 z M 0.8,14.4 v -1.533 q 0,-0.433 0.208,-0.783 0.208,-0.35 0.575,-0.583 0.9,-0.55 1.928,-0.825 1.028,-0.275 2.089,-0.275 1.067,0 2.075,0.275 1.008,0.275 1.942,0.825 0.367,0.217 0.575,0.577 0.208,0.36 0.208,0.79 v 1.533 z m 1.2,-1.2 h 7.2 v -0.4 q 0,-0.086 -0.051,-0.157 -0.05,-0.071 -0.133,-0.11 -0.8,-0.45 -1.658,-0.692 -0.858,-0.242 -1.758,-0.242 -0.9,0 -1.767,0.242 -0.867,0.242 -1.65,0.692 Q 2.1,12.583 2.05,12.65 2,12.718 2,12.8 Z M 5.6,7.2 Z m 0,6 z"
    class="ColorScheme-Text" fill="currentColor" />
</svg>