<svg height="16" width="16" xmlns="http://www.w3.org/2000/svg">
  <style type="text/css" id="current-color-scheme">
    .ColorScheme-Text {
      color: #e2e2e5;
    }

    .ColorScheme-NegativeText {
      color: #ff5540;
    }
  </style>
  <path
    d="m 7.15,10.033 q 0.383,0.367 0.95,0.342 0.567,-0.025 0.833,-0.425 L 12.4,4.8 7.247,8.271 q -0.414,0.279 -0.447,0.837 -0.033,0.558 0.35,0.925 z M 8.017,3.2 q 1,0 1.8,0.258 0.8,0.258 1.45,0.642 L 10.117,4.85 Q 9.65,4.633 9.142,4.517 8.633,4.4 8.017,4.4 q -2.168,0 -3.692,1.558 -1.524,1.558 -1.524,3.642 0,0.633 0.092,1.042 0.092,0.408 0.292,0.958 h 9.617 q 0.217,-0.55 0.308,-1.008 0.092,-0.458 0.092,-0.992 0,-0.7 -0.192,-1.4 -0.192,-0.7 -0.558,-1.283 l 0.717,-1.083 q 0.583,0.8 0.908,1.767 0.325,0.967 0.325,1.967 0,0.85 -0.142,1.483 -0.142,0.633 -0.458,1.167 -0.167,0.283 -0.425,0.433 -0.258,0.15 -0.575,0.15 H 3.2 q -0.317,0 -0.575,-0.15 -0.258,-0.15 -0.425,-0.433 Q 1.883,11.683 1.742,11.05 1.6,10.417 1.6,9.567 1.6,8.238 2.108,7.077 2.617,5.917 3.483,5.058 4.35,4.2 5.524,3.7 6.698,3.2 8.017,3.2 Z m -0.017,4.65 z"
    class="ColorScheme-NegativeText" fill="currentColor" />
</svg>