<svg height="16" width="16" xmlns="http://www.w3.org/2000/svg">
  <style type="text/css" id="current-color-scheme">
    .ColorScheme-Text {
      color: #e2e2e5;
    }
  </style>
  <path
    d="m 12.709,10.591 c 0,0 -0.295,0.854 -0.884,1.738 -0.147,0.265 -0.854,1.267 -1.709,1.267 -0.619,0 -1.031,-0.442 -1.827,-0.442 -0.972,0 -1.355,0.442 -1.974,0.442 -0.324,0.03 -0.648,-0.147 -1.002,-0.471 -2.269,-2.151 -2.387,-5.333 -1.532,-6.63 0.53,-0.855 1.414,-1.385 2.387,-1.414 0.766,0 1.591,0.501 1.915,0.501 0.236,0 1.473,-0.589 2.18,-0.53 0.972,0.088 1.65,0.442 2.151,1.12 -1.444,0.707 -1.945,3.447 0.295,4.42 z m -2.387,-8.191 c 0.236,0.943 -0.796,2.74 -2.328,2.652 -0.088,-1.267 1.002,-2.563 2.328,-2.652 z"
    class="ColorScheme-Text" fill="currentColor" />
</svg>