<svg viewBox="0 0 16 16" xmlns="http://www.w3.org/2000/svg">
  <defs>
    <style type="text/css" id="current-color-scheme">
      .ColorScheme-Text {
        color: #e2e2e5;
      }
    </style>
  </defs>
  <path
    d="m 10.667,5.333 v -2 H 5.333 v 2 H 4 V 2 h 8 V 5.333 Z M 2.667,6.667 H 13.333 Z M 12,8.333 q 0.283,0 0.475,-0.192 0.192,-0.192 0.192,-0.475 0,-0.283 -0.192,-0.475 Q 12.283,7 12,7 q -0.283,0 -0.475,0.192 -0.192,0.192 -0.192,0.475 0,0.283 0.192,0.475 Q 11.717,8.333 12,8.333 Z M 10.667,12.667 V 10 H 5.333 v 2.667 z M 12,14 H 4 V 11.333 H 1.333 V 5.333 H 14.667 V 11.333 H 12 Z m 1.333,-4 V 6.667 H 2.667 V 10 H 4 V 8.667 h 8 V 10 Z"
    class="ColorScheme-Text" fill="currentColor" />
</svg>