<svg height="16" width="16" xmlns="http://www.w3.org/2000/svg">
  <style type="text/css" id="current-color-scheme">
    .ColorScheme-Text {
      color: #e2e2e5;
    }
  </style>
  <path
    d="M 6,11.2 H 6.8 V 10 H 8 V 9.2 H 6.8 V 8 H 6 V 9.2 H 4.8 v 0.8 h 1.2 z m 2.8,-0.6 H 11.2 V 9.8 H 8.8 Z m 0,-1.2 h 2.4 v -0.8 H 8.8 Z m 0.35,-1.783 0.85,-0.833 0.85,0.85 0.567,-0.567 -0.85,-0.85 0.85,-0.85 -0.567,-0.567 -0.85,0.85 -0.85,-0.85 -0.567,0.567 0.85,0.833 -0.85,0.85 z M 4.8,6.617 H 7.2 V 5.817 H 4.8 Z m -1.2,6.983 q -0.495,0 -0.847,-0.353 Q 2.4,12.895 2.4,12.4 V 3.6 Q 2.4,3.105 2.752,2.752 3.105,2.4 3.6,2.4 h 8.8 q 0.495,0 0.848,0.352 0.353,0.353 0.353,0.847 v 8.8 q 0,0.495 -0.353,0.848 -0.353,0.353 -0.848,0.353 z m 0,-1.2 H 12.4 V 3.6 H 3.6 Z m 0,-8.8 v 8.8 z"
    class="ColorScheme-Text" fill="currentColor" />
</svg>