<svg height="16" width="16" xmlns="http://www.w3.org/2000/svg">
  <style type="text/css" id="current-color-scheme">
    .ColorScheme-Text {
      color: #e2e2e5;
    }
  </style>
  <path
    d="M 4.8,11.2 H 9.6 V 10 H 4.8 Z m 0,-2.6 h 6.4 V 7.4 H 4.8 Z m 0,-2.6 h 6.4 V 4.8 H 4.8 Z M 3.6,13.6 q -0.495,0 -0.848,-0.353 Q 2.4,12.895 2.4,12.4 V 3.6 Q 2.4,3.105 2.753,2.752 3.105,2.4 3.6,2.4 h 8.8 q 0.495,0 0.848,0.352 0.353,0.353 0.353,0.847 v 8.8 q 0,0.495 -0.353,0.848 -0.353,0.353 -0.848,0.353 z m 0,-1.2 h 8.8 V 3.6 H 3.6 Z m 0,-8.8 v 8.8 z"
    class="ColorScheme-Text" fill="currentColor" />
</svg>