<svg height="16" width="16" xmlns="http://www.w3.org/2000/svg">
  <style type="text/css" id="current-color-scheme">
    .ColorScheme-Text {
      color: #e2e2e5;
    }
  </style>
  <path
    d="m 4,13.6 q -1,0 -1.7,-0.7 -0.7,-0.7 -0.7,-1.7 0,-1 0.7,-1.7 0.7,-0.7 1.7,-0.7 1,0 1.7,0.7 0.7,0.7 0.7,1.7 0,1 -0.7,1.7 -0.7,0.7 -1.7,0.7 z m 8,0 q -1,0 -1.7,-0.7 -0.7,-0.7 -0.7,-1.7 0,-1 0.7,-1.7 0.7,-0.7 1.7,-0.7 1,0 1.7,0.7 0.7,0.7 0.7,1.7 0,1 -0.7,1.7 -0.7,0.7 -1.7,0.7 z m -7.996,-1.2 q 0.496,0 0.846,-0.354 0.35,-0.354 0.35,-0.85 0,-0.497 -0.354,-0.847 -0.353,-0.35 -0.85,-0.35 -0.496,0 -0.846,0.353 -0.35,0.354 -0.35,0.85 0,0.497 0.354,0.847 0.353,0.35 0.85,0.35 z m 8,0 q 0.497,0 0.847,-0.354 0.35,-0.354 0.35,-0.85 0,-0.497 -0.354,-0.847 -0.354,-0.35 -0.85,-0.35 -0.497,0 -0.847,0.353 -0.35,0.354 -0.35,0.85 0,0.497 0.354,0.847 0.354,0.35 0.85,0.35 z M 8,7.2 q -1,0 -1.7,-0.7 -0.7,-0.7 -0.7,-1.7 0,-1 0.7,-1.7 Q 7,2.4 8,2.4 q 1,0 1.7,0.7 0.7,0.7 0.7,1.7 0,1 -0.7,1.7 Q 9,7.2 8,7.2 Z m 0.004,-1.2 q 0.497,0 0.847,-0.353 0.35,-0.354 0.35,-0.85 0,-0.496 -0.354,-0.846 -0.354,-0.35 -0.85,-0.35 -0.496,0 -0.846,0.354 -0.35,0.353 -0.35,0.85 0,0.496 0.354,0.846 0.353,0.35 0.85,0.35 z m -0.004,-1.2 z m 4,6.4 z m -8,0 z"
    class="ColorScheme-Text" fill="currentColor" />
</svg>