<svg height="16" width="16" xmlns="http://www.w3.org/2000/svg">
  <style type="text/css" id="current-color-scheme">
    .ColorScheme-Text {
      color: #e2e2e5;
    }
  </style>
  <path
    d="M 4.55,13.6 4.4,12.267 6.2,7.333 q 0.233,0.183 0.498,0.328 0.265,0.145 0.568,0.222 l -1.733,4.8 z m 6.9,0 -0.983,-0.933 -1.733,-4.783 q 0.303,-0.076 0.568,-0.222 0.265,-0.145 0.499,-0.345 L 11.6,12.267 Z M 8,7.2 q -0.833,0 -1.417,-0.583 -0.583,-0.583 -0.583,-1.417 0,-0.683 0.4,-1.2 0.4,-0.517 1,-0.7 V 2.4 h 1.2 v 0.9 q 0.6,0.183 1,0.7 0.4,0.517 0.4,1.2 0,0.833 -0.583,1.417 -0.583,0.583 -1.417,0.583 z m 0,-1.2 q 0.34,0 0.57,-0.23 0.23,-0.23 0.23,-0.57 0,-0.34 -0.23,-0.57 -0.23,-0.23 -0.57,-0.23 -0.34,0 -0.57,0.23 -0.23,0.23 -0.23,0.57 0,0.34 0.23,0.57 0.23,0.23 0.57,0.23 z"
    class="ColorScheme-Text" fill="currentColor" />
</svg>