<svg viewBox="0 0 16 16" xmlns="http://www.w3.org/2000/svg">
  <defs>
    <style type="text/css" id="current-color-scheme">
      .ColorScheme-Text {
        color: #e2e2e5;
      }
    </style>
  </defs>
  <path
    d="m 5.333,12 h 1 V 10.667 H 7.667 V 9.667 H 6.333 V 8.333 h -1 V 9.667 H 4 V 10.667 H 5.333 Z M 8.667,11.5 H 12 v -1 H 8.667 Z m 0,-1.667 H 12 v -1 H 8.667 Z M 9.4,7.3 10.333,6.367 11.267,7.3 l 0.7,-0.7 L 11.033,5.633 11.967,4.7 11.267,4 10.333,4.933 9.4,4 8.7,4.7 9.633,5.633 8.7,6.6 Z M 4.167,6.133 H 7.5 v -1 H 4.167 Z M 2,14 V 2 H 14 V 14 Z M 3.333,12.667 H 12.667 V 3.333 H 3.333 Z m 0,0 V 3.333 Z"
    class="ColorScheme-Text" fill="currentColor" />
</svg>