<svg viewBox="0 0 16 16" xmlns="http://www.w3.org/2000/svg">
  <defs>
    <style type="text/css" id="current-color-scheme">
      .ColorScheme-Text {
        color: #e2e2e5;
      }
    </style>
  </defs>
  <path
    d="m 13.117,13.583 0.467,-0.467 -1.25,-1.25 V 10 h -0.667 v 2.133 z M 2,14 V 2 H 14 V 7.8 Q 13.683,7.65 13.35,7.542 13.017,7.433 12.667,7.383 v -4.05 H 3.333 v 9.333 h 4.033 q 0.05,0.367 0.158,0.7 Q 7.633,13.7 7.783,14 Z m 1.333,-2 v 0.667 -9.333 4.05 -0.05 z m 1.333,-0.667 h 2.717 q 0.05,-0.35 0.158,-0.683 Q 7.65,10.317 7.783,10 H 4.667 Z m 0,-2.667 H 8.733 Q 9.267,8.167 9.925,7.833 10.583,7.5 11.333,7.383 v -0.05 H 4.667 Z M 4.667,6 H 11.333 V 4.667 H 4.667 Z M 12,15.333 q -1.383,0 -2.358,-0.975 -0.975,-0.975 -0.975,-2.358 0,-1.383 0.975,-2.358 0.975,-0.975 2.358,-0.975 1.383,0 2.358,0.975 0.975,0.975 0.975,2.358 0,1.383 -0.975,2.358 -0.975,0.975 -2.358,0.975 z"
    class="ColorScheme-Text" fill="currentColor" />
</svg>