<svg height="16" width="16" xmlns="http://www.w3.org/2000/svg">
   <style type="text/css" id="current-color-scheme">
      .ColorScheme-Text {
         color: #e2e2e5;
      }
   </style>
   <path
      d="m 3.51,6.04 c 0.032,-0.101 0.064,-0.233 0.09,-0.367 l 0.004,-0.025 c -0.163,0.205 -0.079,0.247 -0.093,0.387 z m 0.294,-1.241 c 0.033,0.266 -0.2,0.373 0.051,0.196 0.14,-0.308 -0.051,-0.084 -0.047,-0.196 z m 4.406,-2.343 c 0.122,-0.023 0.274,-0.043 0.428,-0.055 l 0.015,-0.001 c -0.172,0.014 -0.345,0.024 -0.513,0.047 l 0.07,0.009 z m 4.038,4.994 -0.033,0.07 c -0.054,0.385 -0.167,0.733 -0.33,1.051 l 0.009,-0.018 c 0.176,-0.319 0.3,-0.691 0.348,-1.087 l 0.002,-0.015 z m -5.106,1.111 c -0.057,-0.07 -0.106,-0.15 -0.142,-0.236 l -0.003,-0.006 c 0.05,0.156 0.118,0.293 0.204,0.416 l -0.003,-0.005 -0.056,-0.168 z m -0.289,0.014 -0.023,0.131 c 0.111,0.178 0.234,0.332 0.373,0.471 v 0 c -0.112,-0.219 -0.196,-0.308 -0.35,-0.607 z m 4.611,-1.335 c -0.01,0.256 -0.075,0.496 -0.182,0.71 l 0.004,-0.01 -0.163,0.084 c -0.131,0.252 0.014,0.163 -0.079,0.364 -0.225,0.222 -0.472,0.422 -0.738,0.596 l -0.018,0.011 c -0.094,0 0.065,-0.116 0.089,-0.159 -0.276,0.187 -0.224,0.28 -0.64,0.396 l -0.014,-0.028 c -0.175,0.06 -0.376,0.094 -0.586,0.094 -1.03,0 -1.865,-0.835 -1.865,-1.865 0,-0.007 0,-0.015 0,-0.023 v 10e-4 c -0.014,0.079 -0.033,0.061 -0.056,0.093 -0.004,-0.042 -0.006,-0.09 -0.006,-0.14 0,-0.654 0.379,-1.22 0.93,-1.489 l 0.01,-0.004 c 0.205,-0.106 0.448,-0.167 0.705,-0.167 0.398,0 0.762,0.148 1.038,0.393 l -10e-4,-0.001 c -0.288,-0.371 -0.734,-0.607 -1.234,-0.607 -0.012,0 -0.025,0 -0.037,3.7e-4 h 0.002 c -0.529,0.005 -0.989,0.296 -1.233,0.725 l -0.004,0.007 c -0.28,0.177 -0.312,0.686 -0.434,0.775 -0.025,0.126 -0.04,0.27 -0.04,0.418 0,0.831 0.46,1.553 1.139,1.928 l 0.011,0.006 c 0.126,0.089 0.037,0.098 0.056,0.163 -0.281,-0.135 -0.518,-0.317 -0.712,-0.539 l -0.002,-0.003 c 0.105,0.164 0.228,0.304 0.37,0.422 l 0.003,0.002 c -0.256,-0.084 -0.593,-0.607 -0.69,-0.63 0.434,0.774 1.764,1.363 2.454,1.073 -0.061,0.004 -0.133,0.007 -0.204,0.007 -0.315,0 -0.619,-0.05 -0.903,-0.144 l 0.021,0.006 c -0.154,-0.075 -0.359,-0.238 -0.327,-0.266 0.31,0.134 0.671,0.212 1.049,0.212 0.648,0 1.243,-0.228 1.709,-0.607 l -0.005,0.004 c 0.205,-0.163 0.434,-0.439 0.499,-0.443 -0.093,0.149 0.019,0.075 -0.056,0.205 0.205,-0.336 -0.093,-0.14 0.215,-0.579 l 0.112,0.154 c -0.042,-0.28 0.345,-0.616 0.308,-1.055 0.089,-0.14 0.093,0.14 0,0.452 0.135,-0.345 0.037,-0.396 0.07,-0.681 0.037,0.08 0.074,0.178 0.103,0.278 l 0.004,0.016 c -0.006,-0.045 -0.009,-0.098 -0.009,-0.151 0,-0.217 0.052,-0.422 0.143,-0.603 l -0.003,0.008 c -0.042,-0.023 -0.131,0.14 -0.149,-0.247 0,-0.172 0.047,-0.093 0.065,-0.131 -0.094,-0.109 -0.158,-0.246 -0.177,-0.398 l -3.7e-4,-0.004 c 0.037,-0.061 0.103,0.154 0.159,0.159 -0.041,-0.144 -0.075,-0.315 -0.092,-0.491 l -10e-4,-0.013 c -0.159,-0.317 -0.056,0.047 -0.187,-0.14 -0.159,-0.509 0.14,-0.116 0.159,-0.345 0.199,0.33 0.357,0.713 0.453,1.121 l 0.005,0.027 c -0.056,-0.312 -0.136,-0.588 -0.239,-0.851 l 0.011,0.03 c 0.075,0.033 -0.121,-0.579 0.098,-0.172 -0.301,-0.887 -0.906,-1.604 -1.69,-2.04 l -0.019,-0.009 c 0.084,0.079 0.196,0.182 0.154,0.196 -0.35,-0.21 -0.289,-0.224 -0.34,-0.312 -0.284,-0.116 -0.303,0.009 -0.495,0 -0.323,-0.168 -0.701,-0.319 -1.095,-0.432 l -0.044,-0.011 0.023,0.107 c -0.359,-0.116 -0.42,0.047 -0.807,0 -0.024,-0.019 0.126,-0.065 0.247,-0.084 -0.346,0.047 -0.327,-0.065 -0.668,0.014 0.072,-0.049 0.156,-0.099 0.243,-0.143 l 0.013,-0.006 c -0.28,0.019 -0.672,0.163 -0.551,0.033 -0.663,0.24 -1.238,0.554 -1.754,0.941 l 0.017,-0.012 -0.013,-0.103 c -0.21,0.252 -0.914,0.752 -0.97,1.078 l -0.061,0.014 c -0.107,0.187 -0.177,0.397 -0.266,0.588 -0.14,0.243 -0.21,0.093 -0.187,0.131 -0.199,0.405 -0.383,0.886 -0.526,1.384 l -0.015,0.063 c 0.028,0.258 0.043,0.557 0.043,0.861 0,0.15 -0.004,0.299 -0.012,0.448 l 7.5e-4,-0.021 c -10e-4,0.041 -0.002,0.09 -0.002,0.14 0,2.519 1.613,4.661 3.863,5.45 l 0.04,0.012 c 0.303,0.076 0.651,0.119 1.009,0.119 0.054,0 0.108,-0.001 0.161,-0.003 l -0.008,3.7e-4 c -0.462,-0.131 -0.523,-0.07 -0.97,-0.228 -0.327,-0.149 -0.396,-0.327 -0.625,-0.527 l 0.093,0.163 c -0.453,-0.159 -0.266,-0.196 -0.635,-0.312 l 0.098,-0.126 c -0.194,-0.071 -0.351,-0.203 -0.45,-0.374 l -0.002,-0.004 -0.159,0.004 c -0.191,-0.234 -0.294,-0.406 -0.284,-0.542 l -0.052,0.093 c -0.061,-0.098 -0.709,-0.887 -0.373,-0.705 -0.096,-0.067 -0.175,-0.153 -0.231,-0.253 l -0.002,-0.004 0.065,-0.079 c -0.136,-0.154 -0.236,-0.343 -0.287,-0.551 l -0.002,-0.009 c 0.049,0.074 0.122,0.129 0.207,0.153 l 0.003,7.5e-4 c -0.411,-1.013 -0.434,-0.056 -0.747,-1.027 l 0.07,-0.009 c -0.039,-0.065 -0.08,-0.143 -0.115,-0.224 l -0.006,-0.015 0.028,-0.28 c -0.294,-0.345 -0.084,-1.447 -0.042,-2.054 0.126,-0.36 0.265,-0.665 0.426,-0.955 l -0.016,0.031 -0.098,-0.019 c 0.187,-0.331 1.092,-1.34 1.512,-1.288 0.2,-0.256 -0.042,0 -0.084,-0.065 0.448,-0.462 0.588,-0.327 0.887,-0.411 0.327,-0.187 -0.28,0.075 -0.126,-0.071 0.56,-0.14 0.397,-0.327 1.129,-0.397 0.075,0.047 -0.182,0.065 -0.243,0.121 0.268,-0.086 0.577,-0.136 0.897,-0.136 0.446,0 0.869,0.097 1.25,0.27 l -0.019,-0.008 c 0.893,0.476 1.52,1.35 1.646,2.379 l 10e-4,0.015 0.037,0.009 c 0.009,0.106 0.014,0.23 0.014,0.354 0,0.322 -0.034,0.637 -0.099,0.94 l 0.005,-0.03 0.093,-0.196 z m -3.09,-4.639 -0.07,0.014 0.065,-0.004 v -0.009 z m -0.196,-0.056 c 0.093,0.019 0.21,0.033 0.196,0.056 0.107,-0.023 0.131,-0.047 -0.2,-0.056 z m 2.063,4.57 c 0.023,-0.336 -0.065,-0.234 -0.093,-0.103 0.033,0.019 0.061,0.233 0.093,0.103 z m -0.364,0.957 c 0.102,-0.14 0.179,-0.306 0.218,-0.486 l 0.001,-0.009 c -0.037,0.13 -0.09,0.243 -0.157,0.345 l 0.003,-0.005 c -0.35,0.219 -0.033,-0.126 0,-0.261 -0.373,0.471 -0.051,0.28 -0.065,0.415 z m -0.999,0.247 c -0.187,0 0.037,0.093 0.28,0.131 0.067,-0.05 0.127,-0.101 0.183,-0.155 l -7.5e-4,7.4e-4 c -0.09,0.021 -0.194,0.033 -0.301,0.033 -0.057,0 -0.113,-0.003 -0.168,-0.01 l 0.007,7.4e-4 z"
      class="ColorScheme-Text" fill="currentColor" />
</svg>