<svg height="16" width="16" xmlns="http://www.w3.org/2000/svg">
  <style type="text/css" id="current-color-scheme">
    .ColorScheme-Text {
      color: #e2e2e5;
    }
  </style>
  <path
    d="m 6.639,6.956 c -0.104,-0.229 -0.15,-0.496 -0.071,-0.739 0.079,-0.248 0.257,-0.447 0.434,-0.633 0.494,-0.494 1.102,-0.857 1.585,-1.359 0.267,-0.276 0.488,-0.606 0.565,-0.985 0.063,-0.278 0.033,-0.565 -0.025,-0.84 0.256,0.292 0.341,0.709 0.267,1.086 -0.079,0.423 -0.314,0.797 -0.589,1.118 -0.221,0.259 -0.475,0.488 -0.739,0.701 -0.308,0.248 -0.611,0.516 -0.805,0.865 -0.164,0.284 -0.202,0.633 -0.09,0.941 0.183,0.529 0.608,0.922 0.84,1.421 -0.257,-0.226 -0.507,-0.461 -0.742,-0.709 -0.245,-0.262 -0.477,-0.54 -0.63,-0.868 z m 1.391,-0.415 c -0.046,0.434 0.18,0.843 0.45,1.165 0.131,0.145 0.243,0.322 0.248,0.524 0.006,0.27 -0.147,0.521 -0.344,0.698 0.046,-0.005 0.079,-0.046 0.117,-0.068 0.295,-0.188 0.578,-0.426 0.723,-0.75 0.096,-0.221 0.074,-0.483 -0.052,-0.688 -0.147,-0.24 -0.341,-0.453 -0.456,-0.715 -0.063,-0.147 -0.085,-0.319 -0.033,-0.475 0.068,-0.21 0.216,-0.382 0.371,-0.532 0.428,-0.406 0.947,-0.696 1.443,-1.012 -0.627,0.18 -1.247,0.428 -1.776,0.818 -0.336,0.251 -0.647,0.6 -0.693,1.034 z m 2.982,2.052 c 0.297,0.016 0.589,0.235 0.644,0.535 0.052,0.259 -0.074,0.516 -0.235,0.712 -0.265,0.316 -0.622,0.543 -0.982,0.737 -0.036,0.022 -0.066,0.049 -0.093,0.079 0.475,-0.12 0.949,-0.3 1.334,-0.608 0.213,-0.177 0.401,-0.412 0.442,-0.693 0.038,-0.243 -0.063,-0.494 -0.243,-0.655 -0.218,-0.199 -0.526,-0.273 -0.816,-0.235 -0.166,0.022 -0.349,0.057 -0.464,0.196 0.136,-0.027 0.27,-0.082 0.412,-0.068 z m -5.923,0.78 c 0.357,0.096 0.726,0.123 1.091,0.147 0.327,0.022 0.655,0.027 0.985,0.025 0.851,-0.014 1.708,-0.071 2.543,-0.256 0.079,-0.019 0.166,-0.033 0.237,-0.082 0.139,-0.09 0.292,-0.161 0.442,-0.232 -0.679,0.109 -1.361,0.202 -2.049,0.246 -0.696,0.044 -1.397,0.071 -2.095,0.025 -0.199,-0.019 -0.404,-0.03 -0.589,-0.106 -0.044,-0.019 -0.104,-0.057 -0.082,-0.115 0.041,-0.074 0.123,-0.109 0.194,-0.147 0.3,-0.142 0.627,-0.221 0.947,-0.314 -0.548,-0.008 -1.094,0.131 -1.596,0.346 -0.112,0.055 -0.237,0.098 -0.327,0.191 -0.036,0.038 -0.036,0.104 0.005,0.136 0.082,0.074 0.191,0.106 0.295,0.136 z m 4.42,0.75 c -0.477,0.085 -0.958,0.164 -1.441,0.188 -0.529,0.036 -1.059,0.005 -1.582,-0.049 -0.101,-0.014 -0.202,-0.03 -0.292,-0.076 -0.046,-0.027 -0.093,-0.071 -0.09,-0.128 0.005,-0.09 0.082,-0.153 0.136,-0.218 -0.169,0.06 -0.338,0.123 -0.48,0.235 -0.06,0.046 -0.12,0.12 -0.104,0.202 0.025,0.096 0.117,0.153 0.199,0.196 0.202,0.104 0.428,0.15 0.649,0.191 0.559,0.09 1.129,0.093 1.691,0.055 0.595,-0.046 1.187,-0.145 1.762,-0.314 -0.164,-0.074 -0.319,-0.158 -0.45,-0.281 z m -2.998,0.944 c -0.153,0.044 -0.308,0.096 -0.434,0.196 -0.063,0.049 -0.112,0.134 -0.082,0.213 0.038,0.101 0.134,0.161 0.224,0.213 0.235,0.128 0.499,0.188 0.758,0.235 0.587,0.093 1.189,0.079 1.773,-0.025 0.346,-0.066 0.693,-0.158 1.015,-0.303 -0.21,-0.087 -0.415,-0.186 -0.611,-0.3 -0.341,0.06 -0.685,0.123 -1.034,0.145 -0.461,0.036 -0.928,-0.003 -1.389,-0.06 -0.109,-0.025 -0.246,-0.036 -0.319,-0.131 -0.038,-0.079 0.049,-0.136 0.098,-0.183 z m 3.732,1.754 c 0.382,-0.079 0.767,-0.169 1.116,-0.346 0.109,-0.063 0.243,-0.131 0.278,-0.262 0.019,-0.125 -0.112,-0.191 -0.205,-0.243 0.057,0.066 0.096,0.161 0.038,0.237 -0.096,0.128 -0.259,0.177 -0.404,0.226 -0.453,0.128 -0.922,0.18 -1.389,0.232 -1.236,0.112 -2.48,0.139 -3.716,0.036 -0.415,-0.044 -0.838,-0.09 -1.233,-0.237 -0.063,-0.027 -0.158,-0.055 -0.158,-0.139 0.025,-0.074 0.096,-0.115 0.158,-0.15 0.284,-0.145 0.6,-0.224 0.917,-0.243 -0.093,-0.055 -0.202,-0.06 -0.308,-0.057 -0.265,0.008 -0.524,0.076 -0.775,0.161 -0.216,0.079 -0.437,0.166 -0.608,0.325 -0.068,0.06 -0.131,0.175 -0.06,0.256 0.109,0.117 0.278,0.147 0.428,0.183 0.84,0.145 1.691,0.226 2.543,0.256 1.129,0.033 2.267,-0.016 3.377,-0.235 z m 1.119,0.147 c -0.513,0.164 -1.045,0.254 -1.574,0.327 -0.914,0.115 -1.836,0.15 -2.755,0.123 -0.559,-0.022 -1.118,-0.06 -1.67,-0.153 0.128,0.087 0.286,0.115 0.434,0.156 0.619,0.131 1.255,0.156 1.885,0.175 0.925,0.016 1.85,-0.019 2.761,-0.164 0.431,-0.076 0.865,-0.169 1.252,-0.371 0.202,-0.106 0.407,-0.27 0.442,-0.507 -0.205,0.218 -0.499,0.319 -0.775,0.415 z"
    class="ColorScheme-Text" fill="currentColor" />
</svg>