<svg viewBox="0 0 16 16" xmlns="http://www.w3.org/2000/svg">
  <defs>
    <style type="text/css" id="current-color-scheme">
      .ColorScheme-Text {
        color: #e2e2e5;
      }
    </style>
  </defs>
  <path
    d="M 14,14 V 3.333 H 2 V 8.667 H 0.667 V 2 H 15.333 V 14 Z M 6,9.333 Q 4.9,9.333 4.117,8.55 3.333,7.767 3.333,6.667 q 0,-1.1 0.783,-1.883 Q 4.9,4 6,4 q 1.1,0 1.883,0.783 0.783,0.783 0.783,1.883 0,1.1 -0.783,1.883 Q 7.1,9.333 6,9.333 Z M 6,8 Q 6.55,8 6.942,7.608 7.333,7.217 7.333,6.667 q 0,-0.55 -0.392,-0.942 Q 6.55,5.333 6,5.333 q -0.55,0 -0.942,0.392 -0.392,0.392 -0.392,0.942 0,0.55 0.392,0.942 Q 5.45,8 6,8 Z M 0.667,14.667 V 12.8 q 0,-0.567 0.292,-1.042 0.292,-0.475 0.775,-0.725 1.033,-0.517 2.1,-0.775 Q 4.9,10 6,10 q 1.1,0 2.167,0.258 1.067,0.258 2.1,0.775 0.483,0.25 0.775,0.725 0.292,0.475 0.292,1.042 v 1.867 z M 2,13.333 h 8 V 12.8 q 0,-0.183 -0.092,-0.333 -0.092,-0.15 -0.242,-0.233 -0.9,-0.45 -1.817,-0.675 -0.917,-0.225 -1.85,-0.225 -0.933,0 -1.85,0.225 -0.917,0.225 -1.817,0.675 -0.15,0.083 -0.242,0.233 Q 2,12.617 2,12.8 Z M 6,6.667 Z m 0,6.667 z"
    class="ColorScheme-Text" fill="currentColor" />
</svg>