<svg height="16" width="16" xmlns="http://www.w3.org/2000/svg">
  <style type="text/css" id="current-color-scheme">
    .ColorScheme-Text {
      color: #e2e2e5;
    }
  </style>
  <path
    d="M 10.8,5.6 V 3.6 H 5.2 V 5.6 H 4 V 2.4 H 12 V 5.6 Z M 2.8,6.8 H 13.217 Z m 8.996,1.6 q 0.254,0 0.429,-0.172 0.175,-0.172 0.175,-0.425 0,-0.253 -0.172,-0.428 -0.172,-0.175 -0.425,-0.175 -0.254,0 -0.429,0.171 -0.175,0.172 -0.175,0.425 0,0.254 0.172,0.429 0.172,0.175 0.425,0.175 z m -0.997,4 V 10 H 5.2 v 2.4 z m 1.2,1.2 H 4 v -2.4 H 1.6 V 7.2 Q 1.6,6.533 2.067,6.067 2.533,5.6 3.2,5.6 h 9.6 q 0.667,0 1.133,0.467 0.467,0.467 0.467,1.133 v 4 h -2.4 z M 13.217,10 V 7.439 q 0,-0.272 -0.2,-0.456 -0.2,-0.183 -0.467,-0.183 H 3.433 q -0.269,0 -0.451,0.184 -0.182,0.184 -0.182,0.456 V 10 H 4 V 8.8 h 8 v 1.2 z"
    class="ColorScheme-Text" fill="currentColor" />
</svg>