<svg viewBox="0 0 16 16" xmlns="http://www.w3.org/2000/svg">
  <defs>
    <style type="text/css" id="current-color-scheme">
      .ColorScheme-Text {
        color: #e2e2e5;
      }
    </style>
  </defs>
  <path
    d="m 9.383,7.817 q 1.217,-0.9 1.9,-1.975 0.683,-1.075 0.683,-2.142 0,-0.533 -0.175,-0.783 -0.175,-0.25 -0.475,-0.25 -0.783,0 -1.383,1.325 -0.6,1.325 -0.6,2.992 0,0.233 0.008,0.442 0.008,0.208 0.042,0.392 z M 2,14 V 12.667 H 3.333 V 14 Z m 2.667,0 V 12.667 H 6 V 14 Z m 2.667,0 V 12.667 H 8.667 V 14 Z M 10,14 v -1.333 h 1.333 V 14 Z m 2.667,0 V 12.667 H 14 V 14 Z M 2.267,11.333 1.333,10.4 2.4,9.333 1.333,8.267 2.267,7.333 3.333,8.4 4.4,7.333 5.333,8.267 4.267,9.333 5.333,10.4 4.4,11.333 3.333,10.267 Z M 10.3,10.667 q -0.5,0 -0.917,-0.192 Q 8.967,10.283 8.667,9.85 8.25,10.083 7.808,10.267 7.367,10.45 6.9,10.633 L 6.433,9.383 Q 6.9,9.217 7.325,9.025 7.75,8.833 8.15,8.617 8.067,8.25 8.025,7.817 7.983,7.383 7.983,6.883 q 0,-2.4 0.95,-3.975 0.95,-1.575 2.383,-1.575 0.867,0 1.417,0.642 0.55,0.642 0.55,1.792 Q 13.283,5.2 12.375,6.6 11.467,8 9.85,9.117 q 0.117,0.117 0.242,0.175 Q 10.217,9.35 10.35,9.35 10.783,9.35 11.358,8.8 11.933,8.25 12.4,7.35 l 1.217,0.567 Q 13.5,8.2 13.433,8.6 13.367,9 13.45,9.3 13.617,9.217 13.842,9.017 q 0.225,-0.2 0.458,-0.5 L 15.35,9.333 q -0.433,0.6 -1,0.967 -0.567,0.367 -1.05,0.367 -0.35,0 -0.625,-0.208 Q 12.4,10.25 12.217,9.817 11.75,10.233 11.267,10.45 10.783,10.667 10.3,10.667 Z"
    class="ColorScheme-Text" fill="currentColor" />
</svg>