<svg height="16" width="16" xmlns="http://www.w3.org/2000/svg">
  <style type="text/css" id="current-color-scheme">
    .ColorScheme-Text {
      color: #e2e2e5;
    }
  </style>
  <path
    d="m 9.2,12.8 q -1,0 -1.7,-0.7 -0.7,-0.7 -0.7,-1.7 0,-1 0.7,-1.7 0.7,-0.7 1.7,-0.7 0.333,0 0.633,0.092 0.3,0.092 0.567,0.242 V 2.8 h 4 v 2 h -2.8 v 5.6 q 0,1 -0.7,1.7 -0.7,0.7 -1.7,0.7 z M 1.617,10 Q 1.7,8.55 2.283,7.267 2.867,5.983 3.825,5.025 4.783,4.067 6.067,3.475 7.35,2.883 8.8,2.817 v 1.2 q -1.2,0.067 -2.258,0.567 -1.058,0.5 -1.858,1.3 -0.8,0.8 -1.292,1.858 -0.492,1.058 -0.575,2.258 z m 2.4,0 Q 4.1,9.05 4.492,8.208 4.883,7.367 5.525,6.725 6.167,6.083 7.008,5.683 7.85,5.283 8.8,5.217 V 6.433 Q 7.383,6.583 6.392,7.583 5.4,8.583 5.25,10 Z"
    class="ColorScheme-Text" fill="currentColor" />
</svg>