<svg height="16" width="16" xmlns="http://www.w3.org/2000/svg">
  <style type="text/css" id="current-color-scheme">
    .ColorScheme-Text {
      color: #e2e2e5;
    }
  </style>
  <path
    d="M 0.85,11.6 Q 1,9.85 1.991,8.417 2.983,6.984 4.516,6.117 L 3.25,3.934 q -0.083,-0.15 -0.04,-0.303 0.044,-0.153 0.189,-0.23 0.133,-0.083 0.3,-0.05 0.167,0.033 0.25,0.183 L 5.233,5.767 Q 6.566,5.2 8.008,5.2 q 1.442,0 2.775,0.567 l 1.267,-2.233 q 0.083,-0.15 0.25,-0.183 0.167,-0.033 0.3,0.05 0.146,0.077 0.19,0.23 0.044,0.153 -0.04,0.303 l -1.267,2.183 q 1.533,0.867 2.525,2.3 0.992,1.433 1.142,3.183 z m 3.948,-0.883 q 0.335,0 0.568,-0.232 0.233,-0.231 0.233,-0.567 0,-0.335 -0.232,-0.569 Q 5.137,9.117 4.801,9.117 q -0.335,0 -0.568,0.232 -0.233,0.231 -0.233,0.567 0,0.335 0.232,0.569 0.231,0.233 0.567,0.233 z m 6.4,0 q 0.335,0 0.569,-0.232 0.233,-0.231 0.233,-0.567 0,-0.335 -0.232,-0.569 -0.231,-0.233 -0.567,-0.233 -0.335,0 -0.569,0.232 -0.233,0.231 -0.233,0.567 0,0.335 0.232,0.569 0.231,0.233 0.567,0.233 z"
    class="ColorScheme-Text" fill="currentColor" />
</svg>