<svg viewBox="0 0 16 16" xmlns="http://www.w3.org/2000/svg">
  <defs>
    <style type="text/css" id="current-color-scheme">
      .ColorScheme-Text {
        color: #e2e2e5;
      }
    </style>
  </defs>
  <path
    d="M 5.867,14 H 2 v -3.867 q 0.8,0 1.4,-0.508 Q 4,9.117 4,8.333 4,7.55 3.4,7.042 2.8,6.533 2,6.533 V 2.667 h 4 q 0,-0.7 0.483,-1.183 Q 6.967,1 7.667,1 8.367,1 8.85,1.483 9.333,1.967 9.333,2.667 h 4 v 4 q 0.7,0 1.183,0.483 Q 15,7.633 15,8.333 q 0,0.7 -0.483,1.183 Q 14.033,10 13.333,10 v 4 H 9.467 q 0,-0.833 -0.525,-1.417 Q 8.417,12 7.667,12 q -0.75,0 -1.275,0.583 -0.525,0.583 -0.525,1.417 z M 3.333,12.667 H 4.75 q 0.4,-1.1 1.283,-1.55 0.883,-0.45 1.633,-0.45 0.75,0 1.633,0.45 0.883,0.45 1.283,1.55 H 12 V 8.667 h 1.333 q 0.133,0 0.233,-0.1 0.1,-0.1 0.1,-0.233 Q 13.667,8.2 13.567,8.1 13.467,8 13.333,8 H 12 V 4 H 8 V 2.667 Q 8,2.533 7.9,2.433 q -0.1,-0.1 -0.233,-0.1 -0.133,0 -0.233,0.1 -0.1,0.1 -0.1,0.233 V 4 h -4 v 1.467 q 0.9,0.333 1.45,1.117 0.55,0.783 0.55,1.75 0,0.95 -0.55,1.733 -0.55,0.783 -1.45,1.133 z M 7.667,8.333 Z"
    class="ColorScheme-Text" fill="currentColor" />
</svg>