<svg height="16" width="16" xmlns="http://www.w3.org/2000/svg">
  <style type="text/css" id="current-color-scheme">
    .ColorScheme-Text {
      color: #e2e2e5;
    }
  </style>
  <g class="ColorScheme-Text" fill="currentColor">
    <path
      d="M 3.166,2.4 C 2.744,2.4 2.4,2.744 2.4,3.166 v 9.669 c 0,0.421 0.344,0.766 0.766,0.766 H 12.834 C 13.256,13.6 13.6,13.256 13.6,12.834 V 3.166 C 13.6,2.744 13.256,2.4 12.834,2.4 Z m 0,0.28 h 9.669 c 0.271,0 0.485,0.214 0.485,0.485 v 9.669 c 0,0.271 -0.214,0.485 -0.485,0.485 H 3.166 c -0.271,0 -0.485,-0.214 -0.485,-0.485 V 3.166 c 0,-0.271 0.214,-0.485 0.485,-0.485 z" />
    <path d="m 7.16,3.529 v 1.68 H 6.268 l 1.732,1.96 1.732,-1.96 H 8.84 v -1.68 z" />
    <path
      d="m 7.694,7.449 c -0.048,0 -0.079,0.082 -0.079,0.184 v 0.639 C 7.42,8.316 7.236,8.396 7.072,8.499 L 6.617,8.044 C 6.546,7.973 6.468,7.94 6.434,7.974 L 6.005,8.403 c -0.034,0.034 -0.002,0.112 0.07,0.184 L 6.53,9.042 C 6.426,9.206 6.347,9.389 6.303,9.584 H 5.664 c -0.101,0 -0.184,0.031 -0.184,0.079 v 0.612 c 0,0.048 0.082,0.079 0.184,0.079 h 0.639 c 0.044,0.195 0.124,0.378 0.228,0.543 l -0.455,0.455 c -0.072,0.072 -0.104,0.15 -0.07,0.184 l 0.429,0.429 c 0.034,0.034 0.112,0.002 0.184,-0.07 L 7.072,11.44 c 0.164,0.104 0.348,0.183 0.543,0.228 V 12.306 c 0,0.101 0.031,0.184 0.079,0.184 h 0.612 c 0.048,0 0.079,-0.082 0.079,-0.184 V 11.667 C 8.58,11.623 8.764,11.544 8.928,11.44 l 0.455,0.455 c 0.072,0.072 0.15,0.104 0.184,0.07 l 0.429,-0.429 c 0.034,-0.034 0.002,-0.112 -0.07,-0.184 L 9.47,10.898 c 0.104,-0.164 0.183,-0.348 0.228,-0.543 h 0.639 c 0.101,0 0.184,-0.031 0.184,-0.079 V 9.664 c 0,-0.048 -0.082,-0.079 -0.184,-0.079 H 9.697 C 9.653,9.389 9.574,9.206 9.47,9.042 L 9.925,8.586 C 9.997,8.515 10.03,8.437 9.996,8.403 L 9.567,7.974 c -0.034,-0.034 -0.112,-0.002 -0.184,0.07 L 8.928,8.499 C 8.764,8.396 8.58,8.316 8.385,8.272 v -0.639 c 0,-0.101 -0.031,-0.184 -0.079,-0.184 z m 0.306,1.741 c 0.428,0 0.779,0.351 0.779,0.779 0,0.428 -0.351,0.779 -0.779,0.779 -0.428,0 -0.779,-0.351 -0.779,-0.779 0,-0.428 0.351,-0.779 0.779,-0.779 z" />
  </g>
</svg>