<svg viewBox="0 0 16 16" xmlns="http://www.w3.org/2000/svg">
  <defs>
    <style type="text/css" id="current-color-scheme">
      .ColorScheme-Text {
        color: #e2e2e5;
      }
    </style>
  </defs>
  <path
    d="m 4.333,13.333 q -1.517,0 -2.592,-1.05 -1.075,-1.05 -1.075,-2.567 0,-1.3 0.783,-2.317 Q 2.233,6.383 3.5,6.1 3.917,4.567 5.167,3.617 q 1.25,-0.95 2.833,-0.95 1.95,0 3.308,1.358 1.358,1.358 1.358,3.308 1.15,0.133 1.908,0.992 0.758,0.858 0.758,2.008 0,1.25 -0.875,2.125 -0.875,0.875 -2.125,0.875 z m 0,-1.333 h 8 q 0.7,0 1.183,-0.483 Q 14,11.033 14,10.333 14,9.633 13.517,9.15 13.033,8.667 12.333,8.667 h -1 V 7.333 Q 11.333,5.95 10.358,4.975 9.383,4 8,4 6.617,4 5.642,4.975 q -0.975,0.975 -0.975,2.358 H 4.333 q -0.967,0 -1.65,0.683 Q 2,8.7 2,9.667 2,10.633 2.683,11.317 3.367,12 4.333,12 Z M 8,8 Z"
    class="ColorScheme-Text" fill="currentColor" />
</svg>