<svg height="16" width="16" xmlns="http://www.w3.org/2000/svg">
  <style type="text/css" id="current-color-scheme">
    .ColorScheme-Text {
      color: #e2e2e5;
    }
  </style>
  <path
    d="M 13.368,7.043 C 13.116,6.868 12.538,6.802 12.086,6.89 12.034,6.452 11.792,6.069 11.372,5.73 L 11.13,5.555 10.962,5.807 c -0.21,0.328 -0.315,0.787 -0.284,1.225 0.011,0.153 0.063,0.427 0.221,0.667 -0.147,0.087 -0.452,0.197 -0.851,0.197 H 2.451 L 2.43,7.983 C 2.356,8.421 2.356,9.788 3.218,10.838 c 0.651,0.798 1.618,1.203 2.89,1.203 2.753,0 4.792,-1.323 5.748,-3.718 0.378,0.011 1.187,0 1.597,-0.82 0.011,-0.022 0.032,-0.066 0.105,-0.23 l 0.042,-0.087 z M 8.524,3.959 H 7.368 v 1.094 h 1.156 z m 0,1.312 H 7.368 v 1.094 h 1.156 z m -1.366,0 h -1.156 v 1.094 h 1.156 z m -1.366,0 h -1.156 v 1.094 h 1.156 z M 4.426,6.583 H 3.27 V 7.677 H 4.426 Z m 1.366,0 h -1.156 v 1.094 h 1.156 z m 1.366,0 h -1.156 v 1.094 h 1.156 z m 1.366,0 H 7.368 v 1.094 h 1.156 z m 1.366,0 H 8.734 v 1.094 h 1.156 z"
    class="ColorScheme-Text" fill="currentColor" />
</svg>