<svg height="16" width="16" xmlns="http://www.w3.org/2000/svg">
  <style type="text/css" id="current-color-scheme">
    .ColorScheme-Text {
      color: #e2e2e5;
    }
  </style>
  <path
    d="m 3.596,13.6 q -0.496,0 -0.846,-0.354 -0.35,-0.354 -0.35,-0.85 0,-0.497 0.353,-0.847 0.354,-0.35 0.85,-0.35 0.497,0 0.846,0.354 0.35,0.354 0.35,0.85 0,0.497 -0.353,0.847 -0.353,0.35 -0.85,0.35 z m 8.403,0 q 0,-2 -0.754,-3.741 Q 10.491,8.117 9.188,6.813 7.886,5.51 6.146,4.755 4.406,4 2.4,4 V 2.4 q 2.333,0 4.36,0.873 2.027,0.873 3.56,2.405 1.533,1.532 2.406,3.558 0.874,2.026 0.874,4.365 z m -4,0 q 0,-1.167 -0.433,-2.183 Q 7.133,10.4 6.367,9.633 5.6,8.867 4.583,8.433 3.567,8 2.4,8 v -1.6 q 1.509,0 2.812,0.562 1.304,0.562 2.288,1.538 0.977,0.984 1.538,2.288 0.562,1.304 0.562,2.812 z"
    class="ColorScheme-Text" fill="currentColor" />
</svg>