<svg height="16" width="16" xmlns="http://www.w3.org/2000/svg">
  <style type="text/css" id="current-color-scheme">
    .ColorScheme-Text {
      color: #e2e2e5;
    }
  </style>
  <g class="ColorScheme-Text" fill="currentColor">
    <path
      d="M 6.861,2.719 C 6.349,2.833 5.843,2.991 5.369,3.23 c 0.011,0.419 0.038,0.82 0.093,1.228 C 5.277,4.576 5.084,4.678 4.911,4.816 4.737,4.95 4.558,5.079 4.4,5.236 4.083,5.027 3.748,4.831 3.403,4.657 3.032,5.057 2.684,5.489 2.4,5.972 2.614,6.318 2.837,6.642 3.078,6.949 h 0.007 v 2.387 0.303 0.276 c 0.005,4.83e-5 0.011,2.656e-4 0.016,7.604e-4 l 1.818,0.175 c 0.095,0.009 0.17,0.086 0.177,0.181 l 0.056,0.803 1.586,0.113 0.109,-0.741 c 0.014,-0.096 0.097,-0.167 0.194,-0.167 h 1.918 c 0.097,0 0.18,0.071 0.194,0.167 l 0.109,0.741 1.586,-0.113 0.056,-0.803 c 0.007,-0.095 0.081,-0.172 0.177,-0.181 l 1.818,-0.175 c 0.005,-5.069e-4 0.011,-7.121e-4 0.016,-7.604e-4 V 9.679 l 7.61e-4,-2.534e-4 v -2.729 h 0.007 C 13.163,6.642 13.386,6.318 13.6,5.972 13.316,5.489 12.968,5.057 12.596,4.657 12.252,4.831 11.917,5.027 11.6,5.236 11.442,5.079 11.264,4.95 11.089,4.816 10.917,4.678 10.723,4.576 10.539,4.458 c 0.055,-0.408 0.082,-0.809 0.093,-1.228 C 10.157,2.991 9.651,2.833 9.139,2.719 8.935,3.063 8.748,3.435 8.585,3.798 8.392,3.766 8.198,3.754 8.004,3.752 v -3.138e-4 c -0.001,0 -0.003,3.138e-4 -0.004,3.138e-4 -0.001,0 -0.002,-3.138e-4 -0.004,-3.138e-4 V 3.752 C 7.802,3.754 7.608,3.766 7.415,3.798 7.252,3.435 7.066,3.063 6.861,2.719 Z M 5.422,7.058 c 0.605,0 1.096,0.49 1.096,1.095 0,0.605 -0.491,1.096 -1.096,1.096 -0.605,0 -1.096,-0.49 -1.096,-1.096 0,-0.605 0.491,-1.095 1.096,-1.095 z m 5.156,0 c 0.605,0 1.096,0.49 1.096,1.095 0,0.605 -0.491,1.096 -1.096,1.096 -0.605,0 -1.096,-0.49 -1.096,-1.096 0,-0.605 0.491,-1.095 1.096,-1.095 z M 8,7.699 c 0.195,0 0.353,0.144 0.353,0.321 v 1.009 c 0,0.177 -0.158,0.321 -0.353,0.321 -0.195,0 -0.353,-0.144 -0.353,-0.321 V 8.02 c 0,-0.177 0.158,-0.321 0.353,-0.321 z" />
    <path
      d="m 11.284,10.466 -0.056,0.807 c -0.007,0.097 -0.084,0.175 -0.181,0.182 l -1.937,0.138 c -0.005,3.5e-4 -0.009,5.07e-4 -0.014,5.07e-4 -0.096,0 -0.179,-0.071 -0.194,-0.167 L 8.79,10.672 H 7.21 l -0.111,0.753 c -0.015,0.101 -0.106,0.174 -0.208,0.167 L 4.954,11.454 c -0.097,-0.007 -0.175,-0.084 -0.181,-0.182 L 4.716,10.466 3.081,10.308 c 7.483e-4,0.176 0.003,0.368 0.003,0.407 0,1.727 2.191,2.557 4.912,2.566 h 0.003 0.003 c 2.722,-0.01 4.912,-0.84 4.912,-2.566 0,-0.039 0.002,-0.231 0.003,-0.407 z" />
    <circle cx="5.527" cy="8.218" r="0.727" />
    <circle cx="10.473" cy="8.218" r="0.727" />
  </g>
</svg>