<svg viewBox="0 0 16 16" xmlns="http://www.w3.org/2000/svg">
  <defs>
    <style type="text/css" id="current-color-scheme">
      .ColorScheme-NegativeText {
        color: #ff5540;
      }
    </style>
  </defs>
  <path
    d="m 6.967,10.333 q 0.4,0.4 1.033,0.392 0.633,-0.008 0.933,-0.458 L 12.667,4.667 7.067,8.4 q -0.45,0.3 -0.475,0.917 -0.025,0.617 0.375,1.017 z M 8,2.667 q 0.983,0 1.892,0.275 0.908,0.275 1.708,0.825 l -1.267,0.8 Q 9.783,4.283 9.192,4.142 8.6,4 8,4 5.783,4 4.225,5.558 q -1.558,1.558 -1.558,3.775 0,0.7 0.192,1.383 Q 3.05,11.4 3.4,12 h 9.2 q 0.383,-0.633 0.558,-1.317 0.175,-0.683 0.175,-1.417 0,-0.6 -0.142,-1.167 Q 13.05,7.533 12.767,7 l 0.8,-1.267 Q 14.067,6.517 14.358,7.4 14.65,8.283 14.667,9.233 14.683,10.183 14.45,11.05 q -0.233,0.867 -0.683,1.65 -0.183,0.3 -0.5,0.467 Q 12.95,13.333 12.6,13.333 H 3.4 q -0.35,0 -0.667,-0.167 Q 2.417,13 2.233,12.7 1.8,11.95 1.567,11.108 1.333,10.267 1.333,9.333 q 0,-1.383 0.525,-2.592 Q 2.383,5.533 3.292,4.625 4.2,3.717 5.417,3.192 6.633,2.667 8,2.667 Z m 0.117,5.217 z"
    class="ColorScheme-NegativeText" fill="currentColor" />
</svg>