<svg height="16" width="16" xmlns="http://www.w3.org/2000/svg">
  <style type="text/css" id="current-color-scheme">
    .ColorScheme-Text {
      color: #e2e2e5;
    }
  </style>
  <path
    d="m 3.6,13.6 q -0.5,0 -0.85,-0.35 Q 2.4,12.9 2.4,12.4 V 3.15 q 0,-0.25 0.233,-0.35 0.233,-0.1 0.417,0.083 L 4.75,4.583 4.1,5.233 4.667,5.8 5.317,5.15 6.817,6.65 6.167,7.3 6.733,7.867 l 0.65,-0.65 1.5,1.5 -0.65,0.65 0.567,0.567 0.65,-0.65 1.517,1.517 -0.65,0.65 0.567,0.567 0.65,-0.65 1.583,1.583 q 0.183,0.183 0.083,0.417 -0.1,0.233 -0.35,0.233 z m 0.4,-1.6 H 9.9 L 4,6.1 Z"
    class="ColorScheme-Text" fill="currentColor" />
</svg>