<svg viewBox="0 0 16 16" xmlns="http://www.w3.org/2000/svg">
  <defs>
    <style type="text/css" id="current-color-scheme">
      .ColorScheme-Text {
        color: #e2e2e5;
      }
    </style>
  </defs>
  <path
    d="m 3.15,13.333 q -1,0 -1.708,-0.717 Q 0.733,11.9 0.7,10.883 q 0,-0.15 0.017,-0.3 0.017,-0.15 0.05,-0.3 l 1.4,-5.6 Q 2.4,3.783 3.117,3.225 3.833,2.667 4.75,2.667 h 6.5 q 0.917,0 1.633,0.558 0.717,0.558 0.95,1.458 l 1.4,5.6 q 0.033,0.15 0.058,0.308 0.025,0.158 0.025,0.308 0,1.017 -0.725,1.725 -0.725,0.708 -1.742,0.708 -0.7,0 -1.3,-0.367 -0.6,-0.367 -0.9,-1 L 10.183,11 Q 10.1,10.833 9.933,10.75 q -0.167,-0.083 -0.35,-0.083 H 6.417 q -0.183,0 -0.35,0.083 Q 5.9,10.833 5.817,11 L 5.35,11.967 q -0.3,0.633 -0.9,1 -0.6,0.367 -1.3,0.367 z M 3.2,12 q 0.317,0 0.575,-0.167 0.258,-0.167 0.392,-0.45 l 0.467,-0.95 Q 4.883,9.917 5.367,9.625 5.85,9.333 6.417,9.333 h 3.167 q 0.567,0 1.05,0.3 0.483,0.3 0.75,0.8 l 0.467,0.95 q 0.133,0.283 0.392,0.45 Q 12.5,12 12.817,12 q 0.467,0 0.8,-0.308 0.333,-0.308 0.35,-0.775 0,0.017 -0.033,-0.317 l -1.4,-5.583 q -0.117,-0.45 -0.467,-0.733 Q 11.717,4 11.25,4 H 4.75 Q 4.283,4 3.925,4.283 3.567,4.567 3.467,5.017 l -1.4,5.583 q -0.033,0.1 -0.033,0.3 0,0.467 0.342,0.783 Q 2.717,12 3.2,12 Z M 9,7.333 q 0.283,0 0.475,-0.192 0.192,-0.192 0.192,-0.475 0,-0.283 -0.192,-0.475 Q 9.283,6 9,6 8.717,6 8.525,6.192 q -0.192,0.192 -0.192,0.475 0,0.283 0.192,0.475 Q 8.717,7.333 9,7.333 Z M 10.333,6 q 0.283,0 0.475,-0.192 Q 11,5.617 11,5.333 11,5.05 10.808,4.858 q -0.192,-0.192 -0.475,-0.192 -0.283,0 -0.475,0.192 -0.192,0.192 -0.192,0.475 0,0.283 0.192,0.475 Q 10.05,6 10.333,6 Z m 0,2.667 q 0.283,0 0.475,-0.192 Q 11,8.283 11,8 11,7.717 10.808,7.525 10.617,7.333 10.333,7.333 10.05,7.333 9.858,7.525 9.667,7.717 9.667,8 q 0,0.283 0.192,0.475 Q 10.05,8.667 10.333,8.667 Z m 1.333,-1.333 q 0.283,0 0.475,-0.192 0.192,-0.192 0.192,-0.475 0,-0.283 -0.192,-0.475 Q 11.95,6 11.667,6 11.383,6 11.192,6.192 11,6.383 11,6.667 q 0,0.283 0.192,0.475 0.192,0.192 0.475,0.192 z m -6,1 q 0.217,0 0.358,-0.142 Q 6.167,8.05 6.167,7.833 V 7.167 H 6.833 Q 7.05,7.167 7.192,7.025 7.333,6.883 7.333,6.667 7.333,6.45 7.192,6.308 7.05,6.167 6.833,6.167 H 6.167 V 5.5 Q 6.167,5.283 6.025,5.142 5.883,5 5.667,5 5.45,5 5.308,5.142 5.167,5.283 5.167,5.5 V 6.167 H 4.5 q -0.217,0 -0.358,0.142 Q 4,6.45 4,6.667 4,6.883 4.142,7.025 4.283,7.167 4.5,7.167 h 0.667 v 0.667 q 0,0.217 0.142,0.358 Q 5.45,8.333 5.667,8.333 Z M 8,8 Z"
    class="ColorScheme-Text" fill="currentColor" />
</svg>