<svg height="16" width="16" xmlns="http://www.w3.org/2000/svg">
  <style type="text/css" id="current-color-scheme">
    .ColorScheme-Text {
      color: #e2e2e5;
    }
  </style>
  <path
    d="M 13.389,7.501 8.499,2.611 a 0.721,0.721 0 0 0 -1.02,0 l -1.016,1.016 1.288,1.288 a 0.857,0.857 0 0 1 0.881,0.205 0.858,0.858 0 0 1 0.204,0.887 l 1.241,1.241 a 0.856,0.856 0 0 1 0.887,0.204 0.858,0.858 0 0 1 0,1.214 0.859,0.859 0 0 1 -1.214,0 0.858,0.858 0 0 1 -0.187,-0.934 l -1.158,-1.158 v 3.047 a 0.858,0.858 0 0 1 0.227,1.376 0.858,0.858 0 0 1 -1.214,0 0.858,0.858 0 0 1 0,-1.214 0.857,0.857 0 0 1 0.281,-0.188 v -3.075 a 0.853,0.853 0 0 1 -0.281,-0.187 0.859,0.859 0 0 1 -0.185,-0.939 l -1.27,-1.27 -3.353,3.352 a 0.721,0.721 0 0 0 0,1.02 l 4.89,4.89 a 0.722,0.722 0 0 0 1.02,0 L 13.389,8.521 a 0.722,0.722 0 0 0 0,-1.02"
    class="ColorScheme-Text" fill="currentColor" />
</svg>