<svg height="16" width="16" xmlns="http://www.w3.org/2000/svg">
  <style type="text/css" id="current-color-scheme">
    .ColorScheme-Text {
      color: #e2e2e5;
    }
  </style>
  <path
    d="m 3.2,13.6 v -2.55 L 11.5,2.75 q 0.183,-0.183 0.4,-0.267 Q 12.117,2.4 12.35,2.4 q 0.233,0 0.45,0.083 0.217,0.083 0.4,0.267 l 0.85,0.85 q 0.183,0.183 0.267,0.4 0.083,0.217 0.083,0.45 0,0.233 -0.083,0.45 -0.083,0.217 -0.267,0.4 L 5.75,13.6 Z m 1.2,-1.2 H 5.25 L 11.583,6.067 11.167,5.633 10.733,5.217 4.4,11.55 Z M 13.383,4.217 12.533,3.367 Z m -2.217,1.417 -0.433,-0.417 0.85,0.85 z M 9.4,13.6 q 1.017,0 2.008,-0.592 0.992,-0.592 0.992,-1.608 0,-0.567 -0.258,-0.942 -0.258,-0.375 -0.825,-0.725 l -0.9,0.883 q 0.417,0.217 0.6,0.375 0.183,0.158 0.183,0.408 0,0.383 -0.592,0.692 -0.592,0.308 -1.208,0.308 -0.233,0 -0.417,0.183 -0.183,0.183 -0.183,0.417 0,0.25 0.183,0.425 0.183,0.175 0.417,0.175 z M 3.6,8.95 4.533,8.017 Q 4.183,7.933 3.892,7.75 3.6,7.567 3.6,7.4 q 0,-0.167 0.292,-0.375 Q 4.183,6.817 5.017,6.4 6.333,5.733 6.767,5.258 7.2,4.783 7.2,4.2 q 0,-0.85 -0.625,-1.325 Q 5.95,2.4 4.967,2.4 4.283,2.4 3.667,2.625 3.05,2.85 2.767,3.217 q -0.15,0.2 -0.133,0.442 0.017,0.242 0.217,0.392 0.183,0.15 0.442,0.125 0.258,-0.025 0.408,-0.192 0.217,-0.217 0.55,-0.3 0.333,-0.083 0.717,-0.083 0.517,0 0.775,0.175 0.258,0.175 0.258,0.425 0,0.217 -0.275,0.442 -0.275,0.225 -1.242,0.692 Q 3.317,5.9 2.858,6.35 2.4,6.8 2.4,7.4 q 0,0.483 0.292,0.883 0.292,0.4 0.908,0.667 z"
    class="ColorScheme-Text" fill="currentColor" />
</svg>