<svg viewBox="0 0 16 16" xmlns="http://www.w3.org/2000/svg">
  <defs>
    <style type="text/css" id="current-color-scheme">
      .ColorScheme-Text {
        color: #e2e2e5;
      }
    </style>
  </defs>
  <path
    d="M 14.159,7.43 8.57,1.842 a 0.824,0.824 0 0 0 -1.166,0 l -1.161,1.161 1.472,1.472 a 0.979,0.979 0 0 1 1.007,0.235 0.981,0.981 0 0 1 0.233,1.014 l 1.419,1.419 a 0.979,0.979 0 0 1 1.014,0.233 0.981,0.981 0 0 1 0,1.387 0.981,0.981 0 0 1 -1.388,0 0.98,0.98 0 0 1 -0.213,-1.067 l -1.323,-1.323 v 3.482 a 0.981,0.981 0 0 1 0.259,1.573 0.981,0.981 0 0 1 -1.387,0 0.981,0.981 0 0 1 0,-1.387 0.98,0.98 0 0 1 0.322,-0.214 v -3.514 a 0.975,0.975 0 0 1 -0.322,-0.214 0.982,0.982 0 0 1 -0.211,-1.073 l -1.451,-1.451 -3.832,3.831 a 0.824,0.824 0 0 0 0,1.166 l 5.589,5.589 a 0.825,0.825 0 0 0 1.166,0 L 14.159,8.596 a 0.825,0.825 0 0 0 0,-1.166"
    class="ColorScheme-Text" fill="currentColor" />
</svg>