<svg viewBox="0 0 16 16" xmlns="http://www.w3.org/2000/svg">
  <defs>
    <style type="text/css" id="current-color-scheme">
      .ColorScheme-Text {
        color: #e2e2e5;
      }
    </style>
  </defs>
  <path
    d="m 8,14.667 q -1.367,0 -2.583,-0.525 Q 4.2,13.617 3.292,12.708 2.383,11.8 1.858,10.583 1.333,9.367 1.333,8 q 0,-1.383 0.542,-2.6 0.542,-1.217 1.467,-2.117 0.925,-0.9 2.158,-1.425 1.233,-0.525 2.633,-0.525 1.333,0 2.517,0.458 Q 11.833,2.25 12.725,3.058 13.617,3.867 14.142,4.975 q 0.525,1.108 0.525,2.392 0,1.917 -1.167,2.942 -1.167,1.025 -2.833,1.025 H 9.433 q -0.15,0 -0.208,0.083 Q 9.167,11.5 9.167,11.6 q 0,0.2 0.25,0.575 0.25,0.375 0.25,0.858 0,0.833 -0.458,1.233 Q 8.75,14.667 8,14.667 Z M 8,8 Z M 4.333,8.667 Q 4.767,8.667 5.05,8.383 5.333,8.1 5.333,7.667 5.333,7.233 5.05,6.95 4.767,6.667 4.333,6.667 3.9,6.667 3.617,6.95 3.333,7.233 3.333,7.667 3.333,8.1 3.617,8.383 3.9,8.667 4.333,8.667 Z M 6.333,6 Q 6.767,6 7.05,5.717 7.333,5.433 7.333,5 7.333,4.567 7.05,4.283 6.767,4 6.333,4 5.9,4 5.617,4.283 5.333,4.567 5.333,5 q 0,0.433 0.283,0.717 Q 5.9,6 6.333,6 Z M 9.667,6 Q 10.1,6 10.383,5.717 10.667,5.433 10.667,5 q 0,-0.433 -0.283,-0.717 Q 10.1,4 9.667,4 9.233,4 8.95,4.283 8.667,4.567 8.667,5 8.667,5.433 8.95,5.717 9.233,6 9.667,6 Z m 2,2.667 q 0.433,0 0.717,-0.283 Q 12.667,8.1 12.667,7.667 12.667,7.233 12.383,6.95 12.1,6.667 11.667,6.667 11.233,6.667 10.95,6.95 10.667,7.233 10.667,7.667 10.667,8.1 10.95,8.383 11.233,8.667 11.667,8.667 Z M 8,13.333 q 0.15,0 0.242,-0.083 0.092,-0.083 0.092,-0.217 0,-0.233 -0.25,-0.55 -0.25,-0.317 -0.25,-0.95 0,-0.7 0.483,-1.117 Q 8.8,10 9.5,10 h 1.167 q 1.1,0 1.883,-0.642 0.783,-0.642 0.783,-1.992 0,-2.017 -1.542,-3.358 Q 10.25,2.667 8.133,2.667 q -2.267,0 -3.867,1.55 -1.6,1.55 -1.6,3.783 0,2.217 1.558,3.775 1.558,1.558 3.775,1.558 z"
    class="ColorScheme-Text" fill="currentColor" />
</svg>