<svg viewBox="0 0 16 16" xmlns="http://www.w3.org/2000/svg">
  <defs>
    <style type="text/css" id="current-color-scheme">
      .ColorScheme-Text {
        color: #e2e2e5;
      }
    </style>
  </defs>
  <path
    d="M 3.333,14 Q 2.783,14 2.392,13.608 2,13.217 2,12.667 q 0,-0.55 0.392,-0.942 0.392,-0.392 0.942,-0.392 0.55,0 0.942,0.392 0.392,0.392 0.392,0.942 0,0.55 -0.392,0.942 Q 3.883,14 3.333,14 Z m 8,0 q 0,-1.95 -0.733,-3.642 Q 9.867,8.667 8.6,7.4 7.333,6.133 5.642,5.4 3.95,4.667 2,4.667 v -2 q 2.367,0 4.417,0.883 2.05,0.883 3.6,2.433 1.55,1.55 2.433,3.6 Q 13.333,11.633 13.333,14 Z m -4,0 q 0,-1.117 -0.417,-2.075 Q 6.5,10.967 5.767,10.233 5.033,9.5 4.075,9.083 3.117,8.667 2,8.667 v -2 q 1.533,0 2.858,0.575 1.325,0.575 2.325,1.575 1,1 1.575,2.325 0.575,1.325 0.575,2.858 z"
    class="ColorScheme-Text" fill="currentColor" />
</svg>