<svg viewBox="0 0 16 16" xmlns="http://www.w3.org/2000/svg">
  <defs>
    <style type="text/css" id="current-color-scheme">
      .ColorScheme-Text {
        color: #e2e2e5;
      }
    </style>
  </defs>
  <path
    d="M 11.917,14.283 7.4,9.733 q -0.333,0.133 -0.675,0.2 Q 6.383,10 6,10 4.333,10 3.167,8.833 2,7.667 2,6 2,5.4 2.167,4.858 q 0.167,-0.542 0.467,-1.025 l 2.433,2.433 1.2,-1.2 -2.433,-2.433 q 0.483,-0.3 1.025,-0.467 Q 5.4,2 6,2 7.667,2 8.833,3.167 10,4.333 10,6 10,6.383 9.933,6.725 9.867,7.067 9.733,7.4 l 4.55,4.517 z m 0,-1.9 0.45,-0.45 L 8.1,7.667 Q 8.4,7.333 8.533,6.892 8.667,6.45 8.667,6 8.667,5 8.025,4.258 7.383,3.517 6.433,3.367 l 1.7,1.7 -3.067,3.067 -1.7,-1.7 q 0.15,0.95 0.892,1.592 Q 5,8.667 6,8.667 q 0.433,0 0.867,-0.133 Q 7.3,8.4 7.65,8.117 Z M 7.867,7.867 Z"
    class="ColorScheme-Text" fill="currentColor" />
</svg>