<svg viewBox="0 0 16 16" xmlns="http://www.w3.org/2000/svg">
  <defs>
    <style type="text/css" id="current-color-scheme">
      .ColorScheme-Text {
        color: #e2e2e5;
      }
    </style>
  </defs>
  <path
    d="M 15.19,6.718 C 14.853,6.484 14.079,6.396 13.473,6.513 13.403,5.927 13.079,5.415 12.516,4.96 L 12.193,4.726 11.968,5.063 c -0.281,0.439 -0.422,1.055 -0.38,1.641 0.014,0.205 0.084,0.571 0.296,0.894 -0.197,0.117 -0.605,0.264 -1.14,0.264 H 0.568 l -0.028,0.117 c -0.099,0.586 -0.099,2.417 1.056,3.823 0.873,1.069 2.167,1.611 3.87,1.611 3.687,0 6.418,-1.772 7.698,-4.98 0.507,0.015 1.59,0 2.139,-1.099 0.014,-0.029 0.042,-0.088 0.141,-0.308 L 15.5,6.909 Z M 8.702,2.588 H 7.154 V 4.052 H 8.702 V 2.588 Z m 0,1.758 H 7.154 V 5.81 H 8.702 V 4.345 Z m -1.83,0 H 5.325 V 5.81 H 6.873 V 4.345 Z m -1.83,0 H 3.495 V 5.81 H 5.043 V 4.345 Z M 3.213,6.103 H 1.665 v 1.465 h 1.548 z m 1.83,0 H 3.495 V 7.568 H 5.043 Z m 1.83,0 H 5.325 v 1.465 h 1.548 z m 1.83,0 H 7.154 V 7.568 H 8.702 Z m 1.83,0 H 8.984 v 1.465 h 1.548 z"
    class="ColorScheme-Text" fill="currentColor" />
</svg>