<svg viewBox="0 0 16 16" xmlns="http://www.w3.org/2000/svg">
  <defs>
    <style type="text/css" id="current-color-scheme">
      .ColorScheme-Text {
        color: #e2e2e5;
      }
    </style>
  </defs>
  <path d="m 13.31,4.936 v 6.126 L 8.004,14.125 V 7.999 Z" class="ColorScheme-Text" fill="currentColor" />
  <path
    d="M 8.004,7.999 V 1.873 L 2.699,4.936 Z M 2.937,4.05 C 2.388,4.367 2.051,4.951 2.051,5.584 v 4.829 c 0,0.634 0.337,1.217 0.886,1.534 l 4.182,2.415 c 0.549,0.317 1.223,0.317 1.771,0 l 4.182,-2.415 c 0.549,-0.317 0.886,-0.9 0.886,-1.534 V 5.584 c 0,-0.634 -0.337,-1.217 -0.886,-1.534 L 8.89,1.636 c -0.549,-0.317 -1.223,-0.317 -1.771,0 z M 8.242,2.759 12.424,5.173 c 0.146,0.084 0.237,0.242 0.237,0.411 v 4.829 c 0,0.169 -0.091,0.327 -0.237,0.411 l -4.182,2.415 c -0.146,0.084 -0.328,0.084 -0.475,0 L 3.585,10.824 C 3.439,10.74 3.348,10.582 3.348,10.413 V 5.584 c 0,-0.169 0.091,-0.327 0.237,-0.411 L 7.767,2.759 c 0.146,-0.084 0.328,-0.084 0.475,0 z"
    class="ColorScheme-Text" fill="currentColor" />
</svg>