<svg height="16" width="16" xmlns="http://www.w3.org/2000/svg">
  <style type="text/css" id="current-color-scheme">
    .ColorScheme-Text {
      color: #e2e2e5;
    }
  </style>
  <path
    d="m 1.6,12.8 v -1.533 q 0,-0.43 0.208,-0.79 0.208,-0.36 0.575,-0.577 0.9,-0.533 1.908,-0.817 1.008,-0.283 2.108,-0.283 1.1,0 2.108,0.283 1.008,0.283 1.908,0.817 0.367,0.217 0.575,0.577 0.208,0.36 0.208,0.79 v 1.533 z m 10.8,0 v -1.533 q 0,-0.7 -0.325,-1.3 -0.325,-0.6 -0.875,-0.983 0.65,0.133 1.258,0.358 0.608,0.225 1.158,0.558 0.367,0.217 0.575,0.578 0.208,0.361 0.208,0.789 v 1.533 z M 6.4,8 q -1,0 -1.7,-0.7 -0.7,-0.7 -0.7,-1.7 0,-1 0.7,-1.7 0.7,-0.7 1.7,-0.7 1,0 1.7,0.7 0.7,0.7 0.7,1.7 0,1 -0.7,1.7 -0.7,0.7 -1.7,0.7 z m 5.6,-2.4 q 0,1 -0.7,1.7 -0.7,0.7 -1.7,0.7 -0.133,0 -0.25,-0.008 -0.117,-0.008 -0.25,-0.042 0.417,-0.483 0.658,-1.075 0.242,-0.592 0.242,-1.275 0,-0.683 -0.242,-1.275 Q 9.517,3.733 9.1,3.25 9.233,3.217 9.35,3.208 9.467,3.2 9.6,3.2 q 1,0 1.7,0.7 0.7,0.7 0.7,1.7 z M 2.8,11.6 h 7.2 v -0.333 q 0,-0.108 -0.051,-0.196 -0.05,-0.088 -0.133,-0.137 -0.783,-0.45 -1.65,-0.692 -0.867,-0.242 -1.767,-0.242 -0.9,0 -1.767,0.233 -0.867,0.233 -1.65,0.7 -0.083,0.047 -0.133,0.132 -0.05,0.085 -0.05,0.2 z m 3.604,-4.8 q 0.497,0 0.847,-0.354 0.35,-0.354 0.35,-0.85 0,-0.497 -0.353,-0.847 -0.354,-0.35 -0.85,-0.35 -0.497,0 -0.847,0.354 -0.35,0.354 -0.35,0.85 0,0.497 0.354,0.847 0.354,0.35 0.85,0.35 z m -0.004,4.8 z m 0,-6 z"
    class="ColorScheme-Text" fill="currentColor" />
</svg>