<svg height="16" width="16" xmlns="http://www.w3.org/2000/svg">
  <style type="text/css" id="current-color-scheme">
    .ColorScheme-Text {
      color: #e2e2e5;
    }
  </style>
  <path
    d="m 10.233,10.833 0.85,-0.85 L 8.6,7.5 V 4 H 7.4 V 8 Z m -2.233,3.567 q -1.323,0 -2.486,-0.5 -1.163,-0.5 -2.038,-1.375 -0.875,-0.875 -1.375,-2.041 Q 1.6,9.318 1.6,7.992 1.6,6.667 2.1,5.5 2.6,4.333 3.475,3.467 4.35,2.6 5.516,2.1 6.682,1.6 8.008,1.6 q 1.326,0 2.493,0.504 1.167,0.504 2.03,1.368 0.863,0.864 1.367,2.032 0.503,1.168 0.503,2.496 0,1.323 -0.5,2.486 -0.5,1.164 -1.367,2.039 -0.867,0.875 -2.035,1.375 -1.169,0.5 -2.498,0.5 z m 0,-6.4 z m 0.008,5.2 q 2.158,0 3.675,-1.525 1.517,-1.525 1.517,-3.683 0,-2.158 -1.517,-3.675 -1.517,-1.517 -3.675,-1.517 -2.158,0 -3.683,1.517 Q 2.8,5.834 2.8,7.992 q 0,2.158 1.525,3.683 1.525,1.525 3.683,1.525 z"
    class="ColorScheme-Text" fill="currentColor" />
</svg>