<svg viewBox="0 0 16 16" xmlns="http://www.w3.org/2000/svg">
  <defs>
    <style type="text/css" id="current-color-scheme">
      .ColorScheme-Text {
        color: #e2e2e5;
      }
    </style>
  </defs>
  <path
    d="M 4.5,14 4.333,12.533 6.233,7.3 Q 6.483,7.533 6.775,7.692 7.067,7.85 7.4,7.933 L 5.567,12.967 Z m 7,0 L 10.433,12.967 8.6,7.933 Q 8.933,7.85 9.225,7.692 9.517,7.533 9.767,7.3 l 1.9,5.233 z M 8,7.333 Q 7.167,7.333 6.583,6.75 6,6.167 6,5.333 6,4.683 6.375,4.175 6.75,3.667 7.333,3.467 V 2 H 8.667 V 3.467 Q 9.25,3.667 9.625,4.175 10,4.683 10,5.333 10,6.167 9.417,6.75 8.833,7.333 8,7.333 Z M 8,6 Q 8.283,6 8.475,5.808 8.667,5.617 8.667,5.333 8.667,5.05 8.475,4.858 8.283,4.667 8,4.667 q -0.283,0 -0.475,0.192 -0.192,0.192 -0.192,0.475 0,0.283 0.192,0.475 Q 7.717,6 8,6 Z"
    class="ColorScheme-Text" fill="currentColor" />
</svg>