<svg viewBox="0 0 16 16" xmlns="http://www.w3.org/2000/svg">
  <defs>
    <style type="text/css" id="current-color-scheme">
      .ColorScheme-Text {
        color: #e2e2e5;
      }
    </style>
  </defs>
  <path
    d="m 6.162,11.827 c 0,0 -0.535,0.311 0.381,0.416 1.11,0.127 1.676,0.108 2.899,-0.123 0,0 0.322,0.201 0.771,0.376 -2.741,1.174 -6.203,-0.068 -4.051,-0.669 z M 5.827,10.294 c 0,0 -0.6,0.444 0.317,0.539 1.185,0.122 2.121,0.132 3.741,-0.179 0,0 0.224,0.227 0.576,0.351 -3.313,0.969 -7.004,0.076 -4.633,-0.711 z"
    class="ColorScheme-Text" fill="currentColor" />
  <path
    d="M 8.651,7.694 C 9.326,8.472 8.474,9.171 8.474,9.171 c 0,0 1.715,-0.885 0.927,-1.994 C 8.665,6.144 8.101,5.63 11.155,3.86 11.155,3.86 6.362,5.056 8.651,7.694 Z"
    class="ColorScheme-Text" fill="currentColor" />
  <path
    d="m 12.276,12.96 c 0,0 0.396,0.326 -0.436,0.579 -1.582,0.479 -6.584,0.624 -7.974,0.019 -0.499,-0.217 0.437,-0.519 0.732,-0.582 0.307,-0.066 0.483,-0.054 0.483,-0.054 C 4.525,12.53 1.49,13.69 3.539,14.022 9.127,14.928 13.725,13.614 12.276,12.961 Z M 6.42,8.706 c 0,0 -2.544,0.604 -0.901,0.824 0.694,0.093 2.077,0.071 3.366,-0.037 1.053,-0.088 2.11,-0.277 2.11,-0.277 0,0 -0.371,0.159 -0.64,0.342 C 7.771,10.238 2.78,9.922 4.217,9.227 5.432,8.639 6.42,8.706 6.42,8.706 Z m 4.565,2.551 c 2.627,-1.365 1.412,-2.676 0.564,-2.499 -0.207,0.043 -0.3,0.081 -0.3,0.081 0,0 0.077,-0.121 0.224,-0.173 1.677,-0.589 2.967,1.739 -0.541,2.661 -1.16e-4,0 0.04,-0.036 0.052,-0.069 z"
    class="ColorScheme-Text" fill="currentColor" />
  <path
    d="m 9.401,1 c 0,0 1.454,1.455 -1.38,3.692 C 5.748,6.488 7.503,7.511 8.02,8.681 6.693,7.484 5.72,6.43 6.373,5.449 7.331,4.009 9.988,3.311 9.401,1 Z"
    class="ColorScheme-Text" fill="currentColor" />
  <path
    d="m 6.678,14.956 c 2.521,0.161 6.393,-0.09 6.485,-1.283 0,0 -0.176,0.452 -2.084,0.811 -2.152,0.405 -4.806,0.358 -6.38,0.098 0,0 0.323,0.267 1.979,0.373 z"
    class="ColorScheme-Text" fill="currentColor" />
</svg>