<svg height="16" width="16" xmlns="http://www.w3.org/2000/svg">
  <style type="text/css" id="current-color-scheme">
    .ColorScheme-Text {
      color: #e2e2e5;
    }
  </style>
  <path
    d="m 6.377,3.263 c -0.337,0 -0.649,0.179 -0.818,0.47 l -3.03,5.194 c -0.182,0.313 -0.171,0.702 0.03,1.003 l 1.59,2.385 c 0.176,0.264 0.472,0.422 0.788,0.422 h 6.125 c 0.317,0 0.613,-0.158 0.788,-0.422 l 1.59,-2.385 c 0.201,-0.301 0.212,-0.69 0.03,-1.003 l -3.03,-5.194 C 10.271,3.442 9.96,3.263 9.623,3.263 Z m 0.583,0.947 h 2.663 L 12.386,8.947 H 9.92 Z m 1.843,4.737 -0.846,-1.354 -0.79,1.354 z m -2.189,0.947 -1.105,1.895 h 5.554 l 1.263,-1.895 z m 0.775,-3.209 -2.732,4.684 -1.31,-1.965 2.772,-4.752 z"
    class="ColorScheme-Text" fill="currentColor" fill-rule="evenodd" />
</svg>