<svg viewBox="0 0 16 16" xmlns="http://www.w3.org/2000/svg">
  <defs>
    <style type="text/css" id="current-color-scheme">
      .ColorScheme-NegativeText {
        color: #ff5540;
      }
    </style>
  </defs>
  <path
    d="m 8,12.667 q 1.1,0 1.883,-0.783 Q 10.667,11.1 10.667,10 V 7.333 q 0,-1.1 -0.783,-1.883 Q 9.1,4.667 8,4.667 6.9,4.667 6.117,5.45 5.333,6.233 5.333,7.333 V 10 q 0,1.1 0.783,1.883 Q 6.9,12.667 8,12.667 Z m -1.333,-2 H 9.333 V 9.333 H 6.667 Z M 6.667,8 H 9.333 V 6.667 H 6.667 Z M 8,8.667 Z M 8,14 Q 6.917,14 5.992,13.467 5.067,12.933 4.533,12 H 2.667 v -1.333 h 1.4 Q 4.017,10.333 4.008,10 4,9.667 4,9.333 H 2.667 V 8 H 4 Q 4,7.667 4.008,7.333 4.017,7 4.067,6.667 h -1.4 V 5.333 H 4.533 Q 4.767,4.95 5.058,4.617 5.35,4.283 5.733,4.033 L 4.667,2.933 5.6,2 7.033,3.433 Q 7.5,3.283 7.983,3.283 q 0.483,0 0.95,0.15 L 10.4,2 l 0.933,0.933 -1.1,1.1 q 0.383,0.25 0.692,0.575 0.308,0.325 0.542,0.725 h 1.867 v 1.333 h -1.4 Q 11.983,7 11.992,7.333 12,7.667 12,8 h 1.333 V 9.333 H 12 Q 12,9.667 11.992,10 q -0.008,0.333 -0.058,0.667 h 1.4 V 12 H 11.467 Q 10.933,12.933 10.008,13.467 9.083,14 8,14 Z"
    class="ColorScheme-NegativeText" fill="currentColor" />
</svg>