<svg viewBox="0 0 16 16" xmlns="http://www.w3.org/2000/svg">
  <defs>
    <style type="text/css" id="current-color-scheme">
      .ColorScheme-Text {
        color: #e2e2e5;
      }
    </style>
  </defs>
  <path
    d="M 8,14 Q 5.483,14 3.742,13.225 2,12.45 2,11.333 V 4.667 q 0,-1.1 1.758,-1.883 Q 5.517,2 8,2 10.483,2 12.242,2.783 14,3.567 14,4.667 V 11.333 Q 14,12.45 12.258,13.225 10.517,14 8,14 Z M 8,6.017 q 1.483,0 2.983,-0.425 1.5,-0.425 1.683,-0.908 Q 12.483,4.2 10.992,3.767 9.5,3.333 8,3.333 q -1.517,0 -2.975,0.425 -1.458,0.425 -1.692,0.925 Q 3.567,5.183 5.025,5.6 6.483,6.017 8,6.017 Z m 0,3.317 q 0.7,0 1.35,-0.067 Q 10,9.2 10.592,9.075 11.183,8.95 11.708,8.767 12.233,8.583 12.667,8.35 v -2 Q 12.233,6.583 11.708,6.767 11.183,6.95 10.592,7.075 10,7.2 9.35,7.267 8.7,7.333 8,7.333 q -0.7,0 -1.367,-0.067 Q 5.967,7.2 5.375,7.075 4.783,6.95 4.267,6.767 3.75,6.583 3.333,6.35 v 2 Q 3.75,8.583 4.267,8.767 4.783,8.95 5.375,9.075 5.967,9.2 6.633,9.267 7.3,9.333 8,9.333 Z m 0,3.333 q 0.767,0 1.558,-0.117 Q 10.35,12.433 11.017,12.242 11.683,12.05 12.133,11.808 q 0.45,-0.242 0.533,-0.492 V 9.683 Q 12.233,9.917 11.708,10.1 q -0.525,0.183 -1.117,0.308 Q 10,10.533 9.35,10.6 8.7,10.667 8,10.667 7.3,10.667 6.633,10.6 5.967,10.533 5.375,10.408 4.783,10.283 4.267,10.1 3.75,9.917 3.333,9.683 v 1.65 q 0.083,0.25 0.525,0.483 Q 4.3,12.05 4.967,12.242 5.633,12.433 6.433,12.55 7.233,12.667 8,12.667 Z"
    class="ColorScheme-Text" fill="currentColor" />
</svg>