<svg height="16" width="16" xmlns="http://www.w3.org/2000/svg">
  <style type="text/css" id="current-color-scheme">
    .ColorScheme-Text {
      color: #e2e2e5;
    }
  </style>
  <path
    d="m 9.333,8.55 q 1.217,-0.917 1.942,-2.05 0.725,-1.133 0.725,-2.267 0,-0.517 -0.175,-0.775 -0.175,-0.258 -0.525,-0.258 -0.85,0 -1.442,1.25 -0.592,1.25 -0.592,3.033 0,0.3 0.017,0.567 0.017,0.267 0.05,0.5 z M 2.4,13.6 v -1.2 h 1.2 v 1.2 z m 2.5,0 v -1.2 h 1.2 v 1.2 z m 2.5,0 v -1.2 h 1.2 v 1.2 z m 2.5,0 v -1.2 h 1.2 v 1.2 z m 2.5,0 v -1.2 h 1.2 v 1.2 z m -9.95,-2.4 L 1.6,10.35 2.75,9.2 1.6,8.05 2.45,7.2 3.6,8.35 4.75,7.2 5.6,8.05 4.45,9.2 l 1.15,1.15 -0.85,0.85 -1.15,-1.15 z m 7.8,0 q -0.483,0 -0.867,-0.217 -0.383,-0.217 -0.667,-0.617 -0.4,0.217 -0.825,0.408 -0.425,0.192 -0.892,0.375 L 6.583,10.033 q 0.433,-0.15 0.858,-0.342 0.425,-0.192 0.808,-0.425 -0.1,-0.383 -0.15,-0.825 -0.05,-0.442 -0.05,-0.958 Q 8.067,5.033 8.958,3.517 9.85,2 11.3,2 q 0.9,0 1.4,0.592 0.5,0.592 0.5,1.642 0,1.517 -0.9,2.942 -0.9,1.425 -2.533,2.558 0.117,0.133 0.242,0.2 0.125,0.067 0.292,0.067 0.483,0 1.067,-0.55 0.583,-0.55 1.083,-1.467 l 1.083,0.5 Q 13.383,8.867 13.341,9.3 13.3,9.733 13.383,9.983 13.566,9.9 13.833,9.667 14.1,9.433 14.316,9.15 L 15.266,9.883 q -0.483,0.617 -1.008,0.967 -0.525,0.35 -0.958,0.35 -0.367,0 -0.658,-0.242 -0.292,-0.242 -0.425,-0.658 -0.483,0.483 -0.975,0.692 -0.492,0.208 -0.992,0.208 z"
    class="ColorScheme-Text" fill="currentColor" />
</svg>