<svg height="16" width="16" xmlns="http://www.w3.org/2000/svg">
  <style type="text/css" id="current-color-scheme">
    .ColorScheme-Text {
      color: #e2e2e5;
    }
  </style>
  <path
    d="M 6.4,13.6 H 3.6 q -0.495,0 -0.847,-0.353 Q 2.4,12.895 2.4,12.4 V 9.6 Q 3.067,9.567 3.533,9.108 4,8.65 4,8 4,7.35 3.533,6.892 3.067,6.433 2.4,6.4 V 3.6 q 0,-0.495 0.352,-0.847 0.353,-0.352 0.847,-0.352 h 2.8 q 0,-0.667 0.463,-1.133 Q 7.326,0.8 7.996,0.8 q 0.67,0 1.137,0.464 0.467,0.464 0.467,1.136 h 2.8 q 0.495,0 0.848,0.352 0.353,0.353 0.353,0.847 v 2.8 q 0.667,0 1.133,0.463 0.467,0.463 0.467,1.133 0,0.671 -0.464,1.137 -0.464,0.467 -1.136,0.467 v 2.8 q 0,0.495 -0.353,0.848 -0.353,0.353 -0.848,0.353 H 9.6 Q 9.567,12.933 9.11,12.467 8.654,12 8.002,12 q -0.652,0 -1.11,0.467 -0.458,0.467 -0.492,1.133 z m -2.8,-1.2 h 1.867 q 0.333,-0.75 1.025,-1.175 0.692,-0.425 1.508,-0.425 0.817,0 1.508,0.425 0.692,0.425 1.025,1.175 h 1.867 V 8.4 h 1.2 q 0.16,0 0.28,-0.12 0.12,-0.12 0.12,-0.28 0,-0.16 -0.12,-0.28 -0.12,-0.12 -0.28,-0.12 h -1.2 V 3.6 H 8.4 V 2.4 q 0,-0.16 -0.12,-0.28 -0.12,-0.12 -0.28,-0.12 -0.16,0 -0.28,0.12 -0.12,0.12 -0.12,0.28 V 3.6 H 3.6 v 1.867 q 0.75,0.333 1.175,1.025 0.425,0.692 0.425,1.508 0,0.837 -0.425,1.527 Q 4.35,10.217 3.6,10.533 Z M 8,8 Z"
    class="ColorScheme-Text" fill="currentColor" />
</svg>