<svg height="16" width="16" xmlns="http://www.w3.org/2000/svg">
  <style type="text/css" id="current-color-scheme">
    .ColorScheme-Text {
      color: #e2e2e5;
    }
  </style>
  <path
    d="m 3.6,13.6 q -0.483,0 -0.842,-0.358 Q 2.4,12.883 2.4,12.4 V 3.6 Q 2.4,3.105 2.758,2.752 3.117,2.4 3.6,2.4 h 8.8 q 0.495,0 0.848,0.352 0.353,0.353 0.353,0.847 v 8.8 q 0,0.483 -0.353,0.842 -0.353,0.358 -0.848,0.358 z m 0,-1.2 H 12.4 V 10 h -1.867 q -0.383,0.717 -1.058,1.158 -0.675,0.442 -1.475,0.442 -0.817,0 -1.492,-0.433 Q 5.833,10.733 5.467,10 H 3.6 Z m 4.4,-2 q 0.667,0 1.133,-0.467 Q 9.6,9.467 9.6,8.8 H 12.4 V 3.6 H 3.6 v 5.2 h 2.8 q 0,0.667 0.467,1.133 0.467,0.467 1.133,0.467 z m -4.4,2 h 8.8 z"
    class="ColorScheme-Text" fill="currentColor" />
</svg>