<svg viewBox="0 0 22 22" xmlns="http://www.w3.org/2000/svg">
  <defs>
    <style type="text/css" id="current-color-scheme">
      .ColorScheme-Text {
        color: #e2e2e5;
      }
    </style>
  </defs>
  <path
    d="M 5,4 Q 4.583,4 4.292,4.292 4,4.583 4,5 4,5.417 4.292,5.708 4.583,6 5,6 5.417,6 5.708,5.708 6,5.417 6,5 6,4.583 5.708,4.292 5.417,4 5,4 Z m 0,6.667 q -0.417,0 -0.708,0.292 Q 4,11.25 4,11.667 4,12.083 4.292,12.375 4.583,12.667 5,12.667 q 0.417,0 0.708,-0.292 Q 6,12.083 6,11.667 6,11.25 5.708,10.958 5.417,10.667 5,10.667 Z M 2,8 V 2 H 14 V 8 Z M 3.333,3.333 V 6.667 H 12.667 V 3.333 Z M 2,14.667 V 8.667 H 14 V 14.667 Z M 3.333,10 v 3.333 H 12.667 V 10 Z m 0,-6.667 v 3.333 z m 0,6.667 v 3.333 z"
    class="ColorScheme-Text" fill="currentColor" />
</svg>