<svg height="16" width="16" xmlns="http://www.w3.org/2000/svg">
  <style type="text/css" id="current-color-scheme">
    .ColorScheme-Text {
      color: #e2e2e5;
    }
  </style>
  <path
    d="m 5.2,4.4 q -0.333,0 -0.567,0.233 -0.233,0.233 -0.233,0.567 0,0.333 0.233,0.567 0.233,0.233 0.567,0.233 0.333,0 0.567,-0.233 0.233,-0.233 0.233,-0.567 0,-0.333 -0.233,-0.567 Q 5.533,4.4 5.2,4.4 Z m 0,6.4 q -0.333,0 -0.567,0.233 -0.233,0.233 -0.233,0.567 0,0.333 0.233,0.567 0.233,0.233 0.567,0.233 0.333,0 0.567,-0.233 0.233,-0.233 0.233,-0.567 0,-0.333 -0.233,-0.567 Q 5.533,10.8 5.2,10.8 Z M 3.2,2.4 h 9.6 q 0.34,0 0.57,0.23 0.23,0.23 0.23,0.57 v 4 q 0,0.34 -0.23,0.57 -0.23,0.23 -0.57,0.23 H 3.2 q -0.34,0 -0.57,-0.23 -0.23,-0.23 -0.23,-0.57 V 3.2 Q 2.4,2.86 2.63,2.63 2.86,2.4 3.2,2.4 Z M 3.6,3.6 V 6.8 H 12.4 V 3.6 Z M 3.2,8.8 h 9.6 q 0.34,0 0.57,0.23 0.23,0.23 0.23,0.57 v 4 q 0,0.34 -0.23,0.57 -0.23,0.23 -0.57,0.23 H 3.2 q -0.34,0 -0.57,-0.23 -0.23,-0.23 -0.23,-0.57 V 9.6 q 0,-0.34 0.23,-0.57 0.23,-0.23 0.57,-0.23 z m 0.4,1.2 V 13.2 H 12.4 V 10 Z m 0,-6.4 v 3.2 z m 0,6.4 v 3.2 z"
    class="ColorScheme-Text" fill="currentColor" />
</svg>