<svg viewBox="0 0 16 16" xmlns="http://www.w3.org/2000/svg">
  <defs>
    <style type="text/css" id="current-color-scheme">
      .ColorScheme-Text {
        color: #e2e2e5;
      }
    </style>
  </defs>
  <path
    d="m 4.667,4 v 8.667 z M 7.5,14 H 3.333 V 4 H 2.667 V 2.667 H 6 V 2 h 4 v 0.667 h 3.333 V 4 H 12.667 V 6.867 Q 12.383,6.783 12.008,6.725 q -0.375,-0.058 -0.675,-0.058 V 4 H 4.667 v 8.667 h 2.2 q 0.1,0.35 0.267,0.692 Q 7.3,13.7 7.5,14 Z M 6,11.333 h 0.667 q 0,-1.05 0.333,-1.725 l 0.333,-0.675 v -3.6 H 6 Z M 8.667,7.5 Q 8.95,7.317 9.308,7.133 9.667,6.95 10,6.867 V 5.333 H 8.667 Z m 2.667,7.167 Q 9.95,14.667 8.975,13.692 8,12.717 8,11.333 8,9.95 8.975,8.975 9.95,8 11.333,8 q 1.383,0 2.358,0.975 0.975,0.975 0.975,2.358 0,1.383 -0.975,2.358 -0.975,0.975 -2.358,0.975 z M 12.433,12.9 12.9,12.433 11.667,11.2 V 9.333 H 11 v 2.133 z"
    class="ColorScheme-Text" fill="currentColor" />
</svg>