<svg height="16" width="16" xmlns="http://www.w3.org/2000/svg">
  <style type="text/css" id="current-color-scheme">
    .ColorScheme-Text {
      color: #e2e2e5;
    }
  </style>
  <path
    d="M 5.2,4.4 V 12.4 Z M 7.517,13.6 H 5.2 q -0.495,0 -0.847,-0.353 -0.353,-0.353 -0.353,-0.848 V 4.4 H 3.2 V 3.2 H 6.4 V 2.4 h 3.2 v 0.8 h 3.2 v 1.2 h -0.8 v 2.483 q -0.3,-0.05 -0.6,-0.075 -0.3,-0.025 -0.6,0.008 V 4.4 H 5.2 v 7.994 h 1.769 q 0.081,0.323 0.222,0.623 0.142,0.3 0.325,0.583 z m -1.117,-2.4 h 0.4 q 0,-1.167 0.4,-1.85 L 7.6,8.667 V 5.6 H 6.4 Z M 8.4,7.8 Q 8.633,7.617 8.942,7.425 9.25,7.233 9.6,7.1 V 5.6 h -1.2 z m 2.796,6.6 q -1.33,0 -2.263,-0.937 -0.933,-0.937 -0.933,-2.267 0,-1.329 0.937,-2.263 0.937,-0.933 2.267,-0.933 1.33,0 2.263,0.937 0.933,0.937 0.933,2.267 0,1.329 -0.937,2.263 -0.937,0.933 -2.267,0.933 z m 0.921,-1.717 0.567,-0.567 -1.083,-1.083 V 9.6 h -0.8 v 1.767 z"
    class="ColorScheme-Text" fill="currentColor" />
</svg>