<svg height="96" width="96" version="1.1" xmlns="http://www.w3.org/2000/svg" xmlns:svg="http://www.w3.org/2000/svg">
  <defs>
    <style type="text/css" id="current-color-scheme">
      .ColorScheme-Accent {
        color: #95ccff;
      }

      .ColorScheme-Background {
        color: #28292d;
      }
    </style>
    <linearGradient x1="48" y1="80" x2="48" y2="16" gradientUnits="userSpaceOnUse">
      <stop stop-opacity="0.15" offset="0" />
      <stop stop-opacity="0" offset="1" />
    </linearGradient>
    <path id="folder-back" d="M 8,34 v -12 q 0,-2.3 1.8,-4.15 1.8,-1.85 4.2,-1.85 h 28.1 l 6,6 v 12 z" />
    <path id="icon"
      d="m 38.737,67.513 q -2.4,0 -4.075,-1.675 -1.675,-1.675 -1.675,-4.075 0,-2.4 1.675,-4.075 1.675,-1.675 4.075,-1.675 2.4,0 4.075,1.675 1.675,1.675 1.675,4.075 0,2.4 -1.675,4.075 -1.675,1.675 -4.075,1.675 z m 18.525,0 q -2.4,0 -4.075,-1.675 -1.675,-1.675 -1.675,-4.075 0,-2.4 1.675,-4.075 1.675,-1.675 4.075,-1.675 2.4,0 4.075,1.675 1.675,1.675 1.675,4.075 0,2.4 -1.675,4.075 -1.675,1.675 -4.075,1.675 z M 38.735,65.012 q 1.34,0 2.296,-0.954 0.956,-0.954 0.956,-2.294 0,-1.34 -0.954,-2.296 -0.954,-0.956 -2.294,-0.956 -1.339,0 -2.296,0.954 -0.956,0.954 -0.956,2.294 0,1.34 0.954,2.296 0.954,0.956 2.293,0.956 z m 18.525,0 q 1.34,0 2.296,-0.954 0.956,-0.954 0.956,-2.294 0,-1.34 -0.954,-2.296 -0.954,-0.956 -2.294,-0.956 -1.34,0 -2.296,0.954 -0.956,0.954 -0.956,2.294 0,1.34 0.954,2.296 0.954,0.956 2.294,0.956 z m -9.248,-13.025 q -2.4,0 -4.075,-1.675 -1.675,-1.675 -1.675,-4.075 0,-2.4 1.675,-4.075 1.675,-1.675 4.075,-1.675 2.4,0 4.075,1.675 1.675,1.675 1.675,4.075 0,2.4 -1.675,4.075 -1.675,1.675 -4.075,1.675 z m -0.002,-2.5 q 1.34,0 2.296,-0.954 0.956,-0.954 0.956,-2.294 0,-1.34 -0.954,-2.296 -0.954,-0.956 -2.293,-0.956 -1.34,0 -2.296,0.954 -0.956,0.954 -0.956,2.294 0,1.34 0.954,2.296 0.954,0.956 2.294,0.956 z m 0.002,-3.25 z m 9.25,15.525 z m -18.525,0 z" />
  </defs>
  <use href="#folder-back" class="ColorScheme-Accent" fill="currentColor" />
  <use href="#folder-back" class="ColorScheme-Background" fill="currentColor" opacity="0.3" />
  <path
    d="M 14,80 q -2.4,0 -4.2,-1.85 -1.8,-1.85 -1.8,-4.15 v -40 q 0,-2.3 1.8,-4.15 1.8,-1.85 4.2,-1.85 h 28.1 l 6,-6 h 33.9 q 2.3,0 4.15,1.85 1.85,1.85 1.85,4.15 v 46 q 0,2.3 -1.85,4.15 -1.85,1.85 -4.15,1.85 z"
    class="ColorScheme-Accent" fill="currentColor" />
  <use href="#icon" class="ColorScheme-Background" fill="currentColor" opacity="0.8" />
  <path
    d="M 14,80 Q 11.6,80 9.8,78.15 8,76.3 8,74 V 22 Q 8,19.7 9.8,17.85 11.6,16 14,16 h 28.1 l 6,6 H 82 q 2.3,0 4.15,1.85 Q 88,25.7 88,28 v 46 q 0,2.3 -1.85,4.15 Q 84.3,80 82,80 Z"
    fill="url(#lg1)" />
</svg>