<svg viewBox="0 0 96 96" xmlns="http://www.w3.org/2000/svg">
  <defs>
    <style type="text/css" id="current-color-scheme">
      .ColorScheme-Accent {
        color: #95ccff;
      }

      .ColorScheme-Background {
        color: #1e2022;
      }
    </style>
    <path id="folder-back" d="M 8,80 V 16 h 34.1 l 6,6 H 88 v 58 z" />
  </defs>
  <use href="#folder-back" class="ColorScheme-Accent" fill="currentColor" />
  <use href="#folder-back" class="ColorScheme-Background" fill="currentColor" opacity="0.3" />
  <path d="M 8,80 V 28 h 34.1 l 6,-6 H 88 v 58 z" class="ColorScheme-Accent" fill="currentColor" />
  <path
    d="m 50.055,68.842 c -1.635,-0.273 -3.952,-1.227 -5.315,-2.112 -3.134,-2.044 -5.185,-4.318 -6.453,-7.156 -0.409,-0.953 -0.651,-1.635 -1.362,-4.087 -0.137,-0.614 -0.368,-1.301 -0.453,-1.515 -0.144,-0.361 -0.15,-0.483 -0.088,-1.688 0.06,-1.09 0.273,-2.725 0.409,-2.856 0.02,-0.032 0.068,-0.039 0.105,-0.017 0.128,0.076 0.247,-0.276 0.363,-1.077 0.064,-0.439 0.164,-0.9 0.223,-1.023 0.059,-0.124 0.158,-0.397 0.221,-0.607 0.145,-0.484 0.342,-0.856 0.951,-1.794 0.268,-0.412 0.547,-0.862 0.619,-0.998 0.086,-0.161 0.179,-0.24 0.265,-0.224 0.082,0.016 0.218,-0.088 0.361,-0.276 0.619,-0.818 3.538,-3.231 3.808,-3.149 0.074,0.023 0.382,-0.079 0.684,-0.225 0.548,-0.265 0.789,-0.326 0.789,-0.2 0,0.036 -0.079,0.119 -0.176,0.183 -0.17,0.113 -0.166,0.115 0.098,0.054 0.15,-0.035 0.404,-0.085 0.563,-0.111 0.197,-0.032 0.277,-0.079 0.25,-0.147 -0.024,-0.06 0.033,-0.119 0.14,-0.146 0.269,-0.069 0.688,-0.058 0.688,0.019 0,0.092 -0.24,0.184 -0.43,0.166 -0.13,-0.012 -0.136,-10e-4 -0.039,0.062 0.097,0.064 0.098,0.077 0.007,0.078 -0.061,6.27e-4 -0.091,0.02 -0.066,0.044 0.025,0.023 0.187,-0.027 0.362,-0.113 0.175,-0.086 0.495,-0.192 0.711,-0.236 0.266,-0.055 0.393,-0.118 0.393,-0.197 0,-0.101 0.124,-0.11 0.957,-0.066 0.527,0.027 1.321,0.106 1.766,0.176 0.808,0.127 0.808,0.127 1.11,-0.04 0.361,-0.2 0.943,-0.226 1.095,-0.049 0.056,0.065 0.21,0.171 0.342,0.237 0.215,0.107 0.23,0.107 0.139,10e-4 -0.173,-0.2 -10e-4,-0.195 0.667,0.02 2.154,0.692 3.91,1.925 5.212,3.66 0.309,0.411 0.328,0.596 0.035,0.346 l -0.167,-0.143 0.128,0.24 c 0.07,0.132 0.128,0.28 0.128,0.33 0,0.049 0.207,0.414 0.46,0.81 0.571,0.893 0.73,1.194 0.692,1.304 -0.016,0.047 -0.269,-0.267 -0.562,-0.699 -0.292,-0.432 -0.725,-1.013 -0.962,-1.292 -0.353,-0.417 -0.446,-0.488 -0.518,-0.399 -0.048,0.06 -0.166,0.119 -0.262,0.133 l -0.174,0.024 0.172,0.324 c 0.095,0.178 0.185,0.288 0.2,0.244 0.082,-0.237 0.465,0.075 0.639,0.52 0.056,0.144 0.207,0.442 0.334,0.661 0.127,0.219 0.215,0.414 0.195,0.432 -0.019,0.019 -0.135,-0.041 -0.257,-0.133 l -0.222,-0.167 0.151,0.249 c 0.083,0.137 0.223,0.305 0.31,0.373 0.109,0.085 0.161,0.219 0.165,0.427 0.01,0.384 0.238,0.838 0.363,0.718 0.194,-0.186 0.234,-0.07 0.185,0.54 -0.036,0.45 -0.017,0.746 0.069,1.061 0.13,0.478 0.102,0.596 -0.088,0.372 -0.121,-0.142 -0.122,-0.142 -0.068,0.006 0.116,0.316 0.202,0.788 0.178,0.974 -0.045,0.346 -0.18,0.202 -0.227,-0.241 l -0.046,-0.433 -0.014,0.461 c -0.007,0.253 -0.069,0.743 -0.138,1.088 -0.069,0.348 -0.104,0.771 -0.079,0.95 0.048,0.337 0.014,0.35 -0.28,0.109 -0.12,-0.098 -0.14,-0.078 -0.222,0.214 -0.069,0.246 -0.069,0.386 0.003,0.593 0.051,0.149 0.081,0.35 0.066,0.448 -0.034,0.225 -0.222,0.296 -0.222,0.083 0,-0.267 -0.106,-0.172 -0.43,0.386 -0.875,1.507 -2.259,2.674 -3.825,3.224 -0.923,0.324 -1.543,0.445 -2.584,0.502 l -0.938,0.052 0.463,0.137 c 0.374,0.111 0.593,0.127 1.133,0.085 0.708,-0.055 1.539,-0.202 1.916,-0.34 0.15,-0.055 0.252,-0.057 0.304,-0.008 0.123,0.118 -0.966,0.58 -1.612,0.685 -1.099,0.178 -2.571,-0.014 -3.87,-0.507 -0.881,-0.334 -2.189,-1.204 -1.989,-1.323 0.038,-0.022 0.287,0.091 0.553,0.253 0.34,0.206 0.484,0.261 0.484,0.183 0,-0.147 0.05,-0.14 0.321,0.045 0.244,0.167 0.995,0.477 1.536,0.634 0.589,0.171 0.361,-0.036 -0.43,-0.39 -2.5,-1.119 -3.538,-2.238 -4.056,-4.372 -0.19,-0.783 0.014,-2.498 0.36,-3.036 0.088,-0.136 0.159,-0.304 0.159,-0.372 0,-0.297 0.517,-1.083 1.047,-1.591 0.934,-0.896 1.905,-1.268 3.165,-1.213 0.609,0.027 0.87,0.078 1.377,0.272 0.575,0.22 1.299,0.68 1.078,0.685 -0.052,0.001 -0.281,-0.072 -0.508,-0.163 -0.345,-0.138 -0.567,-0.166 -1.351,-0.169 -1.101,-0.004 -1.639,0.146 -2.423,0.675 -1.111,0.75 -1.729,1.614 -1.948,2.724 -0.147,0.745 -0.151,0.951 -0.037,1.69 0.066,0.426 0.113,0.55 0.195,0.52 0.069,-0.025 0.109,0.012 0.109,0.103 0,0.264 0.598,1.334 1.013,1.812 0.998,1.151 2.613,1.886 4.146,1.886 0.795,0 1.438,-0.147 2.03,-0.463 0.238,-0.127 0.538,-0.282 0.667,-0.345 0.455,-0.221 0.737,-0.474 1.067,-0.956 0.183,-0.268 0.383,-0.487 0.443,-0.487 0.089,0 0.085,0.039 -0.021,0.206 -0.349,0.553 0.47,-0.452 0.894,-1.097 l 0.475,-0.722 -0.052,-0.474 c -0.05,-0.456 -0.043,-0.484 0.185,-0.713 0.219,-0.22 0.239,-0.286 0.264,-0.875 0.023,-0.527 0.007,-0.637 -0.09,-0.638 -0.09,-5.18e-4 -0.129,-0.139 -0.168,-0.601 -0.05,-0.615 -0.568,-2.669 -0.689,-2.741 -0.036,-0.021 -0.137,-0.219 -0.224,-0.439 -0.294,-0.742 -0.809,-1.455 -1.613,-2.232 -1.156,-1.119 -2.612,-1.983 -3.988,-2.365 -1.17,-0.326 -3.157,-0.208 -4.572,0.272 -0.691,0.234 -1.371,0.544 -1.486,0.676 -0.052,0.061 -0.128,0.09 -0.168,0.067 -0.043,-0.025 -0.031,-0.093 0.028,-0.16 0.26,-0.302 -0.605,0.25 -1.162,0.74 -0.337,0.297 -0.624,0.549 -0.639,0.56 -0.015,0.011 0.051,5.18e-4 0.146,-0.023 0.158,-0.04 0.165,-0.029 0.079,0.125 -0.056,0.098 -0.342,0.275 -0.693,0.428 -0.59,0.257 -0.972,0.539 -1.275,0.943 -0.121,0.161 -0.128,0.196 -0.033,0.161 0.067,-0.025 0.122,-0.01 0.122,0.034 0,0.214 -0.203,0.453 -0.503,0.593 -0.665,0.311 -1.835,1.969 -2.461,3.49 -0.279,0.678 -0.275,0.655 -0.123,0.655 0.16,0 0.149,0.174 -0.071,1.111 -0.32,1.364 -0.32,1.321 0.028,3.24 0.425,2.338 0.673,3.119 1.145,3.603 0.111,0.114 0.218,0.355 0.266,0.598 0.057,0.29 0.153,0.481 0.333,0.663 0.164,0.166 0.219,0.268 0.156,0.29 -0.124,0.043 0.263,0.597 0.616,0.882 0.178,0.143 0.309,0.192 0.452,0.165 0.313,-0.057 0.631,0.115 1.12,0.608 0.508,0.512 0.559,0.649 0.223,0.602 -0.217,-0.031 -0.222,-0.025 -0.115,0.131 0.061,0.09 0.288,0.306 0.503,0.48 0.303,0.245 0.38,0.351 0.342,0.466 -0.055,0.165 0.101,0.319 0.454,0.448 0.219,0.08 0.289,0.253 0.124,0.306 -0.05,0.016 0.258,0.32 0.684,0.676 0.48,0.401 0.803,0.62 0.849,0.577 0.122,-0.113 0.277,-0.079 0.28,0.062 0.003,0.154 0.141,0.315 0.637,0.745 0.314,0.272 0.392,0.306 0.584,0.255 0.176,-0.047 0.287,-0.017 0.535,0.144 0.495,0.321 0.795,0.449 1.051,0.449 0.253,0 0.289,0.07 0.157,0.305 -0.07,0.125 -0.055,0.145 0.105,0.145 0.102,0 0.39,0.067 0.64,0.15 0.568,0.188 0.805,0.2 0.663,0.036 -0.21,-0.243 0.012,-0.177 0.764,0.228 1.05,0.565 1.582,0.63 3.673,0.446 0.31,-0.027 0.41,-0.011 0.41,0.065 0,0.065 -0.269,0.163 -0.762,0.277 -0.649,0.151 -0.995,0.18 -2.325,0.196 -1.048,0.012 -1.765,-0.015 -2.175,-0.083 z m -1.069,-11.245 c 0,-0.016 -0.097,-0.085 -0.215,-0.154 l -0.215,-0.126 0.185,0.154 c 0.18,0.151 0.245,0.184 0.245,0.126 z m 10.761,-7.861 c -0.025,-0.06 -0.043,-0.042 -0.047,0.045 -0.004,0.079 0.015,0.123 0.041,0.098 0.026,-0.025 0.029,-0.09 0.006,-0.144 z m -17.737,-7.867 c 0.097,-0.119 0.094,-0.122 -0.03,-0.028 -0.075,0.057 -0.137,0.116 -0.137,0.131 0,0.062 0.064,0.022 0.166,-0.103 z m 0.889,-0.694 c 0.078,-0.082 0.124,-0.15 0.102,-0.15 -0.022,0 -0.103,0.067 -0.181,0.15 -0.078,0.083 -0.124,0.15 -0.102,0.15 0.022,0 0.103,-0.067 0.181,-0.15 z m 0.984,-0.527 c 0.257,-0.084 0.404,-0.099 0.458,-0.046 0.054,0.052 0.256,0.021 0.631,-0.097 0.303,-0.096 0.538,-0.187 0.52,-0.203 -0.017,-0.017 -0.266,0.045 -0.554,0.138 -0.396,0.127 -0.538,0.145 -0.583,0.077 -0.074,-0.116 -0.785,0.112 -1.091,0.35 l -0.209,0.163 0.224,-0.13 c 0.124,-0.071 0.395,-0.184 0.604,-0.252 z m 2.253,-0.19 c 0.227,-0.065 0.399,-0.131 0.383,-0.146 -0.037,-0.035 -0.845,0.187 -0.845,0.232 0,0.045 0.007,0.044 0.462,-0.086 z m 1.296,-0.409 0.313,-0.055 -0.274,-0.007 c -0.15,-0.004 -0.361,0.045 -0.469,0.108 -0.126,0.075 -0.14,0.096 -0.039,0.061 0.086,-0.029 0.297,-0.078 0.469,-0.108 z m 0.621,-0.142 c 0.024,-0.037 -0.027,-0.05 -0.113,-0.029 -0.183,0.046 -0.206,0.097 -0.044,0.097 0.062,0 0.132,-0.031 0.156,-0.068 z m 2.524,0.023 c -0.026,-0.025 -0.093,-0.028 -0.15,-0.006 -0.062,0.024 -0.044,0.042 0.047,0.045 0.082,0.003 0.128,-0.014 0.103,-0.039 z m -0.468,-0.082 c -0.075,-0.019 -0.198,-0.019 -0.274,0 -0.075,0.019 -0.014,0.034 0.137,0.034 0.15,0 0.212,-0.015 0.137,-0.034 z m -0.78,-0.078 c -0.16,-0.016 -0.441,-0.016 -0.625,-4.9e-4 -0.184,0.016 -0.053,0.029 0.291,0.029 0.344,2.72e-4 0.494,-0.012 0.334,-0.029 z m -1.02,-0.066 c -0.026,-0.025 -0.093,-0.028 -0.15,-0.006 -0.062,0.024 -0.044,0.042 0.047,0.045 0.082,0.003 0.128,-0.014 0.103,-0.039 z m -0.528,18.03 c -0.796,-0.547 -1.091,-0.831 -1.091,-1.047 0,-0.115 0.027,-0.209 0.06,-0.209 0.113,0 1.444,1.333 1.415,1.417 -0.017,0.049 -0.177,-0.019 -0.384,-0.161 z m -0.41,-1.39 c -0.413,-0.401 -0.546,-0.617 -0.379,-0.617 0.1,0 0.87,0.845 0.87,0.956 0,0.052 -0.01,0.094 -0.022,0.094 -0.012,0 -0.223,-0.195 -0.469,-0.433 z m 4.575,-1.641 c -0.218,-0.084 -0.082,-0.241 0.274,-0.314 0.204,-0.042 0.529,-0.144 0.721,-0.227 0.192,-0.083 0.364,-0.137 0.381,-0.121 0.017,0.016 -0.07,0.183 -0.194,0.37 -0.223,0.339 -0.227,0.341 -0.654,0.335 -0.236,-0.003 -0.474,-0.023 -0.528,-0.044 z m 2.345,-1.678 c -0.211,-0.081 -0.22,-0.22 -0.044,-0.692 0.151,-0.405 0.308,-0.485 0.221,-0.113 -0.031,0.134 -0.073,0.328 -0.093,0.431 l -0.036,0.188 0.156,-0.171 c 0.092,-0.101 0.178,-0.338 0.21,-0.58 0.029,-0.225 0.084,-0.391 0.123,-0.369 0.097,0.057 0.086,0.65 -0.018,1.049 -0.091,0.348 -0.174,0.389 -0.518,0.256 z m -18.497,-0.942 c -0.026,-0.065 -0.047,-0.321 -0.047,-0.569 0,-0.326 0.027,-0.441 0.098,-0.419 0.116,0.037 0.184,1.107 0.07,1.107 -0.04,0 -0.095,-0.053 -0.121,-0.119 z m 18.803,-1.755 c -0.121,-0.158 -0.159,-0.282 -0.124,-0.414 0.071,-0.27 0.256,-0.232 0.392,0.081 0.212,0.488 0.028,0.716 -0.268,0.332 z m -18.819,-1.19 c -0.006,-0.425 -4.2e-5,-0.438 0.196,-0.431 0.166,0.006 0.207,0.048 0.226,0.236 0.022,0.212 -0.219,0.634 -0.362,0.634 -0.03,0 -0.057,-0.197 -0.06,-0.439 z m 20.261,-9.221 c 0.011,-0.671 0.129,-0.899 0.221,-0.429 0.064,0.327 -0.017,0.906 -0.141,1.005 -0.067,0.054 -0.088,-0.093 -0.079,-0.576 z m -10.271,-0.403 c 0.032,-0.09 1.11,-0.514 1.309,-0.514 0.234,0 -0.186,0.275 -0.669,0.439 -0.539,0.182 -0.683,0.199 -0.64,0.075 z"
    class="ColorScheme-Background" fill="currentColor" />
</svg>