<svg viewBox="0 0 96 96" xmlns="http://www.w3.org/2000/svg">
  <defs>
    <style type="text/css" id="current-color-scheme">
      .ColorScheme-Accent {
        color: #95ccff;
      }

      .ColorScheme-Background {
        color: #1e2022;
      }
    </style>
    <path id="folder-back" d="M 8,80 V 16 h 34.1 l 6,6 H 88 v 58 z" />
  </defs>
  <use href="#folder-back" class="ColorScheme-Accent" fill="currentColor" />
  <use href="#folder-back" class="ColorScheme-Background" fill="currentColor" opacity="0.3" />
  <path d="M 8,80 V 28 h 34.1 l 6,-6 H 88 v 58 z" class="ColorScheme-Accent" fill="currentColor" />
  <path
    d="m 44.894,39 v 5.625 H 41.906 l 5.8,6.563 5.801,-6.563 H 50.519 V 39 Z m 2.08,13.125 c -0.162,0 -0.263,0.277 -0.263,0.615 v 2.138 C 46.058,55.028 45.443,55.294 44.894,55.641 l -1.523,-1.523 c -0.239,-0.239 -0.501,-0.349 -0.615,-0.234 l -1.435,1.435 c -0.114,0.114 -0.006,0.376 0.234,0.615 l 1.523,1.523 C 42.731,58.006 42.465,58.62 42.316,59.273 H 40.178 c -0.338,0 -0.615,0.101 -0.615,0.263 v 2.051 c 0,0.162 0.277,0.263 0.615,0.263 h 2.138 c 0.148,0.653 0.414,1.268 0.762,1.817 l -1.523,1.523 c -0.239,0.239 -0.349,0.501 -0.234,0.615 l 1.435,1.435 c 0.114,0.114 0.376,0.006 0.615,-0.234 l 1.523,-1.523 c 0.549,0.347 1.163,0.613 1.817,0.762 V 68.385 c 0,0.338 0.101,0.615 0.263,0.615 h 2.051 c 0.162,0 0.263,-0.277 0.263,-0.615 v -2.138 c 0.653,-0.148 1.268,-0.414 1.817,-0.762 l 1.523,1.523 c 0.239,0.239 0.501,0.349 0.615,0.234 l 1.435,-1.435 c 0.114,-0.114 0.006,-0.376 -0.234,-0.615 L 52.922,63.668 C 53.269,63.119 53.535,62.505 53.684,61.852 H 55.823 c 0.338,0 0.615,-0.101 0.615,-0.263 v -2.051 c 0,-0.162 -0.277,-0.263 -0.615,-0.263 h -2.138 c -0.148,-0.652 -0.414,-1.267 -0.762,-1.817 l 1.523,-1.523 c 0.239,-0.239 0.349,-0.501 0.234,-0.615 l -1.436,-1.435 c -0.114,-0.114 -0.376,-0.005 -0.615,0.234 L 51.105,55.641 C 50.556,55.294 49.942,55.028 49.288,54.878 V 52.74 c 9.38e-4,-0.338 -0.101,-0.615 -0.263,-0.615 h -2.051 z M 48,57.955 c 1.433,0 2.607,1.175 2.607,2.607 0,1.433 -1.175,2.607 -2.607,2.607 -1.433,0 -2.607,-1.175 -2.607,-2.607 0,-1.433 1.175,-2.607 2.607,-2.607 z"
    class="ColorScheme-Background" fill="currentColor" />
</svg>