<svg viewBox="0 0 96 96" xmlns="http://www.w3.org/2000/svg">
  <defs>
    <style type="text/css" id="current-color-scheme">
      .ColorScheme-NegativeText {
        color: #ff5540;
      }

      .ColorScheme-Background {
        color: #1e2022;
      }
    </style>
    <path id="folder-back" d="M 8,80 V 16 h 34.1 l 6,6 H 88 v 58 z" />
  </defs>
  <use href="#folder-back" class="ColorScheme-NegativeText" fill="currentColor" />
  <use href="#folder-back" class="ColorScheme-Background" fill="currentColor" opacity="0.3" />
  <path d="M 8,80 V 28 h 34.1 l 6,-6 H 88 v 58 z" class="ColorScheme-NegativeText" fill="currentColor" />
  <path
    d="m 45.675,59.25 q 0.9,0.9 2.325,0.881 Q 49.425,60.113 50.1,59.1 L 58.5,46.5 45.9,54.9 Q 44.888,55.575 44.831,56.963 44.775,58.35 45.675,59.25 Z M 48,42 q 2.213,0 4.256,0.619 Q 54.3,43.238 56.1,44.475 l -2.85,1.8 Q 52.013,45.638 50.681,45.319 49.35,45 48,45 43.013,45 39.506,48.506 36,52.013 36,57 36,58.575 36.431,60.113 36.863,61.65 37.65,63 h 20.7 Q 59.213,61.575 59.606,60.038 60,58.5 60,56.85 60,55.5 59.681,54.225 59.363,52.95 58.725,51.75 l 1.8,-2.85 q 1.125,1.763 1.781,3.75 0.656,1.988 0.694,4.125 0.038,2.138 -0.488,4.088 -0.525,1.95 -1.538,3.713 -0.413,0.675 -1.125,1.05 Q 59.138,66 58.35,66 h -20.7 q -0.788,0 -1.5,-0.375 -0.713,-0.375 -1.125,-1.05 -0.975,-1.688 -1.5,-3.581 Q 33,59.1 33,57 33,53.888 34.181,51.169 35.363,48.45 37.406,46.406 39.45,44.363 42.188,43.181 44.925,42 48,42 Z m 0.263,11.738 z"
    class="ColorScheme-Background" fill="currentColor" />
</svg>