<svg viewBox="0 0 96 96" xmlns="http://www.w3.org/2000/svg">
  <defs>
    <style type="text/css" id="current-color-scheme">
      .ColorScheme-Accent {
        color: #95ccff;
      }

      .ColorScheme-Background {
        color: #1e2022;
      }
    </style>
    <path id="folder-back" d="M 8,80 V 16 h 34.1 l 6,6 H 88 v 58 z" />
  </defs>
  <use href="#folder-back" class="ColorScheme-Accent" fill="currentColor" />
  <use href="#folder-back" class="ColorScheme-Background" fill="currentColor" opacity="0.3" />
  <path d="M 8,80 V 28 h 34.1 l 6,-6 H 88 v 58 z" class="ColorScheme-Accent" fill="currentColor" />
  <path
    d="M 48,69 Q 44.888,69 42.15,67.819 39.413,66.638 37.388,64.613 35.363,62.588 34.181,59.85 33,57.113 33,54 33,50.888 34.181,48.15 35.363,45.413 37.388,43.388 39.413,41.363 42.15,40.181 44.888,39 48,39 q 3.113,0 5.85,1.181 2.738,1.181 4.763,3.206 2.025,2.025 3.206,4.763 Q 63,50.888 63,54 q 0,3.113 -1.181,5.85 -1.181,2.738 -3.206,4.763 -2.025,2.025 -4.763,3.206 Q 51.113,69 48,69 Z M 46.5,65.925 V 63 Q 45.263,63 44.381,62.119 43.5,61.238 43.5,60 V 58.5 L 36.3,51.3 Q 36.188,51.975 36.094,52.65 36,53.325 36,54 q 0,4.538 2.981,7.95 2.981,3.413 7.519,3.975 z M 56.85,62.1 Q 57.6,61.275 58.2,60.319 58.8,59.363 59.194,58.331 59.588,57.3 59.794,56.213 60,55.125 60,54 60,50.325 57.956,47.288 55.913,44.25 52.5,42.9 v 0.6 q 0,1.238 -0.881,2.119 Q 50.738,46.5 49.5,46.5 h -3 v 3 q 0,0.638 -0.431,1.069 Q 45.638,51 45,51 h -3 v 3 h 9 q 0.638,0 1.069,0.431 Q 52.5,54.863 52.5,55.5 V 60 H 54 q 0.975,0 1.763,0.581 Q 56.55,61.163 56.85,62.1 Z"
    class="ColorScheme-Background" fill="currentColor" />
</svg>