<svg viewBox="0 0 96 96" xmlns="http://www.w3.org/2000/svg">
  <defs>
    <style type="text/css" id="current-color-scheme">
      .ColorScheme-Accent {
        color: #95ccff;
      }

      .ColorScheme-Background {
        color: #1e2022;
      }
    </style>
    <path id="folder-back" d="M 8,80 V 16 h 34.1 l 6,6 H 88 v 58 z" />
  </defs>
  <use href="#folder-back" class="ColorScheme-Accent" fill="currentColor" />
  <use href="#folder-back" class="ColorScheme-Background" fill="currentColor" opacity="0.3" />
  <path d="M 8,80 V 28 h 34.1 l 6,-6 H 88 v 58 z" class="ColorScheme-Accent" fill="currentColor" />
  <path
    d="M 41.7,68 Q 39.67,68 38.235,66.565 36.8,65.13 36.8,63.1 V 44.9 q 0,-2.03 1.435,-3.465 Q 39.67,40 41.7,40 H 59.2 V 61 Q 58.325,61 57.713,61.613 57.1,62.225 57.1,63.1 q 0,0.875 0.613,1.488 Q 58.325,65.2 59.2,65.2 V 68 Z M 39.6,58.655 Q 40.09,58.41 40.615,58.305 41.14,58.2 41.7,58.2 h 0.7 V 42.8 h -0.7 q -0.875,0 -1.488,0.613 Q 39.6,44.025 39.6,44.9 Z M 45.2,58.2 H 56.4 V 42.8 H 45.2 Z m -5.6,0.455 V 42.8 Z M 41.7,65.2 H 54.755 Q 54.545,64.71 54.423,64.203 54.3,63.695 54.3,63.1 54.3,62.54 54.405,62.015 54.51,61.49 54.755,61 H 41.7 Q 40.79,61 40.195,61.613 39.6,62.225 39.6,63.1 q 0,0.91 0.595,1.505 Q 40.79,65.2 41.7,65.2 Z"
    class="ColorScheme-Background" fill="currentColor" />
</svg>