<svg height="96" width="96" version="1.1" xmlns="http://www.w3.org/2000/svg" xmlns:svg="http://www.w3.org/2000/svg">
   <defs>
      <style type="text/css" id="current-color-scheme">
         .ColorScheme-Accent {
            color: #95ccff;
         }

         .ColorScheme-Background {
            color: #28292d;
         }
      </style>
      <linearGradient id="lg1" x1="48" y1="80" x2="48" y2="16" gradientUnits="userSpaceOnUse">
         <stop stop-opacity="0.15" offset="0" />
         <stop stop-opacity="0" offset="1" />
      </linearGradient>
      <path id="folder-back" d="M 8,34 v -12 q 0,-2.3 1.8,-4.15 1.8,-1.85 4.2,-1.85 h 28.1 l 6,6 v 12 z" />
      <path id="icon"
         d="m 45.975,58.5 h 4.05 l -0.912,-5.238 q 0.75,-0.35 1.194,-1.025 0.444,-0.675 0.444,-1.488 0,-1.137 -0.806,-1.944 -0.806,-0.806 -1.944,-0.806 -1.137,0 -1.944,0.806 -0.806,0.806 -0.806,1.944 0,0.813 0.444,1.488 0.444,0.675 1.194,1.025 z m 2.025,10.475 q -5.238,-1.313 -8.619,-6.056 Q 36,58.175 36,52.475 V 43.475 l 12,-4.5 12,4.5 v 9 q 0,5.7 -3.381,10.444 -3.381,4.744 -8.619,6.056 z m 0,-2.6 q 4.175,-1.362 6.837,-5.238 2.663,-3.875 2.663,-8.663 v -7.262 L 48,41.637 38.5,45.212 v 7.262 q 0,4.788 2.663,8.663 2.663,3.875 6.837,5.238 z m 0,-12.375 z" />
   </defs>
   <use href="#folder-back" class="ColorScheme-Accent" fill="currentColor" />
   <use href="#folder-back" class="ColorScheme-Background" fill="currentColor" opacity="0.3" />
   <path
      d="M 14,80 q -2.4,0 -4.2,-1.85 -1.8,-1.85 -1.8,-4.15 v -40 q 0,-2.3 1.8,-4.15 1.8,-1.85 4.2,-1.85 h 28.1 l 6,-6 h 33.9 q 2.3,0 4.15,1.85 1.85,1.85 1.85,4.15 v 46 q 0,2.3 -1.85,4.15 -1.85,1.85 -4.15,1.85 z"
      class="ColorScheme-Accent" fill="currentColor" />
   <use href="#icon" class="ColorScheme-Background" fill="currentColor" opacity="0.8" />
   <path
      d="M 14,80 Q 11.6,80 9.8,78.15 8,76.3 8,74 V 22 Q 8,19.7 9.8,17.85 11.6,16 14,16 h 28.1 l 6,6 H 82 q 2.3,0 4.15,1.85 Q 88,25.7 88,28 v 46 q 0,2.3 -1.85,4.15 Q 84.3,80 82,80 Z"
      fill="url(#lg1)" />
</svg>