<svg viewBox="0 0 96 96" xmlns="http://www.w3.org/2000/svg">
  <defs>
    <style type="text/css" id="current-color-scheme">
      .ColorScheme-Accent {
        color: #95ccff;
      }

      .ColorScheme-Background {
        color: #1e2022;
      }
    </style>
    <path id="folder-back" d="M 8,80 V 16 h 34.1 l 6,6 H 88 v 58 z" />
  </defs>
  <use href="#folder-back" class="ColorScheme-Accent" fill="currentColor" />
  <use href="#folder-back" class="ColorScheme-Background" fill="currentColor" opacity="0.3" />
  <path d="M 8,80 V 28 h 34.1 l 6,-6 H 88 v 58 z" class="ColorScheme-Accent" fill="currentColor" />
  <path
    d="m 31.5,66 v -4.2 q 0,-1.275 0.656,-2.344 Q 32.813,58.388 33.9,57.825 36.225,56.663 38.625,56.081 41.025,55.5 43.5,55.5 q 2.475,0 4.875,0.581 2.4,0.581 4.725,1.744 1.088,0.563 1.744,1.631 Q 55.5,60.525 55.5,61.8 V 66 Z m 27,0 v -4.5 q 0,-1.65 -0.919,-3.169 Q 56.663,56.813 54.975,55.725 q 1.913,0.225 3.6,0.769 1.688,0.544 3.15,1.331 1.35,0.75 2.063,1.669 Q 64.5,60.413 64.5,61.5 V 66 Z M 43.5,54 Q 41.025,54 39.263,52.238 37.5,50.475 37.5,48 37.5,45.525 39.263,43.763 41.025,42 43.5,42 45.975,42 47.738,43.763 49.5,45.525 49.5,48 q 0,2.475 -1.763,4.238 Q 45.975,54 43.5,54 Z m 15,-6 q 0,2.475 -1.763,4.238 Q 54.975,54 52.5,54 52.088,54 51.45,53.906 50.813,53.813 50.4,53.7 51.413,52.5 51.956,51.038 52.5,49.575 52.5,48 52.5,46.425 51.956,44.963 51.413,43.5 50.4,42.3 50.925,42.113 51.45,42.056 51.975,42 52.5,42 54.975,42 56.738,43.763 58.5,45.525 58.5,48 Z m -24,15 h 18 v -1.2 q 0,-0.413 -0.206,-0.75 Q 52.088,60.713 51.75,60.525 49.725,59.513 47.663,59.006 45.6,58.5 43.5,58.5 41.4,58.5 39.338,59.006 37.275,59.513 35.25,60.525 34.913,60.713 34.706,61.05 34.5,61.388 34.5,61.8 Z m 9,-12 q 1.238,0 2.119,-0.881 Q 46.5,49.238 46.5,48 46.5,46.763 45.619,45.881 44.738,45 43.5,45 42.263,45 41.381,45.881 40.5,46.763 40.5,48 q 0,1.238 0.881,2.119 Q 42.263,51 43.5,51 Z m 0,12 z m 0,-15 z"
    class="ColorScheme-Background" fill="currentColor" />
</svg>