<svg viewBox="0 0 96 96" xmlns="http://www.w3.org/2000/svg">
  <defs>
    <style type="text/css" id="current-color-scheme">
      .ColorScheme-Accent {
        color: #95ccff;
      }

      .ColorScheme-Background {
        color: #1e2022;
      }
    </style>
    <path id="folder-back" d="M 8,80 V 16 h 34.1 l 6,6 H 88 v 58 z" />
  </defs>
  <use href="#folder-back" class="ColorScheme-Accent" fill="currentColor" />
  <use href="#folder-back" class="ColorScheme-Background" fill="currentColor" opacity="0.3" />
  <path d="M 8,80 V 28 h 34.1 l 6,-6 H 88 v 58 z" class="ColorScheme-Accent" fill="currentColor" />
  <path
    d="m 38.693,64.217 q -1.916,0 -3.273,-1.373 -1.357,-1.373 -1.421,-3.32 0,-0.287 0.032,-0.575 0.032,-0.287 0.096,-0.575 l 2.682,-10.727 q 0.447,-1.724 1.82,-2.794 1.373,-1.07 3.129,-1.07 h 12.452 q 1.756,0 3.129,1.07 1.373,1.07 1.82,2.794 l 2.682,10.727 q 0.064,0.287 0.112,0.591 0.048,0.303 0.048,0.591 0,1.948 -1.389,3.304 -1.389,1.357 -3.336,1.357 -1.341,0 -2.49,-0.702 -1.149,-0.702 -1.724,-1.916 l -0.894,-1.852 q -0.16,-0.319 -0.479,-0.479 -0.319,-0.16 -0.67,-0.16 H 44.951 q -0.351,0 -0.67,0.16 -0.319,0.16 -0.479,0.479 l -0.894,1.852 q -0.575,1.213 -1.724,1.916 -1.149,0.702 -2.49,0.702 z m 0.096,-2.554 q 0.607,0 1.101,-0.319 0.495,-0.319 0.75,-0.862 l 0.894,-1.82 q 0.479,-0.99 1.405,-1.548 0.926,-0.559 2.011,-0.559 h 6.066 q 1.086,0 2.011,0.575 0.926,0.575 1.437,1.532 l 0.894,1.82 q 0.255,0.543 0.75,0.862 0.495,0.319 1.101,0.319 0.894,0 1.532,-0.591 0.639,-0.591 0.67,-1.485 0,0.032 -0.064,-0.607 L 56.668,48.285 q -0.223,-0.862 -0.894,-1.405 -0.67,-0.543 -1.564,-0.543 h -12.452 q -0.894,0 -1.58,0.543 -0.686,0.543 -0.878,1.405 l -2.682,10.696 q -0.064,0.192 -0.064,0.575 0,0.894 0.655,1.501 0.655,0.607 1.58,0.607 z m 11.111,-8.94 q 0.543,0 0.91,-0.367 0.367,-0.367 0.367,-0.91 0,-0.543 -0.367,-0.91 -0.367,-0.367 -0.91,-0.367 -0.543,0 -0.91,0.367 -0.367,0.367 -0.367,0.91 0,0.543 0.367,0.91 0.367,0.367 0.91,0.367 z m 2.554,-2.554 q 0.543,0 0.91,-0.367 0.367,-0.367 0.367,-0.91 0,-0.543 -0.367,-0.91 -0.367,-0.367 -0.91,-0.367 -0.543,0 -0.91,0.367 -0.367,0.367 -0.367,0.91 0,0.543 0.367,0.91 0.367,0.367 0.91,0.367 z m 0,5.108 q 0.543,0 0.91,-0.367 Q 53.731,54.543 53.731,54 q 0,-0.543 -0.367,-0.91 -0.367,-0.367 -0.91,-0.367 -0.543,0 -0.91,0.367 -0.367,0.367 -0.367,0.91 0,0.543 0.367,0.91 0.367,0.367 0.91,0.367 z m 2.554,-2.554 q 0.543,0 0.91,-0.367 0.367,-0.367 0.367,-0.91 0,-0.543 -0.367,-0.91 -0.367,-0.367 -0.91,-0.367 -0.543,0 -0.91,0.367 -0.367,0.367 -0.367,0.91 0,0.543 0.367,0.91 0.367,0.367 0.91,0.367 z M 43.514,54.639 q 0.415,0 0.686,-0.271 0.271,-0.271 0.271,-0.686 v -1.277 h 1.277 q 0.415,0 0.686,-0.271 0.271,-0.271 0.271,-0.686 0,-0.415 -0.271,-0.686 -0.271,-0.271 -0.686,-0.271 h -1.277 v -1.277 q 0,-0.415 -0.271,-0.686 -0.271,-0.271 -0.686,-0.271 -0.415,0 -0.686,0.271 -0.271,0.271 -0.271,0.686 v 1.277 h -1.277 q -0.415,0 -0.686,0.271 -0.271,0.271 -0.271,0.686 0,0.415 0.271,0.686 0.271,0.271 0.686,0.271 h 1.277 v 1.277 q 0,0.415 0.271,0.686 0.271,0.271 0.686,0.271 z M 47.984,54 Z"
    class="ColorScheme-Background" fill="currentColor" />
</svg>