<svg height="96" width="96" version="1.1" xmlns="http://www.w3.org/2000/svg" xmlns:svg="http://www.w3.org/2000/svg">
  <defs>
    <style type="text/css" id="current-color-scheme">
      .ColorScheme-Accent {
        color: #95ccff;
      }

      .ColorScheme-Background {
        color: #28292d;
      }
    </style>
    <linearGradient id="lg1" x1="48" y1="80" x2="48" y2="16" gradientUnits="userSpaceOnUse">
      <stop stop-opacity="0.15" offset="0" />
      <stop stop-opacity="0" offset="1" />
    </linearGradient>
    <path id="folder-back" d="M 8,34 v -12 q 0,-2.3 1.8,-4.15 1.8,-1.85 4.2,-1.85 h 28.1 l 6,6 v 12 z" />
    <path id="icon"
      d="M 46.75,65.862 V 54.713 l -9.75,-5.637 v 11.15 z m 2.5,0 9.75,-5.637 V 49.05 l -9.75,5.658 z m -1.25,-13.287 9.612,-5.588 -9.612,-5.562 -9.638,5.562 z m -12.25,9.825 q -0.594,-0.348 -0.922,-0.918 Q 34.5,60.912 34.5,60.237 V 47.763 q 0,-0.675 0.328,-1.245 0.328,-0.57 0.922,-0.918 l 11,-6.338 q 0.596,-0.338 1.254,-0.338 0.659,0 1.246,0.338 L 60.25,45.6 q 0.594,0.348 0.922,0.918 0.328,0.57 0.328,1.245 v 12.475 q 0,0.675 -0.328,1.245 -0.328,0.57 -0.922,0.918 l -11,6.338 q -0.596,0.338 -1.254,0.338 -0.658,0 -1.246,-0.338 z m 12.25,-8.4 z" />
  </defs>
  <use href="#folder-back" class="ColorScheme-Accent" fill="currentColor" />
  <use href="#folder-back" class="ColorScheme-Background" fill="currentColor" opacity="0.3" />
  <path
    d="M 14,80 q -2.4,0 -4.2,-1.85 -1.8,-1.85 -1.8,-4.15 v -40 q 0,-2.3 1.8,-4.15 1.8,-1.85 4.2,-1.85 h 28.1 l 6,-6 h 33.9 q 2.3,0 4.15,1.85 1.85,1.85 1.85,4.15 v 46 q 0,2.3 -1.85,4.15 -1.85,1.85 -4.15,1.85 z"
    class="ColorScheme-Accent" fill="currentColor" />
  <use href="#icon" class="ColorScheme-Background" fill="currentColor" opacity="0.8" />
  <path
    d="M 14,80 Q 11.6,80 9.8,78.15 8,76.3 8,74 V 22 Q 8,19.7 9.8,17.85 11.6,16 14,16 h 28.1 l 6,6 H 82 q 2.3,0 4.15,1.85 Q 88,25.7 88,28 v 46 q 0,2.3 -1.85,4.15 Q 84.3,80 82,80 Z"
    fill="url(#lg1)" />
</svg>