<svg height="96" width="96" version="1.1" xmlns="http://www.w3.org/2000/svg" xmlns:svg="http://www.w3.org/2000/svg">
  <defs>
    <style type="text/css" id="current-color-scheme">
      .ColorScheme-Accent {
        color: #95ccff;
      }

      .ColorScheme-Background {
        color: #28292d;
      }
    </style>
    <linearGradient id="lg1" x1="48" y1="80" x2="48" y2="16" gradientUnits="userSpaceOnUse">
      <stop stop-opacity="0.15" offset="0" />
      <stop stop-opacity="0" offset="1" />
    </linearGradient>
    <path id="folder-back" d="M 8,34 v -12 q 0,-2.3 1.8,-4.15 1.8,-1.85 4.2,-1.85 h 28.1 l 6,6 v 12 z" />
    <path id="icon"
      d="m 55.65,69 q -1.812,0 -3.081,-1.269 -1.269,-1.269 -1.269,-3.081 0,-0.275 0.162,-1.2 L 40.475,57.025 q -0.607,0.621 -1.403,0.973 -0.797,0.352 -1.722,0.352 -1.812,0 -3.081,-1.269 -1.269,-1.269 -1.269,-3.081 0,-1.812 1.269,-3.081 1.269,-1.269 3.081,-1.269 0.9,0 1.688,0.339 0.788,0.339 1.388,0.936 l 11.037,-6.375 q -0.075,-0.288 -0.119,-0.581 -0.044,-0.294 -0.044,-0.619 0,-1.812 1.269,-3.081 1.269,-1.269 3.081,-1.269 1.812,0 3.081,1.269 1.269,1.269 1.269,3.081 0,1.812 -1.269,3.081 -1.269,1.269 -3.081,1.269 -0.882,0 -1.653,-0.331 -0.772,-0.332 -1.372,-0.894 l -11.112,6.275 q 0.1,0.287 0.144,0.606 0.044,0.319 0.044,0.631 0,0.312 -0.031,0.581 -0.032,0.268 -0.106,0.556 l 11.088,6.375 q 0.6,-0.563 1.365,-0.881 0.765,-0.319 1.639,-0.319 1.821,0 3.084,1.269 1.263,1.269 1.263,3.081 0,1.812 -1.269,3.081 -1.269,1.269 -3.081,1.269 z m 7.51e-4,-2.5 q 0.787,0 1.318,-0.532 0.531,-0.532 0.531,-1.319 0,-0.787 -0.532,-1.318 -0.532,-0.531 -1.319,-0.531 -0.787,0 -1.318,0.532 -0.531,0.532 -0.531,1.319 0,0.787 0.532,1.318 0.532,0.531 1.319,0.531 z M 37.35,55.85 q 0.787,0 1.318,-0.532 0.531,-0.532 0.531,-1.319 0,-0.787 -0.532,-1.318 -0.532,-0.531 -1.319,-0.531 -0.787,0 -1.318,0.532 -0.531,0.532 -0.531,1.319 0,0.787 0.532,1.318 0.532,0.531 1.319,0.531 z m 18.3,-10.65 q 0.787,0 1.318,-0.532 0.531,-0.532 0.531,-1.319 0,-0.787 -0.532,-1.318 -0.532,-0.531 -1.319,-0.531 -0.787,0 -1.318,0.532 -0.531,0.532 -0.531,1.319 0,0.787 0.532,1.318 0.532,0.531 1.319,0.531 z m -7.51e-4,19.45 z M 37.35,54 Z m 18.3,-10.65 z" />
  </defs>
  <use href="#folder-back" class="ColorScheme-Accent" fill="currentColor" />
  <use href="#folder-back" class="ColorScheme-Background" fill="currentColor" opacity="0.3" />
  <path
    d="M 14,80 q -2.4,0 -4.2,-1.85 -1.8,-1.85 -1.8,-4.15 v -40 q 0,-2.3 1.8,-4.15 1.8,-1.85 4.2,-1.85 h 28.1 l 6,-6 h 33.9 q 2.3,0 4.15,1.85 1.85,1.85 1.85,4.15 v 46 q 0,2.3 -1.85,4.15 -1.85,1.85 -4.15,1.85 z"
    class="ColorScheme-Accent" fill="currentColor" />
  <use href="#icon" class="ColorScheme-Background" fill="currentColor" opacity="0.8" />
  <path
    d="M 14,80 Q 11.6,80 9.8,78.15 8,76.3 8,74 V 22 Q 8,19.7 9.8,17.85 11.6,16 14,16 h 28.1 l 6,6 H 82 q 2.3,0 4.15,1.85 Q 88,25.7 88,28 v 46 q 0,2.3 -1.85,4.15 Q 84.3,80 82,80 Z"
    fill="url(#lg1)" />
</svg>