<svg viewBox="0 0 96 96" xmlns="http://www.w3.org/2000/svg">
  <defs>
    <style type="text/css" id="current-color-scheme">
      .ColorScheme-Accent {
        color: #95ccff;
      }

      .ColorScheme-Background {
        color: #1e2022;
      }
    </style>
    <path id="folder-back" d="M 8,80 V 16 h 34.1 l 6,6 H 88 v 58 z" />
  </defs>
  <use href="#folder-back" class="ColorScheme-Accent" fill="currentColor" />
  <use href="#folder-back" class="ColorScheme-Background" fill="currentColor" opacity="0.3" />
  <path d="M 8,80 V 28 h 34.1 l 6,-6 H 88 v 58 z" class="ColorScheme-Accent" fill="currentColor" />
  <path
    d="M 36,69 V 48 h 4.5 v -3 q 0,-3.113 2.194,-5.306 Q 44.888,37.5 48,37.5 q 3.113,0 5.306,2.194 Q 55.5,41.888 55.5,45 v 3 H 60 v 21 z m 3,-3 H 57 V 51 H 39 Z m 9,-4.5 q 1.238,0 2.119,-0.881 Q 51,59.738 51,58.5 51,57.263 50.119,56.381 49.238,55.5 48,55.5 46.763,55.5 45.881,56.381 45,57.263 45,58.5 45,59.738 45.881,60.619 46.763,61.5 48,61.5 Z M 43.5,48 h 9 v -3 q 0,-1.875 -1.313,-3.188 Q 49.875,40.5 48,40.5 46.125,40.5 44.813,41.813 43.5,43.125 43.5,45 Z M 39,66 V 51 Z"
    class="ColorScheme-Background" fill="currentColor" />
</svg>