<svg viewBox="0 0 96 96" xmlns="http://www.w3.org/2000/svg">
  <defs>
    <style type="text/css" id="current-color-scheme">
      .ColorScheme-Accent {
        color: #95ccff;
      }

      .ColorScheme-Background {
        color: #1e2022;
      }
    </style>
    <path id="folder-back" d="M 8,80 V 16 h 34.1 l 6,6 H 88 v 58 z" />
  </defs>
  <use href="#folder-back" class="ColorScheme-Accent" fill="currentColor" />
  <use href="#folder-back" class="ColorScheme-Background" fill="currentColor" opacity="0.3" />
  <path d="M 8,80 V 28 h 34.1 l 6,-6 H 88 v 58 z" class="ColorScheme-Accent" fill="currentColor" />
  <path
    d="m 44.889,63.333 q -4.55,0 -7.719,-3.169 Q 34,56.994 34,52.444 V 40 h 22.556 q 2.256,0 3.85,1.594 Q 62,43.189 62,45.444 q 0,2.256 -1.594,3.85 -1.594,1.594 -3.85,1.594 h -0.778 v 1.556 q 0,4.55 -3.169,7.719 -3.169,3.169 -7.719,3.169 z M 37.111,47.778 H 52.667 V 43.111 H 37.111 Z m 7.778,12.444 q 3.228,0 5.503,-2.275 2.275,-2.275 2.275,-5.503 V 50.889 H 37.111 v 1.556 q 0,3.228 2.275,5.503 2.275,2.275 5.503,2.275 z M 55.778,47.778 h 0.778 q 0.972,0 1.653,-0.681 0.681,-0.681 0.681,-1.653 0,-0.972 -0.681,-1.653 -0.681,-0.681 -1.653,-0.681 H 55.778 Z M 34,68 V 64.889 H 58.889 V 68 Z M 44.889,50.889 Z"
    class="ColorScheme-Background" fill="currentColor" />
</svg>