<svg viewBox="0 0 96 96" xmlns="http://www.w3.org/2000/svg">
  <defs>
    <style type="text/css" id="current-color-scheme">
      .ColorScheme-Accent {
        color: #95ccff;
      }

      .ColorScheme-Background {
        color: #1e2022;
      }
    </style>
    <path id="folder-back" d="M 8,80 V 16 h 34.1 l 6,6 H 88 v 58 z" />
  </defs>
  <use href="#folder-back" class="ColorScheme-Accent" fill="currentColor" />
  <use href="#folder-back" class="ColorScheme-Background" fill="currentColor" opacity="0.3" />
  <path d="M 8,80 V 28 h 34.1 l 6,-6 H 88 v 58 z" class="ColorScheme-Accent" fill="currentColor" />
  <path
    d="m 61.5,67.5 v -24 h -27 v 12 h -3 v -15 h 33 v 27 z M 43.5,57 Q 41.025,57 39.263,55.238 37.5,53.475 37.5,51 37.5,48.525 39.263,46.763 41.025,45 43.5,45 45.975,45 47.738,46.763 49.5,48.525 49.5,51 q 0,2.475 -1.763,4.238 Q 45.975,57 43.5,57 Z m 0,-3 q 1.238,0 2.119,-0.881 Q 46.5,52.238 46.5,51 46.5,49.763 45.619,48.881 44.738,48 43.5,48 42.263,48 41.381,48.881 40.5,49.763 40.5,51 q 0,1.238 0.881,2.119 Q 42.263,54 43.5,54 Z m -12,15 v -4.2 q 0,-1.275 0.656,-2.344 Q 32.813,61.388 33.9,60.825 36.225,59.663 38.625,59.081 41.025,58.5 43.5,58.5 q 2.475,0 4.875,0.581 2.4,0.581 4.725,1.744 1.088,0.563 1.744,1.631 Q 55.5,63.525 55.5,64.8 V 69 Z m 3,-3 h 18 v -1.2 q 0,-0.413 -0.206,-0.75 Q 52.088,63.713 51.75,63.525 49.725,62.513 47.663,62.006 45.6,61.5 43.5,61.5 41.4,61.5 39.338,62.006 37.275,62.513 35.25,63.525 34.913,63.713 34.706,64.05 34.5,64.388 34.5,64.8 Z m 9,-15 z m 0,15 z"
    class="ColorScheme-Background" fill="currentColor" />
</svg>