<svg viewBox="0 0 96 96" xmlns="http://www.w3.org/2000/svg">
  <defs>
    <style type="text/css" id="current-color-scheme">
      .ColorScheme-Accent {
        color: #95ccff;
      }

      .ColorScheme-Background {
        color: #1e2022;
      }
    </style>
    <path id="folder-back" d="M 8,80 V 16 h 34.1 l 6,6 H 88 v 58 z" />
  </defs>
  <use href="#folder-back" class="ColorScheme-Accent" fill="currentColor" />
  <use href="#folder-back" class="ColorScheme-Background" fill="currentColor" opacity="0.3" />
  <path d="M 8,80 V 28 h 34.1 l 6,-6 H 88 v 58 z" class="ColorScheme-Accent" fill="currentColor" />
  <path
    d="m 51.113,53.588 q 2.738,-2.025 4.275,-4.444 1.538,-2.419 1.538,-4.819 0,-1.2 -0.394,-1.763 Q 56.138,42 55.463,42 53.7,42 52.35,44.981 51,47.963 51,51.713 q 0,0.525 0.019,0.994 0.019,0.469 0.094,0.881 z M 34.5,67.5 v -3 h 3 v 3 z m 6,0 v -3 h 3 v 3 z m 6,0 v -3 h 3 v 3 z m 6,0 v -3 h 3 v 3 z m 6,0 v -3 h 3 v 3 z M 35.1,61.5 33,59.4 35.4,57 33,54.6 l 2.1,-2.1 2.4,2.4 2.4,-2.4 2.1,2.1 -2.4,2.4 2.4,2.4 -2.1,2.1 -2.4,-2.4 z M 53.175,60 Q 52.05,60 51.113,59.569 50.175,59.138 49.5,58.163 48.563,58.688 47.569,59.1 46.575,59.513 45.525,59.925 l -1.05,-2.813 q 1.05,-0.375 2.006,-0.806 0.956,-0.431 1.856,-0.919 -0.188,-0.825 -0.281,-1.8 -0.094,-0.975 -0.094,-2.1 0,-5.4 2.138,-8.944 Q 52.238,39 55.463,39 q 1.95,0 3.188,1.444 1.238,1.444 1.238,4.031 0,3.225 -2.044,6.375 Q 55.8,54 52.163,56.513 q 0.263,0.263 0.544,0.394 0.281,0.131 0.581,0.131 0.975,0 2.269,-1.238 Q 56.85,54.563 57.9,52.538 l 2.738,1.275 Q 60.375,54.45 60.225,55.35 q -0.15,0.9 0.038,1.575 0.375,-0.188 0.881,-0.638 0.506,-0.45 1.031,-1.125 L 64.537,57 q -0.975,1.35 -2.25,2.175 Q 61.013,60 59.925,60 59.138,60 58.519,59.531 57.9,59.063 57.488,58.088 56.438,59.025 55.35,59.513 54.263,60 53.175,60 Z"
    class="ColorScheme-Background" fill="currentColor" />
</svg>