<svg viewBox="0 0 96 96" xmlns="http://www.w3.org/2000/svg">
  <defs>
    <style type="text/css" id="current-color-scheme">
      .ColorScheme-Accent {
        color: #95ccff;
      }

      .ColorScheme-Background {
        color: #1e2022;
      }
    </style>
    <path id="folder-back" d="M 8,80 V 16 h 34.1 l 6,6 H 88 v 58 z" />
  </defs>
  <use href="#folder-back" class="ColorScheme-Accent" fill="currentColor" />
  <use href="#folder-back" class="ColorScheme-Background" fill="currentColor" opacity="0.3" />
  <path d="M 8,80 V 28 h 34.1 l 6,-6 H 88 v 58 z" class="ColorScheme-Accent" fill="currentColor" />
  <path
    d="M 56.605,68 46.309,57.628 q -0.76,0.304 -1.539,0.456 -0.779,0.152 -1.653,0.152 -3.799,0 -6.459,-2.659 Q 34,52.917 34,49.118 q 0,-1.368 0.38,-2.602 0.38,-1.235 1.064,-2.337 l 5.547,5.547 2.735,-2.735 -5.547,-5.547 q 1.102,-0.684 2.337,-1.064 Q 41.75,40 43.118,40 q 3.799,0 6.459,2.659 2.659,2.659 2.659,6.459 0,0.874 -0.152,1.653 -0.152,0.779 -0.456,1.539 L 62,62.605 Z m 0,-4.331 1.026,-1.026 -9.726,-9.726 q 0.684,-0.76 0.988,-1.767 0.304,-1.007 0.304,-2.033 0,-2.28 -1.463,-3.97 -1.463,-1.691 -3.628,-2.033 l 3.875,3.875 -6.991,6.991 -3.875,-3.875 q 0.342,2.166 2.033,3.628 1.691,1.463 3.97,1.463 0.988,0 1.976,-0.304 0.988,-0.304 1.786,-0.95 z M 47.373,53.373 Z"
    class="ColorScheme-Background" fill="currentColor" />
</svg>