<svg height="96" width="96" version="1.1" xmlns="http://www.w3.org/2000/svg" xmlns:svg="http://www.w3.org/2000/svg">
  <defs>
    <style type="text/css" id="current-color-scheme">
      .ColorScheme-Accent {
        color: #95ccff;
      }

      .ColorScheme-Background {
        color: #28292d;
      }
    </style>
    <linearGradient id="lg1" x1="48" y1="80" x2="48" y2="16" gradientUnits="userSpaceOnUse">
      <stop stop-opacity="0.15" offset="0" />
      <stop stop-opacity="0" offset="1" />
    </linearGradient>
    <path id="folder-back" d="M 8,34 v -12 q 0,-2.3 1.8,-4.15 1.8,-1.85 4.2,-1.85 h 28.1 l 6,6 v 12 z" />
    <path id="icon"
      d="m 31.45,66 v -3.75 q 0,-1.3 0.669,-2.369 0.669,-1.069 1.831,-1.606 2.6,-1.188 4.863,-1.731 2.262,-0.544 4.638,-0.544 2.375,0 4.625,0.544 2.25,0.544 4.85,1.731 1.163,0.537 1.844,1.606 0.681,1.069 0.681,2.369 v 3.75 z m 26.5,0 v -3.85 q 0,-2.125 -1.106,-3.644 -1.106,-1.519 -2.969,-2.507 2.363,0.275 4.45,0.844 2.088,0.569 3.525,1.331 1.275,0.725 1.987,1.731 0.713,1.006 0.713,2.244 v 3.85 z M 43.45,53.975 q -2.475,0 -4.113,-1.637 -1.638,-1.638 -1.638,-4.113 0,-2.475 1.638,-4.113 1.638,-1.637 4.113,-1.637 2.475,0 4.112,1.637 1.638,1.638 1.638,4.113 0,2.475 -1.638,4.113 -1.637,1.637 -4.112,1.637 z m 14,-5.75 q 0,2.475 -1.638,4.113 -1.637,1.637 -4.112,1.637 -0.413,0 -0.963,-0.069 -0.55,-0.069 -0.963,-0.206 0.938,-1.025 1.431,-2.425 0.494,-1.4 0.494,-3.05 0,-1.65 -0.494,-3 -0.494,-1.35 -1.431,-2.475 0.45,-0.138 0.963,-0.206 0.513,-0.069 0.963,-0.069 2.475,0 4.112,1.637 1.638,1.638 1.638,4.113 z M 33.95,63.5 h 19 v -1.25 q 0,-0.537 -0.306,-1.025 -0.306,-0.488 -0.769,-0.7 -2.475,-1.137 -4.388,-1.581 -1.913,-0.444 -4.037,-0.444 -2.125,0 -4.05,0.444 -1.925,0.444 -4.4,1.581 -0.462,0.213 -0.756,0.7 -0.294,0.488 -0.294,1.025 z m 9.5,-12.025 q 1.388,0 2.319,-0.932 0.931,-0.931 0.931,-2.319 0,-1.388 -0.931,-2.319 -0.931,-0.932 -2.319,-0.932 -1.388,0 -2.319,0.932 -0.931,0.931 -0.931,2.319 0,1.388 0.931,2.319 0.932,0.932 2.319,0.932 z m 0,12.025 z m 0,-15.275 z" />
  </defs>
  <use href="#folder-back" class="ColorScheme-Accent" fill="currentColor" />
  <use href="#folder-back" class="ColorScheme-Background" fill="currentColor" opacity="0.3" />
  <path
    d="M 14,80 q -2.4,0 -4.2,-1.85 -1.8,-1.85 -1.8,-4.15 v -40 q 0,-2.3 1.8,-4.15 1.8,-1.85 4.2,-1.85 h 28.1 l 6,-6 h 33.9 q 2.3,0 4.15,1.85 1.85,1.85 1.85,4.15 v 46 q 0,2.3 -1.85,4.15 -1.85,1.85 -4.15,1.85 z"
    class="ColorScheme-Accent" fill="currentColor" />
  <use href="#icon" class="ColorScheme-Background" fill="currentColor" opacity="0.8" />
  <path
    d="M 14,80 Q 11.6,80 9.8,78.15 8,76.3 8,74 V 22 Q 8,19.7 9.8,17.85 11.6,16 14,16 h 28.1 l 6,6 H 82 q 2.3,0 4.15,1.85 Q 88,25.7 88,28 v 46 q 0,2.3 -1.85,4.15 Q 84.3,80 82,80 Z"
    fill="url(#lg1)" />
</svg>