<svg viewBox="0 0 96 96" xmlns="http://www.w3.org/2000/svg">
  <defs>
    <style type="text/css" id="current-color-scheme">
      .ColorScheme-Accent {
        color: #95ccff;
      }

      .ColorScheme-Background {
        color: #1e2022;
      }
    </style>
    <path id="folder-back" d="M 8,80 V 16 h 34.1 l 6,6 H 88 v 58 z" />
  </defs>
  <use href="#folder-back" class="ColorScheme-Accent" fill="currentColor" />
  <use href="#folder-back" class="ColorScheme-Background" fill="currentColor" opacity="0.3" />
  <path d="M 8,80 V 28 h 34.1 l 6,-6 H 88 v 58 z" class="ColorScheme-Accent" fill="currentColor" />
  <path
    d="m 41.778,63.333 h 2.333 v -3.111 h 3.111 V 57.889 h -3.111 v -3.111 h -2.333 v 3.111 h -3.111 v 2.333 h 3.111 z m 7.778,-1.167 h 7.778 v -2.333 h -7.778 z m 0,-3.889 h 7.778 v -2.333 h -7.778 z m 1.711,-5.911 2.178,-2.178 2.178,2.178 1.633,-1.633 -2.178,-2.256 2.178,-2.178 -1.633,-1.633 -2.178,2.178 -2.178,-2.178 -1.633,1.633 2.178,2.178 -2.178,2.256 z M 39.056,49.644 h 7.778 V 47.311 H 39.056 Z M 34,68 V 40 h 28 v 28 z m 3.111,-3.111 H 58.889 V 43.111 H 37.111 Z m 0,0 V 43.111 Z"
    class="ColorScheme-Background" fill="currentColor" />
</svg>