<svg viewBox="0 0 96 96" xmlns="http://www.w3.org/2000/svg">
  <defs>
    <style type="text/css" id="current-color-scheme">
      .ColorScheme-NegativeText {
        color: #ff5540;
      }

      .ColorScheme-Background {
        color: #1e2022;
      }
    </style>
    <path id="folder-back" d="M 8,80 V 16 h 34.1 l 6,6 H 88 v 58 z" />
  </defs>
  <use href="#folder-back" class="ColorScheme-NegativeText" fill="currentColor" />
  <use href="#folder-back" class="ColorScheme-Background" fill="currentColor" opacity="0.3" />
  <path d="M 8,80 V 28 h 34.1 l 6,-6 H 88 v 58 z" class="ColorScheme-NegativeText" fill="currentColor" />
  <path
    d="m 48,64.5 q 2.475,0 4.238,-1.763 Q 54,60.975 54,58.5 v -6 Q 54,50.025 52.238,48.263 50.475,46.5 48,46.5 45.525,46.5 43.763,48.263 42,50.025 42,52.5 v 6 q 0,2.475 1.763,4.238 Q 45.525,64.5 48,64.5 Z M 45,60 h 6 v -3 h -6 z m 0,-6 h 6 v -3 h -6 z m 3,1.5 z m 0,12 q -2.438,0 -4.519,-1.2 Q 41.4,65.1 40.2,63 H 36 v -3 h 3.15 Q 39.038,59.25 39.019,58.5 39,57.75 39,57 h -3 v -3 h 3 Q 39,53.25 39.019,52.5 39.038,51.75 39.15,51 H 36 v -3 h 4.2 q 0.525,-0.863 1.181,-1.613 0.656,-0.75 1.519,-1.313 l -2.4,-2.475 2.1,-2.1 3.225,3.225 q 1.05,-0.338 2.138,-0.338 1.088,0 2.138,0.338 l 3.3,-3.225 2.1,2.1 -2.475,2.475 q 0.863,0.563 1.556,1.294 Q 55.275,47.1 55.8,48 H 60 v 3 h -3.15 q 0.113,0.75 0.131,1.5 Q 57,53.25 57,54 h 3 v 3 h -3 q 0,0.75 -0.019,1.5 Q 56.963,59.25 56.85,60 H 60 v 3 H 55.8 Q 54.6,65.1 52.519,66.3 50.438,67.5 48,67.5 Z"
    class="ColorScheme-Background" fill="currentColor" />
</svg>