<svg viewBox="0 0 96 96" xmlns="http://www.w3.org/2000/svg">
  <defs>
    <style type="text/css" id="current-color-scheme">
      .ColorScheme-Accent {
        color: #95ccff;
      }

      .ColorScheme-Background {
        color: #1e2022;
      }
    </style>
    <path id="folder-back" d="M 8,80 V 16 h 34.1 l 6,6 H 88 v 58 z" />
  </defs>
  <use href="#folder-back" class="ColorScheme-Accent" fill="currentColor" />
  <use href="#folder-back" class="ColorScheme-Background" fill="currentColor" opacity="0.3" />
  <path d="M 8,80 V 28 h 34.1 l 6,-6 H 88 v 58 z" class="ColorScheme-Accent" fill="currentColor" />
  <path
    d="m 44.062,62.2 c 0,0 -1.146,0.667 0.816,0.892 2.378,0.272 3.592,0.232 6.211,-0.263 0,0 0.69,0.432 1.652,0.805 -5.873,2.517 -13.293,-0.146 -8.68,-1.434 z m -0.718,-3.284 c 0,0 -1.285,0.951 0.678,1.154 2.54,0.262 4.545,0.284 8.016,-0.384 0,0 0.479,0.487 1.234,0.752 -7.1,2.077 -15.008,0.164 -9.928,-1.523 z"
    class="ColorScheme-Background" fill="currentColor" />
  <path
    d="m 49.394,53.344 c 1.448,1.667 -0.38,3.166 -0.38,3.166 0,0 3.675,-1.897 1.987,-4.272 -1.576,-2.215 -2.785,-3.315 3.758,-7.109 -2.49e-4,-2.49e-4 -10.271,2.564 -5.366,8.216 z"
    class="ColorScheme-Background" fill="currentColor" />
  <path
    d="m 57.162,64.63 c 0,0 0.848,0.699 -0.934,1.24 -3.389,1.027 -14.109,1.336 -17.087,0.041 -1.07,-0.466 0.937,-1.112 1.569,-1.248 0.658,-0.142 1.034,-0.116 1.034,-0.116 -1.19,-0.838 -7.694,1.646 -3.303,2.359 11.973,1.941 21.826,-0.874 18.721,-2.275 z M 44.614,55.513 c 0,0 -5.452,1.295 -1.93,1.766 1.487,0.199 4.45,0.153 7.213,-0.079 2.257,-0.189 4.522,-0.595 4.522,-0.595 0,0 -0.795,0.341 -1.371,0.734 -5.537,1.457 -16.233,0.778 -13.154,-0.711 2.604,-1.259 4.721,-1.116 4.721,-1.116 z m 9.781,5.467 c 5.629,-2.924 3.026,-5.735 1.209,-5.356 -0.444,0.093 -0.644,0.173 -0.644,0.173 0,0 0.166,-0.259 0.481,-0.371 3.594,-1.263 6.357,3.726 -1.159,5.702 -2.49e-4,0 0.086,-0.078 0.112,-0.148 z"
    class="ColorScheme-Background" fill="currentColor" />
  <path
    d="m 51.002,39 c 0,0 3.117,3.119 -2.957,7.912 -4.87,3.847 -1.11,6.04 -0.002,8.546 C 45.2,52.893 43.114,50.635 44.513,48.533 46.567,45.449 52.259,43.953 51.002,39 Z"
    class="ColorScheme-Background" fill="currentColor" />
  <path
    d="m 45.167,68.906 c 5.402,0.345 13.699,-0.192 13.896,-2.748 0,0 -0.378,0.969 -4.465,1.738 -4.611,0.868 -10.299,0.767 -13.672,0.21 0,0 0.691,0.572 4.241,0.8 z"
    class="ColorScheme-Background" fill="currentColor" />
</svg>