<svg viewBox="0 0 96 96" xmlns="http://www.w3.org/2000/svg">
  <defs>
    <style type="text/css" id="current-color-scheme">
      .ColorScheme-Accent {
        color: #95ccff;
      }

      .ColorScheme-Background {
        color: #1e2022;
      }
    </style>
    <path id="folder-back" d="M 8,80 V 16 h 34.1 l 6,6 H 88 v 58 z" />
  </defs>
  <use href="#folder-back" class="ColorScheme-Accent" fill="currentColor" />
  <use href="#folder-back" class="ColorScheme-Background" fill="currentColor" opacity="0.3" />
  <path d="M 8,80 V 28 h 34.1 l 6,-6 H 88 v 58 z" class="ColorScheme-Accent" fill="currentColor" />
  <path
    d="M 62.435,52.664 49.336,39.566 a 1.931,1.93 0 0 0 -2.732,0 l -2.72,2.72 3.45,3.45 a 2.295,2.295 0 0 1 2.36,0.55 2.299,2.299 0 0 1 0.546,2.376 l 3.325,3.325 a 2.294,2.294 0 0 1 2.376,0.546 2.298,2.298 0 0 1 0,3.251 2.3,2.3 0 0 1 -3.252,0 2.298,2.298 0 0 1 -0.5,-2.501 l -3.102,-3.101 v 8.161 a 2.298,2.298 0 0 1 0.607,3.686 2.298,2.298 0 0 1 -3.251,0 2.298,2.298 0 0 1 0,-3.251 2.297,2.296 0 0 1 0.754,-0.502 v -8.236 a 2.286,2.286 0 0 1 -0.754,-0.501 2.301,2.301 0 0 1 -0.495,-2.514 l -3.401,-3.401 -8.981,8.98 a 1.932,1.932 0 0 0 0,2.733 l 13.099,13.099 a 1.933,1.933 0 0 0 2.732,0 L 62.435,55.397 a 1.934,1.934 0 0 0 0,-2.733"
    class="ColorScheme-Background" fill="currentColor" />
</svg>