<svg viewBox="0 0 96 96" xmlns="http://www.w3.org/2000/svg">
  <defs>
    <style type="text/css" id="current-color-scheme">
      .ColorScheme-Accent {
        color: #95ccff;
      }

      .ColorScheme-Background {
        color: #1e2022;
      }
    </style>
    <path id="folder-back" d="M 8,80 V 16 h 34.1 l 6,6 H 88 v 58 z" />
  </defs>
  <use href="#folder-back" class="ColorScheme-Accent" fill="currentColor" />
  <use href="#folder-back" class="ColorScheme-Background" fill="currentColor" opacity="0.3" />
  <path d="M 8,80 V 28 h 34.1 l 6,-6 H 88 v 58 z" class="ColorScheme-Accent" fill="currentColor" />
  <path
    d="m 48,67.5 q -5.663,0 -9.581,-1.744 Q 34.5,64.013 34.5,61.5 v -15 q 0,-2.475 3.956,-4.238 Q 42.413,40.5 48,40.5 q 5.588,0 9.544,1.763 Q 61.5,44.025 61.5,46.5 v 15 q 0,2.513 -3.919,4.256 Q 53.663,67.5 48,67.5 Z m 0,-17.963 q 3.338,0 6.713,-0.956 Q 58.088,47.625 58.5,46.538 58.088,45.45 54.731,44.475 51.375,43.5 48,43.5 44.588,43.5 41.306,44.456 38.025,45.413 37.5,46.538 38.025,47.663 41.306,48.6 44.588,49.538 48,49.538 Z M 48,57 q 1.575,0 3.038,-0.15 Q 52.5,56.7 53.831,56.419 55.163,56.138 56.344,55.725 57.525,55.313 58.5,54.788 v -4.5 q -0.975,0.525 -2.156,0.938 -1.181,0.413 -2.513,0.694 Q 52.5,52.2 51.038,52.35 49.575,52.5 48,52.5 46.425,52.5 44.925,52.35 43.425,52.2 42.094,51.919 40.763,51.638 39.6,51.225 38.438,50.813 37.5,50.288 v 4.5 q 0.938,0.525 2.1,0.938 1.163,0.413 2.494,0.694 Q 43.425,56.7 44.925,56.85 46.425,57 48,57 Z m 0,7.5 q 1.725,0 3.506,-0.263 1.781,-0.263 3.281,-0.694 1.5,-0.431 2.513,-0.975 1.013,-0.544 1.2,-1.106 v -3.675 q -0.975,0.525 -2.156,0.938 -1.181,0.413 -2.513,0.694 Q 52.5,59.7 51.038,59.85 49.575,60 48,60 46.425,60 44.925,59.85 43.425,59.7 42.094,59.419 40.763,59.138 39.6,58.725 38.438,58.313 37.5,57.788 V 61.5 q 0.188,0.563 1.181,1.088 0.994,0.525 2.494,0.956 1.5,0.431 3.3,0.694 Q 46.275,64.5 48,64.5 Z"
    class="ColorScheme-Background" fill="currentColor" />
</svg>