<svg viewBox="0 0 96 96" version="1.1">
  <defs>
    <style type="text/css" id="current-color-scheme">
      .ColorScheme-Accent {
        color: #95ccff;
      }

      .ColorScheme-Background {
        color: #1e2022;
      }
    </style>
    <path id="folder-back" d="M 8,80 V 16 h 34.1 l 6,6 H 88 v 58 z" />
  </defs>
  <use href="#folder-back" class="ColorScheme-Accent" fill="currentColor" />
  <use href="#folder-back" class="ColorScheme-Background" fill="currentColor" opacity="0.3" />
  <path d="M 8,80 V 28 h 34.1 l 6,-6 H 88 v 58 z" class="ColorScheme-Accent" fill="currentColor" />
  <path
    d="M 53.6,48.4 V 44.2 H 42.4 v 4.2 h -2.8 v -7 h 16.8 v 7 z m -16.8,2.8 h 22.4 z m 19.6,3.5 q 0.595,0 0.998,-0.403 Q 57.8,53.895 57.8,53.3 57.8,52.705 57.398,52.303 56.995,51.9 56.4,51.9 55.805,51.9 55.403,52.303 55,52.705 55,53.3 55,53.895 55.403,54.298 55.805,54.7 56.4,54.7 Z m -2.8,9.1 V 58.2 H 42.4 v 5.6 z m 2.8,2.8 H 39.6 V 61 H 34 V 48.4 H 62 V 61 h -5.6 z m 2.8,-8.4 v -7 H 36.8 v 7 h 2.8 v -2.8 h 16.8 v 2.8 z"
    class="ColorScheme-Background" fill="currentColor" />
</svg>