<svg viewBox="0 0 96 96" xmlns="http://www.w3.org/2000/svg">
  <defs>
    <style type="text/css" id="current-color-scheme">
      .ColorScheme-Accent {
        color: #95ccff;
      }

      .ColorScheme-Background {
        color: #1e2022;
      }
    </style>
    <path id="folder-back" d="M 8,80 V 16 h 34.1 l 6,6 H 88 v 58 z" />
  </defs>
  <use href="#folder-back" class="ColorScheme-Accent" fill="currentColor" />
  <use href="#folder-back" class="ColorScheme-Background" fill="currentColor" opacity="0.3" />
  <path d="M 8,80 V 28 h 34.1 l 6,-6 H 88 v 58 z" class="ColorScheme-Accent" fill="currentColor" />
  <path
    d="m 39.833,68 -0.389,-3.422 4.433,-12.211 q 0.583,0.544 1.264,0.914 Q 45.822,53.65 46.6,53.844 L 42.322,65.589 Z M 56.167,68 53.678,65.589 49.4,53.844 q 0.778,-0.194 1.458,-0.564 0.681,-0.369 1.264,-0.914 l 4.433,12.211 z M 48,52.444 q -1.944,0 -3.306,-1.361 -1.361,-1.361 -1.361,-3.306 0,-1.517 0.875,-2.703 0.875,-1.186 2.236,-1.653 V 40 h 3.111 v 3.422 q 1.361,0.467 2.236,1.653 0.875,1.186 0.875,2.703 0,1.944 -1.361,3.306 Q 49.944,52.444 48,52.444 Z m 0,-3.111 q 0.661,0 1.108,-0.447 0.447,-0.447 0.447,-1.108 0,-0.661 -0.447,-1.108 Q 48.661,46.222 48,46.222 q -0.661,0 -1.108,0.447 -0.447,0.447 -0.447,1.108 0,0.661 0.447,1.108 Q 47.339,49.333 48,49.333 Z"
    class="ColorScheme-Background" fill="currentColor" />
</svg>