<svg viewBox="0 0 96 96" xmlns="http://www.w3.org/2000/svg">
  <defs>
    <style type="text/css" id="current-color-scheme">
      .ColorScheme-Accent {
        color: #95ccff;
      }

      .ColorScheme-Background {
        color: #1e2022;
      }
    </style>
    <path id="folder-back" d="M 8,80 V 16 h 34.1 l 6,6 H 88 v 58 z" />
  </defs>
  <use href="#folder-back" class="ColorScheme-Accent" fill="currentColor" />
  <use href="#folder-back" class="ColorScheme-Background" fill="currentColor" opacity="0.3" />
  <path d="M 8,80 V 28 h 34.1 l 6,-6 H 88 v 58 z" class="ColorScheme-Accent" fill="currentColor" />
  <path
    d="m 39.75,60 q 1.763,0 3.431,0.394 Q 44.85,60.788 46.5,61.575 V 46.8 Q 44.963,45.9 43.238,45.45 41.513,45 39.75,45 38.4,45 37.069,45.263 35.738,45.525 34.5,46.05 V 60.9 Q 35.813,60.45 37.106,60.225 38.4,60 39.75,60 Z m 9.75,1.575 Q 51.15,60.788 52.819,60.394 54.488,60 56.25,60 57.6,60 58.894,60.225 60.188,60.45 61.5,60.9 V 46.05 Q 60.263,45.525 58.931,45.263 57.6,45 56.25,45 54.488,45 52.763,45.45 51.038,45.9 49.5,46.8 Z M 48,66 Q 46.2,64.575 44.1,63.788 42,63 39.75,63 37.763,63 35.588,63.75 33.413,64.5 31.5,66.075 V 44.325 Q 33.15,43.2 35.381,42.6 37.613,42 39.75,42 41.925,42 44.006,42.563 46.088,43.125 48,44.25 49.913,43.125 51.994,42.563 54.075,42 56.25,42 58.388,42 60.619,42.6 62.85,43.2 64.5,44.325 v 21.75 Q 62.625,64.5 60.431,63.75 58.238,63 56.25,63 54,63 51.9,63.788 49.8,64.575 48,66 Z M 40.5,53.288 Z M 51,50.85 V 48.3 Q 52.238,47.775 53.531,47.513 54.825,47.25 56.25,47.25 q 0.975,0 1.913,0.15 Q 59.1,47.55 60,47.775 v 2.4 Q 59.1,49.838 58.181,49.669 57.263,49.5 56.25,49.5 54.825,49.5 53.513,49.856 52.2,50.213 51,50.85 Z m 0,8.25 V 56.55 Q 52.238,56.025 53.531,55.763 54.825,55.5 56.25,55.5 q 0.975,0 1.913,0.15 Q 59.1,55.8 60,56.025 v 2.4 Q 59.1,58.088 58.181,57.919 57.263,57.75 56.25,57.75 q -1.425,0 -2.738,0.338 Q 52.2,58.425 51,59.1 Z m 0,-4.125 v -2.55 Q 52.238,51.9 53.531,51.638 54.825,51.375 56.25,51.375 q 0.975,0 1.913,0.15 Q 59.1,51.675 60,51.9 v 2.4 Q 59.1,53.963 58.181,53.794 57.263,53.625 56.25,53.625 q -1.425,0 -2.738,0.356 Q 52.2,54.338 51,54.975 Z"
    class="ColorScheme-Background" fill="currentColor" />
</svg>