<svg viewBox="0 0 96 96" xmlns="http://www.w3.org/2000/svg">
  <defs>
    <style type="text/css" id="current-color-scheme">
      .ColorScheme-Accent {
        color: #95ccff;
      }

      .ColorScheme-Background {
        color: #1e2022;
      }
    </style>
    <path id="folder-back" d="M 8,80 V 16 h 34.1 l 6,6 H 88 v 58 z" />
  </defs>
  <use href="#folder-back" class="ColorScheme-Accent" fill="currentColor" />
  <use href="#folder-back" class="ColorScheme-Background" fill="currentColor" opacity="0.3" />
  <path d="M 8,80 V 28 h 34.1 l 6,-6 H 88 v 58 z" class="ColorScheme-Accent" fill="currentColor" />
  <path
    d="M 41.25,69 Q 39.075,69 37.538,67.463 36,65.925 36,63.75 V 44.25 Q 36,42.075 37.538,40.538 39.075,39 41.25,39 H 60 v 22.5 q -0.938,0 -1.594,0.656 Q 57.75,62.813 57.75,63.75 q 0,0.938 0.656,1.594 Q 59.063,66 60,66 v 3 z M 39,58.988 Q 39.525,58.725 40.088,58.613 40.65,58.5 41.25,58.5 H 42 V 42 H 41.25 Q 40.313,42 39.656,42.656 39,43.313 39,44.25 Z M 45,58.5 H 57 V 42 H 45 Z m -6,0.488 V 42 Z M 41.25,66 H 55.238 Q 55.013,65.475 54.881,64.931 54.75,64.388 54.75,63.75 q 0,-0.6 0.113,-1.163 Q 54.975,62.025 55.238,61.5 H 41.25 q -0.975,0 -1.613,0.656 Q 39,62.813 39,63.75 39,64.725 39.638,65.363 40.275,66 41.25,66 Z"
    class="ColorScheme-Background" fill="currentColor" />
</svg>