<svg viewBox="0 0 96 96" xmlns="http://www.w3.org/2000/svg">
  <defs>
    <style type="text/css" id="current-color-scheme">
      .ColorScheme-Accent {
        color: #95ccff;
      }

      .ColorScheme-Background {
        color: #1e2022;
      }
    </style>
    <path id="folder-back" d="M 8,80 V 16 h 34.1 l 6,6 H 88 v 58 z" />
  </defs>
  <use href="#folder-back" class="ColorScheme-Accent" fill="currentColor" />
  <use href="#folder-back" class="ColorScheme-Background" fill="currentColor" opacity="0.3" />
  <path d="M 8,80 V 28 h 34.1 l 6,-6 H 88 v 58 z" class="ColorScheme-Accent" fill="currentColor" />
  <path
    d="m 34,62.036 q 0.286,-3.405 2.084,-6.268 1.798,-2.864 4.789,-4.55 l -2.355,-4.073 q -0.191,-0.286 -0.095,-0.605 0.095,-0.318 0.414,-0.477 0.255,-0.159 0.573,-0.064 0.318,0.095 0.509,0.382 l 2.355,4.073 q 2.736,-1.145 5.727,-1.145 2.991,0 5.727,1.145 l 2.355,-4.073 q 0.191,-0.286 0.509,-0.382 0.318,-0.095 0.573,0.064 0.318,0.159 0.414,0.477 0.095,0.318 -0.095,0.605 l -2.355,4.073 q 2.991,1.686 4.789,4.55 Q 61.714,58.632 62,62.036 Z m 7.636,-3.5 q 0.668,0 1.13,-0.461 0.461,-0.461 0.461,-1.13 0,-0.668 -0.461,-1.13 -0.461,-0.461 -1.13,-0.461 -0.668,0 -1.13,0.461 -0.461,0.461 -0.461,1.13 0,0.668 0.461,1.13 0.461,0.461 1.13,0.461 z m 12.727,0 q 0.668,0 1.13,-0.461 0.461,-0.461 0.461,-1.13 0,-0.668 -0.461,-1.13 -0.461,-0.461 -1.13,-0.461 -0.668,0 -1.13,0.461 -0.461,0.461 -0.461,1.13 0,0.668 0.461,1.13 0.461,0.461 1.13,0.461 z"
    class="ColorScheme-Background" fill="currentColor" />
</svg>