<svg viewBox="0 0 96 96" xmlns="http://www.w3.org/2000/svg">
  <defs>
    <style type="text/css" id="current-color-scheme">
      .ColorScheme-Accent {
        color: #95ccff;
      }

      .ColorScheme-Background {
        color: #1e2022;
      }
    </style>
    <path id="folder-back" d="M 8,80 V 16 h 34.1 l 6,6 H 88 v 58 z" />
  </defs>
  <use href="#folder-back" class="ColorScheme-Accent" fill="currentColor" />
  <use href="#folder-back" class="ColorScheme-Background" fill="currentColor" opacity="0.3" />
  <path d="M 8,80 V 28 h 34.1 l 6,-6 H 88 v 58 z" class="ColorScheme-Accent" fill="currentColor" />
  <path
    d="M 55.5,69 Q 53.625,69 52.313,67.688 51,66.375 51,64.5 51,64.275 51.113,63.45 L 40.575,57.3 q -0.6,0.563 -1.388,0.881 Q 38.4,58.5 37.5,58.5 35.625,58.5 34.313,57.188 33,55.875 33,54 33,52.125 34.313,50.813 35.625,49.5 37.5,49.5 q 0.9,0 1.688,0.319 Q 39.975,50.138 40.575,50.7 L 51.113,44.55 Q 51.038,44.288 51.019,44.044 51,43.8 51,43.5 51,41.625 52.313,40.313 53.625,39 55.5,39 57.375,39 58.688,40.313 60,41.625 60,43.5 60,45.375 58.688,46.688 57.375,48 55.5,48 54.6,48 53.813,47.681 53.025,47.363 52.425,46.8 l -10.538,6.15 q 0.075,0.263 0.094,0.506 Q 42,53.7 42,54 42,54.3 41.981,54.544 41.963,54.788 41.888,55.05 L 52.425,61.2 q 0.6,-0.563 1.388,-0.881 Q 54.6,60 55.5,60 57.375,60 58.688,61.313 60,62.625 60,64.5 60,66.375 58.688,67.688 57.375,69 55.5,69 Z m 0,-3 q 0.638,0 1.069,-0.431 Q 57,65.138 57,64.5 57,63.863 56.569,63.431 56.138,63 55.5,63 54.863,63 54.431,63.431 54,63.863 54,64.5 54,65.138 54.431,65.569 54.863,66 55.5,66 Z m -18,-10.5 q 0.638,0 1.069,-0.431 Q 39,54.638 39,54 39,53.363 38.569,52.931 38.138,52.5 37.5,52.5 36.863,52.5 36.431,52.931 36,53.363 36,54 36,54.638 36.431,55.069 36.863,55.5 37.5,55.5 Z M 55.5,45 q 0.638,0 1.069,-0.431 Q 57,44.138 57,43.5 57,42.863 56.569,42.431 56.138,42 55.5,42 54.863,42 54.431,42.431 54,42.863 54,43.5 54,44.138 54.431,44.569 54.863,45 55.5,45 Z m 0,19.5 z M 37.5,54 Z m 18,-10.5 z"
    class="ColorScheme-Background" fill="currentColor" />
</svg>