<svg viewBox="0 0 96 96" xmlns="http://www.w3.org/2000/svg">
  <defs>
    <style type="text/css" id="current-color-scheme">
      .ColorScheme-Accent {
        color: #95ccff;
      }

      .ColorScheme-Background {
        color: #1e2022;
      }
    </style>
    <path id="folder-back" d="M 8,80 V 16 h 34.1 l 6,6 H 88 v 58 z" />
  </defs>
  <use href="#folder-back" class="ColorScheme-Accent" fill="currentColor" />
  <use href="#folder-back" class="ColorScheme-Background" fill="currentColor" opacity="0.3" />
  <path d="M 8,80 V 28 h 34.1 l 6,-6 H 88 v 58 z" class="ColorScheme-Accent" fill="currentColor" />
  <path
    d="m 37.088,66 q -2.25,0 -3.844,-1.613 -1.594,-1.613 -1.669,-3.9 0,-0.338 0.038,-0.675 0.038,-0.338 0.113,-0.675 l 3.15,-12.6 Q 35.4,44.513 37.013,43.256 38.625,42 40.688,42 h 14.625 q 2.063,0 3.675,1.256 1.613,1.256 2.138,3.281 l 3.15,12.6 q 0.075,0.338 0.131,0.694 0.056,0.356 0.056,0.694 0,2.288 -1.631,3.881 Q 61.2,66 58.913,66 q -1.575,0 -2.925,-0.825 -1.35,-0.825 -2.025,-2.25 l -1.05,-2.175 Q 52.725,60.375 52.35,60.188 51.975,60 51.563,60 h -7.125 Q 44.025,60 43.65,60.188 43.275,60.375 43.088,60.75 l -1.05,2.175 q -0.675,1.425 -2.025,2.25 Q 38.663,66 37.088,66 Z M 37.2,63 q 0.713,0 1.294,-0.375 Q 39.075,62.25 39.375,61.613 l 1.05,-2.138 q 0.563,-1.163 1.65,-1.819 Q 43.163,57 44.438,57 h 7.125 q 1.275,0 2.363,0.675 1.088,0.675 1.688,1.8 l 1.05,2.138 q 0.3,0.638 0.881,1.013 Q 58.125,63 58.838,63 q 1.05,0 1.8,-0.694 0.75,-0.694 0.788,-1.744 0,0.038 -0.075,-0.713 L 58.2,47.288 Q 57.938,46.275 57.15,45.638 56.363,45 55.313,45 h -14.625 q -1.05,0 -1.856,0.638 Q 38.025,46.275 37.8,47.288 L 34.65,59.85 q -0.075,0.225 -0.075,0.675 0,1.05 0.769,1.763 Q 36.113,63 37.2,63 Z M 50.25,52.5 q 0.638,0 1.069,-0.431 Q 51.75,51.638 51.75,51 51.75,50.363 51.319,49.931 50.888,49.5 50.25,49.5 49.613,49.5 49.181,49.931 48.75,50.363 48.75,51 q 0,0.638 0.431,1.069 Q 49.613,52.5 50.25,52.5 Z m 3,-3 q 0.638,0 1.069,-0.431 Q 54.75,48.638 54.75,48 54.75,47.363 54.319,46.931 53.888,46.5 53.25,46.5 52.613,46.5 52.181,46.931 51.75,47.363 51.75,48 q 0,0.638 0.431,1.069 Q 52.613,49.5 53.25,49.5 Z m 0,6 q 0.638,0 1.069,-0.431 Q 54.75,54.638 54.75,54 54.75,53.363 54.319,52.931 53.888,52.5 53.25,52.5 52.613,52.5 52.181,52.931 51.75,53.363 51.75,54 q 0,0.638 0.431,1.069 Q 52.613,55.5 53.25,55.5 Z m 3,-3 q 0.638,0 1.069,-0.431 Q 57.75,51.638 57.75,51 57.75,50.363 57.319,49.931 56.888,49.5 56.25,49.5 55.613,49.5 55.181,49.931 54.75,50.363 54.75,51 q 0,0.638 0.431,1.069 Q 55.613,52.5 56.25,52.5 Z m -13.5,2.25 q 0.488,0 0.806,-0.319 Q 43.875,54.113 43.875,53.625 v -1.5 h 1.5 q 0.488,0 0.806,-0.319 Q 46.5,51.488 46.5,51 46.5,50.513 46.181,50.194 45.863,49.875 45.375,49.875 h -1.5 v -1.5 q 0,-0.488 -0.319,-0.806 Q 43.238,47.25 42.75,47.25 q -0.488,0 -0.806,0.319 Q 41.625,47.888 41.625,48.375 v 1.5 h -1.5 q -0.488,0 -0.806,0.319 Q 39,50.513 39,51 39,51.488 39.319,51.806 39.638,52.125 40.125,52.125 h 1.5 v 1.5 q 0,0.488 0.319,0.806 Q 42.263,54.75 42.75,54.75 Z M 48,54 Z"
    class="ColorScheme-Background" fill="currentColor" />
</svg>