<svg viewBox="0 0 96 96" xmlns="http://www.w3.org/2000/svg">
  <defs>
    <style type="text/css" id="current-color-scheme">
      .ColorScheme-Accent {
        color: #95ccff;
      }

      .ColorScheme-Background {
        color: #1e2022;
      }
    </style>
    <path id="folder-back" d="M 8,80 V 16 h 34.1 l 6,6 H 88 v 58 z" />
  </defs>
  <use href="#folder-back" class="ColorScheme-Accent" fill="currentColor" />
  <use href="#folder-back" class="ColorScheme-Background" fill="currentColor" opacity="0.3" />
  <path d="M 8,80 V 28 h 34.1 l 6,-6 H 88 v 58 z" class="ColorScheme-Accent" fill="currentColor" />
  <path
    d="m 45.829,58.9 q 0.84,0.84 2.17,0.822 1.33,-0.018 1.96,-0.962 l 7.839,-11.759 -11.759,7.839 q -0.945,0.63 -0.997,1.925 -0.053,1.295 0.787,2.135 z m 2.17,-16.099 q 2.065,0 3.972,0.577 1.907,0.577 3.587,1.732 l -2.66,1.68 q -1.155,-0.595 -2.397,-0.892 -1.242,-0.297 -2.502,-0.297 -4.655,0 -7.927,3.272 -3.272,3.272 -3.272,7.927 0,1.47 0.402,2.905 0.402,1.435 1.137,2.695 h 19.318 q 0.805,-1.33 1.172,-2.765 0.367,-1.435 0.367,-2.975 0,-1.26 -0.297,-2.45 -0.297,-1.19 -0.892,-2.31 l 1.68,-2.66 q 1.05,1.645 1.662,3.5 0.612,1.855 0.647,3.85 0.035,1.995 -0.455,3.815 -0.49,1.82 -1.435,3.465 -0.385,0.63 -1.05,0.98 -0.665,0.35 -1.4,0.35 H 38.34 q -0.735,0 -1.4,-0.35 Q 36.275,64.499 35.89,63.869 34.98,62.294 34.49,60.527 34,58.76 34,56.8 q 0,-2.905 1.102,-5.442 1.102,-2.537 3.01,-4.445 1.907,-1.907 4.462,-3.01 2.555,-1.102 5.425,-1.102 z m 0.245,10.954 z"
    class="ColorScheme-Background" fill="currentColor" />
</svg>