<svg viewBox="0 0 96 96" xmlns="http://www.w3.org/2000/svg">
  <defs>
    <style type="text/css" id="current-color-scheme">
      .ColorScheme-Accent {
        color: #95ccff;
      }

      .ColorScheme-Background {
        color: #1e2022;
      }
    </style>
    <path id="folder-back" d="M 8,80 V 16 h 34.1 l 6,6 H 88 v 58 z" />
  </defs>
  <use href="#folder-back" class="ColorScheme-Accent" fill="currentColor" />
  <use href="#folder-back" class="ColorScheme-Background" fill="currentColor" opacity="0.3" />
  <path d="M 8,80 V 28 h 34.1 l 6,-6 H 88 v 58 z" class="ColorScheme-Accent" fill="currentColor" />
  <path
    d="m 31.5,63 q 0.338,-4.013 2.456,-7.388 2.119,-3.375 5.644,-5.362 l -2.775,-4.8 q -0.225,-0.338 -0.113,-0.713 0.113,-0.375 0.488,-0.563 0.3,-0.188 0.675,-0.075 0.375,0.112 0.6,0.45 l 2.775,4.8 q 3.225,-1.35 6.75,-1.35 3.525,0 6.75,1.35 l 2.775,-4.8 q 0.225,-0.338 0.6,-0.45 0.375,-0.113 0.675,0.075 0.375,0.188 0.488,0.563 0.113,0.375 -0.113,0.713 L 56.4,50.25 q 3.525,1.987 5.644,5.362 2.119,3.375 2.456,7.388 z m 9,-4.125 q 0.788,0 1.331,-0.544 0.544,-0.544 0.544,-1.331 0,-0.787 -0.544,-1.331 Q 41.288,55.125 40.5,55.125 q -0.788,0 -1.331,0.544 -0.544,0.544 -0.544,1.331 0,0.788 0.544,1.331 0.544,0.544 1.331,0.544 z m 15,0 q 0.788,0 1.331,-0.544 0.544,-0.544 0.544,-1.331 0,-0.787 -0.544,-1.331 Q 56.288,55.125 55.5,55.125 q -0.788,0 -1.331,0.544 -0.544,0.544 -0.544,1.331 0,0.788 0.544,1.331 0.544,0.544 1.331,0.544 z"
    class="ColorScheme-Background" fill="currentColor" />
</svg>