<svg viewBox="0 0 96 96" xmlns="http://www.w3.org/2000/svg">
  <defs>
    <style type="text/css" id="current-color-scheme">
      .ColorScheme-Accent {
        color: #95ccff;
      }

      .ColorScheme-Background {
        color: #1e2022;
      }
    </style>
    <path id="folder-back" d="M 8,80 V 16 h 34.1 l 6,6 H 88 v 58 z" />
  </defs>
  <use href="#folder-back" class="ColorScheme-Accent" fill="currentColor" />
  <use href="#folder-back" class="ColorScheme-Background" fill="currentColor" opacity="0.3" />
  <path d="M 8,80 V 28 h 34.1 l 6,-6 H 88 v 58 z" class="ColorScheme-Accent" fill="currentColor" />
  <path
    d="m 60.105,62.379 c -0.454,1.048 -0.991,2.013 -1.613,2.9 -0.848,1.209 -1.543,2.046 -2.078,2.511 -0.83,0.763 -1.718,1.154 -2.67,1.176 -0.683,0 -1.507,-0.194 -2.467,-0.589 -0.962,-0.393 -1.847,-0.587 -2.655,-0.587 -0.848,0 -1.758,0.194 -2.731,0.587 -0.974,0.394 -1.759,0.6 -2.36,0.62 -0.913,0.039 -1.823,-0.363 -2.731,-1.207 -0.58,-0.506 -1.305,-1.372 -2.173,-2.6 -0.932,-1.311 -1.698,-2.831 -2.298,-4.565 -0.643,-1.872 -0.965,-3.685 -0.965,-5.44 0,-2.01 0.434,-3.745 1.305,-5.198 0.684,-1.167 1.594,-2.088 2.732,-2.764 1.139,-0.676 2.369,-1.02 3.694,-1.042 0.725,0 1.676,0.224 2.857,0.665 1.178,0.442 1.935,0.666 2.266,0.666 0.248,0 1.088,-0.262 2.513,-0.785 1.347,-0.485 2.484,-0.686 3.416,-0.606 2.524,0.204 4.42,1.199 5.681,2.991 -2.257,1.368 -3.374,3.283 -3.352,5.741 0.02,1.914 0.715,3.507 2.08,4.772 0.619,0.587 1.309,1.041 2.078,1.363 -0.167,0.483 -0.343,0.946 -0.53,1.391 z m -5.789,-22.779 c 0,1.5 -0.548,2.901 -1.641,4.198 -1.318,1.541 -2.913,2.432 -4.643,2.292 -0.022,-0.18 -0.035,-0.369 -0.035,-0.569 0,-1.44 0.627,-2.982 1.741,-4.242 0.556,-0.638 1.263,-1.169 2.12,-1.592 0.856,-0.417 1.665,-0.648 2.426,-0.687 0.022,0.201 0.032,0.401 0.032,0.6 z"
    class="ColorScheme-Background" fill="currentColor" />
</svg>