<svg viewBox="0 0 96 96" xmlns="http://www.w3.org/2000/svg">
  <defs>
    <style type="text/css" id="current-color-scheme">
      .ColorScheme-Accent {
        color: #95ccff;
      }

      .ColorScheme-Background {
        color: #1e2022;
      }
    </style>
    <path id="folder-back" d="M 8,80 V 16 h 34.1 l 6,6 H 88 v 58 z" />
  </defs>
  <use href="#folder-back" class="ColorScheme-Accent" fill="currentColor" />
  <use href="#folder-back" class="ColorScheme-Background" fill="currentColor" opacity="0.3" />
  <path d="M 8,80 V 28 h 34.1 l 6,-6 H 88 v 58 z" class="ColorScheme-Accent" fill="currentColor" />
  <path
    d="M 37.294,68 Q 35.935,68 34.968,67.032 34,66.065 34,64.706 q 0,-1.359 0.968,-2.326 0.968,-0.968 2.326,-0.968 1.359,0 2.326,0.968 0.968,0.968 0.968,2.326 0,1.359 -0.968,2.326 Q 38.653,68 37.294,68 Z m 19.765,0 q 0,-4.818 -1.812,-8.997 Q 53.435,54.824 50.306,51.694 47.176,48.565 42.997,46.753 38.818,44.941 34,44.941 V 40 q 5.847,0 10.912,2.182 5.065,2.182 8.894,6.012 3.829,3.829 6.012,8.894 Q 62,62.153 62,68 Z m -9.882,0 q 0,-2.759 -1.029,-5.126 Q 45.118,60.506 43.306,58.694 41.494,56.882 39.126,55.853 36.759,54.824 34,54.824 v -4.941 q 3.788,0 7.062,1.421 3.274,1.421 5.744,3.891 2.471,2.471 3.891,5.744 Q 52.118,64.212 52.118,68 Z"
    class="ColorScheme-Background" fill="currentColor" />
</svg>