<svg viewBox="0 0 96 96" xmlns="http://www.w3.org/2000/svg">
  <defs>
    <style type="text/css" id="current-color-scheme">
      .ColorScheme-Accent {
        color: #95ccff;
      }

      .ColorScheme-Background {
        color: #1e2022;
      }
    </style>
    <path id="folder-back" d="M 8,80 V 16 h 34.1 l 6,6 H 88 v 58 z" />
  </defs>
  <use href="#folder-back" class="ColorScheme-Accent" fill="currentColor" />
  <use href="#folder-back" class="ColorScheme-Background" fill="currentColor" opacity="0.3" />
  <path d="M 8,80 V 28 h 34.1 l 6,-6 H 88 v 58 z" class="ColorScheme-Accent" fill="currentColor" />
  <path d="M 60.056,47.04 V 60.96 L 48,67.921 V 54 Z" class="ColorScheme-Background" fill="currentColor" />
  <path
    d="M 48,54 V 40.079 L 35.944,47.04 Z M 36.483,45.027 c -1.247,0.72 -2.012,2.046 -2.012,3.486 v 10.974 c 0,1.44 0.766,2.766 2.012,3.486 l 9.504,5.487 c 1.247,0.72 2.778,0.72 4.025,0 l 9.504,-5.487 c 1.247,-0.72 2.012,-2.046 2.012,-3.486 V 48.513 c 0,-1.44 -0.766,-2.766 -2.012,-3.486 l -9.504,-5.487 c -1.247,-0.72 -2.778,-0.72 -4.025,0 z m 12.056,-2.935 9.504,5.487 c 0.332,0.192 0.539,0.55 0.539,0.934 v 10.974 c 0,0.384 -0.207,0.742 -0.539,0.934 l -9.504,5.487 c -0.332,0.192 -0.746,0.192 -1.079,0 L 37.957,60.421 C 37.625,60.229 37.417,59.871 37.417,59.487 V 48.513 c 0,-0.384 0.207,-0.742 0.539,-0.934 l 9.504,-5.487 c 0.332,-0.192 0.746,-0.192 1.079,0 z"
    class="ColorScheme-Background" fill="currentColor" />
</svg>