<svg height="96" width="96" version="1.1" xmlns="http://www.w3.org/2000/svg" xmlns:svg="http://www.w3.org/2000/svg">
  <defs>
    <style type="text/css" id="current-color-scheme">
      .ColorScheme-Accent {
        color: #95ccff;
      }

      .ColorScheme-Background {
        color: #28292d;
      }
    </style>
    <linearGradient id="lg1" x1="48" y1="80" x2="48" y2="16" gradientUnits="userSpaceOnUse">
      <stop stop-opacity="0.15" offset="0" />
      <stop stop-opacity="0" offset="1" />
    </linearGradient>
    <path id="folder-back" d="M 8,34 v -12 q 0,-2.3 1.8,-4.15 1.8,-1.85 4.2,-1.85 h 28.1 l 6,6 v 12 z" />
    <path id="icon"
      d="m 44.412,51.265 c -0.279,-0.617 -0.404,-1.336 -0.191,-1.99 0.213,-0.668 0.69,-1.204 1.168,-1.704 1.329,-1.329 2.967,-2.306 4.267,-3.657 0.72,-0.742 1.314,-1.63 1.52,-2.651 0.169,-0.749 0.088,-1.52 -0.066,-2.262 0.69,0.786 0.918,1.909 0.72,2.923 -0.213,1.138 -0.845,2.144 -1.586,3.011 -0.595,0.698 -1.278,1.315 -1.99,1.888 -0.83,0.668 -1.645,1.388 -2.166,2.328 -0.441,0.764 -0.544,1.704 -0.242,2.534 0.492,1.425 1.638,2.482 2.262,3.826 -0.69,-0.61 -1.366,-1.241 -1.998,-1.909 -0.661,-0.705 -1.285,-1.454 -1.696,-2.335 z m 3.745,-1.116 c -0.125,1.168 0.485,2.269 1.212,3.136 0.352,0.389 0.653,0.867 0.668,1.41 0.015,0.727 -0.396,1.403 -0.925,1.88 0.125,-0.015 0.213,-0.125 0.316,-0.183 0.793,-0.507 1.557,-1.146 1.946,-2.019 0.257,-0.595 0.198,-1.3 -0.139,-1.851 -0.397,-0.646 -0.918,-1.219 -1.226,-1.924 -0.169,-0.397 -0.228,-0.859 -0.088,-1.278 0.184,-0.565 0.58,-1.028 0.999,-1.432 1.153,-1.094 2.548,-1.873 3.885,-2.725 -1.689,0.485 -3.356,1.153 -4.781,2.203 -0.903,0.676 -1.74,1.616 -1.865,2.783 z m 8.027,5.523 c 0.801,0.044 1.586,0.632 1.733,1.439 0.14,0.698 -0.198,1.388 -0.632,1.917 -0.712,0.852 -1.675,1.461 -2.644,1.983 -0.096,0.058 -0.176,0.132 -0.25,0.213 1.278,-0.323 2.556,-0.808 3.591,-1.638 0.573,-0.477 1.079,-1.109 1.19,-1.866 0.103,-0.653 -0.169,-1.329 -0.654,-1.762 -0.588,-0.536 -1.417,-0.734 -2.196,-0.632 -0.448,0.059 -0.94,0.154 -1.248,0.529 0.367,-0.073 0.727,-0.22 1.109,-0.183 z M 40.241,57.771 c 0.962,0.257 1.953,0.331 2.937,0.397 0.881,0.059 1.763,0.074 2.651,0.066 2.291,-0.037 4.597,-0.191 6.844,-0.69 0.213,-0.051 0.448,-0.088 0.639,-0.22 0.374,-0.242 0.785,-0.433 1.19,-0.624 -1.829,0.294 -3.665,0.544 -5.515,0.661 -1.873,0.117 -3.76,0.191 -5.64,0.066 -0.536,-0.051 -1.087,-0.081 -1.586,-0.287 -0.118,-0.051 -0.279,-0.154 -0.221,-0.308 0.11,-0.198 0.331,-0.294 0.522,-0.396 0.808,-0.382 1.689,-0.595 2.548,-0.844 -1.476,-0.022 -2.945,0.352 -4.296,0.933 -0.301,0.147 -0.639,0.264 -0.881,0.514 -0.096,0.103 -0.096,0.279 0.015,0.367 0.22,0.198 0.514,0.286 0.793,0.367 z m 11.897,2.02 c -1.285,0.228 -2.578,0.441 -3.878,0.507 -1.425,0.095 -2.849,0.015 -4.259,-0.132 -0.272,-0.037 -0.543,-0.081 -0.786,-0.205 -0.125,-0.074 -0.25,-0.191 -0.242,-0.345 0.015,-0.242 0.22,-0.411 0.367,-0.587 -0.455,0.162 -0.911,0.33 -1.292,0.632 -0.162,0.125 -0.323,0.323 -0.279,0.543 0.066,0.257 0.316,0.411 0.536,0.529 0.543,0.279 1.153,0.404 1.748,0.514 1.505,0.242 3.04,0.25 4.553,0.147 1.601,-0.125 3.195,-0.389 4.744,-0.844 -0.441,-0.198 -0.859,-0.426 -1.212,-0.756 z m -8.071,2.541 c -0.411,0.117 -0.83,0.257 -1.168,0.528 -0.169,0.132 -0.301,0.36 -0.22,0.573 0.103,0.272 0.36,0.433 0.602,0.573 0.632,0.345 1.344,0.507 2.042,0.632 1.579,0.25 3.202,0.213 4.774,-0.066 0.933,-0.176 1.865,-0.426 2.732,-0.815 -0.565,-0.235 -1.116,-0.5 -1.645,-0.808 -0.918,0.162 -1.844,0.331 -2.784,0.389 -1.241,0.095 -2.497,-0.007 -3.738,-0.162 -0.294,-0.066 -0.661,-0.095 -0.859,-0.353 -0.103,-0.213 0.132,-0.367 0.264,-0.492 z m 10.046,4.722 c 1.028,-0.213 2.064,-0.455 3.004,-0.933 0.294,-0.169 0.653,-0.353 0.749,-0.705 0.051,-0.338 -0.301,-0.514 -0.551,-0.654 0.154,0.177 0.257,0.433 0.103,0.639 -0.257,0.345 -0.697,0.477 -1.087,0.61 -1.219,0.345 -2.482,0.485 -3.738,0.624 -3.327,0.301 -6.676,0.375 -10.002,0.095 -1.116,-0.118 -2.255,-0.242 -3.32,-0.639 -0.169,-0.074 -0.426,-0.147 -0.426,-0.375 0.066,-0.198 0.257,-0.308 0.426,-0.404 0.764,-0.389 1.616,-0.602 2.467,-0.654 -0.249,-0.147 -0.543,-0.162 -0.83,-0.154 -0.712,0.022 -1.41,0.205 -2.086,0.433 -0.58,0.213 -1.175,0.448 -1.638,0.874 -0.184,0.161 -0.352,0.47 -0.162,0.69 0.294,0.316 0.749,0.396 1.153,0.492 2.262,0.389 4.553,0.609 6.845,0.69 3.04,0.088 6.103,-0.044 9.092,-0.632 z m 3.011,0.397 c -1.381,0.441 -2.813,0.683 -4.237,0.881 -2.46,0.308 -4.942,0.404 -7.417,0.331 -1.505,-0.059 -3.011,-0.162 -4.494,-0.411 0.345,0.235 0.771,0.308 1.168,0.419 1.667,0.353 3.378,0.419 5.075,0.47 2.489,0.044 4.979,-0.051 7.432,-0.441 1.16,-0.205 2.328,-0.455 3.371,-0.999 0.544,-0.286 1.095,-0.727 1.19,-1.366 -0.551,0.587 -1.344,0.859 -2.085,1.116 z" />
  </defs>
  <use href="#folder-back" class="ColorScheme-Accent" fill="currentColor" />
  <use href="#folder-back" class="ColorScheme-Background" fill="currentColor" opacity="0.3" />
  <path
    d="M 14,80 q -2.4,0 -4.2,-1.85 -1.8,-1.85 -1.8,-4.15 v -40 q 0,-2.3 1.8,-4.15 1.8,-1.85 4.2,-1.85 h 28.1 l 6,-6 h 33.9 q 2.3,0 4.15,1.85 1.85,1.85 1.85,4.15 v 46 q 0,2.3 -1.85,4.15 -1.85,1.85 -4.15,1.85 z"
    class="ColorScheme-Accent" fill="currentColor" />
  <use href="#icon" class="ColorScheme-Background" fill="currentColor" opacity="0.8" />
  <path
    d="M 14,80 Q 11.6,80 9.8,78.15 8,76.3 8,74 V 22 Q 8,19.7 9.8,17.85 11.6,16 14,16 h 28.1 l 6,6 H 82 q 2.3,0 4.15,1.85 Q 88,25.7 88,28 v 46 q 0,2.3 -1.85,4.15 Q 84.3,80 82,80 Z"
    fill="url(#lg1)" />
</svg>