<svg viewBox="0 0 96 96" xmlns="http://www.w3.org/2000/svg">
  <defs>
    <style type="text/css" id="current-color-scheme">
      .ColorScheme-Accent {
        color: #95ccff;
      }

      .ColorScheme-Background {
        color: #1e2022;
      }
    </style>
    <path id="folder-back" d="M 8,80 V 16 h 34.1 l 6,6 H 88 v 58 z" />
  </defs>
  <use href="#folder-back" class="ColorScheme-Accent" fill="currentColor" />
  <use href="#folder-back" class="ColorScheme-Background" fill="currentColor" opacity="0.3" />
  <path d="M 8,80 V 28 h 34.1 l 6,-6 H 88 v 58 z" class="ColorScheme-Accent" fill="currentColor" />
  <path
    d="M 37.333,68 V 49.333 h 4 v -2.667 q 0,-2.767 1.95,-4.717 Q 45.233,40 48,40 q 2.767,0 4.717,1.95 1.95,1.95 1.95,4.717 v 2.667 h 4 V 68 Z M 40,65.333 H 56 V 52 H 40 Z m 8,-4 q 1.1,0 1.883,-0.783 0.783,-0.783 0.783,-1.883 0,-1.1 -0.783,-1.883 Q 49.1,56 48,56 q -1.1,0 -1.883,0.783 -0.783,0.783 -0.783,1.883 0,1.1 0.783,1.883 0.783,0.783 1.883,0.783 z M 44,49.333 h 8 v -2.667 q 0,-1.667 -1.167,-2.833 -1.167,-1.167 -2.833,-1.167 -1.667,0 -2.833,1.167 Q 44,45 44,46.667 Z m -4,16 V 52 Z"
    class="ColorScheme-Background" fill="currentColor" />
</svg>