<svg viewBox="0 0 96 96" xmlns="http://www.w3.org/2000/svg">
  <defs>
    <style type="text/css" id="current-color-scheme">
      .ColorScheme-Accent {
        color: #95ccff;
      }

      .ColorScheme-Background {
        color: #1e2022;
      }
    </style>
    <path id="folder-back" d="M 8,80 V 16 h 34.1 l 6,6 H 88 v 58 z" />
  </defs>
  <use href="#folder-back" class="ColorScheme-Accent" fill="currentColor" />
  <use href="#folder-back" class="ColorScheme-Background" fill="currentColor" opacity="0.3" />
  <path d="M 8,80 V 28 h 34.1 l 6,-6 H 88 v 58 z" class="ColorScheme-Accent" fill="currentColor" />
  <path
    d="m 43.2,67.5 h -8.7 v -8.7 q 1.8,0 3.15,-1.144 Q 39,56.513 39,54.75 39,52.988 37.65,51.844 36.3,50.7 34.5,50.7 V 42 h 9 q 0,-1.575 1.088,-2.663 Q 45.675,38.25 47.25,38.25 q 1.575,0 2.663,1.088 Q 51,40.425 51,42 h 9 v 9 q 1.575,0 2.663,1.088 1.088,1.088 1.088,2.663 0,1.575 -1.088,2.663 Q 61.575,58.5 60,58.5 v 9 h -8.7 q 0,-1.875 -1.181,-3.188 Q 48.938,63 47.25,63 45.563,63 44.381,64.313 43.2,65.625 43.2,67.5 Z m -5.7,-3 h 3.188 q 0.9,-2.475 2.888,-3.488 Q 45.563,60 47.25,60 q 1.688,0 3.675,1.013 1.988,1.013 2.888,3.488 H 57 v -9 h 3 q 0.3,0 0.525,-0.225 0.225,-0.225 0.225,-0.525 0,-0.3 -0.225,-0.525 Q 60.3,54 60,54 H 57 V 45 H 48 V 42 Q 48,41.7 47.775,41.475 47.55,41.25 47.25,41.25 q -0.3,0 -0.525,0.225 Q 46.5,41.7 46.5,42 v 3 h -9 v 3.3 q 2.025,0.75 3.263,2.513 Q 42,52.575 42,54.75 42,56.888 40.763,58.65 39.525,60.413 37.5,61.2 Z m 9.75,-9.75 z"
    class="ColorScheme-Background" fill="currentColor" />
</svg>