<svg height="96" width="96" version="1.1" xmlns="http://www.w3.org/2000/svg" xmlns:svg="http://www.w3.org/2000/svg">
  <defs>
    <style type="text/css" id="current-color-scheme">
      .ColorScheme-Accent {
        color: #95ccff;
      }

      .ColorScheme-Background {
        color: #28292d;
      }
    </style>
    <linearGradient id="lg1" x1="48" y1="80" x2="48" y2="16" gradientUnits="userSpaceOnUse">
      <stop stop-opacity="0.15" offset="0" />
      <stop stop-opacity="0" offset="1" />
    </linearGradient>
    <path id="folder-back" d="M 8,34 v -12 q 0,-2.3 1.8,-4.15 1.8,-1.85 4.2,-1.85 h 28.1 l 6,6 v 12 z" />
    <path id="icon"
      d="m 50.687,54.287 q 3.038,-2.125 4.763,-4.682 1.725,-2.556 1.725,-5.131 0,-1.45 -0.482,-2.213 -0.481,-0.762 -1.306,-0.762 -2.013,0 -3.462,3.119 -1.45,3.119 -1.45,7.244 0,0.675 0.044,1.281 0.044,0.606 0.169,1.144 z M 34.5,67.5 v -2.5 h 2.5 v 2.5 z m 6.125,0 V 65 H 43.125 v 2.5 z m 6.125,0 v -2.5 h 2.5 v 2.5 z m 6.125,0 v -2.5 h 2.5 v 2.5 z m 6.125,0 v -2.5 h 2.5 v 2.5 z m -24.25,-6.1 -1.75,-1.75 2.4,-2.4 -2.4,-2.4 1.75,-1.75 2.4,2.4 2.4,-2.4 1.75,1.75 -2.4,2.4 2.4,2.4 -1.75,1.75 -2.4,-2.4 z m 18.425,-1.4 q -1.175,0 -2.125,-0.494 -0.95,-0.494 -1.625,-1.494 -0.938,0.525 -1.931,0.975 -0.994,0.45 -2.069,0.863 l -0.875,-2.337 q 1.05,-0.4 2.006,-0.831 0.956,-0.431 1.856,-0.944 -0.237,-0.85 -0.344,-1.838 -0.106,-0.987 -0.106,-2.112 0,-5.45 2.1,-9.119 2.1,-3.669 5.325,-3.669 1.925,0 3.1,1.506 1.175,1.506 1.175,4.093 0,3.275 -2.119,6.425 -2.119,3.15 -5.906,5.663 0.338,0.413 0.731,0.619 0.394,0.206 0.844,0.206 1.2,0 2.544,-1.162 1.344,-1.163 2.494,-3.238 l 2.287,1.075 q -0.212,0.862 -0.275,1.662 -0.063,0.8 0.075,1.675 0.475,-0.237 1.031,-0.675 0.556,-0.438 1.081,-1.088 l 1.987,1.538 q -0.95,1.225 -2.125,1.962 -1.175,0.738 -2.188,0.738 -0.863,0 -1.444,-0.581 -0.581,-0.581 -0.794,-1.706 -1.075,1.113 -2.275,1.7 -1.2,0.588 -2.438,0.588 z" />
  </defs>
  <use href="#folder-back" class="ColorScheme-Accent" fill="currentColor" />
  <use href="#folder-back" class="ColorScheme-Background" fill="currentColor" opacity="0.3" />
  <path
    d="M 14,80 q -2.4,0 -4.2,-1.85 -1.8,-1.85 -1.8,-4.15 v -40 q 0,-2.3 1.8,-4.15 1.8,-1.85 4.2,-1.85 h 28.1 l 6,-6 h 33.9 q 2.3,0 4.15,1.85 1.85,1.85 1.85,4.15 v 46 q 0,2.3 -1.85,4.15 -1.85,1.85 -4.15,1.85 z"
    class="ColorScheme-Accent" fill="currentColor" />
  <use href="#icon" class="ColorScheme-Background" fill="currentColor" opacity="0.8" />
  <path
    d="M 14,80 Q 11.6,80 9.8,78.15 8,76.3 8,74 V 22 Q 8,19.7 9.8,17.85 11.6,16 14,16 h 28.1 l 6,6 H 82 q 2.3,0 4.15,1.85 Q 88,25.7 88,28 v 46 q 0,2.3 -1.85,4.15 Q 84.3,80 82,80 Z"
    fill="url(#lg1)" />
</svg>