<svg viewBox="0 0 96 96" xmlns="http://www.w3.org/2000/svg">
  <defs>
    <style type="text/css" id="current-color-scheme">
      .ColorScheme-Accent {
        color: #95ccff;
      }

      .ColorScheme-Background {
        color: #1e2022;
      }
    </style>
    <path id="folder-back" d="M 8,80 V 16 h 34.1 l 6,6 H 88 v 58 z" />
  </defs>
  <use href="#folder-back" class="ColorScheme-Accent" fill="currentColor" />
  <use href="#folder-back" class="ColorScheme-Background" fill="currentColor" opacity="0.3" />
  <path d="M 8,80 V 28 h 34.1 l 6,-6 H 88 v 58 z" class="ColorScheme-Accent" fill="currentColor" />
  <path
    d="m 41,64.182 q -2.895,0 -4.948,-2.005 Q 34,60.173 34,57.277 q 0,-2.482 1.495,-4.423 1.495,-1.941 3.914,-2.482 0.795,-2.927 3.182,-4.741 Q 44.977,43.818 48,43.818 q 3.723,0 6.316,2.593 2.593,2.593 2.593,6.316 2.195,0.255 3.643,1.893 Q 62,56.259 62,58.455 q 0,2.386 -1.67,4.057 -1.67,1.67 -4.057,1.67 z m 0,-2.545 h 15.273 q 1.336,0 2.259,-0.923 0.923,-0.923 0.923,-2.259 0,-1.336 -0.923,-2.259 -0.923,-0.923 -2.259,-0.923 h -1.909 v -2.545 q 0,-2.641 -1.861,-4.502 Q 50.641,46.364 48,46.364 q -2.641,0 -4.502,1.861 -1.861,1.861 -1.861,4.502 H 41 q -1.845,0 -3.15,1.305 -1.305,1.305 -1.305,3.15 0,1.845 1.305,3.15 1.305,1.305 3.15,1.305 z M 48,54 Z"
    class="ColorScheme-Background" fill="currentColor" />
</svg>