<svg viewBox="0 0 96 96" xmlns="http://www.w3.org/2000/svg">
  <defs>
    <style type="text/css" id="current-color-scheme">
      .ColorScheme-Accent {
        color: #95ccff;
      }

      .ColorScheme-Background {
        color: #1e2022;
      }
    </style>
    <path id="folder-back" d="M 8,80 V 16 h 34.1 l 6,6 H 88 v 58 z" />
  </defs>
  <use href="#folder-back" class="ColorScheme-Accent" fill="currentColor" />
  <use href="#folder-back" class="ColorScheme-Background" fill="currentColor" opacity="0.3" />
  <path d="M 8,80 V 28 h 34.1 l 6,-6 H 88 v 58 z" class="ColorScheme-Accent" fill="currentColor" />
  <path
    d="m 50.846,39.801 c -0.596,1.173 -1.047,2.371 -1.426,3.515 a 12.014,8.318 0 0 0 -1.426,-0.068 12.014,8.318 0 0 0 -1.422,0.072 C 46.194,42.182 45.746,40.989 45.154,39.822 a 16.635,16.635 0 0 0 -4.481,1.456 c 0.125,1.196 0.36,2.341 0.623,3.415 a 12.014,8.318 0 0 0 -2.939,1.964 c -0.792,-0.595 -1.644,-1.192 -2.57,-1.729 a 16.635,16.635 0 0 0 -2.787,4.097 c 0.67,0.721 1.371,1.378 2.056,1.981 v 8.492 l 5.375,0.466 0.184,2.437 4.394,0.233 0.274,-1.919 h 5.422 l 0.274,1.919 4.394,-0.233 0.184,-2.437 5.375,-0.466 v -8.49 c 0.689,-0.605 1.396,-1.267 2.068,-1.993 a 16.635,16.635 0 0 0 -2.773,-4.1 c -0.93,0.538 -1.783,1.135 -2.578,1.731 A 12.014,8.318 0 0 0 54.698,44.682 c 0.263,-1.078 0.498,-2.226 0.622,-3.426 A 16.635,16.635 0 0 0 50.846,39.801 Z m -9.783,11.764 a 3.235,3.235 0 0 1 3.235,3.235 3.235,3.235 0 0 1 -3.235,3.235 3.235,3.235 0 0 1 -3.235,-3.235 3.235,3.235 0 0 1 3.235,-3.235 z m 13.863,0 a 3.235,3.235 0 0 1 3.235,3.235 3.235,3.235 0 0 1 -3.235,3.235 3.235,3.235 0 0 1 -3.235,-3.235 3.235,3.235 0 0 1 3.235,-3.235 z m -13.401,1.386 a 1.848,1.848 0 0 0 -1.848,1.848 1.848,1.848 0 0 0 1.848,1.848 1.848,1.848 0 0 0 1.848,-1.848 1.848,1.848 0 0 0 -1.848,-1.848 z m 12.938,0 a 1.848,1.848 0 0 0 -1.848,1.848 1.848,1.848 0 0 0 1.848,1.848 1.848,1.848 0 0 0 1.848,-1.848 1.848,1.848 0 0 0 -1.848,-1.848 z m -6.469,0.462 c 0.512,0 0.924,0.412 0.924,0.924 v 2.773 c 0,0.512 -0.412,0.924 -0.924,0.924 -0.512,0 -0.924,-0.412 -0.924,-0.924 v -2.773 c 0,-0.512 0.412,-0.924 0.924,-0.924 z m -12.934,7.014 c 0.053,2.736 0.849,7.772 12.933,7.772 12.084,0 12.88,-5.037 12.933,-7.772 l -4.507,0.39 -0.186,2.462 -6.051,0.322 -0.28,-1.962 h -3.819 l -0.28,1.962 -6.05,-0.322 -0.187,-2.462 z"
    class="ColorScheme-Background" fill="currentColor" />
</svg>