<svg height="96" width="96" version="1.1" xmlns:svg="http://www.w3.org/2000/svg">
  < />
  <defs>
    <style type="text/css" id="current-color-scheme">
      .ColorScheme-Accent {
        color: #95ccff;
      }

      .ColorScheme-Background {
        color: #28292d;
      }
    </style>
    <linearGradient id="lg1" x1="48" y1="80" x2="48" y2="16" gradientUnits="userSpaceOnUse">
      <stop stop-opacity="0.15" offset="0" />
      <stop stop-opacity="0" offset="1" />
    </linearGradient>
  </defs>
  <path d="M 8,34 v -12 q 0,-2.3 1.8,-4.15 1.8,-1.85 4.2,-1.85 h 28.1 l 6,6 v 12 z" class="ColorScheme-Accent"
    fill="currentColor" />
  <path d="M 8,34 v -12 q 0,-2.3 1.8,-4.15 1.8,-1.85 4.2,-1.85 h 28.1 l 6,6 v 12 z" class="ColorScheme-Background"
    fill="currentColor" opacity="0.3" />
  <path
    d="M 14,80 q -2.4,0 -4.2,-1.85 -1.8,-1.85 -1.8,-4.15 v -40 q 0,-2.3 1.8,-4.15 1.8,-1.85 4.2,-1.85 h 28.1 l 6,-6 h 33.9 q 2.3,0 4.15,1.85 1.85,1.85 1.85,4.15 v 46 q 0,2.3 -1.85,4.15 -1.85,1.85 -4.15,1.85 z"
    class="ColorScheme-Accent" fill="currentColor" />
  <path
    d="m 48,66 q -3.113,0 -5.85,-1.181 -2.738,-1.181 -4.763,-3.206 -2.025,-2.025 -3.206,-4.763 -1.181,-2.738 -1.181,-5.85 0,-3.112 1.181,-5.85 1.181,-2.738 3.206,-4.763 2.025,-2.025 4.763,-3.206 2.738,-1.181 5.85,-1.181 3.113,0 5.85,1.181 2.738,1.181 4.763,3.206 2.025,2.025 3.206,4.763 1.181,2.738 1.181,5.85 0,3.113 -1.181,5.85 -1.181,2.738 -3.206,4.763 -2.025,2.025 -4.763,3.206 -2.738,1.181 -5.85,1.181 z m -1.575,-2.55 v -3.025 q -1.287,0 -2.181,-0.944 -0.894,-0.944 -0.894,-2.231 v -1.6 l -7.525,-7.525 q -0.162,0.725 -0.244,1.438 -0.081,0.713 -0.081,1.437 0,4.763 3.106,8.325 3.106,3.563 7.819,4.125 z m 10.8,-3.975 q 0.8,-0.875 1.413,-1.869 0.612,-0.994 1.031,-2.075 0.419,-1.081 0.625,-2.219 0.206,-1.138 0.206,-2.313 0,-3.875 -2.131,-7.05 -2.131,-3.175 -5.694,-4.625 V 39.975 q 0,1.287 -0.894,2.231 -0.894,0.944 -2.181,0.944 h -3.175 v 3.175 q 0,0.638 -0.481,1.056 -0.482,0.419 -1.119,0.419 h -3.075 v 3.2 h 9.45 q 0.638,0 1.056,0.469 0.419,0.469 0.419,1.106 v 4.675 h 1.575 q 1.05,0 1.862,0.619 0.813,0.619 1.113,1.606 z"
    class="ColorScheme-Background" fill="currentColor" opacity="0.8" />
  <path
    d="M 14,80 Q 11.6,80 9.8,78.15 8,76.3 8,74 V 22 Q 8,19.7 9.8,17.85 11.6,16 14,16 h 28.1 l 6,6 H 82 q 2.3,0 4.15,1.85 Q 88,25.7 88,28 v 46 q 0,2.3 -1.85,4.15 Q 84.3,80 82,80 Z"
    fill="url(#lg1)" />
</svg>