<svg viewBox="0 0 96 96" xmlns="http://www.w3.org/2000/svg">
  <defs>
    <style type="text/css" id="current-color-scheme">
      .ColorScheme-Accent {
        color: #95ccff;
      }

      .ColorScheme-Background {
        color: #1e2022;
      }
    </style>
    <path id="folder-back" d="M 8,80 V 16 h 34.1 l 6,6 H 88 v 58 z" />
  </defs>
  <use href="#folder-back" class="ColorScheme-Accent" fill="currentColor" />
  <use href="#folder-back" class="ColorScheme-Background" fill="currentColor" opacity="0.3" />
  <path d="M 8,80 V 28 h 34.1 l 6,-6 H 88 v 58 z" class="ColorScheme-Accent" fill="currentColor" />
  <path
    d="M 48,68 Q 45.13,68 42.575,66.898 40.02,65.795 38.113,63.888 36.205,61.98 35.103,59.425 34,56.87 34,54 q 0,-2.905 1.138,-5.46 1.138,-2.555 3.08,-4.445 Q 40.16,42.205 42.75,41.103 45.34,40 48.28,40 q 2.8,0 5.285,0.963 2.485,0.963 4.358,2.66 1.873,1.698 2.975,4.025 Q 62,49.975 62,52.67 62,56.695 59.55,58.848 57.1,61 53.6,61 h -2.59 q -0.315,0 -0.438,0.175 -0.123,0.175 -0.123,0.385 0,0.42 0.525,1.208 0.525,0.788 0.525,1.803 0,1.75 -0.963,2.59 Q 49.575,68 48,68 Z m 0,-14 z m -7.7,1.4 q 0.91,0 1.505,-0.595 Q 42.4,54.21 42.4,53.3 42.4,52.39 41.805,51.795 41.21,51.2 40.3,51.2 39.39,51.2 38.795,51.795 38.2,52.39 38.2,53.3 q 0,0.91 0.595,1.505 Q 39.39,55.4 40.3,55.4 Z m 4.2,-5.6 q 0.91,0 1.505,-0.595 Q 46.6,48.61 46.6,47.7 46.6,46.79 46.005,46.195 45.41,45.6 44.5,45.6 43.59,45.6 42.995,46.195 42.4,46.79 42.4,47.7 q 0,0.91 0.595,1.505 Q 43.59,49.8 44.5,49.8 Z m 7,0 q 0.91,0 1.505,-0.595 Q 53.6,48.61 53.6,47.7 53.6,46.79 53.005,46.195 52.41,45.6 51.5,45.6 50.59,45.6 49.995,46.195 49.4,46.79 49.4,47.7 q 0,0.91 0.595,1.505 Q 50.59,49.8 51.5,49.8 Z m 4.2,5.6 q 0.91,0 1.505,-0.595 Q 57.8,54.21 57.8,53.3 57.8,52.39 57.205,51.795 56.61,51.2 55.7,51.2 54.79,51.2 54.195,51.795 53.6,52.39 53.6,53.3 q 0,0.91 0.595,1.505 Q 54.79,55.4 55.7,55.4 Z M 48,65.2 q 0.315,0 0.507,-0.175 Q 48.7,64.85 48.7,64.57 48.7,64.08 48.175,63.415 47.65,62.75 47.65,61.42 q 0,-1.47 1.015,-2.345 Q 49.68,58.2 51.15,58.2 h 2.45 q 2.31,0 3.955,-1.348 Q 59.2,55.505 59.2,52.67 59.2,48.435 55.963,45.618 52.725,42.8 48.28,42.8 43.52,42.8 40.16,46.055 36.8,49.31 36.8,54 q 0,4.655 3.273,7.928 Q 43.345,65.2 48,65.2 Z"
    class="ColorScheme-Background" fill="currentColor" />
</svg>