<svg viewBox="0 0 96 96" xmlns="http://www.w3.org/2000/svg">
  <defs>
    <style type="text/css" id="current-color-scheme">
      .ColorScheme-Accent {
        color: #95ccff;
      }

      .ColorScheme-Background {
        color: #1e2022;
      }
    </style>
    <path id="folder-back" d="M 8,80 V 16 h 34.1 l 6,6 H 88 v 58 z" />
  </defs>
  <use href="#folder-back" class="ColorScheme-Accent" fill="currentColor" />
  <use href="#folder-back" class="ColorScheme-Background" fill="currentColor" opacity="0.3" />
  <path d="M 8,80 V 28 h 34.1 l 6,-6 H 88 v 58 z" class="ColorScheme-Accent" fill="currentColor" />
  <path
    d="m 52.95,61.05 2.1,-2.1 -5.55,-5.55 v -6.9 h -3 v 8.1 z M 48,69 Q 44.888,69 42.15,67.819 39.413,66.638 37.388,64.613 35.363,62.588 34.181,59.85 33,57.113 33,54 33,50.888 34.181,48.15 35.363,45.413 37.388,43.388 39.413,41.363 42.15,40.181 44.888,39 48,39 q 3.113,0 5.85,1.181 2.738,1.181 4.763,3.206 2.025,2.025 3.206,4.763 Q 63,50.888 63,54 q 0,3.113 -1.181,5.85 -1.181,2.738 -3.206,4.763 -2.025,2.025 -4.763,3.206 Q 51.113,69 48,69 Z m 0,-15 z m 0,12 q 4.988,0 8.494,-3.506 Q 60,58.988 60,54 60,49.013 56.494,45.506 52.988,42 48,42 43.013,42 39.506,45.506 36,49.013 36,54 36,58.988 39.506,62.494 43.013,66 48,66 Z"
    class="ColorScheme-Background" fill="currentColor" />
</svg>