<svg viewBox="0 0 96 96" xmlns="http://www.w3.org/2000/svg">
  <defs>
    <style type="text/css" id="current-color-scheme">
      .ColorScheme-Accent {
        color: #95ccff;
      }

      .ColorScheme-Background {
        color: #1e2022;
      }
    </style>
    <path id="folder-back" d="M 8,80 V 16 h 34.1 l 6,6 H 88 v 58 z" />
  </defs>
  <use href="#folder-back" class="ColorScheme-Accent" fill="currentColor" />
  <use href="#folder-back" class="ColorScheme-Background" fill="currentColor" opacity="0.3" />
  <path d="M 8,80 V 28 h 34.1 l 6,-6 H 88 v 58 z" class="ColorScheme-Accent" fill="currentColor" />
  <path
    d="M 54,48 V 43.5 H 42 V 48 H 39 V 40.5 H 57 V 48 Z m -18,3 h 24 z m 21,3.75 q 0.638,0 1.069,-0.431 Q 58.5,53.888 58.5,53.25 58.5,52.613 58.069,52.181 57.638,51.75 57,51.75 q -0.638,0 -1.069,0.431 Q 55.5,52.613 55.5,53.25 q 0,0.638 0.431,1.069 Q 56.363,54.75 57,54.75 Z m -3,9.75 v -6 H 42 v 6 z m 3,3 H 39 v -6 H 33 V 48 h 30 v 13.5 h -6 z m 3,-9 V 51 H 36 v 7.5 h 3 v -3 h 18 v 3 z"
    class="ColorScheme-Background" fill="currentColor" />
</svg>