<svg height="96" width="96" version="1.1" xmlns="http://www.w3.org/2000/svg" xmlns:svg="http://www.w3.org/2000/svg">
  <defs>
    <style type="text/css" id="current-color-scheme">
      .ColorScheme-Accent {
        color: #95ccff;
      }

      .ColorScheme-Background {
        color: #28292d;
      }
    </style>
    <linearGradient id="lg1" x1="48" y1="80" x2="48" y2="16" gradientUnits="userSpaceOnUse">
      <stop stop-opacity="0.15" offset="0" />
      <stop stop-opacity="0" offset="1" />
    </linearGradient>
    <path id="folder-back" d="M 8,34 v -12 q 0,-2.3 1.8,-4.15 1.8,-1.85 4.2,-1.85 h 28.1 l 6,6 v 12 z" />
    <path id="icon"
      d="m 31.5,63.026 q 0.312,-3.988 2.444,-7.375 2.131,-3.387 5.656,-5.375 l -2.8,-4.825 q -0.15,-0.338 -0.05,-0.687 0.1,-0.35 0.425,-0.538 0.325,-0.188 0.713,-0.075 0.388,0.113 0.588,0.45 l 2.775,4.775 q 3.225,-1.375 6.75,-1.375 3.525,0 6.75,1.375 l 2.8,-4.775 q 0.2,-0.338 0.587,-0.45 0.388,-0.113 0.712,0.075 0.325,0.187 0.45,0.55 0.125,0.363 -0.075,0.675 l -2.825,4.825 q 3.525,1.988 5.656,5.375 2.132,3.387 2.444,7.375 z m 9,-4.125 q 0.762,0 1.319,-0.557 0.556,-0.556 0.556,-1.319 0,-0.763 -0.556,-1.319 -0.556,-0.556 -1.319,-0.556 -0.762,0 -1.319,0.556 -0.556,0.556 -0.556,1.319 0,0.762 0.556,1.319 0.556,0.557 1.319,0.557 z m 15,0 q 0.762,0 1.319,-0.557 0.556,-0.556 0.556,-1.319 0,-0.763 -0.556,-1.319 -0.556,-0.556 -1.319,-0.556 -0.762,0 -1.319,0.556 -0.556,0.556 -0.556,1.319 0,0.762 0.556,1.319 0.556,0.557 1.319,0.557 z" />
  </defs>
  <use href="#folder-back" class="ColorScheme-Accent" fill="currentColor" />
  <use href="#folder-back" class="ColorScheme-Background" fill="currentColor" opacity="0.3" />
  <path
    d="M 14,80 q -2.4,0 -4.2,-1.85 -1.8,-1.85 -1.8,-4.15 v -40 q 0,-2.3 1.8,-4.15 1.8,-1.85 4.2,-1.85 h 28.1 l 6,-6 h 33.9 q 2.3,0 4.15,1.85 1.85,1.85 1.85,4.15 v 46 q 0,2.3 -1.85,4.15 -1.85,1.85 -4.15,1.85 z"
    class="ColorScheme-Accent" fill="currentColor" />
  <use href="#icon" class="ColorScheme-Background" fill="currentColor" opacity="0.8" />
  <path
    d="M 14,80 Q 11.6,80 9.8,78.15 8,76.3 8,74 V 22 Q 8,19.7 9.8,17.85 11.6,16 14,16 h 28.1 l 6,6 H 82 q 2.3,0 4.15,1.85 Q 88,25.7 88,28 v 46 q 0,2.3 -1.85,4.15 Q 84.3,80 82,80 Z"
    fill="url(#lg1)" />
</svg>