<svg viewBox="0 0 96 96" xmlns="http://www.w3.org/2000/svg">
  <defs>
    <style type="text/css" id="current-color-scheme">
      .ColorScheme-Accent {
        color: #95ccff;
      }

      .ColorScheme-Background {
        color: #1e2022;
      }
    </style>
    <path id="folder-back" d="M 8,80 V 16 h 34.1 l 6,6 H 88 v 58 z" />
  </defs>
  <use href="#folder-back" class="ColorScheme-Accent" fill="currentColor" />
  <use href="#folder-back" class="ColorScheme-Background" fill="currentColor" opacity="0.3" />
  <path d="M 8,80 V 28 h 34.1 l 6,-6 H 88 v 58 z" class="ColorScheme-Accent" fill="currentColor" />
  <path
    d="m 78.8,28 v -6 h 9.2 v 6 z m -9.2,9.2 v -9.2 h 9.2 v 9.2 z m 9.2,9.2 v -9.2 h 9.2 v 9.2 z m -9.2,9.2 v -9.2 h 9.2 v 9.2 z m 9.2,9.2 v -9.2 h 9.2 v 9.2 z m -9.2,9.2 v -9.2 h 9.2 v 9.2 z m 9.2,6 v -6 h 9.2 v 6 z"
    class="ColorScheme-Background" fill="currentColor" />
  <path
    d="m 36.55,58.5 h 4.5 l -0.863,-4.838 q 0.75,-0.375 1.181,-1.088 0.431,-0.713 0.431,-1.575 0,-1.238 -0.881,-2.119 Q 40.037,48 38.8,48 q -1.238,0 -2.119,0.881 -0.881,0.881 -0.881,2.119 0,0.863 0.431,1.575 0.431,0.713 1.181,1.088 z m 2.25,10.5 q -5.213,-1.313 -8.606,-5.981 Q 26.8,58.35 26.8,52.65 V 43.5 l 12,-4.5 12,4.5 v 9.15 q 0,5.7 -3.394,10.369 Q 44.012,67.688 38.8,69 Z m 0,-3.15 q 3.9,-1.238 6.45,-4.95 2.55,-3.713 2.55,-8.25 v -7.088 l -9,-3.375 -9,3.375 V 52.65 q 0,4.538 2.55,8.25 2.55,3.713 6.45,4.95 z m 0,-11.85 z"
    class="ColorScheme-Background" fill="currentColor" />
</svg>