<svg viewBox="0 0 96 96" xmlns="http://www.w3.org/2000/svg">
  <defs>
    <style type="text/css" id="current-color-scheme">
      .ColorScheme-Accent {
        color: #95ccff;
      }

      .ColorScheme-Background {
        color: #1e2022;
      }
    </style>
    <path id="folder-back" d="M 8,80 V 16 h 34.1 l 6,6 H 88 v 58 z" />
  </defs>
  <use href="#folder-back" class="ColorScheme-Accent" fill="currentColor" />
  <use href="#folder-back" class="ColorScheme-Background" fill="currentColor" opacity="0.3" />
  <path d="M 8,80 V 28 h 34.1 l 6,-6 H 88 v 58 z" class="ColorScheme-Accent" fill="currentColor" />
  <path
    d="M 48,68 Q 45.095,68 42.54,66.898 39.985,65.795 38.095,63.905 36.205,62.015 35.103,59.46 34,56.905 34,54 q 0,-2.905 1.103,-5.46 1.103,-2.555 2.993,-4.445 1.89,-1.89 4.445,-2.993 Q 45.095,40 48,40 q 2.905,0 5.46,1.103 2.555,1.103 4.445,2.993 1.89,1.89 2.993,4.445 Q 62,51.095 62,54 q 0,2.905 -1.103,5.46 -1.103,2.555 -2.993,4.445 -1.89,1.89 -4.445,2.993 Q 50.905,68 48,68 Z M 46.6,65.13 V 62.4 q -1.155,0 -1.978,-0.823 Q 43.8,60.755 43.8,59.6 V 58.2 L 37.08,51.48 Q 36.975,52.11 36.888,52.74 36.8,53.37 36.8,54 q 0,4.235 2.783,7.42 2.783,3.185 7.018,3.71 z m 9.66,-3.57 q 0.7,-0.77 1.26,-1.663 0.56,-0.893 0.928,-1.855 Q 58.815,57.08 59.008,56.065 59.2,55.05 59.2,54 59.2,50.57 57.293,47.735 55.385,44.9 52.2,43.64 v 0.56 q 0,1.155 -0.823,1.978 Q 50.555,47 49.4,47 h -2.8 v 2.8 q 0,0.595 -0.403,0.998 Q 45.795,51.2 45.2,51.2 H 42.4 V 54 h 8.4 q 0.595,0 0.998,0.403 Q 52.2,54.805 52.2,55.4 v 4.2 h 1.4 q 0.91,0 1.645,0.543 0.735,0.543 1.015,1.418 z"
    class="ColorScheme-Background" fill="currentColor" />
</svg>