<svg viewBox="0 0 96 96" xmlns="http://www.w3.org/2000/svg">
  <defs>
    <style type="text/css" id="current-color-scheme">
      .ColorScheme-Accent {
        color: #95ccff;
      }

      .ColorScheme-Background {
        color: #1e2022;
      }
    </style>
    <path id="folder-back" d="M 8,80 V 16 h 34.1 l 6,6 H 88 v 58 z" />
  </defs>
  <use href="#folder-back" class="ColorScheme-Accent" fill="currentColor" />
  <use href="#folder-back" class="ColorScheme-Background" fill="currentColor" opacity="0.3" />
  <path d="M 8,80 V 28 h 34.1 l 6,-6 H 88 v 58 z" class="ColorScheme-Accent" fill="currentColor" />
  <path
    d="m 65.257,50.924 c -0.811,-0.562 -2.668,-0.773 -4.121,-0.492 -0.169,-1.406 -0.946,-2.637 -2.297,-3.726 l -0.777,-0.562 -0.54,0.809 c -0.676,1.055 -1.013,2.531 -0.912,3.937 0.034,0.492 0.203,1.371 0.709,2.144 -0.473,0.281 -1.452,0.633 -2.736,0.633 H 30.163 l -0.068,0.281 c -0.236,1.406 -0.236,5.8 2.533,9.175 2.094,2.566 5.202,3.867 9.289,3.867 8.85,0 15.402,-4.254 18.476,-11.953 1.216,0.035 3.817,0 5.134,-2.637 0.034,-0.07 0.101,-0.211 0.338,-0.738 l 0.135,-0.281 z M 49.686,41.011 H 45.97 v 3.515 h 3.715 V 41.011 Z m 0,4.219 H 45.97 v 3.515 h 3.715 v -3.515 z m -4.391,0 h -3.716 v 3.515 h 3.715 v -3.515 z m -4.391,0 h -3.716 v 3.515 h 3.715 v -3.515 z m -4.391,4.218 h -3.715 v 3.515 h 3.715 z m 4.391,0 h -3.715 v 3.515 h 3.715 z m 4.391,0 h -3.715 v 3.515 h 3.715 z m 4.391,0 H 45.97 v 3.515 h 3.715 z m 4.391,0 h -3.715 v 3.515 h 3.715 z"
    class="ColorScheme-Background" fill="currentColor" />
</svg>