<svg height="96" width="96" version="1.1" xmlns="http://www.w3.org/2000/svg" xmlns:svg="http://www.w3.org/2000/svg">
  <defs>
    <style type="text/css" id="current-color-scheme">
      .ColorScheme-Accent {
        color: #95ccff;
      }

      .ColorScheme-Background {
        color: #28292d;
      }
    </style>
    <linearGradient id="lg1" x1="48" y1="80" x2="48" y2="16" gradientUnits="userSpaceOnUse">
      <stop stop-opacity="0.15" offset="0" />
      <stop stop-opacity="0" offset="1" />
    </linearGradient>
    <path id="folder-back" d="M 8,34 v -12 q 0,-2.3 1.8,-4.15 1.8,-1.85 4.2,-1.85 h 28.1 l 6,6 v 12 z" />
    <path id="icon"
      d="m 57.294,59.721 c -1.225,1.199 -2.904,1.939 -4.757,1.939 -1.844,0 -3.517,-0.734 -4.744,-1.925 l 0.002,0.002 c -0.558,-0.56 -0.999,-1.236 -1.284,-1.99 l -0.013,-0.039 c -0.2,-0.539 -0.315,-1.161 -0.315,-1.811 0,-0.951 0.247,-1.844 0.682,-2.618 l -0.014,0.027 c 0.379,-0.674 0.861,-1.242 1.432,-1.707 l 0.011,-0.008 c 1.158,-0.924 2.643,-1.483 4.258,-1.483 1.608,0 3.087,0.554 4.256,1.481 l -0.014,-0.011 c 0.582,0.471 1.063,1.038 1.426,1.681 l 0.015,0.029 c 0.348,0.616 0.582,1.342 0.652,2.114 l 0.002,0.021 c 0.012,0.136 0.02,0.295 0.02,0.456 0,0.65 -0.117,1.272 -0.33,1.846 l 0.012,-0.037 c -0.297,0.794 -0.738,1.473 -1.296,2.034 v 0 z m -15.126,-2.178 c 0.04,0.639 0.154,1.234 0.334,1.802 l -0.014,-0.053 c 0.432,1.34 1.114,2.492 1.999,3.456 l -0.006,-0.007 c 0.957,1.049 2.118,1.895 3.421,2.477 l 0.065,0.026 c 1.343,0.601 2.91,0.951 4.56,0.951 1.663,0 3.242,-0.355 4.667,-0.995 l -0.072,0.029 c 1.368,-0.614 2.527,-1.463 3.477,-2.506 l 0.008,-0.008 c 0.877,-0.96 1.56,-2.115 1.973,-3.39 l 0.018,-0.066 c 0.254,-0.781 0.4,-1.679 0.4,-2.612 0,-0.436 -0.032,-0.863 -0.093,-1.282 l 0.006,0.047 c -0.19,-1.309 -0.639,-2.483 -1.293,-3.513 l 0.022,0.036 c -0.63,-1 -1.401,-1.846 -2.295,-2.539 l -0.022,-0.017 h 0.003 l -9.406,-7.222 c -0.326,-0.221 -0.729,-0.353 -1.161,-0.353 -0.435,0 -0.839,0.133 -1.172,0.36 l 0.007,-0.005 c -0.337,0.181 -0.564,0.532 -0.564,0.935 0,0.338 0.159,0.64 0.406,0.834 l 0.002,0.002 -0.001,0.001 3.911,3.182 -11.939,0.012 c -0.019,-10e-4 -0.042,-10e-4 -0.065,-10e-4 -0.947,0 -1.754,0.607 -2.051,1.452 l -0.005,0.015 c -0.192,0.832 0.476,1.523 1.502,1.527 v 0.002 l 6.043,-0.012 -10.827,8.31 c -0.608,0.379 -1.007,1.045 -1.007,1.803 0,0.402 0.112,0.779 0.307,1.1 l -0.005,-0.009 c 0.393,0.39 0.935,0.632 1.533,0.632 0.596,0 1.135,-0.239 1.529,-0.627 v 0 l 5.885,-4.816 c -0.043,0.306 -0.072,0.666 -0.079,1.031 v 0.009 z m 6.456,-2.023 c 0.069,-1.013 0.554,-1.902 1.283,-2.505 l 0.006,-0.005 c 0.747,-0.616 1.713,-0.988 2.767,-0.988 1.054,0 2.02,0.373 2.774,0.994 l -0.008,-0.006 c 0.735,0.607 1.218,1.496 1.286,2.498 l 10e-4,0.011 c 0.003,0.05 0.004,0.108 0.004,0.166 0,0.994 -0.417,1.891 -1.084,2.526 l -0.002,10e-4 c -0.775,0.727 -1.821,1.173 -2.972,1.173 -1.15,0 -2.197,-0.447 -2.974,-1.175 l 0.002,0.002 c -0.67,-0.636 -1.086,-1.533 -1.086,-2.527 0,-0.058 10e-4,-0.116 0.004,-0.174 v 0.008 z" />
  </defs>
  <use href="#folder-back" class="ColorScheme-Accent" fill="currentColor" />
  <use href="#folder-back" class="ColorScheme-Background" fill="currentColor" opacity="0.3" />
  <path
    d="M 14,80 q -2.4,0 -4.2,-1.85 -1.8,-1.85 -1.8,-4.15 v -40 q 0,-2.3 1.8,-4.15 1.8,-1.85 4.2,-1.85 h 28.1 l 6,-6 h 33.9 q 2.3,0 4.15,1.85 1.85,1.85 1.85,4.15 v 46 q 0,2.3 -1.85,4.15 -1.85,1.85 -4.15,1.85 z"
    class="ColorScheme-Accent" fill="currentColor" />
  <use href="#icon" class="ColorScheme-Background" fill="currentColor" opacity="0.8" />
  <path
    d="M 14,80 Q 11.6,80 9.8,78.15 8,76.3 8,74 V 22 Q 8,19.7 9.8,17.85 11.6,16 14,16 h 28.1 l 6,6 H 82 q 2.3,0 4.15,1.85 Q 88,25.7 88,28 v 46 q 0,2.3 -1.85,4.15 Q 84.3,80 82,80 Z"
    fill="url(#lg1)" />
</svg>