<svg height="96" width="96" version="1.1" xmlns="http://www.w3.org/2000/svg" xmlns:svg="http://www.w3.org/2000/svg">
  <defs>
    <style type="text/css" id="current-color-scheme">
      .ColorScheme-Accent {
        color: #95ccff;
      }

      .ColorScheme-Background {
        color: #28292d;
      }
    </style>
    <linearGradient id="lg1" x1="48" y1="80" x2="48" y2="16" gradientUnits="userSpaceOnUse">
      <stop stop-opacity="0.15" offset="0" />
      <stop stop-opacity="0" offset="1" />
    </linearGradient>
    <path id="folder-back" d="M 8,34 v -12 q 0,-2.3 1.8,-4.15 1.8,-1.85 4.2,-1.85 h 28.1 l 6,6 v 12 z" />
    <path id="icon"
      d="M 62.435,52.667 49.336,39.598 a 1.931,1.926 0 0 0 -2.732,0 l -2.72,2.714 3.45,3.442 a 2.295,2.29 0 0 1 2.361,0.549 2.299,2.294 0 0 1 0.546,2.371 l 3.325,3.318 a 2.294,2.289 0 0 1 2.376,0.545 2.298,2.293 0 0 1 0,3.244 2.3,2.295 0 0 1 -3.252,0 2.298,2.293 0 0 1 -0.5,-2.495 l -3.102,-3.094 v 8.143 a 2.298,2.293 0 0 1 0.607,3.678 2.298,2.293 0 0 1 -3.251,0 2.298,2.293 0 0 1 0,-3.244 2.297,2.292 0 0 1 0.754,-0.501 v -8.218 a 2.286,2.281 0 0 1 -0.754,-0.5 2.301,2.296 0 0 1 -0.495,-2.508 l -3.401,-3.394 -8.981,8.96 a 1.932,1.928 0 0 0 0,2.727 l 13.099,13.071 a 1.933,1.929 0 0 0 2.732,0 L 62.435,55.394 a 1.934,1.93 0 0 0 0,-2.727" />
  </defs>
  <use href="#folder-back" class="ColorScheme-Accent" fill="currentColor" />
  <use href="#folder-back" class="ColorScheme-Background" fill="currentColor" opacity="0.3" />
  <path
    d="M 14,80 q -2.4,0 -4.2,-1.85 -1.8,-1.85 -1.8,-4.15 v -40 q 0,-2.3 1.8,-4.15 1.8,-1.85 4.2,-1.85 h 28.1 l 6,-6 h 33.9 q 2.3,0 4.15,1.85 1.85,1.85 1.85,4.15 v 46 q 0,2.3 -1.85,4.15 -1.85,1.85 -4.15,1.85 z"
    class="ColorScheme-Accent" fill="currentColor" />
  <use href="#icon" class="ColorScheme-Background" fill="currentColor" opacity="0.8" />
  <path
    d="M 14,80 Q 11.6,80 9.8,78.15 8,76.3 8,74 V 22 Q 8,19.7 9.8,17.85 11.6,16 14,16 h 28.1 l 6,6 H 82 q 2.3,0 4.15,1.85 Q 88,25.7 88,28 v 46 q 0,2.3 -1.85,4.15 Q 84.3,80 82,80 Z"
    fill="url(#lg1)" />
</svg>