<svg height="96" width="96" version="1.1" xmlns="http://www.w3.org/2000/svg" xmlns:svg="http://www.w3.org/2000/svg">
  <defs>
    <style type="text/css" id="current-color-scheme">
      .ColorScheme-Accent {
        color: #95ccff;
      }

      .ColorScheme-Background {
        color: #28292d;
      }
    </style>
    <linearGradient id="lg1" x1="48" y1="80" x2="48" y2="16" gradientUnits="userSpaceOnUse">
      <stop stop-opacity="0.15" offset="0" />
      <stop stop-opacity="0" offset="1" />
    </linearGradient>
    <path id="folder-back" d="M 8,34 v -12 q 0,-2.3 1.8,-4.15 1.8,-1.85 4.2,-1.85 h 28.1 l 6,6 v 12 z" />
    <path id="icon"
      d="m 37.088,66 q -2.25,0 -3.844,-1.613 Q 31.65,62.775 31.575,60.488 q 0,-0.338 0.038,-0.675 0.038,-0.338 0.113,-0.675 L 34.875,46.538 q 0.525,-2.025 2.138,-3.281 1.613,-1.256 3.675,-1.256 h 14.625 q 2.063,0 3.675,1.256 1.613,1.256 2.138,3.281 l 3.15,12.6 q 0.075,0.338 0.131,0.694 0.056,0.356 0.056,0.694 0,2.288 -1.631,3.881 -1.631,1.594 -3.919,1.594 -1.575,0 -2.925,-0.825 -1.35,-0.825 -2.025,-2.25 l -1.05,-2.175 q -0.188,-0.375 -0.563,-0.563 -0.375,-0.187 -0.788,-0.187 h -7.125 q -0.413,0 -0.788,0.187 -0.375,0.188 -0.563,0.563 l -1.05,2.175 q -0.675,1.425 -2.025,2.25 -1.35,0.825 -2.925,0.825 z m 0.104,-2.5 q 0.846,0 1.556,-0.449 0.71,-0.449 1.077,-1.213 l 1.05,-2.138 q 0.513,-1.038 1.463,-1.619 0.95,-0.581 2.1,-0.581 h 7.125 q 1.15,0 2.1,0.6 0.95,0.6 1.5,1.6 l 1.05,2.138 q 0.367,0.764 1.077,1.213 0.711,0.449 1.554,0.449 1.244,0 2.144,-0.844 0.9,-0.844 0.938,-2.094 0,-0.087 -0.1,-0.837 l -3.15,-12.563 q -0.288,-1.162 -1.21,-1.913 -0.923,-0.75 -2.153,-0.75 H 40.688 q -1.218,0 -2.153,0.737 -0.935,0.738 -1.21,1.925 l -3.15,12.563 q -0.05,0.175 -0.1,0.8 0,1.262 0.913,2.119 0.912,0.856 2.204,0.856 z M 50.255,52.25 q 0.533,0 0.889,-0.36 0.356,-0.361 0.356,-0.894 0,-0.533 -0.36,-0.889 -0.361,-0.356 -0.894,-0.356 -0.533,0 -0.889,0.36 -0.356,0.361 -0.356,0.894 0,0.533 0.36,0.889 0.361,0.356 0.894,0.356 z m 3,-3 q 0.533,0 0.889,-0.36 0.356,-0.361 0.356,-0.894 0,-0.533 -0.36,-0.889 -0.361,-0.356 -0.894,-0.356 -0.533,0 -0.889,0.36 -0.356,0.361 -0.356,0.894 0,0.533 0.36,0.889 0.361,0.356 0.894,0.356 z m 0,6 q 0.533,0 0.889,-0.36 0.356,-0.361 0.356,-0.894 0,-0.533 -0.36,-0.889 -0.361,-0.356 -0.894,-0.356 -0.533,0 -0.889,0.36 -0.356,0.361 -0.356,0.894 0,0.533 0.36,0.889 0.361,0.356 0.894,0.356 z m 3,-3 q 0.533,0 0.889,-0.36 0.356,-0.361 0.356,-0.894 0,-0.533 -0.36,-0.889 -0.361,-0.356 -0.894,-0.356 -0.533,0 -0.889,0.36 -0.356,0.361 -0.356,0.894 0,0.533 0.36,0.889 0.361,0.356 0.894,0.356 z m -13.502,2.375 q 0.435,0 0.716,-0.284 0.281,-0.283 0.281,-0.717 v -1.625 h 1.625 q 0.433,0 0.717,-0.284 0.284,-0.284 0.284,-0.719 0,-0.435 -0.284,-0.716 -0.283,-0.281 -0.717,-0.281 h -1.625 v -1.625 q 0,-0.434 -0.284,-0.717 -0.284,-0.284 -0.719,-0.284 -0.435,0 -0.716,0.284 -0.281,0.283 -0.281,0.717 v 1.625 h -1.625 q -0.434,0 -0.717,0.284 -0.284,0.284 -0.284,0.719 0,0.435 0.284,0.716 0.283,0.281 0.717,0.281 h 1.625 v 1.625 q 0,0.434 0.284,0.717 0.284,0.284 0.719,0.284 z m 5.247,-0.625 z" />
  </defs>
  <use href="#folder-back" class="ColorScheme-Accent" fill="currentColor" />
  <use href="#folder-back" class="ColorScheme-Background" fill="currentColor" opacity="0.3" />
  <path
    d="M 14,80 q -2.4,0 -4.2,-1.85 -1.8,-1.85 -1.8,-4.15 v -40 q 0,-2.3 1.8,-4.15 1.8,-1.85 4.2,-1.85 h 28.1 l 6,-6 h 33.9 q 2.3,0 4.15,1.85 1.85,1.85 1.85,4.15 v 46 q 0,2.3 -1.85,4.15 -1.85,1.85 -4.15,1.85 z"
    class="ColorScheme-Accent" fill="currentColor" />
  <use href="#icon" class="ColorScheme-Background" fill="currentColor" opacity="0.8" />
  <path
    d="M 14,80 Q 11.6,80 9.8,78.15 8,76.3 8,74 V 22 Q 8,19.7 9.8,17.85 11.6,16 14,16 h 28.1 l 6,6 H 82 q 2.3,0 4.15,1.85 Q 88,25.7 88,28 v 46 q 0,2.3 -1.85,4.15 Q 84.3,80 82,80 Z"
    fill="url(#lg1)" />
</svg>