<svg viewBox="0 0 96 96" xmlns="http://www.w3.org/2000/svg">
  <defs>
    <style type="text/css" id="current-color-scheme">
      .ColorScheme-Accent {
        color: #95ccff;
      }

      .ColorScheme-Background {
        color: #1e2022;
      }
    </style>
    <path id="folder-back" d="M 8,80 V 16 h 34.1 l 6,6 H 88 v 58 z" />
  </defs>
  <use href="#folder-back" class="ColorScheme-Accent" fill="currentColor" />
  <use href="#folder-back" class="ColorScheme-Background" fill="currentColor" opacity="0.3" />
  <path d="M 8,80 V 28 h 34.1 l 6,-6 H 88 v 58 z" class="ColorScheme-Accent" fill="currentColor" />
  <path
    d="M 48,68 Q 42.128,68 38.064,66.192 34,64.383 34,61.778 V 46.222 Q 34,43.656 38.103,41.828 42.206,40 48,40 53.794,40 57.897,41.828 62,43.656 62,46.222 v 15.556 q 0,2.606 -4.064,4.414 Q 53.872,68 48,68 Z m 0,-18.628 q 3.461,0 6.961,-0.992 3.5,-0.992 3.928,-2.119 -0.428,-1.128 -3.908,-2.139 -3.481,-1.011 -6.981,-1.011 -3.539,0 -6.942,0.992 -3.403,0.992 -3.947,2.158 0.544,1.167 3.947,2.139 3.403,0.972 6.942,0.972 z m 0,7.739 q 1.633,0 3.15,-0.156 1.517,-0.156 2.897,-0.447 1.381,-0.292 2.606,-0.719 1.225,-0.428 2.236,-0.972 v -4.667 q -1.011,0.544 -2.236,0.972 -1.225,0.428 -2.606,0.719 -1.381,0.292 -2.897,0.447 -1.517,0.156 -3.15,0.156 -1.633,0 -3.189,-0.156 -1.556,-0.156 -2.936,-0.447 -1.381,-0.292 -2.586,-0.719 -1.206,-0.428 -2.178,-0.972 v 4.667 q 0.972,0.544 2.178,0.972 1.206,0.428 2.586,0.719 1.381,0.292 2.936,0.447 1.556,0.156 3.189,0.156 z m 0,7.778 q 1.789,0 3.636,-0.272 1.847,-0.272 3.403,-0.719 1.556,-0.447 2.606,-1.011 1.05,-0.564 1.244,-1.147 v -3.811 q -1.011,0.544 -2.236,0.972 -1.225,0.428 -2.606,0.719 -1.381,0.292 -2.897,0.447 -1.517,0.156 -3.15,0.156 -1.633,0 -3.189,-0.156 -1.556,-0.156 -2.936,-0.447 -1.381,-0.292 -2.586,-0.719 -1.206,-0.428 -2.178,-0.972 v 3.85 q 0.194,0.583 1.225,1.128 1.031,0.544 2.586,0.992 1.556,0.447 3.422,0.719 1.867,0.272 3.656,0.272 z"
    class="ColorScheme-Background" fill="currentColor" />
</svg>