<svg viewBox="0 0 96 96" xmlns="http://www.w3.org/2000/svg">
   <defs>
      <style type="text/css" id="current-color-scheme">
         .ColorScheme-Accent {
            color: #95ccff;
         }

         .ColorScheme-Background {
            color: #1e2022;
         }
      </style>
      <path id="folder-back" d="M 8,80 V 16 h 34.1 l 6,6 H 88 v 58 z" />
   </defs>
   <use href="#folder-back" class="ColorScheme-Accent" fill="currentColor" />
   <use href="#folder-back" class="ColorScheme-Background" fill="currentColor" opacity="0.3" />
   <path d="M 8,80 V 28 h 34.1 l 6,-6 H 88 v 58 z" class="ColorScheme-Accent" fill="currentColor" />
   <path
      d="m 54.8,28 v -6 h 9.2 v 6 z m 9.2,0 v 9.2 h 9.2 v -9.2 z m -9.2,9.2 v 9.2 h 9.2 v -9.2 z m 9.2,9.2 v 9.2 h 9.2 v -9.2 z m -9.2,9.2 v 9.2 h 9.2 v -9.2 z m 9.2,9.2 v 9.2 h 9.2 v -9.2 z m -9.2,9.2 v 6 h 9.2 v -6 z"
      class="ColorScheme-Background" fill="currentColor" />
   <path
      d="M 20.733,68 V 49.333 h 4 v -2.667 q 0,-2.767 1.95,-4.717 1.95,-1.95 4.717,-1.95 2.767,0 4.717,1.95 1.95,1.95 1.95,4.717 v 2.667 h 4 V 68 Z M 23.4,65.333 H 39.4 V 52 H 23.4 Z m 8,-4 q 1.1,0 1.883,-0.783 0.783,-0.783 0.783,-1.883 0,-1.1 -0.783,-1.883 Q 32.5,56 31.4,56 q -1.1,0 -1.883,0.783 -0.783,0.783 -0.783,1.883 0,1.1 0.783,1.883 0.783,0.783 1.883,0.783 z m -4,-12 h 8 v -2.667 q 0,-1.667 -1.167,-2.833 -1.167,-1.167 -2.833,-1.167 -1.667,0 -2.833,1.167 Q 27.4,45 27.4,46.667 Z m -4,16 V 52 Z"
      class="ColorScheme-Background" fill="currentColor" />
</svg>