<svg height="96" width="96" version="1.1" xmlns="http://www.w3.org/2000/svg" xmlns:svg="http://www.w3.org/2000/svg">
  <defs>
    <style type="text/css" id="current-color-scheme">
      .ColorScheme-Accent {
        color: #95ccff;
      }

      .ColorScheme-Background {
        color: #28292d;
      }
    </style>
    <linearGradient id="lg1" x1="48" y1="80" x2="48" y2="16" gradientUnits="userSpaceOnUse">
      <stop stop-opacity="0.15" offset="0" />
      <stop stop-opacity="0" offset="1" />
    </linearGradient>
    <path id="folder-back" d="M 8,34 v -12 q 0,-2.3 1.8,-4.15 1.8,-1.85 4.2,-1.85 h 28.1 l 6,6 v 12 z" />
    <path id="icon"
      d="m 48,67.5 q -5.663,0 -9.581,-1.744 Q 34.5,64.013 34.5,61.5 V 46.5 q 0,-2.475 3.956,-4.237 Q 42.413,40.5 48,40.5 q 5.588,0 9.544,1.763 Q 61.5,44.025 61.5,46.5 v 15 q 0,2.513 -3.919,4.256 -3.919,1.744 -9.581,1.744 z m 0,-18.188 q 3.263,0 6.65,-0.981 3.388,-0.981 4.175,-2.169 -0.813,-1.162 -4.194,-2.163 -3.381,-1 -6.631,-1 -3.338,0 -6.656,0.969 -3.319,0.969 -4.194,2.194 0.875,1.25 4.169,2.2 3.294,0.95 6.681,0.95 z m -0.025,7.838 q 1.575,0 3.113,-0.162 1.538,-0.163 2.944,-0.482 1.406,-0.319 2.675,-0.781 1.269,-0.462 2.294,-1.038 v -5.375 q -1.05,0.575 -2.319,1.038 -1.269,0.462 -2.688,0.781 -1.419,0.319 -2.931,0.494 -1.513,0.175 -3.088,0.175 -1.575,0 -3.125,-0.175 -1.55,-0.175 -2.956,-0.494 -1.406,-0.319 -2.657,-0.781 -1.25,-0.463 -2.237,-1.038 v 5.375 q 0.987,0.575 2.225,1.038 1.238,0.462 2.644,0.781 1.406,0.319 2.956,0.482 1.55,0.162 3.15,0.162 z m 0.025,7.85 q 1.775,0 3.644,-0.3 1.869,-0.3 3.431,-0.794 1.562,-0.494 2.637,-1.1 1.075,-0.606 1.287,-1.244 v -4.35 q -1.025,0.575 -2.294,1.025 -1.269,0.45 -2.675,0.769 -1.406,0.319 -2.931,0.481 -1.525,0.163 -3.125,0.163 -1.6,0 -3.15,-0.163 -1.55,-0.162 -2.956,-0.481 -1.406,-0.319 -2.644,-0.769 -1.238,-0.45 -2.225,-1.025 v 4.388 q 0.188,0.612 1.244,1.225 1.056,0.613 2.631,1.094 1.575,0.481 3.45,0.781 1.875,0.3 3.675,0.3 z" />
  </defs>
  <use href="#folder-back" class="ColorScheme-Accent" fill="currentColor" />
  <use href="#folder-back" class="ColorScheme-Background" fill="currentColor" opacity="0.3" />
  <path
    d="M 14,80 q -2.4,0 -4.2,-1.85 -1.8,-1.85 -1.8,-4.15 v -40 q 0,-2.3 1.8,-4.15 1.8,-1.85 4.2,-1.85 h 28.1 l 6,-6 h 33.9 q 2.3,0 4.15,1.85 1.85,1.85 1.85,4.15 v 46 q 0,2.3 -1.85,4.15 -1.85,1.85 -4.15,1.85 z"
    class="ColorScheme-Accent" fill="currentColor" />
  <use href="#icon" class="ColorScheme-Background" fill="currentColor" opacity="0.8" />
  <path
    d="M 14,80 Q 11.6,80 9.8,78.15 8,76.3 8,74 V 22 Q 8,19.7 9.8,17.85 11.6,16 14,16 h 28.1 l 6,6 H 82 q 2.3,0 4.15,1.85 Q 88,25.7 88,28 v 46 q 0,2.3 -1.85,4.15 Q 84.3,80 82,80 Z"
    fill="url(#lg1)" />
</svg>