<svg height="96" width="96" version="1.1" xmlns="http://www.w3.org/2000/svg" xmlns:svg="http://www.w3.org/2000/svg">
  <defs>
    <style type="text/css" id="current-color-scheme">
      .ColorScheme-Accent {
        color: #95ccff;
      }

      .ColorScheme-Background {
        color: #28292d;
      }
    </style>
    <linearGradient id="lg1" x1="48" y1="80" x2="48" y2="16" gradientUnits="userSpaceOnUse">
      <stop stop-opacity="0.15" offset="0" />
      <stop stop-opacity="0" offset="1" />
    </linearGradient>
    <path id="folder-back" d="M 8,34 v -12 q 0,-2.3 1.8,-4.15 1.8,-1.85 4.2,-1.85 h 28.1 l 6,6 v 12 z" />
    <path id="icon"
      d="m 41.85,63.3 h 2 v -3.2 h 3.2 v -2 h -3.2 v -3.2 h -2 v 3.2 h -3.2 v 2 h 3.2 z m 7.875,-1.25 h 7.525 v -1.975 h -7.525 z m 0,-3.925 h 7.525 v -2 h -7.525 z m 1.475,-5.975 2.225,-2.225 2.225,2.225 1.425,-1.425 -2.225,-2.25 2.225,-2.225 -1.425,-1.425 -2.225,2.225 -2.225,-2.225 -1.425,1.425 2.225,2.225 -2.225,2.25 z M 39.15,49.475 h 7.4 V 47.475 H 39.15 Z m -2.15,18.025 q -1.013,0 -1.757,-0.744 Q 34.5,66.012 34.5,65 V 43 q 0,-1.013 0.744,-1.757 Q 35.988,40.5 37,40.5 h 22 q 1.013,0 1.757,0.744 0.744,0.744 0.744,1.757 v 22 q 0,1.013 -0.744,1.757 -0.744,0.744 -1.757,0.744 z m 0,-2.5 H 59 V 43 H 37 Z m 0,-22 v 22 z" />
  </defs>
  <use href="#folder-back" class="ColorScheme-Accent" fill="currentColor" />
  <use href="#folder-back" class="ColorScheme-Background" fill="currentColor" opacity="0.3" />
  <path
    d="M 14,80 q -2.4,0 -4.2,-1.85 -1.8,-1.85 -1.8,-4.15 v -40 q 0,-2.3 1.8,-4.15 1.8,-1.85 4.2,-1.85 h 28.1 l 6,-6 h 33.9 q 2.3,0 4.15,1.85 1.85,1.85 1.85,4.15 v 46 q 0,2.3 -1.85,4.15 -1.85,1.85 -4.15,1.85 z"
    class="ColorScheme-Accent" fill="currentColor" />
  <use href="#icon" class="ColorScheme-Background" fill="currentColor" opacity="0.8" />
  <path
    d="M 14,80 Q 11.6,80 9.8,78.15 8,76.3 8,74 V 22 Q 8,19.7 9.8,17.85 11.6,16 14,16 h 28.1 l 6,6 H 82 q 2.3,0 4.15,1.85 Q 88,25.7 88,28 v 46 q 0,2.3 -1.85,4.15 Q 84.3,80 82,80 Z"
    fill="url(#lg1)" />
</svg>