<svg viewBox="0 0 96 96" xmlns="http://www.w3.org/2000/svg">
  <defs>
    <style type="text/css" id="current-color-scheme">
      .ColorScheme-Accent {
        color: #95ccff;
      }

      .ColorScheme-Background {
        color: #1e2022;
      }
    </style>
    <path id="folder-back" d="M 8,80 V 16 h 34.1 l 6,6 H 88 v 58 z" />
  </defs>
  <use href="#folder-back" class="ColorScheme-Accent" fill="currentColor" />
  <use href="#folder-back" class="ColorScheme-Background" fill="currentColor" opacity="0.3" />
  <path d="M 8,80 V 28 h 34.1 l 6,-6 H 88 v 58 z" class="ColorScheme-Accent" fill="currentColor" />
  <path
    d="M 40.125,67.5 39.75,64.2 44.025,52.425 q 0.563,0.525 1.219,0.881 Q 45.9,53.663 46.65,53.85 l -4.125,11.325 z m 15.75,0 -2.4,-2.325 L 49.35,53.85 Q 50.1,53.663 50.756,53.306 51.413,52.95 51.975,52.425 L 56.25,64.2 Z M 48,52.5 q -1.875,0 -3.188,-1.313 Q 43.5,49.875 43.5,48 43.5,46.538 44.344,45.394 45.188,44.25 46.5,43.8 v -3.3 h 3 v 3.3 q 1.313,0.45 2.156,1.594 Q 52.5,46.538 52.5,48 q 0,1.875 -1.313,3.188 Q 49.875,52.5 48,52.5 Z m 0,-3 q 0.638,0 1.069,-0.431 Q 49.5,48.638 49.5,48 49.5,47.363 49.069,46.931 48.638,46.5 48,46.5 47.363,46.5 46.931,46.931 46.5,47.363 46.5,48 q 0,0.638 0.431,1.069 Q 47.363,49.5 48,49.5 Z"
    class="ColorScheme-Background" fill="currentColor" />
</svg>