<svg height="96" width="96" version="1.1" xmlns="http://www.w3.org/2000/svg" xmlns:svg="http://www.w3.org/2000/svg">
  <defs>
    <style type="text/css" id="current-color-scheme">
      .ColorScheme-Accent {
        color: #95ccff;
      }

      .ColorScheme-Background {
        color: #28292d;
      }
    </style>
    <linearGradient id="lg1" x1="48" y1="80" x2="48" y2="16" gradientUnits="userSpaceOnUse">
      <stop stop-opacity="0.15" offset="0" />
      <stop stop-opacity="0" offset="1" />
    </linearGradient>
    <path id="folder-back" d="M 8,34 v -12 q 0,-2.3 1.8,-4.15 1.8,-1.85 4.2,-1.85 h 28.1 l 6,6 v 12 z" />
    <path id="icon"
      d="m 48,53.975 q -2.475,0 -4.113,-1.637 -1.637,-1.638 -1.637,-4.113 0,-2.475 1.637,-4.113 1.638,-1.637 4.113,-1.637 2.475,0 4.113,1.637 1.637,1.638 1.637,4.113 0,2.475 -1.637,4.113 -1.638,1.637 -4.113,1.637 z M 36,66 v -3.75 q 0,-1.375 0.694,-2.406 0.694,-1.031 1.806,-1.569 2.45,-1.137 4.787,-1.706 2.338,-0.569 4.713,-0.569 2.375,0 4.7,0.581 2.325,0.581 4.773,1.699 1.145,0.541 1.836,1.568 0.691,1.027 0.691,2.402 v 3.75 z m 2.5,-2.5 h 19 v -1.25 q 0,-0.537 -0.306,-1.013 -0.306,-0.475 -0.769,-0.713 -2.275,-1.113 -4.288,-1.569 -2.012,-0.456 -4.137,-0.456 -2.125,0 -4.163,0.456 -2.037,0.456 -4.287,1.569 -0.463,0.237 -0.756,0.713 -0.294,0.475 -0.294,1.013 z m 9.5,-12.025 q 1.388,0 2.319,-0.932 0.932,-0.931 0.932,-2.319 0,-1.388 -0.932,-2.319 -0.931,-0.932 -2.319,-0.932 -1.388,0 -2.319,0.932 -0.932,0.931 -0.932,2.319 0,1.388 0.932,2.319 0.931,0.932 2.319,0.932 z m 0,-3.25 z m 0,15.275 z" />
  </defs>
  <use href="#folder-back" class="ColorScheme-Accent" fill="currentColor" />
  <use href="#folder-back" class="ColorScheme-Background" fill="currentColor" opacity="0.3" />
  <path
    d="M 14,80 q -2.4,0 -4.2,-1.85 -1.8,-1.85 -1.8,-4.15 v -40 q 0,-2.3 1.8,-4.15 1.8,-1.85 4.2,-1.85 h 28.1 l 6,-6 h 33.9 q 2.3,0 4.15,1.85 1.85,1.85 1.85,4.15 v 46 q 0,2.3 -1.85,4.15 -1.85,1.85 -4.15,1.85 z"
    class="ColorScheme-Accent" fill="currentColor" />
  <use href="#icon" class="ColorScheme-Background" fill="currentColor" opacity="0.8" />
  <path
    d="M 14,80 Q 11.6,80 9.8,78.15 8,76.3 8,74 V 22 Q 8,19.7 9.8,17.85 11.6,16 14,16 h 28.1 l 6,6 H 82 q 2.3,0 4.15,1.85 Q 88,25.7 88,28 v 46 q 0,2.3 -1.85,4.15 Q 84.3,80 82,80 Z"
    fill="url(#lg1)" />
</svg>