<svg viewBox="0 0 96 96" xmlns="http://www.w3.org/2000/svg">
  <defs>
    <style type="text/css" id="current-color-scheme">
      .ColorScheme-Accent {
        color: #95ccff;
      }

      .ColorScheme-Background {
        color: #1e2022;
      }
    </style>
    <path id="folder-back" d="M 8,80 V 16 h 34.1 l 6,6 H 88 v 58 z" />
  </defs>
  <use href="#folder-back" class="ColorScheme-Accent" fill="currentColor" />
  <use href="#folder-back" class="ColorScheme-Background" fill="currentColor" opacity="0.3" />
  <path d="M 8,80 V 28 h 34.1 l 6,-6 H 88 v 58 z" class="ColorScheme-Accent" fill="currentColor" />
  <path
    d="M 35.414,67.293 V 61.283 L 56.061,40.707 62,46.646 41.424,67.293 Z m 2.828,-2.828 h 1.98 L 54.116,50.606 53.126,49.581 52.101,48.591 38.242,62.485 Z m 19.798,-17.783 -2.015,-2.015 z m -4.914,2.899 -1.025,-0.99 2.015,2.015 z m 3.5,12.763 q 0,-1.273 -0.672,-2.192 -0.672,-0.919 -1.803,-1.591 l -2.086,2.086 Q 52.879,61 53.338,61.424 q 0.46,0.424 0.46,0.919 0,0.813 -1.467,1.467 -1.467,0.654 -4.189,0.654 v 2.828 q 3.677,0 6.081,-1.308 2.404,-1.308 2.404,-3.641 z m -20.399,-5.869 2.121,-2.121 q -0.742,-0.283 -1.131,-0.601 -0.389,-0.318 -0.389,-0.601 0,-0.424 0.654,-0.866 0.654,-0.442 2.669,-1.29 2.864,-1.237 4.013,-2.316 1.149,-1.078 1.149,-2.598 0,-2.015 -1.396,-3.129 -1.396,-1.114 -3.907,-1.114 -1.556,0 -3.129,0.778 -1.573,0.778 -2.705,2.051 l 1.944,1.874 q 0.884,-0.884 1.927,-1.379 1.043,-0.495 1.962,-0.495 1.202,0 1.838,0.354 0.636,0.354 0.636,1.061 0,0.495 -0.583,0.902 -0.583,0.407 -2.881,1.432 -2.899,1.343 -3.96,2.333 Q 34,51.737 34,53.152 q 0,1.025 0.548,1.856 0.548,0.831 1.679,1.467 z"
    class="ColorScheme-Background" fill="currentColor" />
</svg>