<svg height="96" width="96" version="1.1" xmlns="http://www.w3.org/2000/svg" xmlns:svg="http://www.w3.org/2000/svg">
  <defs>
    <style type="text/css" id="current-color-scheme">
      .ColorScheme-Accent {
        color: #95ccff;
      }

      .ColorScheme-Background {
        color: #28292d;
      }
    </style>
    <linearGradient id="lg1" x1="48" y1="80" x2="48" y2="16" gradientUnits="userSpaceOnUse">
      <stop stop-opacity="0.15" offset="0" />
      <stop stop-opacity="0" offset="1" />
    </linearGradient>
    <path id="folder-back" d="M 8,34 v -12 q 0,-2.3 1.8,-4.15 1.8,-1.85 4.2,-1.85 h 28.1 l 6,6 v 12 z" />
    <path id="icon"
      d="m 41,69 q -2.071,0 -3.536,-1.464 Q 36,66.071 36,64 V 44 q 0,-2.071 1.464,-3.536 1.464,-1.464 3.536,-1.464 h 19 v 22.5 q -0.963,0 -1.606,0.744 -0.644,0.744 -0.644,1.757 0,1.013 0.644,1.756 0.644,0.744 1.606,0.744 v 2.5 z m -2.5,-9.338 q 0.55,-0.338 1.175,-0.5 0.625,-0.163 1.325,-0.163 H 42 V 41.5 h -1 q -1.041,0 -1.771,0.729 -0.729,0.729 -0.729,1.771 z m 6,-0.663 H 57.5 V 41.5 H 44.5 Z m -6,0.663 V 41.5 Z m 2.489,6.837 h 14.899 q -0.3,-0.55 -0.469,-1.181 -0.169,-0.631 -0.169,-1.319 0,-0.7 0.163,-1.325 0.162,-0.625 0.5,-1.175 H 40.99 q -1.04,0 -1.765,0.729 -0.725,0.729 -0.725,1.771 0,1.05 0.725,1.775 0.725,0.725 1.764,0.725 z" />
  </defs>
  <use href="#folder-back" class="ColorScheme-Accent" fill="currentColor" />
  <use href="#folder-back" class="ColorScheme-Background" fill="currentColor" opacity="0.3" />
  <path
    d="M 14,80 q -2.4,0 -4.2,-1.85 -1.8,-1.85 -1.8,-4.15 v -40 q 0,-2.3 1.8,-4.15 1.8,-1.85 4.2,-1.85 h 28.1 l 6,-6 h 33.9 q 2.3,0 4.15,1.85 1.85,1.85 1.85,4.15 v 46 q 0,2.3 -1.85,4.15 -1.85,1.85 -4.15,1.85 z"
    class="ColorScheme-Accent" fill="currentColor" />
  <use href="#icon" class="ColorScheme-Background" fill="currentColor" opacity="0.8" />
  <path
    d="M 14,80 Q 11.6,80 9.8,78.15 8,76.3 8,74 V 22 Q 8,19.7 9.8,17.85 11.6,16 14,16 h 28.1 l 6,6 H 82 q 2.3,0 4.15,1.85 Q 88,25.7 88,28 v 46 q 0,2.3 -1.85,4.15 Q 84.3,80 82,80 Z"
    fill="url(#lg1)" />
</svg>