<svg viewBox="0 0 96 96" xmlns="http://www.w3.org/2000/svg">
  <defs>
    <style type="text/css" id="current-color-scheme">
      .ColorScheme-Accent {
        color: #95ccff;
      }

      .ColorScheme-Background {
        color: #1e2022;
      }
    </style>
    <path id="folder-back" d="M 8,80 V 16 h 34.1 l 6,6 H 88 v 58 z" />
  </defs>
  <use href="#folder-back" class="ColorScheme-Accent" fill="currentColor" />
  <use href="#folder-back" class="ColorScheme-Background" fill="currentColor" opacity="0.3" />
  <path d="M 8,80 V 28 h 34.1 l 6,-6 H 88 v 58 z" class="ColorScheme-Accent" fill="currentColor" />
  <path
    d="m 42,63 h 2.25 v -3 h 3 v -2.25 h -3 v -3 H 42 v 3 H 39 V 60 h 3 z m 7.5,-1.125 H 57 v -2.25 h -7.5 z m 0,-3.75 H 57 v -2.25 h -7.5 z m 1.65,-5.7 2.1,-2.1 2.1,2.1 1.575,-1.575 -2.1,-2.175 2.1,-2.1 L 55.35,45 l -2.1,2.1 -2.1,-2.1 -1.575,1.575 2.1,2.1 -2.1,2.175 z M 39.375,49.8 h 7.5 v -2.25 h -7.5 z M 34.5,67.5 v -27 h 27 v 27 z m 3,-3 h 21 v -21 h -21 z m 0,0 v -21 z"
    class="ColorScheme-Background" fill="currentColor" />
</svg>