<svg height="96" width="96" version="1.1" xmlns="http://www.w3.org/2000/svg" xmlns:svg="http://www.w3.org/2000/svg">
  <defs>
    <style type="text/css" id="current-color-scheme">
      .ColorScheme-Accent {
        color: #95ccff;
      }

      .ColorScheme-Background {
        color: #28292d;
      }
    </style>
    <linearGradient id="lg1" x1="48" y1="80" x2="48" y2="16" gradientUnits="userSpaceOnUse">
      <stop stop-opacity="0.15" offset="0" />
      <stop stop-opacity="0" offset="1" />
    </linearGradient>
    <path id="folder-back" d="M 8,34 v -12 q 0,-2.3 1.8,-4.15 1.8,-1.85 4.2,-1.85 h 28.1 l 6,6 v 12 z" />
    <path id="icon"
      d="M 36,67.5 V 62.175 L 56.862,41.325 Q 57.288,40.9 57.762,40.7 58.238,40.5 58.75,40.5 q 0.5,0 0.969,0.2 0.469,0.2 0.881,0.625 l 1.575,1.575 q 0.425,0.387 0.625,0.856 0.2,0.469 0.2,0.994 0,0.488 -0.2,0.975 -0.2,0.488 -0.625,0.913 L 41.325,67.5 Z m 2.5,-2.5 h 1.8 l 16.062,-16.05 -0.9,-0.912 -0.912,-0.9 -16.05,16.062 z M 60.525,44.787 58.713,42.975 Z m -5.063,3.25 -0.912,-0.9 1.812,1.812 z m -4.463,19.463 q 2.875,0 5.187,-1.375 2.313,-1.375 2.313,-3.875 0,-1.45 -0.975,-2.613 -0.975,-1.163 -2.95,-1.875 l -1.913,1.913 q 1.538,0.425 2.438,1.125 0.9,0.7 0.9,1.45 0,1.088 -1.469,1.919 -1.469,0.831 -3.531,0.831 -0.513,0 -0.881,0.356 -0.369,0.356 -0.369,0.894 0,0.512 0.369,0.881 0.369,0.369 0.881,0.369 z M 38.288,56.325 l 1.95,-1.95 q -1.6,-0.425 -2.419,-0.894 -0.819,-0.469 -0.819,-0.981 0,-0.55 0.762,-1.062 0.762,-0.513 3.162,-1.45 3.175,-1.25 4.25,-2.35 1.075,-1.1 1.075,-2.612 0,-2.088 -1.575,-3.306 Q 43.1,40.5 40.5,40.5 q -1.613,0 -2.906,0.563 -1.294,0.563 -1.956,1.4 -0.338,0.388 -0.3,0.888 0.038,0.5 0.475,0.825 0.413,0.338 0.925,0.275 0.512,-0.062 0.85,-0.4 0.55,-0.55 1.238,-0.8 0.688,-0.25 1.675,-0.25 1.662,0 2.456,0.6 0.794,0.6 0.794,1.425 0,0.675 -0.694,1.194 -0.694,0.519 -3.131,1.481 -3.35,1.287 -4.388,2.344 Q 34.5,51.1 34.5,52.5 q 0,1.2 0.912,2.231 0.913,1.031 2.875,1.594 z" />
  </defs>
  <use href="#folder-back" class="ColorScheme-Accent" fill="currentColor" />
  <use href="#folder-back" class="ColorScheme-Background" fill="currentColor" opacity="0.3" />
  <path
    d="M 14,80 q -2.4,0 -4.2,-1.85 -1.8,-1.85 -1.8,-4.15 v -40 q 0,-2.3 1.8,-4.15 1.8,-1.85 4.2,-1.85 h 28.1 l 6,-6 h 33.9 q 2.3,0 4.15,1.85 1.85,1.85 1.85,4.15 v 46 q 0,2.3 -1.85,4.15 -1.85,1.85 -4.15,1.85 z"
    class="ColorScheme-Accent" fill="currentColor" />
  <use href="#icon" class="ColorScheme-Background" fill="currentColor" opacity="0.8" />
  <path
    d="M 14,80 Q 11.6,80 9.8,78.15 8,76.3 8,74 V 22 Q 8,19.7 9.8,17.85 11.6,16 14,16 h 28.1 l 6,6 H 82 q 2.3,0 4.15,1.85 Q 88,25.7 88,28 v 46 q 0,2.3 -1.85,4.15 Q 84.3,80 82,80 Z"
    fill="url(#lg1)" />
</svg>