<svg viewBox="0 0 96 96" xmlns="http://www.w3.org/2000/svg">
  <defs>
    <style type="text/css" id="current-color-scheme">
      .ColorScheme-Accent {
        color: #95ccff;
      }

      .ColorScheme-Background {
        color: #1e2022;
      }
    </style>
    <path id="folder-back" d="M 8,80 V 16 h 34.1 l 6,6 H 88 v 58 z" />
  </defs>
  <use href="#folder-back" class="ColorScheme-Accent" fill="currentColor" />
  <use href="#folder-back" class="ColorScheme-Background" fill="currentColor" opacity="0.3" />
  <path d="M 8,80 V 28 h 34.1 l 6,-6 H 88 v 58 z" class="ColorScheme-Accent" fill="currentColor" />
  <path
    d="m 34,61 v -1.838 q 0,-1.254 1.283,-2.042 1.283,-0.788 3.383,-0.788 0.379,0 0.729,0.015 0.35,0.015 0.671,0.073 -0.408,0.613 -0.613,1.283 -0.204,0.671 -0.204,1.4 v 1.896 z m 7,0 v -1.896 q 0,-0.933 0.51,-1.706 0.51,-0.773 1.444,-1.356 0.933,-0.583 2.231,-0.875 Q 46.483,54.875 48,54.875 q 1.546,0 2.844,0.292 1.298,0.292 2.231,0.875 0.933,0.583 1.429,1.356 0.496,0.773 0.496,1.706 V 61 Z m 15.75,0 v -1.896 q 0,-0.758 -0.19,-1.429 -0.19,-0.671 -0.569,-1.254 0.321,-0.058 0.656,-0.073 0.335,-0.015 0.685,-0.015 2.1,0 3.383,0.773 Q 62,57.879 62,59.163 V 61 Z M 43.479,58.667 h 9.071 q -0.292,-0.583 -1.619,-1.021 -1.327,-0.438 -2.931,-0.438 -1.604,0 -2.931,0.438 -1.327,0.438 -1.59,1.021 z m -4.813,-3.5 q -0.963,0 -1.648,-0.685 -0.685,-0.685 -0.685,-1.648 0,-0.992 0.685,-1.663 0.685,-0.671 1.648,-0.671 0.992,0 1.663,0.671 Q 41,51.842 41,52.833 q 0,0.963 -0.671,1.648 -0.671,0.685 -1.663,0.685 z m 18.667,0 q -0.963,0 -1.648,-0.685 -0.685,-0.685 -0.685,-1.648 0,-0.992 0.685,-1.663 0.685,-0.671 1.648,-0.671 0.992,0 1.663,0.671 0.671,0.671 0.671,1.663 0,0.963 -0.671,1.648 -0.671,0.685 -1.663,0.685 z M 48,54 Q 46.542,54 45.521,52.979 44.5,51.958 44.5,50.5 q 0,-1.488 1.021,-2.494 1.021,-1.006 2.479,-1.006 1.488,0 2.494,1.006 1.006,1.006 1.006,2.494 0,1.458 -1.006,2.479 Q 49.488,54 48,54 Z m 0,-2.333 q 0.496,0 0.831,-0.335 0.335,-0.335 0.335,-0.831 0,-0.496 -0.335,-0.831 -0.335,-0.335 -0.831,-0.335 -0.496,0 -0.831,0.335 -0.335,0.335 -0.335,0.831 0,0.496 0.335,0.831 0.335,0.335 0.831,0.335 z m 0.029,7 z m -0.029,-8.167 z"
    class="ColorScheme-Background" fill="currentColor" />
</svg>