<svg viewBox="0 0 96 96" xmlns="http://www.w3.org/2000/svg">
  <defs>
    <style type="text/css" id="current-color-scheme">
      .ColorScheme-Accent {
        color: #95ccff;
      }

      .ColorScheme-Background {
        color: #1e2022;
      }
    </style>
    <path id="folder-back" d="M 8,80 V 16 h 34.1 l 6,6 H 88 v 58 z" />
  </defs>
  <use href="#folder-back" class="ColorScheme-Accent" fill="currentColor" />
  <use href="#folder-back" class="ColorScheme-Background" fill="currentColor" opacity="0.3" />
  <path d="M 8,80 V 28 h 34.1 l 6,-6 H 88 v 58 z" class="ColorScheme-Accent" fill="currentColor" />
  <path
    d="M 48,69 Q 44.925,69 42.188,67.819 39.45,66.638 37.406,64.594 35.363,62.55 34.181,59.813 33,57.075 33,54 q 0,-3.113 1.219,-5.85 1.219,-2.738 3.3,-4.763 Q 39.6,41.363 42.375,40.181 45.15,39 48.3,39 q 3,0 5.663,1.031 2.663,1.031 4.669,2.85 2.006,1.819 3.188,4.313 Q 63,49.688 63,52.575 63,56.888 60.375,59.194 57.75,61.5 54,61.5 h -2.775 q -0.338,0 -0.469,0.188 Q 50.625,61.875 50.625,62.1 q 0,0.45 0.563,1.294 Q 51.75,64.238 51.75,65.325 51.75,67.2 50.719,68.1 49.688,69 48,69 Z m 0,-15 z m -8.25,1.5 q 0.975,0 1.613,-0.638 Q 42,54.225 42,53.25 42,52.275 41.363,51.638 40.725,51 39.75,51 38.775,51 38.138,51.638 37.5,52.275 37.5,53.25 q 0,0.975 0.638,1.613 Q 38.775,55.5 39.75,55.5 Z m 4.5,-6 q 0.975,0 1.613,-0.638 Q 46.5,48.225 46.5,47.25 46.5,46.275 45.863,45.638 45.225,45 44.25,45 43.275,45 42.638,45.638 42,46.275 42,47.25 42,48.225 42.638,48.863 43.275,49.5 44.25,49.5 Z m 7.5,0 q 0.975,0 1.613,-0.638 Q 54,48.225 54,47.25 54,46.275 53.363,45.638 52.725,45 51.75,45 50.775,45 50.138,45.638 49.5,46.275 49.5,47.25 q 0,0.975 0.638,1.613 Q 50.775,49.5 51.75,49.5 Z m 4.5,6 q 0.975,0 1.613,-0.638 Q 58.5,54.225 58.5,53.25 58.5,52.275 57.863,51.638 57.225,51 56.25,51 55.275,51 54.638,51.638 54,52.275 54,53.25 54,54.225 54.638,54.863 55.275,55.5 56.25,55.5 Z M 48,66 q 0.338,0 0.544,-0.188 Q 48.75,65.625 48.75,65.325 48.75,64.8 48.188,64.088 47.625,63.375 47.625,61.95 q 0,-1.575 1.088,-2.513 Q 49.8,58.5 51.375,58.5 H 54 q 2.475,0 4.238,-1.444 Q 60,55.613 60,52.575 60,48.038 56.531,45.019 53.063,42 48.3,42 43.2,42 39.6,45.488 36,48.975 36,54 36,58.988 39.506,62.494 43.013,66 48,66 Z"
    class="ColorScheme-Background" fill="currentColor" />
</svg>