<svg viewBox="0 0 96 96" xmlns="http://www.w3.org/2000/svg">
  <defs>
    <style type="text/css" id="current-color-scheme">
      .ColorScheme-Accent {
        color: #95ccff;
      }

      .ColorScheme-Background {
        color: #1e2022;
      }
    </style>
    <path id="folder-back" d="M 8,80 V 16 h 34.1 l 6,6 H 88 v 58 z" />
  </defs>
  <use href="#folder-back" class="ColorScheme-Accent" fill="currentColor" />
  <use href="#folder-back" class="ColorScheme-Background" fill="currentColor" opacity="0.3" />
  <path d="M 8,80 V 28 h 34.1 l 6,-6 H 88 v 58 z" class="ColorScheme-Accent" fill="currentColor" />
  <path
    d="M 36,67.5 V 61.125 L 57.9,39.3 64.2,45.6 42.375,67.5 Z m 3,-3 h 2.1 L 55.838,49.8 54.788,48.713 53.7,47.663 39,62.4 Z M 60,45.638 57.863,43.5 Z M 54.788,48.713 53.7,47.663 55.838,49.8 Z M 58.5,62.25 Q 58.5,60.9 57.788,59.925 57.075,58.95 55.875,58.238 L 53.663,60.45 q 0.863,0.375 1.35,0.825 0.488,0.45 0.488,0.975 0,0.863 -1.556,1.556 Q 52.388,64.5 49.5,64.5 v 3 q 3.9,0 6.45,-1.388 Q 58.5,64.725 58.5,62.25 Z m -21.638,-6.225 2.25,-2.25 q -0.788,-0.3 -1.2,-0.638 Q 37.5,52.8 37.5,52.5 37.5,52.05 38.194,51.581 38.888,51.113 41.025,50.213 44.063,48.9 45.281,47.756 46.5,46.613 46.5,45 46.5,42.863 45.019,41.681 43.538,40.5 40.875,40.5 q -1.65,0 -3.319,0.825 Q 35.888,42.15 34.688,43.5 L 36.75,45.488 Q 37.688,44.55 38.794,44.025 39.9,43.5 40.875,43.5 q 1.275,0 1.95,0.375 Q 43.5,44.25 43.5,45 q 0,0.525 -0.619,0.956 Q 42.263,46.388 39.825,47.475 36.75,48.9 35.625,49.95 34.5,51 34.5,52.5 q 0,1.088 0.581,1.969 Q 35.663,55.35 36.863,56.025 Z"
    class="ColorScheme-Background" fill="currentColor" />
</svg>