<svg viewBox="0 0 96 96" xmlns="http://www.w3.org/2000/svg">
  <defs>
    <style type="text/css" id="current-color-scheme">
      .ColorScheme-Accent {
        color: #95ccff;
      }

      .ColorScheme-Background {
        color: #1e2022;
      }
    </style>
    <path id="folder-back" d="M 8,80 V 16 h 34.1 l 6,6 H 88 v 58 z" />
  </defs>
  <use href="#folder-back" class="ColorScheme-Accent" fill="currentColor" />
  <use href="#folder-back" class="ColorScheme-Background" fill="currentColor" opacity="0.3" />
  <path d="M 8,80 V 28 h 34.1 l 6,-6 H 88 v 58 z" class="ColorScheme-Accent" fill="currentColor" />
  <path
    d="m 41,59.059 q 1.495,0 2.911,0.334 1.416,0.334 2.816,1.002 V 47.859 q -1.305,-0.764 -2.768,-1.145 -1.464,-0.382 -2.959,-0.382 -1.145,0 -2.275,0.223 -1.13,0.223 -2.18,0.668 v 12.6 Q 37.659,59.441 38.757,59.25 39.855,59.059 41,59.059 Z m 8.273,1.336 Q 50.673,59.727 52.089,59.393 53.505,59.059 55,59.059 q 1.145,0 2.243,0.191 1.098,0.191 2.211,0.573 v -12.6 q -1.05,-0.445 -2.18,-0.668 -1.13,-0.223 -2.275,-0.223 -1.495,0 -2.959,0.382 -1.464,0.382 -2.768,1.145 z M 48,64.15 Q 46.473,62.941 44.691,62.273 42.909,61.605 41,61.605 q -1.686,0 -3.532,0.636 Q 35.623,62.877 34,64.214 V 45.759 Q 35.4,44.805 37.293,44.295 39.186,43.786 41,43.786 q 1.845,0 3.611,0.477 1.766,0.477 3.389,1.432 1.623,-0.955 3.389,-1.432 1.766,-0.477 3.611,-0.477 1.814,0 3.707,0.509 Q 60.6,44.805 62,45.759 V 64.214 Q 60.409,62.877 58.548,62.241 56.686,61.605 55,61.605 q -1.909,0 -3.691,0.668 Q 49.527,62.941 48,64.15 Z M 41.636,53.364 Z m 8.909,-2.068 v -2.164 q 1.05,-0.445 2.148,-0.668 1.098,-0.223 2.307,-0.223 0.827,0 1.623,0.127 0.795,0.127 1.559,0.318 v 2.036 q -0.764,-0.286 -1.543,-0.43 -0.78,-0.143 -1.639,-0.143 -1.209,0 -2.323,0.302 -1.114,0.302 -2.132,0.843 z m 0,7 v -2.164 q 1.05,-0.445 2.148,-0.668 1.098,-0.223 2.307,-0.223 0.827,0 1.623,0.127 0.795,0.127 1.559,0.318 v 2.036 q -0.764,-0.286 -1.543,-0.43 -0.78,-0.143 -1.639,-0.143 -1.209,0 -2.323,0.286 -1.114,0.286 -2.132,0.859 z m 0,-3.5 v -2.164 q 1.05,-0.445 2.148,-0.668 1.098,-0.223 2.307,-0.223 0.827,0 1.623,0.127 0.795,0.127 1.559,0.318 v 2.036 q -0.764,-0.286 -1.543,-0.43 -0.78,-0.143 -1.639,-0.143 -1.209,0 -2.323,0.302 -1.114,0.302 -2.132,0.843 z"
    class="ColorScheme-Background" fill="currentColor" />
</svg>