<svg viewBox="0 0 96 96" xmlns="http://www.w3.org/2000/svg">
  <defs>
    <style type="text/css" id="current-color-scheme">
      .ColorScheme-Accent {
        color: #95ccff;
      }

      .ColorScheme-Background {
        color: #1e2022;
      }
    </style>
    <path id="folder-back" d="M 8,80 V 16 h 34.1 l 6,6 H 88 v 58 z" />
  </defs>
  <use href="#folder-back" class="ColorScheme-Accent" fill="currentColor" />
  <use href="#folder-back" class="ColorScheme-Background" fill="currentColor" opacity="0.3" />
  <path d="M 8,80 V 28 h 34.1 l 6,-6 H 88 v 58 z" class="ColorScheme-Accent" fill="currentColor" />
  <path
    d="m 78.8,28 v -6 h 9.2 v 6 z m -9.2,9.2 v -9.2 h 9.2 v 9.2 z m 9.2,9.2 v -9.2 h 9.2 v 9.2 z m -9.2,9.2 v -9.2 h 9.2 v 9.2 z m 9.2,9.2 v -9.2 h 9.2 v 9.2 z m -9.2,9.2 v -9.2 h 9.2 v 9.2 z m 9.2,6 v -6 h 9.2 v 6 z"
    class="ColorScheme-Background" fill="currentColor" />
  <path
    d="m 41.463,52.388 q 0.188,-0.3 0.263,-0.656 0.075,-0.356 0.075,-0.731 0,-1.238 -0.881,-2.119 Q 40.038,48 38.8,48 q -0.375,0 -0.731,0.075 -0.356,0.075 -0.656,0.263 z m 7.613,7.688 -2.25,-2.325 q 0.45,-1.2 0.713,-2.494 0.263,-1.294 0.263,-2.606 v -7.088 l -9,-3.375 -5.475,2.063 -2.325,-2.325 7.8,-2.925 12,4.5 v 9.15 q 0,1.913 -0.431,3.788 -0.431,1.875 -1.294,3.638 z m 1.425,9.825 -4.875,-4.875 q -1.425,1.463 -3.169,2.456 Q 40.713,68.475 38.8,69 33.588,67.688 30.194,63.019 26.8,58.35 26.8,52.65 V 46.2 l -3.9,-3.9 2.1,-2.1 27.6,27.6 z m -13.575,-13.575 z m 2.138,-6.375 z m -0.263,15.9 q 1.313,-0.413 2.513,-1.163 1.2,-0.75 2.213,-1.763 l -4.425,-4.425 h -2.55 l 0.375,-2.175 -7.125,-7.125 v 3.45 q 0,4.538 2.55,8.25 2.55,3.713 6.45,4.95 z"
    class="ColorScheme-Background" fill="currentColor" />
</svg>