<svg height="96" width="96" version="1.1" xmlns="http://www.w3.org/2000/svg" xmlns:svg="http://www.w3.org/2000/svg">
  <defs>
    <style type="text/css" id="current-color-scheme">
      .ColorScheme-Accent {
        color: #95ccff;
      }

      .ColorScheme-Background {
        color: #28292d;
      }
    </style>
    <linearGradient id="lg1" x1="48" y1="80" x2="48" y2="16" gradientUnits="userSpaceOnUse">
      <stop stop-opacity="0.15" offset="0" />
      <stop stop-opacity="0" offset="1" />
    </linearGradient>
    <path id="folder-back" d="M 8,34 v -12 q 0,-2.3 1.8,-4.15 1.8,-1.85 4.2,-1.85 h 28.1 l 6,6 v 12 z" />
    <path id="icon"
      d="m 56.2,67.15 -9.475,-9.55 q -0.825,0.3 -1.656,0.475 -0.831,0.175 -1.719,0.175 -3.677,0 -6.251,-2.567 -2.574,-2.567 -2.574,-6.233 0,-1.225 0.329,-2.366 0.329,-1.141 0.921,-2.159 l 5.45,5.45 3.2,-3.05 -5.55,-5.55 Q 39.885,41.171 41.018,40.836 42.15,40.5 43.35,40.5 q 3.729,0 6.34,2.61 2.61,2.61 2.61,6.34 0,0.887 -0.175,1.719 -0.175,0.831 -0.475,1.656 l 9.525,9.475 q 0.425,0.424 0.425,1.025 0,0.601 -0.425,1.026 l -2.95,2.8 q -0.417,0.425 -1.009,0.425 -0.591,0 -1.016,-0.425 z m 1.062,-2.488 1.338,-1.337 -10.025,-10.025 q 0.625,-0.775 0.925,-1.819 0.3,-1.044 0.3,-2.031 0,-2.625 -1.869,-4.481 -1.869,-1.856 -4.356,-1.994 l 3.475,3.525 q 0.375,0.375 0.362,0.888 -0.012,0.512 -0.387,0.887 l -4.925,4.725 q -0.382,0.35 -0.891,0.35 -0.509,0 -0.859,-0.35 l -3.375,-3.35 q 0.187,2.637 2.035,4.369 1.848,1.731 4.34,1.731 0.95,0 1.975,-0.3 1.025,-0.3 1.812,-0.913 z M 47.8,53.8 Z" />
  </defs>
  <use href="#folder-back" class="ColorScheme-Accent" fill="currentColor" />
  <use href="#folder-back" class="ColorScheme-Background" fill="currentColor" opacity="0.3" />
  <path
    d="M 14,80 q -2.4,0 -4.2,-1.85 -1.8,-1.85 -1.8,-4.15 v -40 q 0,-2.3 1.8,-4.15 1.8,-1.85 4.2,-1.85 h 28.1 l 6,-6 h 33.9 q 2.3,0 4.15,1.85 1.85,1.85 1.85,4.15 v 46 q 0,2.3 -1.85,4.15 -1.85,1.85 -4.15,1.85 z"
    class="ColorScheme-Accent" fill="currentColor" />
  <use href="#icon" class="ColorScheme-Background" fill="currentColor" opacity="0.8" />
  <path
    d="M 14,80 Q 11.6,80 9.8,78.15 8,76.3 8,74 V 22 Q 8,19.7 9.8,17.85 11.6,16 14,16 h 28.1 l 6,6 H 82 q 2.3,0 4.15,1.85 Q 88,25.7 88,28 v 46 q 0,2.3 -1.85,4.15 Q 84.3,80 82,80 Z"
    fill="url(#lg1)" />
</svg>