<svg height="96" width="96" version="1.1" xmlns="http://www.w3.org/2000/svg" xmlns:svg="http://www.w3.org/2000/svg">
  <defs>
    <style type="text/css" id="current-color-scheme">
      .ColorScheme-Accent {
        color: #95ccff;
      }

      .ColorScheme-Background {
        color: #28292d;
      }
    </style>
    <linearGradient id="lg1" x1="48" y1="80" x2="48" y2="16" gradientUnits="userSpaceOnUse">
      <stop stop-opacity="0.15" offset="0" />
      <stop stop-opacity="0" offset="1" />
    </linearGradient>
    <path id="folder-back" d="M 8,34 v -12 q 0,-2.3 1.8,-4.15 1.8,-1.85 4.2,-1.85 h 28.1 l 6,6 v 12 z" />
    <path id="icon"
      d="m 39.525,66 q -3.337,0 -5.681,-2.325 -2.344,-2.325 -2.344,-5.663 0,-2.925 1.838,-5.163 1.838,-2.237 4.713,-2.75 0.812,-3.575 3.6,-5.825 2.787,-2.25 6.4,-2.25 4.263,0 7.206,3.056 2.944,3.056 2.944,7.369 v 0.6 q 2.663,0.05 4.481,1.906 1.819,1.856 1.819,4.569 0,2.663 -1.906,4.569 -1.907,1.906 -4.569,1.906 z m 0,-2.5 h 18.5 q 1.65,0 2.813,-1.163 1.163,-1.163 1.163,-2.813 0,-1.65 -1.163,-2.813 -1.163,-1.163 -2.813,-1.163 h -2.325 v -3.1 q 0,-3.313 -2.256,-5.619 -2.256,-2.306 -5.494,-2.306 -3.238,0 -5.507,2.306 -2.269,2.306 -2.269,5.619 h -0.725 q -2.275,0 -3.863,1.6 -1.587,1.6 -1.587,3.925 0,2.3 1.613,3.912 1.613,1.613 3.912,1.613 z m 8.475,-9.5 z" />
  </defs>
  <use href="#folder-back" class="ColorScheme-Accent" fill="currentColor" />
  <use href="#folder-back" class="ColorScheme-Background" fill="currentColor" opacity="0.3" />
  <path
    d="M 14,80 q -2.4,0 -4.2,-1.85 -1.8,-1.85 -1.8,-4.15 v -40 q 0,-2.3 1.8,-4.15 1.8,-1.85 4.2,-1.85 h 28.1 l 6,-6 h 33.9 q 2.3,0 4.15,1.85 1.85,1.85 1.85,4.15 v 46 q 0,2.3 -1.85,4.15 -1.85,1.85 -4.15,1.85 z"
    class="ColorScheme-Accent" fill="currentColor" />
  <use href="#icon" class="ColorScheme-Background" fill="currentColor" opacity="0.8" />
  <path
    d="M 14,80 Q 11.6,80 9.8,78.15 8,76.3 8,74 V 22 Q 8,19.7 9.8,17.85 11.6,16 14,16 h 28.1 l 6,6 H 82 q 2.3,0 4.15,1.85 Q 88,25.7 88,28 v 46 q 0,2.3 -1.85,4.15 Q 84.3,80 82,80 Z"
    fill="url(#lg1)" />
  <!-- <rect style="fill:#00ffff;fill-opacity:0.336;" width="80" height="52" x="8" y="28" />
  <rect style="fill:#008000;fill-opacity:0.336;" width="40" height="40" x="0" y="0" /> -->
</svg>