<svg viewBox="0 0 96 96" xmlns="http://www.w3.org/2000/svg">
  <defs>
    <style type="text/css" id="current-color-scheme">
      .ColorScheme-Accent {
        color: #95ccff;
      }

      .ColorScheme-Background {
        color: #1e2022;
      }
    </style>
    <path id="folder-back" d="M 8,80 V 16 h 34.1 l 6,6 H 88 v 58 z" />
  </defs>
  <use href="#folder-back" class="ColorScheme-Accent" fill="currentColor" />
  <use href="#folder-back" class="ColorScheme-Background" fill="currentColor" opacity="0.3" />
  <path d="M 8,80 V 28 h 34.1 l 6,-6 H 88 v 58 z" class="ColorScheme-Accent" fill="currentColor" />
  <path
    d="m 59.513,66.563 1.05,-1.05 L 57.75,62.7 v -4.2 h -1.5 v 4.8 z M 34.5,67.5 v -27 h 27 V 53.55 Q 60.788,53.213 60.038,52.969 59.288,52.725 58.5,52.613 V 43.5 h -21 v 21 h 9.075 q 0.113,0.825 0.356,1.575 0.244,0.75 0.581,1.425 z m 3,-4.5 v 1.5 -21 9.113 V 52.5 Z m 3,-1.5 h 6.113 Q 46.725,60.713 46.969,59.963 47.213,59.213 47.513,58.5 H 40.5 Z m 0,-6 h 9.15 q 1.2,-1.125 2.681,-1.875 Q 53.813,52.875 55.5,52.613 V 52.5 h -15 z m 0,-6 h 15 v -3 h -15 z m 16.5,21 q -3.113,0 -5.306,-2.194 Q 49.5,66.113 49.5,63 49.5,59.888 51.694,57.694 53.888,55.5 57,55.5 q 3.113,0 5.306,2.194 Q 64.5,59.888 64.5,63 q 0,3.113 -2.194,5.306 Q 60.113,70.5 57,70.5 Z"
    class="ColorScheme-Background" fill="currentColor" />
</svg>