<svg height="96" width="96" version="1.1" xmlns="http://www.w3.org/2000/svg" xmlns:svg="http://www.w3.org/2000/svg">
  <defs>
    <style type="text/css" id="current-color-scheme">
      .ColorScheme-NegativeText {
        color: #ff5540;
      }

      .ColorScheme-Background {
        color: #28292d;
      }
    </style>
    <linearGradient id="lg1" x1="48" y1="80" x2="48" y2="16" gradientUnits="userSpaceOnUse">
      <stop stop-opacity="0.15" offset="0" />
      <stop stop-opacity="0" offset="1" />
    </linearGradient>
    <path id="folder-back" d="M 8,34 v -12 q 0,-2.3 1.8,-4.15 1.8,-1.85 4.2,-1.85 h 28.1 l 6,6 v 12 z" />
    <path id="icon"
      d="m 48,65 q 2.625,0 4.488,-1.85 1.862,-1.85 1.862,-4.475 v -6.175 q 0,-2.625 -1.862,-4.475 -1.863,-1.85 -4.488,-1.85 -2.625,0 -4.488,1.85 -1.862,1.85 -1.862,4.475 v 6.175 q 0,2.625 1.862,4.475 1.863,1.85 4.488,1.85 z m -3,-5 h 6 v -2.5 h -6 z m 0,-6.325 h 6 v -2.5 h -6 z m 3,1.925 h 0.012 -0.012 0.012 -0.012 0.012 -0.012 0.012 z m 0,11.9 q -2.438,0 -4.531,-1.175 -2.094,-1.175 -3.169,-3.325 H 36 v -2.5 h 3.35 q -0.212,-0.9 -0.219,-1.812 -0.006,-0.912 -0.006,-1.838 H 36 v -2.5 h 3.125 q 0,-0.975 0.019,-1.937 0.019,-0.963 0.257,-1.913 H 36 v -2.5 h 4.4 q 0.525,-0.987 1.319,-1.763 0.794,-0.775 1.781,-1.313 L 40.775,42.2 42.475,40.5 l 3.425,3.425 q 1.05,-0.362 2.125,-0.362 1.075,0 2.125,0.362 l 3.45,-3.425 1.7,1.7 -2.725,2.725 q 0.987,0.537 1.756,1.319 0.769,0.781 1.344,1.756 h 4.325 v 2.5 h -3.4 q 0.263,0.95 0.257,1.913 -0.006,0.962 -0.006,1.937 h 3.15 v 2.5 h -3.15 q 0,0.925 0.006,1.838 0.006,0.912 -0.206,1.812 h 3.35 v 2.5 h -4.275 q -1.05,2.175 -3.156,3.338 -2.106,1.163 -4.569,1.163 z" />
  </defs>
  <use href="#folder-back" class="ColorScheme-NegativeText" fill="currentColor" />
  <use href="#folder-back" class="ColorScheme-Background" fill="currentColor" opacity="0.3" />
  <path
    d="M 14,80 q -2.4,0 -4.2,-1.85 -1.8,-1.85 -1.8,-4.15 v -40 q 0,-2.3 1.8,-4.15 1.8,-1.85 4.2,-1.85 h 28.1 l 6,-6 h 33.9 q 2.3,0 4.15,1.85 1.85,1.85 1.85,4.15 v 46 q 0,2.3 -1.85,4.15 -1.85,1.85 -4.15,1.85 z"
    class="ColorScheme-NegativeText" fill="currentColor" />
  <use href="#icon" class="ColorScheme-Background" fill="currentColor" opacity="0.8" />
  <path
    d="M 14,80 Q 11.6,80 9.8,78.15 8,76.3 8,74 V 22 Q 8,19.7 9.8,17.85 11.6,16 14,16 h 28.1 l 6,6 H 82 q 2.3,0 4.15,1.85 Q 88,25.7 88,28 v 46 q 0,2.3 -1.85,4.15 Q 84.3,80 82,80 Z"
    fill="url(#lg1)" />
</svg>