<svg height="96" width="96" version="1.1" xmlns:svg="http://www.w3.org/2000/svg">
  <defs>
    <style type="text/css" id="current-color-scheme">
      .ColorScheme-Accent {
        color: #95ccff;
      }

      .ColorScheme-Background {
        color: #28292d;
      }
    </style>
    <linearGradient id="lg1" x1="48" y1="80" x2="48" y2="16" gradientUnits="userSpaceOnUse">
      <stop stop-opacity="0.15" offset="0" />
      <stop stop-opacity="0" offset="1" />
    </linearGradient>
    <path id="folder-back" d="M 8,34 v -12 q 0,-2.3 1.8,-4.15 1.8,-1.85 4.2,-1.85 h 28.1 l 6,6 v 12 z" />
    <path id="icon"
      d="m 50.25,65.975 q -2.4,0 -4.038,-1.637 -1.637,-1.638 -1.637,-4.038 0,-2.4 1.637,-4.038 1.638,-1.637 4.038,-1.637 0.938,0 1.694,0.256 0.756,0.256 1.481,0.744 V 42 h 9.575 v 4.25 h -7.075 v 14.05 q 0,2.4 -1.637,4.038 -1.638,1.637 -4.038,1.637 z M 33,60.3 q 0,-3.687 1.325,-6.844 1.325,-3.156 3.638,-5.469 2.313,-2.313 5.469,-3.625 3.156,-1.313 6.819,-1.313 v 2.5 q -3.15,0 -5.85,1.119 -2.7,1.119 -4.681,3.1 -1.982,1.981 -3.1,4.675 -1.119,2.694 -1.119,5.856 z m 5,0 q 0,-2.65 0.932,-4.906 0.931,-2.256 2.562,-3.888 1.631,-1.631 3.869,-2.544 2.237,-0.913 4.887,-0.913 v 2.5 q -4.325,0 -7.038,2.7 -2.712,2.7 -2.712,7.05 z" />
  </defs>
  <use href="#folder-back" class="ColorScheme-Accent" fill="currentColor" />
  <use href="#folder-back" class="ColorScheme-Background" fill="currentColor" opacity="0.3" />
  <path
    d="M 14,80 q -2.4,0 -4.2,-1.85 -1.8,-1.85 -1.8,-4.15 v -40 q 0,-2.3 1.8,-4.15 1.8,-1.85 4.2,-1.85 h 28.1 l 6,-6 h 33.9 q 2.3,0 4.15,1.85 1.85,1.85 1.85,4.15 v 46 q 0,2.3 -1.85,4.15 -1.85,1.85 -4.15,1.85 z"
    class="ColorScheme-Accent" fill="currentColor" />
  <use href="#icon" class="ColorScheme-Background" fill="currentColor" opacity="0.8" />
  <path
    d="M 14,80 Q 11.6,80 9.8,78.15 8,76.3 8,74 V 22 Q 8,19.7 9.8,17.85 11.6,16 14,16 h 28.1 l 6,6 H 82 q 2.3,0 4.15,1.85 Q 88,25.7 88,28 v 46 q 0,2.3 -1.85,4.15 Q 84.3,80 82,80 Z"
    fill="url(#lg1)" />
</svg>