<svg height="96" width="96" version="1.1" xmlns="http://www.w3.org/2000/svg" xmlns:svg="http://www.w3.org/2000/svg">
  <defs>
    <style type="text/css" id="current-color-scheme">
      .ColorScheme-Accent {
        color: #95ccff;
      }

      .ColorScheme-Background {
        color: #28292d;
      }
    </style>
    <linearGradient id="lg1" x1="48" y1="80" x2="48" y2="16" gradientUnits="userSpaceOnUse">
      <stop stop-opacity="0.15" offset="0" />
      <stop stop-opacity="0" offset="1" />
    </linearGradient>
    <path id="folder-back" d="M 8,34 v -12 q 0,-2.3 1.8,-4.15 1.8,-1.85 4.2,-1.85 h 28.1 l 6,6 v 12 z" />
    <path id="icon"
      d="M 54.45,47.8 V 43 H 41.55 v 4.8 H 39.05 V 40.5 h 17.9 v 7.3 z m -18.95,2.5 h 25 z m 21.975,3.625 q 0.512,0 0.881,-0.369 0.369,-0.369 0.369,-0.881 0,-0.513 -0.369,-0.881 -0.369,-0.369 -0.881,-0.369 -0.513,0 -0.881,0.369 -0.369,0.369 -0.369,0.881 0,0.512 0.369,0.881 0.369,0.369 0.881,0.369 z M 54.45,65 V 58.2 H 41.55 v 6.8 z m 2.5,2.5 H 39.05 V 61.1 H 33 v -9.15 q 0,-1.764 1.2,-2.957 1.2,-1.193 2.95,-1.193 h 21.7 q 1.764,0 2.957,1.193 1.193,1.193 1.193,2.957 v 9.15 h -6.05 z m 3.55,-8.9 v -6.656 q 0,-0.707 -0.474,-1.176 -0.474,-0.469 -1.176,-0.469 H 37.15 q -0.701,0 -1.176,0.474 -0.474,0.474 -0.474,1.176 v 6.65 h 3.55 v -2.9 h 17.9 v 2.9 z" />
  </defs>
  <use href="#folder-back" class="ColorScheme-Accent" fill="currentColor" />
  <use href="#folder-back" class="ColorScheme-Background" fill="currentColor" opacity="0.3" />
  <path
    d="M 14,80 q -2.4,0 -4.2,-1.85 -1.8,-1.85 -1.8,-4.15 v -40 q 0,-2.3 1.8,-4.15 1.8,-1.85 4.2,-1.85 h 28.1 l 6,-6 h 33.9 q 2.3,0 4.15,1.85 1.85,1.85 1.85,4.15 v 46 q 0,2.3 -1.85,4.15 -1.85,1.85 -4.15,1.85 z"
    class="ColorScheme-Accent" fill="currentColor" />
  <use href="#icon" class="ColorScheme-Background" fill="currentColor" opacity="0.8" />
  <path
    d="M 14,80 Q 11.6,80 9.8,78.15 8,76.3 8,74 V 22 Q 8,19.7 9.8,17.85 11.6,16 14,16 h 28.1 l 6,6 H 82 q 2.3,0 4.15,1.85 Q 88,25.7 88,28 v 46 q 0,2.3 -1.85,4.15 Q 84.3,80 82,80 Z"
    fill="url(#lg1)" />
</svg>