<svg height="96" width="96" version="1.1" xmlns="http://www.w3.org/2000/svg" xmlns:svg="http://www.w3.org/2000/svg">
  <defs>
    <style type="text/css" id="current-color-scheme">
      .ColorScheme-Accent {
        color: #95ccff;
      }

      .ColorScheme-Background {
        color: #28292d;
      }
    </style>
    <linearGradient id="lg1" x1="48" y1="80" x2="48" y2="16" gradientUnits="userSpaceOnUse">
      <stop stop-opacity="0.15" offset="0" />
      <stop stop-opacity="0" offset="1" />
    </linearGradient>
    <path id="folder-back" d="M 8,34 v -12 q 0,-2.3 1.8,-4.15 1.8,-1.85 4.2,-1.85 h 28.1 l 6,6 v 12 z" />
    <g id="icon">
      <path
        d="m 44.949,39.855 c -1.37,0.305 -2.726,0.729 -3.997,1.369 0.029,1.122 0.102,2.198 0.249,3.29 -0.494,0.316 -1.012,0.588 -1.473,0.958 -0.468,0.36 -0.947,0.705 -1.371,1.127 -0.847,-0.56 -1.744,-1.087 -2.668,-1.552 -0.996,1.072 -1.927,2.229 -2.688,3.523 0.572,0.926 1.17,1.794 1.815,2.617 h 0.018 v 6.394 0.812 0.739 c 0.015,1.29e-4 0.029,7.11e-4 0.044,0.002 l 4.871,0.47 c 0.255,0.025 0.455,0.23 0.473,0.486 l 0.15,2.15 4.249,0.303 0.293,-1.984 c 0.038,-0.257 0.259,-0.448 0.519,-0.448 h 5.139 c 0.26,0 0.481,0.191 0.519,0.448 l 0.293,1.984 4.249,-0.303 0.15,-2.15 c 0.018,-0.256 0.218,-0.461 0.473,-0.486 L 61.122,59.133 c 0.014,-0.001 0.029,-0.002 0.043,-0.002 v -0.634 l 0.002,-6.79e-4 v -7.31 h 0.018 c 0.645,-0.824 1.242,-1.691 1.815,-2.617 -0.76,-1.295 -1.692,-2.451 -2.688,-3.523 -0.924,0.465 -1.821,0.992 -2.668,1.552 -0.424,-0.421 -0.902,-0.766 -1.371,-1.127 -0.461,-0.37 -0.98,-0.642 -1.473,-0.958 0.147,-1.092 0.219,-2.168 0.248,-3.29 -1.271,-0.64 -2.627,-1.064 -3.998,-1.369 -0.547,0.92 -1.048,1.916 -1.484,2.89 -0.517,-0.086 -1.036,-0.118 -1.557,-0.125 v -8.41e-4 c -0.004,0 -0.007,8.41e-4 -0.01,8.41e-4 -0.003,0 -0.007,-8.41e-4 -0.01,-8.41e-4 v 8.41e-4 c -0.521,0.006 -1.04,0.038 -1.557,0.125 -0.436,-0.974 -0.936,-1.97 -1.484,-2.89 z m -3.853,11.623 c 1.621,0 2.935,1.313 2.935,2.934 0,1.622 -1.314,2.936 -2.935,2.936 -1.62,0 -2.935,-1.314 -2.935,-2.936 0,-1.621 1.314,-2.934 2.935,-2.934 z m 13.81,0 c 1.62,0 2.935,1.313 2.935,2.934 0,1.622 -1.314,2.936 -2.935,2.936 -1.622,0 -2.936,-1.314 -2.936,-2.936 0,-1.621 1.314,-2.934 2.936,-2.934 z m -6.905,1.717 c 0.522,0 0.946,0.385 0.946,0.859 v 2.702 c 0,0.474 -0.424,0.859 -0.946,0.859 -0.522,0 -0.945,-0.385 -0.945,-0.859 v -2.702 c 0,-0.474 0.423,-0.859 0.945,-0.859 z" />
      <path
        d="m 56.795,60.604 -0.151,2.162 c -0.018,0.261 -0.225,0.468 -0.486,0.487 l -5.188,0.37 c -0.013,9.38e-4 -0.025,0.001 -0.038,0.001 -0.258,0 -0.48,-0.189 -0.518,-0.448 L 50.117,61.158 h -4.233 l -0.298,2.018 c -0.04,0.272 -0.283,0.467 -0.556,0.447 L 39.841,63.252 C 39.581,63.234 39.374,63.026 39.355,62.766 L 39.205,60.604 34.825,60.182 c 0.002,0.471 0.008,0.986 0.008,1.089 0,4.626 5.868,6.849 13.158,6.875 h 0.009 0.009 c 7.29,-0.026 13.156,-2.249 13.156,-6.875 0,-0.105 0.006,-0.618 0.009,-1.089 z" />
      <circle cx="41.376" cy="54.585" r="1.948" />
      <circle cx="54.624" cy="54.585" r="1.948" />
    </g>

  </defs>
  <use href="#folder-back" class="ColorScheme-Accent" fill="currentColor" />
  <use href="#folder-back" class="ColorScheme-Background" fill="currentColor" opacity="0.3" />
  <path
    d="M 14,80 q -2.4,0 -4.2,-1.85 -1.8,-1.85 -1.8,-4.15 v -40 q 0,-2.3 1.8,-4.15 1.8,-1.85 4.2,-1.85 h 28.1 l 6,-6 h 33.9 q 2.3,0 4.15,1.85 1.85,1.85 1.85,4.15 v 46 q 0,2.3 -1.85,4.15 -1.85,1.85 -4.15,1.85 z"
    class="ColorScheme-Accent" fill="currentColor" />
  <use href="#icon" class="ColorScheme-Background" fill="currentColor" opacity="0.8" />
  <path
    d="M 14,80 Q 11.6,80 9.8,78.15 8,76.3 8,74 V 22 Q 8,19.7 9.8,17.85 11.6,16 14,16 h 28.1 l 6,6 H 82 q 2.3,0 4.15,1.85 Q 88,25.7 88,28 v 46 q 0,2.3 -1.85,4.15 Q 84.3,80 82,80 Z"
    fill="url(#lg1)" />
</svg>