<svg viewBox="0 0 96 96" xmlns="http://www.w3.org/2000/svg">
  <defs>
    <style type="text/css" id="current-color-scheme">
      .ColorScheme-Accent {
        color: #95ccff;
      }

      .ColorScheme-Background {
        color: #1e2022;
      }
    </style>
    <path id="folder-back" d="M 8,80 V 16 h 34.1 l 6,6 H 88 v 58 z" />
  </defs>
  <use href="#folder-back" class="ColorScheme-Accent" fill="currentColor" />
  <use href="#folder-back" class="ColorScheme-Background" fill="currentColor" opacity="0.3" />
  <path d="M 8,80 V 28 h 34.1 l 6,-6 H 88 v 58 z" class="ColorScheme-Accent" fill="currentColor" />
  <path
    d="m 37.5,67.5 q -1.238,0 -2.119,-0.881 Q 34.5,65.738 34.5,64.5 34.5,63.263 35.381,62.381 36.263,61.5 37.5,61.5 q 1.238,0 2.119,0.881 Q 40.5,63.263 40.5,64.5 q 0,1.238 -0.881,2.119 Q 38.738,67.5 37.5,67.5 Z m 18,0 q 0,-4.388 -1.65,-8.194 Q 52.2,55.5 49.35,52.65 46.5,49.8 42.694,48.15 38.888,46.5 34.5,46.5 V 42 q 5.325,0 9.938,1.988 4.613,1.988 8.1,5.475 3.488,3.488 5.475,8.1 Q 60,62.175 60,67.5 Z m -9,0 q 0,-2.513 -0.938,-4.669 Q 44.625,60.675 42.975,59.025 41.325,57.375 39.169,56.438 37.013,55.5 34.5,55.5 V 51 q 3.45,0 6.431,1.294 2.981,1.294 5.231,3.544 2.25,2.25 3.544,5.231 Q 51,64.05 51,67.5 Z"
    class="ColorScheme-Background" fill="currentColor" />
</svg>