<svg height="96" width="96" version="1.1" xmlns="http://www.w3.org/2000/svg" xmlns:svg="http://www.w3.org/2000/svg">
  <defs>
    <style type="text/css" id="current-color-scheme">
      .ColorScheme-Accent {
        color: #95ccff;
      }

      .ColorScheme-Background {
        color: #28292d;
      }
    </style>
    <linearGradient id="lg1" x1="48" y1="80" x2="48" y2="16" gradientUnits="userSpaceOnUse">
      <stop stop-opacity="0.15" offset="0" />
      <stop stop-opacity="0" offset="1" />
    </linearGradient>
    <path id="folder-back" d="M 8,34 v -12 q 0,-2.3 1.8,-4.15 1.8,-1.85 4.2,-1.85 h 28.1 l 6,6 v 12 z" />
    <path id="icon"
      d="m 48,69 q -3.075,0 -5.813,-1.181 -2.738,-1.181 -4.781,-3.225 -2.044,-2.044 -3.225,-4.781 -1.181,-2.738 -1.181,-5.813 0,-3.162 1.206,-5.9 1.206,-2.738 3.287,-4.763 2.081,-2.025 4.869,-3.182 2.787,-1.156 5.963,-1.156 2.975,0 5.637,1.006 2.663,1.007 4.669,2.788 2.006,1.781 3.188,4.225 1.181,2.444 1.181,5.331 0,4.137 -2.45,6.469 -2.45,2.331 -6.3,2.331 h -2.8 q -0.563,0 -0.931,0.413 -0.369,0.413 -0.369,0.912 0,0.825 0.55,1.581 0.55,0.756 0.55,1.744 0,1.575 -0.869,2.387 -0.869,0.813 -2.381,0.813 z m 0,-15 z m -8.575,1.15 q 0.825,0 1.413,-0.588 0.588,-0.588 0.588,-1.413 0,-0.825 -0.588,-1.412 -0.588,-0.588 -1.413,-0.588 -0.825,0 -1.412,0.588 -0.588,0.587 -0.588,1.412 0,0.825 0.588,1.413 0.587,0.588 1.412,0.588 z m 4.65,-6.25 q 0.825,0 1.413,-0.588 0.588,-0.587 0.588,-1.412 0,-0.825 -0.588,-1.413 -0.588,-0.588 -1.413,-0.588 -0.825,0 -1.412,0.588 -0.588,0.588 -0.588,1.413 0,0.825 0.588,1.412 0.587,0.588 1.412,0.588 z m 7.85,0 q 0.825,0 1.412,-0.588 0.588,-0.587 0.588,-1.412 0,-0.825 -0.588,-1.413 -0.587,-0.588 -1.412,-0.588 -0.825,0 -1.413,0.588 -0.588,0.588 -0.588,1.413 0,0.825 0.588,1.412 0.588,0.588 1.413,0.588 z m 4.775,6.25 q 0.825,0 1.413,-0.588 0.587,-0.588 0.587,-1.413 0,-0.825 -0.587,-1.412 -0.588,-0.588 -1.413,-0.588 -0.825,0 -1.413,0.588 -0.587,0.587 -0.587,1.412 0,0.825 0.587,1.413 0.588,0.588 1.413,0.588 z m -8.7,11.35 q 0.387,0 0.569,-0.175 0.181,-0.175 0.181,-0.525 0,-0.525 -0.55,-1.063 -0.55,-0.537 -0.55,-2.037 0,-1.675 1.112,-2.862 1.113,-1.188 2.788,-1.188 h 2.7 q 2.725,0 4.487,-1.594 1.763,-1.594 1.763,-4.706 0,-4.812 -3.656,-7.831 -3.656,-3.019 -8.519,-3.019 -5.35,0 -9.088,3.625 -3.737,3.625 -3.737,8.875 0,5.187 3.656,8.844 3.656,3.656 8.844,3.656 z" />
  </defs>
  <use href="#folder-back" class="ColorScheme-Accent" fill="currentColor" />
  <use href="#folder-back" class="ColorScheme-Background" fill="currentColor" opacity="0.3" />
  <path
    d="M 14,80 q -2.4,0 -4.2,-1.85 -1.8,-1.85 -1.8,-4.15 v -40 q 0,-2.3 1.8,-4.15 1.8,-1.85 4.2,-1.85 h 28.1 l 6,-6 h 33.9 q 2.3,0 4.15,1.85 1.85,1.85 1.85,4.15 v 46 q 0,2.3 -1.85,4.15 -1.85,1.85 -4.15,1.85 z"
    class="ColorScheme-Accent" fill="currentColor" />
  <use href="#icon" class="ColorScheme-Background" fill="currentColor" opacity="0.8" />
  <path
    d="M 14,80 Q 11.6,80 9.8,78.15 8,76.3 8,74 V 22 Q 8,19.7 9.8,17.85 11.6,16 14,16 h 28.1 l 6,6 H 82 q 2.3,0 4.15,1.85 Q 88,25.7 88,28 v 46 q 0,2.3 -1.85,4.15 Q 84.3,80 82,80 Z"
    fill="url(#lg1)" />
</svg>