<svg viewBox="0 0 96 96" xmlns="http://www.w3.org/2000/svg">
  <defs>
    <style type="text/css" id="current-color-scheme">
      .ColorScheme-Accent {
        color: #95ccff;
      }

      .ColorScheme-Background {
        color: #1e2022;
      }
    </style>
    <path id="folder-back" d="M 8,80 V 16 h 34.1 l 6,6 H 88 v 58 z" />
  </defs>
  <use href="#folder-back" class="ColorScheme-Accent" fill="currentColor" />
  <use href="#folder-back" class="ColorScheme-Background" fill="currentColor" opacity="0.3" />
  <path d="M 8,80 V 28 h 34.1 l 6,-6 H 88 v 58 z" class="ColorScheme-Accent" fill="currentColor" />
  <path
    d="M 52.62,60.58 54.58,58.62 49.4,53.44 V 47 h -2.8 v 7.56 z M 48,68 Q 45.095,68 42.54,66.898 39.985,65.795 38.095,63.905 36.205,62.015 35.103,59.46 34,56.905 34,54 q 0,-2.905 1.103,-5.46 1.103,-2.555 2.993,-4.445 1.89,-1.89 4.445,-2.993 Q 45.095,40 48,40 q 2.905,0 5.46,1.103 2.555,1.103 4.445,2.993 1.89,1.89 2.993,4.445 Q 62,51.095 62,54 q 0,2.905 -1.103,5.46 -1.103,2.555 -2.993,4.445 -1.89,1.89 -4.445,2.993 Q 50.905,68 48,68 Z m 0,-14 z m 0,11.2 q 4.655,0 7.928,-3.273 Q 59.2,58.655 59.2,54 59.2,49.345 55.928,46.073 52.655,42.8 48,42.8 43.345,42.8 40.073,46.073 36.8,49.345 36.8,54 q 0,4.655 3.273,7.928 Q 43.345,65.2 48,65.2 Z"
    class="ColorScheme-Background" fill="currentColor" />
</svg>