<svg viewBox="0 0 96 96" xmlns="http://www.w3.org/2000/svg">
  <defs>
    <style type="text/css" id="current-color-scheme">
      .ColorScheme-Accent {
        color: #95ccff;
      }

      .ColorScheme-Background {
        color: #1e2022;
      }
    </style>
    <path id="folder-back" d="M 8,80 V 16 h 34.1 l 6,6 H 88 v 58 z" />
  </defs>
  <use href="#folder-back" class="ColorScheme-Accent" fill="currentColor" />
  <use href="#folder-back" class="ColorScheme-Background" fill="currentColor" opacity="0.3" />
  <path d="M 8,80 V 28 h 34.1 l 6,-6 H 88 v 58 z" class="ColorScheme-Accent" fill="currentColor" />
  <path
    d="M 56.813,68.138 46.65,57.9 Q 45.9,58.2 45.131,58.35 44.363,58.5 43.5,58.5 39.75,58.5 37.125,55.875 34.5,53.25 34.5,49.5 q 0,-1.35 0.375,-2.569 0.375,-1.219 1.05,-2.306 L 41.4,50.1 44.1,47.4 38.625,41.925 Q 39.713,41.25 40.931,40.875 42.15,40.5 43.5,40.5 q 3.75,0 6.375,2.625 2.625,2.625 2.625,6.375 0,0.863 -0.15,1.631 Q 52.2,51.9 51.9,52.65 l 10.238,10.163 z m 0,-4.275 1.013,-1.013 -9.6,-9.6 Q 48.9,52.5 49.2,51.506 49.5,50.513 49.5,49.5 49.5,47.25 48.056,45.581 46.613,43.913 44.475,43.575 L 48.3,47.4 41.4,54.3 37.575,50.475 q 0.338,2.138 2.006,3.581 Q 41.25,55.5 43.5,55.5 q 0.975,0 1.95,-0.3 0.975,-0.3 1.763,-0.938 z M 47.7,53.7 Z"
    class="ColorScheme-Background" fill="currentColor" />
</svg>