<svg height="96" width="96" version="1.1" xmlns="http://www.w3.org/2000/svg" xmlns:svg="http://www.w3.org/2000/svg">
  <defs>
    <style type="text/css" id="current-color-scheme">
      .ColorScheme-Accent {
        color: #95ccff;
      }

      .ColorScheme-Background {
        color: #28292d;
      }
    </style>
    <linearGradient id="lg1" x1="48" y1="80" x2="48" y2="16" gradientUnits="userSpaceOnUse">
      <stop stop-opacity="0.15" offset="0" />
      <stop stop-opacity="0" offset="1" />
    </linearGradient>
    <path id="folder-back" d="M 8,34 v -12 q 0,-2.3 1.8,-4.15 1.8,-1.85 4.2,-1.85 h 28.1 l 6,6 v 12 z" />
    <path id="icon"
      d="m 43.3,67.5 h -6.3 q -1.013,0 -1.757,-0.744 Q 34.5,66.012 34.5,65 v -6.3 q 1.7,-0.125 2.937,-1.244 1.238,-1.119 1.238,-2.781 0,-1.662 -1.238,-2.781 -1.238,-1.119 -2.937,-1.244 v -6.3 q 0,-1.013 0.744,-1.757 Q 35.988,41.85 37,41.85 h 6.425 q 0.275,-1.525 1.35,-2.562 Q 45.85,38.25 47.375,38.25 q 1.525,0 2.6,1.038 1.075,1.037 1.35,2.562 h 6.325 q 1.013,0 1.757,0.744 0.744,0.744 0.744,1.757 v 6.325 q 1.525,0.275 2.525,1.4 1,1.125 1,2.65 0,1.525 -1,2.563 -1,1.037 -2.525,1.313 v 6.4 q 0,1.013 -0.744,1.757 -0.744,0.744 -1.757,0.744 h -6.3 q -0.125,-1.825 -1.281,-3 -1.157,-1.175 -2.744,-1.175 -1.587,0 -2.744,1.175 -1.156,1.175 -1.281,3 z m -6.3,-2.5 h 4.312 q 0.925,-2.35 2.71,-3.263 1.785,-0.912 3.3,-0.912 1.515,0 3.303,0.912 1.788,0.913 2.712,3.263 h 4.313 v -8.875 h 2.125 q 0.6,0 1,-0.4 0.4,-0.4 0.4,-1 0,-0.6 -0.4,-1 -0.4,-0.4 -1,-0.4 h -2.125 v -8.975 h -8.875 v -2.2 q 0,-0.6 -0.4,-1 -0.4,-0.4 -1,-0.4 -0.6,0 -1,0.4 -0.4,0.4 -0.4,1 v 2.2 h -8.975 v 4.35 q 1.879,0.695 3.027,2.33 1.148,1.634 1.148,3.651 0,1.982 -1.15,3.62 -1.15,1.637 -3.025,2.35 z M 47.375,54.725 Z" />
  </defs>
  <use href="#folder-back" class="ColorScheme-Accent" fill="currentColor" />
  <use href="#folder-back" class="ColorScheme-Background" fill="currentColor" opacity="0.3" />
  <path
    d="M 14,80 q -2.4,0 -4.2,-1.85 -1.8,-1.85 -1.8,-4.15 v -40 q 0,-2.3 1.8,-4.15 1.8,-1.85 4.2,-1.85 h 28.1 l 6,-6 h 33.9 q 2.3,0 4.15,1.85 1.85,1.85 1.85,4.15 v 46 q 0,2.3 -1.85,4.15 -1.85,1.85 -4.15,1.85 z"
    class="ColorScheme-Accent" fill="currentColor" />
  <use href="#icon" class="ColorScheme-Background" fill="currentColor" opacity="0.8" />
  <path
    d="M 14,80 Q 11.6,80 9.8,78.15 8,76.3 8,74 V 22 Q 8,19.7 9.8,17.85 11.6,16 14,16 h 28.1 l 6,6 H 82 q 2.3,0 4.15,1.85 Q 88,25.7 88,28 v 46 q 0,2.3 -1.85,4.15 Q 84.3,80 82,80 Z"
    fill="url(#lg1)" />
</svg>