<svg viewBox="0 0 96 96" xmlns="http://www.w3.org/2000/svg">
  <defs>
    <style type="text/css" id="current-color-scheme">
      .ColorScheme-Accent {
        color: #95ccff;
      }

      .ColorScheme-Background {
        color: #1e2022;
      }
    </style>
    <path id="folder-back" d="M 8,80 V 16 h 34.1 l 6,6 H 88 v 58 z" />
  </defs>
  <use href="#folder-back" class="ColorScheme-Accent" fill="currentColor" />
  <use href="#folder-back" class="ColorScheme-Background" fill="currentColor" opacity="0.3" />
  <path d="M 8,80 V 28 h 34.1 l 6,-6 H 88 v 58 z" class="ColorScheme-Accent" fill="currentColor" />
  <path
    d="M 39.75,66 Q 36.338,66 33.919,63.638 31.5,61.275 31.5,57.863 q 0,-2.925 1.763,-5.213 1.763,-2.288 4.613,-2.925 0.938,-3.45 3.75,-5.588 Q 44.438,42 48,42 52.388,42 55.444,45.056 58.5,48.113 58.5,52.5 61.088,52.8 62.794,54.731 64.5,56.663 64.5,59.25 q 0,2.813 -1.969,4.781 Q 60.563,66 57.75,66 Z m 0,-3 h 18 q 1.575,0 2.663,-1.088 Q 61.5,60.825 61.5,59.25 61.5,57.675 60.413,56.588 59.325,55.5 57.75,55.5 H 55.5 v -3 q 0,-3.113 -2.194,-5.306 Q 51.113,45 48,45 44.888,45 42.694,47.194 40.5,49.388 40.5,52.5 h -0.75 q -2.175,0 -3.713,1.538 Q 34.5,55.575 34.5,57.75 q 0,2.175 1.538,3.713 Q 37.575,63 39.75,63 Z M 48,54 Z"
    class="ColorScheme-Background" fill="currentColor" />
</svg>