<svg viewBox="0 0 96 96" xmlns="http://www.w3.org/2000/svg">
  <defs>
    <style type="text/css" id="current-color-scheme">
      .ColorScheme-Accent {
        color: #95ccff;
      }

      .ColorScheme-Background {
        color: #1e2022;
      }
    </style>
    <path id="folder-back" d="M 8,80 V 16 h 34.1 l 6,6 H 88 v 58 z" />
  </defs>
  <use href="#folder-back" class="ColorScheme-Accent" fill="currentColor" />
  <use href="#folder-back" class="ColorScheme-Background" fill="currentColor" opacity="0.3" />
  <path d="M 8,80 V 28 h 34.1 l 6,-6 H 88 v 58 z" class="ColorScheme-Accent" fill="currentColor" />
  <path
    d="M 48,54 Q 45.525,54 43.763,52.238 42,50.475 42,48 42,45.525 43.763,43.763 45.525,42 48,42 50.475,42 52.238,43.763 54,45.525 54,48 54,50.475 52.238,52.238 50.475,54 48,54 Z M 36,66 V 61.8 Q 36,60.525 36.656,59.456 37.313,58.388 38.4,57.825 40.725,56.663 43.125,56.081 45.525,55.5 48,55.5 q 2.475,0 4.875,0.581 2.4,0.581 4.725,1.744 1.088,0.563 1.744,1.631 Q 60,60.525 60,61.8 V 66 Z m 3,-3 H 57 V 61.8 Q 57,61.388 56.794,61.05 56.588,60.713 56.25,60.525 54.225,59.513 52.163,59.006 50.1,58.5 48,58.5 45.9,58.5 43.838,59.006 41.775,59.513 39.75,60.525 39.413,60.713 39.206,61.05 39,61.388 39,61.8 Z m 9,-12 q 1.238,0 2.119,-0.881 Q 51,49.238 51,48 51,46.763 50.119,45.881 49.238,45 48,45 46.763,45 45.881,45.881 45,46.763 45,48 45,49.238 45.881,50.119 46.763,51 48,51 Z m 0,-3 z m 0,15 z"
    class="ColorScheme-Background" fill="currentColor" />
</svg>