<svg viewBox="0 0 96 96" version="1.1" xmlns:xlink="http://www.w3.org/1999/xlink" xmlns="http://www.w3.org/2000/svg"
  xmlns:svg="http://www.w3.org/2000/svg">
  <defs>
    <style type="text/css" id="current-color-scheme">
      .ColorScheme-Accent {
        color: #95ccff;
      }

      .ColorScheme-Background {
        color: #28292d;
      }
    </style>
    <linearGradient id="lg1" x1="48" y1="80" x2="48" y2="16" gradientUnits="userSpaceOnUse">
      <stop stop-opacity="0.15" offset="0" />
      <stop stop-opacity="0" offset="1" />
    </linearGradient>
    <linearGradient id="lg2" x1="48" y1="80" x2="48" y2="30" gradientUnits="userSpaceOnUse">
      <stop stop-opacity="0.15" offset="0" />
      <stop stop-opacity="0" offset="1" />
    </linearGradient>
    <path id="folder-back"
      d="M 14,80 q -2.3,0 -4.15,-1.85 -1.85,-1.85 -1.85,-4.15 v -52 q 0,-2.3 1.85,-4.15 1.85,-1.85 4.15,-1.85 h 28.1 l 6,6  h 33.9 q 2.3,0 4.15,1.85 1.85,1.85 1.85,4.15 v 6 z" />
    <path id="folder-front"
      d="M 14,80 c -0.509 0 -1 -0.075 -1.477,-0.211 l 11.677 -45.789 h 69.8 l -10.7,41.4 q -0.6,2.4 -2.2,3.5 -1.6,1.1 -4.1,1.1 h -64.53 z" />
  </defs>
  <!-- <path
    d="M 14,80 Q 11.7,80 9.85,78.15 8,76.3 8,74 V 22 Q 8,19.7 9.85,17.85 11.7,16 14,16 h 28.1 l 6,6 H 82 q 2.3,0 4.15,1.85 Q 88,25.7 88,28 H 45.5 l -6,-6 H 14 V 74 L 24.2,34 H 94 L 83.3,75.4 Q 82.7,77.8 81.1,78.9 79.5,80 77,80 Z m 6.3,-6 H 77.5 L 85.9,40 H 28.7 Z m 0,0 8.4,-34 z M 14,28 v -6 z"
    style="stroke-width:0.05" />  -->
  <use href="#folder-back" class="ColorScheme-Accent" fill="currentColor" />
  <use href="#folder-back" class="ColorScheme-Background" fill="currentColor" opacity="0.3" />
  <use href="#folder-back" fill="url(#lg1)" />
  <use href="#folder-front" class="ColorScheme-Accent" fill="currentColor" />
  <use href="#folder-front" fill="url(#lg2)" />
</svg>