<svg viewBox="0 0 96 96" xmlns="http://www.w3.org/2000/svg">
  <defs>
    <style type="text/css" id="current-color-scheme">
      .ColorScheme-Accent {
        color: #95ccff;
      }

      .ColorScheme-Background {
        color: #1e2022;
      }
    </style>
    <path id="folder-back" d="M 8,80 V 16 h 34.1 l 6,6 H 88 v 58 z" />
  </defs>
  <use href="#folder-back" class="ColorScheme-Accent" fill="currentColor" />
  <use href="#folder-back" class="ColorScheme-Background" fill="currentColor" opacity="0.3" />
  <path d="M 8,80 V 28 h 34.1 l 6,-6 H 88 v 58 z" class="ColorScheme-Accent" fill="currentColor" />
  <path
    d="M 41.25,45 Q 40.313,45 39.656,45.656 39,46.313 39,47.25 39,48.188 39.656,48.844 40.313,49.5 41.25,49.5 q 0.938,0 1.594,-0.656 Q 43.5,48.188 43.5,47.25 43.5,46.313 42.844,45.656 42.188,45 41.25,45 Z m 0,15 Q 40.313,60 39.656,60.656 39,61.313 39,62.25 39,63.188 39.656,63.844 40.313,64.5 41.25,64.5 q 0.938,0 1.594,-0.656 Q 43.5,63.188 43.5,62.25 43.5,61.313 42.844,60.656 42.188,60 41.25,60 Z M 34.5,54 V 40.5 h 27 V 54 Z m 3,-10.5 V 51 h 21 V 43.5 Z M 34.5,69 V 55.5 h 27 V 69 Z m 3,-10.5 V 66 h 21 v -7.5 z m 0,-15 V 51 Z m 0,15 V 66 Z"
    class="ColorScheme-Background" fill="currentColor" />
</svg>