<svg version="1.1" viewBox="0 0 96 96" xmlns="http://www.w3.org/2000/svg" xmlns:svg="http://www.w3.org/2000/svg">
  <style type="text/css" id="current-color-scheme">
    .ColorScheme-Text {
      color: #e2e2e5;
    }
  </style>
  <path
    d="M 56.655,66.939 48.586,46.489 36.756,65.128 H 29.339 L 45.861,38.449 44.006,33.176 H 37.573 V 26.893 H 48.586 l 12.649,32.165 5.561,-1.812 1.853,6.231 z"
    class="ColorScheme-Text" fill="currentColor" />
  <path
    d="M 48.05,12.084 C 28.245,12.084 12.115,28.214 12.115,48.018 c 0,19.806 16.13,35.934 35.935,35.934 19.804,0 35.934,-16.128 35.934,-35.934 C 83.984,28.214 67.854,12.084 48.05,12.084 Z m 0,7.106 c 15.964,0 28.828,12.864 28.828,28.828 0,15.966 -12.864,28.828 -28.828,28.828 C 32.085,76.846 19.221,63.985 19.221,48.018 19.221,32.054 32.085,19.19 48.05,19.19 Z"
    class="ColorScheme-Text" fill="currentColor" />
</svg>