<svg version="1.1" viewBox="0 0 96 96" xmlns="http://www.w3.org/2000/svg" xmlns:svg="http://www.w3.org/2000/svg">
  <style type="text/css" id="current-color-scheme">
    .ColorScheme-Text {
      color: #e2e2e5;
    }
  </style>
  <path
    d="m 43.1,63 q 0.1,-7.2 1.65,-10.5 1.55,-3.3 5.85,-7.2 4.2,-3.8 6.45,-7.05 2.25,-3.25 2.25,-6.95 0,-4.5 -3,-7.5 -3,-3 -8.4,-3 -5.2,0 -8,2.95 -2.8,2.95 -4.1,6.15 L 27.4,26.2 Q 29.6,20.3 34.85,16.15 40.1,12 47.9,12 q 10,0 15.4,5.55 5.4,5.55 5.4,13.35 0,4.8 -2.05,8.7 -2.05,3.9 -6.55,8.2 -4.9,4.7 -5.9,7.2 -1,2.5 -1.1,8 z m 4.8,25 Q 45,88 42.95,85.95 40.9,83.9 40.9,81 40.9,78.1 42.95,76.05 45,74 47.9,74 q 2.9,0 4.95,2.05 2.05,2.05 2.05,4.95 0,2.9 -2.05,4.95 Q 50.8,88 47.9,88 Z"
    class="ColorScheme-Text" fill="currentColor" />
</svg>