<svg viewBox="0 0 96 96" xmlns="http://www.w3.org/2000/svg">
  <defs>
    <style type="text/css" id="current-color-scheme">
      .ColorScheme-Text {
        color: #e2e2e5;
      }

      .ColorScheme-Background {
        color: #1e2022;
      }
    </style>
    <path id="background"
      d="M 34.7 12 L 34.7 15 L 15.8 15 L 15.8 21 L 20.1 21 L 20.1 84 L 44.8 84 L 44.9 83.85 A 27.77 27.77 0 0 1 39.08 66.95 A 27.77 27.77 0 0 1 66.85 39.18 A 27.77 27.77 0 0 1 74.07 40.144 L 74.1 40.1 L 74.1 21 L 78.4 21 L 78.4 15 L 59.5 15 L 59.5 12 L 34.7 12 z" />
    <path id="icon"
      d="M 26.1,21 V 78 Z M 44.8,84 H 20.1 V 21 h -4.3 v -6 h 18.9 v -3 h 24.8 v 3 h 18.9 v 6 h -4.3 v 19.1 q -1.4,-0.4 -3,-0.7 -1.6,-0.3 -3,-0.4 V 21 h -42 v 57 h 15.7 q 0.4,1.1 1.3,2.9 0.9,1.8 1.7,3.1 z M 36,69.4 h 3 q 0,-7.8 1.5,-11.5 L 42,54.2 V 29.5 H 36 Z M 52.3,43.2 q 1.2,-0.8 2.9,-1.55 1.7,-0.75 3.1,-1.25 V 29.5 h -6 z M 66.799,88.1 Q 58,88.1 51.85,81.899 45.7,75.697 45.7,66.899 45.7,58.1 51.872,51.95 58.043,45.8 66.8,45.8 q 8.798,0 14.999,6.172 Q 88,58.143 88,66.9 q 0,8.798 -6.201,14.999 -6.202,6.201 -15,6.201 z M 73.3,76.4 76.1,73.6 68.7,66.2 V 55 h -4 v 12.8 z" />
  </defs>
  <use href="#background" class="ColorScheme-Background" fill="currentColor" />
  <use href="#background" class="ColorScheme-Text" fill="currentColor" opacity="0.33" />
  <use href="#icon" class="ColorScheme-Background" fill="currentColor" />
  <use href="#icon" class="ColorScheme-Text" fill="currentColor" opacity="0.66" />
</svg>