<svg version="1.1" viewBox="0 0 96 96" xmlns:xlink="http://www.w3.org/1999/xlink" xmlns="http://www.w3.org/2000/svg"
  xmlns:svg="http://www.w3.org/2000/svg">
  <defs>
    <style type="text/css" id="current-color-scheme">
      .ColorScheme-Text {
        color: #e2e2e5;
      }

      .ColorScheme-Background {
        color: #28292d;
      }
    </style>
    <linearGradient id="lg1" x1="48" y1="84" x2="48" y2="12" gradientUnits="userSpaceOnUse">
      <stop stop-opacity="0.15" offset="0" />
      <stop stop-opacity="0" offset="1" />
    </linearGradient>
    <path id="back"
      d="M 26.1,84 Q 23.625,84 21.863,82.237 20.1,80.475 20.1,78  V 21  H 16  v -6  h 18.8  v -3  h 26.4  v 3  H 80  v 6  h -4.1 v 57 q 0,2.4 -1.8,4.2 Q 72.3,84 69.9,84 Z" />
    <path id="outline"
      d="M 26.1,84 Q 23.625,84 21.863,82.237 20.1,80.475 20.1,78 V 21 H 16 v -6 h 18.8 v -3 h 26.4 v 3 H 80 v 6 h -4.1 v 57 q 0,2.4 -1.8,4.2 Q 72.3,84 69.9,84 Z M 69.9,21 H 26.1 V 78 H 69.9 Z M 36.7,69.4 h 6 V 29.5 h -6 z m 16.6,0 h 6 V 29.5 h -6 z M 26.1,21 v 57 z" />
  </defs>
  <use xlink:href="#back" class="ColorScheme-Background" fill="currentColor" />
  <use xlink:href="#back" class="ColorScheme-Text" fill="currentColor" opacity="0.2" />
  <use xlink:href="#outline" class="ColorScheme-Text" fill="currentColor" />
  <use xlink:href="#outline" class="ColorScheme-Background" fill="currentColor" opacity="0.2" />
  <use xlink:href="#back" fill="url(#lg1)" />
</svg>