<?xml version="1.0" encoding="UTF-8" standalone="no"?>
<svg
   width="64"
   height="64"
   viewBox="0 0 64 64"
   version="1.1"
   id="svg2"
   sodipodi:docname="appimage.svg"
   inkscape:version="1.3.2 (091e20e, 2023-11-25, custom)"
   xmlns:inkscape="http://www.inkscape.org/namespaces/inkscape"
   xmlns:sodipodi="http://sodipodi.sourceforge.net/DTD/sodipodi-0.dtd"
   xmlns="http://www.w3.org/2000/svg"
   xmlns:svg="http://www.w3.org/2000/svg">
  <defs
     id="defs1" />
  <sodipodi:namedview
     pagecolor="#ffffff"
     bordercolor="#666666"
     borderopacity="1.0"
     id="namedview1"
     inkscape:showpageshadow="2"
     inkscape:pageopacity="0.0"
     inkscape:pagecheckerboard="0"
     inkscape:deskcolor="#d1d1d1"
     inkscape:zoom="13.734375"
     inkscape:cx="31.963595"
     inkscape:cy="32"
     inkscape:window-width="1920"
     inkscape:window-height="1057"
     inkscape:window-x="3832"
     inkscape:window-y="-8"
     inkscape:window-maximized="1"
     inkscape:current-layer="svg2" />
  <path
     style="color:#000000;fill:#000000;fill-opacity:0.75;stroke-linecap:round;stroke-linejoin:round;-inkscape-stroke:none"
     d="M 22.503906,22 C 21.676002,22 21,22.676002 21,23.503906 V 42.496094 C 21,43.323998 21.676002,44 22.503906,44 H 41.496094 C 42.323998,44 43,43.323998 43,42.496094 V 23.503906 C 43,22.676002 42.323998,22 41.496094,22 Z m 0,0.550781 h 18.992188 c 0.532718,0 0.953125,0.420407 0.953125,0.953125 v 18.992188 c 0,0.532718 -0.420407,0.953125 -0.953125,0.953125 H 22.503906 c -0.532718,0 -0.953125,-0.420407 -0.953125,-0.953125 V 23.503906 c 0,-0.532718 0.420407,-0.953125 0.953125,-0.953125 z"
     id="rect1" />
  <path
     d="m 30.35,24.218 v 3.3 h -1.753 l 3.403,3.85 3.403,-3.85 h -1.753 v -3.3 z"
     style="display:inline;overflow:visible;visibility:visible;fill:#1a1a1a;fill-opacity:0.75;fill-rule:nonzero;stroke:none;stroke-width:0.551;marker:none;enable-background:accumulate"
     id="path1" />
  <path
     style="display:inline;overflow:visible;visibility:visible;fill:#1a1a1a;fill-opacity:0.75;fill-rule:nonzero;stroke:none;stroke-width:0.551;marker:none;enable-background:accumulate"
     d="m 31.398,31.918 c -0.095,0 -0.155,0.162 -0.155,0.361 v 1.255 c -0.383,0.087 -0.743,0.243 -1.066,0.447 L 29.284,33.087 C 29.144,32.946 28.991,32.882 28.923,32.949 l -0.842,0.842 c -0.067,0.067 -0.003,0.22 0.138,0.361 l 0.894,0.894 c -0.204,0.322 -0.36,0.683 -0.447,1.066 h -1.255 c -0.199,0 -0.361,0.06 -0.361,0.155 v 1.203 c 0,0.095 0.162,0.155 0.361,0.155 h 1.255 c 0.087,0.383 0.243,0.743 0.447,1.066 l -0.894,0.894 c -0.141,0.141 -0.205,0.294 -0.138,0.361 l 0.842,0.842 c 0.067,0.067 0.22,0.003 0.361,-0.137 l 0.894,-0.894 c 0.322,0.204 0.683,0.36 1.066,0.447 v 1.255 c 0,0.199 0.06,0.361 0.155,0.361 h 1.203 c 0.095,0 0.155,-0.162 0.155,-0.361 v -1.255 c 0.383,-0.087 0.743,-0.243 1.066,-0.447 l 0.894,0.894 c 0.141,0.141 0.294,0.205 0.361,0.138 l 0.842,-0.842 c 0.067,-0.067 0.003,-0.22 -0.138,-0.361 l -0.894,-0.894 c 0.204,-0.322 0.36,-0.683 0.447,-1.066 h 1.255 c 0.199,0 0.361,-0.06 0.361,-0.155 v -1.203 c 0,-0.095 -0.162,-0.155 -0.361,-0.155 H 35.334 C 35.247,35.729 35.091,35.368 34.888,35.046 l 0.894,-0.894 c 0.141,-0.141 0.205,-0.294 0.138,-0.361 l -0.842,-0.842 c -0.067,-0.067 -0.22,-0.003 -0.361,0.138 l -0.894,0.894 c -0.322,-0.204 -0.683,-0.36 -1.066,-0.447 v -1.255 c 0,-0.199 -0.06,-0.361 -0.155,-0.361 z M 32,35.338 c 0.841,0 1.53,0.689 1.53,1.53 0,0.841 -0.689,1.53 -1.53,1.53 -0.841,0 -1.53,-0.689 -1.53,-1.53 0,-0.841 0.689,-1.53 1.53,-1.53 z"
     id="path2" />
</svg>
