<svg version="1.1" viewBox="0 0 400 400" height="400" width="400" xmlns="http://www.w3.org/2000/svg"
  xmlns:svg="http://www.w3.org/2000/svg">
  <path d="m 285.568,102.354 1e-5,98.805 -85.568,49.403 v -98.805 z" />
  <path d="M 200,151.757 V 52.952 l -85.568,49.403 z" />
  <path
    d="m 118.26,88.07 c -8.85,5.109 -14.284,14.522 -14.284,24.741 v 77.892 c 0,10.219 5.435,19.632 14.284,24.741 l 67.456,38.946 c 8.85,5.109 19.719,5.109 28.569,0 l 67.456,-38.946 c 8.85,-5.109 14.284,-14.522 14.284,-24.741 V 112.811 c 0,-10.219 -5.435,-19.632 -14.284,-24.741 L 214.284,49.124 c -8.85,-5.109 -19.719,-5.109 -28.569,0 z m 85.568,-20.834 67.456,38.946 c 2.358,1.361 3.828,3.907 3.828,6.629 v 77.892 c 0,2.723 -1.47,5.268 -3.828,6.629 l -67.456,38.946 c -2.358,1.361 -5.297,1.361 -7.655,0 l -67.456,-38.946 c -2.358,-1.361 -3.828,-3.907 -3.828,-6.629 V 112.811 c 0,-2.723 1.47,-5.268 3.828,-6.629 L 196.173,67.236 c 2.358,-1.361 5.297,-1.361 7.655,0 z" />
</svg>