<svg width="1024" height="1024" version="1.1" xmlns="http://www.w3.org/2000/svg" xmlns:svg="http://www.w3.org/2000/svg">
  <path
    d="M 417.615 76.875 C 375.223 86.299 333.289 99.42 293.973 119.209 C 294.872 153.925 297.116 187.189 301.666 220.977 C 286.398 230.759 270.351 239.155 256.09 250.605 C 241.6 261.752 226.803 272.418 213.682 285.455 C 187.47 268.118 159.724 251.825 131.145 237.443 C 100.338 270.598 71.533 306.384 48.002 346.428 C 65.706 375.067 84.188 401.911 104.143 427.387 L 104.699 427.387 L 104.699 625.17 L 104.699 650.289 L 104.699 673.15 C 105.149 673.154 105.599 673.172 106.045 673.213 L 256.715 687.74 C 264.607 688.502 270.793 694.855 271.342 702.764 L 275.986 769.273 L 407.416 778.652 L 416.471 717.266 C 417.645 709.307 424.472 703.408 432.521 703.408 L 591.482 703.408 C 599.528 703.408 606.355 709.307 607.529 717.266 L 616.584 778.652 L 748.018 769.273 L 752.658 702.764 C 753.212 694.855 759.393 688.506 767.285 687.74 L 917.898 673.213 C 918.343 673.171 918.789 673.154 919.238 673.15 L 919.238 653.541 L 919.301 653.52 L 919.301 427.387 L 919.857 427.387 C 939.818 401.912 958.288 375.068 976 346.43 C 952.477 306.385 923.655 270.598 892.848 237.443 C 864.276 251.825 836.524 268.117 810.313 285.455 C 797.197 272.418 782.422 261.752 767.912 250.605 C 753.655 239.155 737.587 230.759 722.348 220.977 C 726.885 187.189 729.128 153.926 730.031 119.209 C 690.711 99.42 648.782 86.299 606.369 76.875 C 589.435 105.335 573.952 136.154 560.465 166.283 C 544.472 163.611 528.403 162.622 512.314 162.43 L 512.314 162.404 C 512.202 162.404 512.1 162.43 512.004 162.43 C 511.904 162.43 511.799 162.404 511.699 162.404 L 511.699 162.43 C 495.581 162.621 479.526 163.61 463.529 166.283 C 450.05 136.154 434.574 105.335 417.615 76.875 z M 298.416 436.398 C 348.567 436.398 389.215 477.017 389.215 527.15 C 389.215 577.318 348.567 617.957 298.416 617.957 C 248.29 617.957 207.629 577.317 207.629 527.15 C 207.629 477.017 248.289 436.398 298.416 436.398 z M 725.594 436.398 C 775.716 436.398 816.371 477.016 816.371 527.15 C 816.371 577.317 775.716 617.957 725.594 617.957 C 675.435 617.957 634.787 577.318 634.787 527.15 C 634.787 477.016 675.435 436.398 725.594 436.398 z M 511.992 489.508 C 528.135 489.508 541.248 501.415 541.248 516.068 L 541.248 599.658 C 541.248 614.323 528.135 626.221 511.992 626.221 C 495.849 626.221 482.768 614.323 482.768 599.658 L 482.768 516.068 C 482.768 501.416 495.849 489.508 511.992 489.508 z " />
  <path
    d="m 784.071,718.723 -4.666,66.864 c -0.562,8.059 -6.972,14.473 -15.031,15.052 L 603.885,812.09 c -0.391,0.029 -0.783,0.042 -1.17,0.042 -7.976,0 -14.856,-5.853 -16.034,-13.861 L 577.477,735.856 H 446.525 l -9.204,62.414 c -1.236,8.4 -8.746,14.44 -17.204,13.82 L 259.628,800.639 c -8.059,-0.579 -14.469,-6.993 -15.031,-15.052 l -4.666,-66.864 -135.481,-13.062 c 0.062,14.561 0.25,30.512 0.25,33.688 0,143.086 181.511,211.86 407.024,212.651 h 0.275 0.279 c 225.514,-0.791 406.962,-69.566 406.962,-212.651 0,-3.234 0.196,-19.119 0.262,-33.688 z" />
  <circle cx="307.091" cy="532.531" r="60.264" />
  <circle cx="716.905" cy="532.531" r="60.264" />
</svg>