<svg height="22" width="22" xmlns="http://www.w3.org/2000/svg">
  <style type="text/css" id="current-color-scheme">
    .ColorScheme-Text {
      color: #e2e2e5;
    }
  </style>
  <path
    d="m 4.583,19.25 q -1.169,0 -1.661,-1.043 -0.493,-1.043 0.241,-1.936 l 5.088,-6.188 V 4.583 H 7.333 q -0.39,0 -0.653,-0.264 Q 6.416,4.056 6.416,3.667 q 0,-0.39 0.264,-0.653 Q 6.943,2.75 7.333,2.75 h 7.333 q 0.39,0 0.653,0.264 0.264,0.264 0.264,0.653 0,0.39 -0.264,0.653 -0.264,0.264 -0.653,0.264 h -0.917 v 5.5 l 5.088,6.188 q 0.733,0.894 0.241,1.936 Q 18.585,19.25 17.416,19.25 Z M 6.416,16.5 H 15.583 L 12.466,12.833 H 9.533 Z M 4.583,17.417 H 17.416 l -5.5,-6.692 V 4.583 H 10.083 V 10.725 Z M 11,11 Z"
    class="ColorScheme-Text" fill="currentColor" />
</svg>