<svg height="22" width="22" xmlns="http://www.w3.org/2000/svg">
  <style type="text/css" id="current-color-scheme">
    .ColorScheme-Text {
      color: #e2e2e5;
    }
  </style>
  <path
    d="m 11,12.833 z m -9.167,5.5 V 9.167 q 0,-0.756 0.539,-1.295 0.539,-0.539 1.295,-0.539 h 2.75 V 5.5 q 0,-0.756 0.539,-1.295 Q 7.494,3.667 8.25,3.667 h 5.5 q 0.756,0 1.295,0.539 Q 15.583,4.744 15.583,5.5 v 1.833 h 2.75 q 0.756,0 1.295,0.539 0.539,0.539 0.539,1.295 V 18.333 Z M 7.333,13.75 v 0.917 H 5.5 V 13.75 H 3.667 V 16.5 H 18.333 V 13.75 H 16.5 v 0.917 H 14.667 V 13.75 Z M 3.667,9.167 V 11.917 H 5.5 V 11 h 1.833 v 0.917 H 14.667 V 11 H 16.5 v 0.917 h 1.833 V 9.167 Z M 8.25,7.333 h 5.5 V 5.5 h -5.5 z"
    class="ColorScheme-Text" fill="currentColor" />
</svg>