<svg height="22" width="22" xmlns="http://www.w3.org/2000/svg">
  <style type="text/css" id="current-color-scheme">
    .ColorScheme-Text {
      color: #e2e2e5;
    }
  </style>
  <path
    d="m 3.667,13.75 q -0.756,0 -1.295,-0.539 Q 1.833,12.673 1.833,11.917 V 3.667 q 0,-0.756 0.539,-1.295 0.539,-0.539 1.295,-0.539 h 8.25 q 0.756,0 1.295,0.539 Q 13.75,2.91 13.75,3.667 v 8.25 q 0,0.756 -0.539,1.295 Q 12.673,13.75 11.917,13.75 Z m 0,-1.833 H 11.917 V 3.667 H 3.667 Z M 7.333,10.313 6.233,8.8 4.583,11 H 11 L 8.892,8.25 Z m 8.25,9.854 q -1.146,0 -1.948,-0.802 -0.802,-0.802 -0.802,-1.948 0,-1.146 0.802,-1.948 0.802,-0.802 1.948,-0.802 0.252,0 0.47,0.046 0.218,0.046 0.447,0.115 v -4.744 h 3.667 v 1.833 h -1.833 v 5.5 q 0,1.146 -0.802,1.948 -0.802,0.802 -1.948,0.802 z m -11.917,-8.25 V 3.667 Z"
    class="ColorScheme-Text" fill="currentColor" />
</svg>