<svg height="22" width="22" xmlns="http://www.w3.org/2000/svg">
  <style type="text/css" id="current-color-scheme">
    .ColorScheme-Text {
      color: #e2e2e5;
    }
  </style>
  <path
    d="M 10.908,20.167 15.079,9.167 h 1.925 l 4.171,11 h -1.925 l -0.985,-2.796 h -4.446 l -0.985,2.796 z m -7.242,-2.75 -1.283,-1.283 4.629,-4.629 Q 6.21,10.702 5.557,9.671 4.904,8.64 4.354,7.333 H 6.279 Q 6.738,8.227 7.196,8.892 7.654,9.556 8.296,10.221 9.052,9.465 9.866,8.101 10.679,6.738 11.092,5.5 H 0.917 V 3.667 H 7.333 V 1.833 H 9.167 V 3.667 H 15.583 V 5.5 H 12.925 Q 12.444,7.15 11.481,8.892 10.519,10.633 9.579,11.55 l 2.2,2.246 -0.688,1.879 -2.796,-2.865 z m 10.725,-1.65 h 3.3 l -1.65,-4.675 z"
    class="ColorScheme-Text" fill="currentColor" />
</svg>