<svg height="22" width="22" xmlns="http://www.w3.org/2000/svg">
  <style type="text/css" id="current-color-scheme">
    .ColorScheme-Text {
      color: #e2e2e5;
    }
  </style>
  <path
    d="M 10.083,17.806 V 11.527 L 4.583,8.342 v 6.279 z m 1.833,0 5.5,-3.185 V 8.342 l -5.5,3.185 z M 11,9.946 16.431,6.806 11,3.667 5.569,6.806 Z M 3.667,16.225 Q 3.231,15.973 2.991,15.56 2.75,15.148 2.75,14.644 V 7.356 Q 2.75,6.852 2.991,6.44 3.231,6.027 3.667,5.775 L 10.083,2.085 Q 10.519,1.833 11,1.833 q 0.481,0 0.917,0.252 L 18.333,5.775 Q 18.769,6.027 19.009,6.44 19.25,6.852 19.25,7.356 v 7.288 q 0,0.504 -0.241,0.917 -0.241,0.413 -0.676,0.665 l -6.417,3.69 Q 11.481,20.167 11,20.167 q -0.481,0 -0.917,-0.252 z M 11,11 Z"
    class="ColorScheme-Text" fill="currentColor" />
</svg>