<svg height="22" width="22" xmlns="http://www.w3.org/2000/svg">
  <style type="text/css" id="current-color-scheme">
    .ColorScheme-Text {
      color: #e2e2e5;
    }
  </style>
  <path
    d="M 7.883,14.3 4.583,11 7.883,7.7 9.167,9.006 7.173,11 l 1.994,1.994 z m 6.233,0 L 12.833,12.994 14.827,11 12.833,9.006 14.117,7.7 l 3.3,3.3 z m -9.533,4.95 q -0.756,0 -1.295,-0.539 Q 2.75,18.173 2.75,17.417 V 13.75 h 1.833 v 3.667 H 8.25 V 19.25 Z m 9.167,0 v -1.833 h 3.667 V 13.75 H 19.25 v 3.667 q 0,0.756 -0.539,1.295 Q 18.173,19.25 17.417,19.25 Z m -11,-11 V 4.583 q 0,-0.756 0.539,-1.295 Q 3.827,2.75 4.583,2.75 H 8.25 V 4.583 H 4.583 V 8.25 Z m 14.667,0 V 4.583 H 13.75 V 2.75 h 3.667 q 0.756,0 1.295,0.539 Q 19.25,3.827 19.25,4.583 V 8.25 Z"
    class="ColorScheme-Text" fill="currentColor" />
</svg>