<svg xmlns="http://www.w3.org/2000/svg" height="30" viewBox="0 0 30 30" width="30">
   <defs>
      <style id="current-color-scheme" type="text/css">
         .ColorScheme-Background {
            color: #2e2e2e;
         }

         .ColorScheme-Text {
            color: #e0e0e0;
         }
      </style>
      <rect id="box" width="30" height="30" x="0" y="0" opacity="0" />
      <path id="icon"
         d="m 17.5,14.375 1.25,1.25 v 1.25 h -3.125 v 3.75 L 15,21.25 14.375,20.625 v -3.75 H 11.25 v -1.25 l 1.25,-1.25 V 10 H 11.875 V 8.75 h 6.25 V 10 H 17.5 Z m -4.469,1.25 h 3.938 L 16.25,14.906 V 10 h -2.5 v 4.906 z m 1.969,0 z" />
      <path id="border" d="m 13,2 h 11 q 4,0 4,4 v 18 q 0,4 -4,4 H 6 Q 2,28 2,24 V 6 Q 2,2 6,2 Z" />
   </defs>
   <g id="active-center">
      <use href="#box" />
      <rect width="30" height="30" x="0" y="0" opacity="0" />
      <use href="#icon" class="ColorScheme-Text" fill="currentColor" />
   </g>
   <g id="inactive-center" transform="translate(42)">
      <use href="#box" />
      <use href="#icon" class="ColorScheme-Text" fill="currentColor" />
   </g>
   <g id="hover-center" transform="translate(84)">
      <use href="#box" />
      <use href="#icon" class="ColorScheme-Text" fill="currentColor" />
      <use href="#border" class="ColorScheme-Text" fill="currentColor" opacity="0.08" />
   </g>
   <g id="pressed-center" transform="translate(126)">
      <use href="#box" />
      <use href="#icon" class="ColorScheme-Text" fill="currentColor" />
      <use href="#border" class="ColorScheme-Text" fill="currentColor" opacity="0.1" />
   </g>
   <g id="deactivated-center" transform="translate(168)">
      <use href="#box" />
      <use href="#border" class="ColorScheme-Background" fill="currentColor" opacity="0.12" />
      <use href="#icon" class="ColorScheme-Text" fill="currentColor" opacity="0.38" />
   </g>
</svg>