<svg xmlns="http://www.w3.org/2000/svg" height="30" viewBox="0 0 30 30" width="30">
   <defs>
      <style id="current-color-scheme" type="text/css">
         .ColorScheme-Background {
            color: #2e2e2e;
         }

         .ColorScheme-Highlight {
            color: #95ccff;
         }

         .ColorScheme-Text {
            color: #e0e0e0;
         }
      </style>
   </defs>
   <g id="active-center">
      <rect width="30" height="30" x="0" y="0" opacity="0" />
      <path
         d="m 15,21.25 q -0.953125,0 -1.953125,-0.34375 -1,-0.34375 -1.8125,-0.9375 Q 10.421875,19.375 9.8984375,18.578125 9.375,17.78125 9.375,16.875 V 15 l 2.5,1.875 -0.96875,0.96875 q 0.453125,0.796875 1.4375,1.375 0.984375,0.578125 2.03125,0.734375 V 14.375 H 12.5 v -1.25 h 1.875 V 12.390625 Q 13.828125,12.1875 13.476563,11.710938 13.125,11.234375 13.125,10.625 13.125,9.84375 13.671875,9.296875 14.21875,8.75 15,8.75 q 0.78125,0 1.328125,0.546875 Q 16.875,9.84375 16.875,10.625 q 0,0.609375 -0.351563,1.085938 Q 16.171875,12.1875 15.625,12.390625 V 13.125 H 17.5 v 1.25 h -1.875 v 5.578125 q 1.046875,-0.15625 2.03125,-0.734375 0.984375,-0.578125 1.4375,-1.375 L 18.125,16.875 20.625,15 v 1.875 q 0,0.90625 -0.523437,1.703125 -0.523438,0.796875 -1.335938,1.390625 -0.8125,0.59375 -1.8125,0.9375 Q 15.953125,21.25 15,21.25 Z m 0,-10 q 0.265625,0 0.445313,-0.179687 Q 15.625,10.890625 15.625,10.625 q 0,-0.265625 -0.179687,-0.445312 Q 15.265625,10 15,10 14.734375,10 14.554688,10.179688 14.375,10.359375 14.375,10.625 q 0,0.265625 0.179688,0.445313 Q 14.734375,11.25 15,11.25 Z"
         class="ColorScheme-Text" fill="currentColor" />
   </g>
   <g id="inactive-center" transform="translate(42)">
      <rect width="30" height="30" x="0" y="0" opacity="0" />
      <path
         d="m 15,21.25 q -0.953125,0 -1.953125,-0.34375 -1,-0.34375 -1.8125,-0.9375 Q 10.421875,19.375 9.8984375,18.578125 9.375,17.78125 9.375,16.875 V 15 l 2.5,1.875 -0.96875,0.96875 q 0.453125,0.796875 1.4375,1.375 0.984375,0.578125 2.03125,0.734375 V 14.375 H 12.5 v -1.25 h 1.875 V 12.390625 Q 13.828125,12.1875 13.476563,11.710938 13.125,11.234375 13.125,10.625 13.125,9.84375 13.671875,9.296875 14.21875,8.75 15,8.75 q 0.78125,0 1.328125,0.546875 Q 16.875,9.84375 16.875,10.625 q 0,0.609375 -0.351563,1.085938 Q 16.171875,12.1875 15.625,12.390625 V 13.125 H 17.5 v 1.25 h -1.875 v 5.578125 q 1.046875,-0.15625 2.03125,-0.734375 0.984375,-0.578125 1.4375,-1.375 L 18.125,16.875 20.625,15 v 1.875 q 0,0.90625 -0.523437,1.703125 -0.523438,0.796875 -1.335938,1.390625 -0.8125,0.59375 -1.8125,0.9375 Q 15.953125,21.25 15,21.25 Z m 0,-10 q 0.265625,0 0.445313,-0.179687 Q 15.625,10.890625 15.625,10.625 q 0,-0.265625 -0.179687,-0.445312 Q 15.265625,10 15,10 14.734375,10 14.554688,10.179688 14.375,10.359375 14.375,10.625 q 0,0.265625 0.179688,0.445313 Q 14.734375,11.25 15,11.25 Z"
         class="ColorScheme-Text" fill="currentColor" />
   </g>
   <g id="hover-center" transform="translate(84)">
      <rect width="30" height="30" x="0" y="0" opacity="0" />
      <path
         d="m 15,21.25 q -0.953125,0 -1.953125,-0.34375 -1,-0.34375 -1.8125,-0.9375 Q 10.421875,19.375 9.8984375,18.578125 9.375,17.78125 9.375,16.875 V 15 l 2.5,1.875 -0.96875,0.96875 q 0.453125,0.796875 1.4375,1.375 0.984375,0.578125 2.03125,0.734375 V 14.375 H 12.5 v -1.25 h 1.875 V 12.390625 Q 13.828125,12.1875 13.476563,11.710938 13.125,11.234375 13.125,10.625 13.125,9.84375 13.671875,9.296875 14.21875,8.75 15,8.75 q 0.78125,0 1.328125,0.546875 Q 16.875,9.84375 16.875,10.625 q 0,0.609375 -0.351563,1.085938 Q 16.171875,12.1875 15.625,12.390625 V 13.125 H 17.5 v 1.25 h -1.875 v 5.578125 q 1.046875,-0.15625 2.03125,-0.734375 0.984375,-0.578125 1.4375,-1.375 L 18.125,16.875 20.625,15 v 1.875 q 0,0.90625 -0.523437,1.703125 -0.523438,0.796875 -1.335938,1.390625 -0.8125,0.59375 -1.8125,0.9375 Q 15.953125,21.25 15,21.25 Z m 0,-10 q 0.265625,0 0.445313,-0.179687 Q 15.625,10.890625 15.625,10.625 q 0,-0.265625 -0.179687,-0.445312 Q 15.265625,10 15,10 14.734375,10 14.554688,10.179688 14.375,10.359375 14.375,10.625 q 0,0.265625 0.179688,0.445313 Q 14.734375,11.25 15,11.25 Z"
         class="ColorScheme-Text" fill="currentColor" />
      <path d="m 13,2 h 11 q 4,0 4,4 v 18 q 0,4 -4,4 H 6 Q 2,28 2,24 V 6 Q 2,2 6,2 Z" class="ColorScheme-Highlight"
         fill="currentColor" opacity="0.08" />
   </g>
   <g id="pressed-center" transform="translate(126)">
      <rect width="30" height="30" x="0" y="0" opacity="0" />
      <path
         d="m 15,21.25 q -0.953125,0 -1.953125,-0.34375 -1,-0.34375 -1.8125,-0.9375 Q 10.421875,19.375 9.8984375,18.578125 9.375,17.78125 9.375,16.875 V 15 l 2.5,1.875 -0.96875,0.96875 q 0.453125,0.796875 1.4375,1.375 0.984375,0.578125 2.03125,0.734375 V 14.375 H 12.5 v -1.25 h 1.875 V 12.390625 Q 13.828125,12.1875 13.476563,11.710938 13.125,11.234375 13.125,10.625 13.125,9.84375 13.671875,9.296875 14.21875,8.75 15,8.75 q 0.78125,0 1.328125,0.546875 Q 16.875,9.84375 16.875,10.625 q 0,0.609375 -0.351563,1.085938 Q 16.171875,12.1875 15.625,12.390625 V 13.125 H 17.5 v 1.25 h -1.875 v 5.578125 q 1.046875,-0.15625 2.03125,-0.734375 0.984375,-0.578125 1.4375,-1.375 L 18.125,16.875 20.625,15 v 1.875 q 0,0.90625 -0.523437,1.703125 -0.523438,0.796875 -1.335938,1.390625 -0.8125,0.59375 -1.8125,0.9375 Q 15.953125,21.25 15,21.25 Z m 0,-10 q 0.265625,0 0.445313,-0.179687 Q 15.625,10.890625 15.625,10.625 q 0,-0.265625 -0.179687,-0.445312 Q 15.265625,10 15,10 14.734375,10 14.554688,10.179688 14.375,10.359375 14.375,10.625 q 0,0.265625 0.179688,0.445313 Q 14.734375,11.25 15,11.25 Z"
         class="ColorScheme-Text" fill="currentColor" />
      <path d="m 13,2 h 11 q 4,0 4,4 v 18 q 0,4 -4,4 H 6 Q 2,28 2,24 V 6 Q 2,2 6,2 Z" class="ColorScheme-Highlight"
         fill="currentColor" opacity="0.1" />
   </g>
   <g id="deactivated-center" transform="translate(168)">
      <rect width="30" height="30" x="0" y="0" opacity="0" />
      <path d="m 13,2 h 11 q 4,0 4,4 v 18 q 0,4 -4,4 H 6 Q 2,28 2,24 V 6 Q 2,2 6,2 Z" class="ColorScheme-Background"
         fill="currentColor" opacity="0.12" />
      <path
         d="m 15,21.25 q -0.953125,0 -1.953125,-0.34375 -1,-0.34375 -1.8125,-0.9375 Q 10.421875,19.375 9.8984375,18.578125 9.375,17.78125 9.375,16.875 V 15 l 2.5,1.875 -0.96875,0.96875 q 0.453125,0.796875 1.4375,1.375 0.984375,0.578125 2.03125,0.734375 V 14.375 H 12.5 v -1.25 h 1.875 V 12.390625 Q 13.828125,12.1875 13.476563,11.710938 13.125,11.234375 13.125,10.625 13.125,9.84375 13.671875,9.296875 14.21875,8.75 15,8.75 q 0.78125,0 1.328125,0.546875 Q 16.875,9.84375 16.875,10.625 q 0,0.609375 -0.351563,1.085938 Q 16.171875,12.1875 15.625,12.390625 V 13.125 H 17.5 v 1.25 h -1.875 v 5.578125 q 1.046875,-0.15625 2.03125,-0.734375 0.984375,-0.578125 1.4375,-1.375 L 18.125,16.875 20.625,15 v 1.875 q 0,0.90625 -0.523437,1.703125 -0.523438,0.796875 -1.335938,1.390625 -0.8125,0.59375 -1.8125,0.9375 Q 15.953125,21.25 15,21.25 Z m 0,-10 q 0.265625,0 0.445313,-0.179687 Q 15.625,10.890625 15.625,10.625 q 0,-0.265625 -0.179687,-0.445312 Q 15.265625,10 15,10 14.734375,10 14.554688,10.179688 14.375,10.359375 14.375,10.625 q 0,0.265625 0.179688,0.445313 Q 14.734375,11.25 15,11.25 Z"
         class="ColorScheme-Text" fill="currentColor" opacity="0.38" />
   </g>
</svg>