<svg xmlns="http://www.w3.org/2000/svg" height="42" viewBox="0 0 42 42" width="42">
  <defs>
    <style id="current-color-scheme" type="text/css">
      .ColorScheme-Background {
        color: #2e2e2e;
      }

      .ColorScheme-Text {
        color: #e0e0e0;
      }
    </style>
  </defs>
  <g id="active-center" transform="translate(0)">
    <path d="m 21,6 h13 q8,0 8,8 v 14 q 0,8 -8,8 h -26 q -8,0 -8,-8 v -14 q 0,-8 8,-8 z" opacity="0" />
    <path d="M 16,27.25 14.75,26 l 5,-5 -5,-5 1.25,-1.25 5,5 5,-5 1.25,1.25 -5,5 5,5 -1.25,1.25 -5,-5 z"
      class="ColorScheme-Text" fill="currentColor" />
  </g>
  <g id="inactive-center" transform="translate(42)">
    <path d="m 21,6 h13 q8,0 8,8 v 14 q 0,8 -8,8 h -26 q -8,0 -8,-8 v -14 q 0,-8 8,-8 z" opacity="0" />
    <path d="M 16,27.25 14.75,26 l 5,-5 -5,-5 1.25,-1.25 5,5 5,-5 1.25,1.25 -5,5 5,5 -1.25,1.25 -5,-5 z"
      class="ColorScheme-Text" fill="currentColor" />
  </g>
  <g id="hover-center" transform="translate(84)">
    <path d="m 21,6 h13 q8,0 8,8 v 14 q 0,8 -8,8 h -26 q -8,0 -8,-8 v -14 q 0,-8 8,-8 z" fill="#c42b1c" />
    <path d="M 16,27.25 14.75,26 l 5,-5 -5,-5 1.25,-1.25 5,5 5,-5 1.25,1.25 -5,5 5,5 -1.25,1.25 -5,-5 z"
      fill="#ffffff" />
  </g>
  <g id="pressed-center" transform="translate(126)">
    <path d="m 21,6 h13 q8,0 8,8 v 14 q 0,8 -8,8 h -26 q -8,0 -8,-8 v -14 q 0,-8 8,-8 z" fill="#c42b1c" />
    <path d="M 16,27.25 14.75,26 l 5,-5 -5,-5 1.25,-1.25 5,5 5,-5 1.25,1.25 -5,5 5,5 -1.25,1.25 -5,-5 z"
      fill="#ffffff" />
    <path d="m 21,6 h13 q8,0 8,8 v 14 q 0,8 -8,8 h -26 q -8,0 -8,-8 v -14 q 0,-8 8,-8 z" class="ColorScheme-Text"
      fill="currentColor" opacity="0.1" />
  </g>
  <g id="deactivated-center" transform="translate(168)">
    <path d="m 21,6 h13 q8,0 8,8 v 14 q 0,8 -8,8 h -26 q -8,0 -8,-8 v -14 q 0,-8 8,-8 z" class="ColorScheme-Background"
      fill="currentColor" opacity="0.12" />
    <path d="M 16,27.25 14.75,26 l 5,-5 -5,-5 1.25,-1.25 5,5 5,-5 1.25,1.25 -5,5 5,5 -1.25,1.25 -5,-5 z"
      class="ColorScheme-Text" fill="currentColor" opacity="0.38" />
  </g>
</svg>