<svg xmlns="http://www.w3.org/2000/svg" height="30" viewBox="0 0 30 30" width="30">
  <style>
    .ColorScheme-Text {
      color: #e0e0e0;
    }

    .ColorScheme-Background {
      color: #2e2e2e;
    }
  </style>
  <g id="active-center">
    <rect id="active-background" width="30" height="22" x="0" y="4" opacity="0" />
    <path id="active-icon"
      d="m 11.4,19.5 -0.9,-0.9 3.6,-3.6 -3.6,-3.6 0.9,-0.9 3.6,3.6 3.6,-3.6 0.9,0.9 -3.6,3.6 3.6,3.6 -0.9,0.9 -3.6,-3.6 z"
      class="ColorScheme-Text" fill="currentColor" />
  </g>
  <g id="inactive-center">
    <rect id="inactive-background" width="30" height="22" x="40" y="4" opacity="0" />
    <path id="inactive-icon"
      d="m 51.4,19.5 -0.9,-0.9 3.6,-3.6 -3.6,-3.6 0.9,-0.9 3.6,3.6 3.6,-3.6 0.9,0.9 -3.6,3.6 3.6,3.6 -0.9,0.9 -3.6,-3.6 z"
      class="ColorScheme-Text" fill="currentColor" />
  </g>
  <g id="hover-center">
    <rect id="hover-background" width="30" height="22" x="80" y="4" fill="#c42b1c" />
    <path id="hover-icon"
      d="m 91.4,19.5 -0.9,-0.9 3.6,-3.6 -3.6,-3.6 0.9,-0.9 3.6,3.6 3.6,-3.6 0.9,0.9 -3.6,3.6 3.6,3.6 -0.9,0.9 -3.6,-3.6 z"
      fill="#ffffff" />
  </g>
  <g id="pressed-center">
    <rect id="pressed-background" width="30" height="22" x="120" y="4" fill="#c42b1c" />
    <path id="pressed-icon"
      d="m 131.4,19.5 -0.9,-0.9 3.6,-3.6 -3.6,-3.6 0.9,-0.9 3.6,3.6 3.6,-3.6 0.9,0.9 -3.6,3.6 3.6,3.6 -0.9,0.9 -3.6,-3.6 z"
      fill="#ffffff" />
    <rect id="pressed-state-layer" width="30" height="22" x="120" y="4" class="ColorScheme-Text" fill="currentColor"
      opacity="0.1" />
  </g>
  <g id="deactivated-center">
    <rect id="deactivated-background" width="30" height="22" x="160" y="4" class="ColorScheme-Background"
      fill="currentColor" opacity="0.12" />
    <path id="deactivated-icon"
      d="m 171.4,19.5 -0.9,-0.9 3.6,-3.6 -3.6,-3.6 0.9,-0.9 3.6,3.6 3.6,-3.6 0.9,0.9 -3.6,3.6 3.6,3.6 -0.9,0.9 -3.6,-3.6 z"
      class="ColorScheme-Text" fill="currentColor" opacity="0.38" />
  </g>
</svg>