<?xml version="1.0" encoding="UTF-8" standalone="no"?>
<svg width="30" height="30" viewBox="0 0 30 30" version="1.1" id="svg1"
  inkscape:version="1.3.2 (091e20e, 2023-11-25, custom)" sodipodi:docname="close.svg"
  xmlns:inkscape="http://www.inkscape.org/namespaces/inkscape"
  xmlns:sodipodi="http://sodipodi.sourceforge.net/DTD/sodipodi-0.dtd" xmlns="http://www.w3.org/2000/svg"
  xmlns:svg="http://www.w3.org/2000/svg">
  <sodipodi:namedview id="namedview1" pagecolor="#808080" bordercolor="#666666" borderopacity="1.0"
    inkscape:showpageshadow="2" inkscape:pageopacity="0.0" inkscape:pagecheckerboard="true" inkscape:deskcolor="#d1d1d1"
    inkscape:document-units="px" showgrid="true" inkscape:zoom="8.8593098" inkscape:cx="29.291221"
    inkscape:cy="19.01954" inkscape:window-width="1920" inkscape:window-height="1057" inkscape:window-x="-8"
    inkscape:window-y="-8" inkscape:window-maximized="1" inkscape:current-layer="layer1" />
  <defs id="defs1" />
  <g inkscape:label="Layer 1" inkscape:groupmode="layer" id="layer1">
    <style id="style1">
      .ColorScheme-Text {
        color: #e0e0e0;
      }

      .ColorScheme-Background {
        color: #2e2e2e;
      }
    </style>
    <g id="active-center">
      <rect id="active-background" width="30" height="22" x="0" y="4" opacity='0' />
      <path id="active-icon"
        d="M 9.4,22 8,20.6 13.6,15 8,9.4000002 l 1.4,-1.4 L 15,13.6 l 5.6,-5.5999998 1.4,1.4 L 16.4,15 22,20.6 20.6,22 15,16.4 Z"
        class="ColorScheme-Text" fill="currentColor" />
    </g>
    <g id="inactive-center">
      <rect id="inactive-background" width="30" height="22" x="40" y="4" opacity='0' />
      <path id="inactive-icon"
        d="m 49.4,22.000001 -1.4,-1.4 5.6,-5.6 -5.6,-5.6 1.4,-1.4 5.6,5.6 5.6,-5.6 1.4,1.4 -5.6,5.6 5.6,5.6 -1.4,1.4 -5.6,-5.6 z"
        class="ColorScheme-Text" fill="currentColor" />
    </g>
    <g id="hover-center">
      <rect id="hover-background" width="30" height="22" x="80" y="4" fill="#c42b1c" />
      <path id="hover-icon"
        d="m 89.399997,22 -1.4,-1.4 5.6,-5.6 -5.6,-5.6 1.4,-1.4 5.6,5.6 L 100.6,8 102,9.4 96.399997,15 102,20.6 100.6,22 94.999997,16.4 Z"
        fill="#ffffff" />
    </g>
    <g id="pressed-center">
      <rect id="pressed-background" width="30" height="22" x="120" y="4" fill="#c42b1c" />
      <path id="pressed-icon"
        d="M 129.4,22 128,20.6 133.6,15 128,9.4 129.4,8 135,13.6 140.6,8 142,9.4 136.4,15 142,20.6 140.6,22 135,16.4 Z"
        fill="#ffffff" />
      <rect id="pressed-state-layer" width="30" height="22" x="120" y="4" class="ColorScheme-Text" fill="currentColor"
        opacity="0.1" />
    </g>
    <g id="deactivated-center">
      <rect id="deactivated-background" width="30" height="22" x="160" y="4" class="ColorScheme-Background"
        fill="currentColor" opacity="0.12" />
      <path id="deactivated-icon"
        d="M 169.4,22 168,20.6 173.6,15 168,9.4 169.4,8 175,13.6 180.6,8 182,9.4 176.4,15 182,20.6 180.6,22 175,16.4 Z"
        class="ColorScheme-Text" fill="currentColor" opacity="0.38" />
    </g>
  </g>
</svg>