<svg width="164" height="164" viewBox="0 0 164 164" version="1.1" xmlns:xlink="http://www.w3.org/1999/xlink"
  xmlns="http://www.w3.org/2000/svg" xmlns:svg="http://www.w3.org/2000/svg">
  <defs>
    <style id="current-color-scheme" type="text/css">
      .ColorScheme-Background {
        color: #2e2e2e;
      }

      .ColorScheme-ViewBackground {
        color: #1e2022;
      }
    </style>
    <linearGradient id="bg">
      <stop stop-opacity="1" offset="0.667" />
      <stop stop-opacity="0" offset="1" />
    </linearGradient>
    <linearGradient xlink:href="#bg" id="bg-l" x1="23" y1="45" x2="11" y2="45" gradientUnits="userSpaceOnUse" />
    <linearGradient xlink:href="#bg" id="bg-r" x1="59" y1="45" x2="71" y2="45" gradientUnits="userSpaceOnUse" />
    <radialGradient xlink:href="#bg" id="bg-bl" cx="23" cy="63" r="12" gradientUnits="userSpaceOnUse" />
    <linearGradient xlink:href="#bg" id="bg-b" x1="41" y1="63" x2="41" y2="75" gradientUnits="userSpaceOnUse" />
    <radialGradient xlink:href="#bg" id="bg-br" cx="59" cy="63" r="12" gradientUnits="userSpaceOnUse" />
    <linearGradient id="ag">
      <stop stop-opacity="1" offset="0.2" />
      <stop stop-opacity="0" offset="1" />
    </linearGradient>
    <radialGradient xlink:href="#ag" id="ag-tl" cx="23" cy="31" r="15" gradientUnits="userSpaceOnUse" />
    <radialGradient xlink:href="#ag" id="ag-tr" cx="59" cy="31" r="15" gradientUnits="userSpaceOnUse" />
    <linearGradient xlink:href="#ag" id="ag-l" x1="23" y1="49" x2="8" y2="49" gradientUnits="userSpaceOnUse" />
    <linearGradient xlink:href="#ag" id="ag-r" x1="59" y1="49" x2="74" y2="49" gradientUnits="userSpaceOnUse" />
    <radialGradient xlink:href="#ag" id="ag-bl" cx="23" cy="67" r="15" gradientUnits="userSpaceOnUse" />
    <linearGradient xlink:href="#ag" id="ag-b" x1="41" y1="67" x2="41" y2="82" gradientUnits="userSpaceOnUse" />
    <radialGradient xlink:href="#ag" id="ag-br" cx="59" cy="67" r="15" gradientUnits="userSpaceOnUse" />
    <!-- MARK: Shapes -->
    <path id="b-tl" d="M 23,11 A 12,12 0 0 0 11,23 h 12 z" />
    <rect id="b-t" width="36" height="12" x="23" y="11" />
    <path id="b-tr" d="M 59,11 A 12,12 0 0 1 71,23 H 59 Z" />
    <rect id="b-l" width="12" height="36" x="11" y="23" />
    <rect id="b-c" width="36" height="36" x="23" y="23" />
    <rect id="b-r" width="12" height="36" x="59" y="23" />
    <path id="b-bl" d="M 23,71 A 12,12 0 0 1 11,59 h 12 z" />
    <rect id="b-b" width="36" height="12" x="23" y="59" />
    <path id="b-br" d="M 59,71 A 12,12 0 0 0 71,59 H 59 Z" />
  </defs>
  <g id="decoration-topleft">
    <g id="sh-tl">
      <rect width="23" height="23" x="0" y="0" fill="none" />
      <path d="M 11.078 21.922 A 15 15 0 0 0 10.334 23 L 11 23 A 12 12 0 0 1 11.078 21.922 z" fill="url(#ag-tl)"
        opacity="0.15" />
    </g>
    <!-- <use xlink:href="#sh-tl" /> -->
    <use xlink:href="#b-tl" class="ColorScheme-Background" fill="currentColor" />
  </g>
  <g id="decoration-top">
    <rect id="sh-t" width="36" height="23" x="23" y="0" fill="none" />
    <use xlink:href="#b-t" class="ColorScheme-Background" fill="currentColor" />
  </g>
  <g id="decoration-topright">
    <g id="sh-tr">
      <rect width="23" height="23" x="59" y="0" fill="none" />
      <path d="M 70.949 21.938 A 12 12 0 0 1 71 23 L 71.688 23 A 15 15 0 0 0 70.949 21.938 z" fill="url(#ag-tr)"
        opacity="0.15" />
    </g>
    <use xlink:href="#b-tr" class="ColorScheme-Background" fill="currentColor" />
  </g>
  <g id="decoration-left">
    <g id="sh-l">
      <rect width="23" height="36" x="0" y="23" fill="none" />
      <path d="M 10.334 23 A 15 15 0 0 0 8 31 L 11 31 L 11 23 L 10.334 23 z" fill="url(#ag-tl)" opacity="0.15" />
      <rect width="3" height="28" x="8" y="31" fill="url(#ag-l)" opacity="0.15" />
    </g>
    <use xlink:href="#b-l" class="ColorScheme-Background" fill="currentColor" />
  </g>
  <use id="decoration-center" xlink:href="#b-c" class="ColorScheme-Background" fill="currentColor" />
  <g id="decoration-right">
    <g id="sh-r">
      <rect width="23" height="36" x="59" y="23" fill="none" />
      <path d="M 71 23 L 71 31 L 74 31 A 15 15 0 0 0 71.688 23 L 71 23 z" fill="url(#ag-tr)" opacity="0.15" />
      <rect width="3" height="28" x="71" y="31" fill="url(#ag-r)" opacity="0.15" />
    </g>
    <use xlink:href="#b-r" class="ColorScheme-Background" fill="currentColor" />
  </g>
  <g id="decoration-bottomleft">
    <g id="sh-bl">
      <rect width="23" height="23" x="0" y="59" fill="none" />
      <path d="M 8 59 L 8 67 L 14.074 67 A 12 12 0 0 1 11 59 L 8 59 z" fill="url(#ag-l)" opacity="0.15" />
      <path d="M 8 67 A 15 15 0 0 0 23 82 L 23 71 A 12 12 0 0 1 14.074 67 L 8 67 z" fill="url(#ag-bl)" opacity="0.15" />
      <path d="M 11 59 L 11 63 L 11.717 63 A 12 12 0 0 1 11 59 z" fill="url(#bg-l)" opacity="0.3" />
      <path d="M 11 63 A 12 12 0 0 0 23 75 L 23 71 A 12 12 0 0 1 11.717 63 L 11 63 z" fill="url(#bg-bl)"
        opacity="0.3" />
    </g>
    <use xlink:href="#b-bl" class="ColorScheme-Background" fill="currentColor" />
  </g>
  <g id="decoration-bottom">
    <g id="sh-b">
      <rect width="36" height="23" x="23" y="59" fill="none" />
      <rect width="36" height="11" x="23" y="71" fill="url(#ag-b)" opacity="0.15" />
      <rect width="36" height="4" x="23" y="71" fill="url(#bg-b)" opacity="0.3" />
    </g>
    <use xlink:href="#b-b" class="ColorScheme-Background" fill="currentColor" />
  </g>
  <g id="decoration-bottomright">
    <g id="sh-br">
      <rect width="23" height="23" x="59" y="59" fill="none" />
      <path d="M 71 59 A 12 12 0 0 1 67.926 67 L 74 67 L 74 59 L 71 59 z" fill="url(#ag-r)" opacity="0.15" />
      <path d="M 67.926 67 A 12 12 0 0 1 59 71 L 59 82 A 15 15 0 0 0 74 67 L 67.926 67 z" fill="url(#ag-br)"
        opacity="0.15" />
      <path d="M 71 59 A 12 12 0 0 1 70.283 63 L 71 63 L 71 59 z" fill="url(#bg-r)" opacity="0.3" />
      <path d="M 70.283 63 A 12 12 0 0 1 59 71 L 59 75 A 12 12 0 0 0 71 63 L 70.283 63 z" fill="url(#bg-br)"
        opacity="0.3" />
    </g>
    <use xlink:href="#b-br" class="ColorScheme-Background" fill="currentColor" />
  </g>
  <g id="decoration-inactive-topleft" transform="translate(82)">
    <use xlink:href="#sh-tl" />
    <use xlink:href="#b-tl" class="ColorScheme-ViewBackground" fill="currentColor" />
  </g>
  <g id="decoration-inactive-top" transform="translate(82)">
    <use xlink:href="#sh-t" />
    <use xlink:href="#b-t" class="ColorScheme-ViewBackground" fill="currentColor" />
  </g>
  <g id="decoration-inactive-topright" transform="translate(82)">
    <use xlink:href="#sh-tr" />
    <use xlink:href="#b-tr" class="ColorScheme-ViewBackground" fill="currentColor" />
  </g>
  <g id="decoration-inactive-left" transform="translate(82)">
    <use xlink:href="#sh-l" />
    <use xlink:href="#b-l" class="ColorScheme-ViewBackground" fill="currentColor" />
  </g>
  <use id="decoration-inactive-center" xlink:href="#b-c" x="82" class="ColorScheme-ViewBackground"
    fill="currentColor" />
  <g id="decoration-inactive-right" transform="translate(82)">
    <use xlink:href="#sh-r" />
    <use xlink:href="#b-r" class="ColorScheme-ViewBackground" fill="currentColor" />
  </g>
  <g id="decoration-inactive-bottomleft" transform="translate(82)">
    <use xlink:href="#sh-bl" />
    <use xlink:href="#b-bl" class="ColorScheme-ViewBackground" fill="currentColor" />
  </g>
  <g id="decoration-inactive-bottom" transform="translate(82)">
    <use xlink:href="#sh-b" />
    <use xlink:href="#b-b" class="ColorScheme-ViewBackground" fill="currentColor" />
  </g>
  <g id="decoration-inactive-bottomright" transform="translate(82)">
    <use xlink:href="#sh-br" />
    <use xlink:href="#b-br" class="ColorScheme-ViewBackground" fill="currentColor" />
  </g>
  <use id="mask-topleft" xlink:href="#b-tl" transform="translate(0,82)" />
  <use id="mask-top" xlink:href="#b-t" transform="translate(0,82)" />
  <use id="mask-topright" xlink:href="#b-tr" transform="translate(0,82)" />
  <use id="mask-left" xlink:href="#b-l" transform="translate(0,82)" />
  <use id="mask-center" xlink:href="#b-c" transform="translate(0,82)" />
  <use id="mask-right" xlink:href="#b-r" transform="translate(0,82)" />
  <use id="mask-bottomleft" xlink:href="#b-bl" transform="translate(0,82)" />
  <use id="mask-bottom" xlink:href="#b-b" transform="translate(0,82)" />
  <use id="mask-bottomright" xlink:href="#b-br" transform="translate(0,82)" />
  <rect id="shadow-hint-top-margin" width="2" height="11" x="40" y="0" fill="#800080" />
  <rect id="shadow-hint-left-margin" width="11" height="2" x="0" y="40" fill="#800080" />
  <rect id="shadow-hint-right-margin" width="11" height="2" x="71" y="40" fill="#800080" />
  <rect id="shadow-hint-bottom-margin" width="2" height="11" x="40" y="71" fill="#800080" />
</svg>