<?xml version="1.0" encoding="UTF-8" standalone="no"?>
<svg id="svg1" height="100" viewBox="0 0 100 100" width="100" version="1.1" sodipodi:docname="decoration.svg"
  inkscape:version="1.3.2 (091e20e, 2023-11-25, custom)" xmlns:inkscape="http://www.inkscape.org/namespaces/inkscape"
  xmlns:sodipodi="http://sodipodi.sourceforge.net/DTD/sodipodi-0.dtd" xmlns:xlink="http://www.w3.org/1999/xlink"
  xmlns="http://www.w3.org/2000/svg" xmlns:svg="http://www.w3.org/2000/svg">
  <sodipodi:namedview id="namedview1" pagecolor="#ffffff" bordercolor="#666666" borderopacity="1.0"
    inkscape:showpageshadow="2" inkscape:pageopacity="0.0" inkscape:pagecheckerboard="0" inkscape:deskcolor="#d1d1d1"
    inkscape:zoom="6.1023315" inkscape:cx="59.075781" inkscape:cy="57.764807" inkscape:window-width="1920"
    inkscape:window-height="1057" inkscape:window-x="-8" inkscape:window-y="-8" inkscape:window-maximized="1"
    inkscape:current-layer="svg1" showguides="true" />
  <defs id="defs1">
  </defs>
  <style id="style1">
    .ColorScheme-Text {
      color: #e0e0e0;
    }

    .ColorScheme-Background {
      color: #2e2e2e;
    }

    .ColorScheme-ButtonBackground {
      color: #c4c4c4;
    }
  </style>
  <!-- shadow after  0px 8px blur 12px grow 6px opacity 0.15 -->
  <!-- shadow before 0px 4px blur 4px  grow 0px opacity 0.3 -->

  <!-- <path id="topleft-border" d="M 32,20 Q 20,20 20,32 h 4 q 0,-8 8,-8 z" class="ColorScheme-Background"
    fill="currentColor" opacity="0.75" />
  <path id="topleft-background" d="m 32,24 q -8,0 -8,8 h 8 z" class="ColorScheme-Background" fill="currentColor" />
  <rect id="top-border" width="36" height="4" x="32" y="20" class="ColorScheme-Background" fill="currentColor"
    opacity="0.75" />
  <rect id="top-background" width="36" height="8" x="32" y="24" class="ColorScheme-Background" fill="currentColor" />
  <path id="topright-border" d="m 68,20 q 12,0 12,12 h -4 q 0,-8 -8,-8 z" class="ColorScheme-Background"
    fill="currentColor" opacity="0.75" />
  <path id="topright-background" d="m 68,24 q 8,0 8,8 h -8 z" class="ColorScheme-Background" fill="currentColor" />
  <rect id="left-border" width="4" height="36" x="20" y="32" class="ColorScheme-Background" fill="currentColor"
    opacity="0.75" />
  <rect id="left-background" width="8" height="36" x="24" y="32" class="ColorScheme-Background" fill="currentColor" />
  <rect id="center" width="36" height="36" x="32" y="32" class="ColorScheme-Background" fill="currentColor" />
  <path id="bottomleft-border" d="M 32,80 Q 20,80 20,68 h 4 q 0,8 8,8 z" class="ColorScheme-Background"
    fill="currentColor" opacity="0.75" />
  <path id="bottomleft-background" d="m 32,76 q -8,0 -8,-8 h 8 z" class="ColorScheme-Background" fill="currentColor" />
  <rect id="right-border" width="4" height="36" x="76" y="32" class="ColorScheme-Background" fill="currentColor"
    opacity="0.75" />
  <rect id="right-background" width="8" height="36" x="68" y="32" class="ColorScheme-Background" fill="currentColor" />
  <rect id="bottom-border" width="36" height="4" x="32" y="76" class="ColorScheme-Background" fill="currentColor"
    opacity="0.75" />
  <rect id="bottom-background" width="36" height="8" x="32" y="68" class="ColorScheme-Background" fill="currentColor" />
  <path id="bottomright-border" d="m 68,80 q 12,0 12,-12 h -4 q 0,8 -8,8 z" class="ColorScheme-Background"
    fill="currentColor" opacity="0.75" /> -->
  <!-- <path id="bottomright-background" d="m 68,76 q 8,0 8,-8 h -8 z" class="ColorScheme-Background" fill="currentColor" /> -->
  <path id="base-tl" d="M 32,20 Q 20,20 20,32 h 12 z" fill="#808080" />
  <rect id="base-t" width="36" height="12" x="32" y="20" fill="#808080" />
  <path id="base-tr" d="m 68,20 q 12,0 12,12 h -12 z" fill="#808080" />
  <rect id="base-l" width="12" height="36" x="20" y="32" fill="#808080" />
  <rect id="base-c" width="36" height="36" x="32" y="32" fill="#808080" />
  <rect id="base-r" width="12" height="36" x="68" y="32" fill="#808080" />
  <path id="base-bl" d="M 32,80 Q 20,80 20,68 h 12 z" fill="#808080" />
  <rect id="base-b" width="36" height="12" x="32" y="68" fill="#808080" />
  <path id="base-br" d="m 68,80 q 12,0 12,-12 h -12 z" fill="#808080" />
</svg>