<?xml version="1.0" encoding="UTF-8" standalone="no"?>
<svg
   width="284"
   height="142"
   version="1.1"
   id="svg111"
   sodipodi:docname="decoration.svg"
   inkscape:version="1.1.1 (3bf5ae0d25, 2021-09-20)"
   xmlns:inkscape="http://www.inkscape.org/namespaces/inkscape"
   xmlns:sodipodi="http://sodipodi.sourceforge.net/DTD/sodipodi-0.dtd"
   xmlns:xlink="http://www.w3.org/1999/xlink"
   xmlns="http://www.w3.org/2000/svg"
   xmlns:svg="http://www.w3.org/2000/svg">
  <sodipodi:namedview
     id="namedview113"
     pagecolor="#ffffff"
     bordercolor="#666666"
     borderopacity="1.0"
     inkscape:pageshadow="2"
     inkscape:pageopacity="0.0"
     inkscape:pagecheckerboard="0"
     showgrid="false"
     inkscape:zoom="2.8284272"
     inkscape:cx="266.40247"
     inkscape:cy="28.461047"
     inkscape:window-width="2560"
     inkscape:window-height="1360"
     inkscape:window-x="0"
     inkscape:window-y="0"
     inkscape:window-maximized="1"
     inkscape:current-layer="svg111"
     showguides="false" />
  <defs
     id="rounded">
    <linearGradient
       id="linearGradient1003"
       x1="148"
       x2="148"
       y1="143"
       y2="128.5"
       gradientTransform="matrix(0,1.9999998,-1.9999998,0,398.99997,-226.99996)"
       gradientUnits="userSpaceOnUse"
       xlink:href="#linearGradient985" />
    <linearGradient
       id="linearGradient985">
      <stop
         style="stop-color:#000000;stop-opacity:1"
         offset="0"
         id="stop3" />
      <stop
         style="stop-color:#000000;stop-opacity:0"
         offset="1"
         id="stop5" />
    </linearGradient>
    <linearGradient
       id="linearGradient1007"
       x1="148"
       x2="148"
       y1="143"
       y2="128.5"
       gradientTransform="matrix(0,1.9999998,1.9999998,0,-256.99996,-226.99996)"
       gradientUnits="userSpaceOnUse"
       xlink:href="#linearGradient985" />
    <radialGradient
       id="radialGradient882"
       cx="129.71"
       cy="144.271"
       r="11"
       fx="129.71"
       fy="144.271"
       gradientTransform="matrix(1.8641918,1.8641918,2.1818194,-2.1818194,-525.5768,183.96938)"
       gradientUnits="userSpaceOnUse"
       xlink:href="#linearGradient985" />
    <linearGradient
       id="linearGradient1022"
       x1="148"
       x2="148"
       y1="143"
       y2="128.5"
       gradientTransform="matrix(1.9999998,0,0,-1.9999998,-226.99996,398.99997)"
       gradientUnits="userSpaceOnUse"
       xlink:href="#linearGradient985" />
    <radialGradient
       id="radialGradient884"
       cx="129.71"
       cy="144.271"
       r="11"
       fx="129.71"
       fy="144.271"
       gradientTransform="matrix(-1.8641918,1.8641918,-2.1818194,-2.1818194,667.5768,183.96938)"
       gradientUnits="userSpaceOnUse"
       xlink:href="#linearGradient985" />
    <radialGradient
       id="radialGradient987"
       cx="129.71"
       cy="144.271"
       r="11"
       fx="129.71"
       fy="144.271"
       gradientTransform="matrix(1.8641918,-1.8641918,2.1818194,2.1818194,-525.5768,-41.969378)"
       gradientUnits="userSpaceOnUse"
       xlink:href="#linearGradient985" />
    <linearGradient
       id="linearGradient995"
       x1="148"
       x2="148"
       y1="143"
       y2="128.5"
       gradientTransform="matrix(1.9999998,0,0,1.9999998,-226.99996,-256.99996)"
       gradientUnits="userSpaceOnUse"
       xlink:href="#linearGradient985" />
    <radialGradient
       id="radialGradient876"
       cx="129.71"
       cy="144.271"
       r="11"
       fx="129.71"
       fy="144.271"
       gradientTransform="matrix(-1.8641918,-1.8641918,-2.1818194,2.1818194,667.5768,-41.969378)"
       gradientUnits="userSpaceOnUse"
       xlink:href="#linearGradient985" />
    <linearGradient
       id="linearGradient933"
       x1="148"
       x2="148"
       y1="143"
       y2="130.5"
       gradientTransform="matrix(1.9999998,0,0,-1.9999998,-73.999963,416.99997)"
       gradientUnits="userSpaceOnUse"
       xlink:href="#linearGradient985" />
    <radialGradient
       id="radialGradient935"
       cx="129.71"
       cy="144.271"
       r="11"
       fx="129.71"
       fy="144.271"
       gradientTransform="matrix(1.5454134,1.5454132,1.9517156,-1.9517158,-298.03074,210.12088)"
       gradientUnits="userSpaceOnUse"
       xlink:href="#linearGradient985" />
    <linearGradient
       id="linearGradient937"
       x1="148"
       x2="148"
       y1="143"
       y2="130.5"
       gradientTransform="matrix(0,1.9999998,1.9999998,0,-103.99996,-208.99996)"
       gradientUnits="userSpaceOnUse"
       xlink:href="#linearGradient985" />
    <linearGradient
       id="linearGradient961"
       x1="148"
       x2="148"
       y1="143"
       y2="132.409"
       gradientTransform="matrix(1.9999998,0,0,-1.9999998,-73.999963,416.99997)"
       gradientUnits="userSpaceOnUse"
       xlink:href="#linearGradient985" />
    <radialGradient
       id="radialGradient963"
       cx="129.71"
       cy="144.271"
       r="11"
       fx="129.71"
       fy="144.271"
       gradientTransform="matrix(-0.87721682,2.3739146,1.8707538,0.69128695,27.889062,-278.65268)"
       gradientUnits="userSpaceOnUse"
       xlink:href="#linearGradient985" />
    <linearGradient
       id="linearGradient965"
       x1="148"
       x2="148"
       y1="143"
       y2="130.5"
       gradientTransform="matrix(0,1.9999998,1.9999998,0,-103.99996,-208.99996)"
       gradientUnits="userSpaceOnUse"
       xlink:href="#linearGradient985" />
    <radialGradient
       id="radialGradient979"
       cx="129.71"
       cy="144.271"
       r="11"
       fx="129.71"
       fy="144.271"
       gradientTransform="matrix(1.5454134,1.5454132,1.9517156,-1.9517158,-298.03074,210.12088)"
       gradientUnits="userSpaceOnUse"
       xlink:href="#linearGradient985" />
    <radialGradient
       id="radialGradient991"
       cx="129.71"
       cy="144.271"
       r="11"
       fx="129.71"
       fy="144.271"
       gradientTransform="matrix(-0.87721682,2.3739146,1.8707538,0.69128695,27.889062,-278.65268)"
       gradientUnits="userSpaceOnUse"
       xlink:href="#linearGradient985" />
  </defs>
  <rect
     id="hint-tile-center"
     style="fill:#ff0000"
     width="7"
     height="7"
     x="0"
     y="-7" />
  <rect
     id="decoration-center"
     style="fill:#31363b;opacity:0.75"
     width="80"
     height="80"
     x="31"
     y="31" />
  <g
     id="decoration-topright">
    <path
       id="shadow-topright"
       style="fill:url(#radialGradient876)"
       d="m 142,3e-6 v 30.999998 h -7 c 0,-20 -4,-24 -24,-24 V 3e-6 Z" />
    <path
       style="fill:#31363b;opacity:0.75"
       d="m 111,7.000001 v 23.999998 h 24 C 135,10.999084 131,7.000001 111,7.000001 Z"
       id="path27" />
  </g>
  <g
     id="decoration-top">
    <path
       style="fill:url(#linearGradient995)"
       d="m 31,-1e-6 v 6.999998 h 80 V -9.9999999e-7 Z"
       id="path30" />
    <rect
       style="fill:#31363b;opacity:0.75"
       width="80"
       height="24"
       x="31"
       y="7.000001"
       id="rect32" />
  </g>
  <g
     id="decoration-bottomright">
    <path
       id="shadow-bottomright"
       style="fill:url(#radialGradient884)"
       d="m 142,142 v -31 h -7 c 0,20 -4,24 -24,24 v 7 z" />
    <path
       style="fill:#31363b;opacity:0.75"
       d="m 111,135 v -24 h 24 c 0,20.00092 -4,24 -24,24 z"
       id="path40" />
  </g>
  <g
     id="decoration-bottom">
    <path
       style="fill:url(#linearGradient1022)"
       d="m 31,135 v 7 h 80 v -7 z"
       id="path43" />
    <rect
       style="fill:#31363b;opacity:0.75"
       width="80"
       height="24"
       x="31"
       y="-135"
       transform="scale(1,-1)"
       id="rect45" />
  </g>
  <g
     id="decoration-bottomleft">
    <path
       id="shadow-bottomleft"
       style="fill:url(#radialGradient882)"
       d="m 0,142 v -31 h 7 c 0,20 4,24 24,24 v 7 z" />
    <path
       style="fill:#31363b;opacity:0.75"
       d="M 31,135 V 111 H 7 c 0,20 3.99998,24 24,24 z"
       id="path49" />
  </g>
  <g
     id="decoration-left">
    <path
       style="fill:url(#linearGradient1007)"
       d="M 0,30.999997 V 111 H 7 V 30.999997 Z"
       id="path52" />
    <rect
       style="fill:#31363b;opacity:0.75"
       width="80"
       height="24"
       x="31"
       y="-31"
       transform="rotate(90)"
       id="rect54" />
  </g>
  <g
     id="decoration-right">
    <path
       style="fill:url(#linearGradient1003);opacity:1"
       d="M 135,30.999997 V 111 h 7 V 30.999997 Z"
       id="path57" />
    <rect
       style="fill:#31363b;opacity:0.75"
       width="80"
       height="24"
       x="31"
       y="-135"
       transform="rotate(90)"
       id="rect59" />
  </g>
  <rect
     id="shadow-hint-top-margin"
     style="fill:#ff00ff"
     width="4"
     height="7"
     x="69"
     y="0" />
  <rect
     id="shadow-hint-bottom-margin"
     style="fill:#ff00ff"
     width="4"
     height="7"
     x="69"
     y="135" />
  <rect
     id="shadow-hint-right-margin"
     style="fill:#ff00ff"
     width="7"
     height="4"
     x="135"
     y="69" />
  <rect
     id="shadow-hint-left-margin"
     style="fill:#ff00ff"
     width="7"
     height="4"
     x="0"
     y="69" />
  <rect
     id="decoration-inactive-center"
     style="fill:#31363b;opacity:0.7"
     width="80"
     height="80"
     x="173"
     y="31" />
  <g
     id="decoration-inactive-bottom"
     transform="translate(-11,-17.999999)"
     style="opacity:0.7">
    <path
       style="fill:url(#linearGradient933)"
       d="m 184,153 v 7 h 80 v -7 z"
       id="path71" />
    <rect
       style="fill:#31363b"
       width="80"
       height="24"
       x="184"
       y="-153"
       transform="scale(1,-1)"
       id="rect73" />
  </g>
  <g
     id="decoration-inactive-bottomleft"
     transform="translate(-11,-17.999999)"
     style="opacity:0.7">
    <path
       style="fill:url(#radialGradient935)"
       d="m 153,160 v -31 h 7 c 0,20 4,24 24,24 v 7 z"
       id="path76" />
    <path
       style="fill:#31363b"
       d="m 184,153 v -24 h -24 c 0,20 3.99998,24 24,24 z"
       id="path78" />
  </g>
  <g
     id="decoration-inactive-left"
     transform="translate(-11,-17.999999)"
     style="opacity:0.7">
    <path
       style="fill:url(#linearGradient937)"
       d="M 153,48.999996 V 129 h 7 V 48.999996 Z"
       id="path81" />
    <rect
       style="fill:#31363b"
       width="80"
       height="24"
       x="49"
       y="-184"
       transform="rotate(90)"
       id="rect83" />
  </g>
  <g
     id="decoration-inactive-top"
     transform="rotate(180,218.5,80)"
     style="opacity:0.7">
    <path
       style="fill:url(#linearGradient961)"
       d="m 184,153 v 7 h 80 v -7 z"
       id="path86" />
    <rect
       style="fill:#31363b"
       width="80"
       height="24"
       x="184"
       y="-153"
       transform="scale(1,-1)"
       id="rect88" />
  </g>
  <g
     id="decoration-inactive-topleft"
     transform="rotate(90,227.5,74.499999)"
     style="opacity:0.7">
    <path
       style="fill:url(#radialGradient963)"
       d="m 153,160 v -31 h 7 c 0,20 4,24 24,24 v 7 z"
       id="path91" />
    <path
       style="fill:#31363b"
       d="m 184,153 v -24 h -24 c 0,20 3.99998,24 24,24 z"
       id="path93" />
  </g>
  <g
     id="decoration-inactive-right"
     transform="rotate(180,218.5,80)"
     style="opacity:0.7">
    <path
       style="fill:url(#linearGradient965)"
       d="M 153,48.999996 V 129 h 7 V 48.999996 Z"
       id="path96" />
    <rect
       style="fill:#31363b"
       width="80"
       height="24"
       x="49"
       y="-184"
       transform="rotate(90)"
       id="rect98" />
  </g>
  <g
     id="decoration-inactive-bottomright"
     transform="matrix(-1,0,0,1,437,-17.999999)"
     style="opacity:0.7">
    <path
       style="fill:url(#radialGradient979)"
       d="m 153,160 v -31 h 7 c 0,20 4,24 24,24 v 7 z"
       id="path101" />
    <path
       style="fill:#31363b"
       d="m 184,153 v -24 h -24 c 0,20 3.99998,24 24,24 z"
       id="path103" />
  </g>
  <g
     id="decoration-inactive-topright"
     transform="matrix(0,1,1,0,124,-153)"
     style="opacity:0.7">
    <path
       style="fill:url(#radialGradient991)"
       d="m 153,160 v -31 h 7 c 0,20 4,24 24,24 v 7 z"
       id="path106" />
    <path
       style="fill:#31363b"
       d="m 184,153 v -24 h -24 c 0,20 3.99998,24 24,24 z"
       id="path108" />
  </g>
  <rect
     style="opacity:0;fill:#ff0000;stroke:none;stroke-width:3.02128;stroke-linecap:round;stroke-dashoffset:6"
     id="rect2149"
     width="80"
     height="31"
     x="344.75885"
     y="1.4571204" />
  <rect
     style="opacity:0;fill:#ff0000;stroke:none;stroke-width:3.0401;stroke-linecap:round;stroke-dashoffset:6"
     id="rect3043"
     width="81"
     height="31"
     x="344.75885"
     y="1.4571204" />
  <rect
     style="opacity:1;fill:#ff0000;stroke:none;stroke-width:1.88073;stroke-linecap:round;stroke-dashoffset:6"
     id="rect1853"
     width="31"
     height="31"
     x="285.93655"
     y="-86.708344" />
  <g
     id="mask-top"
     transform="translate(-65.181032,0.14912179)">
    <rect
       style="opacity:0;fill:#ff0000;stroke:none;stroke-width:3.02128;stroke-linecap:round;stroke-dashoffset:6"
       id="rect3123"
       width="80"
       height="31"
       x="409.93988"
       y="1.3079996" />
    <rect
       style="fill:#31363b"
       width="80"
       height="24"
       x="-489.93991"
       y="8.3079996"
       transform="scale(-1,1)"
       id="rect1113" />
  </g>
  <rect
     id="mask-center"
     style="opacity:1;fill:#31363b"
     width="80"
     height="80"
     x="344.75888"
     y="32.457119" />
  <g
     id="mask-bottom"
     transform="translate(-65.181032,0.14912179)">
    <rect
       style="opacity:0;fill:#ff0000;stroke:none;stroke-width:3.02128;stroke-linecap:round;stroke-dashoffset:6"
       id="rect2151"
       width="80"
       height="31"
       x="409.93991"
       y="112.308" />
    <rect
       style="opacity:1;fill:#31363b"
       width="80"
       height="24"
       x="409.93991"
       y="-136.308"
       transform="scale(1,-1)"
       id="rect1095" />
  </g>
  <g
     id="mask-bottomleft"
     transform="translate(-65.181032,0.14912179)">
    <rect
       style="opacity:0;fill:#ff0000;stroke:none;stroke-width:1.88073;stroke-linecap:round;stroke-dashoffset:6"
       id="rect2143"
       width="31"
       height="31"
       x="378.93988"
       y="112.308" />
    <path
       style="opacity:1;fill:#31363b"
       d="m 409.93992,136.308 v -24 h -24 c 0,20 3.99998,24 24,24 z"
       id="path1101" />
  </g>
  <g
     id="mask-left"
     transform="translate(-65.181032,0.14912179)">
    <rect
       style="opacity:0;fill:#ff0000;stroke:none;stroke-width:3.02128;stroke-linecap:round;stroke-dashoffset:6"
       id="rect2145"
       width="31"
       height="80"
       x="378.93988"
       y="32.307999" />
    <rect
       style="opacity:1;fill:#31363b"
       width="80"
       height="24"
       x="32.307999"
       y="-409.93991"
       transform="rotate(90)"
       id="rect1107" />
  </g>
  <rect
     style="opacity:0;fill:#ff0000;stroke:none;stroke-width:1.88073;stroke-linecap:round;stroke-dashoffset:6"
     id="rect2001"
     width="31"
     height="31"
     x="313.75888"
     y="1.4571204" />
  <rect
     style="opacity:0;fill:#ff0000;stroke:none;stroke-width:1.88073;stroke-linecap:round;stroke-dashoffset:6"
     id="rect962"
     width="31"
     height="31"
     x="313.75888"
     y="1.457119" />
  <rect
     style="opacity:0;fill:#ff0000;stroke:none;stroke-width:1.88073;stroke-linecap:round;stroke-dashoffset:6"
     id="rect1610"
     width="31"
     height="31"
     x="313.75851"
     y="1.4571204" />
  <rect
     style="opacity:0;fill:#ff0000;stroke:none;stroke-width:1.88073;stroke-linecap:round;stroke-dashoffset:6"
     id="rect1210"
     width="31"
     height="31"
     x="313.75885"
     y="1.4571204" />
  <rect
     style="opacity:0;fill:#ff0000;stroke:none;stroke-width:1.88073;stroke-linecap:round;stroke-dashoffset:6"
     id="rect1642"
     width="31"
     height="31"
     x="313.75851"
     y="1.457119" />
  <g
     id="mask-right"
     transform="translate(-65.181032,0.14912179)">
    <rect
       style="opacity:0;fill:#ff0000;stroke:none;stroke-width:3.02128;stroke-linecap:round;stroke-dashoffset:6"
       id="rect2147"
       width="31"
       height="80"
       x="489.93994"
       y="32.307999" />
    <rect
       style="opacity:1;fill:#31363b"
       width="80"
       height="24"
       x="-112.308"
       y="489.93991"
       transform="rotate(-90)"
       id="rect1125" />
  </g>
  <g
     id="mask-bottomright"
     transform="translate(-65.181032,0.14912179)">
    <rect
       style="opacity:0;fill:#ff0000;stroke:none;stroke-width:1.88073;stroke-linecap:round;stroke-dashoffset:6"
       id="rect2141"
       width="31"
       height="31"
       x="489.93991"
       y="112.308" />
    <path
       style="opacity:1;fill:#31363b"
       d="m 489.93992,136.308 v -24 h 24 c 0,20 -3.99998,24 -24,24 z"
       id="path1131" />
  </g>
  <rect
     style="opacity:0;fill:#ff0000;stroke:none;stroke-width:1.88073;stroke-linecap:round;stroke-dashoffset:6"
     id="rect2139"
     width="31"
     height="31"
     x="424.75888"
     y="1.4571204" />
  <g
     id="mask-topright">
    <rect
       style="fill:#ff0000;stroke:none;stroke-width:1.88073;stroke-linecap:round;stroke-dashoffset:6;opacity:0"
       id="rect1909"
       width="31"
       height="31"
       x="424.75891"
       y="1.4571204" />
    <path
       style="fill:#31363b"
       d="m 448.75889,32.457122 h -24 V 8.4571218 c 20,0 24,3.9999802 24,24.0000002 z"
       id="path1137" />
  </g>
  <path
     style="opacity:1;fill:none;stroke:#4d4d4d;stroke-width:1px;stroke-linecap:butt;stroke-linejoin:miter;stroke-opacity:1"
     d="m -73.025374,8.5447882 c 9.41498,0.05215 15.86096,0.999249 19.09388,4.4261788 4.128,4.375738 4.25525,12.592678 4.35071,18.992794"
     id="path6548"
     sodipodi:nodetypes="csc" />
  <path
     style="opacity:1;fill:none;stroke:#4d4d4d;stroke-width:1px;stroke-linecap:butt;stroke-linejoin:miter;stroke-opacity:1"
     d="m -176.53253,111.94185 c 0.0522,9.41498 0.99925,15.86096 4.42618,19.09387 4.37574,4.12801 12.59268,4.25526 18.9928,4.35071"
     id="path6550"
     sodipodi:nodetypes="csc" />
  <path
     style="opacity:1;fill:none;stroke:#4d4d4d;stroke-width:1px;stroke-linecap:butt;stroke-linejoin:miter;stroke-opacity:1"
     d="m -73.026364,135.34871 c 9.41498,-0.0521 15.86096,-0.99925 19.09388,-4.42618 4.128,-4.37573 4.25525,-12.59267 4.35071,-18.99279"
     id="path6552"
     sodipodi:nodetypes="csc" />
  <path
     style="fill:none;stroke:#4d4d4d;stroke-width:1px;stroke-linecap:butt;stroke-linejoin:miter;stroke-opacity:1"
     d="m -176.53153,31.951652 -0.001,79.990198 v 0"
     id="path9577" />
  <g
     id="decoration-topleft">
    <path
       id="shadow-topleft"
       style="fill:url(#radialGradient987)"
       d="m 0,3e-6 v 30.999998 h 7 c 0,-20 4,-24 24,-24 V 3e-6 Z" />
    <path
       style="opacity:0.75;fill:#31363b"
       d="M 31,7.000001 V 30.999999 H 7 c 0,-20 4,-23.999998 24,-23.999998 z"
       id="path36" />
  </g>
  <path
     style="fill:none;stroke:#4d4d4d;stroke-width:1px;stroke-linecap:butt;stroke-linejoin:miter;stroke-opacity:1"
     d="m -176.53153,31.951652 c 0.0521,-9.414976 0.99925,-15.860962 4.42618,-19.093875 4.37573,-4.1280042 12.59267,-4.2552529 18.99279,-4.3507084"
     id="path287"
     sodipodi:nodetypes="csc" />
  <path
     style="fill:none;stroke:#4d4d4d;stroke-width:1px;stroke-linecap:butt;stroke-linejoin:miter;stroke-opacity:1"
     d="m -49.580774,31.939542 -0.001,79.990198 v 0"
     id="path9677" />
  <path
     style="fill:none;stroke:#4d4d4d;stroke-width:1px;stroke-linecap:butt;stroke-linejoin:miter;stroke-opacity:1"
     d="m -73.122354,8.5080686 -79.990206,-10e-4 v 0"
     id="path9679" />
  <path
     style="fill:none;stroke:#4d4d4d;stroke-width:1px;stroke-linecap:butt;stroke-linejoin:miter;stroke-opacity:1"
     d="m -73.123354,135.38743 -79.990196,-0.001 v 0"
     id="path9681" />
  <path
     style="opacity:1;fill:none;stroke:#585858;stroke-width:1px;stroke-linecap:butt;stroke-linejoin:miter;stroke-opacity:1"
     d="m 149.58102,30.444583 c 0.0522,-9.414976 0.99925,-15.860962 4.42618,-19.093875 C 158.38294,7.2227042 166.59988,7.0954555 173,7"
     id="path9683"
     sodipodi:nodetypes="csc" />
  <path
     style="opacity:1;fill:none;stroke:#585858;stroke-width:1px;stroke-linecap:butt;stroke-linejoin:miter;stroke-opacity:1"
     d="m 253.08718,7.0377196 c 9.41498,0.05215 15.86096,0.999249 19.09388,4.4261784 4.128,4.375738 4.25525,12.592678 4.35071,18.992794"
     id="path9685"
     sodipodi:nodetypes="csc" />
  <path
     style="opacity:1;fill:none;stroke:#585858;stroke-width:1px;stroke-linecap:butt;stroke-linejoin:miter;stroke-opacity:1"
     d="m 149.58003,110.43478 c 0.0521,9.41498 0.99924,15.86096 4.42617,19.09387 4.37574,4.12801 12.59268,4.25526 18.9928,4.35071"
     id="path9687"
     sodipodi:nodetypes="csc" />
  <path
     style="opacity:1;fill:none;stroke:#585858;stroke-width:1px;stroke-linecap:butt;stroke-linejoin:miter;stroke-opacity:1"
     d="m 253.08619,133.84164 c 9.41498,-0.0521 15.86096,-0.99925 19.09388,-4.42618 4.128,-4.37573 4.25525,-12.59267 4.35071,-18.99279"
     id="path9689"
     sodipodi:nodetypes="csc" />
  <path
     style="fill:none;stroke:#585858;stroke-width:1px;stroke-linecap:butt;stroke-linejoin:miter;stroke-opacity:1"
     d="m 149.58102,30.444583 -9.9e-4,79.990197 v 0"
     id="path9691" />
  <path
     style="fill:none;stroke:#585858;stroke-width:1px;stroke-linecap:butt;stroke-linejoin:miter;stroke-opacity:1"
     d="m 276.53178,30.432473 -0.001,79.990197 v 0"
     id="path9693" />
  <path
     style="fill:none;stroke:#585858;stroke-width:1px;stroke-linecap:butt;stroke-linejoin:miter;stroke-opacity:1"
     d="M 252.9902,7.001 173,7 v 0"
     id="path9695" />
  <path
     style="fill:none;stroke:#585858;stroke-width:1px;stroke-linecap:butt;stroke-linejoin:miter;stroke-opacity:1"
     d="m 252.9892,133.88036 -79.9902,-0.001 v 0"
     id="path9697" />
  <rect
     style="opacity:1;fill:#ff0000;stroke:none;stroke-width:3.02128;stroke-linecap:round;stroke-dashoffset:6"
     id="rect938"
     width="80"
     height="31"
     x="352.89288"
     y="-84.108932" />
  <rect
     style="opacity:1;fill:#ff0000;stroke:none;stroke-width:3.02128;stroke-linecap:round;stroke-dashoffset:6"
     id="rect940"
     width="80"
     height="31"
     x="-106.68389"
     y="-490.19617"
     transform="rotate(90)" />
  <g
     id="mask-topleft">
    <rect
       style="fill:#ff0000;stroke:none;stroke-width:1.88073;stroke-linecap:round;stroke-dashoffset:6;opacity:0"
       id="rect1879"
       width="31"
       height="31"
       x="313.75888"
       y="1.457119" />
    <path
       style="fill:#31363b"
       d="M 344.75888,8.4571203 V 32.45712 h -24 c 0,-20 3.99998,-23.9999997 24,-23.9999997 z"
       id="path1877" />
  </g>
</svg>
