<?xml version="1.0" encoding="UTF-8" standalone="no"?>
<svg id="svg1" height="100" viewBox="0 0 100 100" width="100" version="1.1" sodipodi:docname="decoration.svg"
   inkscape:version="1.3.2 (091e20e, 2023-11-25, custom)" xmlns:inkscape="http://www.inkscape.org/namespaces/inkscape"
   xmlns:sodipodi="http://sodipodi.sourceforge.net/DTD/sodipodi-0.dtd" xmlns:xlink="http://www.w3.org/1999/xlink"
   xmlns="http://www.w3.org/2000/svg" xmlns:svg="http://www.w3.org/2000/svg">
   <sodipodi:namedview id="namedview1" inkscape:current-layer="svg1" pagecolor="#ffffff" bordercolor="#666666"
      borderopacity="1.0" inkscape:showpageshadow="2" inkscape:pageopacity="0.0" inkscape:pagecheckerboard="0"
      inkscape:deskcolor="#d1d1d1" inkscape:zoom="8.63" inkscape:cx="49.942063" inkscape:cy="50"
      inkscape:window-width="1904" inkscape:window-height="1041" inkscape:window-x="-8" inkscape:window-y="0"
      inkscape:window-maximized="0" />
   <defs id="defs1">
      <style id="current-color-scheme" type="text/css">
         .ColorScheme-Background {
            color: #2e2e2e;
         }

         .ColorScheme-Text {
            color: #e0e0e0;
         }
      </style>
      <linearGradient id="lgb1">
         <stop id="stop1" offset="0.66" stop-color="#000000" stop-opacity="1" />
         <stop id="stop2" offset="1" stop-color="#000000" stop-opacity="0" />
      </linearGradient>
      <linearGradient xlink:href="#lgb1" id="lgb1-t" x1="50" y1="36" x2="50" y2="24" gradientUnits="userSpaceOnUse" />
      <linearGradient xlink:href="#lgb1" id="lgb1-l" x1="32" y1="54" x2="20" y2="54" gradientUnits="userSpaceOnUse" />
      <linearGradient xlink:href="#lgb1" id="lgb1-r" x1="68" y1="54" x2="80" y2="54" gradientUnits="userSpaceOnUse" />
      <linearGradient xlink:href="#lgb1" id="lgb1-b" x1="50" y1="72" x2="50" y2="84" gradientUnits="userSpaceOnUse" />
      <radialGradient xlink:href="#lgb1" id="rgb1-tl" cx="32" cy="36" r="12" gradientUnits="userSpaceOnUse" />
      <radialGradient xlink:href="#lgb1" id="rgb1-tr" cx="68" cy="36" r="12" gradientUnits="userSpaceOnUse" />
      <radialGradient xlink:href="#lgb1" id="rgb1-bl" cx="32" cy="72" r="12" gradientUnits="userSpaceOnUse" />
      <radialGradient xlink:href="#lgb1" id="rgb1-br" cx="68" cy="72" r="12" gradientUnits="userSpaceOnUse" />
      <linearGradient id="lga1">
         <stop id="stop3" offset="0.33" stop-color="#000000" stop-opacity="1" />
         <stop id="stop4" offset="1" stop-color="#000000" stop-opacity="0" />
      </linearGradient>
      <linearGradient xlink:href="#lga1" id="lga1-t" x1="50" y1="40" x2="50" y2="22" gradientUnits="userSpaceOnUse" />
      <linearGradient xlink:href="#lga1" id="lga1-l" x1="32" y1="58" x2="14" y2="58" gradientUnits="userSpaceOnUse" />
      <linearGradient xlink:href="#lga1" id="lga1-r" x1="68" y1="58" x2="86" y2="58" gradientUnits="userSpaceOnUse" />
      <linearGradient xlink:href="#lga1" id="lga1-b" x1="50" y1="76" x2="50" y2="94" gradientUnits="userSpaceOnUse" />
      <radialGradient xlink:href="#lga1" id="rga1-tl" cx="32" cy="40" r="18" gradientUnits="userSpaceOnUse" />
      <radialGradient xlink:href="#lga1" id="rga1-tr" cx="68" cy="40" r="18" gradientUnits="userSpaceOnUse" />
      <radialGradient xlink:href="#lga1" id="rga1-bl" cx="32" cy="76" r="18" gradientUnits="userSpaceOnUse" />
      <radialGradient xlink:href="#lga1" id="rga1-br" cx="68" cy="76" r="18" gradientUnits="userSpaceOnUse" />
      <linearGradient id="lgb2">
         <stop id="stop5" offset="0.75" stop-color="#000000" stop-opacity="1" />
         <stop id="stop6" offset="1" stop-color="#000000" stop-opacity="0" />
      </linearGradient>
      <linearGradient xlink:href="#lgb2" id="lgb2-t" x1="50" y1="34" x2="50" y2="22" gradientUnits="userSpaceOnUse" />
      <linearGradient xlink:href="#lgb2" id="lgb2-l" x1="32" y1="52" x2="20" y2="52" gradientUnits="userSpaceOnUse" />
      <linearGradient xlink:href="#lgb2" id="lgb2-r" x1="68" y1="52" x2="80" y2="52" gradientUnits="userSpaceOnUse" />
      <linearGradient xlink:href="#lgb2" id="lgb2-b" x1="50" y1="70" x2="50" y2="82" gradientUnits="userSpaceOnUse" />
      <radialGradient xlink:href="#lgb2" id="rgb2-tl" cx="32" cy="34" r="12" gradientUnits="userSpaceOnUse" />
      <radialGradient xlink:href="#lgb2" id="rgb2-tr" cx="68" cy="34" r="12" gradientUnits="userSpaceOnUse" />
      <radialGradient xlink:href="#lgb2" id="rgb2-bl" cx="32" cy="70" r="12" gradientUnits="userSpaceOnUse" />
      <radialGradient xlink:href="#lgb2" id="rgb2-br" cx="68" cy="70" r="12" gradientUnits="userSpaceOnUse" />
      <linearGradient id="lga2">
         <stop id="stop7" offset="0.375" stop-color="#000000" stop-opacity="1" />
         <stop id="stop8" offset="1" stop-color="#000000" stop-opacity="0" />
      </linearGradient>
      <linearGradient xlink:href="#lga2" id="lga2-t" x1="50" y1="38" x2="50" y2="22" gradientUnits="userSpaceOnUse" />
      <linearGradient xlink:href="#lga2" id="lga2-l" x1="32" y1="56" x2="16" y2="56" gradientUnits="userSpaceOnUse" />
      <linearGradient xlink:href="#lga2" id="lga2-r" x1="68" y1="56" x2="84" y2="56" gradientUnits="userSpaceOnUse" />
      <linearGradient xlink:href="#lga2" id="lga2-b" x1="50" y1="74" x2="50" y2="90" gradientUnits="userSpaceOnUse" />
      <radialGradient xlink:href="#lga2" id="rga2-tl" cx="32" cy="38" r="16" gradientUnits="userSpaceOnUse" />
      <radialGradient xlink:href="#lga2" id="rga2-tr" cx="68" cy="38" r="16" gradientUnits="userSpaceOnUse" />
      <radialGradient xlink:href="#lga2" id="rga2-bl" cx="32" cy="74" r="16" gradientUnits="userSpaceOnUse" />
      <radialGradient xlink:href="#lga2" id="rga2-br" cx="68" cy="74" r="16" gradientUnits="userSpaceOnUse" />
   </defs>
   <g id="decoration-group">
      <g id="decoration-topleft">
         <path id="sa1-tl-1"
            d="M 32 22 C 23.056704 22 17.447999 25.334782 15.169922 32 L 24 32 C 24 26.666672 26.666672 24 32 24 L 32 22 z"
            fill="url(#rga1-tl)" opacity="0.15" />
         <path id="sb1-tl-1"
            d="M 32 24 C 25.468607 24 21.605251 26.667608 20.40625 32 L 24 32 C 24 26.666672 26.666672 24 32 24 z"
            fill="url(#rgb1-tl)" opacity="0.3" />
         <path id="dtl-bo" d="M 32,20 Q 20,20 20,32 h 4 q 0,-8 8,-8 z" class="ColorScheme-Background"
            fill="currentColor" opacity="0.66" />
         <path id="dtl-ba" d="m 32,24 q -8,0 -8,8 h 8 z" class="ColorScheme-Background" fill="currentColor" />
      </g>
      <g id="decoration-top">
         <path id="sa1-t-1" d="M 32 22 L 32 24 L 68 24 L 68 22 L 32 22 z" fill="url(#lga1-t)" opacity="0.15" />
         <rect id="dt-bo" width="36" height="4" x="32" y="20" class="ColorScheme-Background" fill="currentColor"
            opacity="0.66" />
         <rect id="dt-ba" width="36" height="8" x="32" y="24" class="ColorScheme-Background" fill="currentColor" />
      </g>
      <g id="decoration-topright">
         <path id="sa1-tr-1"
            d="M 68 22 L 68 24 C 73.333328 24 76 26.666672 76 32 L 84.830078 32 C 82.552001 25.334782 76.943296 22 68 22 z"
            fill="url(#rga1-tr)" opacity="0.15" />
         <path id="sb1-tr-1"
            d="M 68 24 C 73.333328 24 76 26.666672 76 32 L 79.59375 32 C 78.394749 26.667608 74.531393 24 68 24 z"
            fill="url(#rgb1-tr)" opacity="0.3" />
         <path id="dtr-bo" d="m 68,20 q 12,0 12,12 h -4 q 0,-8 -8,-8 z" class="ColorScheme-Background"
            fill="currentColor" opacity="0.66" />
         <path id="dtr-ba" d="m 68,24 q 8,0 8,8 h -8 z" class="ColorScheme-Background" fill="currentColor" />
      </g>
      <g id="decoration-left">
         <path id="sa1-l-1" d="M 15.169922 32 C 14.391307 34.278078 14 36.943308 14 40 L 24 40 L 24 32 L 15.169922 32 z"
            fill="url(#rga1-tl)" opacity="0.15" />
         <path id="sa1-l-2" d="M 14 40 L 14 68 L 24 68 L 24 40 L 14 40 z" fill="url(#lga1-l)" opacity="0.15" />
         <path id="sb1-l-1" d="M 20.40625 32 C 20.136652 33.199001 20 34.531401 20 36 L 24 36 L 24 32 L 20.40625 32 z"
            fill="url(#rgb1-tl)" opacity="0.3" />
         <path id="sb1-l-2" d="M 20 36 L 20 68 L 24 68 L 24 36 L 20 36 z" fill="url(#lgb1-l)" opacity="0.3" />
         <rect id="dl-bo" width="4" height="36" x="20" y="32" class="ColorScheme-Background" fill="currentColor"
            opacity="0.66" />
         <rect id="dl-ba" width="8" height="36" x="24" y="32" class="ColorScheme-Background" fill="currentColor" />
      </g>
      <rect id="decoration-center" width="36" height="36" x="32" y="32" class="ColorScheme-Background"
         fill="currentColor" />
      <g id="decoration-right">
         <path id="sa1-r-1" d="M 76 32 L 76 40 L 86 40 C 86 36.943308 85.608693 34.278078 84.830078 32 L 76 32 z"
            fill="url(#rga1-tr)" opacity="0.15" />
         <path id="sa1-r-2" d="M 76 40 L 76 68 L 86 68 L 86 40 L 76 40 z" fill="url(#lga1-r)" opacity="0.15" />
         <path id="sb1-r-1" d="M 76 32 L 76 36 L 80 36 C 80 34.531401 79.863348 33.199001 79.59375 32 L 76 32 z"
            fill="url(#rgb1-tr)" opacity="0.3" />
         <path id="sb1-r-2" d="M 76 36 L 76 68 L 80 68 L 80 36 L 76 36 z" fill="url(#lgb1-r)" opacity="0.3" />
         <rect id="dr-bo" width="4" height="36" x="76" y="32" class="ColorScheme-Background" fill="currentColor"
            opacity="0.66" />
         <rect id="dr-ba" width="8" height="36" x="68" y="32" class="ColorScheme-Background" fill="currentColor" />
      </g>
      <g id="decoration-bottomleft">
         <path id="sa1-bl-1" d="M 14 68 L 14 76 L 32 76 C 26.666672 76 24 73.333328 24 68 L 14 68 z" fill="url(#lga1-l)"
            opacity="0.15" />
         <path id="sa1-bl-2" d="M 14 76 C 14 87.999988 20.000012 94 32 94 L 32 76 L 14 76 z" fill="url(#rga1-bl)"
            opacity="0.15" />
         <path id="sb1-bl-1" d="M 20 68 L 20 72 L 24.689453 72 C 24.231362 70.895033 24 69.563057 24 68 L 20 68 z"
            fill="url(#lgb1-l)" opacity="0.3" />
         <path id="sb1-bl-2"
            d="M 20 72 C 20 79.999992 24.000008 84 32 84 L 32 76 C 28.229729 76 25.79442 74.665304 24.689453 72 L 20 72 z"
            fill="url(#rgb1-bl)" opacity="0.3" />
         <path id="dbl-bo" d="M 32,80 Q 20,80 20,68 h 4 q 0,8 8,8 z" class="ColorScheme-Background" fill="currentColor"
            opacity="0.66" />
         <path id="dbl-ba" d="m 32,76 q -8,0 -8,-8 h 8 z" class="ColorScheme-Background" fill="currentColor" />
      </g>
      <g id="decoration-bottom">
         <path id="sa1-b-1" d="M 32 76 L 32 94 L 68 94 L 68 76 L 32 76 z" fill="url(#lga1-b)" opacity="0.15" />
         <path id="sb1-b-1" d="M 32 76 L 32 84 L 68 84 L 68 76 L 32 76 z" fill="url(#lgb1-b)" opacity="0.3" />
         <rect id="db-bo" width="36" height="4" x="32" y="76" class="ColorScheme-Background" fill="currentColor"
            opacity="0.66" />
         <rect id="db-ba" width="36" height="8" x="32" y="68" class="ColorScheme-Background" fill="currentColor" />
      </g>
      <g id="decoration-bottomright">
         <path id="sa1-br-1" d="M 76 68 C 76 73.333328 73.333328 76 68 76 L 86 76 L 86 68 L 76 68 z" fill="url(#lga1-r)"
            opacity="0.15" />
         <path id="sa1-br-2" d="M 68 76 L 68 94 C 79.999988 94 86 87.999988 86 76 L 68 76 z" fill="url(#rga1-br)"
            opacity="0.15" />
         <path id="sb1-br-1" d="M 76 68 C 76 69.563057 75.768638 70.895033 75.310547 72 L 80 72 L 80 68 L 76 68 z"
            fill="url(#lgb1-r)" opacity="0.3" />
         <path id="sb1-br-2"
            d="M 75.310547 72 C 74.20558 74.665304 71.770271 76 68 76 L 68 84 C 75.999992 84 80 79.999992 80 72 L 75.310547 72 z"
            fill="url(#rgb1-br)" opacity="0.3" />
         <path id="dbr-bo" d="m 68,80 q 12,0 12,-12 h -4 q 0,8 -8,8 z" class="ColorScheme-Background"
            fill="currentColor" opacity="0.66" />
         <path id="dbr-ba" d="m 68,76 q 8,0 8,-8 h -8 z" class="ColorScheme-Background" fill="currentColor" />
      </g>
   </g>
   <g id="decoration-inactive-group" transform="translate(100)">
      <g id="decoration-inactive-topleft">
         <path id="sa2-tl-1"
            d="M 32 22 C 23.568555 22 18.471898 25.335375 16.705078 32 L 24 32 C 24 26.666672 26.666672 24 32 24 L 32 22 z"
            fill="url(#rga2-tl)" opacity="0.15" />
         <path id="sb2-tl"
            d="M 32 22 C 24.697764 22 20.730648 25.334661 20.09375 32 L 24 32 C 24 26.666672 26.666672 24 32 24 L 32 22 z"
            fill="url(#rgb2-tl)" opacity="0.3" />
         <path id="ditl-bo" d="M 32,20 Q 20,20 20,32 h 4 q 0,-8 8,-8 z" class="ColorScheme-Background"
            fill="currentColor" opacity="0.86" />
         <path id="ditl-ba" d="m 32,24 q -8,0 -8,8 h 8 z" class="ColorScheme-Background" fill="currentColor" />
      </g>
      <g id="decoration-inactive-top">
         <path id="sa2-t-1" d="M 32 22 L 32 24 L 68 24 L 68 22 L 32 22 z" fill="url(#lga2-t)" opacity="0.15" />
         <path id="sb2-t" d="M 32 22 L 32 24 L 68 24 L 68 22 L 32 22 z" fill="url(#lgb2-t)" opacity="0.3" />
         <rect id="dit-bo" width="36" height="4" x="32" y="20" class="ColorScheme-Background" fill="currentColor"
            opacity="0.86" />
         <rect id="dit-ba" width="36" height="8" x="32" y="24" class="ColorScheme-Background" fill="currentColor" />
      </g>
      <g id="decoration-inactive-topright">
         <path id="sa2-tr-1"
            d="M 68 22 L 68 24 C 73.333328 24 76 26.666672 76 32 L 83.294922 32 C 81.528102 25.335375 76.431445 22 68 22 z"
            fill="url(#rga2-tr)" opacity="0.15" />
         <path id="sb2-tr"
            d="M 68 22 L 68 24 C 73.333328 24 76 26.666672 76 32 L 79.90625 32 C 79.269352 25.334661 75.302236 22 68 22 z"
            fill="url(#rgb2-tr)" opacity="0.3" />
         <path id="ditr-bo" d="m 68,20 q 12,0 12,12 h -4 q 0,-8 -8,-8 z" class="ColorScheme-Background"
            fill="currentColor" opacity="0.86" />
         <path id="ditr-ba" d="m 68,24 q 8,0 8,8 h -8 z" class="ColorScheme-Background" fill="currentColor" />
      </g>
      <g id="decoration-inactive-left">
         <path id="sa2-l-1" d="M 16.705078 32 C 16.236687 33.76682 16 35.764789 16 38 L 24 38 L 24 32 L 16.705078 32 z"
            fill="url(#rga2-tl)" opacity="0.15" />
         <path id="sa2-l-2" d="M 16 38 L 16 68 L 24 68 L 24 38 L 16 38 z" fill="url(#lga2-l)" opacity="0.15" />
         <path id="sb2-l-1" d="M 20.09375 32 C 20.032892 32.636898 20 33.302244 20 34 L 24 34 L 24 32 L 20.09375 32 z"
            fill="url(#rgb2-tl)" opacity="0.3" />
         <path id="sb2-l-2" d="M 20 34 L 20 68 L 24 68 L 24 34 L 20 34 z" fill="url(#lgb2-l)" opacity="0.3" />
         <rect id="dil-bo" width="4" height="36" x="20" y="32" class="ColorScheme-Background" fill="currentColor"
            opacity="0.86" />
         <rect id="dil0ba" width="8" height="36" x="24" y="32" class="ColorScheme-Background" fill="currentColor" />
      </g>
      <rect id="decoration-inactive-center" width="36" height="36" x="32" y="32" class="ColorScheme-Background"
         fill="currentColor" />
      <g id="decoration-inactive-right">
         <path id="sa2-r-1" d="M 76 32 L 76 38 L 84 38 C 84 35.764789 83.763313 33.76682 83.294922 32 L 76 32 z"
            fill="url(#rga2-tr)" opacity="0.15" />
         <path id="sa2-r-2" d="M 76 38 L 76 68 L 84 68 L 84 38 L 76 38 z" fill="url(#lga2-r)" opacity="0.15" />
         <path id="sb2-r-1" d="M 76 32 L 76 34 L 80 34 C 80 33.302244 79.967108 32.636898 79.90625 32 L 76 32 z"
            fill="url(#rgb2-tr)" opacity="0.3" />
         <path id="sb2-r-2" d="M 76 34 L 76 68 L 80 68 L 80 34 L 76 34 z" fill="url(#lgb2-r)" opacity="0.3" />
         <rect id="dir-bo" width="4" height="36" x="76" y="32" class="ColorScheme-Background" fill="currentColor"
            opacity="0.86" />
         <rect id="dir-ba" width="8" height="36" x="68" y="32" class="ColorScheme-Background" fill="currentColor" />
      </g>
      <g id="decoration-inactive-bottomleft">
         <path id="sa2-bl-1" d="M 16 68 L 16 74 L 26 74 C 24.666668 72.666668 24 70.666664 24 68 L 16 68 z"
            fill="url(#lga2-l)" opacity="0.15" />
         <path id="sa2-bl-2"
            d="M 16 74 C 16 84.666656 21.333344 90 32 90 L 32 76 C 29.333336 76 27.333332 75.333332 26 74 L 16 74 z"
            fill="url(#rga2-bl)" opacity="0.15" />
         <path id="sb2-bl-1" d="M 20 68 L 20 70 L 24.148438 70 C 24.052296 69.380073 24 68.716069 24 68 L 20 68 z"
            fill="url(#lgb2-l)" opacity="0.3" />
         <path id="sb2-bl-2"
            d="M 20 70 C 20 77.999992 24.000008 82 32 82 L 32 76 C 27.382741 76 24.768365 73.997331 24.148438 70 L 20 70 z"
            fill="url(#rgb2-bl)" opacity="0.3" />
         <path id="dibl-bo" d="M 32,80 Q 20,80 20,68 h 4 q 0,8 8,8 z" class="ColorScheme-Background" fill="currentColor"
            opacity="0.86" />
         <path id="dibl-ba" d="m 32,76 q -8,0 -8,-8 h 8 z" class="ColorScheme-Background" fill="currentColor" />
      </g>
      <g id="decoration-inactive-bottom">
         <path id="sa2-b-1" d="M 32 76 L 32 90 L 68 90 L 68 76 L 32 76 z" fill="url(#lga2-b)" opacity="0.15" />
         <path id="sb2-b-1" d="M 32 76 L 32 82 L 68 82 L 68 76 L 32 76 z" fill="url(#lgb2-b)" opacity="0.3" />
         <rect id="dib-bo" width="36" height="4" x="32" y="76" class="ColorScheme-Background" fill="currentColor"
            opacity="0.86" />
         <rect id="dib-ba" width="36" height="8" x="32" y="68" class="ColorScheme-Background" fill="currentColor" />
      </g>
      <g id="decoration-inactive-bottomright">
         <path id="sa2-br-1" d="M 76 68 C 76 70.666664 75.333332 72.666668 74 74 L 84 74 L 84 68 L 76 68 z"
            fill="url(#lga2-r)" opacity="0.15" />
         <path id="sa2-br-2"
            d="M 74 74 C 72.666668 75.333332 70.666664 76 68 76 L 68 90 C 78.666656 90 84 84.666656 84 74 L 74 74 z"
            fill="url(#rga2-br)" opacity="0.15" />
         <path id="sb2-br-1" d="M 76 68 C 76 68.716069 75.947704 69.380073 75.851562 70 L 80 70 L 80 68 L 76 68 z"
            fill="url(#lgb2-r)" opacity="0.3" />
         <path id="sb2-br-2"
            d="M 75.851562 70 C 75.231635 73.997331 72.617259 76 68 76 L 68 82 C 75.999992 82 80 77.999992 80 70 L 75.851562 70 z"
            fill="url(#rgb2-br)" opacity="0.3" />
         <path id="dibr-bo" d="m 68,80 q 12,0 12,-12 h -4 q 0,8 -8,8 z" class="ColorScheme-Background"
            fill="currentColor" opacity="0.86" />
         <path id="dibr-ba" d="m 68,76 q 8,0 8,-8 h -8 z" class="ColorScheme-Background" fill="currentColor" />
      </g>
   </g>
   <g id="mask-group" transform="translate(200)">
      <path id="mask-topleft" d="m 32,20 q -12,0 -12,12 h 12 z" />
      <rect id="mask-top" width="36" height="12" x="32" y="20" />
      <path id="mask-topright" d="m 68,20 q 12,0 12,12 h -12 z" />
      <rect id="mask-left" width="12" height="36" x="20" y="32" />
      <rect id="mask-center" width="36" height="36" x="32" y="32" />
      <rect id="mask-right" width="12" height="36" x="68" y="32" />
      <path id="mask-bottomleft" d="m 32,80 q -12,0 -12,-12 h 12 z" />
      <rect id="mask-bottom" width="36" height="12" x="32" y="68" />
      <path id="mask-bottomright" d="m 68,80 q 12,0 12,-12 h -12 z" />
   </g>
   <rect id="hint-top-margin" fill="#008080" width="2" height="12" x="50" y="20" />
   <rect id="hint-left-margin" fill="#008080" width="12" height="2" x="20" y="48" />
   <rect id="hint-right-margin" fill="#008080" width="12" height="2" x="68" y="50" />
   <rect id="hint-bottom-margin" fill="#008080" width="2" height="12" x="48" y="68" />
   <!-- 
   <path id="clip-top-left" d="m 6,6 h 26 v 18 q -8,0 -8,8 h -18 z" fill="#000080" />
   <rect id="clip-top" width="36" height="18" x="32" y="6" fill="#000080" />
   <path id="clip-top-right" d="m 94,6 h -26 v 18 q 8,0 8,8 h 18 z" fill="#000080" />
   <rect id="clip-left" width="18" height="36" x="6" y="32" fill="#000080" />
   <rect id="clip-right" width="18" height="36" x="76" y="32" fill="#000080" />
   <path id="clip-bottom-left" d="m 6,94 h 26 v -18 q -8,0 -8,-8 h -18 z" fill="#000080" />
   <rect id="clip-bottom" width="36" height="18" x="32" y="76" fill="#000080" />
   <path id="clip-bottom-right" d="m 94,94 h -26 v -18 q 8,0 8,-8 h 18 z" fill="#000080" /> 
   -->
</svg>