<?xml version="1.0" encoding="UTF-8" standalone="no"?>
<svg height="22" viewBox="0 0 22 22" width="22" version="1.1" id="svg1" sodipodi:docname="help.svg"
  inkscape:version="1.3.2 (091e20e, 2023-11-25, custom)" xmlns:inkscape="http://www.inkscape.org/namespaces/inkscape"
  xmlns:sodipodi="http://sodipodi.sourceforge.net/DTD/sodipodi-0.dtd" xmlns="http://www.w3.org/2000/svg"
  xmlns:svg="http://www.w3.org/2000/svg">
  <defs id="defs1" />
  <sodipodi:namedview id="namedview1" pagecolor="#ffffff" bordercolor="#666666" borderopacity="1.0"
    inkscape:showpageshadow="2" inkscape:pageopacity="0.0" inkscape:pagecheckerboard="0" inkscape:deskcolor="#d1d1d1"
    inkscape:zoom="7.325" inkscape:cx="72.21843" inkscape:cy="10.170648" inkscape:window-width="1920"
    inkscape:window-height="1057" inkscape:window-x="-8" inkscape:window-y="-8" inkscape:window-maximized="1"
    inkscape:current-layer="svg1" />
  <style id="style1">
    .ColorScheme-Text {
      color: #e0e0e0;
    }

    .ColorScheme-Background {
      color: #2e2e2e;
    }

    .ColorScheme-ButtonBackground {
      color: #c4c4c4;
    }
  </style>
  <g id="active-center">
    <rect id="active-box" width="22" height="22" x="0" y="0" opacity="0" />
    <path id="active-background" d="m 11,2 h 7 q 2,0 2,2 v 14 q 0,2 -2,2 H 4 Q 2,20 2,18 V 4 Q 2,2 4,2 Z" opacity="0" />
    <path id="active-icon"
      d="m 10.9775,13.7 q 0.23625,0 0.399375,-0.163125 Q 11.54,13.37375 11.54,13.1375 11.54,12.90125 11.376875,12.738125 11.21375,12.575 10.9775,12.575 q -0.23625,0 -0.399375,0.163125 Q 10.415,12.90125 10.415,13.1375 q 0,0.23625 0.163125,0.399375 Q 10.74125,13.7 10.9775,13.7 Z m -0.405,-1.7325 h 0.8325 q 0,-0.37125 0.08438,-0.585 0.08437,-0.21375 0.478125,-0.585 0.2925,-0.2925 0.46125,-0.556875 0.16875,-0.264375 0.16875,-0.635625 0,-0.63 -0.46125,-0.9675 Q 11.675,8.3 11.045,8.3 10.40375,8.3 10.004375,8.6375 9.605,8.975 9.4475,9.4475 L 10.19,9.74 Q 10.24625,9.5375 10.443125,9.30125 10.64,9.065 11.045,9.065 q 0.36,0 0.54,0.196875 0.18,0.196875 0.18,0.433125 0,0.225 -0.135,0.421875 -0.135,0.196875 -0.3375,0.365625 -0.495,0.43875 -0.6075,0.66375 -0.1125,0.225 -0.1125,0.82125 z M 11,15.5 Q 10.06625,15.5 9.245,15.145625 8.42375,14.79125 7.81625,14.18375 7.20875,13.57625 6.854375,12.755 6.5,11.93375 6.5,11 6.5,10.06625 6.854375,9.245 7.20875,8.42375 7.81625,7.81625 8.42375,7.20875 9.245,6.854375 10.06625,6.5 11,6.5 q 0.93375,0 1.755,0.354375 0.82125,0.354375 1.42875,0.961875 0.6075,0.6075 0.961875,1.42875 Q 15.5,10.06625 15.5,11 q 0,0.93375 -0.354375,1.755 -0.354375,0.82125 -0.961875,1.42875 -0.6075,0.6075 -1.42875,0.961875 Q 11.93375,15.5 11,15.5 Z m 0,-0.9 q 1.5075,0 2.55375,-1.04625 Q 14.6,12.5075 14.6,11 14.6,9.4925 13.55375,8.44625 12.5075,7.4 11,7.4 9.4925,7.4 8.44625,8.44625 7.4,9.4925 7.4,11 7.4,12.5075 8.44625,13.55375 9.4925,14.6 11,14.6 Z M 11,11 Z"
      class="ColorScheme-Text" fill="currentColor" />
  </g>
  <g id="inactive-center">
    <rect id="inactive-box" width="22" height="22" x="30" y="0" opacity="0" />
    <path id="inactive-background" d="m 41,2 h 7 q 2,0 2,2 v 14 q 0,2 -2,2 H 34 q -2,0 -2,-2 V 4 q 0,-2 2,-2 z"
      opacity="0" />
    <path id="inactive-icon"
      d="m 40.9775,13.7 q 0.23625,0 0.399375,-0.163125 Q 41.54,13.37375 41.54,13.1375 41.54,12.90125 41.376875,12.738125 41.21375,12.575 40.9775,12.575 q -0.23625,0 -0.399375,0.163125 Q 40.415,12.90125 40.415,13.1375 q 0,0.23625 0.163125,0.399375 Q 40.74125,13.7 40.9775,13.7 Z m -0.405,-1.7325 h 0.8325 q 0,-0.37125 0.08438,-0.585 0.08437,-0.21375 0.478125,-0.585 0.2925,-0.2925 0.46125,-0.556875 0.16875,-0.264375 0.16875,-0.635625 0,-0.63 -0.46125,-0.9675 Q 41.675,8.3 41.045,8.3 40.40375,8.3 40.004375,8.6375 39.605,8.975 39.4475,9.4475 L 40.19,9.74 Q 40.24625,9.5375 40.443125,9.30125 40.64,9.065 41.045,9.065 q 0.36,0 0.54,0.196875 0.18,0.196875 0.18,0.433125 0,0.225 -0.135,0.421875 -0.135,0.196875 -0.3375,0.365625 -0.495,0.43875 -0.6075,0.66375 -0.1125,0.225 -0.1125,0.82125 z M 41,15.5 q -0.93375,0 -1.755,-0.354375 Q 38.42375,14.79125 37.81625,14.18375 37.20875,13.57625 36.854375,12.755 36.5,11.93375 36.5,11 36.5,10.06625 36.854375,9.245 37.20875,8.42375 37.81625,7.81625 38.42375,7.20875 39.245,6.854375 40.06625,6.5 41,6.5 q 0.93375,0 1.755,0.354375 0.82125,0.354375 1.42875,0.961875 0.6075,0.6075 0.961875,1.42875 Q 45.5,10.06625 45.5,11 q 0,0.93375 -0.354375,1.755 -0.354375,0.82125 -0.961875,1.42875 -0.6075,0.6075 -1.42875,0.961875 Q 41.93375,15.5 41,15.5 Z m 0,-0.9 q 1.5075,0 2.55375,-1.04625 Q 44.6,12.5075 44.6,11 44.6,9.4925 43.55375,8.44625 42.5075,7.4 41,7.4 39.4925,7.4 38.44625,8.44625 37.4,9.4925 37.4,11 q 0,1.5075 1.04625,2.55375 Q 39.4925,14.6 41,14.6 Z M 41,11 Z"
      class="ColorScheme-Text" fill="currentColor" />
  </g>
  <g id="hover-center">
    <rect id="hover-box" width="22" height="22" x="60" y="0" opacity="0" opacity="0" />
    <path id="hover-background" d="m 71,2 h 7 q 2,0 2,2 v 14 q 0,2 -2,2 H 64 q -2,0 -2,-2 V 4 q 0,-2 2,-2 z"
      class="ColorScheme-Background" fill="currentColor" />
    <path id="hover-icon"
      d="m 70.9775,13.7 q 0.23625,0 0.399375,-0.163125 Q 71.54,13.37375 71.54,13.1375 71.54,12.90125 71.376875,12.738125 71.21375,12.575 70.9775,12.575 q -0.23625,0 -0.399375,0.163125 Q 70.415,12.90125 70.415,13.1375 q 0,0.23625 0.163125,0.399375 Q 70.74125,13.7 70.9775,13.7 Z m -0.405,-1.7325 h 0.8325 q 0,-0.37125 0.08438,-0.585 0.08437,-0.21375 0.478125,-0.585 0.2925,-0.2925 0.46125,-0.556875 0.16875,-0.264375 0.16875,-0.635625 0,-0.63 -0.46125,-0.9675 Q 71.675,8.3 71.045,8.3 70.40375,8.3 70.004375,8.6375 69.605,8.975 69.4475,9.4475 L 70.19,9.74 Q 70.24625,9.5375 70.443125,9.30125 70.64,9.065 71.045,9.065 q 0.36,0 0.54,0.196875 0.18,0.196875 0.18,0.433125 0,0.225 -0.135,0.421875 -0.135,0.196875 -0.3375,0.365625 -0.495,0.43875 -0.6075,0.66375 -0.1125,0.225 -0.1125,0.82125 z M 71,15.5 q -0.93375,0 -1.755,-0.354375 Q 68.42375,14.79125 67.81625,14.18375 67.20875,13.57625 66.854375,12.755 66.5,11.93375 66.5,11 66.5,10.06625 66.854375,9.245 67.20875,8.42375 67.81625,7.81625 68.42375,7.20875 69.245,6.854375 70.06625,6.5 71,6.5 q 0.93375,0 1.755,0.354375 0.82125,0.354375 1.42875,0.961875 0.6075,0.6075 0.961875,1.42875 Q 75.5,10.06625 75.5,11 q 0,0.93375 -0.354375,1.755 -0.354375,0.82125 -0.961875,1.42875 -0.6075,0.6075 -1.42875,0.961875 Q 71.93375,15.5 71,15.5 Z m 0,-0.9 q 1.5075,0 2.55375,-1.04625 Q 74.6,12.5075 74.6,11 74.6,9.4925 73.55375,8.44625 72.5075,7.4 71,7.4 69.4925,7.4 68.44625,8.44625 67.4,9.4925 67.4,11 q 0,1.5075 1.04625,2.55375 Q 69.4925,14.6 71,14.6 Z M 71,11 Z"
      class="ColorScheme-Text" fill="currentColor" />
    <path id="hover-state-layer" d="m 71,2 h 7 q 2,0 2,2 v 14 q 0,2 -2,2 H 64 q -2,0 -2,-2 V 4 q 0,-2 2,-2 z"
      class="ColorScheme-ButtonBackground" fill="currentColor" opacity="0.08" />
  </g>
  <g id="pressed-center">
    <rect id="pressed-box" width="22" height="22" x="90" y="0" opacity="0" />
    <path id="pressed-background" d="m 101,2 h 7 q 2,0 2,2 v 14 q 0,2 -2,2 H 94 q -2,0 -2,-2 V 4 q 0,-2 2,-2 z"
      class="ColorScheme-Background" fill="currentColor" />
    <path id="pressed-icon"
      d="m 100.9775,13.7 q 0.23625,0 0.39937,-0.163125 Q 101.54,13.37375 101.54,13.1375 q 0,-0.23625 -0.16313,-0.399375 Q 101.21375,12.575 100.9775,12.575 q -0.23625,0 -0.39937,0.163125 -0.16313,0.163125 -0.16313,0.399375 0,0.23625 0.16313,0.399375 Q 100.74125,13.7 100.9775,13.7 Z m -0.405,-1.7325 h 0.8325 q 0,-0.37125 0.0844,-0.585 0.0844,-0.21375 0.47813,-0.585 0.2925,-0.2925 0.46124,-0.556875 0.16875,-0.264375 0.16875,-0.635625 0,-0.63 -0.46124,-0.9675 Q 101.675,8.3 101.045,8.3 100.40375,8.3 100.00437,8.6375 99.605,8.975 99.4475,9.4475 L 100.19,9.74 q 0.0563,-0.2025 0.25312,-0.43875 Q 100.64,9.065 101.045,9.065 q 0.36,0 0.54,0.196875 0.18,0.196875 0.18,0.433125 0,0.225 -0.135,0.421875 -0.135,0.196875 -0.3375,0.365625 -0.495,0.43875 -0.6075,0.66375 -0.1125,0.225 -0.1125,0.82125 z M 101,15.5 q -0.93375,0 -1.755,-0.354375 Q 98.42375,14.79125 97.81625,14.18375 97.20875,13.57625 96.854375,12.755 96.5,11.93375 96.5,11 96.5,10.06625 96.854375,9.245 97.20875,8.42375 97.81625,7.81625 98.42375,7.20875 99.245,6.854375 100.06625,6.5 101,6.5 q 0.93375,0 1.755,0.354375 0.82125,0.354375 1.42875,0.961875 0.6075,0.6075 0.96187,1.42875 Q 105.5,10.06625 105.5,11 q 0,0.93375 -0.35438,1.755 -0.35437,0.82125 -0.96187,1.42875 -0.6075,0.6075 -1.42875,0.961875 Q 101.93375,15.5 101,15.5 Z m 0,-0.9 q 1.5075,0 2.55375,-1.04625 Q 104.6,12.5075 104.6,11 104.6,9.4925 103.55375,8.44625 102.5075,7.4 101,7.4 99.4925,7.4 98.44625,8.44625 97.4,9.4925 97.4,11 q 0,1.5075 1.04625,2.55375 Q 99.4925,14.6 101,14.6 Z m 0,-3.6 z"
      class="ColorScheme-Text" fill="currentColor" />
    <path id="pressed-state-layer" d="m 101,2 h 7 q 2,0 2,2 v 14 q 0,2 -2,2 H 94 q -2,0 -2,-2 V 4 q 0,-2 2,-2 z"
      class="ColorScheme-ButtonBackground" fill="currentColor" opacity="0.1" />
  </g>
  <g id="deactivated-center">
    <rect id="deactivated-box" width="22" height="22" x="160" y="0" opacity="0" />
    <path id="deactivated-background" d="m 131,2 h 7 q 2,0 2,2 v 14 q 0,2 -2,2 h -14 q -2,0 -2,-2 V 4 q 0,-2 2,-2 z"
      class="ColorScheme-Background" fill="currentColor" opacity="0.12" />
    <path id="deactivated-icon"
      d="m 130.9775,13.7 q 0.23625,0 0.39937,-0.163125 Q 131.54,13.37375 131.54,13.1375 q 0,-0.23625 -0.16313,-0.399375 Q 131.21375,12.575 130.9775,12.575 q -0.23625,0 -0.39938,0.163125 -0.16312,0.163125 -0.16312,0.399375 0,0.23625 0.16312,0.399375 Q 130.74125,13.7 130.9775,13.7 Z m -0.405,-1.7325 h 0.8325 q 0,-0.37125 0.0844,-0.585 0.0844,-0.21375 0.47812,-0.585 0.2925,-0.2925 0.46125,-0.556875 0.16875,-0.264375 0.16875,-0.635625 0,-0.63 -0.46125,-0.9675 Q 131.675,8.3 131.045,8.3 q -0.64125,0 -1.04063,0.3375 -0.39937,0.3375 -0.55687,0.81 L 130.19,9.74 q 0.0563,-0.2025 0.25312,-0.43875 Q 130.64,9.065 131.045,9.065 q 0.36,0 0.54,0.196875 0.18,0.196875 0.18,0.433125 0,0.225 -0.135,0.421875 -0.135,0.196875 -0.3375,0.365625 -0.495,0.43875 -0.6075,0.66375 -0.1125,0.225 -0.1125,0.82125 z M 131,15.5 q -0.93375,0 -1.755,-0.354375 -0.82125,-0.354375 -1.42875,-0.961875 -0.6075,-0.6075 -0.96187,-1.42875 Q 126.5,11.93375 126.5,11 q 0,-0.93375 0.35438,-1.755 0.35437,-0.82125 0.96187,-1.42875 0.6075,-0.6075 1.42875,-0.961875 Q 130.06625,6.5 131,6.5 q 0.93375,0 1.755,0.354375 0.82125,0.354375 1.42875,0.961875 0.6075,0.6075 0.96187,1.42875 Q 135.5,10.06625 135.5,11 q 0,0.93375 -0.35438,1.755 -0.35437,0.82125 -0.96187,1.42875 -0.6075,0.6075 -1.42875,0.961875 Q 131.93375,15.5 131,15.5 Z m 0,-0.9 q 1.5075,0 2.55375,-1.04625 Q 134.6,12.5075 134.6,11 134.6,9.4925 133.55375,8.44625 132.5075,7.4 131,7.4 129.4925,7.4 128.44625,8.44625 127.4,9.4925 127.4,11 q 0,1.5075 1.04625,2.55375 Q 129.4925,14.6 131,14.6 Z m 0,-3.6 z"
      class="ColorScheme-Text" fill="currentColor" opacity="0.38" />
  </g>
</svg>