<svg height="30" viewBox="0 0 30 30" width="30" version="1.1" xmlns="http://www.w3.org/2000/svg"
   xmlns:svg="http://www.w3.org/2000/svg">
   <defs>
      <style id="current-color-scheme" type="text/css">
         .ColorScheme-Background {
            color: #2e2e2e;
         }

         .ColorScheme-Text {
            color: #e0e0e0;
         }
      </style>
      <rect id="box" width="30" height="30" x="0" y="0" opacity="0" />
      <path id="icon"
         d="m 14.066,17.371 q 0,-1.293 0.26,-1.931 0.26,-0.638 1.087,-1.356 0.772,-0.665 1.042,-1.069 0.269,-0.404 0.269,-0.907 0,-0.682 -0.485,-1.122 Q 15.754,10.546 15,10.546 q -0.665,0 -1.167,0.413 -0.503,0.413 -0.718,1.131 L 11.39,11.372 Q 11.767,10.187 12.764,9.468 13.761,8.75 15,8.75 q 1.598,0 2.604,0.925 1.006,0.925 1.006,2.38 0,0.754 -0.332,1.374 -0.332,0.62 -1.194,1.428 -0.736,0.682 -0.907,1.087 -0.171,0.404 -0.189,1.428 z M 15,21.25 q -0.539,0 -0.916,-0.377 -0.377,-0.377 -0.377,-0.916 0,-0.539 0.377,-0.916 Q 14.461,18.664 15,18.664 q 0.539,0 0.916,0.377 0.377,0.377 0.377,0.916 0,0.539 -0.377,0.916 Q 15.539,21.25 15,21.25 Z" />
      <rect id="border" width="26" height="26" x="2" y="2" rx="3.5" />
   </defs>
   <g id="active-center">
      <use href="#box" />
      <use href="#icon" class="ColorScheme-Text" fill="currentColor" />
   </g>
   <g id="inactive-center" transform="translate(42)">
      <use href="#box" />
      <use href="#icon" class="ColorScheme-Text" fill="currentColor" />
   </g>
   <g id="hover-center" transform="translate(84)">
      <use href="#box" />
      <use href="#icon" class="ColorScheme-Text" fill="currentColor" />
      <use href="#border" class="ColorScheme-Text" fill="currentColor" opacity="0.08" />
   </g>
   <g id="pressed-center" transform="translate(126)">
      <use href="#box" />
      <use href="#icon" class="ColorScheme-Text" fill="currentColor" />
      <use href="#border" class="ColorScheme-Text" fill="currentColor" opacity="0.1" />
   </g>
   <g id="deactivated-center" transform="translate(168)">
      <use href="#box" />
      <use href="#border" class="ColorScheme-Background" fill="currentColor" opacity="0.12" />
      <use href="#icon" class="ColorScheme-Text" fill="currentColor" opacity="0.38" />
   </g>
</svg>