<svg xmlns="http://www.w3.org/2000/svg" height="30" viewBox="0 0 30 30" width="30">
  <defs>
    <style id="current-color-scheme" type="text/css">
      .ColorScheme-Background {
        color: #2e2e2e;
      }

      .ColorScheme-Text {
        color: #e0e0e0;
      }
    </style>
    <rect id="box" width="30" height="30" x="0" y="0" opacity="0" />
    <path id="icon"
      d="m 14.079,17.303 q 0,-1.332 0.238,-1.916 0.238,-0.584 1.012,-1.275 0.674,-0.592 1.028,-1.028 0.354,-0.436 0.354,-0.995 0,-0.674 -0.452,-1.118 Q 15.806,10.526 15,10.526 q -0.839,0 -1.275,0.51 -0.436,0.51 -0.617,1.036 L 11.414,11.349 Q 11.76,10.296 12.681,9.523 13.602,8.75 15,8.75 q 1.727,0 2.656,0.962 0.929,0.962 0.929,2.311 0,0.822 -0.354,1.406 -0.354,0.584 -1.11,1.324 -0.806,0.773 -0.979,1.176 -0.173,0.403 -0.173,1.373 z M 15,21.25 q -0.543,0 -0.929,-0.387 -0.387,-0.387 -0.387,-0.929 0,-0.543 0.387,-0.929 Q 14.457,18.618 15,18.618 q 0.543,0 0.929,0.387 0.387,0.387 0.387,0.929 0,0.543 -0.387,0.929 Q 15.543,21.25 15,21.25 Z" />
    <rect id="border" width="26" height="26" x="2" y="2" rx="3.5" />
  </defs>
  <g id="active-center">
    <use href="#box" />
    <use href="#icon" class="ColorScheme-Text" fill="currentColor" />
  </g>
  <g id="inactive-center" transform="translate(42)">
    <use href="#box" />
    <use href="#icon" class="ColorScheme-Text" fill="currentColor" />
  </g>
  <g id="hover-center" transform="translate(84)">
    <use href="#box" />
    <use href="#icon" class="ColorScheme-Text" fill="currentColor" />
    <use href="#border" class="ColorScheme-Text" fill="currentColor" opacity="0.08" />
  </g>
  <g id="pressed-center" transform="translate(126)">
    <use href="#box" />
    <use href="#icon" class="ColorScheme-Text" fill="currentColor" />
    <use href="#border" class="ColorScheme-Text" fill="currentColor" opacity="0.1" />
  </g>
  <g id="deactivated-center" transform="translate(168)">
    <use href="#box" />
    <use href="#border" class="ColorScheme-Background" fill="currentColor" opacity="0.12" />
    <use href="#icon" class="ColorScheme-Text" fill="currentColor" opacity="0.38" />
  </g>
</svg>