<svg xmlns="http://www.w3.org/2000/svg" height="30" viewBox="0 0 30 30" width="30">
  <defs>
    <style id="current-color-scheme" type="text/css">
      .ColorScheme-Background {
        color: #2e2e2e;
      }

      .ColorScheme-Text {
        color: #e0e0e0;
      }
    </style>
  </defs>
  <g id="active-center">
    <rect width="30" height="30" x="0" y="0" opacity="0" />
    <path
      d="m 14.078948,17.302632 q 0,-1.332237 0.238486,-1.916119 0.238487,-0.583881 1.011514,-1.274671 0.674341,-0.592105 1.02796,-1.02796 0.353618,-0.435855 0.353618,-0.995066 0,-0.674342 -0.452302,-1.118421 Q 15.805921,10.526316 15,10.526316 q -0.838816,0 -1.274671,0.509868 -0.435855,0.509869 -0.616776,1.036185 L 11.414474,11.348684 Q 11.759869,10.296053 12.680921,9.523026 13.601974,8.75 15,8.75 q 1.726974,0 2.65625,0.962171 0.929276,0.962171 0.929276,2.310856 0,0.822368 -0.353618,1.40625 -0.353619,0.583881 -1.110198,1.324013 -0.805921,0.773026 -0.978618,1.175986 -0.172697,0.402961 -0.172697,1.373356 z M 15,21.25 q -0.542763,0 -0.929276,-0.386513 -0.386513,-0.386513 -0.386513,-0.929276 0,-0.542764 0.386513,-0.929277 Q 14.457237,18.618421 15,18.618421 q 0.542763,0 0.929276,0.386513 0.386513,0.386513 0.386513,0.929277 0,0.542763 -0.386513,0.929276 Q 15.542763,21.25 15,21.25 Z"
      class="ColorScheme-Text" fill="currentColor" />
  </g>
  <g id="inactive-center" transform="translate(42)">
    <rect width="30" height="30" x="0" y="0" opacity="0" />
    <path
      d="m 14.078948,17.302632 q 0,-1.332237 0.238486,-1.916119 0.238487,-0.583881 1.011514,-1.274671 0.674341,-0.592105 1.02796,-1.02796 0.353618,-0.435855 0.353618,-0.995066 0,-0.674342 -0.452302,-1.118421 Q 15.805921,10.526316 15,10.526316 q -0.838816,0 -1.274671,0.509868 -0.435855,0.509869 -0.616776,1.036185 L 11.414474,11.348684 Q 11.759869,10.296053 12.680921,9.523026 13.601974,8.75 15,8.75 q 1.726974,0 2.65625,0.962171 0.929276,0.962171 0.929276,2.310856 0,0.822368 -0.353618,1.40625 -0.353619,0.583881 -1.110198,1.324013 -0.805921,0.773026 -0.978618,1.175986 -0.172697,0.402961 -0.172697,1.373356 z M 15,21.25 q -0.542763,0 -0.929276,-0.386513 -0.386513,-0.386513 -0.386513,-0.929276 0,-0.542764 0.386513,-0.929277 Q 14.457237,18.618421 15,18.618421 q 0.542763,0 0.929276,0.386513 0.386513,0.386513 0.386513,0.929277 0,0.542763 -0.386513,0.929276 Q 15.542763,21.25 15,21.25 Z"
      class="ColorScheme-Text" fill="currentColor" />
  </g>
  <g id="hover-center" transform="translate(84)">
    <rect width="30" height="30" x="0" y="0" opacity="0" />
    <path
      d="m 14.078948,17.302632 q 0,-1.332237 0.238486,-1.916119 0.238487,-0.583881 1.011514,-1.274671 0.674341,-0.592105 1.02796,-1.02796 0.353618,-0.435855 0.353618,-0.995066 0,-0.674342 -0.452302,-1.118421 Q 15.805921,10.526316 15,10.526316 q -0.838816,0 -1.274671,0.509868 -0.435855,0.509869 -0.616776,1.036185 L 11.414474,11.348684 Q 11.759869,10.296053 12.680921,9.523026 13.601974,8.75 15,8.75 q 1.726974,0 2.65625,0.962171 0.929276,0.962171 0.929276,2.310856 0,0.822368 -0.353618,1.40625 -0.353619,0.583881 -1.110198,1.324013 -0.805921,0.773026 -0.978618,1.175986 -0.172697,0.402961 -0.172697,1.373356 z M 15,21.25 q -0.542763,0 -0.929276,-0.386513 -0.386513,-0.386513 -0.386513,-0.929276 0,-0.542764 0.386513,-0.929277 Q 14.457237,18.618421 15,18.618421 q 0.542763,0 0.929276,0.386513 0.386513,0.386513 0.386513,0.929277 0,0.542763 -0.386513,0.929276 Q 15.542763,21.25 15,21.25 Z"
      class="ColorScheme-Text" fill="currentColor" />
    <path d="m 13,2 h 11 q 4,0 4,4 v 18 q 0,4 -4,4 H 6 Q 2,28 2,24 V 6 Q 2,2 6,2 Z" class="ColorScheme-Texxt"
      fill="currentColor" opacity="0.08" />
  </g>
  <g id="pressed-center" transform="translate(126)">
    <rect width="30" height="30" x="0" y="0" opacity="0" />
    <path
      d="m 14.078948,17.302632 q 0,-1.332237 0.238486,-1.916119 0.238487,-0.583881 1.011514,-1.274671 0.674341,-0.592105 1.02796,-1.02796 0.353618,-0.435855 0.353618,-0.995066 0,-0.674342 -0.452302,-1.118421 Q 15.805921,10.526316 15,10.526316 q -0.838816,0 -1.274671,0.509868 -0.435855,0.509869 -0.616776,1.036185 L 11.414474,11.348684 Q 11.759869,10.296053 12.680921,9.523026 13.601974,8.75 15,8.75 q 1.726974,0 2.65625,0.962171 0.929276,0.962171 0.929276,2.310856 0,0.822368 -0.353618,1.40625 -0.353619,0.583881 -1.110198,1.324013 -0.805921,0.773026 -0.978618,1.175986 -0.172697,0.402961 -0.172697,1.373356 z M 15,21.25 q -0.542763,0 -0.929276,-0.386513 -0.386513,-0.386513 -0.386513,-0.929276 0,-0.542764 0.386513,-0.929277 Q 14.457237,18.618421 15,18.618421 q 0.542763,0 0.929276,0.386513 0.386513,0.386513 0.386513,0.929277 0,0.542763 -0.386513,0.929276 Q 15.542763,21.25 15,21.25 Z"
      class="ColorScheme-Text" fill="currentColor" />
    <path d="m 13,2 h 11 q 4,0 4,4 v 18 q 0,4 -4,4 H 6 Q 2,28 2,24 V 6 Q 2,2 6,2 Z" class="ColorScheme-Texxt"
      fill="currentColor" opacity="0.1" />
  </g>
  <g id="deactivated-center" transform="translate(168)">
    <rect width="30" height="30" x="0" y="0" opacity="0" />
    <path d="m 13,2 h 11 q 4,0 4,4 v 18 q 0,4 -4,4 H 6 Q 2,28 2,24 V 6 Q 2,2 6,2 Z" class="ColorScheme-Background"
      fill="currentColor" opacity="0.12" />
    <path
      d="m 14.078948,17.302632 q 0,-1.332237 0.238486,-1.916119 0.238487,-0.583881 1.011514,-1.274671 0.674341,-0.592105 1.02796,-1.02796 0.353618,-0.435855 0.353618,-0.995066 0,-0.674342 -0.452302,-1.118421 Q 15.805921,10.526316 15,10.526316 q -0.838816,0 -1.274671,0.509868 -0.435855,0.509869 -0.616776,1.036185 L 11.414474,11.348684 Q 11.759869,10.296053 12.680921,9.523026 13.601974,8.75 15,8.75 q 1.726974,0 2.65625,0.962171 0.929276,0.962171 0.929276,2.310856 0,0.822368 -0.353618,1.40625 -0.353619,0.583881 -1.110198,1.324013 -0.805921,0.773026 -0.978618,1.175986 -0.172697,0.402961 -0.172697,1.373356 z M 15,21.25 q -0.542763,0 -0.929276,-0.386513 -0.386513,-0.386513 -0.386513,-0.929276 0,-0.542764 0.386513,-0.929277 Q 14.457237,18.618421 15,18.618421 q 0.542763,0 0.929276,0.386513 0.386513,0.386513 0.386513,0.929277 0,0.542763 -0.386513,0.929276 Q 15.542763,21.25 15,21.25 Z"
      class="ColorScheme-Text" fill="currentColor" opacity="0.38" />
  </g>
</svg>