<svg xmlns="http://www.w3.org/2000/svg" height="30" viewBox="0 0 30 30" width="30">
   <defs>
      <style id="current-color-scheme" type="text/css">
         .ColorScheme-Background {
            color: #2e2e2e;
         }

         .ColorScheme-Highlight {
            color: #95ccff;
         }

         .ColorScheme-Text {
            color: #e0e0e0;
         }
      </style>
   </defs>
   <g id="active-center">
      <rect width="30" height="30" x="0" y="0" opacity="0" />
      <path
         d="m 8.75,21.25 v -9.722222 h 1.388889 v 8.333333 h 8.333333 V 21.25 Z m 2.777778,-2.777778 v -1.388889 h 1.388889 v 1.388889 z m 0,-2.777778 v -1.388889 h 1.388889 v 1.388889 z m 0,-2.777777 v -1.388889 h 1.388889 v 1.388889 z m 0,-2.777778 V 8.75 h 1.388889 v 1.388889 z m 2.777777,8.333333 v -1.388889 h 1.388889 v 1.388889 z m 0,-8.333333 V 8.75 h 1.388889 v 1.388889 z m 2.777778,0 V 8.75 h 1.388889 v 1.388889 z m 0,8.333333 v -1.388889 h 1.388889 v 1.388889 z m 2.777778,-8.333333 V 8.75 H 21.25 v 1.388889 z m 0,8.333333 V 17.083333 H 21.25 v 1.388889 z m 0,-2.777778 V 14.305555 H 21.25 v 1.388889 z m 0,-2.777777 V 11.527778 H 21.25 v 1.388889 z"
         class="ColorScheme-Text" fill="currentColor" />
   </g>
   <g id="inactive-center" transform="translate(42)">
      <rect width="30" height="30" x="0" y="0" opacity="0" />
      <path
         d="m 8.75,21.25 v -9.722222 h 1.388889 v 8.333333 h 8.333333 V 21.25 Z m 2.777778,-2.777778 v -1.388889 h 1.388889 v 1.388889 z m 0,-2.777778 v -1.388889 h 1.388889 v 1.388889 z m 0,-2.777777 v -1.388889 h 1.388889 v 1.388889 z m 0,-2.777778 V 8.75 h 1.388889 v 1.388889 z m 2.777777,8.333333 v -1.388889 h 1.388889 v 1.388889 z m 0,-8.333333 V 8.75 h 1.388889 v 1.388889 z m 2.777778,0 V 8.75 h 1.388889 v 1.388889 z m 0,8.333333 v -1.388889 h 1.388889 v 1.388889 z m 2.777778,-8.333333 V 8.75 H 21.25 v 1.388889 z m 0,8.333333 V 17.083333 H 21.25 v 1.388889 z m 0,-2.777778 V 14.305555 H 21.25 v 1.388889 z m 0,-2.777777 V 11.527778 H 21.25 v 1.388889 z"
         class="ColorScheme-Text" fill="currentColor" />
   </g>
   <g id="hover-center" transform="translate(84)">
      <rect width="30" height="30" x="0" y="0" opacity="0" />
      <path
         d="m 8.75,21.25 v -9.722222 h 1.388889 v 8.333333 h 8.333333 V 21.25 Z m 2.777778,-2.777778 v -1.388889 h 1.388889 v 1.388889 z m 0,-2.777778 v -1.388889 h 1.388889 v 1.388889 z m 0,-2.777777 v -1.388889 h 1.388889 v 1.388889 z m 0,-2.777778 V 8.75 h 1.388889 v 1.388889 z m 2.777777,8.333333 v -1.388889 h 1.388889 v 1.388889 z m 0,-8.333333 V 8.75 h 1.388889 v 1.388889 z m 2.777778,0 V 8.75 h 1.388889 v 1.388889 z m 0,8.333333 v -1.388889 h 1.388889 v 1.388889 z m 2.777778,-8.333333 V 8.75 H 21.25 v 1.388889 z m 0,8.333333 V 17.083333 H 21.25 v 1.388889 z m 0,-2.777778 V 14.305555 H 21.25 v 1.388889 z m 0,-2.777777 V 11.527778 H 21.25 v 1.388889 z"
         class="ColorScheme-Text" fill="currentColor" />
      <path d="m 13,2 h 11 q 4,0 4,4 v 18 q 0,4 -4,4 H 6 Q 2,28 2,24 V 6 Q 2,2 6,2 Z" class="ColorScheme-Highlight"
         fill="currentColor" opacity="0.08" />
   </g>
   <g id="pressed-center" transform="translate(126)">
      <rect width="30" height="30" x="0" y="0" opacity="0" />
      <path
         d="m 8.75,21.25 v -9.722222 h 1.388889 v 8.333333 h 8.333333 V 21.25 Z m 2.777778,-2.777778 v -1.388889 h 1.388889 v 1.388889 z m 0,-2.777778 v -1.388889 h 1.388889 v 1.388889 z m 0,-2.777777 v -1.388889 h 1.388889 v 1.388889 z m 0,-2.777778 V 8.75 h 1.388889 v 1.388889 z m 2.777777,8.333333 v -1.388889 h 1.388889 v 1.388889 z m 0,-8.333333 V 8.75 h 1.388889 v 1.388889 z m 2.777778,0 V 8.75 h 1.388889 v 1.388889 z m 0,8.333333 v -1.388889 h 1.388889 v 1.388889 z m 2.777778,-8.333333 V 8.75 H 21.25 v 1.388889 z m 0,8.333333 V 17.083333 H 21.25 v 1.388889 z m 0,-2.777778 V 14.305555 H 21.25 v 1.388889 z m 0,-2.777777 V 11.527778 H 21.25 v 1.388889 z"
         class="ColorScheme-Text" fill="currentColor" />
      <path d="m 13,2 h 11 q 4,0 4,4 v 18 q 0,4 -4,4 H 6 Q 2,28 2,24 V 6 Q 2,2 6,2 Z" class="ColorScheme-Highlight"
         fill="currentColor" opacity="0.1" />
   </g>
   <g id="deactivated-center" transform="translate(168)">
      <rect width="30" height="30" x="0" y="0" opacity="0" />
      <path d="m 13,2 h 11 q 4,0 4,4 v 18 q 0,4 -4,4 H 6 Q 2,28 2,24 V 6 Q 2,2 6,2 Z" class="ColorScheme-Background"
         fill="currentColor" opacity="0.12" />
      <path
         d="m 8.75,21.25 v -9.722222 h 1.388889 v 8.333333 h 8.333333 V 21.25 Z m 2.777778,-2.777778 v -1.388889 h 1.388889 v 1.388889 z m 0,-2.777778 v -1.388889 h 1.388889 v 1.388889 z m 0,-2.777777 v -1.388889 h 1.388889 v 1.388889 z m 0,-2.777778 V 8.75 h 1.388889 v 1.388889 z m 2.777777,8.333333 v -1.388889 h 1.388889 v 1.388889 z m 0,-8.333333 V 8.75 h 1.388889 v 1.388889 z m 2.777778,0 V 8.75 h 1.388889 v 1.388889 z m 0,8.333333 v -1.388889 h 1.388889 v 1.388889 z m 2.777778,-8.333333 V 8.75 H 21.25 v 1.388889 z m 0,8.333333 V 17.083333 H 21.25 v 1.388889 z m 0,-2.777778 V 14.305555 H 21.25 v 1.388889 z m 0,-2.777777 V 11.527778 H 21.25 v 1.388889 z"
         class="ColorScheme-Text" fill="currentColor" opacity="0.38" />
   </g>

</svg>