<svg xmlns="http://www.w3.org/2000/svg" height="30" viewBox="0 0 30 30" width="30">
   <defs>
      <style id="current-color-scheme" type="text/css">
         .ColorScheme-Background {
            color: #2e2e2e;
         }

         .ColorScheme-Text {
            color: #e0e0e0;
         }
      </style>
      <rect id="box" width="30" height="30" x="0" y="0" opacity="0" />
      <path id="icon"
         d="m 8.75,21.25 v -9.722 h 1.389 v 8.333 h 8.333 V 21.25 Z m 2.778,-2.778 v -1.389 h 1.389 v 1.389 z m 0,-2.778 v -1.389 h 1.389 v 1.389 z m 0,-2.778 v -1.389 h 1.389 v 1.389 z m 0,-2.778 V 8.75 h 1.389 v 1.389 z m 2.778,8.333 v -1.389 h 1.389 v 1.389 z m 0,-8.333 V 8.75 h 1.389 v 1.389 z m 2.778,0 V 8.75 h 1.389 v 1.389 z m 0,8.333 v -1.389 h 1.389 v 1.389 z m 2.778,-8.333 V 8.75 H 21.25 v 1.389 z m 0,8.333 V 17.083 H 21.25 v 1.389 z m 0,-2.778 V 14.306 H 21.25 v 1.389 z m 0,-2.778 V 11.528 H 21.25 v 1.389 z" />
      <rect id="border" width="26" height="26" x="2" y="2" rx="3.5" />
   </defs>
   <g id="active-center">
      <use href="#box" />
      <use href="#icon" class="ColorScheme-Text" fill="currentColor" />
   </g>
   <g id="inactive-center" transform="translate(42)">
      <use href="#box" />
      <use href="#icon" class="ColorScheme-Text" fill="currentColor" />
   </g>
   <g id="hover-center" transform="translate(84)">
      <use href="#box" />
      <use href="#icon" class="ColorScheme-Text" fill="currentColor" />
      <use href="#border" class="ColorScheme-Text" fill="currentColor" opacity="0.08" />
   </g>
   <g id="pressed-center" transform="translate(126)">
      <use href="#box" />
      <use href="#icon" class="ColorScheme-Text" fill="currentColor" />
      <use href="#border" class="ColorScheme-Text" fill="currentColor" opacity="0.1" />
   </g>
   <g id="deactivated-center" transform="translate(168)">
      <use href="#box" />
      <use href="#border" class="ColorScheme-Background" fill="currentColor" opacity="0.12" />
      <use href="#icon" class="ColorScheme-Text" fill="currentColor" opacity="0.38" />
   </g>
</svg>