<svg height="30" viewBox="0 0 30 30" width="30" version="1.1" xmlns:svg="http://www.w3.org/2000/svg">
   <defs>
      <style id="current-color-scheme" type="text/css">
         .ColorScheme-Background {
            color: #2e2e2e;
         }

         .ColorScheme-Text {
            color: #e0e0e0;
         }
      </style>
      <rect id="box" width="30" height="30" x="0" y="0" opacity="0" />
      <path id="icon"
         d="m 12.768,18.571 q -0.552,0 -0.946,-0.393 -0.393,-0.393 -0.393,-0.946 v -7.143 q 0,-0.552 0.393,-0.946 0.393,-0.393 0.946,-0.393 h 7.143 q 0.552,0 0.946,0.393 Q 21.25,9.537 21.25,10.089 v 7.143 q 0,0.552 -0.393,0.946 -0.393,0.393 -0.946,0.393 z m 0,-1.339 h 7.143 v -7.143 h -7.143 z m -2.679,2.679 V 21.25 Q 9.537,21.25 9.143,20.857 8.75,20.463 8.75,19.911 Z M 8.75,18.423 v -1.339 h 1.339 v 1.339 z m 0,-2.827 v -1.339 h 1.339 v 1.339 z m 0,-2.827 v -1.339 h 1.339 v 1.339 z M 11.577,21.25 v -1.339 h 1.339 V 21.25 Z m 2.827,0 v -1.339 h 1.339 V 21.25 Z m 2.827,0 v -1.339 h 1.339 V 21.25 Z" />
      <rect id="border" width="26" height="26" x="2" y="2" rx="3.5" />
   </defs>
   <g id="active-center">
      <use href="#box" />
      <use href="#icon" class="ColorScheme-Text" fill="currentColor" />
   </g>
   <g id="inactive-center" transform="translate(42)">
      <use href="#box" />
      <use href="#icon" class="ColorScheme-Text" fill="currentColor" />
   </g>
   <g id="hover-center" transform="translate(84)">
      <use href="#box" />
      <use href="#icon" class="ColorScheme-Text" fill="currentColor" />
      <use href="#border" class="ColorScheme-Text" fill="currentColor" opacity="0.08" />
   </g>
   <g id="pressed-center" transform="translate(126)">
      <use href="#box" />
      <use href="#icon" class="ColorScheme-Text" fill="currentColor" />
      <use href="#border" class="ColorScheme-Text" fill="currentColor" opacity="0.1" />
   </g>
   <g id="deactivated-center" transform="translate(168)">
      <use href="#box" />
      <use href="#border" class="ColorScheme-Background" fill="currentColor" opacity="0.12" />
      <use href="#icon" class="ColorScheme-Text" fill="currentColor" opacity="0.38" />
   </g>
</svg>