<?xml version="1.0" encoding="UTF-8" standalone="no"?>
<svg
   height="22"
   viewBox="0 0 22 22"
   width="22"
   version="1.1"
   id="svg1"
   inkscape:version="1.3.2 (091e20e, 2023-11-25, custom)"
   sodipodi:docname="keepabove.svg"
   xmlns:inkscape="http://www.inkscape.org/namespaces/inkscape"
   xmlns:sodipodi="http://sodipodi.sourceforge.net/DTD/sodipodi-0.dtd"
   xmlns="http://www.w3.org/2000/svg"
   xmlns:svg="http://www.w3.org/2000/svg">
  <defs
     id="defs1" />
  <sodipodi:namedview
     id="namedview1"
     pagecolor="#ffffff"
     bordercolor="#666666"
     borderopacity="1.0"
     inkscape:showpageshadow="2"
     inkscape:pageopacity="0.0"
     inkscape:pagecheckerboard="0"
     inkscape:deskcolor="#d1d1d1"
     inkscape:zoom="14.65"
     inkscape:cx="14.129693"
     inkscape:cy="-8.6348123"
     inkscape:window-width="1920"
     inkscape:window-height="1057"
     inkscape:window-x="1912"
     inkscape:window-y="-8"
     inkscape:window-maximized="1"
     inkscape:current-layer="svg1" />
  <style
     id="style1">
    .ColorScheme-Text {
      color: #e0e0e0;
    }

    .ColorScheme-Background {
      color: #2e2e2e;
    }

    .ColorScheme-ButtonBackground {
      color: #c4c4c4;
    }
  </style>
  <g
     id="active-center">
    <rect
       width="22"
       height="22"
       x="0"
       y="0"
       opacity="0"
       id="rect1" />
    <path
       d="m 11,2 h 7 q 2,0 2,2 v 14 q 0,2 -2,2 H 4 Q 2,20 2,18 V 4 Q 2,2 4,2 Z"
       class="ColorScheme-Background"
       fill="currentColor"
       id="path1" />
    <path
       d="m 10.9775,13.7 q 0.23625,0 0.399375,-0.163125 Q 11.54,13.37375 11.54,13.1375 11.54,12.90125 11.376875,12.738125 11.21375,12.575 10.9775,12.575 q -0.23625,0 -0.399375,0.163125 Q 10.415,12.90125 10.415,13.1375 q 0,0.23625 0.163125,0.399375 Q 10.74125,13.7 10.9775,13.7 Z m -0.405,-1.7325 h 0.8325 q 0,-0.37125 0.08438,-0.585 0.08437,-0.21375 0.478125,-0.585 0.2925,-0.2925 0.46125,-0.556875 0.16875,-0.264375 0.16875,-0.635625 0,-0.63 -0.46125,-0.9675 Q 11.675,8.3 11.045,8.3 10.40375,8.3 10.004375,8.6375 9.605,8.975 9.4475,9.4475 L 10.19,9.74 Q 10.24625,9.5375 10.443125,9.30125 10.64,9.065 11.045,9.065 q 0.36,0 0.54,0.196875 0.18,0.196875 0.18,0.433125 0,0.225 -0.135,0.421875 -0.135,0.196875 -0.3375,0.365625 -0.495,0.43875 -0.6075,0.66375 -0.1125,0.225 -0.1125,0.82125 z M 11,15.5 Q 10.06625,15.5 9.245,15.145625 8.42375,14.79125 7.81625,14.18375 7.20875,13.57625 6.854375,12.755 6.5,11.93375 6.5,11 6.5,10.06625 6.854375,9.245 7.20875,8.42375 7.81625,7.81625 8.42375,7.20875 9.245,6.854375 10.06625,6.5 11,6.5 q 0.93375,0 1.755,0.354375 0.82125,0.354375 1.42875,0.961875 0.6075,0.6075 0.961875,1.42875 Q 15.5,10.06625 15.5,11 q 0,0.93375 -0.354375,1.755 -0.354375,0.82125 -0.961875,1.42875 -0.6075,0.6075 -1.42875,0.961875 Q 11.93375,15.5 11,15.5 Z m 0,-0.9 q 1.5075,0 2.55375,-1.04625 Q 14.6,12.5075 14.6,11 14.6,9.4925 13.55375,8.44625 12.5075,7.4 11,7.4 9.4925,7.4 8.44625,8.44625 7.4,9.4925 7.4,11 7.4,12.5075 8.44625,13.55375 9.4925,14.6 11,14.6 Z M 11,11 Z"
       class="ColorScheme-Text"
       fill="currentColor"
       id="path2" />
  </g>
  <!-- <g id="inactive-center">
    <rect id="inactive-background" width="30" height="22" x="40" y="4" opacity="0" />
    <path id="inactive-icon" d="m 50.5,15.5625 v -1.125 h 9 v 1.125 z" class="ColorScheme-Text" fill="currentColor" />
  </g>
  <g id="hover-center">
    <rect id="hover-background" width="30" height="22" x="80" y="4" class="ColorScheme-Background"
      fill="currentColor" />
    <path id="hover-icon" d="m 90.5,15.5625 v -1.125 h 9 v 1.125 z" class="ColorScheme-Text" fill="currentColor" />
    <rect id="hover-state-layer" width="30" height="22" x="80" y="4" class="ColorScheme-ButtonBackground"
      fill="currentColor" opacity="0.08" />
  </g>
  <g id="pressed-center">
    <rect id="pressed-background" width="30" height="22" x="120" y="4" class="ColorScheme-Background"
      fill="currentColor" />
    <path id="pressed-icon" d="m 130.5,15.5625 v -1.125 h 9 v 1.125 z" class="ColorScheme-Text" fill="currentColor" />
    <rect id="pressed-state-layer" width="30" height="22" x="80" y="4" class="ColorScheme-ButtonBackground"
      fill="currentColor" opacity="0.1" />
  </g>
  <g id="deactivated-center">
    <rect id="deactivated-background" width="30" height="22" x="160" y="4" class="ColorScheme-Background"
      fill="currentColor" opacity="0.12" />
    <path id="deactivated-icon" d="m 170.5,15.5625 v -1.125 h 9 v 1.125 z" class="ColorScheme-Text" fill="currentColor"
      opacity="0.38" />
  </g> -->
  <g
     id="active-center-8"
     transform="translate(30)">
    <rect
       width="22"
       height="22"
       x="0"
       y="0"
       opacity="0"
       id="rect1-0" />
    <path
       d="m 11,2 h 7 q 2,0 2,2 v 14 q 0,2 -2,2 H 4 Q 2,20 2,18 V 4 Q 2,2 4,2 Z"
       class="ColorScheme-Background"
       fill="currentColor"
       id="path1-1"
       style="color:#2e2e2e" />
    <path
       d="m 10.9775,13.7 q 0.23625,0 0.399375,-0.163125 Q 11.54,13.37375 11.54,13.1375 11.54,12.90125 11.376875,12.738125 11.21375,12.575 10.9775,12.575 q -0.23625,0 -0.399375,0.163125 Q 10.415,12.90125 10.415,13.1375 q 0,0.23625 0.163125,0.399375 Q 10.74125,13.7 10.9775,13.7 Z m -0.405,-1.7325 h 0.8325 q 0,-0.37125 0.08438,-0.585 0.08437,-0.21375 0.478125,-0.585 0.2925,-0.2925 0.46125,-0.556875 0.16875,-0.264375 0.16875,-0.635625 0,-0.63 -0.46125,-0.9675 Q 11.675,8.3 11.045,8.3 10.40375,8.3 10.004375,8.6375 9.605,8.975 9.4475,9.4475 L 10.19,9.74 Q 10.24625,9.5375 10.443125,9.30125 10.64,9.065 11.045,9.065 q 0.36,0 0.54,0.196875 0.18,0.196875 0.18,0.433125 0,0.225 -0.135,0.421875 -0.135,0.196875 -0.3375,0.365625 -0.495,0.43875 -0.6075,0.66375 -0.1125,0.225 -0.1125,0.82125 z M 11,15.5 Q 10.06625,15.5 9.245,15.145625 8.42375,14.79125 7.81625,14.18375 7.20875,13.57625 6.854375,12.755 6.5,11.93375 6.5,11 6.5,10.06625 6.854375,9.245 7.20875,8.42375 7.81625,7.81625 8.42375,7.20875 9.245,6.854375 10.06625,6.5 11,6.5 q 0.93375,0 1.755,0.354375 0.82125,0.354375 1.42875,0.961875 0.6075,0.6075 0.961875,1.42875 Q 15.5,10.06625 15.5,11 q 0,0.93375 -0.354375,1.755 -0.354375,0.82125 -0.961875,1.42875 -0.6075,0.6075 -1.42875,0.961875 Q 11.93375,15.5 11,15.5 Z m 0,-0.9 q 1.5075,0 2.55375,-1.04625 Q 14.6,12.5075 14.6,11 14.6,9.4925 13.55375,8.44625 12.5075,7.4 11,7.4 9.4925,7.4 8.44625,8.44625 7.4,9.4925 7.4,11 7.4,12.5075 8.44625,13.55375 9.4925,14.6 11,14.6 Z M 11,11 Z"
       class="ColorScheme-Text"
       fill="currentColor"
       id="path2-4"
       style="color:#e0e0e0" />
  </g>
  <g
     id="active-center-4"
     transform="translate(60)">
    <rect
       width="22"
       height="22"
       x="0"
       y="0"
       opacity="0"
       id="rect1-6" />
    <path
       d="m 11,2 h 7 q 2,0 2,2 v 14 q 0,2 -2,2 H 4 Q 2,20 2,18 V 4 Q 2,2 4,2 Z"
       class="ColorScheme-Background"
       fill="currentColor"
       id="path1-5"
       style="color:#2e2e2e" />
    <path
       d="m 10.9775,13.7 q 0.23625,0 0.399375,-0.163125 Q 11.54,13.37375 11.54,13.1375 11.54,12.90125 11.376875,12.738125 11.21375,12.575 10.9775,12.575 q -0.23625,0 -0.399375,0.163125 Q 10.415,12.90125 10.415,13.1375 q 0,0.23625 0.163125,0.399375 Q 10.74125,13.7 10.9775,13.7 Z m -0.405,-1.7325 h 0.8325 q 0,-0.37125 0.08438,-0.585 0.08437,-0.21375 0.478125,-0.585 0.2925,-0.2925 0.46125,-0.556875 0.16875,-0.264375 0.16875,-0.635625 0,-0.63 -0.46125,-0.9675 Q 11.675,8.3 11.045,8.3 10.40375,8.3 10.004375,8.6375 9.605,8.975 9.4475,9.4475 L 10.19,9.74 Q 10.24625,9.5375 10.443125,9.30125 10.64,9.065 11.045,9.065 q 0.36,0 0.54,0.196875 0.18,0.196875 0.18,0.433125 0,0.225 -0.135,0.421875 -0.135,0.196875 -0.3375,0.365625 -0.495,0.43875 -0.6075,0.66375 -0.1125,0.225 -0.1125,0.82125 z M 11,15.5 Q 10.06625,15.5 9.245,15.145625 8.42375,14.79125 7.81625,14.18375 7.20875,13.57625 6.854375,12.755 6.5,11.93375 6.5,11 6.5,10.06625 6.854375,9.245 7.20875,8.42375 7.81625,7.81625 8.42375,7.20875 9.245,6.854375 10.06625,6.5 11,6.5 q 0.93375,0 1.755,0.354375 0.82125,0.354375 1.42875,0.961875 0.6075,0.6075 0.961875,1.42875 Q 15.5,10.06625 15.5,11 q 0,0.93375 -0.354375,1.755 -0.354375,0.82125 -0.961875,1.42875 -0.6075,0.6075 -1.42875,0.961875 Q 11.93375,15.5 11,15.5 Z m 0,-0.9 q 1.5075,0 2.55375,-1.04625 Q 14.6,12.5075 14.6,11 14.6,9.4925 13.55375,8.44625 12.5075,7.4 11,7.4 9.4925,7.4 8.44625,8.44625 7.4,9.4925 7.4,11 7.4,12.5075 8.44625,13.55375 9.4925,14.6 11,14.6 Z M 11,11 Z"
       class="ColorScheme-Text"
       fill="currentColor"
       id="path2-1"
       style="color:#e0e0e0" />
  </g>
  <g
     id="active-center-43"
     transform="translate(90)">
    <rect
       width="22"
       height="22"
       x="0"
       y="0"
       opacity="0"
       id="rect1-64" />
    <path
       d="m 11,2 h 7 q 2,0 2,2 v 14 q 0,2 -2,2 H 4 Q 2,20 2,18 V 4 Q 2,2 4,2 Z"
       class="ColorScheme-Background"
       fill="currentColor"
       id="path1-8"
       style="color:#2e2e2e" />
    <path
       d="m 10.9775,13.7 q 0.23625,0 0.399375,-0.163125 Q 11.54,13.37375 11.54,13.1375 11.54,12.90125 11.376875,12.738125 11.21375,12.575 10.9775,12.575 q -0.23625,0 -0.399375,0.163125 Q 10.415,12.90125 10.415,13.1375 q 0,0.23625 0.163125,0.399375 Q 10.74125,13.7 10.9775,13.7 Z m -0.405,-1.7325 h 0.8325 q 0,-0.37125 0.08438,-0.585 0.08437,-0.21375 0.478125,-0.585 0.2925,-0.2925 0.46125,-0.556875 0.16875,-0.264375 0.16875,-0.635625 0,-0.63 -0.46125,-0.9675 Q 11.675,8.3 11.045,8.3 10.40375,8.3 10.004375,8.6375 9.605,8.975 9.4475,9.4475 L 10.19,9.74 Q 10.24625,9.5375 10.443125,9.30125 10.64,9.065 11.045,9.065 q 0.36,0 0.54,0.196875 0.18,0.196875 0.18,0.433125 0,0.225 -0.135,0.421875 -0.135,0.196875 -0.3375,0.365625 -0.495,0.43875 -0.6075,0.66375 -0.1125,0.225 -0.1125,0.82125 z M 11,15.5 Q 10.06625,15.5 9.245,15.145625 8.42375,14.79125 7.81625,14.18375 7.20875,13.57625 6.854375,12.755 6.5,11.93375 6.5,11 6.5,10.06625 6.854375,9.245 7.20875,8.42375 7.81625,7.81625 8.42375,7.20875 9.245,6.854375 10.06625,6.5 11,6.5 q 0.93375,0 1.755,0.354375 0.82125,0.354375 1.42875,0.961875 0.6075,0.6075 0.961875,1.42875 Q 15.5,10.06625 15.5,11 q 0,0.93375 -0.354375,1.755 -0.354375,0.82125 -0.961875,1.42875 -0.6075,0.6075 -1.42875,0.961875 Q 11.93375,15.5 11,15.5 Z m 0,-0.9 q 1.5075,0 2.55375,-1.04625 Q 14.6,12.5075 14.6,11 14.6,9.4925 13.55375,8.44625 12.5075,7.4 11,7.4 9.4925,7.4 8.44625,8.44625 7.4,9.4925 7.4,11 7.4,12.5075 8.44625,13.55375 9.4925,14.6 11,14.6 Z M 11,11 Z"
       class="ColorScheme-Text"
       fill="currentColor"
       id="path2-5"
       style="color:#e0e0e0" />
  </g>
  <g
     id="active-center-3"
     transform="translate(120)">
    <rect
       width="22"
       height="22"
       x="0"
       y="0"
       opacity="0"
       id="rect1-8" />
    <path
       d="m 11,2 h 7 q 2,0 2,2 v 14 q 0,2 -2,2 H 4 Q 2,20 2,18 V 4 Q 2,2 4,2 Z"
       class="ColorScheme-Background"
       fill="currentColor"
       id="path1-7"
       style="color:#2e2e2e" />
    <path
       d="m 10.9775,13.7 q 0.23625,0 0.399375,-0.163125 Q 11.54,13.37375 11.54,13.1375 11.54,12.90125 11.376875,12.738125 11.21375,12.575 10.9775,12.575 q -0.23625,0 -0.399375,0.163125 Q 10.415,12.90125 10.415,13.1375 q 0,0.23625 0.163125,0.399375 Q 10.74125,13.7 10.9775,13.7 Z m -0.405,-1.7325 h 0.8325 q 0,-0.37125 0.08438,-0.585 0.08437,-0.21375 0.478125,-0.585 0.2925,-0.2925 0.46125,-0.556875 0.16875,-0.264375 0.16875,-0.635625 0,-0.63 -0.46125,-0.9675 Q 11.675,8.3 11.045,8.3 10.40375,8.3 10.004375,8.6375 9.605,8.975 9.4475,9.4475 L 10.19,9.74 Q 10.24625,9.5375 10.443125,9.30125 10.64,9.065 11.045,9.065 q 0.36,0 0.54,0.196875 0.18,0.196875 0.18,0.433125 0,0.225 -0.135,0.421875 -0.135,0.196875 -0.3375,0.365625 -0.495,0.43875 -0.6075,0.66375 -0.1125,0.225 -0.1125,0.82125 z M 11,15.5 Q 10.06625,15.5 9.245,15.145625 8.42375,14.79125 7.81625,14.18375 7.20875,13.57625 6.854375,12.755 6.5,11.93375 6.5,11 6.5,10.06625 6.854375,9.245 7.20875,8.42375 7.81625,7.81625 8.42375,7.20875 9.245,6.854375 10.06625,6.5 11,6.5 q 0.93375,0 1.755,0.354375 0.82125,0.354375 1.42875,0.961875 0.6075,0.6075 0.961875,1.42875 Q 15.5,10.06625 15.5,11 q 0,0.93375 -0.354375,1.755 -0.354375,0.82125 -0.961875,1.42875 -0.6075,0.6075 -1.42875,0.961875 Q 11.93375,15.5 11,15.5 Z m 0,-0.9 q 1.5075,0 2.55375,-1.04625 Q 14.6,12.5075 14.6,11 14.6,9.4925 13.55375,8.44625 12.5075,7.4 11,7.4 9.4925,7.4 8.44625,8.44625 7.4,9.4925 7.4,11 7.4,12.5075 8.44625,13.55375 9.4925,14.6 11,14.6 Z M 11,11 Z"
       class="ColorScheme-Text"
       fill="currentColor"
       id="path2-7"
       style="color:#e0e0e0" />
  </g>
  <path
     d="m 9.4812287,-5.5153584 q -0.4125,0 -0.70625,-0.29375 -0.29375,-0.29375 -0.29375,-0.70625 v -4.9999996 q 0,-0.4125 0.29375,-0.70625 0.29375,-0.29375 0.70625,-0.29375 h 5.0000003 q 0.4125,0 0.70625,0.29375 0.29375,0.29375 0.29375,0.70625 v 4.9999996 q 0,0.4125 -0.29375,0.70625 -0.29375,0.29375 -0.70625,0.29375 z m 0,-1 H 14.481229 V -11.515358 H 9.4812287 Z m -2,2 v 1 q -0.4125,0 -0.70625,-0.29375 -0.29375,-0.29375 -0.29375,-0.70625 z m -1,-1 v -1 h 1 v 1 z m 0,-2 v -1 h 1 v 1 z m 0,-2 v -0.9999996 h 1 v 0.9999996 z m 2,6 v -1 h 1 v 1 z m 2.0000003,0 v -1 h 1 v 1 z m 2,0 v -1 h 1 v 1 z"
     id="path1-16"
     style="stroke-width:0.025" />
</svg>
