<svg xmlns="http://www.w3.org/2000/svg" height="42" viewBox="0 0 42 42" width="42">
  <defs>
    <style id="current-color-scheme" type="text/css">
      .ColorScheme-Background {
        color: #2e2e2e;
      }

      .ColorScheme-Text {
        color: #e0e0e0;
      }
    </style>
  </defs>
  <g id="active-center" transform="translate(0)">
    <path d="m 21,6 h17 q4,0 4,4 v 22 q 0,4 -4,4 h -34 q -4,0 -4,-4 v -22 q 0,-4 4,-4 z" opacity="0" />
    <path d="M 14.75,26 V 16 h 12.5 V 26 Z M 16,24.75 H 26 V 18.5 H 16 Z" class="ColorScheme-Text"
      fill="currentColor" />
  </g>
  <g id="inactive-center" transform="translate(42)">
    <path d="m 21,6 h17 q4,0 4,4 v 22 q 0,4 -4,4 h -34 q -4,0 -4,-4 v -22 q 0,-4 4,-4 z" opacity="0" />
    <path d="M 14.75,26 V 16 h 12.5 V 26 Z M 16,24.75 H 26 V 18.5 H 16 Z" class="ColorScheme-Text"
      fill="currentColor" />
  </g>
  <g id="hover-center" transform="translate(84)">
    <path d="m 21,6 h17 q4,0 4,4 v 22 q 0,4 -4,4 h -34 q -4,0 -4,-4 v -22 q 0,-4 4,-4 z" opacity="0" />
    <path d="M 14.75,26 V 16 h 12.5 V 26 Z M 16,24.75 H 26 V 18.5 H 16 Z" class="ColorScheme-Text"
      fill="currentColor" />
    <path d="m 21,6 h17 q4,0 4,4 v 22 q 0,4 -4,4 h -34 q -4,0 -4,-4 v -22 q 0,-4 4,-4 z" class="ColorScheme-Text"
      fill="currentColor" opacity="0.08" />
  </g>
  <g id="pressed-center" transform="translate(126)">
    <path d="m 21,6 h17 q4,0 4,4 v 22 q 0,4 -4,4 h -34 q -4,0 -4,-4 v -22 q 0,-4 4,-4 z" opacity="0" />
    <path d="M 14.75,26 V 16 h 12.5 V 26 Z M 16,24.75 H 26 V 18.5 H 16 Z" class="ColorScheme-Text"
      fill="currentColor" />
    <path d="m 21,6 h17 q4,0 4,4 v 22 q 0,4 -4,4 h -34 q -4,0 -4,-4 v -22 q 0,-4 4,-4 z" class="ColorScheme-Text"
      fill="currentColor" opacity="0.1" />
  </g>
  <g id="deactivated-center" transform="translate(168)">
    <path d="m 21,6 h17 q4,0 4,4 v 22 q 0,4 -4,4 h -34 q -4,0 -4,-4 v -22 q 0,-4 4,-4 z" class="ColorScheme-Background"
      fill="currentColor" opacity="0.12" />
    <path d="M 14.75,26 V 16 h 12.5 V 26 Z M 16,24.75 H 26 V 18.5 H 16 Z" class="ColorScheme-Text" fill="currentColor"
      opacity="0.38" />
  </g>
</svg>