<svg height="42" viewBox="0 0 42 42" width="42" version="1.1" xmlns:svg="http://www.w3.org/2000/svg">
  <defs>
    <style id="current-color-scheme" type="text/css">
      .ColorScheme-Background {
        color: #2e2e2e;
      }

      .ColorScheme-Text {
        color: #e0e0e0;
      }
    </style>
    <path id="icon"
      d="m 15.922,27.25 q -0.483,0 -0.828,-0.344 Q 14.75,26.562 14.75,26.078 v -5.469 q 0,-0.483 0.344,-0.828 0.344,-0.344 0.828,-0.344 h 1.172 v -3.516 q 0,-0.483 0.344,-0.828 Q 17.782,14.75 18.266,14.75 h 7.813 q 0.483,0 0.828,0.344 Q 27.25,15.438 27.25,15.922 v 5.469 q 0,0.483 -0.344,0.828 Q 26.562,22.563 26.078,22.563 H 24.906 v 3.516 q 0,0.483 -0.344,0.828 Q 24.218,27.25 23.734,27.25 Z m 0,-1.172 h 7.813 V 21.781 h -7.813 z m 8.984,-4.688 h 1.172 V 17.094 h -7.813 v 2.344 h 5.469 q 0.483,0 0.828,0.344 0.344,0.344 0.344,0.828 z" />
    <rect id="border" width="42" height="30" x="0" y="6" rx="3.5" />
  </defs>
  <g id="active-center" transform="translate(0)">
    <use href="#border" opacity="0" />
    <use href="#icon" class="ColorScheme-Text" fill="currentColor" />
  </g>
  <g id="inactive-center" transform="translate(42)">
    <use href="#border" opacity="0" />
    <use href="#icon" class="ColorScheme-Text" fill="currentColor" />
  </g>
  <g id="hover-center" transform="translate(84)">
    <use href="#border" class="ColorScheme-Text" fill="currentColor" opacity="0.08" />
    <use href="#icon" class="ColorScheme-Text" fill="currentColor" />
  </g>
  <g id="pressed-center" transform="translate(126)">
    <use href="#border" class="ColorScheme-Text" fill="currentColor" opacity="0.1" />
    <use href="#icon" class="ColorScheme-Text" fill="currentColor" />
  </g>
  <g id="deactivated-center" transform="translate(168)">
    <use href="#border" class="ColorScheme-Background" fill="currentColor" opacity="0.12" />
    <use href="#icon" class="ColorScheme-Text" fill="currentColor" opacity="0.38" />
  </g>
</svg>