<svg xmlns="http://www.w3.org/2000/svg" height="30" viewBox="0 0 30 30" width="30">
   <defs>
      <style id="current-color-scheme" type="text/css">
         .ColorScheme-Background {
            color: #2e2e2e;
         }

         .ColorScheme-Text {
            color: #e0e0e0;
         }
      </style>
   </defs>
   <g id="active-center">
      <rect width="30" height="30" x="0" y="0" opacity="0" />
      <path
         d="M 9.4444445,10.138889 V 8.75 H 20.555555 v 1.388889 z M 14.305555,21.25 V 14.166667 L 12.5,15.972222 11.527778,15 15,11.527778 18.472222,15 17.5,15.972222 15.694444,14.166667 V 21.25 Z"
         class="ColorScheme-Text" fill="currentColor" />
   </g>
   <g id="inactive-center" transform="translate(42)">
      <rect width="30" height="30" x="0" y="0" opacity="0" />
      <path
         d="M 9.4444445,10.138889 V 8.75 H 20.555555 v 1.388889 z M 14.305555,21.25 V 14.166667 L 12.5,15.972222 11.527778,15 15,11.527778 18.472222,15 17.5,15.972222 15.694444,14.166667 V 21.25 Z"
         class="ColorScheme-Text" fill="currentColor" />
   </g>
   <g id="hover-center" transform="translate(84)">
      <rect width="30" height="30" x="0" y="0" opacity="0" />
      <path
         d="M 9.4444445,10.138889 V 8.75 H 20.555555 v 1.388889 z M 14.305555,21.25 V 14.166667 L 12.5,15.972222 11.527778,15 15,11.527778 18.472222,15 17.5,15.972222 15.694444,14.166667 V 21.25 Z"
         class="ColorScheme-Text" fill="currentColor" />
      <path d="m 13,2 h 11 q 4,0 4,4 v 18 q 0,4 -4,4 H 6 Q 2,28 2,24 V 6 Q 2,2 6,2 Z" class="ColorScheme-Text"
         fill="currentColor" opacity="0.08" />
   </g>
   <g id="pressed-center" transform="translate(126)">
      <rect width="30" height="30" x="0" y="0" opacity="0" />
      <path
         d="M 9.4444445,10.138889 V 8.75 H 20.555555 v 1.388889 z M 14.305555,21.25 V 14.166667 L 12.5,15.972222 11.527778,15 15,11.527778 18.472222,15 17.5,15.972222 15.694444,14.166667 V 21.25 Z"
         class="ColorScheme-Text" fill="currentColor" />
      <path d="m 13,2 h 11 q 4,0 4,4 v 18 q 0,4 -4,4 H 6 Q 2,28 2,24 V 6 Q 2,2 6,2 Z" class="ColorScheme-Text"
         fill="currentColor" opacity="0.1" />
   </g>
   <g id="deactivated-center" transform="translate(168)">
      <rect width="30" height="30" x="0" y="0" opacity="0" />
      <path d="m 13,2 h 11 q 4,0 4,4 v 18 q 0,4 -4,4 H 6 Q 2,28 2,24 V 6 Q 2,2 6,2 Z" class="ColorScheme-Background"
         fill="currentColor" opacity="0.12" />
      <path
         d="M 9.4444445,10.138889 V 8.75 H 20.555555 v 1.388889 z M 14.305555,21.25 V 14.166667 L 12.5,15.972222 11.527778,15 15,11.527778 18.472222,15 17.5,15.972222 15.694444,14.166667 V 21.25 Z"
         class="ColorScheme-Text" fill="currentColor" opacity="0.38" />
   </g>
</svg>