<svg height="54" width="72" viewBox="0 0 72 54" id="svg1" xmlns="http://www.w3.org/2000/svg">
  <defs>
    <!-- MARK: Style -->
    <style>
      .pri {
        fill: #95ccff;
      }

      .on-pri {
        fill: #003353;
      }

      .sec-cont {
        fill: #3a4857;
      }

      .surf-cont-high {
        fill: #282a2d;
      }

      .surf-cont-highest {
        fill: #333538;
      }

      .on-surf {
        fill: #e2e2e5;
      }

      .on-surf-var {
        fill: #c2c7cf;
      }

      .outline {
        fill: #8c9198;
      }
    </style>
    <!-- MARK: Shapes -->
    <path id="tl-2" d="M 0,2 q 0,-2 2,-2 v 2 Z" />
    <path id="tr-2" d="M 2,2 q 0,-2 -2,-2 v 2 z" />
    <rect id="sq-2" width="2" height="2" x="0" y="0" />
    <path id="bl-2" d="M 0,0 q 0,2 2,2 v -2 z" />
    <path id="br-2" d="M 2,0 q 0,2 -2,2 v -2 z" />
    <path id="tl-6" d="M 0,6 q 0,-6 6,-6 v 6 z" />
    <path id="tr-6" d="M 6,6 q 0,-6 -6,-6 v 6 z" />
    <rect id="sq-6" width="6" height="6" x="0" y="0" />
    <path id="bl-6" d="M 0,0 q 0,6 6,6 v -6 z" />
    <path id="br-6" d="M 6,0 q 0,6 -6,6 v -6 z" />
  </defs>
  <g id="button-group">
    <g id="button-normal-group">
      <use id="button-normal-topleft" href="#tl-6" class="surf-cont-highest" />
      <use id="button-normal-top" href="#sq-6" x="6" y="0" class="surf-cont-highest" />
      <use id="button-normal-topright" href="#tr-6" x="12" y="0" class="surf-cont-highest" />
      <use id="button-normal-left" href="#sq-6" x="0" y="6" class="surf-cont-highest" />
      <use id="button-normal" href="#sq-6" x="6" y="6" class="surf-cont-highest" />
      <use id="button-normal-right" href="#sq-6" x="12" y="6" class="surf-cont-highest" />
      <use id="button-normal-bottomleft" href="#bl-6" x="0" y="12" class="surf-cont-highest" />
      <use id="button-normal-bottom" href="#sq-6" x="6" y="12" class="surf-cont-highest" />
      <use id="button-normal-bottomright" href="#br-6" x="12" y="12" class="surf-cont-highest" />
    </g>
    <g id="button-focused-group" transform="translate(18)">
      <g id="button-focused-topleft">
        <use href="#button-normal-topleft" />
        <use href="#tl-6" class="pri" opacity="0.08" />
      </g>
      <g id="button-focused-top">
        <use href="#button-normal-top" />
        <use href="#sq-6" x="6" y="0" class="pri" opacity="0.08" />
      </g>
      <g id="button-focused-topright">
        <use href="#button-normal-topright" />
        <use href="#tr-6" x="12" y="0" class="pri" opacity="0.08" />
      </g>
      <g id="button-focused-left">
        <use href="#button-normal-left" />
        <use href="#sq-6" x="0" y="6" class="pri" opacity="0.08" />
      </g>
      <g id="button-focused">
        <use href="#button-normal" />
        <use href="#sq-6" x="6" y="6" class="pri" opacity="0.08" />
      </g>
      <g id="button-focused-right">
        <use href="#button-normal-right" />
        <use href="#sq-6" x="12" y="6" class="pri" opacity="0.08" />
      </g>
      <g id="button-focused-bottomleft">
        <use href="#button-normal-bottomleft" />
        <use href="#bl-6" x="0" y="12" class="pri" opacity="0.08" />
      </g>
      <g id="button-focused-bottom">
        <use href="#button-normal-bottom" />
        <use href="#sq-6" x="6" y="12" class="pri" opacity="0.08" />
      </g>
      <g id="button-focused-bottomright">
        <use href="#button-normal-bottomright" />
        <use href="#br-6" x="12" y="12" class="pri" opacity="0.08" />
      </g>
    </g>
    <g id="button-pressed-group" transform="translate(36)">
      <g id="button-pressed-topleft">
        <use href="#button-normal-topleft" />
        <use href="#tl-6" class="pri" opacity="0.08" />
      </g>
      <g id="button-pressed-top">
        <use href="#button-normal-top" />
        <use href="#sq-6" x="6" y="0" class="pri" opacity="0.08" />
      </g>
      <g id="button-pressed-topright">
        <use href="#button-normal-topright" />
        <use href="#tr-6" x="12" y="0" class="pri" opacity="0.08" />
      </g>
      <g id="button-pressed-left">
        <use href="#button-normal-left" />
        <use href="#sq-6" x="0" y="6" class="pri" opacity="0.08" />
      </g>
      <g id="button-pressed">
        <use href="#button-normal" />
        <use href="#sq-6" x="6" y="6" class="pri" opacity="0.08" />
      </g>
      <g id="button-pressed-right">
        <use href="#button-normal-right" />
        <use href="#sq-6" x="12" y="6" class="pri" opacity="0.08" />
      </g>
      <g id="button-pressed-bottomleft">
        <use href="#button-normal-bottomleft" />
        <use href="#bl-6" x="0" y="12" class="pri" opacity="0.08" />
      </g>
      <g id="button-pressed-bottom">
        <use href="#button-normal-bottom" />
        <use href="#sq-6" x="6" y="12" class="pri" opacity="0.08" />
      </g>
      <g id="button-pressed-bottomright">
        <use href="#button-normal-bottomright" />
        <use href="#br-6" x="12" y="12" class="pri" opacity="0.08" />
      </g>
    </g>
    <g id="button-toggled-group" transform="translate(54)">
      <use id="button-toggled-topleft" href="#tl-6" class="pri" />
      <use id="button-toggled-top" href="#sq-6" x="6" y="0" class="pri" />
      <use id="button-toggled-topright" href="#tr-6" x="12" y="0" class="pri" />
      <use id="button-toggled-left" href="#sq-6" x="0" y="6" class="pri" />
      <use id="button-toggled" href="#sq-6" x="6" y="6" class="pri" />
      <use id="button-toggled-right" href="#sq-6" x="12" y="6" class="pri" />
      <use id="button-toggled-bottomleft" href="#bl-6" x="0" y="12" class="pri" />
      <use id="button-toggled-bottom" href="#sq-6" x="6" y="12" class="pri" />
      <use id="button-toggled-bottomright" href="#br-6" x="12" y="12" class="pri" />
    </g>
  </g>
  <g id="tb-btn-group" transform="translate(0,18)">
    <g id="tb-btn-normal-group">
      <path id="tb-btn-normal-topleft" d="M 0,6 q 0,-6 6,-6 v 1 q -5,0 -5,5 z" class="outline" />
      <g id="tb-btn-normal-top">
        <use href="#sq-6" x="6" y="0" opacity="0" />
        <rect width="6" height="1" x="6" y="0" class="outline" />
      </g>
      <path id="tb-btn-normal-topright" d="M 18,6 q 0,-6 -6,-6 v 1 q 5,0 5,5 z" class="outline" />
      <g id="tb-btn-normal-left">
        <use href="#sq-6" x="0" y="6" opacity="0" />
        <rect width="1" height="6" x="0" y="6" class="outline" />
      </g>
      <use id="tb-btn-normal" href="#sq-6" x="6" y="6" opacity="0" />
      <g id="tb-btn-normal-right">
        <use href="#sq-6" x="12" y="6" opacity="0" />
        <rect width="1" height="6" x="17" y="6" class="outline" />
      </g>
      <path id="tb-btn-normal-bottomleft" d="M 0,12 q 0,6 6,6 v -1 q -5,0 -5,-5 z" class="outline" />
      <g id="tb-btn-normal-bottom">
        <use href="#sq-6" x="6" y="12" opacity="0" />
        <rect width="6" height="1" x="6" y="17" class="outline" />
      </g>
      <path id="tb-btn-normal-bottomright" d="M 18,12 q 0,6 -6,6 v -1 q 5,0 5,-5 z" class="outline" />
    </g>
    <g id="tb-btn-focused-group" transform="translate(18)">
      <g id="tb-btn-focused-topleft">
        <use href="#tb-btn-normal-topleft" />
        <use href="#tl-6" class="on-surf" opacity="0.08" />
      </g>
      <g id="tb-btn-focused-top">
        <use href="#tb-btn-normal-top" />
        <use href="#sq-6" x="6" y="0" class="on-surf" opacity="0.08" />
      </g>
      <g id="tb-btn-focused-topright">
        <use href="#tb-btn-normal-topright" />
        <use href="#tr-6" x="12" y="0" class="on-surf" opacity="0.08" />
      </g>
      <g id="tb-btn-focused-left">
        <use href="#tb-btn-normal-left" />
        <use href="#sq-6" x="0" y="6" class="on-surf" opacity="0.08" />
      </g>
      <use id="tb-btn-focused" href="#sq-6" x="6" y="6" class="on-surf" opacity="0.08" />
      <g id="tb-btn-focused-right">
        <use href="#tb-btn-normal-right" />
        <use href="#sq-6" x="12" y="6" class="on-surf" opacity="0.08" />
      </g>
      <g id="tb-btn-focused-bottomleft">
        <use href="#tb-btn-normal-bottomleft" />
        <use href="#bl-6" x="0" y="12" class="on-surf" opacity="0.08" />
      </g>
      <g id="tb-btn-focused-bottom">
        <use href="#tb-btn-normal-bottom" />
        <use href="#sq-6" x="6" y="12" class="on-surf" opacity="0.08" />
      </g>
      <g id="tb-btn-focused-bottomright">
        <use href="#tb-btn-normal-bottomright" />
        <use href="#br-6" x="12" y="12" class="on-surf" opacity="0.08" />
      </g>
    </g>
    <g id="tb-btn-pressed-group" transform="translate(36)">
      <g id="tb-btn-pressed-topleft">
        <use href="#tb-btn-normal-topleft" />
        <use href="#tl-6" class="on-surf" opacity="0.1" />
      </g>
      <g id="tb-btn-pressed-top">
        <use href="#tb-btn-normal-top" />
        <use href="#sq-6" x="6" y="0" class="on-surf" opacity="0.1" />
      </g>
      <g id="tb-btn-pressed-topright">
        <use href="#tb-btn-normal-topright" />
        <use href="#tr-6" x="12" y="0" class="on-surf" opacity="0.1" />
      </g>
      <g id="tb-btn-pressed-left">
        <use href="#tb-btn-normal-left" />
        <use href="#sq-6" x="0" y="6" class="on-surf" opacity="0.1" />
      </g>
      <use id="tb-btn-pressed" href="#sq-6" x="6" y="6" class="on-surf" opacity="0.1" />
      <g id="tb-btn-pressed-right">
        <use href="#tb-btn-normal-right" />
        <use href="#sq-6" x="12" y="6" class="on-surf" opacity="0.1" />
      </g>
      <g id="tb-btn-pressed-bottomleft">
        <use href="#tb-btn-normal-bottomleft" />
        <use href="#bl-6" x="0" y="12" class="on-surf" opacity="0.1" />
      </g>
      <g id="tb-btn-pressed-bottom">
        <use href="#tb-btn-normal-bottom" />
        <use href="#sq-6" x="6" y="12" class="on-surf" opacity="0.1" />
      </g>
      <g id="tb-btn-pressed-bottomright">
        <use href="#tb-btn-normal-bottomright" />
        <use href="#br-6" x="12" y="12" class="on-surf" opacity="0.1" />
      </g>
    </g>
    <g id="tb-btn-toggled-group" transform="translate(54)">
      <g id="tb-btn-toggled-topleft">
        <use href="#tl-6" class="sec-cont" />
        <use href="#tb-btn-normal-topleft" />
      </g>
      <g id="tb-btn-toggled-top">
        <use href="#sq-6" x="6" y="0" class="sec-cont" />
        <use href="#tb-btn-normal-top" />
      </g>
      <g id="tb-btn-toggled-topright">
        <use href="#tr-6" x="12" y="0" class="sec-cont" />
        <use href="#tb-btn-normal-topright" />
      </g>
      <g id="tb-btn-toggled-left">
        <use href="#sq-6" x="0" y="6" class="sec-cont" />
        <use href="#tb-btn-normal-left" />
      </g>
      <use id="tb-btn-toggled" href="#sq-6" x="6" y="6" class="sec-cont" />
      <g id="tb-btn-toggled-right">
        <use href="#sq-6" x="12" y="6" class="sec-cont" />
        <use href="#tb-btn-normal-right" />
      </g>
      <g id="tb-btn-toggled-bottomleft">
        <use href="#bl-6" x="0" y="12" class="sec-cont" />
        <use href="#tb-btn-normal-bottomleft" />
      </g>
      <g id="tb-btn-toggled-bottom">
        <use href="#sq-6" x="6" y="12" class="sec-cont" />
        <use href="#tb-btn-normal-bottom" />
      </g>
      <g id="tb-btn-toggled-bottomright">
        <use href="#br-6" x="12" y="12" class="sec-cont" />
        <use href="#tb-btn-normal-bottomright" />
      </g>
    </g>
  </g>
  <g id="toolbar-group" transform="translate(0,36)">
    <use id="toolbar-normal-topleft" href="#sq-6" class="surf-cont-high" />
    <use id="toolbar-normal-top" href="#sq-6" x="6" y="0" class="surf-cont-high" />
    <use id="toolbar-normal-topright" href="#sq-6" x="12" y="0" class="surf-cont-high" />
    <use id="toolbar-normal-left" href="#sq-6" x="0" y="6" class="surf-cont-high" />
    <use id="toolbar-normal" href="#sq-6" x="6" y="6" class="surf-cont-high" />
    <use id="toolbar-normal-right" href="#sq-6" x="12" y="6" class="surf-cont-high" />
    <use id="toolbar-normal-bottomleft" href="#sq-6" x="0" y="12" class="surf-cont-high" />
    <use id="toolbar-normal-bottom" href="#sq-6" x="6" y="12" class="surf-cont-high" />
    <use id="toolbar-normal-bottomright" href="#sq-6" x="12" y="12" class="surf-cont-high" />
    <rect id="toolbar-separator" width="8" height="10" x="18" y="0" opacity="0" />
    <g id="toolbar-handle">
      <rect width="8" height="10" x="26" y="0" opacity="0" />
      <path d="m 26,1 h 1.5 v 8 h -1.5 z m 3,0 h 1.5 v 8 h -1.5 z" class="on-surf" opacity="0.38" />
    </g>
  </g>
  <g id="lineedit-group" transform="translate(34,36)">
    <g id="lineedit-normal-topleft">
      <use href="#sq-2" x="0" y="0" opacity="0" />
      <path d="M 0.5,2 q 0,-1.5 1.5,-1.5 v 1 q -0.5,0 -0.5,0.5 Z" class="outline" />
    </g>
    <g id="lineedit-normal-top">
      <use href="#sq-2" x="2" y="0" opacity="0" />
      <rect width="2" height="1" x="2" y="0.5" class="outline" />
    </g>
    <g id="lineedit-normal-topright">
      <use href="#sq-2" x="4" y="0" opacity="0" />
      <path d="M 5.5,2 q 0,-1.5 -1.5,-1.5 v 1 q 0.5,0 0.5,0.5 Z" class="outline" />
    </g>
    <g id="lineedit-normal-left">
      <use href="#sq-2" x="0" y="2" opacity="0" />
      <rect width="1" height="2" x="0.5" y="2" class="outline" />
    </g>
    <use id="lineedit-normal" href="#sq-2" x="2" y="2" opacity="0" />
    <g id="lineedit-normal-right">
      <use href="#sq-2" x="4" y="2" opacity="0" />
      <rect width="1" height="2" x="4.5" y="2" class="outline" />
    </g>
    <g id="lineedit-normal-bottomleft">
      <use href="#sq-2" x="0" y="4" opacity="0" />
      <path d="M 0.5,4 q 0,1.5 1.5,1.5 v -1 q -0.5,0 -0.5,-0.5 Z" class="outline" />
    </g>
    <g id="lineedit-normal-bottom">
      <use href="#sq-2" x="2" y="4" opacity="0" />
      <rect width="2" height="1" x="2" y="4.5" class="outline" />
    </g>
    <g id="lineedit-normal-bottomright">
      <use href="#sq-2" x="4" y="4" opacity="0" />
      <path d="M 5.5,4 q 0,1.5 -1.5,1.5 v -1 q 0.5,0 0.5,-0.5 Z" class="outline" />
    </g>
    <use id="lineedit-focused-topleft" href="#tl-2" x="6" y="0" class="pri" />
    <use id="lineedit-focused-top" href="#sq-2" x="8" y="0" class="pri" />
    <use id="lineedit-focused-topright" href="#tr-2" x="10" y="0" class="pri" />
    <use id="lineedit-focused-left" href="#sq-2" x="6" y="2" class="pri" />
    <use id="lineedit-focused" href="#sq-2" x="8" y="2" opacity="0" />
    <use id="lineedit-focused-right" href="#sq-2" x="10" y="2" class="pri" />
    <use id="lineedit-focused-bottomleft" href="#bl-2" x="6" y="4" class="pri" />
    <use id="lineedit-focused-bottom" href="#sq-2" x="8" y="4" class="pri" />
    <use id="lineedit-focused-bottomright" href="#br-2" x="10" y="4" class="pri" />
  </g>
  <g id="progress-group" transform="translate(34,42)">
    <use id="progress-normal-topleft" href="#tl-2" class="sec-cont" />
    <use id="progress-normal-top" href="#sq-2" x="2" y="0" class="sec-cont" />
    <use id="progress-normal-topright" href="#tr-2" x="4" y="0" class="sec-cont" />
    <use id="progress-normal-bottomleft" href="#bl-2" x="0" y="2" class="sec-cont" />
    <use id="progress-normal-bottom" href="#sq-2" x="2" y="2" class="sec-cont" />
    <use id="progress-normal-bottomright" href="#br-2" x="4" y="2" class="sec-cont" />
    <use id="progress-pattern-normal-topleft" href="#tl-2" x="6" y="0" class="pri" />
    <use id="progress-pattern-normal-top" href="#sq-2" x="8" y="0" class="pri" />
    <use id="progress-pattern-normal-topright" href="#tr-2" x="10" y="0" class="pri" />
    <use id="progress-pattern-normal-bottomleft" href="#bl-2" x="6" y="2" class="pri" />
    <use id="progress-pattern-normal-bottom" href="#sq-2" x="8" y="2" class="pri" />
    <use id="progress-pattern-normal-bottomright" href="#br-2" x="10" y="2" class="pri" />
    <use id="progress-pattern-disabled-topleft" href="#tl-2" x="0" y="4" class="on-surf-var" opacity="0.12" />
    <use id="progress-pattern-disabled-top" href="#sq-2" x="2" y="4" class="on-surf-var" opacity="0.12" />
    <use id="progress-pattern-disabled-topright" href="#tr-2" x="4" y="4" class="on-surf-var" opacity="0.12" />
    <use id="progress-pattern-disabled-bottomleft" href="#bl-2" x="0" y="6" class="on-surf-var" opacity="0.12" />
    <use id="progress-pattern-disabled-bottom" href="#sq-2" x="2" y="6" class="on-surf-var" opacity="0.12" />
    <use id="progress-pattern-disabled-bottomright" href="#br-2" x="4" y="6" class="on-surf-var" opacity="0.12" />
  </g>
</svg>