<svg height="266" width="192" viewBox="0 0 192 266" id="svg1" xmlns="http://www.w3.org/2000/svg">
  <sodipodi:namedview id="namedview1" inkscape:current-layer="svg1" />
  <defs>
    <style>
      .primary {
        fill: #95ccff;
      }

      .on-primary {
        fill: #003353;
      }

      .fill-secondary-container {
        fill: #3a4857;
      }

      .fill-surface-container-low {
        fill: #1a1c1e;
      }

      .fill-surface-container {
        fill: #1e2022;
      }

      .surface-container-highest {
        fill: #333538;
      }

      .on-surface {
        fill: #e2e2e5;
      }

      .on-surface-variant {
        fill: #c2c7cf;
      }

      .fill-outline {
        fill: #8c9198;
      }
    </style>
    <linearGradient id="menu-shadow-before">
      <stop id="stop1" stop-color="#000000" stop-opacity="1" offset="0.66" />
      <stop id="stop2" stop-color="#000000" stop-opacity="0" offset="1" />
    </linearGradient>
    <linearGradient xlink:href="#menu-shadow-before" id="msb-l" x1="6" y1="15" x2="2" y2="15"
      gradientUnits="userSpaceOnUse" />
    <linearGradient xlink:href="#menu-shadow-before" id="msb-r" x1="22" y1="15" x2="26" y2="15"
      gradientUnits="userSpaceOnUse" />
    <linearGradient xlink:href="#menu-shadow-before" id="msb-b" x1="28" y1="23" x2="28" y2="27"
      gradientUnits="userSpaceOnUse" />
    <radialGradient xlink:href="#menu-shadow-before" id="msb-bl" cx="6" cy="23" r="4" gradientUnits="userSpaceOnUse" />
    <radialGradient xlink:href="#menu-shadow-before" id="msb-br" cx="22" cy="23" r="4" gradientUnits="userSpaceOnUse" />
    <linearGradient id="menu-shadow-after">
      <stop id="stop3" stop-color="#000000" stop-opacity="1" offset="0" />
      <stop id="stop4" stop-color="#000000" stop-opacity="0" offset="1" />
    </linearGradient>
    <linearGradient xlink:href="#menu-shadow-after" id="msa-l" x1="6" y1="16" x2="0" y2="16"
      gradientUnits="userSpaceOnUse" />
    <linearGradient xlink:href="#menu-shadow-after" id="msa-r" x1="22" y1="16" x2="28" y2="16"
      gradientUnits="userSpaceOnUse" />
    <linearGradient xlink:href="#menu-shadow-after" id="msa-b" x1="28" y1="24" x2="28" y2="30"
      gradientUnits="userSpaceOnUse" />
    <radialGradient xlink:href="#menu-shadow-after" id="msa-tl" cx="6" cy="8" r="6" gradientUnits="userSpaceOnUse" />
    <radialGradient xlink:href="#menu-shadow-after" id="msa-tr" cx="22" cy="8" r="6" gradientUnits="userSpaceOnUse" />
    <radialGradient xlink:href="#menu-shadow-after" id="msa-bl" cx="6" cy="24" r="6" gradientUnits="userSpaceOnUse" />
    <radialGradient xlink:href="#menu-shadow-after" id="msa-br" cx="22" cy="24" r="6" gradientUnits="userSpaceOnUse" />
    <radialGradient inkscape:collect="always" xlink:href="#menu-shadow-after" id="radialGradient88"
      gradientUnits="userSpaceOnUse" cx="6" cy="8" r="6" />
    <radialGradient inkscape:collect="always" xlink:href="#menu-shadow-after" id="radialGradient89"
      gradientUnits="userSpaceOnUse" cx="22" cy="8" r="6" />
    <linearGradient inkscape:collect="always" xlink:href="#menu-shadow-after" id="linearGradient89"
      gradientUnits="userSpaceOnUse" x1="6" y1="16" x2="0" y2="16" />
    <linearGradient inkscape:collect="always" xlink:href="#menu-shadow-after" id="linearGradient90"
      gradientUnits="userSpaceOnUse" x1="22" y1="16" x2="28" y2="16" />
  </defs>
  <g id="button-group">
    <path id="button-normal-topleft" d="M 0,4 Q 0,0 4,0 v 4 z" class="surface-container-highest" />
    <rect id="button-normal-top" width="16" height="4" x="4" y="0" class="surface-container-highest" />
    <path id="button-normal-topright" d="M 24,4 Q 24,0 20,0 v 4 z" class="surface-container-highest" />
    <rect id="button-normal-left" width="4" height="16" x="0" y="4" class="surface-container-highest" />
    <rect id="button-normal" width="16" height="16" x="4" y="4" class="surface-container-highest" />
    <rect id="button-normal-right" width="4" height="16" x="20" y="4" class="surface-container-highest" />
    <path id="button-normal-bottomleft" d="m 0,20 q 0,4 4,4 v -4 z" class="surface-container-highest" />
    <rect id="button-normal-bottom" width="16" height="4" x="4" y="20" class="surface-container-highest" />
    <path id="button-normal-bottomright" d="m 24,20 q 0,4 -4,4 v -4 z" class="surface-container-highest" />
    <g id="button-focused-topleft" transform="translate(24)">
      <path d="M 0,4 Q 0,0 4,0 v 4 z" class="surface-container-highest" />
      <path d="M 0,4 Q 0,0 4,0 v 4 z" class="primary" opacity="0.08" />
    </g>
    <g id="button-focused-top" transform="translate(24)">
      <rect width="16" height="4" x="4" y="0" class="surface-container-highest" />
      <rect width="16" height="4" x="4" y="0" class="primary" opacity="0.08" />
    </g>
    <g id="button-focused-topright" transform="translate(24)">
      <path d="M 24,4 Q 24,0 20,0 v 4 z" class="surface-container-highest" />
      <path d="M 24,4 Q 24,0 20,0 v 4 z" class="primary" opacity="0.08" />
    </g>
    <g id="button-focused-left" transform="translate(24)">
      <rect width="4" height="16" x="0" y="4" class="surface-container-highest" />
      <rect width="4" height="16" x="0" y="4" class="primary" opacity="0.08" />
    </g>
    <g id="button-focused" transform="translate(24)">
      <rect width="16" height="16" x="4" y="4" class="surface-container-highest" />
      <rect width="16" height="16" x="4" y="4" class="primary" opacity="0.08" />
    </g>
    <g id="button-focused-right" transform="translate(24)">
      <rect width="4" height="16" x="20" y="4" class="surface-container-highest" />
      <rect width="4" height="16" x="20" y="4" class="primary" opacity="0.08" />
    </g>
    <g id="button-focused-bottomleft" transform="translate(24)">
      <path d="m 0,20 q 0,4 4,4 v -4 z" class="surface-container-highest" />
      <path d="m 0,20 q 0,4 4,4 v -4 z" class="primary" opacity="0.08" />
    </g>
    <g id="button-focused-bottom" transform="translate(24)">
      <rect width="16" height="4" x="4" y="20" class="surface-container-highest" />
      <rect width="16" height="4" x="4" y="20" class="primary" opacity="0.08" />
    </g>
    <g id="button-focused-bottomright" transform="translate(24)">
      <path d="m 24,20 q 0,4 -4,4 v -4 z" class="surface-container-highest" />
      <path d="m 24,20 q 0,4 -4,4 v -4 z" class="primary" opacity="0.08" />
    </g>
    <g id="button-pressed-topleft" transform="translate(48)">
      <path d="M 0,4 Q 0,0 4,0 v 4 z" class="surface-container-highest" />
      <path d="M 0,4 Q 0,0 4,0 v 4 z" class="primary" opacity="0.1" />
    </g>
    <g id="button-pressed-top" transform="translate(48)">
      <rect width="16" height="4" x="4" y="0" class="surface-container-highest" />
      <rect width="16" height="4" x="4" y="0" class="primary" opacity="0.1" />
    </g>
    <g id="button-pressed-topright" transform="translate(48)">
      <path d="M 24,4 Q 24,0 20,0 v 4 z" class="surface-container-highest" />
      <path d="M 24,4 Q 24,0 20,0 v 4 z" class="primary" opacity="0.1" />
    </g>
    <g id="button-pressed-left" transform="translate(48)">
      <rect width="4" height="16" x="0" y="4" class="surface-container-highest" />
      <rect width="4" height="16" x="0" y="4" class="primary" opacity="0.1" />
    </g>
    <g id="button-pressed" transform="translate(48)">
      <rect width="16" height="16" x="4" y="4" class="surface-container-highest" />
      <rect width="16" height="16" x="4" y="4" class="primary" opacity="0.1" />
    </g>
    <g id="button-pressed-right" transform="translate(48)">
      <rect width="4" height="16" x="20" y="4" class="surface-container-highest" />
      <rect width="4" height="16" x="20" y="4" class="primary" opacity="0.1" />
    </g>
    <g id="button-pressed-bottomleft" transform="translate(48)">
      <path d="m 0,20 q 0,4 4,4 v -4 z" class="surface-container-highest" />
      <path d="m 0,20 q 0,4 4,4 v -4 z" class="primary" opacity="0.1" />
    </g>
    <g id="button-pressed-bottom" transform="translate(48)">
      <rect width="16" height="4" x="4" y="20" class="surface-container-highest" />
      <rect width="16" height="4" x="4" y="20" class="primary" opacity="0.1" />
    </g>
    <g id="button-pressed-bottomright" transform="translate(48)">
      <path d="m 24,20 q 0,4 -4,4 v -4 z" class="surface-container-highest" />
      <path d="m 24,20 q 0,4 -4,4 v -4 z" class="primary" opacity="0.1" />
    </g>
    <path id="button-toggled-topleft" d="M 0,4 Q 0,0 4,0 v 4 z" class="primary" transform="translate(72)" />
    <rect id="button-toggled-top" width="16" height="4" x="4" y="0" class="primary" transform="translate(72)" />
    <path id="button-toggled-topright" d="M 24,4 Q 24,0 20,0 v 4 z" class="primary" transform="translate(72)" />
    <rect id="button-toggled-left" width="4" height="16" x="0" y="4" class="primary" transform="translate(72)" />
    <rect id="button-toggled" width="16" height="16" x="4" y="4" class="primary" transform="translate(72)" />
    <rect id="button-toggled-right" width="4" height="16" x="20" y="4" class="primary" transform="translate(72)" />
    <path id="button-toggled-bottomleft" d="m 0,20 q 0,4 4,4 v -4 z" class="primary" transform="translate(72)" />
    <rect id="button-toggled-bottom" width="16" height="4" x="4" y="20" class="primary" transform="translate(72)" />
    <path id="button-toggled-bottomright" d="m 24,20 q 0,4 -4,4 v -4 z" class="primary" transform="translate(72)" />
    <rect id="button-default-indicator" width="12" height="12" x="0" y="0" opacity="0" transform="translate(96)" />
  </g>
  <g id="toolbar-group" transform="translate(108)">
    <rect id="toolbar-normal-topleft" width="4" height="4" x="0" y="0" fill="#008080" />
    <rect id="toolbar-normal-top" width="16" height="4" x="4" y="0" fill="#008080" />
    <rect id="toolbar-normal-topright" width="4" height="4" x="20" y="0" fill="#008080" />
    <rect id="toolbar-normal-left" width="4" height="16" x="0" y="4" fill="#008080" />
    <rect id="toolbar-normal" width="16" height="16" x="4" y="4" fill="#008080" />
    <rect id="toolbar-normal-right" width="4" height="16" x="20" y="4" fill="#008080" />
    <rect id="toolbar-normal-bottomleft" width="4" height="4" x="0" y="20" fill="#008080" />
    <rect id="toolbar-normal-bottom" width="16" height="4" x="4" y="20" fill="#008080" />
    <rect id="toolbar-normal-bottomright" width="4" height="4" x="20" y="20" fill="#008080" />
    <rect id="toolbar-separator" width="7.5" height="10" x="24" y="0" fill="#800080" />
    <g id="toolbar-handle">
      <rect width="8" height="10" x="32" y="0" opacity="0" />
      <rect width="2" height="8" x="35" y="1" fill="#808000" />
    </g>
  </g>
  <g id="lineedit-group" transform="translate(0,24)">
    <g id="lineedit-normal-topleft">
      <rect width="4" height="4" x="0" y="0" opacity="0" />
      <path d="M 1,4 Q 1,1 4,1 v 3 z" class="surface-container-highest" opacity="0" />
      <path d="M 0.5,4 Q 0.5,0.5 4,0.5 v 1 Q 1.5,1.5 1.5,4 Z" class="fill-outline" />
    </g>
    <g id="lineedit-normal-top" transform="translate(4)">
      <rect width="16" height="4" x="0" y="0" opacity="0" />
      <rect width="16" height="3" x="0" y="1" class="surface-container-highest" opacity="0" />
      <rect width="16" height="1" x="0" y="0.5" class="fill-outline" />
    </g>
    <g id="lineedit-normal-topright" transform="translate(20)">
      <rect width="4" height="4" x="0" y="0" opacity="0" />
      <path d="M 3,4 Q 3,1 0,1 v 3 z" class="surface-container-highest" opacity="0" />
      <path d="M 3.5,4 Q 3.5,0.5 0,0.5 v 1 q 2.5,0 2.5,2.5 z" class="fill-outline" />
    </g>
    <g id="lineedit-normal-left" transform="translate(0,4)">
      <rect width="4" height="16" x="0" y="0" opacity="0" />
      <rect width="3" height="16" x="1" y="0" class="surface-container-highest" opacity="0" />
      <rect width="1" height="16" x="0.5" y="0" class="fill-outline" />
    </g>
    <rect id="lineedit-normal" width="16" height="16" x="4" y="4" class="surface-container-highest" opacity="0" />
    <g id="lineedit-normal-right" transform="translate(20,4)">
      <rect width="4" height="16" x="0" y="0" opacity="0" />
      <rect width="3" height="16" x="0" y="0" class="surface-container-highest" opacity="0" />
      <rect width="1" height="16" x="2.5" y="0" class="fill-outline" />
    </g>
    <g id="lineedit-normal-bottomleft" transform="translate(0,20)">
      <rect width="4" height="4" x="0" y="0" opacity="0" />
      <path d="M 1,0 Q 1,3 4,3 V 0 Z" class="surface-container-highest" opacity="0" />
      <path d="m 0.5,0 q 0,3.5 3.5,3.5 v -1 Q 1.5,2.5 1.5,0 Z" class="fill-outline" />
    </g>
    <g id="lineedit-normal-bottom" transform="translate(4,20)">
      <rect width="16" height="4" x="0" y="0" opacity="0" />
      <rect width="16" height="3" x="0" y="0" class="surface-container-highest" opacity="0" />
      <rect width="16" height="1" x="0" y="2.5" class="fill-outline" />
    </g>
    <g id="lineedit-normal-bottomright" transform="translate(20,20)">
      <rect width="4" height="4" x="0" y="0" opacity="0" />
      <path d="M 3,0 Q 3,3 0,3 V 0 Z" class="surface-container-highest" opacity="0" />
      <path d="M 3.5,0 Q 3.5,3.5 0,3.5 v -1 Q 2.5,2.5 2.5,0 Z" class="fill-outline" />
    </g>
    <g id="lineedit-focused-topleft" transform="translate(24)">
      <path d="M 1,4 Q 1,1 4,1 v 3 z" class="surface-container-highest" opacity="0" />
      <path d="M 0,4 Q 0,0 4,0 V 2 Q 2,2 2,4 Z" class="primary" />
    </g>
    <g id="lineedit-focused-top" transform="translate(28)">
      <rect width="16" height="3" x="0" y="1" class="surface-container-highest" opacity="0" />
      <rect width="16" height="2" x="0" y="0" class="primary" />
    </g>
    <g id="lineedit-focused-topright" transform="translate(44)">
      <path d="M 3,4 Q 3,1 0,1 v 3 z" class="surface-container-highest" opacity="0" />
      <path d="M 4,4 Q 4,0 0,0 v 2 q 2,0 2,2 z" class="primary" />
    </g>
    <g id="lineedit-focused-left" transform="translate(24,4)">
      <rect width="3" height="16" x="1" y="0" class="surface-container-highest" opacity="0" />
      <rect width="2" height="16" x="0" y="0" class="primary" />
    </g>
    <rect id="lineedit-focused" width="16" height="16" x="28" y="4" class="surface-container-highest" opacity="0" />
    <g id="lineedit-focused-right" transform="translate(44,4)">
      <rect width="3" height="16" x="0" y="0" class="surface-container-highest" opacity="0" />
      <rect width="2" height="16" x="2" y="0" class="primary" />
    </g>
    <g id="lineedit-focused-bottomleft" transform="translate(24,20)">
      <path d="M 1,0 Q 1,3 4,3 V 0 Z" class="surface-container-highest" opacity="0" />
      <path d="M 0,0 Q 0,4 4,4 V 2 Q 2,2 2,0 Z" class="primary" />
    </g>
    <g id="lineedit-focused-bottom" transform="translate(28,20)">
      <rect width="16" height="3" x="0" y="0" class="surface-container-highest" opacity="0" />
      <rect width="16" height="2" x="0" y="2" class="primary" />
    </g>
    <g id="lineedit-focused-bottomright" transform="translate(44,20)">
      <path d="M 3,0 Q 3,3 0,3 V 0 Z" class="surface-container-highest" opacity="0" />
      <path d="M 4,0 Q 4,4 0,4 V 2 Q 2,2 2,0 Z" class="primary" />
    </g>
  </g>
  <g id="progress-group" transform="translate(48,24)">
    <rect id="progress-pattern-normal" width="8" height="8" x="0" y="0" class="primary" />
    <rect id="progress-pattern-focused" width="8" height="8" x="8" y="0" class="primary" />
    <rect id="progress-pattern-toggled" width="8" height="8" x="16" y="0" class="primary" />
    <rect id="progress-pattern-disabled" width="8" height="8" x="24" y="0" class="on-surface-variant" opacity="0.12" />
    <!-- 
    id="progress-normal-topleft"
    id="progress-normal-top"
    id="progress-normal-topright"
    id="progress-normal-left"
    id="progress-normal"
    id="progress-normal-right"
    id="progress-normal-bottomleft"
    id="progress-normal-bottom"
    id="progress-normal-bottomright"
    -->
  </g>
  <g id="radio-group" transform="translate(80,24)">
    <g id="radio-normal">
      <circle cx="11" cy="11" r="11" opacity="0" />
      <path
        d="M 11,21 Q 8.925,21 7.1,20.213 5.275,19.425 3.925,18.075 2.575,16.725 1.788,14.9 1,13.075 1,11 1,8.925 1.788,7.1 2.575,5.275 3.925,3.925 5.275,2.575 7.1,1.788 8.925,1 11,1 q 2.075,0 3.9,0.788 1.825,0.787 3.175,2.137 1.35,1.35 2.138,3.175 Q 21,8.925 21,11 q 0,2.075 -0.788,3.9 -0.788,1.825 -2.138,3.175 -1.35,1.35 -3.175,2.138 Q 13.075,21 11,21 Z m 0,-2 q 3.35,0 5.675,-2.325 Q 19,14.35 19,11 19,7.65 16.675,5.325 14.35,3 11,3 7.65,3 5.325,5.325 3,7.65 3,11 3,14.35 5.325,16.675 7.65,19 11,19 Z m 0,-8 z"
        class="on-surface-variant" />
    </g>
    <g id="radio-focused" transform="translate(0,22)">
      <circle cx="11" cy="11" r="11" class="on-surface" opacity="0.1" />
      <path
        d="M 11,21 Q 8.925,21 7.1,20.213 5.275,19.425 3.925,18.075 2.575,16.725 1.788,14.9 1,13.075 1,11 1,8.925 1.788,7.1 2.575,5.275 3.925,3.925 5.275,2.575 7.1,1.788 8.925,1 11,1 q 2.075,0 3.9,0.788 1.825,0.787 3.175,2.137 1.35,1.35 2.138,3.175 Q 21,8.925 21,11 q 0,2.075 -0.788,3.9 -0.788,1.825 -2.138,3.175 -1.35,1.35 -3.175,2.138 Q 13.075,21 11,21 Z m 0,-2 q 3.35,0 5.675,-2.325 Q 19,14.35 19,11 19,7.65 16.675,5.325 14.35,3 11,3 7.65,3 5.325,5.325 3,7.65 3,11 3,14.35 5.325,16.675 7.65,19 11,19 Z m 0,-8 z"
        class="on-surface" />
    </g>
    <g id="radio-checked-normal" transform="translate(22)">
      <circle cx="11" cy="11" r="11" opacity="0" />
      <path
        d="m 11,16 q 2.075,0 3.538,-1.463 Q 16,13.075 16,11 16,8.925 14.538,7.463 13.075,6 11,6 8.925,6 7.463,7.463 6,8.925 6,11 6,13.075 7.463,14.538 8.925,16 11,16 Z m 0,5 Q 8.925,21 7.1,20.213 5.275,19.425 3.925,18.075 2.575,16.725 1.788,14.9 1,13.075 1,11 1,8.925 1.788,7.1 2.575,5.275 3.925,3.925 5.275,2.575 7.1,1.788 8.925,1 11,1 q 2.075,0 3.9,0.788 1.825,0.787 3.175,2.137 1.35,1.35 2.138,3.175 Q 21,8.925 21,11 q 0,2.075 -0.788,3.9 -0.788,1.825 -2.138,3.175 -1.35,1.35 -3.175,2.138 Q 13.075,21 11,21 Z m 0,-2 q 3.35,0 5.675,-2.325 Q 19,14.35 19,11 19,7.65 16.675,5.325 14.35,3 11,3 7.65,3 5.325,5.325 3,7.65 3,11 3,14.35 5.325,16.675 7.65,19 11,19 Z m 0,-8 z"
        class="primary" />
    </g>
    <g id="radio-checked-focused" transform="translate(22,22)">
      <circle cx="11" cy="11" r="11" class="primary" opacity="0.1" />
      <path
        d="m 11,16 q 2.075,0 3.538,-1.463 Q 16,13.075 16,11 16,8.925 14.538,7.463 13.075,6 11,6 8.925,6 7.463,7.463 6,8.925 6,11 6,13.075 7.463,14.538 8.925,16 11,16 Z m 0,5 Q 8.925,21 7.1,20.213 5.275,19.425 3.925,18.075 2.575,16.725 1.788,14.9 1,13.075 1,11 1,8.925 1.788,7.1 2.575,5.275 3.925,3.925 5.275,2.575 7.1,1.788 8.925,1 11,1 q 2.075,0 3.9,0.788 1.825,0.787 3.175,2.137 1.35,1.35 2.138,3.175 Q 21,8.925 21,11 q 0,2.075 -0.788,3.9 -0.788,1.825 -2.138,3.175 -1.35,1.35 -3.175,2.138 Q 13.075,21 11,21 Z m 0,-2 q 3.35,0 5.675,-2.325 Q 19,14.35 19,11 19,7.65 16.675,5.325 14.35,3 11,3 7.65,3 5.325,5.325 3,7.65 3,11 3,14.35 5.325,16.675 7.65,19 11,19 Z m 0,-8 z"
        class="primary" />
    </g>
  </g>
  <g id="checkbox-group" transform="translate(124,24)">
    <g id="checkbox-normal">
      <path d="M 0,4 Q 0,0 4,0 h 14 q 4,0 4,4 v 14 q 0,4 -4,4 H 4 Q 0,22 0,18 Z" opacity="0" />
      <path d="M 2,4 Q 2,2 4,2 h 14 q 2,0 2,2 v 14 q 0,2 -2,2 H 4 Q 2,20 2,18 V 4 H 4 V 18 H 18 V 4 Z"
        class="on-surface-variant" />
    </g>
    <g id="checkbox-focused" transform="translate(0,22)">
      <path d="M 0,4 Q 0,0 4,0 h 14 q 4,0 4,4 v 14 q 0,4 -4,4 H 4 Q 0,22 0,18 Z" class="on-surface" opacity="0.1" />
      <path d="M 2,4 Q 2,2 4,2 h 14 q 2,0 2,2 v 14 q 0,2 -2,2 H 4 Q 2,20 2,18 V 4 H 4 V 18 H 18 V 4 Z"
        class="on-surface" />
    </g>
    <g id="checkbox-checked-normal" transform="translate(22)">
      <path d="M 0,4 Q 0,0 4,0 h 14 q 4,0 4,4 v 14 q 0,4 -4,4 H 4 Q 0,22 0,18 Z" opacity="0" />
      <path d="M 2,4 Q 2,2 4,2 h 14 q 2,0 2,2 v 14 q 0,2 -2,2 H 4 Q 2,20 2,18 Z" class="primary" />
      <path d="M 9.6,15.2 16.65,8.15 15.25,6.75 9.6,12.4 6.75,9.55 l -1.4,1.4 z" class="on-primary" />
    </g>
    <g id="checkbox-checked-focused" transform="translate(22,22)">
      <path d="M 0,4 Q 0,0 4,0 h 14 q 4,0 4,4 v 14 q 0,4 -4,4 H 4 Q 0,22 0,18 Z" class="primary" opacity="0.1" />
      <path d="M 2,4 Q 2,2 4,2 h 14 q 2,0 2,2 v 14 q 0,2 -2,2 H 4 Q 2,20 2,18 Z" class="primary" />
      <path d="M 9.6,15.2 16.65,8.15 15.25,6.75 9.6,12.4 6.75,9.55 l -1.4,1.4 z" class="on-primary" />
    </g>
    <g id="checkbox-tristate-normal" transform="translate(44)">
      <path d="M 0,4 Q 0,0 4,0 h 14 q 4,0 4,4 v 14 q 0,4 -4,4 H 4 Q 0,22 0,18 Z" opacity="0" />
      <path d="M 2,4 Q 2,2 4,2 h 14 q 2,0 2,2 v 14 q 0,2 -2,2 H 4 Q 2,20 2,18 Z" class="primary" />
      <path d="M 6,12 H 16 V 10 H 6 Z" class="on-primary" />
    </g>
    <g id="checkbox-tristate-focused" transform="translate(44,22)">
      <path d="M 0,4 Q 0,0 4,0 h 14 q 4,0 4,4 v 14 q 0,4 -4,4 H 4 Q 0,22 0,18 Z" class="primary" opacity="0.1" />
      <path d="M 2,4 Q 2,2 4,2 h 14 q 2,0 2,2 v 14 q 0,2 -2,2 H 4 Q 2,20 2,18 Z" class="primary" />
      <path d="M 6,12 H 16 V 10 H 6 Z" class="on-primary" />
    </g>
  </g>
  <g id="arrow-group" transform="translate(0,68)">
    <g id="arrow-up-normal">
      <rect width="24" height="24" x="0" y="0" opacity="0" />
      <path d="m 1,17.5 11,-11 11,11 z" class="on-surface-variant" />
    </g>
    <g id="arrow-up-focused" transform="translate(24)">
      <rect width="24" height="24" x="0" y="0" opacity="0" />
      <path d="m 1,17.5 11,-11 11,11 z" class="primary" />
    </g>
    <g id="arrow-up-pressed" transform="translate(48)">
      <rect width="24" height="24" x="0" y="0" opacity="0" />
      <path d="m 1,17.5 11,-11 11,11 z" class="primary" />
    </g>
    <g id="arrow-up-disabled" transform="translate(72)">
      <rect width="24" height="24" x="0" y="0" opacity="0" />
      <path d="m 1,17.5 11,-11 11,11 z" class="on-surface" opacity="0.38" />
    </g>
    <g id="arrow-down-normal" transform="translate(0,24)">
      <rect width="24" height="24" x="0" y="0" opacity="0" />
      <path d="M 12,17.5 1,6.5 h 22 z" class="on-surface-variant" />
    </g>
    <g id="arrow-down-focused" transform="translate(24,24)">
      <rect width="24" height="24" x="0" y="0" opacity="0" />
      <path d="M 12,17.5 1,6.5 h 22 z" class="primary" />
    </g>
    <g id="arrow-down-pressed" transform="translate(48,24)">
      <rect width="24" height="24" x="0" y="0" opacity="0" />
      <path d="M 12,17.5 1,6.5 h 22 z" class="primary" />
    </g>
    <g id="arrow-down-disabled" transform="translate(72,24)">
      <rect width="24" height="24" x="0" y="0" opacity="0" />
      <path d="M 12,17.5 1,6.5 h 22 z" class="on-surface" opacity="0.38" />
    </g>
    <g id="arrow-plus-normal" transform="translate(0,48)">
      <rect width="24" height="24" x="0" y="0" opacity="0" />
      <path d="M 10.429,13.571 H 1 v -3.143 h 9.429 V 1 h 3.143 v 9.429 H 23 v 3.143 H 13.571 V 23 h -3.143 z"
        class="on-surface-variant" />
    </g>
    <g id="arrow-plus-focused" transform="translate(24,48)">
      <rect width="24" height="24" x="0" y="0" opacity="0" />
      <path d="M 10.429,13.571 H 1 v -3.143 h 9.429 V 1 h 3.143 v 9.429 H 23 v 3.143 H 13.571 V 23 h -3.143 z"
        class="primary" />
    </g>
    <g id="arrow-plus-pressed" transform="translate(48,48)">
      <rect width="24" height="24" x="0" y="0" opacity="0" />
      <path d="M 10.429,13.571 H 1 v -3.143 h 9.429 V 1 h 3.143 v 9.429 H 23 v 3.143 H 13.571 V 23 h -3.143 z"
        class="primary" />
    </g>
    <g id="arrow-plus-disabled" transform="translate(72,48)">
      <rect width="24" height="24" x="0" y="0" opacity="0" />
      <path d="M 10.429,13.571 H 1 v -3.143 h 9.429 V 1 h 3.143 v 9.429 H 23 v 3.143 H 13.571 V 23 h -3.143 z"
        class="on-surface" opacity="0.38" />
    </g>
    <g id="arrow-left-normal" transform="translate(96)">
      <rect width="24" height="24" x="0" y="0" opacity="0" />
      <path d="M 9.25,20.25 1,12 9.25,3.75 11.175,5.744 6.294,10.625 H 23 v 2.75 H 6.294 l 4.881,4.881 z"
        class="on-surface-variant" />
    </g>
    <g id="arrow-left-focused" transform="translate(120)">
      <rect width="24" height="24" x="0" y="0" opacity="0" />
      <path d="M 9.25,20.25 1,12 9.25,3.75 11.175,5.744 6.294,10.625 H 23 v 2.75 H 6.294 l 4.881,4.881 z"
        class="primary" />
    </g>
    <g id="arrow-left-pressed" transform="translate(144)">
      <rect width="24" height="24" x="0" y="0" opacity="0" />
      <path d="M 9.25,20.25 1,12 9.25,3.75 11.175,5.744 6.294,10.625 H 23 v 2.75 H 6.294 l 4.881,4.881 z"
        class="primary" />
    </g>
    <g id="arrow-left-disabled" transform="translate(168)">
      <rect width="24" height="24" x="0" y="0" opacity="0" />
      <path d="M 9.25,20.25 1,12 9.25,3.75 11.175,5.744 6.294,10.625 H 23 v 2.75 H 6.294 l 4.881,4.881 z"
        class="on-surface" opacity="0.38" />
    </g>
    <g id="arrow-right-normal" transform="translate(96,24)">
      <rect width="24" height="24" x="0" y="0" opacity="0" />
      <path d="m 14.75,20.25 -1.925,-1.994 4.881,-4.881 H 1 v -2.75 H 17.706 L 12.825,5.744 14.75,3.75 23,12 Z"
        class="on-surface-variant" />
    </g>
    <g id="arrow-right-focused" transform="translate(120,24)">
      <rect width="24" height="24" x="0" y="0" opacity="0" />
      <path d="m 14.75,20.25 -1.925,-1.994 4.881,-4.881 H 1 v -2.75 H 17.706 L 12.825,5.744 14.75,3.75 23,12 Z"
        class="primary" />
    </g>
    <g id="arrow-right-pressed" transform="translate(144,24)">
      <rect width="24" height="24" x="0" y="0" opacity="0" />
      <path d="m 14.75,20.25 -1.925,-1.994 4.881,-4.881 H 1 v -2.75 H 17.706 L 12.825,5.744 14.75,3.75 23,12 Z"
        class="primary" />
    </g>
    <g id="arrow-right-disabled" transform="translate(168,24)">
      <rect width="24" height="24" x="0" y="0" opacity="0" />
      <path d="m 14.75,20.25 -1.925,-1.994 4.881,-4.881 H 1 v -2.75 H 17.706 L 12.825,5.744 14.75,3.75 23,12 Z"
        class="on-surface" opacity="0.38" />
    </g>
    <g id="arrow-minus-normal" transform="translate(96,48)">
      <rect width="24" height="24" x="0" y="0" opacity="0" />
      <path d="M 0.999,13.571 V 10.428 H 23 v 3.143 z" class="on-surface-variant" />
    </g>
    <g id="arrow-minus-focused" transform="translate(120,48)">
      <rect width="24" height="24" x="0" y="0" opacity="0" />
      <path d="M 0.999,13.571 V 10.428 H 23 v 3.143 z" class="primary" />
    </g>
    <g id="arrow-minus-pressed" transform="translate(144,48)">
      <rect width="24" height="24" x="0" y="0" opacity="0" />
      <path d="M 0.999,13.571 V 10.428 H 23 v 3.143 z" class="primary" />
    </g>
    <g id="arrow-minus-disabled" transform="translate(168,48)">
      <rect width="24" height="24" x="0" y="0" opacity="0" />
      <path d="M 0.999,13.571 V 10.428 H 23 v 3.143 z" class="on-surface" opacity="0.38" />
    </g>
  </g>
  <g id="menu-group" transform="translate(0,140)">
    <g id="menu-shadow-topleft" transform="translate(28)">
      <rect width="6" height="6" x="0" y="0" opacity="0" />
      <path d="M 5.754,2.004 C 2.638,2.07 0.787,3.402 0.203,6 H 2 C 2,3.417 3.251,2.085 5.754,2.004 Z"
        fill="url(#msa-tl)" opacity="0.15" style="fill:url(#radialGradient88)" />
      <path d="M 2,6 Q 2,2 6,2 v 4 z" class="fill-surface-container" />
    </g>
    <g id="menu-shadow-top" transform="translate(28)">
      <rect width="16" height="2" x="6" y="0" opacity="0" />
      <rect width="16" height="4" x="6" y="2" class="fill-surface-container" />
    </g>
    <g id="menu-shadow-topright" transform="translate(28)">
      <rect width="6" height="6" x="22" y="0" opacity="0" />
      <path d="M 22.246,2.004 C 24.749,2.085 26,3.417 26,6 h 1.797 C 27.213,3.402 25.362,2.07 22.246,2.004 Z"
        fill="url(#msa-tr)" opacity="0.15" style="fill:url(#radialGradient89)" />
      <path d="M 26,6 Q 26,2 22,2 v 4 z" class="fill-surface-container" />
    </g>
    <g id="menu-shadow-left" transform="translate(28)">
      <path d="M 0.203,6 C 0.068,6.6 0,7.266 0,8 H 2 V 6 Z" fill="url(#msa-tl)" opacity="0.15"
        style="fill:url(#msa-tl)" />
      <rect width="2" height="14" x="0" y="8" fill="url(#msa-l)" opacity="0.15" style="fill:url(#linearGradient89)" />
      <rect width="4" height="16" x="2" y="6" class="fill-surface-container" />
    </g>
    <g id="menu-shadow-right" transform="translate(28)">
      <path id="msa-r-1" d="m 26,6 v 2 h 2 C 28,7.266 27.932,6.6 27.797,6 Z" fill="url(#msa-tr)" opacity="0.15"
        style="fill:url(#msa-tr)" />
      <rect width="2" height="14" x="26" y="8" fill="url(#msa-r)" opacity="0.15" style="fill:url(#linearGradient90)" />
      <rect width="4" height="16" x="22" y="6" class="fill-surface-container" />
    </g>
    <g id="menu-shadow-bottomleft" transform="translate(28)">
      <path d="m 2,22 v 1 H 2.072 C 2.024,22.69 2,22.358 2,22 Z" fill="url(#msb-l)" opacity="0.3"
        style="fill:url(#msb-l)" />
      <path d="m 2,23 c 0,2.667 1.333,4 4,4 V 26 C 3.691,26 2.382,25 2.072,23 Z" fill="url(#msb-bl)" opacity="0.3"
        style="fill:url(#msb-bl)" />
      <path d="m 0,22 v 2 H 2.344 C 2.115,23.448 2,22.781 2,22 Z" fill="url(#msa-l)" opacity="0.15"
        style="fill:url(#msa-l)" />
      <path d="m 0,24 c 0,4 2,6 6,6 V 26 C 4.115,26 2.896,25.333 2.344,24 Z" fill="url(#msa-bl)" opacity="0.15"
        style="fill:url(#msa-bl)" />
      <path d="m 2,22 q 0,4 4,4 v -4 z" class="fill-surface-container" />
    </g>
    <g id="menu-shadow-bottom" transform="translate(28)">
      <rect width="16" height="1" x="6" y="26" fill="url(#msb-b)" opacity="0.3" style="fill:url(#msb-b)" />
      <rect width="16" height="4" x="6" y="26" fill="url(#msa-b)" opacity="0.15" style="fill:url(#msa-b)" />
      <rect width="16" height="4" x="6" y="22" class="fill-surface-container" />
    </g>
    <g id="menu-shadow-bottomright" transform="translate(28)">
      <path d="m 26,22 c 0,0.358 -0.024,0.69 -0.072,1 H 26 Z" fill="url(#msb-r)" opacity="0.3"
        style="fill:url(#msb-r)" />
      <path d="m 25.928,23 c -0.31,2 -1.619,3 -3.928,3 v 1 c 2.667,0 4,-1.333 4,-4 z" fill="url(#msb-br)" opacity="0.3"
        style="fill:url(#msb-br)" />
      <path id="msa-br-1" d="m 26,22 c 0,0.781 -0.115,1.448 -0.344,2 H 28 v -2 z" fill="url(#msa-r)" opacity="0.15"
        style="fill:url(#msa-r)" />
      <path id="msa-br-2" d="M 25.656,24 C 25.104,25.333 23.885,26 22,26 v 4 c 4,0 6,-2 6,-6 z" fill="url(#msa-br)"
        opacity="0.15" style="fill:url(#msa-br)" />
      <path d="m 26,22 q 0,4 -4,4 v -4 z" class="fill-surface-container" />
    </g>
    <path id="menu-normal-topleft" d="M 2,6 Q 2,2 6,2 v 4 z" class="fill-surface-container" />
    <rect id="menu-normal-top" width="16" height="4" x="6" y="2" class="fill-surface-container" />
    <path id="menu-normal-topright" d="M 26,6 Q 26,2 22,2 v 4 z" class="fill-surface-container" />
    <rect id="menu-normal-left" width="4" height="16" x="2" y="6" class="fill-surface-container" />
    <rect id="menu-normal" width="16" height="16" x="6" y="6" class="fill-surface-container" />
    <rect id="menu-normal-right" width="4" height="16" x="22" y="6" class="fill-surface-container" />
    <path id="menu-normal-bottomleft" d="m 2,22 q 0,4 4,4 v -4 z" class="fill-surface-container" />
    <rect id="menu-normal-bottom" width="16" height="4" x="6" y="22" class="fill-surface-container" />
    <path id="menu-normal-bottomright" d="m 26,22 q 0,4 -4,4 v -4 z" class="fill-surface-container" />
    <rect id="menu-shadow-hint-top" width="1" height="2" x="13.5" y="0" fill="#008080" transform="translate(28)" />
    <rect id="menu-shadow-hint-left" width="2" height="1" x="0" y="13.5" fill="#008080" transform="translate(28)" />
    <rect id="menu-shadow-hint-right" width="2" height="1" x="26" y="13.5" fill="#008080" transform="translate(28)" />
    <rect id="menu-shadow-hint-bottom" width="1" height="4" x="13.5" y="26" fill="#008080" transform="translate(28)" />
    <rect id="menuitem-toggled" width="30" height="10" x="56" y="10" class="fill-secondary-container" />
    <g id="menuitem-pressed" transform="translate(56)">
      <rect width="30" height="10" x="0" y="0" class="fill-secondary-container" />
      <rect width="30" height="10" x="0" y="0" class="on-surface" opacity="0.08" />
    </g>
  </g>
  <g id="mdi-group" transform="translate(0,170)">
    <g id="mdi-maximize-normal">
      <rect width="24" height="24" x="0" y="0" opacity="0" />
      <path d="M 2,20 V 4 H 22 V 20 Z M 4,18 H 20 V 8 H 4 Z" />
    </g>
    <g id="mdi-maximize-focused" transform="translate(0,24)">
      <rect width="24" height="24" x="0" y="0" opacity="0" />
      <path d="M 2,20 V 4 H 22 V 20 Z M 4,18 H 20 V 8 H 4 Z" />
    </g>
    <g id="mdi-maximize-pressed" transform="translate(0,48)">
      <rect width="24" height="24" x="0" y="0" opacity="0" />
      <path d="M 2,20 V 4 H 22 V 20 Z M 4,18 H 20 V 8 H 4 Z" />
    </g>
    <g id="mdi-maximize-disabled" transform="translate(0,72)">
      <rect width="24" height="24" x="0" y="0" opacity="0" />
      <path d="M 2,20 V 4 H 22 V 20 Z M 4,18 H 20 V 8 H 4 Z" />
    </g>
    <g id="mdi-restore-normal" transform="translate(24)">
      <rect width="24" height="24" x="0" y="0" opacity="0" />
      <path d="M 2,22 V 9 H 6 V 2 h 16 v 13 h -4 v 7 z M 4,20 H 16 V 13 H 4 Z m 14,-7 h 2 V 6 H 8 v 3 h 10 z" />
    </g>
    <g id="mdi-restore-focused" transform="translate(24,24)">
      <rect width="24" height="24" x="0" y="0" opacity="0" />
      <path d="M 2,22 V 9 H 6 V 2 h 16 v 13 h -4 v 7 z M 4,20 H 16 V 13 H 4 Z m 14,-7 h 2 V 6 H 8 v 3 h 10 z" />
    </g>
    <g id="mdi-restore-pressed" transform="translate(24,48)">
      <rect width="24" height="24" x="0" y="0" opacity="0" />
      <path d="M 2,22 V 9 H 6 V 2 h 16 v 13 h -4 v 7 z M 4,20 H 16 V 13 H 4 Z m 14,-7 h 2 V 6 H 8 v 3 h 10 z" />
    </g>
    <g id="mdi-restore-disabled" transform="translate(24,72)">
      <rect width="24" height="24" x="0" y="0" opacity="0" />
      <path d="M 2,22 V 9 H 6 V 2 h 16 v 13 h -4 v 7 z M 4,20 H 16 V 13 H 4 Z m 14,-7 h 2 V 6 H 8 v 3 h 10 z" />
    </g>
    <g id="mdi-minimize-normal" transform="translate(48)">
      <rect width="24" height="24" x="0" y="0" opacity="0" />
      <path d="m 4,13 v -2 h 16 v 2 z" />
    </g>
    <g id="mdi-minimize-focused" transform="translate(48,24)">
      <rect width="24" height="24" x="0" y="0" opacity="0" />
      <path d="m 4,13 v -2 h 16 v 2 z" />
    </g>
    <g id="mdi-minimize-pressed" transform="translate(48,48)">
      <rect width="24" height="24" x="0" y="0" opacity="0" />
      <path d="m 4,13 v -2 h 16 v 2 z" />
    </g>
    <g id="mdi-minimize-disabled" transform="translate(48,72)">
      <rect width="24" height="24" x="0" y="0" opacity="0" />
      <path d="m 4,13 v -2 h 16 v 2 z" />
    </g>
    <g id="mdi-close-normal" transform="translate(72)">
      <rect width="24" height="24" x="0" y="0" opacity="0" />
      <path d="M 6.4,19 5,17.6 10.6,12 5,6.4 6.4,5 12,10.6 17.6,5 19,6.4 13.4,12 19,17.6 17.6,19 12,13.4 Z" />
    </g>
    <g id="mdi-close-focused" transform="translate(72,24)">
      <rect width="24" height="24" x="0" y="0" opacity="0" />
      <path d="M 6.4,19 5,17.6 10.6,12 5,6.4 6.4,5 12,10.6 17.6,5 19,6.4 13.4,12 19,17.6 17.6,19 12,13.4 Z" />
    </g>
    <g id="mdi-close-pressed" transform="translate(72,48)">
      <rect width="24" height="24" x="0" y="0" opacity="0" />
      <path d="M 6.4,19 5,17.6 10.6,12 5,6.4 6.4,5 12,10.6 17.6,5 19,6.4 13.4,12 19,17.6 17.6,19 12,13.4 Z" />
    </g>
    <g id="mdi-close-disabled" transform="translate(72,72)">
      <rect width="24" height="24" x="0" y="0" opacity="0" />
      <path d="M 6.4,19 5,17.6 10.6,12 5,6.4 6.4,5 12,10.6 17.6,5 19,6.4 13.4,12 19,17.6 17.6,19 12,13.4 Z" />
    </g>
    <g id="mdi-shade-normal" transform="translate(96)">
      <rect width="24" height="24" x="0" y="0" opacity="0" />
      <path d="M 4,5 V 3 h 16 v 2 z m 7,16 V 10.8 L 8.4,13.4 7,12 12,7 17,12 15.6,13.4 13,10.8 V 21 Z" />
    </g>
    <g id="mdi-shade-focused" transform="translate(96,24)">
      <rect width="24" height="24" x="0" y="0" opacity="0" />
      <path d="M 4,5 V 3 h 16 v 2 z m 7,16 V 10.8 L 8.4,13.4 7,12 12,7 17,12 15.6,13.4 13,10.8 V 21 Z" />
    </g>
    <g id="mdi-shade-pressed" transform="translate(96,48)">
      <rect width="24" height="24" x="0" y="0" opacity="0" />
      <path d="M 4,5 V 3 h 16 v 2 z m 7,16 V 10.8 L 8.4,13.4 7,12 12,7 17,12 15.6,13.4 13,10.8 V 21 Z" />
    </g>
    <g id="mdi-shade-disabled" transform="translate(96,72)">
      <rect width="24" height="24" x="0" y="0" opacity="0" />
      <path d="M 4,5 V 3 h 16 v 2 z m 7,16 V 10.8 L 8.4,13.4 7,12 12,7 17,12 15.6,13.4 13,10.8 V 21 Z" />
    </g>
    <g id="mdi-menu-normal" transform="translate(120)">
      <rect width="24" height="24" x="0" y="0" opacity="0" />
      <path d="m 3,18 v -2 h 18 v 2 z m 0,-5 v -2 h 18 v 2 z M 3,8 V 6 h 18 v 2 z" style="stroke-width:0.025" />
    </g>
  </g>
</svg>