<?xml version="1.0" encoding="UTF-8" standalone="no"?>
<svg height="184" width="192" viewBox="0 0 192 184" id="svg1" version="1.1" sodipodi:docname="GoHarder.svg"
  inkscape:version="1.3.2 (091e20e, 2023-11-25, custom)" xmlns:inkscape="http://www.inkscape.org/namespaces/inkscape"
  xmlns:sodipodi="http://sodipodi.sourceforge.net/DTD/sodipodi-0.dtd" xmlns:xlink="http://www.w3.org/1999/xlink"
  xmlns="http://www.w3.org/2000/svg" xmlns:svg="http://www.w3.org/2000/svg">
  <sodipodi:namedview id="namedview1" inkscape:current-layer="svg1" pagecolor="#ffffff" bordercolor="#666666"
    borderopacity="1.0" inkscape:showpageshadow="2" inkscape:pageopacity="0.0" inkscape:pagecheckerboard="0"
    inkscape:deskcolor="#d1d1d1" inkscape:zoom="19.109" inkscape:cx="10.519" inkscape:cy="15.569"
    inkscape:window-width="1920" inkscape:window-height="1057" inkscape:window-x="-8" inkscape:window-y="-8"
    inkscape:window-maximized="1" showguides="true" />
  <defs id="defs1">
    <style id="style1">
      .fill-primary {
        fill: #95ccff;
      }

      .fill-on-primary {
        fill: #003353;
      }

      .fill-secondary-container {
        fill: #3a4857;
      }

      .fill-surface-container-low {
        fill: #1a1c1e;
      }

      .fill-surface-container {
        fill: #1e2022;
      }

      .fill-surface-container-highest {
        fill: #333538;
      }

      .fill-on-surface {
        fill: #e2e2e5;
      }

      .fill-on-surface-variant {
        fill: #c2c7cf;
      }

      .fill-outline {
        fill: #8c9198;
      }
    </style>
    <linearGradient id="menu-shadow-before">
      <stop id="stop1" stop-color="#000000" stop-opacity="1" offset="0.66" />
      <stop id="stop2" stop-color="#000000" stop-opacity="0" offset="1" />
    </linearGradient>
    <linearGradient xlink:href="#menu-shadow-before" id="msb-t" x1="28" y1="7" x2="28" y2="3"
      gradientUnits="userSpaceOnUse" />
    <linearGradient xlink:href="#menu-shadow-before" id="msb-l" x1="6" y1="15" x2="2" y2="15"
      gradientUnits="userSpaceOnUse" />
    <linearGradient xlink:href="#menu-shadow-before" id="msb-r" x1="22" y1="15" x2="26" y2="15"
      gradientUnits="userSpaceOnUse" />
    <linearGradient xlink:href="#menu-shadow-before" id="msb-b" x1="28" y1="23" x2="28" y2="27"
      gradientUnits="userSpaceOnUse" />
    <radialGradient xlink:href="#menu-shadow-before" id="msb-tl" cx="6" cy="7" r="4" gradientUnits="userSpaceOnUse" />
    <radialGradient xlink:href="#menu-shadow-before" id="msb-tr" cx="22" cy="7" r="4" gradientUnits="userSpaceOnUse" />
    <radialGradient xlink:href="#menu-shadow-before" id="msb-bl" cx="6" cy="23" r="4" gradientUnits="userSpaceOnUse" />
    <radialGradient xlink:href="#menu-shadow-before" id="msb-br" cx="22" cy="23" r="4" gradientUnits="userSpaceOnUse" />
    <linearGradient id="menu-shadow-after">
      <stop id="stop3" stop-color="#000000" stop-opacity="1" offset="0" />
      <stop id="stop4" stop-color="#000000" stop-opacity="0" offset="1" />
    </linearGradient>
    <linearGradient xlink:href="#menu-shadow-after" id="msa-t" x1="28" y1="8" x2="28" y2="2"
      gradientUnits="userSpaceOnUse" />
    <linearGradient xlink:href="#menu-shadow-after" id="msa-l" x1="6" y1="16" x2="0" y2="16"
      gradientUnits="userSpaceOnUse" />
    <linearGradient xlink:href="#menu-shadow-after" id="msa-r" x1="22" y1="16" x2="28" y2="16"
      gradientUnits="userSpaceOnUse" />
    <linearGradient xlink:href="#menu-shadow-after" id="msa-b" x1="28" y1="24" x2="28" y2="30"
      gradientUnits="userSpaceOnUse" />
    <radialGradient xlink:href="#menu-shadow-after" id="msa-tl" cx="6" cy="8" r="6" gradientUnits="userSpaceOnUse" />
    <radialGradient xlink:href="#menu-shadow-after" id="msa-tr" cx="22" cy="8" r="6" gradientUnits="userSpaceOnUse" />
    <radialGradient xlink:href="#menu-shadow-after" id="msa-bl" cx="6" cy="24" r="6" gradientUnits="userSpaceOnUse" />
    <radialGradient xlink:href="#menu-shadow-after" id="msa-br" cx="22" cy="24" r="6" gradientUnits="userSpaceOnUse" />
  </defs>
  <!-- <g id="lineedit-group">
    <g id="lineedit-normal-topleft">
      <rect width="4" height="4" x="0" y="0" opacity="0" />
      <path d="M 1,4 Q 1,1 4,1 v 3 z" class="fill-surface-container-highest" opacity="0" />
      <path d="M 0.5,4 Q 0.5,0.5 4,0.5 v 1 Q 1.5,1.5 1.5,4 Z" class="fill-outline" />
    </g>
    <g id="lineedit-normal-top" transform="translate(4)">
      <rect width="16" height="4" x="0" y="0" opacity="0" />
      <rect width="16" height="3" x="0" y="1" class="fill-surface-container-highest" opacity="0" />
      <rect width="16" height="1" x="0" y="0.5" class="fill-outline" />
    </g>
    <g id="lineedit-normal-topright" transform="translate(20)">
      <rect width="4" height="4" x="0" y="0" opacity="0" />
      <path d="M 3,4 Q 3,1 0,1 v 3 z" class="fill-surface-container-highest" opacity="0" />
      <path d="M 3.5,4 Q 3.5,0.5 0,0.5 v 1 q 2.5,0 2.5,2.5 z" class="fill-outline" />
    </g>
    <g id="lineedit-normal-left" transform="translate(0,4)">
      <rect width="4" height="16" x="0" y="0" opacity="0" />
      <rect width="3" height="16" x="1" y="0" class="fill-surface-container-highest" opacity="0" />
      <rect width="1" height="16" x="0.5" y="0" class="fill-outline" />
    </g>
    <rect id="lineedit-normal" width="16" height="16" x="4" y="4" class="fill-surface-container-highest" opacity="0" />
    <g id="lineedit-normal-right" transform="translate(20,4)">
      <rect width="4" height="16" x="0" y="0" opacity="0" />
      <rect width="3" height="16" x="0" y="0" class="fill-surface-container-highest" opacity="0" />
      <rect width="1" height="16" x="2.5" y="0" class="fill-outline" />
    </g>
    <g id="lineedit-normal-bottomleft" transform="translate(0,20)">
      <rect width="4" height="4" x="0" y="0" opacity="0" />
      <path d="M 1,0 Q 1,3 4,3 V 0 Z" class="fill-surface-container-highest" opacity="0" />
      <path d="m 0.5,0 q 0,3.5 3.5,3.5 v -1 Q 1.5,2.5 1.5,0 Z" class="fill-outline" />
    </g>
    <g id="lineedit-normal-bottom" transform="translate(4,20)">
      <rect width="16" height="4" x="0" y="0" opacity="0" />
      <rect width="16" height="3" x="0" y="0" class="fill-surface-container-highest" opacity="0" />
      <rect width="16" height="1" x="0" y="2.5" class="fill-outline" />
    </g>
    <g id="lineedit-normal-bottomright" transform="translate(20,20)">
      <rect width="4" height="4" x="0" y="0" opacity="0" />
      <path d="M 3,0 Q 3,3 0,3 V 0 Z" class="fill-surface-container-highest" opacity="0" />
      <path d="M 3.5,0 Q 3.5,3.5 0,3.5 v -1 Q 2.5,2.5 2.5,0 Z" class="fill-outline" />
    </g>
    <g id="lineedit-focused-topleft" transform="translate(24)">
      <path d="M 1,4 Q 1,1 4,1 v 3 z" class="fill-surface-container-highest" opacity="0" />
      <path d="M 0,4 Q 0,0 4,0 V 2 Q 2,2 2,4 Z" class="fill-primary" />
    </g>
    <g id="lineedit-focused-top" transform="translate(28)">
      <rect width="16" height="3" x="0" y="1" class="fill-surface-container-highest" opacity="0" />
      <rect width="16" height="2" x="0" y="0" class="fill-primary" />
    </g>
    <g id="lineedit-focused-topright" transform="translate(44)">
      <path d="M 3,4 Q 3,1 0,1 v 3 z" class="fill-surface-container-highest" opacity="0" />
      <path d="M 4,4 Q 4,0 0,0 v 2 q 2,0 2,2 z" class="fill-primary" />
    </g>
    <g id="lineedit-focused-left" transform="translate(24,4)">
      <rect width="3" height="16" x="1" y="0" class="fill-surface-container-highest" opacity="0" />
      <rect width="2" height="16" x="0" y="0" class="fill-primary" />
    </g>
    <rect id="lineedit-focused" width="16" height="16" x="28" y="4" class="fill-surface-container-highest"
      opacity="0" />
    <g id="lineedit-focused-right" transform="translate(44,4)">
      <rect width="3" height="16" x="0" y="0" class="fill-surface-container-highest" opacity="0" />
      <rect width="2" height="16" x="2" y="0" class="fill-primary" />
    </g>
    <g id="lineedit-focused-bottomleft" transform="translate(24,20)">
      <path d="M 1,0 Q 1,3 4,3 V 0 Z" class="fill-surface-container-highest" opacity="0" />
      <path d="M 0,0 Q 0,4 4,4 V 2 Q 2,2 2,0 Z" class="fill-primary" />
    </g>
    <g id="lineedit-focused-bottom" transform="translate(28,20)">
      <rect width="16" height="3" x="0" y="0" class="fill-surface-container-highest" opacity="0" />
      <rect width="16" height="2" x="0" y="2" class="fill-primary" />
    </g>
    <g id="lineedit-focused-bottomright" transform="translate(44,20)">
      <path d="M 3,0 Q 3,3 0,3 V 0 Z" class="fill-surface-container-highest" opacity="0" />
      <path d="M 4,0 Q 4,4 0,4 V 2 Q 2,2 2,0 Z" class="fill-primary" />
    </g>
  </g> -->
  <!-- <g id="radio-group" transform="translate(0,24)">
    <g id="radio-normal">
      <circle cx="11" cy="11" r="11" opacity="0" />
      <path
        d="M 11,21 Q 8.925,21 7.1,20.213 5.275,19.425 3.925,18.075 2.575,16.725 1.788,14.9 1,13.075 1,11 1,8.925 1.788,7.1 2.575,5.275 3.925,3.925 5.275,2.575 7.1,1.788 8.925,1 11,1 q 2.075,0 3.9,0.788 1.825,0.787 3.175,2.137 1.35,1.35 2.138,3.175 Q 21,8.925 21,11 q 0,2.075 -0.788,3.9 -0.788,1.825 -2.138,3.175 -1.35,1.35 -3.175,2.138 Q 13.075,21 11,21 Z m 0,-2 q 3.35,0 5.675,-2.325 Q 19,14.35 19,11 19,7.65 16.675,5.325 14.35,3 11,3 7.65,3 5.325,5.325 3,7.65 3,11 3,14.35 5.325,16.675 7.65,19 11,19 Z m 0,-8 z"
        class="fill-on-surface-variant" />
    </g>
    <g id="radio-focused" transform="translate(0,22)">
      <circle cx="11" cy="11" r="11" class="fill-on-surface" opacity="0.1" />
      <path
        d="M 11,21 Q 8.925,21 7.1,20.213 5.275,19.425 3.925,18.075 2.575,16.725 1.788,14.9 1,13.075 1,11 1,8.925 1.788,7.1 2.575,5.275 3.925,3.925 5.275,2.575 7.1,1.788 8.925,1 11,1 q 2.075,0 3.9,0.788 1.825,0.787 3.175,2.137 1.35,1.35 2.138,3.175 Q 21,8.925 21,11 q 0,2.075 -0.788,3.9 -0.788,1.825 -2.138,3.175 -1.35,1.35 -3.175,2.138 Q 13.075,21 11,21 Z m 0,-2 q 3.35,0 5.675,-2.325 Q 19,14.35 19,11 19,7.65 16.675,5.325 14.35,3 11,3 7.65,3 5.325,5.325 3,7.65 3,11 3,14.35 5.325,16.675 7.65,19 11,19 Z m 0,-8 z"
        class="fill-on-surface" />
    </g>
    <g id="radio-checked-normal" transform="translate(22)">
      <circle cx="11" cy="11" r="11" opacity="0" />
      <path
        d="m 11,16 q 2.075,0 3.538,-1.463 Q 16,13.075 16,11 16,8.925 14.538,7.463 13.075,6 11,6 8.925,6 7.463,7.463 6,8.925 6,11 6,13.075 7.463,14.538 8.925,16 11,16 Z m 0,5 Q 8.925,21 7.1,20.213 5.275,19.425 3.925,18.075 2.575,16.725 1.788,14.9 1,13.075 1,11 1,8.925 1.788,7.1 2.575,5.275 3.925,3.925 5.275,2.575 7.1,1.788 8.925,1 11,1 q 2.075,0 3.9,0.788 1.825,0.787 3.175,2.137 1.35,1.35 2.138,3.175 Q 21,8.925 21,11 q 0,2.075 -0.788,3.9 -0.788,1.825 -2.138,3.175 -1.35,1.35 -3.175,2.138 Q 13.075,21 11,21 Z m 0,-2 q 3.35,0 5.675,-2.325 Q 19,14.35 19,11 19,7.65 16.675,5.325 14.35,3 11,3 7.65,3 5.325,5.325 3,7.65 3,11 3,14.35 5.325,16.675 7.65,19 11,19 Z m 0,-8 z"
        class="fill-primary" />
    </g>
    <g id="radio-checked-focused" transform="translate(22,22)">
      <circle cx="11" cy="11" r="11" class="fill-primary" opacity="0.1" />
      <path
        d="m 11,16 q 2.075,0 3.538,-1.463 Q 16,13.075 16,11 16,8.925 14.538,7.463 13.075,6 11,6 8.925,6 7.463,7.463 6,8.925 6,11 6,13.075 7.463,14.538 8.925,16 11,16 Z m 0,5 Q 8.925,21 7.1,20.213 5.275,19.425 3.925,18.075 2.575,16.725 1.788,14.9 1,13.075 1,11 1,8.925 1.788,7.1 2.575,5.275 3.925,3.925 5.275,2.575 7.1,1.788 8.925,1 11,1 q 2.075,0 3.9,0.788 1.825,0.787 3.175,2.137 1.35,1.35 2.138,3.175 Q 21,8.925 21,11 q 0,2.075 -0.788,3.9 -0.788,1.825 -2.138,3.175 -1.35,1.35 -3.175,2.138 Q 13.075,21 11,21 Z m 0,-2 q 3.35,0 5.675,-2.325 Q 19,14.35 19,11 19,7.65 16.675,5.325 14.35,3 11,3 7.65,3 5.325,5.325 3,7.65 3,11 3,14.35 5.325,16.675 7.65,19 11,19 Z m 0,-8 z"
        class="fill-primary" />
    </g>
  </g> -->
  <g id="checkbox-group" transform="translate(0,68)">
    <g id="checkbox-normal">
      <path d="M 0,4 Q 0,0 4,0 h 14 q 4,0 4,4 v 14 q 0,4 -4,4 H 4 Q 0,22 0,18 Z" opacity="0" />
      <path d="M 2,4 Q 2,2 4,2 h 14 q 2,0 2,2 v 14 q 0,2 -2,2 H 4 Q 2,20 2,18 V 4 H 4 V 18 H 18 V 4 Z"
        class="fill-on-surface-variant" />
    </g>
    <g id="checkbox-focused" transform="translate(0,22)">
      <path d="M 0,4 Q 0,0 4,0 h 14 q 4,0 4,4 v 14 q 0,4 -4,4 H 4 Q 0,22 0,18 Z" class="fill-on-surface"
        opacity="0.1" />
      <path d="M 2,4 Q 2,2 4,2 h 14 q 2,0 2,2 v 14 q 0,2 -2,2 H 4 Q 2,20 2,18 V 4 H 4 V 18 H 18 V 4 Z"
        class="fill-on-surface" />
    </g>
    <g id="checkbox-checked-normal" transform="translate(22)">
      <path d="M 0,4 Q 0,0 4,0 h 14 q 4,0 4,4 v 14 q 0,4 -4,4 H 4 Q 0,22 0,18 Z" opacity="0" />
      <path d="M 2,4 Q 2,2 4,2 h 14 q 2,0 2,2 v 14 q 0,2 -2,2 H 4 Q 2,20 2,18 Z" class="fill-primary" />
      <path d="M 9.6,15.2 16.65,8.15 15.25,6.75 9.6,12.4 6.75,9.55 l -1.4,1.4 z" class="fill-on-primary" />
    </g>
    <g id="checkbox-checked-focused" transform="translate(22,22)">
      <path d="M 0,4 Q 0,0 4,0 h 14 q 4,0 4,4 v 14 q 0,4 -4,4 H 4 Q 0,22 0,18 Z" class="fill-primary" opacity="0.1" />
      <path d="M 2,4 Q 2,2 4,2 h 14 q 2,0 2,2 v 14 q 0,2 -2,2 H 4 Q 2,20 2,18 Z" class="fill-primary" />
      <path d="M 9.6,15.2 16.65,8.15 15.25,6.75 9.6,12.4 6.75,9.55 l -1.4,1.4 z" class="fill-on-primary" />
    </g>
    <g id="checkbox-tristate-normal" transform="translate(44)">
      <path d="M 0,4 Q 0,0 4,0 h 14 q 4,0 4,4 v 14 q 0,4 -4,4 H 4 Q 0,22 0,18 Z" opacity="0" />
      <path d="M 2,4 Q 2,2 4,2 h 14 q 2,0 2,2 v 14 q 0,2 -2,2 H 4 Q 2,20 2,18 Z" class="fill-primary" />
      <path d="M 6,12 H 16 V 10 H 6 Z" class="fill-on-primary" />
    </g>
    <g id="checkbox-tristate-focused" transform="translate(44,22)">
      <path d="M 0,4 Q 0,0 4,0 h 14 q 4,0 4,4 v 14 q 0,4 -4,4 H 4 Q 0,22 0,18 Z" class="fill-primary" opacity="0.1" />
      <path d="M 2,4 Q 2,2 4,2 h 14 q 2,0 2,2 v 14 q 0,2 -2,2 H 4 Q 2,20 2,18 Z" class="fill-primary" />
      <path d="M 6,12 H 16 V 10 H 6 Z" class="fill-on-primary" />
    </g>
  </g>
  <g id="arrow-group" transform="translate(0,112)">
    <g id="arrow-up-normal">
      <rect width="24" height="24" x="0" y="0" opacity="0" />
      <path d="m 1,17.5 11,-11 11,11 z" class="fill-on-surface-variant" />
    </g>
    <g id="arrow-up-focused" transform="translate(24,0)">
      <rect width="24" height="24" x="0" y="0" opacity="0" />
      <path d="m 1,17.5 11,-11 11,11 z" class="fill-primary" />
    </g>
    <g id="arrow-up-pressed" transform="translate(48,0)">
      <rect width="24" height="24" x="0" y="0" opacity="0" />
      <path d="m 1,17.5 11,-11 11,11 z" class="fill-primary" />
    </g>
    <g id="arrow-up-disabled" transform="translate(72,0)">
      <rect width="24" height="24" x="0" y="0" opacity="0" />
      <path d="m 1,17.5 11,-11 11,11 z" class="fill-on-surface" opacity="0.38" />
    </g>
    <g id="arrow-down-normal" transform="translate(0,24)">
      <rect width="24" height="24" x="0" y="0" opacity="0" />
      <path d="M 12,17.5 1,6.5 h 22 z" class="fill-on-surface-variant" />
    </g>
    <g id="arrow-down-focused" transform="translate(24,24)">
      <rect width="24" height="24" x="0" y="0" opacity="0" />
      <path d="M 12,17.5 1,6.5 h 22 z" class="fill-primary" />
    </g>
    <g id="arrow-down-pressed" transform="translate(48,24)">
      <rect width="24" height="24" x="0" y="0" opacity="0" />
      <path d="M 12,17.5 1,6.5 h 22 z" class="fill-primary" />
    </g>
    <g id="arrow-down-disabled" transform="translate(72,24)">
      <rect width="24" height="24" x="0" y="0" opacity="0" />
      <path d="M 12,17.5 1,6.5 h 22 z" class="fill-on-surface" opacity="0.38" />
    </g>
    <g id="arrow-plus-normal" transform="translate(0,48)">
      <rect width="24" height="24" x="0" y="0" opacity="0" />
      <path d="M 10.429,13.571 H 1 v -3.143 h 9.429 V 1 h 3.143 v 9.429 H 23 v 3.143 H 13.571 V 23 h -3.143 z"
        class="fill-on-surface-variant" />
    </g>
    <g id="arrow-plus-focused" transform="translate(24,48)">
      <rect width="24" height="24" x="0" y="0" opacity="0" />
      <path d="M 10.429,13.571 H 1 v -3.143 h 9.429 V 1 h 3.143 v 9.429 H 23 v 3.143 H 13.571 V 23 h -3.143 z"
        class="fill-primary" />
    </g>
    <g id="arrow-plus-pressed" transform="translate(48,48)">
      <rect width="24" height="24" x="0" y="0" opacity="0" />
      <path d="M 10.429,13.571 H 1 v -3.143 h 9.429 V 1 h 3.143 v 9.429 H 23 v 3.143 H 13.571 V 23 h -3.143 z"
        class="fill-primary" />
    </g>
    <g id="arrow-plus-disabled" transform="translate(72,48)">
      <rect width="24" height="24" x="0" y="0" opacity="0" />
      <path d="M 10.429,13.571 H 1 v -3.143 h 9.429 V 1 h 3.143 v 9.429 H 23 v 3.143 H 13.571 V 23 h -3.143 z"
        class="fill-on-surface" opacity="0.38" />
    </g>
    <g id="arrow-left-normal" transform="translate(96,0)">
      <rect width="24" height="24" x="0" y="0" opacity="0" />
      <path d="M 9.25,20.25 1,12 9.25,3.75 11.175,5.744 6.294,10.625 H 23 v 2.75 H 6.294 l 4.881,4.881 z"
        class="fill-on-surface-variant" />
    </g>
    <g id="arrow-left-focused" transform="translate(120,0)">
      <rect width="24" height="24" x="0" y="0" opacity="0" />
      <path d="M 9.25,20.25 1,12 9.25,3.75 11.175,5.744 6.294,10.625 H 23 v 2.75 H 6.294 l 4.881,4.881 z"
        class="fill-primary" />
    </g>
    <g id="arrow-left-pressed" transform="translate(144,0)">
      <rect width="24" height="24" x="0" y="0" opacity="0" />
      <path d="M 9.25,20.25 1,12 9.25,3.75 11.175,5.744 6.294,10.625 H 23 v 2.75 H 6.294 l 4.881,4.881 z"
        class="fill-primary" />
    </g>
    <g id="arrow-left-disabled" transform="translate(168,0)">
      <rect width="24" height="24" x="0" y="0" opacity="0" />
      <path d="M 9.25,20.25 1,12 9.25,3.75 11.175,5.744 6.294,10.625 H 23 v 2.75 H 6.294 l 4.881,4.881 z"
        class="fill-on-surface" opacity="0.38" />
    </g>
    <g id="arrow-right-normal" transform="translate(96,24)">
      <rect width="24" height="24" x="0" y="0" opacity="0" />
      <path d="m 14.75,20.25 -1.925,-1.994 4.881,-4.881 H 1 v -2.75 H 17.706 L 12.825,5.744 14.75,3.75 23,12 Z"
        class="fill-on-surface-variant" />
    </g>
    <g id="arrow-right-focused" transform="translate(120,24)">
      <rect width="24" height="24" x="0" y="0" opacity="0" />
      <path d="m 14.75,20.25 -1.925,-1.994 4.881,-4.881 H 1 v -2.75 H 17.706 L 12.825,5.744 14.75,3.75 23,12 Z"
        class="fill-primary" />
    </g>
    <g id="arrow-right-pressed" transform="translate(144,24)">
      <rect width="24" height="24" x="0" y="0" opacity="0" />
      <path d="m 14.75,20.25 -1.925,-1.994 4.881,-4.881 H 1 v -2.75 H 17.706 L 12.825,5.744 14.75,3.75 23,12 Z"
        class="fill-primary" />
    </g>
    <g id="arrow-right-disabled" transform="translate(168,24)">
      <rect width="24" height="24" x="0" y="0" opacity="0" />
      <path d="m 14.75,20.25 -1.925,-1.994 4.881,-4.881 H 1 v -2.75 H 17.706 L 12.825,5.744 14.75,3.75 23,12 Z"
        class="fill-on-surface" opacity="0.38" />
    </g>
    <g id="arrow-minus-normal" transform="translate(96,48)">
      <rect width="24" height="24" x="0" y="0" opacity="0" />
      <path d="M 0.999,13.571 V 10.428 H 23 v 3.143 z" class="fill-on-surface-variant" />
    </g>
    <g id="arrow-minus-focused" transform="translate(120,48)">
      <rect width="24" height="24" x="0" y="0" opacity="0" />
      <path d="M 0.999,13.571 V 10.428 H 23 v 3.143 z" class="fill-primary" />
    </g>
    <g id="arrow-minus-pressed" transform="translate(144,48)">
      <rect width="24" height="24" x="0" y="0" opacity="0" />
      <path d="M 0.999,13.571 V 10.428 H 23 v 3.143 z" class="fill-primary" />
    </g>
    <g id="arrow-minus-disabled" transform="translate(168,48)">
      <rect width="24" height="24" x="0" y="0" opacity="0" />
      <path d="M 0.999,13.571 V 10.428 H 23 v 3.143 z" class="fill-on-surface" opacity="0.38" />
    </g>
  </g>
  <g id="menu-group" transform="translate(0,0)">
    <path id="menu-normal-topleft" d="M 2,6 q 0,-4 4,-4 v 4 z" class="fill-surface-container" />
    <rect id="menu-normal-top" width="16" height="4" x="6" y="2" class="fill-surface-container" />
    <path id="menu-normal-topright" d="M 26,6 q 0,-4 -4,-4 v 4 z" class="fill-surface-container" />
    <rect id="menu-normal-left" width="4" height="16" x="2" y="6" class="fill-surface-container" />
    <rect id="menu-normal" width="16" height="16" x="6" y="6" class="fill-surface-container" />
    <rect id="menu-normal-right" width="4" height="16" x="22" y="6" class="fill-surface-container" />
    <path id="menu-normal-bottomleft" d="M 2,22 q 0,4 4,4 v -4 z" class="fill-surface-container" />
    <rect id="menu-normal-bottom" width="16" height="4" x="6" y="22" class="fill-surface-container" />
    <path id="menu-normal-bottomright" d="M 26,22 q 0,4 -4,4 v -4 z" class="fill-surface-container" />
    <rect id="menu-shadow-hint-top" width="1" height="2" x="13.5" y="0" fill="#008080" />
    <rect id="menu-shadow-hint-left" width="2" height="1" x="0" y="13.5" fill="#008080" />
    <rect id="menu-shadow-hint-right" width="2" height="1" x="26" y="13.5" fill="#008080" />
    <rect id="menu-shadow-hint-bottom" width="1" height="4" x="13.5" y="26" fill="#008080" />
  </g>
  <g id="menu-shadow-topleft" transform="translate(28,0)">
    <path d="M 2,7 q 0,-4 4,-4 v 4 z" fill="url(#msb-tl)" opacity="0.3" />
    <path d="M 0,8 q 0,-6 6,-6 v 6 z" fill="url(#msa-tl)" opacity="0.15" />
  </g>
  <g id="menu-shadow-top" transform="translate(28,0)">
    <rect width="16" height="4" x="6" y="3" fill="url(#msb-t)" opacity="0.3" />
    <rect width="16" height="6" x="6" y="2" fill="url(#msa-t)" opacity="0.15" />
  </g>
  <g id="menu-shadow-topright" transform="translate(28,0)">
    <path d="M 28,8 q 0,-6 -6,-6 v 6 z" fill="url(#msa-tr)" opacity="0.15" />
    <path d="M 26,7 q 0,-4 -4,-4 v 4 z" fill="url(#msb-tr)" opacity="0.3" />
  </g>
  <g id="menu-shadow-left" transform="translate(28,0)">
    <rect width="6" height="16" x="0" y="8" fill="url(#msa-l)" opacity="0.15" />
    <rect width="4" height="16" x="2" y="7" fill="url(#msb-l)" opacity="0.3" />
  </g>
  <g id="menu-shadow-right" transform="translate(28,0)">
    <rect width="6" height="16" x="22" y="8" fill="url(#msa-r)" opacity="0.15" />
    <rect width="4" height="16" x="22" y="7" fill="url(#msb-r)" opacity="0.3" />
  </g>
  <g id="menu-shadow-bottomleft" transform="translate(28,0)">
    <path d="M 0,24 q 0,6 6,6 v -6 z" fill="url(#msa-bl)" opacity="0.15" />
    <path d="M 2,23 q 0,4 4,4 v -4 z" fill="url(#msb-bl)" opacity="0.3" />
  </g>
  <g id="menu-shadow-bottom" transform="translate(28,0)">
    <rect width="16" height="6" x="6" y="24" fill="url(#msa-b)" opacity="0.15" />
    <rect width="16" height="4" x="6" y="23" fill="url(#msb-b)" opacity="0.3" />
  </g>
  <g id="menu-shadow-bottomright" transform="translate(28,0)">
    <path d="M 28,24 q 0,6 -6,6 v -6 z" fill="url(#msa-br)" opacity="0.15" />
    <path d="M 26,23 q 0,4 -4,4 v -4 z" fill="url(#msb-br)" opacity="0.3" />
  </g>

  <!-- 
  <path id="button-normal-topleft" d="M 0,8 q 0,-8 8,-8 v 8 z" class="fill-surface-container-low" />
  <rect id="button-normal-top" width="8" height="8" x="8" y="0" class="fill-surface-container-low" />
  <path id="button-normal-topright" d="M 24,8 q 0,-8 -8,-8 v 8 z" class="fill-surface-container-low" />
  <rect id="button-normal-left" width="8" height="8" x="0" y="8" class="fill-surface-container-low" />
  <rect id="button-normal" width="8" height="8" x="8" y="8" class="fill-surface-container-low" />
  <rect id="button-normal-right" width="8" height="8" x="16" y="8" class="fill-surface-container-low" />
  <path id="button-normal-bottomleft" d="M 0,16 q 0,8 8,8 v -8 z" class="fill-surface-container-low" />
  <rect id="button-normal-bottom" width="8" height="8" x="8" y="16" class="fill-surface-container-low" />
  <path id="button-normal-bottomright" d="M 24,16 q 0,8 -8,8 v -8 z" class="fill-surface-container-low" /> 
  -->
</svg>