<svg width="160" height="176" viewBox="0 0 160 176" xmlns="http://www.w3.org/2000/svg">
  <defs>
    <!-- MARK: Style -->
    <style>
      .pri {
        fill: #95ccff;
      }

      .on-pri {
        fill: #003353;
      }

      .sec-cont {
        fill: #3a4857;
      }

      .on-sec-cont {
        fill: #d5e4f6;
      }

      .surf {
        fill: #121416
      }

      .surf-cont {
        fill: #1e2022;
      }

      .surf-cont-high {
        fill: #282a2d;
      }

      .surf-cont-highest {
        fill: #333538;
      }

      .on-surf {
        fill: #e2e2e5;
      }

      .on-surf-var {
        fill: #c2c7cf;
      }

      .outline {
        fill: #8c9198;
      }

      .outline-var {
        fill: #42474e
      }

      .disabled-back {
        fill: #e2e2e5;
        opacity: 0.12;
      }

      .disabled-text {
        fill: #e2e2e5;
        opacity: 0.38;
      }
    </style>
    <!-- MARK: Shapes -->
    <path id="btn-1-tl" d="M 0,8 q 0,-8 8,-8 v 8 Z" />
    <rect id="btn-1-t" width="16" height="8" x="8" />
    <path id="btn-1-tr" d="M 32,8 q 0,-8 -8,-8 v 8 Z" />
    <rect id="btn-1-l" width="8" height="16" y="8" />
    <rect id="btn-1-c" width="16" height="16" x="8" y="8" />
    <path id="btn-1-bl" d="M 0,24 q 0,8 8,8 v -8 Z" />
    <path id="btn-1-br" d="M 32,24 q 0,8 -8,8 v -8 Z" />
    <!-- MARK: Icons -->
    <rect id="icon-box" width="10" height="10" opacity="0" />
    <path id="add" d="M 4.286,5.714 H 0 V 4.286 H 4.286 V 0 H 5.714 V 4.286 H 10 V 5.714 H 5.714 V 10 H 4.286 Z" />
    <path id="down" d="M 5,7.5 0,2.5 h 10 z" />
    <path id="left" d="M 6.917,10 1.917,5 6.917,0 8.084,1.166 l -3.834,3.834 3.834,3.834 z" />
    <path id="minus" d="M -0.002,5.715 V 4.286 H 10.002 v 1.429 z" />
    <path id="right" d="M 5.75,5 1.917,1.167 3.083,0 l 5,5 -5,5 -1.167,-1.167 z" />
    <path id="up" d="m 0,7.5 5,-5 5,5 z" />
    <path id="radio-unchk"
      d="M 12,22 Q 9.925,22 8.1,21.213 6.275,20.425 4.925,19.075 3.575,17.725 2.788,15.9 2,14.075 2,12 2,9.925 2.788,8.1 3.575,6.275 4.925,4.925 6.275,3.575 8.1,2.788 9.925,2 12,2 14.075,2 15.9,2.788 17.725,3.575 19.075,4.925 20.425,6.275 21.213,8.1 22,9.925 22,12 q 0,2.075 -0.788,3.9 -0.788,1.825 -2.138,3.175 -1.35,1.35 -3.175,2.138 Q 14.075,22 12,22 Z m 0,-2 q 3.35,0 5.675,-2.325 Q 20,15.35 20,12 20,8.65 17.675,6.325 15.35,4 12,4 8.65,4 6.325,6.325 4,8.65 4,12 4,15.35 6.325,17.675 8.65,20 12,20 Z m 0,-8 z" />
    <path id="radio-chk"
      d="m 12,17 q 2.075,0 3.538,-1.463 Q 17,14.075 17,12 17,9.925 15.538,8.463 14.075,7 12,7 9.925,7 8.463,8.463 7,9.925 7,12 7,14.075 8.463,15.538 9.925,17 12,17 Z m 0,5 Q 9.925,22 8.1,21.213 6.275,20.425 4.925,19.075 3.575,17.725 2.788,15.9 2,14.075 2,12 2,9.925 2.788,8.1 3.575,6.275 4.925,4.925 6.275,3.575 8.1,2.788 9.925,2 12,2 14.075,2 15.9,2.788 17.725,3.575 19.075,4.925 20.425,6.275 21.213,8.1 22,9.925 22,12 q 0,2.075 -0.788,3.9 -0.788,1.825 -2.138,3.175 -1.35,1.35 -3.175,2.138 Q 14.075,22 12,22 Z m 0,-2 q 3.35,0 5.675,-2.325 Q 20,15.35 20,12 20,8.65 17.675,6.325 15.35,4 12,4 8.65,4 6.325,6.325 4,8.65 4,12 4,15.35 6.325,17.675 8.65,20 12,20 Z m 0,-8 z" />
    <path id="chk-box-frame"
      d="M 3,5 q 0,-2 2,-2 h 14 q 2,0, 2,2 v 14 q 0,2 -2,2 h -14 q -2,0 -2,-2 v -14 h 2 v 14 h 14 v -14 h -14 v 14 h -2 Z" />
    <path id="chk-box-back" d="M 0,5 q 0,-5 5,-5 h 14 q 5,0 5,5 v 14 q 0,5 -5,5 h -14 q -5,0 -5,-5 Z" />
    <path id="chk-box-chk" d="m 10.6,16.2 7.05,-7.05 -1.4,-1.4 -5.65,5.65 -2.85,-2.85 -1.4,1.4 z" />
    <path id="chk-box-box" d="M 3,5 q 0,-2 2,-2 h 14 q 2,0, 2,2 v 14 q 0,2 -2,2 h -14 q -2,0 -2,-2 Z" />
    <path id="chk-box-dash" d="M 7,13 H 17 V 11 H 7 Z " />
    <path id="sizegrip"
      d="M 2,10 h 2 v 2 h -2 v -2 z m 3,0 h 2 v 2 h -2 v -2 z m 3,0 h 2 v 2 h -2 v -2 z m -3,-3 h 2 v 2 h -2 v -2 z m 3,0 h 2 v 2 h -2 v -2 z m 0,-3 h 2 v 2 h -2 v -2 z" />
  </defs>
  <g id="button-group">
    <g id="button-normal-group">
      <use id="button-normal-topleft" href="#btn-1-tl" class="surf-cont-highest" />
      <use id="button-normal-top" href="#btn-1-t" class="surf-cont-highest" />
      <use id="button-normal-topright" href="#btn-1-tr" class="surf-cont-highest" />
      <use id="button-normal-left" href="#btn-1-l" class="surf-cont-highest" />
      <use id="button-normal" href="#btn-1-c" class="surf-cont-highest" />
      <use id="button-normal-right" href="#btn-1-l" x="24" class="surf-cont-highest" />
      <use id="button-normal-bottomleft" href="#btn-1-bl" class="surf-cont-highest" />
      <use id="button-normal-bottom" href="#btn-1-t" y="24" class="surf-cont-highest" />
      <use id="button-normal-bottomright" href="#btn-1-br" class="surf-cont-highest" />
      <g id="ar-1-down-normal" transform="translate(3)">
        <use href="#icon-box" />
        <use href="#down" class="pri" />
      </g>
    </g>
    <g id="button-focused-group" transform="translate(32)">
      <g id="button-focused-topleft">
        <use href="#button-normal-topleft" />
        <use href="#btn-1-tl" class="pri" opacity="0.08" />
      </g>
      <g id="button-focused-top">
        <use href="#button-normal-top" />
        <use href="#btn-1-t" class="pri" opacity="0.08" />
      </g>
      <g id="button-focused-topright">
        <use href="#button-normal-topright" />
        <use href="#btn-1-tr" class="pri" opacity="0.08" />
      </g>
      <g id="button-focused-left">
        <use href="#button-normal-left" />
        <use href="#btn-1-l" class="pri" opacity="0.08" />
      </g>
      <g id="button-focused">
        <use href="#button-normal" />
        <use href="#btn-1-c" class="pri" opacity="0.08" />
      </g>
      <g id="button-focused-right">
        <use href="#button-normal-right" />
        <use href="#btn-1-l" x="24" class="pri" opacity="0.08" />
      </g>
      <g id="button-focused-bottomleft">
        <use href="#button-normal-bottomleft" />
        <use href="#btn-1-bl" class="pri" opacity="0.08" />
      </g>
      <g id="button-focused-bottom">
        <use href="#button-normal-bottom" />
        <use href="#btn-1-t" y="24" class="pri" opacity="0.08" />
      </g>
      <g id="button-focused-bottomright">
        <use href="#button-normal-bottomright" />
        <use href="#btn-1-br" class="pri" opacity="0.08" />
      </g>
      <g id="ar-1-down-focused" transform="translate(3)">
        <use href="#icon-box" />
        <use href="#down" class="pri" />
      </g>
    </g>
    <g id="button-pressed-group" transform="translate(64)">
      <g id="button-pressed-topleft">
        <use href="#button-normal-topleft" />
        <use href="#btn-1-tl" class="pri" opacity="0.1" />
      </g>
      <g id="button-pressed-top">
        <use href="#button-normal-top" />
        <use href="#btn-1-t" class="pri" opacity="0.1" />
      </g>
      <g id="button-pressed-topright">
        <use href="#button-normal-topright" />
        <use href="#btn-1-tr" class="pri" opacity="0.1" />
      </g>
      <g id="button-pressed-left">
        <use href="#button-normal-left" />
        <use href="#btn-1-l" class="pri" opacity="0.1" />
      </g>
      <g id="button-pressed">
        <use href="#button-normal" />
        <use href="#btn-1-c" class="pri" opacity="0.1" />
      </g>
      <g id="button-pressed-right">
        <use href="#button-normal-right" />
        <use href="#btn-1-l" x="24" class="pri" opacity="0.1" />
      </g>
      <g id="button-pressed-bottomleft">
        <use href="#button-normal-bottomleft" />
        <use href="#btn-1-bl" class="pri" opacity="0.1" />
      </g>
      <g id="button-pressed-bottom">
        <use href="#button-normal-bottom" />
        <use href="#btn-1-t" y="24" class="pri" opacity="0.1" />
      </g>
      <g id="button-pressed-bottomright">
        <use href="#button-normal-bottomright" />
        <use href="#btn-1-br" class="pri" opacity="0.1" />
      </g>
      <g id="ar-1-down-pressed" transform="translate(3)">
        <use href="#icon-box" />
        <use href="#down" class="pri" />
      </g>
    </g>
    <g id="button-toggled-group" transform="translate(96)">
      <use id="button-toggled-topleft" href="#btn-1-tl" class="pri" />
      <use id="button-toggled-top" href="#btn-1-t" class="pri" />
      <use id="button-toggled-topright" href="#btn-1-tr" class="pri" />
      <use id="button-toggled-left" href="#btn-1-l" class="pri" />
      <use id="button-toggled" href="#btn-1-c" class="pri" />
      <use id="button-toggled-right" href="#btn-1-l" x="24" class="pri" />
      <use id="button-toggled-bottomleft" href="#btn-1-bl" class="pri" />
      <use id="button-toggled-bottom" href="#btn-1-t" y="24" class="pri" />
      <use id="button-toggled-bottomright" href="#btn-1-br" class="pri" />
      <g id="ar-1-down-disabled" transform="translate(3)">
        <use href="#icon-box" />
        <use href="#down" class="disabled-text" />
      </g>
    </g>
    <rect id="button-default-indicator" width="5" height="5" opacity="0" />
  </g>
  <g id="tool-button-group" transform="translate(0,32)">
    <g id="tool-button-normal-group">
      <use id="tool-button-normal-topleft" href="#btn-1-tl" class="surf-cont-highest" />
      <use id="tool-button-normal-top" href="#btn-1-t" class="surf-cont-highest" />
      <use id="tool-button-normal-topright" href="#btn-1-tr" class="surf-cont-highest" />
      <use id="tool-button-normal-left" href="#btn-1-l" class="surf-cont-highest" />
      <use id="tool-button-normal" href="#btn-1-c" class="surf-cont-highest" />
      <use id="tool-button-normal-right" href="#btn-1-l" x="24" class="surf-cont-highest" />
      <use id="tool-button-normal-bottomleft" href="#btn-1-bl" class="surf-cont-highest" />
      <use id="tool-button-normal-bottom" href="#btn-1-t" y="24" class="surf-cont-highest" />
      <use id="tool-button-normal-bottomright" href="#btn-1-br" class="surf-cont-highest" />
      <g id="arrow-up-normal">
        <use href="#icon-box" />
        <use href="#up" class="on-surf-var" />
      </g>
      <g id="arrow-down-normal" transform="translate(6,0)">
        <use href="#icon-box" />
        <use href="#down" class="on-surf-var" />
      </g>
      <g id="arrow-left-normal" transform="translate(9.5,3.5)">
        <use href="#icon-box" />
        <use href="#left" class="on-surf-var" />
      </g>
      <g id="arrow-right-normal" transform="translate(16,3.5)">
        <use href="#icon-box" />
        <use href="#right" class="on-surf-var" />
      </g>
      <g id="arrow-add-normal" transform="translate(2,8.5)">
        <use href="#icon-box" />
        <use href="#add" class="on-surf-var" />
      </g>
      <g id="arrow-minus-normal" transform="translate(8,10.5)">
        <use href="#icon-box" />
        <use href="#minus" class="on-surf-var" />
      </g>
    </g>
    <g id="tool-button-focused-group" transform="translate(32)">
      <g id="tool-button-focused-topleft">
        <use href="#button-normal-topleft" />
        <use href="#btn-1-tl" class="on-sec-cont" opacity="0.08" />
      </g>
      <g id="tool-button-focused-top">
        <use href="#button-normal-top" />
        <use href="#btn-1-t" class="on-sec-cont" opacity="0.08" />
      </g>
      <g id="tool-button-focused-topright">
        <use href="#button-normal-topright" />
        <use href="#btn-1-tr" class="on-sec-cont" opacity="0.08" />
      </g>
      <g id="tool-button-focused-left">
        <use href="#button-normal-left" />
        <use href="#btn-1-l" class="on-sec-cont" opacity="0.08" />
      </g>
      <g id="tool-button-focused">
        <use href="#button-normal" />
        <use href="#btn-1-c" class="on-sec-cont" opacity="0.08" />
      </g>
      <g id="tool-button-focused-right">
        <use href="#button-normal-right" />
        <use href="#btn-1-l" x="24" class="on-sec-cont" opacity="0.08" />
      </g>
      <g id="tool-button-focused-bottomleft">
        <use href="#button-normal-bottomleft" />
        <use href="#btn-1-bl" class="on-sec-cont" opacity="0.08" />
      </g>
      <g id="tool-button-focused-bottom">
        <use href="#button-normal-bottom" />
        <use href="#btn-1-t" y="24" class="on-sec-cont" opacity="0.08" />
      </g>
      <g id="tool-button-focused-bottomright">
        <use href="#button-normal-bottomright" />
        <use href="#btn-1-br" class="on-sec-cont" opacity="0.08" />
      </g>
      <g id="arrow-up-focused">
        <use href="#icon-box" />
        <use href="#up" class="on-surf" />
      </g>
      <g id="arrow-down-focused" transform="translate(6)">
        <use href="#icon-box" />
        <use href="#down" class="on-surf" />
      </g>
      <g id="arrow-left-focused" transform="translate(9.5,3.5)">
        <use href="#icon-box" />
        <use href="#left" class="on-surf" />
      </g>
      <g id="arrow-right-focused" transform="translate(16,3.5)">
        <use href="#icon-box" />
        <use href="#right" class="on-surf" />
      </g>
      <g id="arrow-add-focused" transform="translate(2,8.5)">
        <use href="#icon-box" />
        <use href="#add" class="on-surf" />
      </g>
      <g id="arrow-minus-focused" transform="translate(8,10.5)">
        <use href="#icon-box" />
        <use href="#minus" class="on-surf" />
      </g>
    </g>
    <g id="tool-button-pressed-group" transform="translate(64)">
      <g id="tool-button-pressed-topleft">
        <use href="#button-normal-topleft" />
        <use href="#btn-1-tl" class="on-sec-cont" opacity="0.1" />
      </g>
      <g id="tool-button-pressed-top">
        <use href="#button-normal-top" />
        <use href="#btn-1-t" class="on-sec-cont" opacity="0.1" />
      </g>
      <g id="tool-button-pressed-topright">
        <use href="#button-normal-topright" />
        <use href="#btn-1-tr" class="on-sec-cont" opacity="0.1" />
      </g>
      <g id="tool-button-pressed-left">
        <use href="#button-normal-left" />
        <use href="#btn-1-l" class="on-sec-cont" opacity="0.1" />
      </g>
      <g id="tool-button-pressed">
        <use href="#button-normal" />
        <use href="#btn-1-c" class="on-sec-cont" opacity="0.1" />
      </g>
      <g id="tool-button-pressed-right">
        <use href="#button-normal-right" />
        <use href="#btn-1-l" x="24" class="on-sec-cont" opacity="0.1" />
      </g>
      <g id="tool-button-pressed-bottomleft">
        <use href="#button-normal-bottomleft" />
        <use href="#btn-1-bl" class="on-sec-cont" opacity="0.1" />
      </g>
      <g id="tool-button-pressed-bottom">
        <use href="#button-normal-bottom" />
        <use href="#btn-1-t" y="24" class="on-sec-cont" opacity="0.1" />
      </g>
      <g id="tool-button-pressed-bottomright">
        <use href="#button-normal-bottomright" />
        <use href="#btn-1-br" class="on-sec-cont" opacity="0.1" />
      </g>
      <g id="arrow-up-pressed">
        <use href="#icon-box" />
        <use href="#up" class="on-sec-cont" />
      </g>
      <g id="arrow-down-pressed" transform="translate(6)">
        <use href="#icon-box" />
        <use href="#down" class="on-sec-cont" />
      </g>
      <g id="arrow-left-pressed" transform="translate(9.5,3.5)">
        <use href="#icon-box" />
        <use href="#left" class="on-sec-cont" />
      </g>
      <g id="arrow-right-pressed" transform="translate(16,3.5)">
        <use href="#icon-box" />
        <use href="#right" class="on-sec-cont" />
      </g>
      <g id="arrow-add-pressed" transform="translate(2,8.5)">
        <use href="#icon-box" />
        <use href="#add" class="on-sec-cont" />
      </g>
      <g id="arrow-minus-pressed" transform="translate(8,10.5)">
        <use href="#icon-box" />
        <use href="#minus" class="on-sec-cont" />
      </g>
    </g>
    <g id="tool-button-toggled-group" transform="translate(96)">
      <use id="tool-button-toggled-topleft" href="#btn-1-tl" class="sec-cont" />
      <use id="tool-button-toggled-top" href="#btn-1-t" class="sec-cont" />
      <use id="tool-button-toggled-topright" href="#btn-1-tr" class="sec-cont" />
      <use id="tool-button-toggled-left" href="#btn-1-l" class="sec-cont" />
      <use id="tool-button-toggled" href="#btn-1-c" class="sec-cont" />
      <use id="tool-button-toggled-right" href="#btn-1-l" x="24" class="sec-cont" />
      <use id="tool-button-toggled-bottomleft" href="#btn-1-bl" class="sec-cont" />
      <use id="tool-button-toggled-bottom" href="#btn-1-t" y="24" class="sec-cont" />
      <use id="tool-button-toggled-bottomright" href="#btn-1-br" class="sec-cont" />
      <g id="arrow-up-disabled">
        <use href="#icon-box" />
        <use href="#up" class="disabled-text" />
      </g>
      <g id="arrow-down-disabled" transform="translate(6)">
        <use href="#icon-box" />
        <use href="#down" class="disabled-text" />
      </g>
      <g id="arrow-left-disabled" transform="translate(9.5,3.5)">
        <use href="#icon-box" />
        <use href="#left" class="disabled-text" />
      </g>
      <g id="arrow-right-disabled" transform="translate(16,3.5)">
        <use href="#icon-box" />
        <use href="#right" class="disabled-text" />
      </g>
      <g id="arrow-add-disabled" transform="translate(2,8.5)">
        <use href="#icon-box" />
        <use href="#add" class="disabled-text" />
      </g>
      <g id="arrow-minus-disabled" transform="translate(8,10.5)">
        <use href="#icon-box" />
        <use href="#minus" class="disabled-text" />
      </g>
    </g>
  </g>
  <g id="toolbar-button-group" transform="translate(0,60)">
    <g id="toolbar-button-normal-group">
      <g id="toolbar-button-normal-topleft">
        <rect width="8" height="12" opacity="0" />
        <path d="M 0,12 q 0,-8 8,-8 v 1 q -7,0 -7,7 h -1 z" class="outline" />
      </g>
      <g id="toolbar-button-normal-top">
        <rect width="16" height="12" x="8" opacity="0" />
        <rect width="16" height="1" x="8" y="4" class="outline" />
      </g>
      <g id="toolbar-button-normal-topright">
        <rect width="8" height="12" x="24" opacity="0" />
        <path d="M 32,12 q 0,-8 -8,-8 v 1 q 7,0 7,7 h 1 z" class="outline" />
      </g>
      <g id="toolbar-button-normal-left">
        <rect width="8" height="16" y="12" opacity="0" />
        <rect width="1" height="16" x="0" y="12" class="outline" />
      </g>
      <rect id="toolbar-button-normal" width="16" height="16" x="8" y="12" opacity="0" />
      <g id="toolbar-button-normal-right">
        <rect width="8" height="16" x="24" y="12" opacity="0" />
        <rect width="1" height="16" x="31" y="12" class="outline" />
      </g>
      <g id="toolbar-button-normal-bottomleft">
        <rect width="8" height="12" x="0" y="28" opacity="0" />
        <path d="M 0,28 q 0,8 8,8 v -1 q -7,0 -7,-7 h -1 z" class="outline" />
      </g>
      <g id="toolbar-button-normal-bottom">
        <rect width="16" height="12" x="8" y="28" opacity="0" />
        <rect width="16" height="1" x="8" y="35" class="outline" />
      </g>
      <g id="toolbar-button-normal-bottomright">
        <rect width="8" height="12" x="24" y="28" opacity="0" />
        <path d="M 32,28 q 0,8 -8,8 v -1 q 7,0 7,-7 h 1 z" class="outline" />
      </g>
    </g>
    <g id="toolbar-button-focused-group" transform="translate(32)">
      <g id="toolbar-button-focused-topleft">
        <use href="#toolbar-button-normal-topleft" />
        <use href="#btn-1-tl" y="4" class="pri" opacity="0.08" />
      </g>
      <g id="toolbar-button-focused-top">
        <use href="#toolbar-button-normal-top" />
        <use href="#btn-1-t" y="4" class="pri" opacity="0.08" />
      </g>
      <g id="toolbar-button-focused-topright">
        <use href="#toolbar-button-normal-topright" />
        <use href="#btn-1-tr" y="4" class="pri" opacity="0.08" />
      </g>
      <g id="toolbar-button-focused-left">
        <use href="#toolbar-button-normal-left" />
        <use href="#btn-1-l" y="4" class="pri" opacity="0.08" />
      </g>
      <g id="toolbar-button-focused">
        <use href="#toolbar-button-normal" />
        <use href="#btn-1-c" y="4" class="pri" opacity="0.08" />
      </g>
      <g id="toolbar-button-focused-right">
        <use href="#toolbar-button-normal-right" />
        <use href="#btn-1-l" x="24" y="4" class="pri" opacity="0.08" />
      </g>
      <g id="toolbar-button-focused-bottomleft">
        <use href="#toolbar-button-normal-bottomleft" />
        <use href="#btn-1-bl" y="4" class="pri" opacity="0.08" />
      </g>
      <g id="toolbar-button-focused-bottom">
        <use href="#toolbar-button-normal-bottom" />
        <use href="#btn-1-t" y="28" class="pri" opacity="0.08" />
      </g>
      <g id="toolbar-button-focused-bottomright">
        <use href="#toolbar-button-normal-bottomright" />
        <use href="#btn-1-br" y="4" class="pri" opacity="0.08" />
      </g>
    </g>
    <g id="toolbar-button-pressed-group" transform="translate(64)">
      <g id="toolbar-button-pressed-topleft">
        <use href="#toolbar-button-normal-topleft" />
        <use href="#btn-1-tl" y="4" class="pri" opacity="0.1" />
      </g>
      <g id="toolbar-button-pressed-top">
        <use href="#toolbar-button-normal-top" />
        <use href="#btn-1-t" y="4" class="pri" opacity="0.1" />
      </g>
      <g id="toolbar-button-pressed-topright">
        <use href="#toolbar-button-normal-topright" />
        <use href="#btn-1-tr" y="4" class="pri" opacity="0.1" />
      </g>
      <g id="toolbar-button-pressed-left">
        <use href="#toolbar-button-normal-left" />
        <use href="#btn-1-l" y="4" class="pri" opacity="0.1" />
      </g>
      <g id="toolbar-button-pressed">
        <use href="#toolbar-button-normal" />
        <use href="#btn-1-c" y="4" class="pri" opacity="0.1" />
      </g>
      <g id="toolbar-button-pressed-right">
        <use href="#toolbar-button-normal-right" />
        <use href="#btn-1-l" x="24" y="4" class="pri" opacity="0.1" />
      </g>
      <g id="toolbar-button-pressed-bottomleft">
        <use href="#toolbar-button-normal-bottomleft" />
        <use href="#btn-1-bl" y="4" class="pri" opacity="0.1" />
      </g>
      <g id="toolbar-button-pressed-bottom">
        <use href="#toolbar-button-normal-bottom" />
        <use href="#btn-1-t" y="28" class="pri" opacity="0.1" />
      </g>
      <g id="toolbar-button-pressed-bottomright">
        <use href="#toolbar-button-normal-bottomright" />
        <use href="#btn-1-br" y="4" class="pri" opacity="0.1" />
      </g>
    </g>
    <g id="toolbar-button-toggled-group" transform="translate(96)">
      <g id="toolbar-button-toggled-topleft">
        <rect width="8" height="12" opacity="0" />
        <use href="#btn-1-tl" y="4" class="sec-cont" />
        <path d="M 0,12 q 0,-8 8,-8 v 1 q -7,0 -7,7 h -1 z" class="outline" />
      </g>
      <g id="toolbar-button-toggled-top">
        <rect width="16" height="12" x="8" opacity="0" />
        <use href="#btn-1-t" y="4" class="sec-cont" />
        <rect width="16" height="1" x="8" y="4" class="outline" />
      </g>
      <g id="toolbar-button-toggled-topright">
        <rect width="8" height="12" x="24" opacity="0" />
        <use href="#btn-1-tr" y="4" class="sec-cont" />
        <path d="M 32,12 q 0,-8 -8,-8 v 1 q 7,0 7,7 h 1 z" class="outline" />
      </g>
      <g id="toolbar-button-toggled-left">
        <rect width="8" height="16" y="12" class="sec-cont" />
        <rect width="1" height="16" x="0" y="12" class="outline" />
      </g>
      <rect id="toolbar-button-toggled" width="16" height="16" x="8" y="12" class="sec-cont" />
      <g id="toolbar-button-toggled-right">
        <rect width="8" height="16" x="24" y="12" class="sec-cont" />
        <rect width="1" height="16" x="31" y="12" class="outline" />
      </g>
      <g id="toolbar-button-toggled-bottomleft">
        <rect width="8" height="12" x="0" y="28" opacity="0" />
        <use href="#btn-1-bl" y="4" class="sec-cont" />
        <path d="M 0,28 q 0,8 8,8 v -1 q -7,0 -7,-7 h -1 z" class="outline" />
      </g>
      <g id="toolbar-button-toggled-bottom">
        <rect width="16" height="12" x="8" y="28" opacity="0" />
        <use href="#btn-1-t" y="28" class="sec-cont" />
        <rect width="16" height="1" x="8" y="35" class="outline" />
      </g>
      <g id="toolbar-button-toggled-bottomright">
        <rect width="8" height="12" x="24" y="28" opacity="0" />
        <use href="#btn-1-br" y="4" class="sec-cont" />
        <path d="M 32,28 q 0,8 -8,8 v -1 q 7,0 7,-7 h 1 z" class="outline" />
      </g>
    </g>
  </g>
  <g id="lineedit-group" transform="translate(0,96)">
    <g id="lineedit-normal-group">
      <g id="lineedit-normal-topleft">
        <rect id="lineedit-normal-topleft-1" width="8" height="8" x="0" y="0" opacity="0" />
        <path d="M 0.5,4 q 0,-3.5 3.5,-3.5 h 4 v 1 h -4 q -2.5,0 -2.5,2.5 v 4 h -1 Z" class="outline" />
      </g>
      <g id="lineedit-normal-top">
        <rect id="lineedit-normal-top-1" width="16" height="8" x="8" y="0" opacity="0" />
        <rect id="lineedit-normal-top-2" width="16" height="1" x="8" y="0.5" class="outline" />
      </g>
      <g id="lineedit-normal-topright">
        <use href="#lineedit-normal-topleft-1" x="24" />
        <path d="M 31.5,4 q 0,-3.5 -3.5,-3.5 h -4 v 1 h 4 q 2.5,0 2.5,2.5 v 4 h 1 Z" class="outline" />
      </g>
      <g id="lineedit-normal-left">
        <rect id="lineedit-normal-left-1" width="8" height="16" x="0" y="8" opacity="0" />
        <rect id="lineedit-normal-left-2" width="1" height="16" x="0.5" y="8" class="outline" />
      </g>
      <g id="lineedit-normal-right">
        <use href="#lineedit-normal-left-1" x="24" />
        <use href="#lineedit-normal-left-2" x="30" />
      </g>
      <g id="lineedit-normal-bottomleft">
        <use href="#lineedit-normal-topleft-1" x="0" y="24" />
        <path d="M 0.5,28 q 0,3.5 3.5,3.5 h 4 v -1 h -4 q -2.5,0 -2.5,-2.5 v -4 h -1 Z" class="outline" />
      </g>
      <g id="lineedit-normal-bottom">
        <use href="#lineedit-normal-top-1" y="24" />
        <use href="#lineedit-normal-top-2" y="30" />
      </g>
      <g id="lineedit-normal-bottomright">
        <use href="#lineedit-normal-topleft-1" x="24" y="24" />
        <path d="M 31.5,28 q 0,3.5 -3.5,3.5 h -4 v -1 h 4 q 2.5,0 2.5,-2.5 v -4 h 1 Z" class="outline" />
      </g>
    </g>
    <g id="lineedit-focused-group" transform="translate(32,0)">
      <path id="lineedit-focused-topleft" d="M 0,4 q 0,-4 4,-4 h 4 v 2 h -4 q -2,0 -2,2 v 4 h -2 Z" class="pri" />
      <g id="lineedit-focused-top">
        <use href="#lineedit-normal-top-1" />
        <rect id="lineedit-focused-top-1" width="16" height="2" x="8" y="0" class="pri" />
      </g>
      <path id="lineedit-focused-topright" d="M 32,4 q 0,-4 -4,-4 h -4 v 2 h 4 q 2,0 2,2 v 4 h 2 Z" class="pri" />
      <g id="lineedit-focused-left">
        <use href="#lineedit-normal-left-1" />
        <rect id="lineedit-focused-left-1" width="2" height="16" x="0" y="8" class="pri" />
      </g>
      <g id="lineedit-focused-right">
        <use href="#lineedit-normal-left-1" x="24" />
        <use href="#lineedit-focused-left-1" x="30" />
      </g>
      <path id="lineedit-focused-bottomleft" d="M 0,28 q 0,4 4,4 h 4 v -2 h -4 q -2,0 -2,-2 v -4 h -2 Z" class="pri" />
      <g id="lineedit-focused-bottom">
        <use href="#lineedit-normal-top-1" y="24" />
        <use href="#lineedit-focused-top-1" y="30" />
      </g>
      <path id="lineedit-focused-bottomright" d="M 32,28 q 0,4 -4,4 h -4 v -2 h 4 q 2,0 2,-2 v -4 h 2 Z" class="pri" />
    </g>
  </g>
  <g id="radio-group" transform="translate(72,96)">
    <g id="radio-normal">
      <circle cx="12" cy="12" r="12" opacity="0" />
      <use href="#radio-unchk" class="on-surf-var" />
    </g>
    <g id="radio-focused">
      <circle cx="12" cy="36" r="12" class="on-surf" opacity="0.1" />
      <use href="#radio-unchk" x="0" y="24" class="on-surf" />
    </g>
    <g id="radio-checked-normal">
      <circle cx="36" cy="12" r="12" opacity="0" />
      <use href="#radio-chk" x="24" y="0" class="pri" />
    </g>
    <g id="g100">
      <circle cx="36" cy="36" r="12" class="pri" opacity="0.1" />
      <use href="#radio-chk" x="24" y="24" class="pri" />
    </g>
  </g>
  <g id="checkbox-group" transform="translate(0,128)">
    <g id="checkbox-normal">
      <use href="#chk-box-back" x="0" y="0" opacity="0" />
      <use href="#chk-box-frame" x="0" y="0" class="on-surf-var" />
    </g>
    <g id="checkbox-focused">
      <use href="#chk-box-back" x="0" y="24" class="on-surf" opacity="0.1" />
      <use href="#chk-box-frame" x="0" y="24" class="on-surf" />
    </g>
    <g id="checkbox-checked-normal">
      <use href="#chk-box-back" x="24" y="0" opacity="0" />
      <use href="#chk-box-box" x="24" y="0" class="pri" />
      <use href="#chk-box-chk" x="24" y="0" class="on-pri" />
    </g>
    <g id="checkbox-checked-focused">
      <use href="#chk-box-back" x="24" y="24" class="pri" opacity="0.1" />
      <use href="#chk-box-box" x="24" y="24" class="pri" />
      <use href="#chk-box-chk" x="24" y="24" class="on-pri" />
    </g>
    <g id="checkbox-tristate-normal">
      <use href="#chk-box-back" x="48" y="0" opacity="0" />
      <use href="#chk-box-box" x="48" y="0" class="pri" />
      <use href="#chk-box-dash" x="48" y="0" class="on-pri" />
    </g>
    <g id="checkbox-tristate-focused">
      <use href="#chk-box-back" x="48" y="24" class="pri" opacity="0.1" />
      <use href="#chk-box-box" x="48" y="24" class="pri" />
      <use href="#chk-box-dash" x="48" y="24" class="on-pri" />
    </g>
  </g>
  <g id="common-group" transform="translate(128)">
    <use id="common-normal-topleft" href="#btn-1-tl" class="surf-cont" />
    <use id="common-normal-top" href="#btn-1-t" class="surf-cont" />
    <use id="common-normal-topright" href="#btn-1-tr" class="surf-cont" />
    <use id="common-normal-left" href="#btn-1-l" class="surf-cont" />
    <use id="common-normal" href="#btn-1-c" class="surf-cont" />
    <use id="common-normal-right" href="#btn-1-l" x="24" class="surf-cont" />
    <use id="common-normal-bottomleft" href="#btn-1-bl" class="surf-cont" />
    <use id="common-normal-bottom" href="#btn-1-t" y="24" class="surf-cont" />
    <use id="common-normal-bottomright" href="#btn-1-br" class="surf-cont" />
  </g>
  <g id="toolbar-group" transform="translate(128,32)">
    <rect id="toolbar-normal" width="16" height="16" x="0" y="0" class="surf-cont-high" />
  </g>
  <g id="sizegrip-group" transform="translate(128,48)">
    <use id="sizegrip-normal" href="#sizegrip" class="on-surf-var" opacity="0.38" />
    <use id="sizegrip-focused" href="#sizegrip" x="10" class="on-surf" opacity="0.38" />
  </g>
</svg>