<svg width="126" height="188" viewBox="0 0 50 50" id="svg1" xmlns="http://www.w3.org/2000/svg">
  <sodipodi:namedview id="namedview1" inkscape:current-layer="svg1" />
  <defs>
    <!-- MARK: Style -->
    <style>
      .pri {
        fill: #95ccff;
      }

      .on-pri {
        fill: #003353;
      }

      .sec-cont {
        fill: #3a4857;
      }

      .on-sec-cont {
        fill: #d5e4f6;
      }

      .surf {
        fill: #121416
      }

      .surf-cont {
        fill: #1e2022;
      }

      .surf-cont-high {
        fill: #282a2d;
      }

      .surf-cont-highest {
        fill: #333538;
      }

      .on-surf {
        fill: #e2e2e5;
      }

      .on-surf-var {
        fill: #c2c7cf;
      }

      .outline {
        fill: #8c9198;
      }

      .outline-var {
        fill: #42474e
      }
    </style>
    <!-- MARK: Shapes -->
    <rect id="sq-1" width="1" height="1" x="0" y="0" />
    <rect id="sq-3" width="3" height="3" x="0" y="0" />
    <path id="tl-2" d="M 0,2 q 0,-2 2,-2 v 2 Z" />
    <path id="tr-2" d="M 2,2 q 0,-2 -2,-2 v 2 z" />
    <rect id="sq-2" width="2" height="2" x="0" y="0" />
    <path id="bl-2" d="M 0,0 q 0,2 2,2 v -2 z" />
    <path id="br-2" d="M 2,0 q 0,2 -2,2 v -2 z" />
    <path id="tl-6" d="M 0,6 q 0,-6 6,-6 v 6 z" />
    <path id="tr-6" d="M 6,6 q 0,-6 -6,-6 v 6 z" />
    <rect id="sq-6" width="6" height="6" x="0" y="0" />
    <path id="bl-6" d="M 0,0 q 0,6 6,6 v -6 z" />
    <path id="br-6" d="M 6,0 q 0,6 -6,6 v -6 z" />
    <path id="tl-8" d="M 0,8 q 0,-8 8,-8 v 8 z" />
    <path id="tr-8" d="M 8,8 q 0,-8 -8,-8 v 8 z" />
    <rect id="sq-8" width="8" height="8" x="0" y="0" />
    <path id="bl-8" d="M 0,0 q 0,8 8,8 v -8 z" />
    <path id="br-8" d="M 8,0 q 0,8 -8,8 v -8 z" />
    <!-- MARK: Icons -->
    <path id="radio-unchk"
      d="M 12,22 Q 9.925,22 8.1,21.213 6.275,20.425 4.925,19.075 3.575,17.725 2.788,15.9 2,14.075 2,12 2,9.925 2.788,8.1 3.575,6.275 4.925,4.925 6.275,3.575 8.1,2.788 9.925,2 12,2 14.075,2 15.9,2.788 17.725,3.575 19.075,4.925 20.425,6.275 21.213,8.1 22,9.925 22,12 q 0,2.075 -0.788,3.9 -0.788,1.825 -2.138,3.175 -1.35,1.35 -3.175,2.138 Q 14.075,22 12,22 Z m 0,-2 q 3.35,0 5.675,-2.325 Q 20,15.35 20,12 20,8.65 17.675,6.325 15.35,4 12,4 8.65,4 6.325,6.325 4,8.65 4,12 4,15.35 6.325,17.675 8.65,20 12,20 Z m 0,-8 z" />
    <path id="radio-chk"
      d="m 12,17 q 2.075,0 3.538,-1.463 Q 17,14.075 17,12 17,9.925 15.538,8.463 14.075,7 12,7 9.925,7 8.463,8.463 7,9.925 7,12 7,14.075 8.463,15.538 9.925,17 12,17 Z m 0,5 Q 9.925,22 8.1,21.213 6.275,20.425 4.925,19.075 3.575,17.725 2.788,15.9 2,14.075 2,12 2,9.925 2.788,8.1 3.575,6.275 4.925,4.925 6.275,3.575 8.1,2.788 9.925,2 12,2 14.075,2 15.9,2.788 17.725,3.575 19.075,4.925 20.425,6.275 21.213,8.1 22,9.925 22,12 q 0,2.075 -0.788,3.9 -0.788,1.825 -2.138,3.175 -1.35,1.35 -3.175,2.138 Q 14.075,22 12,22 Z m 0,-2 q 3.35,0 5.675,-2.325 Q 20,15.35 20,12 20,8.65 17.675,6.325 15.35,4 12,4 8.65,4 6.325,6.325 4,8.65 4,12 4,15.35 6.325,17.675 8.65,20 12,20 Z m 0,-8 z" />
    <path id="chk-box-frame"
      d="M 3,5 q 0,-2 2,-2 h 14 q 2,0, 2,2 v 14 q 0,2 -2,2 h -14 q -2,0 -2,-2 v -14 h 2 v 14 h 14 v -14 h -14 v 14 h -2 Z" />
    <path id="chk-box-back" d="M 0,5 q 0,-5 5,-5 h 14 q 5,0 5,5 v 14 q 0,5 -5,5 h -14 q -5,0 -5,-5 Z" />
    <path id="chk-box-chk" d="m 10.6,16.2 7.05,-7.05 -1.4,-1.4 -5.65,5.65 -2.85,-2.85 -1.4,1.4 z" />
    <path id="chk-box-box" d="M 3,5 q 0,-2 2,-2 h 14 q 2,0, 2,2 v 14 q 0,2 -2,2 h -14 q -2,0 -2,-2 Z" />
    <path id="chk-box-dash" d="M 7,13 H 17 V 11 H 7 Z " />
    <path id="up" d="m 0,10.5 7,-7 7,7 z" />
    <path id="down" d="M 7,10.5 0,3.5 H 14 Z" />
    <path id="add" d="M 6,8 H 0 V 6 H 6 V 0 h 2 v 6 h 6 V 8 H 8 v 6 H 6 Z" />
    <path id="left" d="M 9.683,14 2.683,7 9.683,0 11.317,1.633 5.95,7 11.317,12.367 Z" />
    <path id="right" d="M 8.05,7 2.683,1.633 4.317,5e-8 11.317,7 4.317,14 2.683,12.367 Z" />
    <path id="minus" d="m 0,8 v -2 h 14 v 2 z" />
    <circle id="slide-hand" cx="10" cy="10" r="10" />
    <path id="close" d="M 1.4,14 0,12.6 5.6,7 0,1.4 1.4,0 7,5.6 12.6,0 14,1.4 8.4,7 14,12.6 12.6,14 7,8.4 Z" />
    <!-- MARK: Gradients -->
    <linearGradient id="menu-bg">
      <stop id="stop1" stop-color="#000000" stop-opacity="1" offset="0" />
      <stop id="stop2" stop-color="#000000" stop-opacity="0" offset="1" />
    </linearGradient>
    <radialGradient xlink:href="#menu-bg" id="menu-btl" cx="4" cy="5" r="2" gradientUnits="userSpaceOnUse" />
    <linearGradient xlink:href="#menu-bg" id="menu-bt" x1="5" y1="5" x2="5" y2="3" gradientUnits="userSpaceOnUse" />
    <radialGradient xlink:href="#menu-bg" id="menu-btr" cx="6" cy="5" r="2" gradientUnits="userSpaceOnUse" />
    <linearGradient xlink:href="#menu-bg" id="menu-bl" x1="4" y1="6" x2="2" y2="6" gradientUnits="userSpaceOnUse" />
    <linearGradient xlink:href="#menu-bg" id="menu-br" x1="6" y1="6" x2="8" y2="6" gradientUnits="userSpaceOnUse" />
    <radialGradient xlink:href="#menu-bg" id="menu-bbl" cx="4" cy="7" r="2" gradientUnits="userSpaceOnUse" />
    <linearGradient xlink:href="#menu-bg" id="menu-bb" x1="5" y1="7" x2="5" y2="9" gradientUnits="userSpaceOnUse" />
    <radialGradient xlink:href="#menu-bg" id="menu-bbr" cx="6" cy="7" r="2" gradientUnits="userSpaceOnUse" />
    <linearGradient id="menu-ag">
      <stop id="stop3" stop-color="#000000" stop-opacity="0.66" offset="0" />
      <stop id="stop4" stop-color="#000000" stop-opacity="0" offset="1" />
    </linearGradient>
    <radialGradient xlink:href="#menu-ag" id="menu-atl" cx="4" cy="6" r="4" gradientUnits="userSpaceOnUse" />
    <linearGradient xlink:href="#menu-ag" id="menu-at" x1="5" y1="6" x2="5" y2="2" gradientUnits="userSpaceOnUse" />
    <radialGradient xlink:href="#menu-ag" id="menu-atr" cx="6" cy="6" r="4" gradientUnits="userSpaceOnUse" />
    <linearGradient xlink:href="#menu-ag" id="menu-al" x1="4" y1="7" x2="0" y2="7" gradientUnits="userSpaceOnUse" />
    <linearGradient xlink:href="#menu-ag" id="menu-ar" x1="6" y1="7" x2="10" y2="7" gradientUnits="userSpaceOnUse" />
    <radialGradient xlink:href="#menu-ag" id="menu-abl" cx="4" cy="8" r="4" gradientUnits="userSpaceOnUse" />
    <linearGradient xlink:href="#menu-ag" id="menu-ab" x1="5" y1="8" x2="5" y2="12" gradientUnits="userSpaceOnUse" />
    <radialGradient xlink:href="#menu-ag" id="menu-abr" cx="6" cy="8" r="4" gradientUnits="userSpaceOnUse" />
  </defs>
  <g id="button-group">
    <g id="button-normal-group">
      <use id="button-normal-topleft" href="#tl-6" class="sec-cont" />
      <use id="button-normal-top" href="#sq-6" x="6" y="0" class="sec-cont" />
      <use id="button-normal-topright" href="#tr-6" x="12" y="0" class="sec-cont" />
      <use id="button-normal-left" href="#sq-6" x="0" y="6" class="sec-cont" />
      <use id="button-normal" href="#sq-6" x="6" y="6" class="sec-cont" />
      <use id="button-normal-right" href="#sq-6" x="12" y="6" class="sec-cont" />
      <use id="button-normal-bottomleft" href="#bl-6" x="0" y="12" class="sec-cont" />
      <use id="button-normal-bottom" href="#sq-6" x="6" y="12" class="sec-cont" />
      <use id="button-normal-bottomright" href="#br-6" x="12" y="12" class="sec-cont" />
    </g>
    <g id="button-focused-group" transform="translate(18)">
      <g id="button-focused-topleft">
        <use href="#button-normal-topleft" />
        <use href="#tl-6" class="on-sec-cont" opacity="0.08" />
      </g>
      <g id="button-focused-top">
        <use href="#button-normal-top" />
        <use href="#sq-6" x="6" y="0" class="on-sec-cont" opacity="0.08" />
      </g>
      <g id="button-focused-topright">
        <use href="#button-normal-topright" />
        <use href="#tr-6" x="12" y="0" class="on-sec-cont" opacity="0.08" />
      </g>
      <g id="button-focused-left">
        <use href="#button-normal-left" />
        <use href="#sq-6" x="0" y="6" class="on-sec-cont" opacity="0.08" />
      </g>
      <g id="button-focused">
        <use href="#button-normal" />
        <use href="#sq-6" x="6" y="6" class="on-sec-cont" opacity="0.08" />
      </g>
      <g id="button-focused-right">
        <use href="#button-normal-right" />
        <use href="#sq-6" x="12" y="6" class="on-sec-cont" opacity="0.08" />
      </g>
      <g id="button-focused-bottomleft">
        <use href="#button-normal-bottomleft" />
        <use href="#bl-6" x="0" y="12" class="on-sec-cont" opacity="0.08" />
      </g>
      <g id="button-focused-bottom">
        <use href="#button-normal-bottom" />
        <use href="#sq-6" x="6" y="12" class="on-sec-cont" opacity="0.08" />
      </g>
      <g id="button-focused-bottomright">
        <use href="#button-normal-bottomright" />
        <use href="#br-6" x="12" y="12" class="on-sec-cont" opacity="0.08" />
      </g>
    </g>
    <g id="button-pressed-group" transform="translate(36)">
      <g id="button-pressed-topleft">
        <use href="#button-normal-topleft" />
        <use href="#tl-6" class="on-sec-cont" opacity="0.08" />
      </g>
      <g id="button-pressed-top">
        <use href="#button-normal-top" />
        <use href="#sq-6" x="6" y="0" class="on-sec-cont" opacity="0.08" />
      </g>
      <g id="button-pressed-topright">
        <use href="#button-normal-topright" />
        <use href="#tr-6" x="12" y="0" class="on-sec-cont" opacity="0.08" />
      </g>
      <g id="button-pressed-left">
        <use href="#button-normal-left" />
        <use href="#sq-6" x="0" y="6" class="on-sec-cont" opacity="0.08" />
      </g>
      <g id="button-pressed">
        <use href="#button-normal" />
        <use href="#sq-6" x="6" y="6" class="on-sec-cont" opacity="0.08" />
      </g>
      <g id="button-pressed-right">
        <use href="#button-normal-right" />
        <use href="#sq-6" x="12" y="6" class="on-sec-cont" opacity="0.08" />
      </g>
      <g id="button-pressed-bottomleft">
        <use href="#button-normal-bottomleft" />
        <use href="#bl-6" x="0" y="12" class="on-sec-cont" opacity="0.08" />
      </g>
      <g id="button-pressed-bottom">
        <use href="#button-normal-bottom" />
        <use href="#sq-6" x="6" y="12" class="on-sec-cont" opacity="0.08" />
      </g>
      <g id="button-pressed-bottomright">
        <use href="#button-normal-bottomright" />
        <use href="#br-6" x="12" y="12" class="on-sec-cont" opacity="0.08" />
      </g>
    </g>
    <g id="button-toggled-group" transform="translate(54)">
      <use id="button-toggled-topleft" href="#tl-6" class="pri" />
      <use id="button-toggled-top" href="#sq-6" x="6" y="0" class="pri" />
      <use id="button-toggled-topright" href="#tr-6" x="12" y="0" class="pri" />
      <use id="button-toggled-left" href="#sq-6" x="0" y="6" class="pri" />
      <use id="button-toggled" href="#sq-6" x="6" y="6" class="pri" />
      <use id="button-toggled-right" href="#sq-6" x="12" y="6" class="pri" />
      <use id="button-toggled-bottomleft" href="#bl-6" x="0" y="12" class="pri" />
      <use id="button-toggled-bottom" href="#sq-6" x="6" y="12" class="pri" />
      <use id="button-toggled-bottomright" href="#br-6" x="12" y="12" class="pri" />
    </g>
  </g>
  <g id="tl-btn-group" transform="translate(0,18)">
    <g id="tl-btn-normal-group">
      <use id="tl-btn-normal-topleft" href="#tl-6" class="surf-cont-highest" />
      <use id="tl-btn-normal-top" href="#sq-6" x="6" y="0" class="surf-cont-highest" />
      <use id="tl-btn-normal-topright" href="#tr-6" x="12" y="0" class="surf-cont-highest" />
      <use id="tl-btn-normal-left" href="#sq-6" x="0" y="6" class="surf-cont-highest" />
      <use id="tl-btn-normal" href="#sq-6" x="6" y="6" class="surf-cont-highest" />
      <use id="tl-btn-normal-right" href="#sq-6" x="12" y="6" class="surf-cont-highest" />
      <use id="tl-btn-normal-bottomleft" href="#bl-6" x="0" y="12" class="surf-cont-highest" />
      <use id="tl-btn-normal-bottom" href="#sq-6" x="6" y="12" class="surf-cont-highest" />
      <use id="tl-btn-normal-bottomright" href="#br-6" x="12" y="12" class="surf-cont-highest" />
    </g>
    <g id="tl-btn-focused-group" transform="translate(18)">
      <g id="tl-btn-focused-topleft">
        <use href="#tl-btn-normal-topleft" />
        <use href="#tl-6" class="pri" opacity="0.08" />
      </g>
      <g id="tl-btn-focused-top">
        <use href="#tl-btn-normal-top" />
        <use href="#sq-6" x="6" y="0" class="pri" opacity="0.08" />
      </g>
      <g id="tl-btn-focused-topright">
        <use href="#tl-btn-normal-topright" />
        <use href="#tr-6" x="12" y="0" class="pri" opacity="0.08" />
      </g>
      <g id="tl-btn-focused-left">
        <use href="#tl-btn-normal-left" />
        <use href="#sq-6" x="0" y="6" class="pri" opacity="0.08" />
      </g>
      <g id="tl-btn-focused">
        <use href="#tl-btn-normal" />
        <use href="#sq-6" x="6" y="6" class="pri" opacity="0.08" />
      </g>
      <g id="tl-btn-focused-right">
        <use href="#tl-btn-normal-right" />
        <use href="#sq-6" x="12" y="6" class="pri" opacity="0.08" />
      </g>
      <g id="tl-btn-focused-bottomleft">
        <use href="#tl-btn-normal-bottomleft" />
        <use href="#bl-6" x="0" y="12" class="pri" opacity="0.08" />
      </g>
      <g id="tl-btn-focused-bottom">
        <use href="#tl-btn-normal-bottom" />
        <use href="#sq-6" x="6" y="12" class="pri" opacity="0.08" />
      </g>
      <g id="tl-btn-focused-bottomright">
        <use href="#tl-btn-normal-bottomright" />
        <use href="#br-6" x="12" y="12" class="pri" opacity="0.08" />
      </g>
    </g>
    <g id="tl-btn-pressed-group" transform="translate(36)">
      <g id="tl-btn-pressed-topleft">
        <use href="#tl-btn-normal-topleft" />
        <use href="#tl-6" class="pri" opacity="0.1" />
      </g>
      <g id="tl-btn-pressed-top">
        <use href="#tl-btn-normal-top" />
        <use href="#sq-6" x="6" y="0" class="pri" opacity="0.1" />
      </g>
      <g id="tl-btn-pressed-topright">
        <use href="#tl-btn-normal-topright" />
        <use href="#tr-6" x="12" y="0" class="pri" opacity="0.1" />
      </g>
      <g id="tl-btn-pressed-left">
        <use href="#tl-btn-normal-left" />
        <use href="#sq-6" x="0" y="6" class="pri" opacity="0.1" />
      </g>
      <g id="tl-btn-pressed">
        <use href="#tl-btn-normal" />
        <use href="#sq-6" x="6" y="6" class="pri" opacity="0.1" />
      </g>
      <g id="tl-btn-pressed-right">
        <use href="#tl-btn-normal-right" />
        <use href="#sq-6" x="12" y="6" class="pri" opacity="0.1" />
      </g>
      <g id="tl-btn-pressed-bottomleft">
        <use href="#tl-btn-normal-bottomleft" />
        <use href="#bl-6" x="0" y="12" class="pri" opacity="0.1" />
      </g>
      <g id="tl-btn-pressed-bottom">
        <use href="#tl-btn-normal-bottom" />
        <use href="#sq-6" x="6" y="12" class="pri" opacity="0.1" />
      </g>
      <g id="tl-btn-pressed-bottomright">
        <use href="#tl-btn-normal-bottomright" />
        <use href="#br-6" x="12" y="12" class="pri" opacity="0.1" />
      </g>
    </g>
    <g id="tl-btn-toggled-group" transform="translate(54)">
      <use id="tl-btn-toggled-topleft" href="#tl-6" class="pri" />
      <use id="tl-btn-toggled-top" href="#sq-6" x="6" y="0" class="pri" />
      <use id="tl-btn-toggled-topright" href="#tr-6" x="12" y="0" class="pri" />
      <use id="tl-btn-toggled-left" href="#sq-6" x="0" y="6" class="pri" />
      <use id="tl-btn-toggled" href="#sq-6" x="6" y="6" class="pri" />
      <use id="tl-btn-toggled-right" href="#sq-6" x="12" y="6" class="pri" />
      <use id="tl-btn-toggled-bottomleft" href="#bl-6" x="0" y="12" class="pri" />
      <use id="tl-btn-toggled-bottom" href="#sq-6" x="6" y="12" class="pri" />
      <use id="tl-btn-toggled-bottomright" href="#br-6" x="12" y="12" class="pri" />
    </g>
  </g>
  <g id="tb-btn-group" transform="translate(0,36)">
    <g id="tb-btn-normal-group">
      <path id="tb-btn-normal-topleft" d="M 0,6 q 0,-6 6,-6 v 1 q -5,0 -5,5 z" class="outline" />
      <g id="tb-btn-normal-top">
        <use href="#sq-6" x="6" y="0" opacity="0" />
        <rect width="6" height="1" x="6" y="0" class="outline" />
      </g>
      <path id="tb-btn-normal-topright" d="M 18,6 q 0,-6 -6,-6 v 1 q 5,0 5,5 z" class="outline" />
      <g id="tb-btn-normal-left">
        <use href="#sq-6" x="0" y="6" opacity="0" />
        <rect width="1" height="6" x="0" y="6" class="outline" />
      </g>
      <use id="tb-btn-normal" href="#sq-6" x="6" y="6" opacity="0" />
      <g id="tb-btn-normal-right">
        <use href="#sq-6" x="12" y="6" opacity="0" />
        <rect width="1" height="6" x="17" y="6" class="outline" />
      </g>
      <path id="tb-btn-normal-bottomleft" d="M 0,12 q 0,6 6,6 v -1 q -5,0 -5,-5 z" class="outline" />
      <g id="tb-btn-normal-bottom">
        <use href="#sq-6" x="6" y="12" opacity="0" />
        <rect width="6" height="1" x="6" y="17" class="outline" />
      </g>
      <path id="tb-btn-normal-bottomright" d="M 18,12 q 0,6 -6,6 v -1 q 5,0 5,-5 z" class="outline" />
    </g>
    <g id="tb-btn-focused-group" transform="translate(18)">
      <g id="tb-btn-focused-topleft">
        <use href="#tb-btn-normal-topleft" />
        <use href="#tl-6" class="on-surf" opacity="0.08" />
      </g>
      <g id="tb-btn-focused-top">
        <use href="#tb-btn-normal-top" />
        <use href="#sq-6" x="6" y="0" class="on-surf" opacity="0.08" />
      </g>
      <g id="tb-btn-focused-topright">
        <use href="#tb-btn-normal-topright" />
        <use href="#tr-6" x="12" y="0" class="on-surf" opacity="0.08" />
      </g>
      <g id="tb-btn-focused-left">
        <use href="#tb-btn-normal-left" />
        <use href="#sq-6" x="0" y="6" class="on-surf" opacity="0.08" />
      </g>
      <use id="tb-btn-focused" href="#sq-6" x="6" y="6" class="on-surf" opacity="0.08" />
      <g id="tb-btn-focused-right">
        <use href="#tb-btn-normal-right" />
        <use href="#sq-6" x="12" y="6" class="on-surf" opacity="0.08" />
      </g>
      <g id="tb-btn-focused-bottomleft">
        <use href="#tb-btn-normal-bottomleft" />
        <use href="#bl-6" x="0" y="12" class="on-surf" opacity="0.08" />
      </g>
      <g id="tb-btn-focused-bottom">
        <use href="#tb-btn-normal-bottom" />
        <use href="#sq-6" x="6" y="12" class="on-surf" opacity="0.08" />
      </g>
      <g id="tb-btn-focused-bottomright">
        <use href="#tb-btn-normal-bottomright" />
        <use href="#br-6" x="12" y="12" class="on-surf" opacity="0.08" />
      </g>
    </g>
    <g id="tb-btn-pressed-group" transform="translate(36)">
      <g id="tb-btn-pressed-topleft">
        <use href="#tb-btn-normal-topleft" />
        <use href="#tl-6" class="on-surf" opacity="0.1" />
      </g>
      <g id="tb-btn-pressed-top">
        <use href="#tb-btn-normal-top" />
        <use href="#sq-6" x="6" y="0" class="on-surf" opacity="0.1" />
      </g>
      <g id="tb-btn-pressed-topright">
        <use href="#tb-btn-normal-topright" />
        <use href="#tr-6" x="12" y="0" class="on-surf" opacity="0.1" />
      </g>
      <g id="tb-btn-pressed-left">
        <use href="#tb-btn-normal-left" />
        <use href="#sq-6" x="0" y="6" class="on-surf" opacity="0.1" />
      </g>
      <use id="tb-btn-pressed" href="#sq-6" x="6" y="6" class="on-surf" opacity="0.1" />
      <g id="tb-btn-pressed-right">
        <use href="#tb-btn-normal-right" />
        <use href="#sq-6" x="12" y="6" class="on-surf" opacity="0.1" />
      </g>
      <g id="tb-btn-pressed-bottomleft">
        <use href="#tb-btn-normal-bottomleft" />
        <use href="#bl-6" x="0" y="12" class="on-surf" opacity="0.1" />
      </g>
      <g id="tb-btn-pressed-bottom">
        <use href="#tb-btn-normal-bottom" />
        <use href="#sq-6" x="6" y="12" class="on-surf" opacity="0.1" />
      </g>
      <g id="tb-btn-pressed-bottomright">
        <use href="#tb-btn-normal-bottomright" />
        <use href="#br-6" x="12" y="12" class="on-surf" opacity="0.1" />
      </g>
    </g>
    <g id="tb-btn-toggled-group" transform="translate(54)">
      <g id="tb-btn-toggled-topleft">
        <use href="#tl-6" class="sec-cont" />
        <use href="#tb-btn-normal-topleft" />
      </g>
      <g id="tb-btn-toggled-top">
        <use href="#sq-6" x="6" y="0" class="sec-cont" />
        <use href="#tb-btn-normal-top" />
      </g>
      <g id="tb-btn-toggled-topright">
        <use href="#tr-6" x="12" y="0" class="sec-cont" />
        <use href="#tb-btn-normal-topright" />
      </g>
      <g id="tb-btn-toggled-left">
        <use href="#sq-6" x="0" y="6" class="sec-cont" />
        <use href="#tb-btn-normal-left" />
      </g>
      <use id="tb-btn-toggled" href="#sq-6" x="6" y="6" class="sec-cont" />
      <g id="tb-btn-toggled-right">
        <use href="#sq-6" x="12" y="6" class="sec-cont" />
        <use href="#tb-btn-normal-right" />
      </g>
      <g id="tb-btn-toggled-bottomleft">
        <use href="#bl-6" x="0" y="12" class="sec-cont" />
        <use href="#tb-btn-normal-bottomleft" />
      </g>
      <g id="tb-btn-toggled-bottom">
        <use href="#sq-6" x="6" y="12" class="sec-cont" />
        <use href="#tb-btn-normal-bottom" />
      </g>
      <g id="tb-btn-toggled-bottomright">
        <use href="#br-6" x="12" y="12" class="sec-cont" />
        <use href="#tb-btn-normal-bottomright" />
      </g>
    </g>
  </g>
  <g id="toolbar-group" transform="translate(72)">
    <use id="toolbar-normal-topleft" href="#sq-6" class="surf-cont-high" />
    <use id="toolbar-normal-top" href="#sq-6" x="6" y="0" class="surf-cont-high" />
    <use id="toolbar-normal-topright" href="#sq-6" x="12" y="0" class="surf-cont-high" />
    <use id="toolbar-normal-left" href="#sq-6" x="0" y="6" class="surf-cont-high" />
    <use id="toolbar-normal" href="#sq-6" x="6" y="6" class="surf-cont-high" />
    <use id="toolbar-normal-right" href="#sq-6" x="12" y="6" class="surf-cont-high" />
    <use id="toolbar-normal-bottomleft" href="#sq-6" x="0" y="12" class="surf-cont-high" />
    <use id="toolbar-normal-bottom" href="#sq-6" x="6" y="12" class="surf-cont-high" />
    <use id="toolbar-normal-bottomright" href="#sq-6" x="12" y="12" class="surf-cont-high" />
    <rect id="toolbar-separator" width="8" height="10" x="18" y="0" opacity="0" />
    <g id="toolbar-handle">
      <rect width="8" height="10" x="26" y="0" opacity="0" />
      <path d="m 26,1 h 1.5 v 8 h -1.5 z m 3,0 h 1.5 v 8 h -1.5 z" class="on-surf" opacity="0.38" />
    </g>
  </g>
  <g id="lineedit-group" transform="translate(72,18)">
    <g id="lineedit-normal-topleft">
      <use href="#sq-2" x="0" y="0" opacity="0" />
      <path d="M 0.5,2 q 0,-1.5 1.5,-1.5 v 1 q -0.5,0 -0.5,0.5 Z" class="outline" />
    </g>
    <g id="lineedit-normal-top">
      <use href="#sq-2" x="2" y="0" opacity="0" />
      <rect width="2" height="1" x="2" y="0.5" class="outline" />
    </g>
    <g id="lineedit-normal-topright">
      <use href="#sq-2" x="4" y="0" opacity="0" />
      <path d="M 5.5,2 q 0,-1.5 -1.5,-1.5 v 1 q 0.5,0 0.5,0.5 Z" class="outline" />
    </g>
    <g id="lineedit-normal-left">
      <use href="#sq-2" x="0" y="2" opacity="0" />
      <rect width="1" height="2" x="0.5" y="2" class="outline" />
    </g>
    <use id="lineedit-normal" href="#sq-2" x="2" y="2" opacity="0" />
    <g id="lineedit-normal-right">
      <use href="#sq-2" x="4" y="2" opacity="0" />
      <rect width="1" height="2" x="4.5" y="2" class="outline" />
    </g>
    <g id="lineedit-normal-bottomleft">
      <use href="#sq-2" x="0" y="4" opacity="0" />
      <path d="M 0.5,4 q 0,1.5 1.5,1.5 v -1 q -0.5,0 -0.5,-0.5 Z" class="outline" />
    </g>
    <g id="lineedit-normal-bottom">
      <use href="#sq-2" x="2" y="4" opacity="0" />
      <rect width="2" height="1" x="2" y="4.5" class="outline" />
    </g>
    <g id="lineedit-normal-bottomright">
      <use href="#sq-2" x="4" y="4" opacity="0" />
      <path d="M 5.5,4 q 0,1.5 -1.5,1.5 v -1 q 0.5,0 0.5,-0.5 Z" class="outline" />
    </g>
    <use id="lineedit-focused-topleft" href="#tl-2" x="6" y="0" class="pri" />
    <use id="lineedit-focused-top" href="#sq-2" x="8" y="0" class="pri" />
    <use id="lineedit-focused-topright" href="#tr-2" x="10" y="0" class="pri" />
    <use id="lineedit-focused-left" href="#sq-2" x="6" y="2" class="pri" />
    <use id="lineedit-focused" href="#sq-2" x="8" y="2" opacity="0" />
    <use id="lineedit-focused-right" href="#sq-2" x="10" y="2" class="pri" />
    <use id="lineedit-focused-bottomleft" href="#bl-2" x="6" y="4" class="pri" />
    <use id="lineedit-focused-bottom" href="#sq-2" x="8" y="4" class="pri" />
    <use id="lineedit-focused-bottomright" href="#br-2" x="10" y="4" class="pri" />
  </g>
  <g id="progress-group" transform="translate(72,24)">
    <use id="progress-normal-topleft" href="#tl-2" class="sec-cont" />
    <use id="progress-normal-top" href="#sq-2" x="2" y="0" class="sec-cont" />
    <use id="progress-normal-topright" href="#tr-2" x="4" y="0" class="sec-cont" />
    <use id="progress-normal-bottomleft" href="#bl-2" x="0" y="2" class="sec-cont" />
    <use id="progress-normal-bottom" href="#sq-2" x="2" y="2" class="sec-cont" />
    <use id="progress-normal-bottomright" href="#br-2" x="4" y="2" class="sec-cont" />
    <use id="progress-pattern-normal-topleft" href="#tl-2" x="6" y="0" class="pri" />
    <use id="progress-pattern-normal-top" href="#sq-2" x="8" y="0" class="pri" />
    <use id="progress-pattern-normal-topright" href="#tr-2" x="10" y="0" class="pri" />
    <use id="progress-pattern-normal-bottomleft" href="#bl-2" x="6" y="2" class="pri" />
    <use id="progress-pattern-normal-bottom" href="#sq-2" x="8" y="2" class="pri" />
    <use id="progress-pattern-normal-bottomright" href="#br-2" x="10" y="2" class="pri" />
    <use id="progress-pattern-disabled-topleft" href="#tl-2" x="0" y="4" class="on-surf-var" opacity="0.12" />
    <use id="progress-pattern-disabled-top" href="#sq-2" x="2" y="4" class="on-surf-var" opacity="0.12" />
    <use id="progress-pattern-disabled-topright" href="#tr-2" x="4" y="4" class="on-surf-var" opacity="0.12" />
    <use id="progress-pattern-disabled-bottomleft" href="#bl-2" x="0" y="6" class="on-surf-var" opacity="0.12" />
    <use id="progress-pattern-disabled-bottom" href="#sq-2" x="2" y="6" class="on-surf-var" opacity="0.12" />
    <use id="progress-pattern-disabled-bottomright" href="#br-2" x="4" y="6" class="on-surf-var" opacity="0.12" />
  </g>
  <g id="radio-group" transform="translate(0,54)">
    <g id="radio-normal">
      <circle cx="12" cy="12" r="12" opacity="0" />
      <use href="#radio-unchk" class="on-surf-var" />
    </g>
    <g id="radio-focused">
      <circle cx="12" cy="36" r="12" class="on-surf" opacity="0.1" />
      <use href="#radio-unchk" x="0" y="24" class="on-surf" />
    </g>
    <g id="radio-checked-normal">
      <circle cx="36" cy="12" r="12" opacity="0" />
      <use href="#radio-chk" x="24" y="0" class="pri" />
    </g>
    <g id="g100">
      <circle cx="36" cy="36" r="12" class="pri" opacity="0.1" />
      <use href="#radio-chk" x="24" y="24" class="pri" />
    </g>
  </g>
  <g id="checkbox-group" transform="translate(54,54)">
    <g id="checkbox-normal">
      <use href="#chk-box-back" x="0" y="0" opacity="0" />
      <use href="#chk-box-frame" x="0" y="0" class="on-surf-var" />
    </g>
    <g id="checkbox-focused">
      <use href="#chk-box-back" x="0" y="24" class="on-surf" opacity="0.1" />
      <use href="#chk-box-frame" x="0" y="24" class="on-surf" />
    </g>
    <g id="checkbox-checked-normal">
      <use href="#chk-box-back" x="24" y="0" opacity="0" />
      <use href="#chk-box-box" x="24" y="0" class="pri" />
      <use href="#chk-box-chk" x="24" y="0" class="on-pri" />
    </g>
    <g id="checkbox-checked-focused">
      <use href="#chk-box-back" x="24" y="24" class="pri" opacity="0.1" />
      <use href="#chk-box-box" x="24" y="24" class="pri" />
      <use href="#chk-box-chk" x="24" y="24" class="on-pri" />
    </g>
    <g id="checkbox-tristate-normal">
      <use href="#chk-box-back" x="48" y="0" opacity="0" />
      <use href="#chk-box-box" x="48" y="0" class="pri" />
      <use href="#chk-box-dash" x="48" y="0" class="on-pri" />
    </g>
    <g id="checkbox-tristate-focused">
      <use href="#chk-box-back" x="48" y="24" class="pri" opacity="0.1" />
      <use href="#chk-box-box" x="48" y="24" class="pri" />
      <use href="#chk-box-dash" x="48" y="24" class="on-pri" />
    </g>
  </g>
  <g id="arrow-group" transform="translate(0,102)">
    <g id="arrow-up-normal">
      <rect width="14" height="14" x="0" y="0" opacity="0" />
      <use href="#up" x="0" y="0" class="on-surf-var" />
    </g>
    <g id="arrow-up-focused">
      <rect width="14" height="14" x="14" y="0" opacity="0" />
      <use href="#up" x="14" y="0" class="pri" />
    </g>
    <g id="arrow-up-pressed">
      <rect width="14" height="14" x="28" y="0" opacity="0" />
      <use href="#up" x="28" y="0" class="on-surf" />
    </g>
    <g id="arrow-up-disabled">
      <rect width="14" height="14" x="42" y="0" opacity="0" />
      <use href="#up" x="42" y="0" class="on-surf" opacity="0.38" />
    </g>
    <g id="arrow-down-normal">
      <rect width="14" height="14" x="0" y="14" opacity="0" />
      <use href="#down" x="0" y="14" class="on-surf-var" />
    </g>
    <g id="arrow-down-focused">
      <rect width="14" height="14" x="14" y="14" opacity="0" />
      <use href="#down" x="14" y="14" class="pri" />
    </g>
    <g id="arrow-down-pressed">
      <rect width="14" height="14" x="28" y="14" opacity="0" />
      <use href="#down" x="28" y="14" class="on-surf" />
    </g>
    <g id="arrow-down-disabled">
      <rect width="14" height="14" x="42" y="14" opacity="0" />
      <use href="#down" x="42" y="14" class="on-surf" opacity="0.38" />
    </g>
    <g id="arrow-add-normal">
      <rect width="14" height="14" x="0" y="28" opacity="0" />
      <use href="#add" x="0" y="28" class="on-surf-var" />
    </g>
    <g id="arrow-add-focused">
      <rect width="14" height="14" x="14" y="28" opacity="0" />
      <use href="#add" x="14" y="28" class="pri" />
    </g>
    <g id="arrow-add-pressed">
      <rect width="14" height="14" x="28" y="28" opacity="0" />
      <use href="#add" x="28" y="28" class="on-surf" />
    </g>
    <g id="arrow-add-disabled">
      <rect width="14" height="14" x="42" y="28" opacity="0" />
      <use href="#add" x="42" y="28" class="on-surf" opacity="0.38" />
    </g>
    <g id="arrow-left-normal">
      <rect width="14" height="14" x="56" y="0" opacity="0" />
      <use href="#left" x="56" y="0" class="on-surf-var" />
    </g>
    <g id="arrow-left-focused">
      <rect width="14" height="14" x="70" y="0" opacity="0" />
      <use href="#left" x="70" y="0" class="pri" />
    </g>
    <g id="arrow-left-pressed">
      <rect width="14" height="14" x="84" y="0" opacity="0" />
      <use href="#left" x="84" y="0" class="on-surf" />
    </g>
    <g id="arrow-left-disabled">
      <rect width="14" height="14" x="98" y="0" opacity="0" />
      <use href="#left" x="98" y="0" class="on-surf" opacity="0.38" />
    </g>
    <g id="arrow-right-normal">
      <rect width="14" height="14" x="56" y="14" opacity="0" />
      <use href="#right" x="56" y="14" class="on-surf-var" />
    </g>
    <g id="arrow-right-focused">
      <rect width="14" height="14" x="70" y="14" opacity="0" />
      <use href="#right" x="70" y="14" class="pri" />
    </g>
    <g id="arrow-right-pressed">
      <rect width="14" height="14" x="84" y="14" opacity="0" />
      <use href="#right" x="84" y="14" class="on-surf" />
    </g>
    <g id="arrow-right-disabled">
      <rect width="14" height="14" x="98" y="14" opacity="0" />
      <use href="#right" x="98" y="14" class="on-surf" opacity="0.38" />
    </g>
    <g id="arrow-minus-normal">
      <rect width="14" height="14" x="56" y="28" opacity="0" />
      <use href="#minus" x="56" y="28" class="on-surf-var" />
    </g>
    <g id="arrow-minus-focused">
      <rect width="14" height="14" x="70" y="28" opacity="0" />
      <use href="#minus" x="70" y="28" class="pri" />
    </g>
    <g id="arrow-minus-pressed">
      <rect width="14" height="14" x="84" y="28" opacity="0" />
      <use href="#minus" x="84" y="28" class="on-surf" />
    </g>
    <g id="arrow-minus-disabled">
      <rect width="14" height="14" x="98" y="28" opacity="0" />
      <use href="#minus" x="98" y="28" class="on-surf" opacity="0.38" />
    </g>
  </g>
  <g id="slider-group" transform="translate(0,144)">
    <use id="slider-normal-topleft" href="#tl-2" class="sec-cont" />
    <use id="slider-normal-top" href="#sq-2" x="2" y="0" class="sec-cont" />
    <use id="slider-normal-topright" href="#tr-2" x="4" y="0" class="sec-cont" />
    <!-- <use id="slider-normal-left" href="#sq-8" x="0" y="8" class="sec-cont" /> -->
    <!-- <use id="slider-normal" href="#sq-8" x="8" y="8" class="sec-cont" /> -->
    <!-- <use id="slider-normal-right" href="#sq-8" x="16" y="8" class="sec-cont" /> -->
    <use id="slider-normal-bottomleft" href="#bl-2" x="0" y="2" class="sec-cont" />
    <use id="slider-normal-bottom" href="#sq-2" x="2" y="2" class="sec-cont" />
    <use id="slider-normal-bottomright" href="#br-2" x="4" y="2" class="sec-cont" />
    <use id="slider-toggled-topleft" href="#tl-2" x="6" y="0" class="pri" />
    <use id="slider-toggled-top" href="#sq-2" x="8" y="0" class="pri" />
    <use id="slider-toggled-topright" href="#tr-2" x="10" y="0" class="pri" />
    <!-- <use id="slider-toggled-left" href="#sq-2" x="24" y="8" class="pri" /> -->
    <!-- <use id="slider-toggled" href="#sq-2" x="32" y="8" class="pri" /> -->
    <!-- <use id="slider-toggled-right" href="#sq-2" x="40" y="8" class="pri" /> -->
    <use id="slider-toggled-bottomleft" href="#bl-2" x="6" y="2" class="pri" />
    <use id="slider-toggled-bottom" href="#sq-2" x="8" y="2" class="pri" />
    <use id="slider-toggled-bottomright" href="#br-2" x="10" y="2" class="pri" />
    <use id="slidercursor-normal" href="#slide-hand" x="48" y="0" class="pri" />
    <use id="slidercursor-focused" href="#slide-hand" x="52" y="0" class="pri" />
    <use id="slidercursor-pressed" href="#slide-hand" x="56" y="0" class="pri" />
    <use id="slidercursor-disabled" href="#slide-hand" x="60" y="0" class="on-surf" opacity="0.38" />
    <!-- 
    id="slider-tick-normal"
    id="slider-topglow-normal"
    id="slider-bottomglow-normal"
    -->
  </g>
  <g id="menu-group" transform="translate(64,144)">
    <use id="menu-normal-topleft" href="#tl-2" x="2" y="2" class="surf-cont" />
    <use id="menu-normal-top" href="#sq-2" x="4" y="2" class="surf-cont" />
    <use id="menu-normal-topright" href="#tr-2" x="6" y="2" class="surf-cont" />
    <use id="menu-normal-left" href="#sq-2" x="2" y="4" class="surf-cont" />
    <use id="menu-normal" href="#sq-2" x="4" y="4" class="surf-cont" />
    <use id="menu-normal-right" href="#sq-2" x="6" y="4" class="surf-cont" />
    <use id="menu-normal-bottomleft" href="#bl-2" x="2" y="6" class="surf-cont" />
    <use id="menu-normal-bottom" href="#sq-2" x="4" y="6" class="surf-cont" />
    <use id="menu-normal-bottomright" href="#br-2" x="6" y="6" class="surf-cont" />
    <g id="menu-shadow-topleft" transform="translate(8)">
      <rect width="4" height="4" x="0" y="0" opacity="0" />
      <path d="M 3.877 2.002 C 2.062 2.031 0.884 2.697 0.344 4 L 2 4 C 2 2.708 2.626 2.042 3.877 2.002 z"
        fill="url(#menu-atl)" opacity="0.15" />
      <use href="#menu-normal-topleft" />
    </g>
    <g id="menu-shadow-top" transform="translate(8)">
      <rect id="clip-t" width="2" height="2" x="4" y="0" opacity="0" />
      <use href="#menu-normal-top" />
    </g>
    <g id="menu-shadow-topright" transform="translate(8)">
      <rect width="4" height="4" x="6" y="0" opacity="0" />
      <path d="M 6.123 2.002 C 7.374 2.042 8 2.708 8 4 L 9.656 4 C 9.115 2.697 7.938 2.031 6.123 2.002 z"
        fill="url(#menu-atr)" opacity="0.15" />
      <use href="#menu-normal-topright" />
    </g>
    <g id="menu-shadow-left" transform="translate(8)">
      <path d="M 0.344 4 C 0.115 4.553 0 5.218 0 6 L 2 6 L 2 4 L 0.344 4 z" fill="url(#menu-atl)" opacity="0.15" />
      <use href="#menu-normal-left" />
    </g>
    <g id="menu-shadow-right" transform="translate(8)">
      <path d="M 8 4 L 8 6 L 10 6 C 10 5.218 9.885 4.553 9.656 4 L 8 4 z" fill="url(#menu-atr)" opacity="0.15" />
      <use href="#menu-normal-right" />
    </g>
    <g id="menu-shadow-bottomleft" transform="translate(8)">
      <path d="M 2 6 L 2 7 L 2.172 7 C 2.058 6.724 2 6.391 2 6 z" fill="url(#menu-bl)" opacity="0.3" />
      <path d="M 2 7 C 2 8.334 2.667 9 4 9 L 4 8 C 3.058 8 2.449 7.666 2.172 7 L 2 7 z" fill="url(#menu-bbl)"
        opacity="0.3" />
      <path d="M 0 6 L 0 8 L 4 8 C 2.667 8 2 7.333 2 6 L 0 6 z" fill="url(#menu-al)" opacity="0.15" />
      <path d="M 0 8 C 0 10.667 1.333 12 4 12 L 4 8 L 0 8 z" fill="url(#menu-abl)" opacity="0.15" />
      <use href="#menu-normal-bottomleft" />
    </g>
    <g id="menu-shadow-bottom" transform="translate(8)">
      <path d="M 4 8 L 4 9 L 6 9 L 6 8 L 4 8 z" fill="url(#menu-bb)" opacity="0.3" />
      <path d="M 4 8 L 4 12 L 6 12 L 6 8 L 4 8 z" fill="url(#menu-ab)" opacity="0.15" />
      <use href="#menu-normal-bottom" />
    </g>
    <g id="menu-shadow-bottomright" transform="translate(8)">
      <path d="M 8 6 C 8 6.39 7.943 6.724 7.828 7 L 8 7 L 8 6 z" fill="url(#menu-br)" opacity="0.3" />
      <path d="M 7.828 7 C 7.552 7.666 6.942 8 6 8 L 6 9 C 7.333 9 8 8.334 8 7 L 7.828 7 z" fill="url(#menu-bbr)"
        opacity="0.3" />
      <path d="M 8 6 C 8 7.333 7.333 8 6 8 L 10 8 L 10 6 L 8 6 z" fill="url(#menu-ar)" opacity="0.15" />
      <path d="M 6 8 L 6 12 C 8.666 12 10 10.667 10 8 L 6 8 z" fill="url(#menu-abr)" opacity="0.15" />
      <use href="#menu-normal-bottomright" />
    </g>
    <rect id="menu-shadow-hint-top" width="1" height="2" x="12.5" y="0" fill="#008080" />
    <rect id="menu-shadow-hint-left" width="2" height="1" x="8" y="4.5" fill="#008080" />
    <rect id="menu-shadow-hint-right" width="2" height="1" x="16" y="4.5" fill="#008080" />
    <rect id="menu-shadow-hint-bottom" width="1" height="4" x="12.5" y="8" fill="#008080" />
    <use id="menuitem-toggled" href="#sq-2" class="sec-cont" />
    <g id="menuitem-pressed" transform="translate(0,2)">
      <use href="#menuitem-toggled" />
      <use href="#sq-2" class="on-surf" opacity="0.08" />
    </g>
  </g>
  <g id="tab-group" transform="translate(64,144)">
    <use id="tabframe-normal-topleft" href="#sq-1" x="9" y="9" class="surf" />
    <use id="tabframe-normal-top" href="#sq-1" x="10" y="9" class="surf" />
    <use id="tabframe-normal-topright" href="#sq-1" x="11" y="9" class="surf" />
    <use id="tabframe-normal-left" href="#sq-1" x="9" y="10" class="surf" />
    <use id="tabframe-normal-right" href="#sq-1" x="11" y="10" class="surf" />
    <use id="tabframe-normal-bottomleft" href="#sq-1" x="9" y="11" class="outline-var" />
    <use id="tabframe-normal-bottom" href="#sq-1" x="10" y="11" class="outline-var" />
    <use id="tabframe-normal-bottomright" href="#sq-1" x="11" y="11" class="outline-var" />
    <use id="tab-normal-topleft" href="#sq-3" x="0" y="0" opacity="0" />
    <use id="tab-normal-top" href="#sq-3" x="3" y="0" opacity="0" />
    <use id="tab-normal-topright" href="#sq-3" x="6" y="0" opacity="0" />
    <use id="tab-normal-left" href="#sq-3" x="0" y="3" opacity="0" />
    <use id="tab-normal" href="#sq-3" x="3" y="3" opacity="0" />
    <use id="tab-normal-right" href="#sq-3" x="6" y="3" opacity="0" />
    <use id="tab-normal-bottomleft" href="#sq-3" x="0" y="6" opacity="0" />
    <use id="tab-normal-bottom" href="#sq-3" x="3" y="6" opacity="0" />
    <use id="tab-normal-bottomright" href="#sq-3" x="6" y="6" opacity="0" />
    <use id="tab-focused-topleft" href="#sq-3" x="9" y="0" class="pri" opacity="0.1" />
    <use id="tab-focused-top" href="#sq-3" x="12" y="0" class="pri" opacity="0.1" />
    <use id="tab-focused-topright" href="#sq-3" x="15" y="0" class="pri" opacity="0.1" />
    <use id="tab-focused-left" href="#sq-3" x="9" y="3" class="pri" opacity="0.1" />
    <use id="tab-focused" href="#sq-3" x="12" y="3" class="pri" opacity="0.1" />
    <use id="tab-focused-right" href="#sq-3" x="15" y="3" class="pri" opacity="0.1" />
    <use id="tab-focused-bottomleft" href="#sq-3" x="9" y="6" class="pri" opacity="0.1" />
    <use id="tab-focused-bottom" href="#sq-3" x="12" y="6" class="pri" opacity="0.1" />
    <use id="tab-focused-bottomright" href="#sq-3" x="15" y="6" class="pri" opacity="0.1" />
    <use id="tab-toggled-topleft" href="#sq-3" x="0" y="9" opacity="0" />
    <use id="tab-toggled-top" href="#sq-3" x="3" y="9" opacity="0" />
    <use id="tab-toggled-topright" href="#sq-3" x="6" y="9" opacity="0" />
    <use id="tab-toggled-left" href="#sq-3" x="0" y="12" opacity="0" />
    <use id="tab-toggled" href="#sq-3" x="3" y="12" opacity="0" />
    <use id="tab-toggled-right" href="#sq-3" x="6" y="12" opacity="0" />
    <path id="tab-toggled-bottomleft" d="M 0,18 q 0,-3 3,-3 v 3 Z" class="pri" />
    <use id="tab-toggled-bottom" href="#sq-3" x="3" y="15" class="pri" />
    <path id="tab-toggled-bottomright" d="M 9,18 q 0,-3 -3,-3 v 3 z" class="pri" />
    <use id="tab-close-normal" href="#close" x="0" y="0" class="on-surf-var" />
    <use id="tab-close-focused" href="#close" x="14" y="0" class="pri" />
    <use id="tab-close-pressed" href="#close" x="0" y="14" class="on-surf" />
    <use id="tab-close-disabled" href="#close" x="14" y="14" class="on-surf" opacity="0.38" />
    <!-- 
    id="tab-tear"
    -->
  </g>
  <!-- Before 1 | 0px | 1px | 2px  | 0px | 0.3 -->
  <!-- After 1 | 0px | 1px | 3px  | 1px | 0.15 -->
  <circle cx="12" cy="13" r="10" opacity="0.3" />
  <circle cx="12" cy="13" r="11" opacity="0.15" />
  <circle cx="12" cy="12" r="10" class="pri" />
</svg>