<svg height="160" width="200" viewBox="0 0 200 160" xmlns="http://www.w3.org/2000/svg">
  <defs>
    <style>
      .fill-primary {
        fill: #95ccff;
      }

      .fill-on-primary {
        fill: #003353;
      }

      .fill-surface-container-highest {
        fill: #333538;
      }

      .fill-on-surface {
        fill: #e2e2e5;
      }

      .fill-on-surface-variant {
        fill: #c2c7cf;
      }

      .fill-outline {
        fill: #8c9198;
      }
    </style>
  </defs>
  <g id="lineedit-group">
    <g id="lineedit-normal-topleft">
      <rect width="4" height="4" x="0" y="0" opacity="0" />
      <path d="M 1,4 Q 1,1 4,1 v 3 z" class="fill-surface-container-highest" opacity="0" />
      <path d="M 0.5,4 Q 0.5,0.5 4,0.5 v 1 Q 1.5,1.5 1.5,4 Z" class="fill-outline" />
    </g>
    <g id="lineedit-normal-top" transform="translate(4)">
      <rect width="16" height="4" x="0" y="0" opacity="0" />
      <rect width="16" height="3" x="0" y="1" class="fill-surface-container-highest" opacity="0" />
      <rect width="16" height="1" x="0" y="0.5" class="fill-outline" />
    </g>
    <g id="lineedit-normal-topright" transform="translate(20)">
      <rect width="4" height="4" x="0" y="0" opacity="0" />
      <path d="M 3,4 Q 3,1 0,1 v 3 z" class="fill-surface-container-highest" opacity="0" />
      <path d="M 3.5,4 Q 3.5,0.5 0,0.5 v 1 q 2.5,0 2.5,2.5 z" class="fill-outline" />
    </g>
    <g id="lineedit-normal-left" transform="translate(0,4)">
      <rect width="4" height="16" x="0" y="0" opacity="0" />
      <rect width="3" height="16" x="1" y="0" class="fill-surface-container-highest" opacity="0" />
      <rect width="1" height="16" x="0.5" y="0" class="fill-outline" />
    </g>
    <rect id="lineedit-normal" width="16" height="16" x="4" y="4" class="fill-surface-container-highest" opacity="0" />
    <g id="lineedit-normal-right" transform="translate(20,4)">
      <rect width="4" height="16" x="0" y="0" opacity="0" />
      <rect width="3" height="16" x="0" y="0" class="fill-surface-container-highest" opacity="0" />
      <rect width="1" height="16" x="2.5" y="0" class="fill-outline" />
    </g>
    <g id="lineedit-normal-bottomleft" transform="translate(0,20)">
      <rect width="4" height="4" x="0" y="0" opacity="0" />
      <path d="M 1,0 Q 1,3 4,3 V 0 Z" class="fill-surface-container-highest" opacity="0" />
      <path d="m 0.5,0 q 0,3.5 3.5,3.5 v -1 Q 1.5,2.5 1.5,0 Z" class="fill-outline" />
    </g>
    <g id="lineedit-normal-bottom" transform="translate(4,20)">
      <rect width="16" height="4" x="0" y="0" opacity="0" />
      <rect width="16" height="3" x="0" y="0" class="fill-surface-container-highest" opacity="0" />
      <rect width="16" height="1" x="0" y="2.5" class="fill-outline" />
    </g>
    <g id="lineedit-normal-bottomright" transform="translate(20,20)">
      <rect width="4" height="4" x="0" y="0" opacity="0" />
      <path d="M 3,0 Q 3,3 0,3 V 0 Z" class="fill-surface-container-highest" opacity="0" />
      <path d="M 3.5,0 Q 3.5,3.5 0,3.5 v -1 Q 2.5,2.5 2.5,0 Z" class="fill-outline" />
    </g>
    <g id="lineedit-focused-topleft" transform="translate(24)">
      <path d="M 1,4 Q 1,1 4,1 v 3 z" class="fill-surface-container-highest" opacity="0" />
      <path d="M 0,4 Q 0,0 4,0 V 2 Q 2,2 2,4 Z" class="fill-primary" />
    </g>
    <g id="lineedit-focused-top" transform="translate(28)">
      <rect width="16" height="3" x="0" y="1" class="fill-surface-container-highest" opacity="0" />
      <rect width="16" height="2" x="0" y="0" class="fill-primary" />
    </g>
    <g id="lineedit-focused-topright" transform="translate(44)">
      <path d="M 3,4 Q 3,1 0,1 v 3 z" class="fill-surface-container-highest" opacity="0" />
      <path d="M 4,4 Q 4,0 0,0 v 2 q 2,0 2,2 z" class="fill-primary" />
    </g>
    <g id="lineedit-focused-left" transform="translate(24,4)">
      <rect width="3" height="16" x="1" y="0" class="fill-surface-container-highest" opacity="0" />
      <rect width="2" height="16" x="0" y="0" class="fill-primary" />
    </g>
    <rect id="lineedit-focused" width="16" height="16" x="28" y="4" class="fill-surface-container-highest"
      opacity="0" />
    <g id="lineedit-focused-right" transform="translate(44,4)">
      <rect width="3" height="16" x="0" y="0" class="fill-surface-container-highest" opacity="0" />
      <rect width="2" height="16" x="2" y="0" class="fill-primary" />
    </g>
    <g id="lineedit-focused-bottomleft" transform="translate(24,20)">
      <path d="M 1,0 Q 1,3 4,3 V 0 Z" class="fill-surface-container-highest" opacity="0" />
      <path d="M 0,0 Q 0,4 4,4 V 2 Q 2,2 2,0 Z" class="fill-primary" />
    </g>
    <g id="lineedit-focused-bottom" transform="translate(28,20)">
      <rect width="16" height="3" x="0" y="0" class="fill-surface-container-highest" opacity="0" />
      <rect width="16" height="2" x="0" y="2" class="fill-primary" />
    </g>
    <g id="lineedit-focused-bottomright" transform="translate(44,20)">
      <path d="M 3,0 Q 3,3 0,3 V 0 Z" class="fill-surface-container-highest" opacity="0" />
      <path d="M 4,0 Q 4,4 0,4 V 2 Q 2,2 2,0 Z" class="fill-primary" />
    </g>
  </g>
  <g id="radio-group" transform="translate(0,24)">
    <g id="radio-normal">
      <circle cx="11" cy="11" r="11" opacity="0" />
      <path
        d="M 11,21 Q 8.925,21 7.1,20.2125 5.275,19.425 3.925,18.075 2.575,16.725 1.7875,14.9 1,13.075 1,11 1,8.925 1.7875,7.1 2.575,5.275 3.925,3.925 5.275,2.575 7.1,1.7875 8.925,1 11,1 13.075,1 14.9,1.7875 16.725,2.575 18.075,3.925 19.425,5.275 20.2125,7.1 21,8.925 21,11 q 0,2.075 -0.7875,3.9 -0.7875,1.825 -2.1375,3.175 -1.35,1.35 -3.175,2.1375 Q 13.075,21 11,21 Z m 0,-2 q 3.35,0 5.675,-2.325 Q 19,14.35 19,11 19,7.65 16.675,5.325 14.35,3 11,3 7.65,3 5.325,5.325 3,7.65 3,11 3,14.35 5.325,16.675 7.65,19 11,19 Z m 0,-8 z"
        class="fill-on-surface-variant" />
    </g>
    <g id="radio-focused" transform="translate(0,22)">
      <circle cx="11" cy="11" r="11" class="fill-on-surface" opacity="0.1" />
      <path
        d="M 11,21 Q 8.925,21 7.1,20.2125 5.275,19.425 3.925,18.075 2.575,16.725 1.7875,14.9 1,13.075 1,11 1,8.925 1.7875,7.1 2.575,5.275 3.925,3.925 5.275,2.575 7.1,1.7875 8.925,1 11,1 13.075,1 14.9,1.7875 16.725,2.575 18.075,3.925 19.425,5.275 20.2125,7.1 21,8.925 21,11 q 0,2.075 -0.7875,3.9 -0.7875,1.825 -2.1375,3.175 -1.35,1.35 -3.175,2.1375 Q 13.075,21 11,21 Z m 0,-2 q 3.35,0 5.675,-2.325 Q 19,14.35 19,11 19,7.65 16.675,5.325 14.35,3 11,3 7.65,3 5.325,5.325 3,7.65 3,11 3,14.35 5.325,16.675 7.65,19 11,19 Z m 0,-8 z"
        class="fill-on-surface" />
    </g>
    <g id="radio-checked-normal" transform="translate(22)">
      <circle cx="11" cy="11" r="11" opacity="0" />
      <path
        d="m 11,16 q 2.075,0 3.5375,-1.4625 Q 16,13.075 16,11 16,8.925 14.5375,7.4625 13.075,6 11,6 8.925,6 7.4625,7.4625 6,8.925 6,11 6,13.075 7.4625,14.5375 8.925,16 11,16 Z m 0,5 Q 8.925,21 7.1,20.2125 5.275,19.425 3.925,18.075 2.575,16.725 1.7875,14.9 1,13.075 1,11 1,8.925 1.7875,7.1 2.575,5.275 3.925,3.925 5.275,2.575 7.1,1.7875 8.925,1 11,1 13.075,1 14.9,1.7875 16.725,2.575 18.075,3.925 19.425,5.275 20.2125,7.1 21,8.925 21,11 q 0,2.075 -0.7875,3.9 -0.7875,1.825 -2.1375,3.175 -1.35,1.35 -3.175,2.1375 Q 13.075,21 11,21 Z m 0,-2 q 3.35,0 5.675,-2.325 Q 19,14.35 19,11 19,7.65 16.675,5.325 14.35,3 11,3 7.65,3 5.325,5.325 3,7.65 3,11 3,14.35 5.325,16.675 7.65,19 11,19 Z m 0,-8 z"
        class="fill-primary" />
    </g>
    <g id="radio-checked-focused" transform="translate(22,22)">
      <circle cx="11" cy="11" r="11" class="fill-primary" opacity="0.1" />
      <path
        d="m 11,16 q 2.075,0 3.5375,-1.4625 Q 16,13.075 16,11 16,8.925 14.5375,7.4625 13.075,6 11,6 8.925,6 7.4625,7.4625 6,8.925 6,11 6,13.075 7.4625,14.5375 8.925,16 11,16 Z m 0,5 Q 8.925,21 7.1,20.2125 5.275,19.425 3.925,18.075 2.575,16.725 1.7875,14.9 1,13.075 1,11 1,8.925 1.7875,7.1 2.575,5.275 3.925,3.925 5.275,2.575 7.1,1.7875 8.925,1 11,1 13.075,1 14.9,1.7875 16.725,2.575 18.075,3.925 19.425,5.275 20.2125,7.1 21,8.925 21,11 q 0,2.075 -0.7875,3.9 -0.7875,1.825 -2.1375,3.175 -1.35,1.35 -3.175,2.1375 Q 13.075,21 11,21 Z m 0,-2 q 3.35,0 5.675,-2.325 Q 19,14.35 19,11 19,7.65 16.675,5.325 14.35,3 11,3 7.65,3 5.325,5.325 3,7.65 3,11 3,14.35 5.325,16.675 7.65,19 11,19 Z m 0,-8 z"
        class="fill-primary" />
    </g>
  </g>
  <g id="checkbox-group" transform="translate(0,68)">
    <g id="checkbox-normal">
      <path d="m 0,4 q 0,-4 4,-4 h 14 q 4,0 4,4 v 14 q 0,4 -4,4 h -14 q -4,0 -4,-4 v -14 z" opacity="0" />
      <path d="m 2,4 q 0,-2 2,-2 h 14 q 2,0 2,2 v 14 q 0,2 -2,2 h -14 q -2,0 -2,-2 v -14 h 2 v 14 h 14 v -14 z"
        class="fill-on-surface-variant" />
    </g>
    <g id="checkbox-focused" transform="translate(0,22)">
      <path d="m 0,4 q 0,-4 4,-4 h 14 q 4,0 4,4 v 14 q 0,4 -4,4 h -14 q -4,0 -4,-4 v -14 z" class="fill-on-surface"
        opacity="0.1" />
      <path d="m 2,4 q 0,-2 2,-2 h 14 q 2,0 2,2 v 14 q 0,2 -2,2 h -14 q -2,0 -2,-2 v -14 h 2 v 14 h 14 v -14 z"
        class="fill-on-surface" />
    </g>
    <g id="checkbox-checked-normal" transform="translate(22,0)">
      <path d="m 0,4 q 0,-4 4,-4 h 14 q 4,0 4,4 v 14 q 0,4 -4,4 h -14 q -4,0 -4,-4 v -14 z" opacity="0" />
      <path d="m 2,4 q 0,-2 2,-2 h 14 q 2,0 2,2 v 14 q 0,2 -2,2 h -14 q -2,0 -2,-2 v -14 z" class="fill-primary" />
      <path d="m 9.6,15.2 7.05,-7.05 -1.4,-1.4 -5.65,5.65 -2.85,-2.85 -1.4,1.4 z" class="fill-on-primary" />
    </g>
    <g id="checkbox-checked-focused" transform="translate(22,22)">
      <path d="m 0,4 q 0,-4 4,-4 h 14 q 4,0 4,4 v 14 q 0,4 -4,4 h -14 q -4,0 -4,-4 v -14 z" class="fill-primary"
        opacity="0.1" />
      <path d="m 2,4 q 0,-2 2,-2 h 14 q 2,0 2,2 v 14 q 0,2 -2,2 h -14 q -2,0 -2,-2 v -14 z" class="fill-primary" />
      <path d="m 9.6,15.2 7.05,-7.05 -1.4,-1.4 -5.65,5.65 -2.85,-2.85 -1.4,1.4 z" class="fill-on-primary" />
    </g>
    <g id="checkbox-tristate-normal" transform="translate(44,0)">
      <path d="m 0,4 q 0,-4 4,-4 h 14 q 4,0 4,4 v 14 q 0,4 -4,4 h -14 q -4,0 -4,-4 v -14 z" opacity="0" />
      <path d="m 2,4 q 0,-2 2,-2 h 14 q 2,0 2,2 v 14 q 0,2 -2,2 h -14 q -2,0 -2,-2 v -14 z" class="fill-primary" />
      <path d="M 6,12 h 10 v -2 h -10 Z" class="fill-on-primary" />
    </g>
    <g id="checkbox-tristate-focused" transform="translate(44,22)">
      <path d="m 0,4 q 0,-4 4,-4 h 14 q 4,0 4,4 v 14 q 0,4 -4,4 h -14 q -4,0 -4,-4 v -14 z" class="fill-primary"
        opacity="0.1" />
      <path d="m 2,4 q 0,-2 2,-2 h 14 q 2,0 2,2 v 14 q 0,2 -2,2 h -14 q -2,0 -2,-2 v -14 z" class="fill-primary" />
      <path d="M 6,12 h 10 v -2 h -10 Z" class="fill-on-primary" />
    </g>
  </g>
  <!-- id="arrow-plus-normal" -->
  <!-- id="arrow-plus-focused" -->
  <!-- id="arrow-plus-pressed" -->
  <!-- id="arrow-plus-disabled" -->
  <!-- id="arrow-minus-normal" -->
  <!-- id="arrow-minus-focused" -->
  <!-- id="arrow-minus-pressed" -->
  <!-- id="arrow-minus-disabled" -->
  <!-- id="arrow-left-normal" -->
  <!-- id="arrow-left-focused" -->
  <!-- id="arrow-left-pressed" -->
  <!-- id="arrow-left-disabled" -->
  <!-- id="arrow-right-normal" -->
  <!-- id="arrow-right-focused" -->
  <!-- id="arrow-right-pressed" -->
  <!-- id="arrow-right-disabled" -->
  <g id="arrow-up-normal" transform="translate(0,0)">
    <rect width="24" height="24" x="0" y="0" opacity="0" />
    <path d="M 1,17.5 12,6.5 23,17.5 Z" class="fill-on-surface-variant" />
  </g>
  <g id="arrow-up-focused" transform="translate(24,0)">
    <rect width="24" height="24" x="0" y="0" opacity="0" />
    <path d="M 1,17.5 12,6.5 23,17.5 Z" class="fill-primary" />
  </g>
  <g id="arrow-up-pressed" transform="translate(48,0)">
    <rect width="24" height="24" x="0" y="0" opacity="0" />
    <path d="M 1,17.5 12,6.5 23,17.5 Z" class="fill-primary" />
  </g>
  <g id="arrow-up-disabled" transform="translate(72,0)" class="fill-on-surface" opacity="0.38">
    <rect width="24" height="24" x="0" y="0" opacity="0" />
    <path d="M 1,17.5 12,6.5 23,17.5 Z" />
  </g>
  <g id="arrow-down-normal" transform="translate(0,24)">
    <rect width="24" height="24" x="0" y="0" opacity="0" />
    <path d="M 12,17.5 1,6.5 H 23 Z" class="fill-on-surface-variant" />
  </g>
  <g id="arrow-down-focused" transform="translate(24,24)">
    <rect width="24" height="24" x="0" y="0" opacity="0" />
    <path d="M 12,17.5 1,6.5 H 23 Z" class="fill-primary" />
  </g>
  <g id="arrow-down-pressed" transform="translate(48,24)">
    <rect width="24" height="24" x="0" y="0" opacity="0" />
    <path d="M 12,17.5 1,6.5 H 23 Z" class="fill-primary" />
  </g>
  <g id="arrow-down-disabled" transform="translate(72,24)" class="fill-on-surface" opacity="0.38">
    <rect width="24" height="24" x="0" y="0" opacity="0" />
    <path d="M 12,17.5 1,6.5 H 23 Z" />
  </g>
  <rect width="24" height="24" x="72" y="-24" fill="#800000" />
  <rect width="24" height="24" x="48" y="-24" fill="#800000" />
  <rect width="24" height="24" x="0" y="-24" fill="#800000" />
  <rect width="24" height="24" x="24" y="-24" fill="#800000" />
  <path d="M 11,-11 H 5 v -2 h 6 v -6 h 2 v 6 h 6 v 2 h -6 v 6 h -2 z" />
  <path d="m 29,-11 v -2 h 14 v 2 z" />
  <path d="m 81.5,-17 5,5 -5,5 z" />
  <path d="m 62.5,-7 -5,-5 5,-5 z" />
</svg>