<svg height="80" width="200" viewBox="0 0 200 80" xmlns="http://www.w3.org/2000/svg">
  <defs>
    <style>
      .fill-primary {
        fill: #95ccff;
      }

      .fill-on-primary {
        fill: #003353;
      }

      .fill-on-surface {
        fill: #e2e2e5;
      }

      .fill-on-surface-variant {
        fill: #c2c7cf;
      }
    </style>
  </defs>
  <g id="checkbox-normal">
    <circle cx="20" cy="20" r="20" opacity="0" />
    <path d="m 11,13 q 0,-2 2,-2 h 14 q 2,0 2,2 v 14 q 0,2 -2,2 h -14 q -2,0 -2,-2 v -14 h 2 v 14 h 14 v -14 z"
      class="fill-on-surface-variant" />
  </g>
  <g id="checkbox-focused" transform="translate(0,40)">
    <circle cx="20" cy="20" r="20" class="fill-on-surface" opacity="0.1" />
    <path d="m 11,13 q 0,-2 2,-2 h 14 q 2,0 2,2 v 14 q 0,2 -2,2 h -14 q -2,0 -2,-2 v -14 h 2 v 14 h 14 v -14 z"
      class="fill-on-surface" />
  </g>
  <g id="checkbox-checked-normal" transform="translate(40,0)">
    <circle cx="20" cy="20" r="20" opacity="0" />
    <path d="m 11,13 q 0,-2 2,-2 h 14 q 2,0 2,2 v 14 q 0,2 -2,2 h -14 q -2,0 -2,-2 v -14 z" class="fill-primary" />
    <path d="m 18.6,24.2 7.05,-7.05 -1.4,-1.4 -5.65,5.65 -2.85,-2.85 -1.4,1.4 z" class="fill-on-primary" />
  </g>
  <g id="checkbox-checked-focused" transform="translate(40,40)">
    <circle cx="20" cy="20" r="20" class="fill-primary" opacity="0.1" />
    <path d="m 11,13 q 0,-2 2,-2 h 14 q 2,0 2,2 v 14 q 0,2 -2,2 h -14 q -2,0 -2,-2 v -14 z" class="fill-primary" />
    <path d="m 18.6,24.2 7.05,-7.05 -1.4,-1.4 -5.65,5.65 -2.85,-2.85 -1.4,1.4 z" class="fill-on-primary" />
  </g>
  <g id="checkbox-tristate-normal" transform="translate(80,0)">
    <circle cx="20" cy="20" r="20" opacity="0" />
    <path d="m 11,13 q 0,-2 2,-2 h 14 q 2,0 2,2 v 14 q 0,2 -2,2 h -14 q -2,0 -2,-2 v -14 z" class="fill-primary" />
    <path d="M 15,21 h 10 v -2 h -10 Z" class="fill-on-primary" />
  </g>
  <g id="checkbox-tristate-focused" transform="translate(80,40)">
    <circle cx="20" cy="20" r="20" class="fill-primary" opacity="0.1" />
    <path d="m 11,13 q 0,-2 2,-2 h 14 q 2,0 2,2 v 14 q 0,2 -2,2 h -14 q -2,0 -2,-2 v -14 z" class="fill-primary" />
    <path d="M 15,21 h 10 v -2 h -10 Z" class="fill-on-primary" />
  </g>
  <g id="radio-normal" transform="translate(120,0)">
    <circle cx="20" cy="20" r="20" opacity="0" />
    <path
      d="M 20,30 Q 17.925,30 16.1,29.2125 14.275,28.425 12.925,27.075 11.575,25.725 10.7875,23.9 10,22.075 10,20 10,17.925 10.7875,16.1 11.575,14.275 12.925,12.925 14.275,11.575 16.1,10.7875 17.925,10 20,10 q 2.075,0 3.9,0.7875 1.825,0.7875 3.175,2.1375 1.35,1.35 2.1375,3.175 Q 30,17.925 30,20 q 0,2.075 -0.7875,3.9 -0.7875,1.825 -2.1375,3.175 -1.35,1.35 -3.175,2.1375 Q 22.075,30 20,30 Z m 0,-2 q 3.35,0 5.675,-2.325 Q 28,23.35 28,20 28,16.65 25.675,14.325 23.35,12 20,12 16.65,12 14.325,14.325 12,16.65 12,20 12,23.35 14.325,25.675 16.65,28 20,28 Z m 0,-8 z"
      class="fill-on-surface-variant" />
  </g>
  <g id="radio-focused" transform="translate(120,40)">
    <circle cx="20" cy="20" r="20" class="fill-primary" opacity="0.1" />
    <path
      d="M 20,30 Q 17.925,30 16.1,29.2125 14.275,28.425 12.925,27.075 11.575,25.725 10.7875,23.9 10,22.075 10,20 10,17.925 10.7875,16.1 11.575,14.275 12.925,12.925 14.275,11.575 16.1,10.7875 17.925,10 20,10 q 2.075,0 3.9,0.7875 1.825,0.7875 3.175,2.1375 1.35,1.35 2.1375,3.175 Q 30,17.925 30,20 q 0,2.075 -0.7875,3.9 -0.7875,1.825 -2.1375,3.175 -1.35,1.35 -3.175,2.1375 Q 22.075,30 20,30 Z m 0,-2 q 3.35,0 5.675,-2.325 Q 28,23.35 28,20 28,16.65 25.675,14.325 23.35,12 20,12 16.65,12 14.325,14.325 12,16.65 12,20 12,23.35 14.325,25.675 16.65,28 20,28 Z m 0,-8 z"
      class="fill-on-surface" />
  </g>
  <g id="radio-checked-normal" transform="translate(160,0)">
    <circle cx="20" cy="20" r="20" opacity="0" />
    <path
      d="m 20,25 q 2.075,0 3.5375,-1.4625 Q 25,22.075 25,20 25,17.925 23.5375,16.4625 22.075,15 20,15 17.925,15 16.4625,16.4625 15,17.925 15,20 15,22.075 16.4625,23.5375 17.925,25 20,25 Z m 0,5 Q 17.925,30 16.1,29.2125 14.275,28.425 12.925,27.075 11.575,25.725 10.7875,23.9 10,22.075 10,20 10,17.925 10.7875,16.1 11.575,14.275 12.925,12.925 14.275,11.575 16.1,10.7875 17.925,10 20,10 q 2.075,0 3.9,0.7875 1.825,0.7875 3.175,2.1375 1.35,1.35 2.1375,3.175 Q 30,17.925 30,20 q 0,2.075 -0.7875,3.9 -0.7875,1.825 -2.1375,3.175 -1.35,1.35 -3.175,2.1375 Q 22.075,30 20,30 Z m 0,-2 q 3.35,0 5.675,-2.325 Q 28,23.35 28,20 28,16.65 25.675,14.325 23.35,12 20,12 16.65,12 14.325,14.325 12,16.65 12,20 12,23.35 14.325,25.675 16.65,28 20,28 Z m 0,-8 z"
      class="fill-primary" />
  </g>
  <g id="radio-checked-focused" transform="translate(160,40)">
    <circle cx="20" cy="20" r="20" class="fill-primary" opacity="0.1" />
    <path
      d="m 20,25 q 2.075,0 3.5375,-1.4625 Q 25,22.075 25,20 25,17.925 23.5375,16.4625 22.075,15 20,15 17.925,15 16.4625,16.4625 15,17.925 15,20 15,22.075 16.4625,23.5375 17.925,25 20,25 Z m 0,5 Q 17.925,30 16.1,29.2125 14.275,28.425 12.925,27.075 11.575,25.725 10.7875,23.9 10,22.075 10,20 10,17.925 10.7875,16.1 11.575,14.275 12.925,12.925 14.275,11.575 16.1,10.7875 17.925,10 20,10 q 2.075,0 3.9,0.7875 1.825,0.7875 3.175,2.1375 1.35,1.35 2.1375,3.175 Q 30,17.925 30,20 q 0,2.075 -0.7875,3.9 -0.7875,1.825 -2.1375,3.175 -1.35,1.35 -3.175,2.1375 Q 22.075,30 20,30 Z m 0,-2 q 3.35,0 5.675,-2.325 Q 28,23.35 28,20 28,16.65 25.675,14.325 23.35,12 20,12 16.65,12 14.325,14.325 12,16.65 12,20 12,23.35 14.325,25.675 16.65,28 20,28 Z m 0,-8 z"
      class="fill-primary" />
  </g>
</svg>