<svg height="160" width="200" viewBox="0 0 200 160" version="1.1" id="svg41" sodipodi:docname="GoHarder.svg"
  inkscape:version="1.3.2 (1:1.3.2+202311252150+091e20ef0f)"
  xmlns:inkscape="http://www.inkscape.org/namespaces/inkscape"
  xmlns:sodipodi="http://sodipodi.sourceforge.net/DTD/sodipodi-0.dtd" xmlns="http://www.w3.org/2000/svg"
  xmlns:svg="http://www.w3.org/2000/svg">
  <sodipodi:namedview id="namedview41" pagecolor="#ffffff" bordercolor="#666666" borderopacity="1.0"
    inkscape:showpageshadow="2" inkscape:pageopacity="0.0" inkscape:pagecheckerboard="0" inkscape:deskcolor="#d1d1d1"
    inkscape:zoom="30.435162" inkscape:cx="16.461223" inkscape:cy="18.087632" inkscape:window-width="2560"
    inkscape:window-height="1357" inkscape:window-x="0" inkscape:window-y="45" inkscape:window-maximized="1"
    inkscape:current-layer="svg41" />
  <defs id="defs1">
    <style id="style1">
      .fill-primary {
        fill: #95ccff;
      }

      .fill-on-primary {
        fill: #003353;
      }

      .fill-surface-container-highest {
        fill: #333538;
      }

      .fill-on-surface {
        fill: #e2e2e5;
      }

      .fill-on-surface-variant {
        fill: #c2c7cf;
      }

      .fill-outline {
        fill: #8c9198;
      }
    </style>
  </defs>
  <g id="checkbox-normal">
    <path d="m 9,13 q 0,-4 4,-4 h 14 q 4,0 4,4 v 14 q 0,4 -4,4 h -14 q -4,0 -4,-4 v -14 z" opacity="0" />
    <path d="m 11,13 q 0,-2 2,-2 h 14 q 2,0 2,2 v 14 q 0,2 -2,2 h -14 q -2,0 -2,-2 v -14 h 2 v 14 h 14 v -14 z"
      class="fill-on-surface-variant" />
  </g>
  <g id="checkbox-focused" transform="translate(0,40)">
    <path d="m 9,13 q 0,-4 4,-4 h 14 q 4,0 4,4 v 14 q 0,4 -4,4 h -14 q -4,0 -4,-4 v -14 z" class="fill-on-surface"
      opacity="0.1" />
    <path d="m 11,13 q 0,-2 2,-2 h 14 q 2,0 2,2 v 14 q 0,2 -2,2 h -14 q -2,0 -2,-2 v -14 h 2 v 14 h 14 v -14 z"
      class="fill-on-surface" />
  </g>
  <g id="checkbox-checked-normal" transform="translate(40,0)">
    <path d="m 9,13 q 0,-4 4,-4 h 14 q 4,0 4,4 v 14 q 0,4 -4,4 h -14 q -4,0 -4,-4 v -14 z" opacity="0" />
    <path d="m 11,13 q 0,-2 2,-2 h 14 q 2,0 2,2 v 14 q 0,2 -2,2 h -14 q -2,0 -2,-2 v -14 z" class="fill-primary" />
    <path d="m 18.6,24.2 7.05,-7.05 -1.4,-1.4 -5.65,5.65 -2.85,-2.85 -1.4,1.4 z" class="fill-on-primary" />
  </g>
  <g id="checkbox-checked-focused" transform="translate(40,40)">
    <path d="m 9,13 q 0,-4 4,-4 h 14 q 4,0 4,4 v 14 q 0,4 -4,4 h -14 q -4,0 -4,-4 v -14 z" class="fill-primary"
      opacity="0.1" />
    <path d="m 11,13 q 0,-2 2,-2 h 14 q 2,0 2,2 v 14 q 0,2 -2,2 h -14 q -2,0 -2,-2 v -14 z" class="fill-primary" />
    <path d="m 18.6,24.2 7.05,-7.05 -1.4,-1.4 -5.65,5.65 -2.85,-2.85 -1.4,1.4 z" class="fill-on-primary" />
  </g>
  <g id="checkbox-tristate-normal" transform="translate(80,0)">
    <path d="m 9,13 q 0,-4 4,-4 h 14 q 4,0 4,4 v 14 q 0,4 -4,4 h -14 q -4,0 -4,-4 v -14 z" opacity="0" />
    <path d="m 11,13 q 0,-2 2,-2 h 14 q 2,0 2,2 v 14 q 0,2 -2,2 h -14 q -2,0 -2,-2 v -14 z" class="fill-primary" />
    <path d="M 15,21 h 10 v -2 h -10 Z" class="fill-on-primary" />
  </g>
  <g id="checkbox-tristate-focused" transform="translate(80,40)">
    <path d="m 9,13 q 0,-4 4,-4 h 14 q 4,0 4,4 v 14 q 0,4 -4,4 h -14 q -4,0 -4,-4 v -14 z" class="fill-primary"
      opacity="0.1" />
    <path d="m 11,13 q 0,-2 2,-2 h 14 q 2,0 2,2 v 14 q 0,2 -2,2 h -14 q -2,0 -2,-2 v -14 z" class="fill-primary" />
    <path d="M 15,21 h 10 v -2 h -10 Z" class="fill-on-primary" />
  </g>

  <g id="radio-normal" transform="translate(120,0)">
    <circle cx="20" cy="20" r="11" opacity="0" />
    <path
      d="M 20,30 Q 17.925,30 16.1,29.2125 14.275,28.425 12.925,27.075 11.575,25.725 10.7875,23.9 10,22.075 10,20 10,17.925 10.7875,16.1 11.575,14.275 12.925,12.925 14.275,11.575 16.1,10.7875 17.925,10 20,10 q 2.075,0 3.9,0.7875 1.825,0.7875 3.175,2.1375 1.35,1.35 2.1375,3.175 Q 30,17.925 30,20 q 0,2.075 -0.7875,3.9 -0.7875,1.825 -2.1375,3.175 -1.35,1.35 -3.175,2.1375 Q 22.075,30 20,30 Z m 0,-2 q 3.35,0 5.675,-2.325 Q 28,23.35 28,20 28,16.65 25.675,14.325 23.35,12 20,12 16.65,12 14.325,14.325 12,16.65 12,20 12,23.35 14.325,25.675 16.65,28 20,28 Z m 0,-8 z"
      class="fill-on-surface-variant" />
  </g>
  <g id="radio-focused" transform="translate(120,40)">
    <circle cx="20" cy="20" r="11" class="fill-on-surface" opacity="0.1" />
    <path
      d="M 20,30 Q 17.925,30 16.1,29.2125 14.275,28.425 12.925,27.075 11.575,25.725 10.7875,23.9 10,22.075 10,20 10,17.925 10.7875,16.1 11.575,14.275 12.925,12.925 14.275,11.575 16.1,10.7875 17.925,10 20,10 q 2.075,0 3.9,0.7875 1.825,0.7875 3.175,2.1375 1.35,1.35 2.1375,3.175 Q 30,17.925 30,20 q 0,2.075 -0.7875,3.9 -0.7875,1.825 -2.1375,3.175 -1.35,1.35 -3.175,2.1375 Q 22.075,30 20,30 Z m 0,-2 q 3.35,0 5.675,-2.325 Q 28,23.35 28,20 28,16.65 25.675,14.325 23.35,12 20,12 16.65,12 14.325,14.325 12,16.65 12,20 12,23.35 14.325,25.675 16.65,28 20,28 Z m 0,-8 z"
      class="fill-on-surface" />
  </g>
  <g id="radio-checked-normal" transform="translate(160,0)">
    <circle cx="20" cy="20" r="11" opacity="0" />
    <path
      d="m 20,25 q 2.075,0 3.5375,-1.4625 Q 25,22.075 25,20 25,17.925 23.5375,16.4625 22.075,15 20,15 17.925,15 16.4625,16.4625 15,17.925 15,20 15,22.075 16.4625,23.5375 17.925,25 20,25 Z m 0,5 Q 17.925,30 16.1,29.2125 14.275,28.425 12.925,27.075 11.575,25.725 10.7875,23.9 10,22.075 10,20 10,17.925 10.7875,16.1 11.575,14.275 12.925,12.925 14.275,11.575 16.1,10.7875 17.925,10 20,10 q 2.075,0 3.9,0.7875 1.825,0.7875 3.175,2.1375 1.35,1.35 2.1375,3.175 Q 30,17.925 30,20 q 0,2.075 -0.7875,3.9 -0.7875,1.825 -2.1375,3.175 -1.35,1.35 -3.175,2.1375 Q 22.075,30 20,30 Z m 0,-2 q 3.35,0 5.675,-2.325 Q 28,23.35 28,20 28,16.65 25.675,14.325 23.35,12 20,12 16.65,12 14.325,14.325 12,16.65 12,20 12,23.35 14.325,25.675 16.65,28 20,28 Z m 0,-8 z"
      class="fill-primary" />
  </g>
  <g id="radio-checked-focused" transform="translate(160,40)">
    <circle cx="20" cy="20" r="11" class="fill-primary" opacity="0.1" />
    <path
      d="m 20,25 q 2.075,0 3.5375,-1.4625 Q 25,22.075 25,20 25,17.925 23.5375,16.4625 22.075,15 20,15 17.925,15 16.4625,16.4625 15,17.925 15,20 15,22.075 16.4625,23.5375 17.925,25 20,25 Z m 0,5 Q 17.925,30 16.1,29.2125 14.275,28.425 12.925,27.075 11.575,25.725 10.7875,23.9 10,22.075 10,20 10,17.925 10.7875,16.1 11.575,14.275 12.925,12.925 14.275,11.575 16.1,10.7875 17.925,10 20,10 q 2.075,0 3.9,0.7875 1.825,0.7875 3.175,2.1375 1.35,1.35 2.1375,3.175 Q 30,17.925 30,20 q 0,2.075 -0.7875,3.9 -0.7875,1.825 -2.1375,3.175 -1.35,1.35 -3.175,2.1375 Q 22.075,30 20,30 Z m 0,-2 q 3.35,0 5.675,-2.325 Q 28,23.35 28,20 28,16.65 25.675,14.325 23.35,12 20,12 16.65,12 14.325,14.325 12,16.65 12,20 12,23.35 14.325,25.675 16.65,28 20,28 Z m 0,-8 z"
      class="fill-primary" />
  </g>
  <g id="lineedit-normal-topleft" transform="translate(0,80)">
    <rect width="4" height="4" x="0" y="0" opacity="0" />
    <path d="m 1,4 q 0,-3 3,-3 v 3 z" class="fill-surface-container-highest" opacity="0" />
    <path d="m 0.5,4 q 0,-3.5 3.5,-3.5 v 1 q -2.5,0 -2.5,2.5 z" class="fill-outline" />
  </g>
  <g id="lineedit-normal-top" transform="translate(4,80)">
    <rect width="32" height="4" x="0" y="0" opacity="0" />
    <rect width="32" height="3" x="0" y="1" class="fill-surface-container-highest" opacity="0" />
    <rect width="32" height="1" x="0" y="0.5" class="fill-outline" />
  </g>
  <g id="lineedit-normal-topright" transform="translate(36,80)">
    <rect width="4" height="4" x="0" y="0" opacity="0" />
    <path d="m 3,4 q 0,-3 -3,-3 v 3 z" class="fill-surface-container-highest" opacity="0" />
    <path d="m 3.5,4 q 0,-3.5 -3.5,-3.5 v 1 q 2.5,0 2.5,2.5 z" class="fill-outline" />
  </g>
  <g id="lineedit-normal-left" transform="translate(0,84)">
    <rect width="4" height="32" x="0" y="0" opacity="0" />
    <rect width="3" height="32" x="1" y="0" class="fill-surface-container-highest" opacity="0" />
    <rect width="1" height="32" x="0.5" y="0" class="fill-outline" />
  </g>
  <rect id="lineedit-normal" width="32" height="32" x="4" y="84" class="fill-surface-container-highest" opacity="0" />
  <g id="lineedit-normal-right" transform="translate(36,84)">
    <rect width="4" height="32" x="0" y="0" opacity="0" />
    <rect width="3" height="32" x="0" y="0" class="fill-surface-container-highest" opacity="0" />
    <rect width="1" height="32" x="2.5" y="0" class="fill-outline" />
  </g>
  <g id="lineedit-normal-bottomleft" transform="translate(0,116)">
    <rect width="4" height="4" x="0" y="0" opacity="0" />
    <path d="m 1,0 q 0,3 3,3 v -3 z" class="fill-surface-container-highest" opacity="0" />
    <path d="m 0.5,0 q 0,3.5 3.5,3.5 v -1 q -2.5,0 -2.5,-2.5 z" class="fill-outline" />
  </g>
  <g id="lineedit-normal-bottom" transform="translate(4,116)">
    <rect width="32" height="4" x="0" y="0" opacity="0" />
    <rect width="32" height="3" x="0" y="0" class="fill-surface-container-highest" opacity="0" />
    <rect width="32" height="1" x="0" y="2.5" class="fill-outline" />
  </g>
  <g id="lineedit-normal-bottomright" transform="translate(36,116)">
    <rect width="4" height="4" x="0" y="0" opacity="0" />
    <path d="m 3,0 q 0,3 -3,3 v -3 z" class="fill-surface-container-highest" opacity="0" />
    <path d="m 3.5,0 q 0,3.5 -3.5,3.5 v -1 q 2.5,0 2.5,-2.5 z" class="fill-outline" />
  </g>
  <g id="lineedit-focused-topleft" transform="translate(0,120)">
    <path d="m 1,4 q 0,-3 3,-3 v 3 z" class="fill-surface-container-highest" opacity="0" />
    <path d="m 0,4 q 0,-4 4,-4 v 2 q -2,0 -2,2 z" class="fill-primary" />
  </g>
  <g id="lineedit-focused-top" transform="translate(4,120)">
    <rect width="32" height="3" x="0" y="1" class="fill-surface-container-highest" opacity="0" />
    <rect width="32" height="2" x="0" y="00" class="fill-primary" />
  </g>
  <g id="lineedit-focused-topright" transform="translate(36,120)">
    <path d="m 3,4 q 0,-3 -3,-3 v 3 z" class="fill-surface-container-highest" opacity="0" />
    <path d="m 4,4 q 0,-4 -4,-4 v 2 q 2,0 2,2 z" class="fill-primary" />
  </g>
  <g id="lineedit-focused-left" transform="translate(0,124)">
    <rect width="3" height="32" x="1" y="0" class="fill-surface-container-highest" opacity="0" />
    <rect width="2" height="32" x="0" y="0" class="fill-primary" />
  </g>
  <rect id="lineedit-focused" width="32" height="32" x="4" y="124" class="fill-surface-container-highest" opacity="0" />
  <g id="lineedit-focused-right" transform="translate(36,124)">
    <rect width="3" height="32" x="0" y="0" class="fill-surface-container-highest" opacity="0" />
    <rect width="2" height="32" x="2" y="0" class="fill-primary" />
  </g>
  <g id="lineedit-focused-bottomleft" transform="translate(0,156)">
    <path d="m 1,0 q 0,3 3,3 v -3 z" class="fill-surface-container-highest" opacity="0" />
    <path d="m 0,0 q 0,4 4,4 v -2 q -2,0 -2,-2 z" class="fill-primary" />
  </g>
  <g id="lineedit-focused-bottom" transform="translate(4,156)">
    <rect width="32" height="3" x="0" y="0" class="fill-surface-container-highest" opacity="0" />
    <rect width="32" height="2" x="0" y="2" class="fill-primary" />
  </g>
  <g id="lineedit-focused-bottomright" transform="translate(36,156)">
    <path d="m 3,0 q 0,3 -3,3 v -3 z" class="fill-surface-container-highest" opacity="0" />
    <path d="m 4,0 q 0,4 -4,4 v -2 q 2,0 2,-2 z" class="fill-primary" />
  </g>
</svg>