<svg width="165" height="208" viewBox="0 0 165 208" xmlns="http://www.w3.org/2000/svg">
  <defs>
    <!-- MARK: Style -->
    <style>
      .pri {
        fill: #95ccff;
      }

      .on-pri {
        fill: #003353;
      }

      .sec {
        fill: #b9c8da;
      }

      .sec-cont {
        fill: #3a4857;
      }

      .on-sec-cont {
        fill: #d5e4f6;
      }

      .surf {
        fill: #121416
      }

      .surf-cont {
        fill: #1e2022;
      }

      .surf-cont-high {
        fill: #282a2d;
      }

      .surf-cont-highest {
        fill: #333538;
      }

      .on-surf {
        fill: #e2e2e5;
      }

      .on-surf-var {
        fill: #c2c7cf;
      }

      .outline {
        fill: #8c9198;
      }

      .outline-var {
        fill: #42474e
      }

      .surf-var {
        fill: #42474e;
      }

      .disabled-back {
        fill: #e2e2e5;
        opacity: 0.12;
      }

      .disabled-text {
        fill: #e2e2e5;
        opacity: 0.38;
      }
    </style>
    <!-- MARK: Shapes -->
    <path id="r-8-tl" d="M 0,8 q 0,-8 8,-8 v 8 Z" />
    <rect id="sq-8-tl" width="8" height="8" />
    <rect id="sq-8-t" width="16" height="8" x="8" />
    <path id="r-8-tr" d="M 32,8 q 0,-8 -8,-8 v 8 Z" />
    <rect id="sq-8-tr" width="8" height="8" x="24" />
    <rect id="sq-8-l" width="8" height="16" y="8" />
    <rect id="sq-8-c" width="16" height="16" x="8" y="8" />
    <rect id="sq-8-r" width="8" height="16" x="24" y="8" />
    <path id="r-8-bl" d="M 0,24 q 0,8 8,8 v -8 Z" />
    <rect id="sq-8-bl" width="8" height="8" y="24" />
    <rect id="sq-8-b" width="16" height="8" x="8" y="24" />
    <path id="r-8-br" d="M 32,24 q 0,8 -8,8 v -8 Z" />
    <rect id="sq-8-br" width="8" height="8" x="24" y="24" />
    <!-- MARK: Icons -->
    <rect id="icon-box" width="10" height="10" opacity="0" />
    <path id="add" d="M 4.286,5.714 H 0 V 4.286 H 4.286 V 0 H 5.714 V 4.286 H 10 V 5.714 H 5.714 V 10 H 4.286 Z" />
    <path id="down" d="M 5,7.5 0,2.5 h 10 z" />
    <path id="left" d="M 6.917,10 1.917,5 6.917,0 8.084,1.166 l -3.834,3.834 3.834,3.834 z" />
    <path id="minus" d="M -0.002,5.715 V 4.286 H 10.002 v 1.429 z" />
    <path id="right" d="M 5.75,5 1.917,1.167 3.083,0 l 5,5 -5,5 -1.167,-1.167 z" />
    <path id="up" d="m 0,7.5 5,-5 5,5 z" />
    <path id="maximize" d="M 0,9 V 1 H 10 V 9 Z M 1,8 H 9 V 3 H 1 Z" />
    <path id="radio-unchk"
      d="M 12,22 Q 9.925,22 8.1,21.213 6.275,20.425 4.925,19.075 3.575,17.725 2.788,15.9 2,14.075 2,12 2,9.925 2.788,8.1 3.575,6.275 4.925,4.925 6.275,3.575 8.1,2.788 9.925,2 12,2 14.075,2 15.9,2.788 17.725,3.575 19.075,4.925 20.425,6.275 21.213,8.1 22,9.925 22,12 q 0,2.075 -0.788,3.9 -0.788,1.825 -2.138,3.175 -1.35,1.35 -3.175,2.138 Q 14.075,22 12,22 Z m 0,-2 q 3.35,0 5.675,-2.325 Q 20,15.35 20,12 20,8.65 17.675,6.325 15.35,4 12,4 8.65,4 6.325,6.325 4,8.65 4,12 4,15.35 6.325,17.675 8.65,20 12,20 Z m 0,-8 z" />
    <path id="radio-chk"
      d="m 12,17 q 2.075,0 3.538,-1.463 Q 17,14.075 17,12 17,9.925 15.538,8.463 14.075,7 12,7 9.925,7 8.463,8.463 7,9.925 7,12 7,14.075 8.463,15.538 9.925,17 12,17 Z m 0,5 Q 9.925,22 8.1,21.213 6.275,20.425 4.925,19.075 3.575,17.725 2.788,15.9 2,14.075 2,12 2,9.925 2.788,8.1 3.575,6.275 4.925,4.925 6.275,3.575 8.1,2.788 9.925,2 12,2 14.075,2 15.9,2.788 17.725,3.575 19.075,4.925 20.425,6.275 21.213,8.1 22,9.925 22,12 q 0,2.075 -0.788,3.9 -0.788,1.825 -2.138,3.175 -1.35,1.35 -3.175,2.138 Q 14.075,22 12,22 Z m 0,-2 q 3.35,0 5.675,-2.325 Q 20,15.35 20,12 20,8.65 17.675,6.325 15.35,4 12,4 8.65,4 6.325,6.325 4,8.65 4,12 4,15.35 6.325,17.675 8.65,20 12,20 Z m 0,-8 z" />
    <path id="chk-box-frame"
      d="M 3,5 q 0,-2 2,-2 h 14 q 2,0, 2,2 v 14 q 0,2 -2,2 h -14 q -2,0 -2,-2 v -14 h 2 v 14 h 14 v -14 h -14 v 14 h -2 Z" />
    <path id="chk-box-back" d="M 0,5 q 0,-5 5,-5 h 14 q 5,0 5,5 v 14 q 0,5 -5,5 h -14 q -5,0 -5,-5 Z" />
    <path id="chk-box-chk" d="m 10.6,16.2 7.05,-7.05 -1.4,-1.4 -5.65,5.65 -2.85,-2.85 -1.4,1.4 z" />
    <path id="chk-box-box" d="M 3,5 q 0,-2 2,-2 h 14 q 2,0, 2,2 v 14 q 0,2 -2,2 h -14 q -2,0 -2,-2 Z" />
    <path id="chk-box-dash" d="M 7,13 H 17 V 11 H 7 Z " />
    <path id="sizegrip"
      d="M 2,10 h 2 v 2 h -2 v -2 z m 3,0 h 2 v 2 h -2 v -2 z m 3,0 h 2 v 2 h -2 v -2 z m -3,-3 h 2 v 2 h -2 v -2 z m 3,0 h 2 v 2 h -2 v -2 z m 0,-3 h 2 v 2 h -2 v -2 z" />
  </defs>
  <g id="button-group">
    <g id="button-normal-group">
      <use id="button-normal-topleft" href="#r-8-tl" class="surf-cont-highest" />
      <use id="button-normal-top" href="#sq-8-t" class="surf-cont-highest" />
      <use id="button-normal-topright" href="#r-8-tr" class="surf-cont-highest" />
      <use id="button-normal-left" href="#sq-8-l" class="surf-cont-highest" />
      <use id="button-normal" href="#sq-8-c" class="surf-cont-highest" />
      <use id="button-normal-right" href="#sq-8-r" class="surf-cont-highest" />
      <use id="button-normal-bottomleft" href="#r-8-bl" class="surf-cont-highest" />
      <use id="button-normal-bottom" href="#sq-8-b" class="surf-cont-highest" />
      <use id="button-normal-bottomright" href="#r-8-br" class="surf-cont-highest" />
      <g id="ar-1-down-normal" transform="translate(3)">
        <use href="#icon-box" />
        <use href="#down" class="pri" />
      </g>
    </g>
    <g id="button-focused-group" transform="translate(32)">
      <g id="button-focused-topleft">
        <use href="#button-normal-topleft" />
        <use href="#r-8-tl" class="pri" opacity="0.08" />
      </g>
      <g id="button-focused-top">
        <use href="#button-normal-top" />
        <use href="#sq-8-t" class="pri" opacity="0.08" />
      </g>
      <g id="button-focused-topright">
        <use href="#button-normal-topright" />
        <use href="#r-8-tr" class="pri" opacity="0.08" />
      </g>
      <g id="button-focused-left">
        <use href="#button-normal-left" />
        <use href="#sq-8-l" class="pri" opacity="0.08" />
      </g>
      <g id="button-focused">
        <use href="#button-normal" />
        <use href="#sq-8-c" class="pri" opacity="0.08" />
      </g>
      <g id="button-focused-right">
        <use href="#button-normal-right" />
        <use href="#sq-8-r" class="pri" opacity="0.08" />
      </g>
      <g id="button-focused-bottomleft">
        <use href="#button-normal-bottomleft" />
        <use href="#r-8-bl" class="pri" opacity="0.08" />
      </g>
      <g id="button-focused-bottom">
        <use href="#button-normal-bottom" />
        <use href="#sq-8-b" class="pri" opacity="0.08" />
      </g>
      <g id="button-focused-bottomright">
        <use href="#button-normal-bottomright" />
        <use href="#r-8-br" class="pri" opacity="0.08" />
      </g>
      <g id="ar-1-down-focused" transform="translate(3)">
        <use href="#icon-box" />
        <use href="#down" class="pri" />
      </g>
    </g>
    <g id="button-pressed-group" transform="translate(64)">
      <g id="button-pressed-topleft">
        <use href="#button-normal-topleft" />
        <use href="#r-8-tl" class="pri" opacity="0.1" />
      </g>
      <g id="button-pressed-top">
        <use href="#button-normal-top" />
        <use href="#sq-8-t" class="pri" opacity="0.1" />
      </g>
      <g id="button-pressed-topright">
        <use href="#button-normal-topright" />
        <use href="#r-8-tr" class="pri" opacity="0.1" />
      </g>
      <g id="button-pressed-left">
        <use href="#button-normal-left" />
        <use href="#sq-8-l" class="pri" opacity="0.1" />
      </g>
      <g id="button-pressed">
        <use href="#button-normal" />
        <use href="#sq-8-c" class="pri" opacity="0.1" />
      </g>
      <g id="button-pressed-right">
        <use href="#button-normal-right" />
        <use href="#sq-8-r" class="pri" opacity="0.1" />
      </g>
      <g id="button-pressed-bottomleft">
        <use href="#button-normal-bottomleft" />
        <use href="#r-8-bl" class="pri" opacity="0.1" />
      </g>
      <g id="button-pressed-bottom">
        <use href="#button-normal-bottom" />
        <use href="#sq-8-b" class="pri" opacity="0.1" />
      </g>
      <g id="button-pressed-bottomright">
        <use href="#button-normal-bottomright" />
        <use href="#r-8-br" class="pri" opacity="0.1" />
      </g>
      <g id="ar-1-down-pressed" transform="translate(3)">
        <use href="#icon-box" />
        <use href="#down" class="pri" />
      </g>
    </g>
    <g id="button-toggled-group" transform="translate(96)">
      <use id="button-toggled-topleft" href="#r-8-tl" class="pri" />
      <use id="button-toggled-top" href="#sq-8-t" class="pri" />
      <use id="button-toggled-topright" href="#r-8-tr" class="pri" />
      <use id="button-toggled-left" href="#sq-8-l" class="pri" />
      <use id="button-toggled" href="#sq-8-c" class="pri" />
      <use id="button-toggled-right" href="#sq-8-r" class="pri" />
      <use id="button-toggled-bottomleft" href="#r-8-bl" class="pri" />
      <use id="button-toggled-bottom" href="#sq-8-b" class="pri" />
      <use id="button-toggled-bottomright" href="#r-8-br" class="pri" />
      <g id="ar-1-down-disabled" transform="translate(3)">
        <use href="#icon-box" />
        <use href="#down" class="disabled-text" />
      </g>
    </g>
    <rect id="button-default-indicator" width="5" height="5" opacity="0" />
  </g>
  <g id="tool-button-group" transform="translate(0,32)">
    <g id="tool-button-normal-group">
      <use id="tool-button-normal-topleft" href="#r-8-tl" class="surf-cont-highest" />
      <use id="tool-button-normal-top" href="#sq-8-t" class="surf-cont-highest" />
      <use id="tool-button-normal-topright" href="#r-8-tr" class="surf-cont-highest" />
      <use id="tool-button-normal-left" href="#sq-8-l" class="surf-cont-highest" />
      <use id="tool-button-normal" href="#sq-8-c" class="surf-cont-highest" />
      <use id="tool-button-normal-right" href="#sq-8-r" class="surf-cont-highest" />
      <use id="tool-button-normal-bottomleft" href="#r-8-bl" class="surf-cont-highest" />
      <use id="tool-button-normal-bottom" href="#sq-8-b" class="surf-cont-highest" />
      <use id="tool-button-normal-bottomright" href="#r-8-br" class="surf-cont-highest" />
      <g id="arrow-up-normal">
        <use href="#icon-box" />
        <use href="#up" class="on-surf-var" />
      </g>
      <g id="arrow-down-normal" transform="translate(6,0)">
        <use href="#icon-box" />
        <use href="#down" class="on-surf-var" />
      </g>
      <g id="arrow-left-normal" transform="translate(9.5,3.5)">
        <use href="#icon-box" />
        <use href="#left" class="on-surf-var" />
      </g>
      <g id="arrow-right-normal" transform="translate(16,3.5)">
        <use href="#icon-box" />
        <use href="#right" class="on-surf-var" />
      </g>
      <g id="arrow-add-normal" transform="translate(2,8.5)">
        <use href="#icon-box" />
        <use href="#add" class="on-surf-var" />
      </g>
      <g id="arrow-minus-normal" transform="translate(8,10.5)">
        <use href="#icon-box" />
        <use href="#minus" class="on-surf-var" />
      </g>
    </g>
    <g id="tool-button-focused-group" transform="translate(32)">
      <g id="tool-button-focused-topleft">
        <use href="#button-normal-topleft" />
        <use href="#r-8-tl" class="on-sec-cont" opacity="0.08" />
      </g>
      <g id="tool-button-focused-top">
        <use href="#button-normal-top" />
        <use href="#sq-8-t" class="on-sec-cont" opacity="0.08" />
      </g>
      <g id="tool-button-focused-topright">
        <use href="#button-normal-topright" />
        <use href="#r-8-tr" class="on-sec-cont" opacity="0.08" />
      </g>
      <g id="tool-button-focused-left">
        <use href="#button-normal-left" />
        <use href="#sq-8-l" class="on-sec-cont" opacity="0.08" />
      </g>
      <g id="tool-button-focused">
        <use href="#button-normal" />
        <use href="#sq-8-c" class="on-sec-cont" opacity="0.08" />
      </g>
      <g id="tool-button-focused-right">
        <use href="#button-normal-right" />
        <use href="#sq-8-r" class="on-sec-cont" opacity="0.08" />
      </g>
      <g id="tool-button-focused-bottomleft">
        <use href="#button-normal-bottomleft" />
        <use href="#r-8-bl" class="on-sec-cont" opacity="0.08" />
      </g>
      <g id="tool-button-focused-bottom">
        <use href="#button-normal-bottom" />
        <use href="#sq-8-b" class="on-sec-cont" opacity="0.08" />
      </g>
      <g id="tool-button-focused-bottomright">
        <use href="#button-normal-bottomright" />
        <use href="#r-8-br" class="on-sec-cont" opacity="0.08" />
      </g>
      <g id="arrow-up-focused">
        <use href="#icon-box" />
        <use href="#up" class="on-surf" />
      </g>
      <g id="arrow-down-focused" transform="translate(6)">
        <use href="#icon-box" />
        <use href="#down" class="on-surf" />
      </g>
      <g id="arrow-left-focused" transform="translate(9.5,3.5)">
        <use href="#icon-box" />
        <use href="#left" class="on-surf" />
      </g>
      <g id="arrow-right-focused" transform="translate(16,3.5)">
        <use href="#icon-box" />
        <use href="#right" class="on-surf" />
      </g>
      <g id="arrow-add-focused" transform="translate(2,8.5)">
        <use href="#icon-box" />
        <use href="#add" class="on-surf" />
      </g>
      <g id="arrow-minus-focused" transform="translate(8,10.5)">
        <use href="#icon-box" />
        <use href="#minus" class="on-surf" />
      </g>
    </g>
    <g id="tool-button-pressed-group" transform="translate(64)">
      <g id="tool-button-pressed-topleft">
        <use href="#button-normal-topleft" />
        <use href="#r-8-tl" class="on-sec-cont" opacity="0.1" />
      </g>
      <g id="tool-button-pressed-top">
        <use href="#button-normal-top" />
        <use href="#sq-8-t" class="on-sec-cont" opacity="0.1" />
      </g>
      <g id="tool-button-pressed-topright">
        <use href="#button-normal-topright" />
        <use href="#r-8-tr" class="on-sec-cont" opacity="0.1" />
      </g>
      <g id="tool-button-pressed-left">
        <use href="#button-normal-left" />
        <use href="#sq-8-l" class="on-sec-cont" opacity="0.1" />
      </g>
      <g id="tool-button-pressed">
        <use href="#button-normal" />
        <use href="#sq-8-c" class="on-sec-cont" opacity="0.1" />
      </g>
      <g id="tool-button-pressed-right">
        <use href="#button-normal-right" />
        <use href="#sq-8-r" class="on-sec-cont" opacity="0.1" />
      </g>
      <g id="tool-button-pressed-bottomleft">
        <use href="#button-normal-bottomleft" />
        <use href="#r-8-bl" class="on-sec-cont" opacity="0.1" />
      </g>
      <g id="tool-button-pressed-bottom">
        <use href="#button-normal-bottom" />
        <use href="#sq-8-b" class="on-sec-cont" opacity="0.1" />
      </g>
      <g id="tool-button-pressed-bottomright">
        <use href="#button-normal-bottomright" />
        <use href="#r-8-br" class="on-sec-cont" opacity="0.1" />
      </g>
      <g id="arrow-up-pressed">
        <use href="#icon-box" />
        <use href="#up" class="on-sec-cont" />
      </g>
      <g id="arrow-down-pressed" transform="translate(6)">
        <use href="#icon-box" />
        <use href="#down" class="on-sec-cont" />
      </g>
      <g id="arrow-left-pressed" transform="translate(9.5,3.5)">
        <use href="#icon-box" />
        <use href="#left" class="on-sec-cont" />
      </g>
      <g id="arrow-right-pressed" transform="translate(16,3.5)">
        <use href="#icon-box" />
        <use href="#right" class="on-sec-cont" />
      </g>
      <g id="arrow-add-pressed" transform="translate(2,8.5)">
        <use href="#icon-box" />
        <use href="#add" class="on-sec-cont" />
      </g>
      <g id="arrow-minus-pressed" transform="translate(8,10.5)">
        <use href="#icon-box" />
        <use href="#minus" class="on-sec-cont" />
      </g>
    </g>
    <g id="tool-button-toggled-group" transform="translate(96)">
      <use id="tool-button-toggled-topleft" href="#r-8-tl" class="sec-cont" />
      <use id="tool-button-toggled-top" href="#sq-8-t" class="sec-cont" />
      <use id="tool-button-toggled-topright" href="#r-8-tr" class="sec-cont" />
      <use id="tool-button-toggled-left" href="#sq-8-l" class="sec-cont" />
      <use id="tool-button-toggled" href="#sq-8-c" class="sec-cont" />
      <use id="tool-button-toggled-right" href="#sq-8-r" class="sec-cont" />
      <use id="tool-button-toggled-bottomleft" href="#r-8-bl" class="sec-cont" />
      <use id="tool-button-toggled-bottom" href="#sq-8-b" class="sec-cont" />
      <use id="tool-button-toggled-bottomright" href="#r-8-br" class="sec-cont" />
      <g id="arrow-up-disabled">
        <use href="#icon-box" />
        <use href="#up" class="disabled-text" />
      </g>
      <g id="arrow-down-disabled" transform="translate(6)">
        <use href="#icon-box" />
        <use href="#down" class="disabled-text" />
      </g>
      <g id="arrow-left-disabled" transform="translate(9.5,3.5)">
        <use href="#icon-box" />
        <use href="#left" class="disabled-text" />
      </g>
      <g id="arrow-right-disabled" transform="translate(16,3.5)">
        <use href="#icon-box" />
        <use href="#right" class="disabled-text" />
      </g>
      <g id="arrow-add-disabled" transform="translate(2,8.5)">
        <use href="#icon-box" />
        <use href="#add" class="disabled-text" />
      </g>
      <g id="arrow-minus-disabled" transform="translate(8,10.5)">
        <use href="#icon-box" />
        <use href="#minus" class="disabled-text" />
      </g>
    </g>
  </g>
  <g id="toolbar-button-group" transform="translate(0,60)">
    <g id="toolbar-button-normal-group">
      <g id="toolbar-button-normal-topleft">
        <rect id="toolbar-button-normal-topleft-1" width="8" height="12" opacity="0" />
        <path id="toolbar-button-normal-topleft-2" d="M 0,12 q 0,-8 8,-8 v 1 q -7,0 -7,7 h -1 z" class="outline" />
      </g>
      <g id="toolbar-button-normal-top">
        <rect id="toolbar-button-normal-top-1" width="16" height="12" x="8" opacity="0" />
        <rect id="toolbar-button-normal-top-2" width="16" height="1" x="8" y="4" class="outline" />
      </g>
      <g id="toolbar-button-normal-topright">
        <rect id="toolbar-button-normal-topright-1" width="8" height="12" x="24" opacity="0" />
        <path id="toolbar-button-normal-topright-2" d="M 32,12 q 0,-8 -8,-8 v 1 q 7,0 7,7 h 1 z" class="outline" />
      </g>
      <g id="toolbar-button-normal-left">
        <use href="#sq-8-l" y="4" opacity="0" />
        <rect id="toolbar-button-normal-left-1" width="1" height="16" x="0" y="12" class="outline" />
      </g>
      <use id="toolbar-button-normal" href="#sq-8-c" y="4" opacity="0" />
      <g id="toolbar-button-normal-right">
        <use href="#sq-8-r" y="4" opacity="0" />
        <rect id="toolbar-button-normal-right-1" width="1" height="16" x="31" y="12" class="outline" />
      </g>
      <g id="toolbar-button-normal-bottomleft">
        <rect id="toolbar-button-normal-bottomleft-1" width="8" height="12" x="0" y="28" opacity="0" />
        <path id="toolbar-button-normal-bottomleft-2" d="M 0,28 q 0,8 8,8 v -1 q -7,0 -7,-7 h -1 z" class="outline" />
      </g>
      <g id="toolbar-button-normal-bottom">
        <rect id="toolbar-button-normal-bottom-1" width="16" height="12" x="8" y="28" opacity="0" />
        <rect id="toolbar-button-normal-bottom-2" width="16" height="1" x="8" y="35" class="outline" />
      </g>
      <g id="toolbar-button-normal-bottomright">
        <rect id="toolbar-button-normal-bottomright-1" width="8" height="12" x="24" y="28" opacity="0" />
        <path id="toolbar-button-normal-bottomright-2" d="M 32,28 q 0,8 -8,8 v -1 q 7,0 7,-7 h 1 z" class="outline" />
      </g>
    </g>
    <g id="toolbar-button-focused-group" transform="translate(32)">
      <g id="toolbar-button-focused-topleft">
        <use href="#toolbar-button-normal-topleft" />
        <use href="#r-8-tl" y="4" class="pri" opacity="0.08" />
      </g>
      <g id="toolbar-button-focused-top">
        <use href="#toolbar-button-normal-top" />
        <use href="#sq-8-t" y="4" class="pri" opacity="0.08" />
      </g>
      <g id="toolbar-button-focused-topright">
        <use href="#toolbar-button-normal-topright" />
        <use href="#r-8-tr" y="4" class="pri" opacity="0.08" />
      </g>
      <g id="toolbar-button-focused-left">
        <use href="#toolbar-button-normal-left" />
        <use href="#sq-8-l" y="4" class="pri" opacity="0.08" />
      </g>
      <g id="toolbar-button-focused">
        <use href="#toolbar-button-normal" />
        <use href="#sq-8-c" y="4" class="pri" opacity="0.08" />
      </g>
      <g id="toolbar-button-focused-right">
        <use href="#toolbar-button-normal-right" />
        <use href="#sq-8-r" y="4" class="pri" opacity="0.08" />
      </g>
      <g id="toolbar-button-focused-bottomleft">
        <use href="#toolbar-button-normal-bottomleft" />
        <use href="#r-8-bl" y="4" class="pri" opacity="0.08" />
      </g>
      <g id="toolbar-button-focused-bottom">
        <use href="#toolbar-button-normal-bottom" />
        <use href="#sq-8-b" y="4" class="pri" opacity="0.08" />
      </g>
      <g id="toolbar-button-focused-bottomright">
        <use href="#toolbar-button-normal-bottomright" />
        <use href="#r-8-br" y="4" class="pri" opacity="0.08" />
      </g>
    </g>
    <g id="toolbar-button-pressed-group" transform="translate(64)">
      <g id="toolbar-button-pressed-topleft">
        <use href="#toolbar-button-normal-topleft" />
        <use href="#r-8-tl" y="4" class="pri" opacity="0.1" />
      </g>
      <g id="toolbar-button-pressed-top">
        <use href="#toolbar-button-normal-top" />
        <use href="#sq-8-t" y="4" class="pri" opacity="0.1" />
      </g>
      <g id="toolbar-button-pressed-topright">
        <use href="#toolbar-button-normal-topright" />
        <use href="#r-8-tr" y="4" class="pri" opacity="0.1" />
      </g>
      <g id="toolbar-button-pressed-left">
        <use href="#toolbar-button-normal-left" />
        <use href="#sq-8-l" y="4" class="pri" opacity="0.1" />
      </g>
      <g id="toolbar-button-pressed">
        <use href="#toolbar-button-normal" />
        <use href="#sq-8-c" y="4" class="pri" opacity="0.1" />
      </g>
      <g id="toolbar-button-pressed-right">
        <use href="#toolbar-button-normal-right" />
        <use href="#sq-8-r" y="4" class="pri" opacity="0.1" />
      </g>
      <g id="toolbar-button-pressed-bottomleft">
        <use href="#toolbar-button-normal-bottomleft" />
        <use href="#r-8-bl" y="4" class="pri" opacity="0.1" />
      </g>
      <g id="toolbar-button-pressed-bottom">
        <use href="#toolbar-button-normal-bottom" />
        <use href="#sq-8-b" y="4" class="pri" opacity="0.1" />
      </g>
      <g id="toolbar-button-pressed-bottomright">
        <use href="#toolbar-button-normal-bottomright" />
        <use href="#r-8-br" y="4" class="pri" opacity="0.1" />
      </g>
    </g>
    <g id="toolbar-button-toggled-group" transform="translate(96)">
      <g id="toolbar-button-toggled-topleft">
        <use href="#toolbar-button-normal-topleft-1" />
        <use href="#r-8-tl" y="4" class="sec-cont" />
        <use href="#toolbar-button-normal-topleft-2" />
      </g>
      <g id="toolbar-button-toggled-top">
        <use href="#toolbar-button-normal-top-1" />
        <use href="#sq-8-t" y="4" class="sec-cont" />
        <use href="#toolbar-button-normal-top-2" />
      </g>
      <g id="toolbar-button-toggled-topright">
        <use href="#toolbar-button-normal-topright-1" />
        <use href="#r-8-tr" y="4" class="sec-cont" />
        <use href="#toolbar-button-normal-topright-2" />
      </g>
      <g id="toolbar-button-toggled-left">
        <use href="#sq-8-l" y="4" class="sec-cont" />
        <use href="#toolbar-button-normal-left-1" />
      </g>
      <use id="toolbar-button-toggled" href="#sq-8-c" y="4" class="sec-cont" />
      <g id="toolbar-button-toggled-right">
        <use href="#sq-8-r" y="4" class="sec-cont" />
        <use href="#toolbar-button-normal-right-1" />
      </g>
      <g id="toolbar-button-toggled-bottomleft">
        <use href="#toolbar-button-normal-bottomleft-1" />
        <use href="#r-8-bl" y="4" class="sec-cont" />
        <use href="#toolbar-button-normal-bottomleft-2" />
      </g>
      <g id="toolbar-button-toggled-bottom">
        <use href="#toolbar-button-normal-bottom-1" />
        <use href="#sq-8-t" y="28" class="sec-cont" />
        <use href="#toolbar-button-normal-bottom-2" />
      </g>
      <g id="toolbar-button-toggled-bottomright">
        <use href="#toolbar-button-normal-bottomright-1" />
        <use href="#r-8-br" y="4" class="sec-cont" />
        <use href="#toolbar-button-normal-bottomright-2" />
      </g>
    </g>
  </g>
  <g id="lineedit-group" transform="translate(0,96)">
    <g id="lineedit-normal-group">
      <g id="lineedit-normal-topleft">
        <rect id="lineedit-normal-topleft-1" width="8" height="8" x="0" y="0" opacity="0" />
        <path d="M 0.5,4 q 0,-3.5 3.5,-3.5 h 4 v 1 h -4 q -2.5,0 -2.5,2.5 v 4 h -1 Z" class="outline" />
      </g>
      <g id="lineedit-normal-top">
        <rect id="lineedit-normal-top-1" width="16" height="8" x="8" y="0" opacity="0" />
        <rect id="lineedit-normal-top-2" width="16" height="1" x="8" y="0.5" class="outline" />
      </g>
      <g id="lineedit-normal-topright">
        <use href="#lineedit-normal-topleft-1" x="24" />
        <path d="M 31.5,4 q 0,-3.5 -3.5,-3.5 h -4 v 1 h 4 q 2.5,0 2.5,2.5 v 4 h 1 Z" class="outline" />
      </g>
      <g id="lineedit-normal-left">
        <rect id="lineedit-normal-left-1" width="8" height="16" x="0" y="8" opacity="0" />
        <rect id="lineedit-normal-left-2" width="1" height="16" x="0.5" y="8" class="outline" />
      </g>
      <g id="lineedit-normal-right">
        <use href="#lineedit-normal-left-1" x="24" />
        <use href="#lineedit-normal-left-2" x="30" />
      </g>
      <g id="lineedit-normal-bottomleft">
        <use href="#lineedit-normal-topleft-1" x="0" y="24" />
        <path d="M 0.5,28 q 0,3.5 3.5,3.5 h 4 v -1 h -4 q -2.5,0 -2.5,-2.5 v -4 h -1 Z" class="outline" />
      </g>
      <g id="lineedit-normal-bottom">
        <use href="#lineedit-normal-top-1" y="24" />
        <use href="#lineedit-normal-top-2" y="30" />
      </g>
      <g id="lineedit-normal-bottomright">
        <use href="#lineedit-normal-topleft-1" x="24" y="24" />
        <path d="M 31.5,28 q 0,3.5 -3.5,3.5 h -4 v -1 h 4 q 2.5,0 2.5,-2.5 v -4 h 1 Z" class="outline" />
      </g>
    </g>
    <g id="lineedit-focused-group" transform="translate(32,0)">
      <path id="lineedit-focused-topleft" d="M 0,4 q 0,-4 4,-4 h 4 v 2 h -4 q -2,0 -2,2 v 4 h -2 Z" class="pri" />
      <g id="lineedit-focused-top">
        <use href="#lineedit-normal-top-1" />
        <rect id="lineedit-focused-top-1" width="16" height="2" x="8" y="0" class="pri" />
      </g>
      <path id="lineedit-focused-topright" d="M 32,4 q 0,-4 -4,-4 h -4 v 2 h 4 q 2,0 2,2 v 4 h 2 Z" class="pri" />
      <g id="lineedit-focused-left">
        <use href="#lineedit-normal-left-1" />
        <rect id="lineedit-focused-left-1" width="2" height="16" x="0" y="8" class="pri" />
      </g>
      <g id="lineedit-focused-right">
        <use href="#lineedit-normal-left-1" x="24" />
        <use href="#lineedit-focused-left-1" x="30" />
      </g>
      <path id="lineedit-focused-bottomleft" d="M 0,28 q 0,4 4,4 h 4 v -2 h -4 q -2,0 -2,-2 v -4 h -2 Z" class="pri" />
      <g id="lineedit-focused-bottom">
        <use href="#lineedit-normal-top-1" y="24" />
        <use href="#lineedit-focused-top-1" y="30" />
      </g>
      <path id="lineedit-focused-bottomright" d="M 32,28 q 0,4 -4,4 h -4 v -2 h 4 q 2,0 2,-2 v -4 h 2 Z" class="pri" />
    </g>
  </g>
  <g id="radio-group" transform="translate(72,96)">
    <g id="radio-normal">
      <circle cx="12" cy="12" r="12" opacity="0" />
      <use href="#radio-unchk" class="on-surf-var" />
    </g>
    <g id="radio-focused">
      <circle cx="12" cy="36" r="12" class="on-surf" opacity="0.1" />
      <use href="#radio-unchk" x="0" y="24" class="on-surf" />
    </g>
    <g id="radio-checked-normal">
      <circle cx="36" cy="12" r="12" opacity="0" />
      <use href="#radio-chk" x="24" y="0" class="pri" />
    </g>
    <g id="g100">
      <circle cx="36" cy="36" r="12" class="pri" opacity="0.1" />
      <use href="#radio-chk" x="24" y="24" class="pri" />
    </g>
  </g>
  <g id="checkbox-group" transform="translate(0,128)">
    <g id="checkbox-normal">
      <use href="#chk-box-back" x="0" y="0" opacity="0" />
      <use href="#chk-box-frame" x="0" y="0" class="on-surf-var" />
    </g>
    <g id="checkbox-focused">
      <use href="#chk-box-back" x="0" y="24" class="on-surf" opacity="0.1" />
      <use href="#chk-box-frame" x="0" y="24" class="on-surf" />
    </g>
    <g id="checkbox-checked-normal">
      <use href="#chk-box-back" x="24" y="0" opacity="0" />
      <use href="#chk-box-box" x="24" y="0" class="pri" />
      <use href="#chk-box-chk" x="24" y="0" class="on-pri" />
    </g>
    <g id="checkbox-checked-focused">
      <use href="#chk-box-back" x="24" y="24" class="pri" opacity="0.1" />
      <use href="#chk-box-box" x="24" y="24" class="pri" />
      <use href="#chk-box-chk" x="24" y="24" class="on-pri" />
    </g>
    <g id="checkbox-tristate-normal">
      <use href="#chk-box-back" x="48" y="0" opacity="0" />
      <use href="#chk-box-box" x="48" y="0" class="pri" />
      <use href="#chk-box-dash" x="48" y="0" class="on-pri" />
    </g>
    <g id="checkbox-tristate-focused">
      <use href="#chk-box-back" x="48" y="24" class="pri" opacity="0.1" />
      <use href="#chk-box-box" x="48" y="24" class="pri" />
      <use href="#chk-box-dash" x="48" y="24" class="on-pri" />
    </g>
  </g>
  <g id="common-group" transform="translate(128)">
    <use id="common-normal-topleft" href="#r-8-tl" class="surf-cont" />
    <use id="common-normal-top" href="#sq-8-t" class="surf-cont" />
    <use id="common-normal-topright" href="#r-8-tr" class="surf-cont" />
    <use id="common-normal-left" href="#sq-8-l" class="surf-cont" />
    <use id="common-normal" href="#sq-8-c" class="surf-cont" />
    <use id="common-normal-right" href="#sq-8-l" x="24" class="surf-cont" />
    <use id="common-normal-bottomleft" href="#r-8-bl" class="surf-cont" />
    <use id="common-normal-bottom" href="#sq-8-t" y="24" class="surf-cont" />
    <use id="common-normal-bottomright" href="#r-8-br" class="surf-cont" />
  </g>
  <g id="toolbar-group" transform="translate(128,32)">
    <use id="toolbar-normal" x="-8" y="-8" href="#sq-8-c" class="surf-cont-high" />
  </g>
  <g id="sizegrip-group" transform="translate(128,48)">
    <use id="sizegrip-normal" href="#sizegrip" class="on-surf-var" opacity="0.38" />
    <use id="sizegrip-focused" href="#sizegrip" x="10" class="on-surf" opacity="0.38" />
  </g>
  <g id="tab-group" transform="translate(0,176)">
    <use id="tab-normal-topleft" href="#sq-8-tl" opacity="0" />
    <use id="tab-normal-top" href="#sq-8-t" opacity="0" />
    <use id="tab-normal-topright" href="#sq-8-tr" opacity="0" />
    <use id="tab-normal-left" href="#sq-8-l" opacity="0" />
    <use id="tab-normal" href="#sq-8-c" opacity="0" />
    <use id="tab-normal-right" href="#sq-8-r" opacity="0" />
    <use id="tab-normal-bottomleft" href="#sq-8-bl" opacity="0" />
    <use id="tab-normal-bottom" href="#sq-8-b" opacity="0" />
    <use id="tab-normal-bottomright" href="#sq-8-br" opacity="0" />
    <use id="tab-focused-topleft" href="#sq-8-tl" class="pri" opacity="0.1" />
    <use id="tab-focused-top" href="#sq-8-t" class="pri" opacity="0.1" />
    <use id="tab-focused-topright" href="#sq-8-tr" class="pri" opacity="0.1" />
    <use id="tab-focused-left" href="#sq-8-l" class="pri" opacity="0.1" />
    <use id="tab-focused" href="#sq-8-c" class="pri" opacity="0.1" />
    <use id="tab-focused-right" href="#sq-8-r" class="pri" opacity="0.1" />
    <use id="tab-focused-bottomleft" href="#sq-8-bl" class="pri" opacity="0.1" />
    <use id="tab-focused-bottom" href="#sq-8-b" class="pri" opacity="0.1" />
    <use id="tab-focused-bottomright" href="#sq-8-br" class="pri" opacity="0.1" />
    <use id="tab-toggled-topleft" href="#tab-normal-topleft" x="32" />
    <use id="tab-toggled-top" href="#tab-normal-top" x="32" />
    <use id="tab-toggled-topright" href="#tab-normal-topright" x="32" />
    <use id="tab-toggled-left" href="#tab-normal-left" x="32" />
    <use id="tab-toggled" href="#tab-normal" x="32" />
    <use id="tab-toggled-right" href="#tab-normal-right" x="32" />
    <g id="tab-toggled-bottomleft">
      <use href="#tab-normal-bottomleft" x="32" />
      <path d="M 32,32 q 0,-3 3,-3 h 5 v 3 Z" class="pri" />
    </g>
    <g id="tab-toggled-bottom">
      <use href="#tab-normal-bottom" x="32" />
      <rect width="16" height="3" x="40" y="29" class="pri" />
    </g>
    <g id="tab-toggled-bottomright">
      <use href="#tab-normal-bottomright" x="32" />
      <path d="M 64,32 q 0,-3 -3,-3 h -5 v 3 Z" class="pri" />
    </g>
    <rect id="tabframe-normal-topleft" width="1" height="1" x="32" class="surf-var" />
    <rect id="tabframe-normal-top" width="16" height="1" x="33" class="surf-var" />
    <rect id="tabframe-normal-topright" width="1" height="1" x="49" class="surf-var" />
    <rect id="tabframe-normal-left" width="1" height="16" x="32" y="1" class="surf-var" />
    <rect id="tabframe-normal-right" width="1" height="16" x="49" y="1" class="surf-var" />
    <rect id="tabframe-normal-bottomleft" width="1" height="1" x="32" y="17" class="surf-var" />
    <rect id="tabframe-normal-bottom" width="16" height="1" x="33" y="17" class="surf-var" />
    <rect id="tabframe-normal-bottomright" width="1" height="1" x="49" y="17" class="surf-var" />
  </g>
  <g id="dial-group" transform="translate(120,96)">
    <circle id="dial" cx="22.5" cy="22.5" r="22.5" class="surf-cont-highest" />
    <g id="dial-notches">
      <rect width="45" height="45" x="0" y="0" opacity="0" />
      <path
        d="M 12.116,42.486 L 14.366,38.589 L 12.634,37.589 L 10.384,41.486 z M 7.484,39.258 L 9.51,37.046 L 9.142,36.708 L 7.115,38.92 z M 4.213,35.61 L 6.67,33.89 L 6.383,33.48 L 3.926,35.201 z M 1.808,31.341 L 4.58,30.193 L 4.389,29.731 L 1.617,30.879 z M 0.385,26.653 L 3.34,26.132 L 3.253,25.64 L 0.298,26.161 z M 0.011,21.768 L 3.008,21.899 L 3.03,21.4 L 0.032,21.269 z M 0.508,17.643 L 4.855,18.807 L 5.372,16.875 L 1.026,15.711 z M 2.427,12.332 L 5.088,13.718 L 5.319,13.274 L 2.658,11.889 z M 5.103,8.229 L 7.401,10.157 L 7.723,9.774 L 5.425,7.846 z M 8.605,4.802 L 10.431,7.182 L 10.828,6.877 L 9.001,4.497 z M 12.765,2.214 L 14.032,4.933 L 14.486,4.721 L 13.218,2.002 z M 17.386,0.587 L 18.035,3.516 L 18.524,3.408 L 17.874,0.479 z M 21.5,0 L 21.5,4.5 L 23.5,4.5 L 23.5,0 z M 27.126,0.479 L 26.477,3.408 L 26.965,3.516 L 27.614,0.587 z M 31.782,2.002 L 30.515,4.721 L 30.968,4.933 L 32.236,2.214 z M 35.999,4.497 L 34.173,6.877 L 34.569,7.182 L 36.396,4.802 z M 39.575,7.846 L 37.277,9.774 L 37.599,10.157 L 39.897,8.229 z M 42.342,11.889 L 39.681,13.274 L 39.912,13.718 L 42.573,12.332 z M 43.975,15.711 L 39.628,16.875 L 40.146,18.807 L 44.492,17.643 z M 44.968,21.269 L 41.971,21.4 L 41.992,21.899 L 44.99,21.768 z M 44.702,26.161 L 41.747,25.64 L 41.66,26.132 L 44.615,26.653 z M 43.383,30.879 L 40.611,29.731 L 40.42,30.193 L 43.192,31.341 z M 41.074,35.201 L 38.617,33.48 L 38.33,33.89 L 40.788,35.61 z M 37.885,38.92 L 35.858,36.708 L 35.49,37.046 L 37.517,39.258 z M 34.616,41.486 L 32.366,37.589 L 30.634,38.589 L 32.884,42.486 z"
        class="on-surf" />
    </g>
    <circle id="dial-handle" cx="10" cy="22.5" r="5" class="pri" />
  </g>
  <g id="itemview-group" transform="translate(128,60)">
    <use id="itemview-focused" x="-8" y="-8" href="#sq-8-c" class="on-surf" opacity="0.08" />
    <use id="itemview-pressed" x="8" y="-8" href="#sq-8-c" class="sec" />
    <use id="itemview-toggled" x="-8" y="8" href="#sq-8-c" class="on-surf" opacity="0.1" />
  </g>
  <!-- 
  id="toolbar-handle"
  id="toolbar-separator"

  id="progress-pattern-normal"
  id="progress-pattern-disabled"
  id="progress-pattern-focused"
  id="progress-pattern-toggled"
  id="progress-normal"
  id="progress-normal-left"
  id="progress-normal-right"
  id="progress-normal-topright"
  id="progress-normal-bottomright"
  id="progress-normal-bottomleft"
  id="progress-normal-topleft"
  id="progress-normal-bottom"
  id="progress-normal-top"
  
  id="scrollbarslider-normal-left" 
  id="scrollbarslider-normal-bottom" 
  id="scrollbarslider-normal-right" 
  id="scrollbarslider-normal-top" 
  id="scrollbarslider-normal-topleft" 
  id="scrollbarslider-normal-bottomleft" 
  id="scrollbarslider-normal-topright" 
  id="scrollbarslider-normal-bottomright" 
  id="scrollbarslider-normal"
  
  id="scrollbarslider-pressed-left"
  id="scrollbarslider-pressed-bottom"
  id="scrollbarslider-pressed-right"
  id="scrollbarslider-pressed-top"
  id="scrollbarslider-pressed-topleft"
  id="scrollbarslider-pressed-bottomleft"
  id="scrollbarslider-pressed-topright"
  id="scrollbarslider-pressed-bottomright"

  id="scrollbarslider-focused-bottom"
  id="scrollbarslider-focused-right"
  id="scrollbarslider-focused-top"
  id="scrollbarslider-focused-topleft"
  id="scrollbarslider-focused-bottomleft"
  id="scrollbarslider-focused-topright"
  id="scrollbarslider-focused-bottomright"
  id="scrollbarslider-focused"
  id="scrollbarslider-focused-left"
  
  id="scrollbarslider-pressed"

  id="slider-normal"
  id="slider-normal-topleft"
  id="slider-normal-topright"
  id="slider-normal-bottomleft"
  id="slider-normal-bottomright"
  id="slider-normal-bottom"
  id="slider-normal-top"
  id="slider-normal-left"
  id="slider-normal-right"

  id="slider-toggled">  
  id="slider-toggled-topleft"
  id="slider-toggled-topright"
  id="slider-toggled-bottomleft"
  id="slider-toggled-bottomright"
  id="slider-toggled-bottom"
  id="slider-toggled-top"
  id="slider-toggled-left"
  id="slider-toggled-right"

  id="slider-bottomglow-normal"
  id="slider-topglow-normal"
  
  id="slider-tick-normal"
  
  id="slidercursor-normal"
  id="slidercursor-focused"
  id="slidercursor-pressed"
  id="slidercursor-disabled"
  
  id="menuitem-toggled"
  id="menuitem-pressed"
  
  id="menuitem-separator"

  id="menuitem-tearoff-normal"
  id="menuitem-tearoff-focused"

  id="menubaritem-toggled"
  id="menubaritem-toggled-top"
  id="menubaritem-toggled-left"
  id="menubaritem-toggled-right"
  id="menubaritem-toggled-topright"
  id="menubaritem-toggled-topleft"
  id="menubaritem-toggled-bottomright"
  id="menubaritem-toggled-bottomleft"
  id="menubaritem-toggled-bottom"

  id="menubaritem-pressed"
  id="menubaritem-pressed-bottom"
  id="menubaritem-pressed-top"
  id="menubaritem-pressed-left"
  id="menubaritem-pressed-right"
  id="menubaritem-pressed-topright"
  id="menubaritem-pressed-topleft"
  id="menubaritem-pressed-bottomright"
  id="menubaritem-pressed-bottomleft"

  id="menu-normal"
  id="menu-normal-top"
  id="menu-normal-left"
  id="menu-normal-right"
  id="menu-normal-bottom"
  id="menu-normal-topleft"
  id="menu-normal-topright"
  id="menu-normal-bottomleft"
  id="menu-normal-bottomright"
  
  id="menu-shadow-top"
  id="menu-shadow-left"
  id="menu-shadow-right"
  id="menu-shadow-bottom"
  id="menu-shadow-topleft"
  id="menu-shadow-topright"
  id="menu-shadow-bottomleft"
  id="menu-shadow-bottomright"
  id="menu-shadow-hint-bottom"
  id="menu-shadow-hint-top"
  id="menu-shadow-hint-right"
  id="menu-shadow-hint-left"

  id="tab-close-normal"
  id="tab-close-pressed"
  id="tab-close-focused"
  id="tab-close-disabled"

  id="tab-tear"
  
  id="dock-normal"
  id="dock-focused"
  
  id="splitter-grip-pressed"
  id="splitter-grip-normal"
  id="splitter-grip-focused"

  id="splitter-normal"
  id="splitter-focused"
  id="splitter-pressed"  

  id="grip-normal"
  id="grip-focused"
  id="grip-pressed"
  id="header-separator"
  id="tooltip-normal-bottomright"
  id="tooltip-normal-bottomleft"
  id="tooltip-normal-bottom"
  id="tooltip-normal-topleft"
  id="tooltip-normal"
  id="tooltip-normal-topright"
  id="tooltip-normal-top"
  id="tooltip-normal-right"
  id="tooltip-normal-left"
  id="tooltip-shadow-bottomright"
  id="tooltip-shadow-bottomleft"
  id="tooltip-shadow-topleft"
  id="tooltip-shadow-topright"
  id="tooltip-shadow-top"
  id="tooltip-shadow-left"
  id="tooltip-shadow-right"
  id="tooltip-shadow-bottom"
  id="tooltip-shadow-hint-bottom"
  id="tooltip-shadow-hint-top"
  id="tooltip-shadow-hint-right"
  id="tooltip-shadow-hint-left"

  id="focus-top"
  id="focus-right"
  id="focus-bottom"
  id="focus-left"

  id="titlebar-normal"
  id="titlebar-focused"

  id="mdi-maximize-normal"
  id="mdi-menu-normal"
  id="mdi-restore-normal"
  id="mdi-close-normal"
  id="mdi-maximize-focused"
  id="mdi-restore-focused"
  id="mdi-close-focused"
  id="mdi-maximize-pressed"
  id="mdi-minimize-pressed"
  id="mdi-restore-pressed"
  id="mdi-close-pressed"
  id="mdi-shade-pressed"
  id="mdi-maximize-disabled"
  id="mdi-minimize-disabled"
  id="mdi-restore-disabled"
  id="mdi-close-disabled"
  id="mdi-shade-disabled"
  id="mdi-minimize-focused"
  id="mdi-minimize-normal"
  id="mdi-shade-normal"
  id="mdi-shade-focused"
  -->
</svg>