<svg height="22" width="22" xmlns="http://www.w3.org/2000/svg" xmlns:xlink="http://www.w3.org/1999/xlink">
  <defs>
    <style type="text/css" id="current-color-scheme">
      .ColorScheme-Text {
        color: #e2e2e5;
      }

      .ColorScheme-Background {
        color: #28292d;
      }
    </style>
    <path id="icon"
      d="m 9.717,14.667 q 0,-1.856 0.332,-2.67 0.332,-0.814 1.409,-1.776 Q 12.398,9.396 12.891,8.789 13.383,8.181 13.383,7.402 13.383,6.463 12.753,5.844 12.123,5.225 11,5.225 q -1.169,0 -1.776,0.71 -0.607,0.71 -0.859,1.444 L 6.004,6.371 Q 6.485,4.904 7.769,3.827 9.052,2.75 11,2.75 q 2.406,0 3.701,1.341 1.295,1.341 1.295,3.22 0,1.146 -0.493,1.959 -0.493,0.814 -1.547,1.845 -1.123,1.077 -1.364,1.639 -0.241,0.561 -0.241,1.914 z M 11,20.167 q -0.756,0 -1.295,-0.539 -0.539,-0.539 -0.539,-1.295 0,-0.756 0.539,-1.295 Q 10.244,16.5 11,16.5 q 0.756,0 1.295,0.539 0.539,0.539 0.539,1.295 0,0.756 -0.539,1.295 Q 11.756,20.167 11,20.167 Z" />
  </defs>
  <use xlink:href="#icon" class="ColorScheme-Background" fill="currentColor" stroke="currentColor" />
  <use xlink:href="#icon" class="ColorScheme-Text" fill="currentColor" />
</svg>