<svg height="22" width="22" xmlns="http://www.w3.org/2000/svg">
  <style type="text/css" id="current-color-scheme">
    .ColorScheme-NeutralText {
      color: #f9bd00;
    }

    .ColorScheme-Background {
      color: #28292d;
    }
  </style>
  <circle cx="11" cy="11" r="9.167" class="ColorScheme-Background" fill="currentColor" stroke="currentColor" />
  <path
    d="m 11,15.583 q 0.39,0 0.653,-0.264 0.264,-0.264 0.264,-0.653 0,-0.39 -0.264,-0.653 Q 11.39,13.75 11,13.75 q -0.39,0 -0.653,0.264 -0.264,0.264 -0.264,0.653 0,0.39 0.264,0.653 Q 10.61,15.583 11,15.583 Z m -0.917,-3.667 h 1.833 V 6.417 H 10.083 Z M 11,20.167 q -1.902,0 -3.575,-0.722 Q 5.752,18.723 4.515,17.485 3.277,16.248 2.555,14.575 1.833,12.902 1.833,11 q 0,-1.902 0.722,-3.575 Q 3.277,5.752 4.515,4.515 5.752,3.277 7.425,2.555 9.098,1.833 11,1.833 q 1.902,0 3.575,0.722 1.673,0.722 2.91,1.959 1.238,1.238 1.959,2.91 0.722,1.673 0.722,3.575 0,1.902 -0.722,3.575 -0.722,1.673 -1.959,2.91 -1.238,1.238 -2.91,1.959 -1.673,0.722 -3.575,0.722 z m 0,-1.833 q 3.071,0 5.202,-2.131 2.131,-2.131 2.131,-5.202 0,-3.071 -2.131,-5.202 -2.131,-2.131 -5.202,-2.131 -3.071,0 -5.202,2.131 -2.131,2.131 -2.131,5.202 0,3.071 2.131,5.202 2.131,2.131 5.202,2.131 z M 11,11 Z"
    class="ColorScheme-NeutralText" fill="currentColor" />
</svg>