<svg height="22" width="22" version="1.1" xmlns="http://www.w3.org/2000/svg">
  <style type="text/css" id="current-color-scheme">
    .ColorScheme-NeutralText {
      color: #f9bd00;
    }

    .ColorScheme-Background {
      color: #28292d;
    }
  </style>
  <path
    d="M 8.708,19.25 V 16.5 L 5.5,13.292 V 8.25 q 0,-0.55 0.252,-1.031 Q 6.004,6.738 6.485,6.485 L 8.25,8.25 H 7.333 v 4.263 l 3.208,3.208 v 1.696 h 0.917 V 15.721 L 12.306,14.873 1.283,3.85 2.567,2.567 19.433,19.433 18.15,20.717 13.612,16.179 13.292,16.5 v 2.75 z M 15.721,13.108 14.667,12.054 V 8.25 H 10.862 L 7.333,4.721 V 2.75 H 9.167 V 6.417 H 12.833 V 2.75 h 1.833 V 7.333 L 13.75,6.417 h 0.917 q 0.756,0 1.295,0.539 Q 16.5,7.494 16.5,8.25 v 4.079 z M 12.787,10.175 Z m -2.979,2.223 z"
    class="ColorScheme-Background" stroke-width="5%" stroke="currentColor" />
  <path
    d="M 8.708,19.25 V 16.5 L 5.5,13.292 V 8.25 q 0,-0.55 0.252,-1.031 Q 6.004,6.738 6.485,6.485 L 8.25,8.25 H 7.333 v 4.263 l 3.208,3.208 v 1.696 h 0.917 V 15.721 L 12.306,14.873 1.283,3.85 2.567,2.567 19.433,19.433 18.15,20.717 13.612,16.179 13.292,16.5 v 2.75 z M 15.721,13.108 14.667,12.054 V 8.25 H 10.862 L 7.333,4.721 V 2.75 H 9.167 V 6.417 H 12.833 V 2.75 h 1.833 V 7.333 L 13.75,6.417 h 0.917 q 0.756,0 1.295,0.539 Q 16.5,7.494 16.5,8.25 v 4.079 z M 12.787,10.175 Z m -2.979,2.223 z"
    class="ColorScheme-NeutralText" fill="currentColor" />
</svg>