<svg height="22" width="22" xmlns="http://www.w3.org/2000/svg">
  <style type="text/css" id="current-color-scheme">
    .ColorScheme-NeutralText {
      color: #f9bd00;
    }

    .ColorScheme-Background {
      color: #1e2022;
    }
  </style>
  <rect width="22" height="22" rx="2" class="ColorScheme-Background" fill="currentColor" />
  <path
    d="M 12.627,10.015 Q 12.742,9.831 12.788,9.614 q 0.046,-0.218 0.046,-0.447 0,-0.756 -0.539,-1.295 Q 11.756,7.333 11,7.333 q -0.229,0 -0.447,0.046 -0.218,0.046 -0.401,0.16 z m 4.652,4.698 -1.375,-1.421 q 0.275,-0.733 0.435,-1.524 Q 16.5,10.977 16.5,10.175 V 5.844 L 11,3.781 7.654,5.042 6.233,3.621 11,1.833 l 7.333,2.75 V 10.175 q 0,1.169 -0.264,2.315 -0.264,1.146 -0.791,2.223 z M 18.15,20.717 15.171,17.738 Q 14.3,18.631 13.234,19.239 12.169,19.846 11,20.167 7.815,19.365 5.741,16.511 3.667,13.658 3.667,10.175 V 6.233 L 1.283,3.85 2.567,2.567 19.433,19.433 Z M 9.854,12.421 Z M 11.16,8.525 Z M 11,18.242 Q 11.802,17.99 12.535,17.531 13.269,17.073 13.888,16.454 L 11.183,13.75 H 9.625 L 9.854,12.421 5.5,8.067 V 10.175 q 0,2.773 1.558,5.042 1.558,2.269 3.942,3.025 z"
    class="ColorScheme-NeutralText" fill="currentColor" />
</svg>