<svg height="22" width="22" version="1.1" xmlns="http://www.w3.org/2000/svg">
  <defs>
    <style type="text/css" id="current-color-scheme">
      .ColorScheme-NeutralText {
        color: #f9bd00;
      }

      .ColorScheme-Background {
        color: #1e2022;
      }
    </style>
    <path id="icon"
      d="m 12.627,10.015 c 0.077,-0.123 0.13,-0.256 0.161,-0.401 0.031,-0.145 0.046,-0.294 0.046,-0.447 0,-0.504 -0.18,-0.936 -0.539,-1.295 C 11.936,7.513 11.504,7.333 11,7.333 c -0.153,0 -0.302,0.015 -0.447,0.046 -0.145,0.031 -0.279,0.084 -0.401,0.16 z m 4.652,4.698 -1.375,-1.421 c 0.183,-0.489 0.328,-0.997 0.435,-1.524 0.107,-0.527 0.161,-1.058 0.161,-1.593 V 5.844 L 11,3.781 7.654,5.042 6.233,3.621 11,1.833 l 7.333,2.75 v 5.592 c 0,0.779 -0.088,1.551 -0.264,2.315 -0.176,0.764 -0.189,1.18 -0.541,1.898 z m 0.871,6.004 -2.979,-2.979 c -0.581,0.595 -1.226,1.096 -1.937,1.501 C 12.524,19.644 11.779,19.953 11,20.167 8.877,19.632 7.124,18.414 5.741,16.511 4.358,14.609 3.667,12.497 3.667,10.175 V 6.233 L 1.283,3.85 2.567,2.567 19.433,19.433 Z M 11,18.242 c 0.535,-0.168 1.046,-0.405 1.535,-0.711 0.489,-0.305 0.94,-0.664 1.353,-1.077 L 11.183,13.75 H 9.625 L 9.854,12.421 5.5,8.067 v 2.108 c 0,1.849 0.519,3.529 1.558,5.042 1.039,1.513 2.353,2.521 3.942,3.025 z" />
  </defs>
  <rect width="22" height="22" opacity="0" />
  <use href="#icon" class="ColorScheme-Background" stroke="currentColor" stroke-width="2" />
  <use href="#icon" class="ColorScheme-NeutralText" fill="currentColor" />
</svg>