<svg height="22" width="22" xmlns="http://www.w3.org/2000/svg">
  <style type="text/css" id="current-color-scheme">
    .ColorScheme-Accent {
      color: #95ccff;
    }

    .ColorScheme-Background {
      color: #28292d;
    }
  </style>
  <rect width="22" height="22" opacity="0" />
  <path
    d="m 11.458,10.083 h 1.833 V 8.25 H 15.125 V 6.417 H 13.292 V 4.583 H 11.458 V 6.417 H 9.625 V 8.25 h 1.833 z M 9.625,13.75 h 5.5 v -1.833 h -5.5 z m -2.292,3.667 q -0.756,0 -1.295,-0.539 Q 5.5,16.34 5.5,15.583 V 2.75 Q 5.5,1.994 6.039,1.455 6.577,0.917 7.333,0.917 H 13.75 l 5.5,5.5 v 9.167 q 0,0.756 -0.539,1.295 -0.539,0.539 -1.295,0.539 z m 0,-1.833 H 17.417 V 7.333 L 12.833,2.75 H 7.333 Z m -3.667,5.5 q -0.756,0 -1.295,-0.539 Q 1.833,20.006 1.833,19.25 V 6.417 H 3.667 V 19.25 H 13.75 v 1.833 z m 3.667,-5.5 V 2.75 Z"
    class="ColorScheme-Background" stroke-width="1" stroke="currentColor" />
  <path
    d="m 11.458,10.083 h 1.833 V 8.25 H 15.125 V 6.417 H 13.292 V 4.583 H 11.458 V 6.417 H 9.625 V 8.25 h 1.833 z M 9.625,13.75 h 5.5 v -1.833 h -5.5 z m -2.292,3.667 q -0.756,0 -1.295,-0.539 Q 5.5,16.34 5.5,15.583 V 2.75 Q 5.5,1.994 6.039,1.455 6.577,0.917 7.333,0.917 H 13.75 l 5.5,5.5 v 9.167 q 0,0.756 -0.539,1.295 -0.539,0.539 -1.295,0.539 z m 0,-1.833 H 17.417 V 7.333 L 12.833,2.75 H 7.333 Z m -3.667,5.5 q -0.756,0 -1.295,-0.539 Q 1.833,20.006 1.833,19.25 V 6.417 H 3.667 V 19.25 H 13.75 v 1.833 z m 3.667,-5.5 V 2.75 Z"
    class="ColorScheme-Accent" fill="currentColor" />
</svg>