<svg height="22" width="22" xmlns="http://www.w3.org/2000/svg">
  <style type="text/css" id="current-color-scheme">
    .ColorScheme-Text {
      color: #e2e2e5;
    }
  </style>
  <path
    d="m 6.875,20.167 q -1.329,0 -2.269,-0.94 Q 3.667,18.288 3.667,16.958 V 5.042 q 0,-1.329 0.94,-2.269 Q 5.546,1.833 6.875,1.833 H 18.333 V 15.583 q -0.573,0 -0.974,0.401 -0.401,0.401 -0.401,0.974 0,0.573 0.401,0.974 0.401,0.401 0.974,0.401 v 1.833 z M 5.5,14.048 Q 5.821,13.888 6.165,13.819 6.508,13.75 6.875,13.75 H 7.333 V 3.667 H 6.875 q -0.573,0 -0.974,0.401 Q 5.5,4.469 5.5,5.042 Z M 9.167,13.75 H 16.5 V 3.667 H 9.167 Z M 5.5,14.048 V 3.667 Z m 1.375,4.285 h 8.548 Q 15.285,18.013 15.205,17.68 15.125,17.348 15.125,16.958 q 0,-0.367 0.069,-0.71 0.069,-0.344 0.229,-0.665 H 6.875 q -0.596,0 -0.985,0.401 Q 5.5,16.385 5.5,16.958 5.5,17.554 5.89,17.944 6.279,18.333 6.875,18.333 Z"
    class="ColorScheme-Text" fill="currentColor" />
</svg>