<svg height="22" width="22" xmlns="http://www.w3.org/2000/svg">
  <style type="text/css" id="current-color-scheme">
    .ColorScheme-Text {
      color: #e2e2e5;
    }
  </style>
  <path
    d="M 6.875,15.125 13.292,13.292 15.125,6.875 8.708,8.708 Z M 11,12.375 q -0.573,0 -0.974,-0.401 Q 9.625,11.573 9.625,11 q 0,-0.573 0.401,-0.974 Q 10.427,9.625 11,9.625 q 0.573,0 0.974,0.401 Q 12.375,10.427 12.375,11 q 0,0.573 -0.401,0.974 Q 11.573,12.375 11,12.375 Z m 0,7.792 q -1.902,0 -3.575,-0.722 Q 5.752,18.723 4.515,17.485 3.277,16.248 2.555,14.575 1.833,12.902 1.833,11 q 0,-1.902 0.722,-3.575 Q 3.277,5.752 4.515,4.515 5.752,3.277 7.425,2.555 9.098,1.833 11,1.833 q 1.902,0 3.575,0.722 1.673,0.722 2.91,1.959 1.238,1.238 1.959,2.91 0.722,1.673 0.722,3.575 0,1.902 -0.722,3.575 -0.722,1.673 -1.959,2.91 -1.238,1.238 -2.91,1.959 -1.673,0.722 -3.575,0.722 z m 0,-1.833 q 3.048,0 5.191,-2.143 Q 18.333,14.048 18.333,11 q 0,-3.048 -2.143,-5.191 Q 14.048,3.667 11,3.667 q -3.048,0 -5.191,2.143 Q 3.667,7.952 3.667,11 q 0,3.048 2.143,5.191 Q 7.952,18.333 11,18.333 Z M 11,11 Z"
    class="ColorScheme-Text" fill="currentColor" />
</svg>