<svg height="22" width="22" xmlns="http://www.w3.org/2000/svg">
  <style type="text/css" id="current-color-scheme">
    .ColorScheme-Text {
      color: #e2e2e5;
    }
  </style>
  <path
    d="m 11,20.167 q -1.902,0 -3.575,-0.722 Q 5.752,18.723 4.515,17.485 3.277,16.248 2.555,14.575 1.833,12.902 1.833,11 q 0,-1.902 0.722,-3.575 Q 3.277,5.752 4.515,4.515 5.752,3.277 7.425,2.555 9.098,1.833 11,1.833 q 1.902,0 3.575,0.722 1.673,0.722 2.91,1.959 1.238,1.238 1.959,2.91 0.722,1.673 0.722,3.575 0,1.902 -0.722,3.575 -0.722,1.673 -1.959,2.91 -1.238,1.238 -2.91,1.959 -1.673,0.722 -3.575,0.722 z m 0,-1.833 q 1.238,0 2.383,-0.401 Q 14.529,17.531 15.492,16.775 L 5.225,6.508 Q 4.469,7.471 4.068,8.617 3.667,9.763 3.667,11 q 0,3.071 2.131,5.202 2.131,2.131 5.202,2.131 z m 5.775,-2.842 q 0.756,-0.963 1.157,-2.108 Q 18.333,12.238 18.333,11 q 0,-3.071 -2.131,-5.202 -2.131,-2.131 -5.202,-2.131 -1.238,0 -2.383,0.401 Q 7.471,4.469 6.508,5.225 Z"
    class="ColorScheme-Text" fill="currentColor" />
</svg>