<svg height="22" width="22" xmlns="http://www.w3.org/2000/svg">
  <style type="text/css" id="current-color-scheme">
    .ColorScheme-Text {
      color: #e2e2e5;
    }
  </style>
  <path
    d="m 3.667,18.333 q -0.756,0 -1.295,-0.539 Q 1.833,17.256 1.833,16.5 v -11 q 0,-0.756 0.539,-1.295 Q 2.91,3.667 3.667,3.667 H 18.333 q 0.756,0 1.295,0.539 Q 20.167,4.744 20.167,5.5 v 11 q 0,0.756 -0.539,1.295 -0.539,0.539 -1.295,0.539 z m 0,-1.833 H 18.333 V 7.333 H 3.667 Z M 6.875,15.583 5.592,14.3 7.952,11.917 5.569,9.533 6.875,8.25 l 3.667,3.667 z m 4.125,0 V 13.75 h 5.5 v 1.833 z"
    class="ColorScheme-Text" fill="currentColor" />
</svg>