<svg height="22" width="22" xmlns="http://www.w3.org/2000/svg">
  <style type="text/css" id="current-color-scheme">
    .ColorScheme-Text {
      color: #e2e2e5;
    }
  </style>
  <path
    d="M 14.667,7.333 V 4.583 H 7.333 V 7.333 H 5.5 V 2.75 h 11 V 7.333 Z M 3.667,9.167 H 18.333 Z M 16.5,11.458 q 0.39,0 0.653,-0.264 0.264,-0.264 0.264,-0.653 0,-0.39 -0.264,-0.653 Q 16.89,9.625 16.5,9.625 q -0.39,0 -0.653,0.264 -0.264,0.264 -0.264,0.653 0,0.39 0.264,0.653 0.264,0.264 0.653,0.264 z m -1.833,5.958 V 13.75 H 7.333 v 3.667 z M 16.5,19.25 H 5.5 V 15.583 H 1.833 v -5.5 q 0,-1.169 0.802,-1.959 Q 3.438,7.333 4.583,7.333 H 17.417 q 1.169,0 1.959,0.791 0.791,0.791 0.791,1.959 v 5.5 H 16.5 Z m 1.833,-5.5 v -3.667 q 0,-0.39 -0.264,-0.653 Q 17.806,9.167 17.417,9.167 H 4.583 q -0.39,0 -0.653,0.264 Q 3.667,9.694 3.667,10.083 V 13.75 H 5.5 v -1.833 h 11 V 13.75 Z"
    class="ColorScheme-Text" fill="currentColor" />
</svg>