<svg height="22" width="22" xmlns="http://www.w3.org/2000/svg">
  <style type="text/css" id="current-color-scheme">
    .ColorScheme-Text {
      color: #e2e2e5;
    }
  </style>
  <path
    d="m 4.583,19.25 q -0.756,0 -1.295,-0.539 Q 2.75,18.173 2.75,17.417 V 4.583 q 0,-0.756 0.539,-1.295 Q 3.827,2.75 4.583,2.75 H 15.583 L 19.25,6.417 V 11.275 Q 18.815,11.092 18.345,11.034 17.875,10.977 17.417,11.046 V 7.173 L 14.827,4.583 H 4.583 V 17.417 H 10.083 V 19.25 Z m 0,-14.667 V 17.417 Z M 11.917,21.083 v -2.819 l 5.065,-5.042 q 0.206,-0.206 0.458,-0.298 0.252,-0.092 0.504,-0.092 0.275,0 0.527,0.103 0.252,0.103 0.458,0.309 l 0.848,0.848 q 0.183,0.206 0.286,0.458 0.103,0.252 0.103,0.504 0,0.252 -0.092,0.516 -0.092,0.264 -0.298,0.47 l -5.042,5.042 z m 6.875,-6.027 -0.848,-0.848 z m -5.5,4.652 H 14.163 l 2.773,-2.796 -0.413,-0.435 -0.435,-0.413 -2.796,2.773 z m 3.231,-3.231 -0.435,-0.413 0.848,0.848 z M 5.5,9.167 h 8.25 V 5.5 H 5.5 Z M 11,16.5 h 0.092 L 13.75,13.865 V 13.75 q 0,-1.146 -0.802,-1.948 Q 12.146,11 11,11 9.854,11 9.052,11.802 8.25,12.604 8.25,13.75 q 0,1.146 0.802,1.948 Q 9.854,16.5 11,16.5 Z"
    class="ColorScheme-Text" fill="currentColor" />
</svg>