<svg height="22" width="22" xmlns="http://www.w3.org/2000/svg">
  <style type="text/css" id="current-color-scheme">
    .ColorScheme-Text {
      color: #e2e2e5;
    }
  </style>
  <path
    d="M 19.25,6.417 V 17.417 q 0,0.756 -0.539,1.295 Q 18.173,19.25 17.417,19.25 H 4.583 q -0.756,0 -1.295,-0.539 Q 2.75,18.173 2.75,17.417 V 4.583 q 0,-0.756 0.539,-1.295 Q 3.827,2.75 4.583,2.75 H 15.583 Z m -1.833,0.779 -2.613,-2.613 H 4.583 V 17.417 H 17.417 Z M 11,16.5 q 1.146,0 1.948,-0.802 Q 13.75,14.896 13.75,13.75 13.75,12.604 12.948,11.802 12.146,11 11,11 9.854,11 9.052,11.802 8.25,12.604 8.25,13.75 q 0,1.146 0.802,1.948 Q 9.854,16.5 11,16.5 Z M 5.5,9.167 h 8.25 V 5.5 H 5.5 Z M 4.583,7.196 V 17.417 4.583 Z"
    class="ColorScheme-Text" fill="currentColor" />
</svg>