<svg height="22" width="22" xmlns="http://www.w3.org/2000/svg">
  <style type="text/css" id="current-color-scheme">
    .ColorScheme-Text {
      color: #e2e2e5;
    }
  </style>
  <path
    d="M 6.417,15.583 V 6.417 H 15.583 V 15.583 Z M 8.25,13.75 h 5.5 V 8.25 H 8.25 Z M 4.583,17.417 V 19.25 q -0.756,0 -1.295,-0.539 Q 2.75,18.173 2.75,17.417 Z M 2.75,15.583 V 13.75 h 1.833 v 1.833 z m 0,-3.667 v -1.833 h 1.833 v 1.833 z m 0,-3.667 V 6.417 H 4.583 V 8.25 Z M 4.583,4.583 H 2.75 q 0,-0.756 0.539,-1.295 Q 3.827,2.75 4.583,2.75 Z M 6.417,19.25 V 17.417 H 8.25 V 19.25 Z m 0,-14.667 V 2.75 H 8.25 V 4.583 Z M 10.083,19.25 v -1.833 h 1.833 V 19.25 Z m 0,-14.667 V 2.75 h 1.833 V 4.583 Z M 13.75,19.25 v -1.833 h 1.833 V 19.25 Z m 0,-14.667 V 2.75 h 1.833 V 4.583 Z M 17.417,19.25 v -1.833 h 1.833 q 0,0.756 -0.539,1.295 Q 18.173,19.25 17.417,19.25 Z m 0,-3.667 V 13.75 h 1.833 v 1.833 z m 0,-3.667 v -1.833 h 1.833 v 1.833 z m 0,-3.667 V 6.417 h 1.833 V 8.25 Z m 0,-3.667 V 2.75 q 0.756,0 1.295,0.539 0.539,0.539 0.539,1.295 z"
    class="ColorScheme-Text" fill="currentColor" />
</svg>