<svg height="22" width="22" xmlns="http://www.w3.org/2000/svg">
  <style type="text/css" id="current-color-scheme">
    .ColorScheme-Text {
      color: #e2e2e5;
    }
  </style>
  <path
    d="M 8.617,15.125 11,12.742 13.383,15.125 14.667,13.842 12.283,11.458 14.667,9.075 13.383,7.792 11,10.175 8.617,7.792 7.333,9.075 9.717,11.458 7.333,13.842 Z m -2.2,4.125 q -0.756,0 -1.295,-0.539 Q 4.583,18.173 4.583,17.417 V 5.5 H 3.667 V 3.667 H 8.25 V 2.75 h 5.5 v 0.917 h 4.583 V 5.5 h -0.917 v 11.917 q 0,0.756 -0.539,1.295 Q 16.34,19.25 15.583,19.25 Z M 15.583,5.5 H 6.417 v 11.917 h 9.167 z m -9.167,0 v 11.917 z"
    class="ColorScheme-Text" fill="currentColor" />
</svg>