<svg height="22" width="22" xmlns="http://www.w3.org/2000/svg">
  <style type="text/css" id="current-color-scheme">
    .ColorScheme-Text {
      color: #e2e2e5;
    }
  </style>
  <path
    d="M 18.127,20.717 12.994,15.583 H 6.417 V 9.006 L 1.283,3.873 2.567,2.567 19.433,19.433 Z M 8.25,13.75 h 2.91 L 8.25,10.84 Z M 15.583,12.994 13.75,11.16 V 8.25 H 10.84 L 9.006,6.417 h 6.577 z M 4.583,17.417 V 19.25 q -0.756,0 -1.295,-0.539 Q 2.75,18.173 2.75,17.417 Z M 2.75,15.583 V 13.75 h 1.833 v 1.833 z m 0,-3.667 v -1.833 h 1.833 v 1.833 z M 2.75,8.25 V 6.417 H 4.583 V 8.25 Z m 3.667,11 V 17.417 H 8.25 V 19.25 Z m 0,-14.667 V 2.75 H 8.25 V 4.583 Z M 10.083,19.25 v -1.833 h 1.833 V 19.25 Z m 0,-14.667 V 2.75 h 1.833 V 4.583 Z M 13.75,19.25 v -1.833 h 1.833 V 19.25 Z m 0,-14.667 V 2.75 h 1.833 V 4.583 Z M 17.417,15.583 V 13.75 H 19.25 v 1.833 z m 0,-3.667 V 10.083 H 19.25 v 1.833 z m 0,-3.667 V 6.417 H 19.25 V 8.25 Z m 0,-3.667 V 2.75 q 0.756,0 1.295,0.539 Q 19.25,3.827 19.25,4.583 Z"
    class="ColorScheme-Text" fill="currentColor" />
</svg>