<svg height="22" width="22" version="1.1" xmlns="http://www.w3.org/2000/svg" xmlns:svg="http://www.w3.org/2000/svg">
  <style type="text/css" id="current-color-scheme">
    .ColorScheme-Text {
      color: #e2e2e5;
    }
  </style>
  <path
    d="M 11.55,14.667 9.167,12.284 6.784,14.667 5.5,13.383 7.883,11 5.5,8.617 6.783,7.333 9.167,9.717 11.55,7.333 12.833,8.617 10.45,11 l 2.383,2.383 z m 2.2,3.667 q 0.435,0 0.825,-0.195 0.39,-0.195 0.642,-0.539 L 20.167,11 15.217,4.4 Q 14.965,4.056 14.575,3.861 14.185,3.667 13.75,3.667 H 3.667 Q 2.911,3.667 2.372,4.206 1.833,4.744 1.833,5.5 v 11 q 0,0.756 0.539,1.295 0.539,0.539 1.295,0.539 z M 17.875,11 13.75,16.5 H 3.667 V 5.5 H 13.75 Z m -9.167,0 z"
    class="ColorScheme-Text" fill="currentColor" />
</svg>