<svg height="22" width="22" xmlns="http://www.w3.org/2000/svg">
  <style type="text/css" id="current-color-scheme">
    .ColorScheme-Text {
      color: #e2e2e5;
    }
  </style>
  <path
    d="M 17.417,19.25 11,12.833 8.846,14.988 q 0.183,0.344 0.252,0.733 0.069,0.39 0.069,0.779 0,1.513 -1.077,2.59 Q 7.013,20.167 5.5,20.167 q -1.513,0 -2.59,-1.077 Q 1.833,18.013 1.833,16.5 q 0,-1.513 1.077,-2.59 Q 3.988,12.833 5.5,12.833 q 0.39,0 0.779,0.069 Q 6.669,12.971 7.013,13.154 L 9.167,11 7.013,8.846 Q 6.669,9.029 6.279,9.098 5.89,9.167 5.5,9.167 q -1.513,0 -2.59,-1.077 Q 1.833,7.013 1.833,5.5 q 0,-1.513 1.077,-2.59 Q 3.988,1.833 5.5,1.833 q 1.513,0 2.59,1.077 Q 9.167,3.988 9.167,5.5 q 0,0.39 -0.069,0.779 Q 9.029,6.669 8.846,7.013 L 20.167,18.333 V 19.25 Z M 13.75,10.083 11.917,8.25 l 5.5,-5.5 h 2.75 V 3.667 Z M 5.5,7.333 q 0.756,0 1.295,-0.539 Q 7.333,6.256 7.333,5.5 q 0,-0.756 -0.539,-1.295 Q 6.256,3.667 5.5,3.667 q -0.756,0 -1.295,0.539 Q 3.667,4.744 3.667,5.5 q 0,0.756 0.539,1.295 Q 4.744,7.333 5.5,7.333 Z M 11,11.458 q 0.183,0 0.321,-0.138 0.138,-0.138 0.138,-0.321 0,-0.183 -0.138,-0.321 -0.138,-0.138 -0.321,-0.138 -0.183,0 -0.321,0.138 -0.138,0.138 -0.138,0.321 0,0.183 0.138,0.321 0.138,0.138 0.321,0.138 z m -5.5,6.875 q 0.756,0 1.295,-0.539 Q 7.333,17.256 7.333,16.5 q 0,-0.756 -0.539,-1.295 Q 6.256,14.667 5.5,14.667 q -0.756,0 -1.295,0.539 Q 3.667,15.744 3.667,16.5 q 0,0.756 0.539,1.295 Q 4.744,18.333 5.5,18.333 Z"
    class="ColorScheme-Text" fill="currentColor" />
</svg>