<svg height="22" width="22" xmlns="http://www.w3.org/2000/svg">
  <style type="text/css" id="current-color-scheme">
    .ColorScheme-Text {
      color: #e2e2e5;
    }
  </style>
  <path
    d="M 8.25,16.5 Q 7.494,16.5 6.955,15.961 6.417,15.423 6.417,14.667 V 3.667 q 0,-0.756 0.539,-1.295 Q 7.494,1.833 8.25,1.833 h 8.25 q 0.756,0 1.295,0.539 0.539,0.539 0.539,1.295 V 14.667 q 0,0.756 -0.539,1.295 Q 17.256,16.5 16.5,16.5 Z m 0,-1.833 H 16.5 V 3.667 H 8.25 Z m -3.667,5.5 q -0.756,0 -1.295,-0.539 Q 2.75,19.09 2.75,18.333 V 5.5 H 4.583 V 18.333 H 14.667 v 1.833 z M 8.25,14.667 V 3.667 Z"
    class="ColorScheme-Text" fill="currentColor" />
</svg>