<svg height="22" width="22" xmlns="http://www.w3.org/2000/svg">
  <style type="text/css" id="current-color-scheme">
    .ColorScheme-Text {
      color: #e2e2e5;
    }
  </style>
  <path
    d="m 17.967,19.25 -5.775,-5.775 q -0.688,0.55 -1.581,0.871 -0.894,0.321 -1.902,0.321 -2.498,0 -4.228,-1.73 Q 2.75,11.206 2.75,8.708 2.75,6.21 4.48,4.48 6.21,2.75 8.708,2.75 q 2.498,0 4.228,1.73 1.73,1.73 1.73,4.228 0,1.008 -0.321,1.902 -0.321,0.894 -0.871,1.581 l 5.775,5.775 z M 8.708,12.833 q 1.719,0 2.922,-1.203 1.203,-1.203 1.203,-2.922 0,-1.719 -1.203,-2.922 -1.203,-1.203 -2.922,-1.203 -1.719,0 -2.922,1.203 -1.203,1.203 -1.203,2.922 0,1.719 1.203,2.922 1.203,1.203 2.922,1.203 z"
    class="ColorScheme-Text" fill="currentColor" />
</svg>