<svg height="22" width="22" xmlns="http://www.w3.org/2000/svg">
  <style type="text/css" id="current-color-scheme">
    .ColorScheme-Text {
      color: #e2e2e5;
    }
  </style>
  <path
    d="m 4.583,19.25 q -0.756,0 -1.295,-0.539 Q 2.75,18.173 2.75,17.417 V 4.583 q 0,-0.756 0.539,-1.295 Q 3.827,2.75 4.583,2.75 H 8.41 Q 8.663,1.948 9.396,1.432 10.129,0.917 11,0.917 q 0.917,0 1.639,0.516 Q 13.36,1.948 13.613,2.75 h 3.804 q 0.756,0 1.295,0.539 Q 19.25,3.827 19.25,4.583 V 17.417 q 0,0.756 -0.539,1.295 Q 18.173,19.25 17.417,19.25 Z m 0,-1.833 H 17.417 V 4.583 H 15.583 V 7.333 H 6.417 V 4.583 H 4.583 Z M 11,4.583 q 0.39,0 0.653,-0.264 0.264,-0.264 0.264,-0.653 0,-0.39 -0.264,-0.653 Q 11.39,2.75 11,2.75 q -0.39,0 -0.653,0.264 -0.264,0.264 -0.264,0.653 0,0.39 0.264,0.653 Q 10.61,4.583 11,4.583 Z"
    class="ColorScheme-Text" fill="currentColor" />
</svg>