<svg height="22" width="22" xmlns="http://www.w3.org/2000/svg">
  <style type="text/css" id="current-color-scheme">
    .ColorScheme-Text {
      color: #e2e2e5;
    }
  </style>
  <path
    d="m 10.45,14.667 2.383,-2.383 2.383,2.383 L 16.5,13.383 14.117,11 16.5,8.617 15.217,7.333 12.833,9.717 10.45,7.333 9.167,8.617 11.55,11 9.167,13.383 Z m -2.2,3.667 q -0.435,0 -0.825,-0.195 Q 7.035,17.944 6.783,17.6 L 1.833,11 6.783,4.4 Q 7.035,4.056 7.425,3.861 7.815,3.667 8.25,3.667 h 10.083 q 0.756,0 1.295,0.539 Q 20.167,4.744 20.167,5.5 v 11 q 0,0.756 -0.539,1.295 -0.539,0.539 -1.295,0.539 z M 4.125,11 8.25,16.5 H 18.333 V 5.5 H 8.25 Z m 9.167,0 z"
    class="ColorScheme-Text" fill="currentColor" />
</svg>