<svg height="22" width="22" xmlns="http://www.w3.org/2000/svg">
  <style type="text/css" id="current-color-scheme">
    .ColorScheme-Text {
      color: #e2e2e5;
    }
  </style>
  <path
    d="m 11,20.167 q -1.902,0 -3.575,-0.722 Q 5.752,18.723 4.515,17.485 3.277,16.248 2.555,14.575 1.833,12.902 1.833,11 q 0,-1.902 0.722,-3.575 Q 3.277,5.752 4.515,4.515 5.752,3.277 7.425,2.555 9.098,1.833 11,1.833 q 1.902,0 3.575,0.722 1.673,0.722 2.91,1.959 1.238,1.238 1.959,2.91 0.722,1.673 0.722,3.575 0,1.902 -0.722,3.575 -0.722,1.673 -1.959,2.91 -1.238,1.238 -2.91,1.959 Q 12.902,20.167 11,20.167 Z M 10.083,18.288 V 16.5 Q 9.327,16.5 8.789,15.961 8.25,15.423 8.25,14.667 V 13.75 L 3.85,9.35 Q 3.781,9.763 3.724,10.175 3.667,10.588 3.667,11 q 0,2.773 1.822,4.858 1.822,2.085 4.595,2.429 z m 6.325,-2.338 q 0.458,-0.504 0.825,-1.089 Q 17.6,14.277 17.841,13.647 18.081,13.017 18.207,12.352 18.333,11.688 18.333,11 q 0,-2.246 -1.249,-4.102 -1.249,-1.856 -3.334,-2.681 v 0.367 q 0,0.756 -0.539,1.295 -0.539,0.539 -1.295,0.539 H 10.083 V 8.25 q 0,0.39 -0.264,0.653 Q 9.556,9.167 9.167,9.167 H 7.333 V 11 h 5.5 q 0.39,0 0.653,0.264 Q 13.75,11.527 13.75,11.917 v 2.75 h 0.917 q 0.596,0 1.077,0.355 0.481,0.355 0.665,0.928 z"
    class="ColorScheme-Text" fill="currentColor" />
</svg>