<svg height="22" width="22" xmlns="http://www.w3.org/2000/svg">
  <style type="text/css" id="current-color-scheme">
    .ColorScheme-Text {
      color: #e2e2e5;
    }
  </style>
  <path
    d="M 11,11 Q 9.488,11 8.41,9.923 7.333,8.846 7.333,7.333 q 0,-1.513 1.077,-2.59 Q 9.488,3.667 11,3.667 q 1.513,0 2.59,1.077 1.077,1.077 1.077,2.59 0,1.513 -1.077,2.59 Q 12.513,11 11,11 Z m -7.333,7.333 v -2.567 q 0,-0.779 0.401,-1.432 Q 4.469,13.681 5.133,13.338 6.554,12.627 8.021,12.272 9.488,11.917 11,11.917 q 1.513,0 2.979,0.355 1.467,0.355 2.888,1.066 0.665,0.344 1.066,0.997 0.401,0.653 0.401,1.432 v 2.567 z M 5.5,16.5 h 11 v -0.733 q 0,-0.252 -0.126,-0.458 Q 16.248,15.102 16.042,14.988 14.804,14.369 13.544,14.059 12.283,13.75 11,13.75 9.717,13.75 8.456,14.059 7.196,14.369 5.958,14.988 5.752,15.102 5.626,15.308 5.5,15.515 5.5,15.767 Z M 11,9.167 q 0.756,0 1.295,-0.539 0.539,-0.539 0.539,-1.295 0,-0.756 -0.539,-1.295 Q 11.756,5.5 11,5.5 10.244,5.5 9.705,6.039 9.167,6.577 9.167,7.333 q 0,0.756 0.539,1.295 Q 10.244,9.167 11,9.167 Z M 11,7.333 Z M 11,16.5 Z"
    class="ColorScheme-Text" fill="currentColor" />
</svg>