<svg height="22" width="22" xmlns="http://www.w3.org/2000/svg">
  <style type="text/css" id="current-color-scheme">
    .ColorScheme-Text {
      color: #e2e2e5;
    }
  </style>
  <path
    d="M 20.167,20.167 16.5,16.5 H 7.333 q -0.756,0 -1.295,-0.539 Q 5.5,15.423 5.5,14.667 V 13.75 h 10.083 q 0.756,0 1.295,-0.539 0.539,-0.539 0.539,-1.295 V 5.5 h 0.917 q 0.756,0 1.295,0.539 0.539,0.539 0.539,1.295 z M 3.667,11.16 4.744,10.083 H 13.75 V 3.667 H 3.667 Z M 1.833,15.583 V 3.667 q 0,-0.756 0.539,-1.295 Q 2.91,1.833 3.667,1.833 H 13.75 q 0.756,0 1.295,0.539 0.539,0.539 0.539,1.295 v 6.417 q 0,0.756 -0.539,1.295 Q 14.506,11.917 13.75,11.917 H 5.5 Z m 1.833,-5.5 V 3.667 Z"
    class="ColorScheme-Text" fill="currentColor" />
</svg>