<svg height="22" width="22" xmlns="http://www.w3.org/2000/svg">
  <style type="text/css" id="current-color-scheme">
    .ColorScheme-Text {
      color: #e2e2e5;
    }
  </style>
  <path
    d="M 1.833,9.167 Q 1.833,6.875 2.853,4.961 3.873,3.048 5.592,1.788 L 6.669,3.254 Q 5.294,4.263 4.48,5.798 3.667,7.333 3.667,9.167 Z m 16.5,0 q 0,-1.833 -0.814,-3.369 Q 16.706,4.263 15.331,3.254 L 16.408,1.788 q 1.719,1.26 2.739,3.174 Q 20.167,6.875 20.167,9.167 Z M 3.667,17.417 V 15.583 H 5.5 V 9.167 Q 5.5,7.265 6.646,5.786 7.792,4.308 9.625,3.85 V 3.208 Q 9.625,2.635 10.026,2.234 10.427,1.833 11,1.833 q 0.573,0 0.974,0.401 Q 12.375,2.635 12.375,3.208 V 3.85 Q 14.208,4.308 15.354,5.786 16.5,7.265 16.5,9.167 v 6.417 h 1.833 v 1.833 z M 11,10.542 Z m 0,9.625 q -0.756,0 -1.295,-0.539 -0.539,-0.539 -0.539,-1.295 h 3.667 q 0,0.756 -0.539,1.295 Q 11.756,20.167 11,20.167 Z M 7.333,15.583 H 14.667 V 9.167 q 0,-1.513 -1.077,-2.59 Q 12.513,5.5 11,5.5 9.488,5.5 8.41,6.577 7.333,7.654 7.333,9.167 Z"
    class="ColorScheme-Text" fill="currentColor" />
</svg>