<svg height="22" width="22" xmlns="http://www.w3.org/2000/svg">
  <style type="text/css" id="current-color-scheme">
    .ColorScheme-Text {
      color: #e2e2e5;
    }
  </style>
  <path
    d="M 3.667,17.417 V 15.583 H 5.5 V 9.167 Q 5.5,8.41 5.695,7.677 5.89,6.944 6.279,6.279 l 1.375,1.375 Q 7.494,8.021 7.414,8.399 7.333,8.777 7.333,9.167 V 15.583 H 13.017 L 1.283,3.85 2.567,2.567 19.433,19.433 18.15,20.717 l -3.346,-3.3 z M 16.5,13.888 14.667,12.054 V 9.167 q 0,-1.513 -1.077,-2.59 Q 12.513,5.5 11,5.5 q -0.596,0 -1.146,0.183 -0.55,0.183 -1.008,0.55 L 7.517,4.904 Q 7.975,4.538 8.502,4.263 9.029,3.988 9.625,3.85 V 3.208 Q 9.625,2.635 10.026,2.234 10.427,1.833 11,1.833 q 0.573,0 0.974,0.401 Q 12.375,2.635 12.375,3.208 V 3.85 Q 14.208,4.308 15.354,5.786 16.5,7.265 16.5,9.167 Z m -6.325,-1.146 z m 0.825,7.425 q -0.756,0 -1.295,-0.539 -0.539,-0.539 -0.539,-1.295 h 3.667 q 0,0.756 -0.539,1.295 Q 11.756,20.167 11,20.167 Z M 11.756,9.144 Z"
    class="ColorScheme-Text" fill="currentColor" />
</svg>