<svg height="22" width="22" xmlns="http://www.w3.org/2000/svg">
  <style type="text/css" id="current-color-scheme">
    .ColorScheme-Text {
      color: #e2e2e5;
    }
  </style>
  <!-- <ellipse cx="16.501" cy="16.501" fill="#ff0000" style="stroke-width:1" rx="6.424" ry="6.424" /> -->
  <path
    d="M 10.082 1.832 L 10.082 11.918 L 11.916 11.918 L 11.916 1.832 L 10.082 1.832 z M 17.484 4.514 L 16.201 5.797 C 16.874 6.47 17.397 7.249 17.771 8.135 C 18.063 8.826 18.241 9.561 18.305 10.336 A 6.424 6.424 0 0 1 20.162 11.225 C 20.164 11.15 20.168 11.075 20.168 11 C 20.168 9.717 19.925 8.52 19.443 7.412 C 18.963 6.305 18.31 5.339 17.484 4.514 z M 4.514 4.516 C 3.689 5.341 3.036 6.307 2.555 7.414 C 2.073 8.521 1.832 9.717 1.832 11 C 1.832 12.268 2.073 13.459 2.555 14.574 C 3.036 15.69 3.69 16.66 4.516 17.484 C 5.34 18.31 6.31 18.964 7.426 19.445 C 8.541 19.927 9.732 20.168 11 20.168 L 11.002 20.166 C 11.081 20.166 11.158 20.162 11.236 20.16 A 6.424 6.424 0 0 1 10.336 18.305 C 8.575 18.166 7.063 17.466 5.799 16.201 C 4.378 14.781 3.668 13.047 3.668 11 C 3.668 9.977 3.855 9.021 4.229 8.135 C 4.603 7.249 5.127 6.471 5.799 5.799 L 4.514 4.516 z"
    class="ColorScheme-Text" fill="currentColor" />
  <path
    d="M 16.5,21.083 q -1.902,0 -3.243,-1.341 Q 11.917,18.402 11.917,16.5 q 0,-1.902 1.341,-3.243 1.341,-1.341 3.243,-1.341 1.902,0 3.243,1.341 1.341,1.341 1.341,3.243 0,1.902 -1.341,3.243 Q 18.402,21.083 16.5,21.083 Z m 0,-1.833 2.75,-2.75 -0.642,-0.642 -1.65,1.65 V 13.75 h -0.917 v 3.758 l -1.65,-1.65 L 13.75,16.5 Z"
    class="ColorScheme-Text" fill="currentColor" />
</svg>