<svg height="22" width="22" xmlns="http://www.w3.org/2000/svg">
  <style type="text/css" id="current-color-scheme">
    .ColorScheme-Text {
      color: #e2e2e5;
    }
  </style>
  <path
    d="m 0,16.5 v -1.444 q 0,-0.985 1.008,-1.604 1.008,-0.619 2.658,-0.619 0.298,0 0.573,0.011 0.275,0.011 0.527,0.057 -0.321,0.481 -0.481,1.008 Q 4.125,14.438 4.125,15.01 V 16.5 Z m 5.5,0 V 15.01 Q 5.5,14.277 5.901,13.67 6.302,13.063 7.035,12.604 7.769,12.146 8.789,11.917 9.808,11.688 11,11.688 q 1.215,0 2.234,0.229 1.02,0.229 1.753,0.688 0.733,0.458 1.123,1.066 Q 16.5,14.277 16.5,15.01 V 16.5 Z m 12.375,0 v -1.49 q 0,-0.596 -0.149,-1.123 -0.149,-0.527 -0.447,-0.985 0.252,-0.046 0.516,-0.057 0.264,-0.011 0.539,-0.011 1.65,0 2.658,0.607 Q 22,14.048 22,15.056 V 16.5 Z M 7.448,14.667 H 14.575 Q 14.346,14.208 13.303,13.865 12.26,13.521 11,13.521 q -1.26,0 -2.303,0.344 -1.043,0.344 -1.249,0.802 z m -3.781,-2.75 q -0.756,0 -1.295,-0.539 -0.539,-0.539 -0.539,-1.295 0,-0.779 0.539,-1.306 Q 2.91,8.25 3.667,8.25 q 0.779,0 1.306,0.527 Q 5.5,9.304 5.5,10.083 q 0,0.756 -0.527,1.295 -0.527,0.539 -1.306,0.539 z m 14.667,0 q -0.756,0 -1.295,-0.539 Q 16.5,10.84 16.5,10.083 16.5,9.304 17.039,8.777 17.577,8.25 18.333,8.25 q 0.779,0 1.306,0.527 0.527,0.527 0.527,1.306 0,0.756 -0.527,1.295 -0.527,0.539 -1.306,0.539 z M 11,11 Q 9.854,11 9.052,10.198 8.25,9.396 8.25,8.25 8.25,7.081 9.052,6.291 9.854,5.5 11,5.5 12.169,5.5 12.959,6.291 13.75,7.081 13.75,8.25 q 0,1.146 -0.791,1.948 Q 12.169,11 11,11 Z m 0,-1.833 q 0.39,0 0.653,-0.264 0.264,-0.264 0.264,-0.653 0,-0.39 -0.264,-0.653 Q 11.39,7.333 11,7.333 q -0.39,0 -0.653,0.264 -0.264,0.264 -0.264,0.653 0,0.39 0.264,0.653 Q 10.61,9.167 11,9.167 Z m 0.023,5.5 z M 11,8.25 Z"
    class="ColorScheme-Text" fill="currentColor" />
</svg>