<svg height="22" width="22" version="1.1" xmlns="http://www.w3.org/2000/svg" xmlns:svg="http://www.w3.org/2000/svg">
  <style type="text/css" id="current-color-scheme">
    .ColorScheme-Text {
      color: #e2e2e5;
    }
  </style>
  <path
    d="M 10.083,19.204 Q 7.31,18.86 5.489,16.786 3.667,14.713 3.667,11.917 q 0,-1.513 0.596,-2.899 Q 4.858,7.631 5.958,6.6 l 1.306,1.306 Q 6.394,8.685 5.947,9.717 5.5,10.748 5.5,11.917 q 0,2.017 1.283,3.564 1.283,1.547 3.3,1.891 z m 1.833,0 V 17.371 Q 13.91,17.004 15.205,15.469 16.5,13.933 16.5,11.917 16.5,9.625 14.896,8.021 13.292,6.417 11,6.417 H 10.931 L 11.94,7.425 10.656,8.708 7.448,5.5 10.656,2.292 11.94,3.575 10.931,4.583 H 11 q 3.071,0 5.202,2.131 2.131,2.131 2.131,5.202 0,2.773 -1.822,4.847 -1.822,2.074 -4.595,2.441 z"
    class="ColorScheme-Text" fill="currentColor" />
</svg>