<svg height="22" width="22" xmlns="http://www.w3.org/2000/svg">
  <style type="text/css" id="current-color-scheme">
    .ColorScheme-Text {
      color: #e2e2e5;
    }
  </style>
  <path
    d="m 11.092,20.167 q -1.925,0 -3.609,-0.733 Q 5.798,18.7 4.549,17.451 3.3,16.202 2.567,14.518 1.833,12.833 1.833,10.908 q 0,-3.346 2.131,-5.901 2.131,-2.555 5.431,-3.174 -0.413,2.269 0.252,4.434 0.665,2.166 2.292,3.793 1.627,1.627 3.793,2.292 2.166,0.665 4.434,0.252 -0.596,3.3 -3.163,5.431 -2.567,2.131 -5.913,2.131 z m 0,-1.833 q 2.017,0 3.735,-1.008 1.719,-1.008 2.704,-2.773 Q 15.56,14.369 13.796,13.555 12.031,12.742 10.633,11.344 9.235,9.946 8.41,8.181 7.585,6.417 7.425,4.446 5.66,5.431 4.664,7.161 q -0.997,1.73 -0.997,3.747 0,3.094 2.166,5.259 2.166,2.166 5.259,2.166 z M 10.633,11.344 Z"
    class="ColorScheme-Text" fill="currentColor" />
</svg>