<svg height="22" width="22" xmlns="http://www.w3.org/2000/svg">
  <style type="text/css" id="current-color-scheme">
    .ColorScheme-Text {
      color: #e2e2e5;
    }
  </style>
  <!-- <ellipse cx="16.501" cy="16.501" fill="#ff0000" style="stroke-width:1" rx="6.424" ry="6.424" /> -->
  <path
    d="M 10.656 2.293 L 7.447 5.5 L 10.656 8.707 L 11.939 7.426 L 10.932 6.418 L 11 6.418 C 12.528 6.418 13.827 6.952 14.896 8.021 C 15.512 8.637 15.95 9.329 16.211 10.098 A 6.424 6.424 0 0 1 16.502 10.076 A 6.424 6.424 0 0 1 18.17 10.299 C 17.887 8.939 17.231 7.745 16.201 6.715 C 14.781 5.294 13.047 4.582 11 4.582 L 10.932 4.582 L 11.939 3.574 L 10.656 2.293 z M 5.957 6.6 C 5.224 7.287 4.66 8.093 4.264 9.018 C 3.866 9.942 3.668 10.909 3.668 11.918 C 3.668 13.782 4.274 15.403 5.488 16.785 C 6.702 18.168 8.233 18.974 10.082 19.203 L 10.082 17.371 C 8.737 17.142 7.639 16.512 6.783 15.48 C 5.928 14.449 5.5 13.263 5.5 11.918 C 5.5 11.139 5.649 10.404 5.947 9.717 C 6.245 9.029 6.684 8.426 7.264 7.906 L 5.957 6.6 z"
    class="ColorScheme-Text" fill="currentColor" />
  <path
    d="M 16.5,21.083 q -1.902,0 -3.243,-1.341 Q 11.917,18.402 11.917,16.5 q 0,-1.902 1.341,-3.243 1.341,-1.341 3.243,-1.341 1.902,0 3.243,1.341 1.341,1.341 1.341,3.243 0,1.902 -1.341,3.243 Q 18.402,21.083 16.5,21.083 Z m 0,-1.833 2.75,-2.75 -0.642,-0.642 -1.65,1.65 V 13.75 h -0.917 v 3.758 l -1.65,-1.65 L 13.75,16.5 Z"
    class="ColorScheme-Text" fill="currentColor" />
</svg>