<svg height="22" width="22" xmlns="http://www.w3.org/2000/svg">
  <style type="text/css" id="current-color-scheme">
    .ColorScheme-Text {
      color: #e2e2e5;
    }
  </style>
  <path
    d="M 10.083,20.167 V 16.363 L 7.104,19.296 5.821,18.013 10.083,13.75 V 11.917 H 8.25 L 3.988,16.179 2.704,14.896 5.638,11.917 H 1.833 V 10.083 H 5.638 L 2.704,7.104 3.988,5.821 8.25,10.083 h 1.833 V 8.25 L 5.821,3.988 7.104,2.704 10.083,5.638 V 1.833 h 1.833 V 5.638 L 14.896,2.704 16.179,3.988 11.917,8.25 v 1.833 H 13.75 L 18.013,5.821 19.296,7.104 16.363,10.083 h 3.804 v 1.833 H 16.363 l 2.933,2.979 -1.283,1.283 -4.263,-4.263 H 11.917 V 13.75 l 4.263,4.263 -1.283,1.283 -2.979,-2.933 v 3.804 z"
    class="ColorScheme-Text" fill="currentColor" />
</svg>