<svg height="22" width="22" xmlns="http://www.w3.org/2000/svg">
  <style type="text/css" id="current-color-scheme">
    .ColorScheme-Text {
      color: #e2e2e5;
    }
  </style>
  <path
    d="m 11,20.167 q -1.902,0 -3.575,-0.722 Q 5.752,18.723 4.515,17.485 3.277,16.248 2.555,14.575 1.833,12.902 1.833,11 q 0,-1.925 0.722,-3.586 0.722,-1.661 1.959,-2.899 L 5.798,5.798 Q 4.79,6.806 4.228,8.135 3.667,9.465 3.667,11 q 0,3.071 2.131,5.202 2.131,2.131 5.202,2.131 3.071,0 5.202,-2.131 2.131,-2.131 2.131,-5.202 0,-1.535 -0.561,-2.865 -0.561,-1.329 -1.57,-2.338 l 1.283,-1.283 q 1.238,1.238 1.959,2.899 Q 20.167,9.075 20.167,11 q 0,1.902 -0.722,3.575 -0.722,1.673 -1.959,2.91 -1.238,1.238 -2.91,1.959 -1.673,0.722 -3.575,0.722 z m -0.917,-8.25 V 1.833 h 1.833 V 11.917 Z"
    class="ColorScheme-Text" fill="currentColor" />
</svg>