<svg height="22" width="22" version="1.1" xmlns="http://www.w3.org/2000/svg" xmlns:svg="http://www.w3.org/2000/svg">
  <style type="text/css" id="current-color-scheme">
    .ColorScheme-Text {
      color: #e2e2e5;
    }
  </style>
  <path
    d="m 9.029,14.667 q -0.321,0 -0.55,-0.229 Q 8.25,14.208 8.25,13.888 v -3.025 q 0,-0.321 0.229,-0.55 0.229,-0.229 0.55,-0.229 h 0.138 V 9.167 q 0,-0.756 0.539,-1.295 Q 10.244,7.333 11,7.333 q 0.756,0 1.295,0.539 0.539,0.539 0.539,1.295 v 0.917 h 0.138 q 0.321,0 0.55,0.229 0.229,0.229 0.229,0.55 v 3.025 q 0,0.321 -0.229,0.55 -0.229,0.229 -0.55,0.229 z m 1.054,-4.583 h 1.833 V 9.167 q 0,-0.39 -0.264,-0.653 Q 11.39,8.25 11,8.25 q -0.39,0 -0.653,0.264 -0.264,0.264 -0.264,0.653 z"
    class="ColorScheme-Text" fill="currentColor" />
  <path
    d="M 2.75 4.582 C 2.246 4.582 1.814 4.762 1.455 5.121 C 1.096 5.48 0.918 5.914 0.918 6.418 L 0.918 15.582 C 0.918 16.087 1.096 16.52 1.455 16.879 C 1.814 17.238 2.246 17.418 2.75 17.418 L 19.25 17.418 C 19.754 17.418 20.186 17.238 20.545 16.879 C 20.904 16.52 21.084 16.088 21.084 15.584 L 21.084 6.418 C 21.084 5.914 20.904 5.48 20.545 5.121 C 20.186 4.762 19.754 4.582 19.25 4.582 L 2.75 4.582 z M 2.75 6.418 L 19.25 6.418 L 19.25 15.582 L 2.75 15.582 L 2.75 6.418 z "
    class="ColorScheme-Text" fill="currentColor" />
</svg>