<svg height="22" width="22" xmlns="http://www.w3.org/2000/svg">
  <style type="text/css" id="current-color-scheme">
    .ColorScheme-Text {
      color: #e2e2e5;
    }
  </style>
  <path
    d="m 3.667,18.333 q -0.756,0 -1.295,-0.539 Q 1.833,17.256 1.833,16.5 V 13.75 H 3.667 V 16.5 H 18.333 V 5.5 H 3.667 V 8.25 H 1.833 V 5.5 q 0,-0.756 0.539,-1.295 Q 2.91,3.667 3.667,3.667 H 18.333 q 0.756,0 1.295,0.539 Q 20.167,4.744 20.167,5.5 v 11 q 0,0.756 -0.539,1.295 -0.539,0.539 -1.295,0.539 z M 10.542,15.125 9.258,13.796 11.16,11.917 H 1.833 V 10.083 H 11.16 L 9.258,8.204 10.542,6.875 14.667,11 Z"
    class="ColorScheme-Text" fill="currentColor" />
</svg>