<svg height="22" width="22" xmlns="http://www.w3.org/2000/svg">
  <style type="text/css" id="current-color-scheme">
    .ColorScheme-Text {
      color: #e2e2e5;
    }
  </style>
  <path
    d="m 11,14.667 q 1.719,0 2.922,-1.203 Q 15.125,12.26 15.125,10.542 15.125,8.823 13.922,7.62 12.719,6.417 11,6.417 q -1.719,0 -2.922,1.203 Q 6.875,8.823 6.875,10.542 q 0,1.719 1.203,2.922 Q 9.281,14.667 11,14.667 Z m 0,-1.65 q -1.031,0 -1.753,-0.722 Q 8.525,11.573 8.525,10.542 8.525,9.51 9.247,8.789 9.969,8.067 11,8.067 q 1.031,0 1.753,0.722 0.722,0.722 0.722,1.753 0,1.031 -0.722,1.753 Q 12.031,13.017 11,13.017 Z m 0,4.4 q -3.346,0 -6.096,-1.868 -2.75,-1.868 -3.988,-5.007 Q 2.154,7.402 4.904,5.534 7.654,3.667 11,3.667 q 3.346,0 6.096,1.868 2.75,1.868 3.988,5.007 -1.238,3.14 -3.988,5.007 -2.75,1.868 -6.096,1.868 z m 0,-6.875 z m 0,5.042 q 2.59,0 4.755,-1.364 2.166,-1.364 3.311,-3.678 Q 17.921,8.227 15.755,6.864 13.59,5.5 11,5.5 8.41,5.5 6.245,6.864 4.079,8.227 2.933,10.542 4.079,12.856 6.245,14.22 8.41,15.583 11,15.583 Z"
    class="ColorScheme-Text" fill="currentColor" />
</svg>