<svg viewBox="0 0 22 22" xmlns="http://www.w3.org/2000/svg">
  <defs>
    <style type="text/css" id="current-color-scheme">
      .ColorScheme-Text {
        color: #e2e2e5;
      }
    </style>
  </defs>
  <path
    d="m 11,15.125 q 1.719,0 2.922,-1.203 Q 15.125,12.719 15.125,11 15.125,9.281 13.922,8.078 12.719,6.875 11,6.875 q -1.719,0 -2.922,1.203 Q 6.875,9.281 6.875,11 q 0,1.719 1.203,2.922 Q 9.281,15.125 11,15.125 Z m 0,-1.65 q -1.031,0 -1.753,-0.722 Q 8.525,12.031 8.525,11 q 0,-1.031 0.722,-1.753 Q 9.969,8.525 11,8.525 q 1.031,0 1.753,0.722 Q 13.475,9.969 13.475,11 q 0,1.031 -0.722,1.753 Q 12.031,13.475 11,13.475 Z m 0,4.4 q -3.346,0 -6.096,-1.868 Q 2.154,14.14 0.917,11 2.154,7.86 4.904,5.993 7.654,4.125 11,4.125 q 3.346,0 6.096,1.868 2.75,1.868 3.988,5.007 -1.238,3.14 -3.988,5.007 Q 14.346,17.875 11,17.875 Z M 11,11 Z m 0,5.042 q 2.59,0 4.755,-1.364 Q 17.921,13.315 19.067,11 17.921,8.685 15.755,7.322 13.59,5.958 11,5.958 q -2.59,0 -4.755,1.364 Q 4.079,8.685 2.933,11 4.079,13.315 6.245,14.678 8.41,16.042 11,16.042 Z"
    class="ColorScheme-Text" fill="currentColor" />
</svg>