<svg height="22" width="22" xmlns="http://www.w3.org/2000/svg">
  <style type="text/css" id="current-color-scheme">
    .ColorScheme-Text {
      color: #e2e2e5;
    }
  </style>
  <path
    d="M 14.758,12.192 13.429,10.863 Q 13.635,9.785 12.81,8.846 11.985,7.906 10.679,8.113 L 9.35,6.783 Q 9.74,6.6 10.141,6.508 10.542,6.417 11,6.417 q 1.719,0 2.922,1.203 1.203,1.203 1.203,2.922 0,0.458 -0.092,0.859 -0.092,0.401 -0.275,0.791 z m 2.933,2.888 L 16.363,13.796 Q 17.233,13.131 17.909,12.341 18.585,11.55 19.067,10.542 17.921,8.227 15.778,6.864 13.635,5.5 11,5.5 10.335,5.5 9.694,5.592 9.052,5.683 8.433,5.867 L 7.013,4.446 Q 7.952,4.056 8.938,3.861 9.923,3.667 11,3.667 q 3.46,0 6.165,1.914 2.704,1.914 3.919,4.961 -0.527,1.352 -1.386,2.509 -0.859,1.157 -2.005,2.028 z M 18.15,20.717 14.3,16.913 Q 13.498,17.165 12.684,17.291 11.871,17.417 11,17.417 q -3.46,0 -6.165,-1.914 Q 2.131,13.59 0.917,10.542 1.398,9.327 2.131,8.284 2.865,7.242 3.804,6.417 L 1.283,3.85 2.567,2.567 19.433,19.433 Z M 5.088,7.7 q -0.665,0.596 -1.215,1.306 -0.55,0.71 -0.94,1.535 1.146,2.315 3.289,3.678 2.143,1.364 4.778,1.364 0.458,0 0.894,-0.057 Q 12.329,15.469 12.788,15.4 l -0.825,-0.871 q -0.252,0.069 -0.481,0.103 -0.229,0.034 -0.481,0.034 -1.719,0 -2.922,-1.203 Q 6.875,12.26 6.875,10.542 q 0,-0.252 0.034,-0.481 Q 6.944,9.831 7.013,9.579 Z m 7.31,2.131 z M 8.938,11.55 Z"
    class="ColorScheme-Text" fill="currentColor" />
</svg>