<svg viewBox="0 0 22 22" xmlns="http://www.w3.org/2000/svg">
  <defs>
    <style type="text/css" id="current-color-scheme">
      .ColorScheme-Text {
        color: #e2e2e5;
      }
    </style>
  </defs>
  <path
    d="m 14.758,12.65 -1.329,-1.329 q 0.206,-1.077 -0.619,-2.017 -0.825,-0.94 -2.131,-0.733 L 9.35,7.242 q 0.39,-0.183 0.791,-0.275 Q 10.542,6.875 11,6.875 q 1.719,0 2.922,1.203 Q 15.125,9.281 15.125,11 q 0,0.458 -0.092,0.859 -0.092,0.401 -0.275,0.791 z M 17.692,15.538 16.363,14.254 Q 17.233,13.59 17.909,12.799 18.585,12.008 19.067,11 17.921,8.685 15.778,7.322 13.635,5.958 11,5.958 10.335,5.958 9.694,6.05 9.052,6.142 8.433,6.325 L 7.013,4.904 Q 7.952,4.515 8.938,4.32 9.923,4.125 11,4.125 q 3.46,0 6.165,1.914 Q 19.869,7.952 21.083,11 20.556,12.352 19.697,13.509 18.838,14.667 17.692,15.538 Z M 18.15,21.175 14.3,17.371 Q 13.498,17.623 12.684,17.749 11.871,17.875 11,17.875 7.54,17.875 4.835,15.961 2.131,14.048 0.917,11 1.398,9.785 2.131,8.743 2.865,7.7 3.804,6.875 L 1.283,4.308 2.567,3.025 19.433,19.892 Z M 5.088,8.158 Q 4.423,8.754 3.873,9.465 3.323,10.175 2.933,11 4.079,13.315 6.222,14.678 8.365,16.042 11,16.042 q 0.458,0 0.894,-0.057 0.435,-0.057 0.894,-0.126 L 11.963,14.988 Q 11.71,15.056 11.481,15.091 11.252,15.125 11,15.125 9.281,15.125 8.078,13.922 6.875,12.719 6.875,11 6.875,10.748 6.909,10.519 6.944,10.29 7.013,10.038 Z m 7.31,2.131 z M 8.938,12.008 Z"
    class="ColorScheme-Text" fill="currentColor" />
</svg>