<svg height="22" width="22" xmlns="http://www.w3.org/2000/svg">
  <style type="text/css" id="current-color-scheme">
    .ColorScheme-Text {
      color: #e2e2e5;
    }
  </style>
  <path
    d="m 3.667,20.167 q -0.756,0 -1.295,-0.539 -0.539,-0.539 -0.539,-1.295 v -8.25 q 0,-0.756 0.539,-1.295 Q 2.91,8.25 3.667,8.25 H 5.5 V 3.667 Q 5.5,2.91 6.039,2.372 6.577,1.833 7.333,1.833 H 18.333 q 0.756,0 1.295,0.539 0.539,0.539 0.539,1.295 v 8.25 q 0,0.756 -0.539,1.295 Q 19.09,13.75 18.333,13.75 H 16.5 v 4.583 q 0,0.756 -0.539,1.295 -0.539,0.539 -1.295,0.539 z m 0,-1.833 H 14.667 V 11.917 H 3.667 Z M 16.5,11.917 h 1.833 V 5.5 H 7.333 v 2.75 h 7.333 q 0.756,0 1.295,0.539 Q 16.5,9.327 16.5,10.083 Z"
    class="ColorScheme-Text" fill="currentColor" />
</svg>