<svg height="32" width="32" xmlns="http://www.w3.org/2000/svg">
  <style type="text/css" id="current-color-scheme">
    .ColorScheme-Text {
      color: #e2e2e5;
    }
  </style>
  <path
    d="M 14.911,29.022 V 18.667 L 8.556,25.022 7,23.467 14.467,16 7,8.533 8.556,6.978 14.911,13.333 V 2.978 h 1.111 l 7.289,7.289 -5.733,5.733 5.733,5.733 -7.289,7.289 z m 2.222,-15.689 3.067,-3.067 -3.067,-3 z m 0,11.4 3.067,-3 -3.067,-3.067 z M 6.667,17.733 q -0.731,0 -1.244,-0.506 Q 4.911,16.722 4.911,16 q 0,-0.722 0.512,-1.25 0.512,-0.528 1.244,-0.528 0.731,0 1.244,0.528 0.512,0.528 0.512,1.25 0,0.722 -0.512,1.228 -0.512,0.506 -1.244,0.506 z m 18.667,0 q -0.731,0 -1.244,-0.506 -0.512,-0.505 -0.512,-1.228 0,-0.722 0.512,-1.25 0.512,-0.528 1.244,-0.528 0.731,0 1.244,0.528 0.512,0.528 0.512,1.25 0,0.722 -0.512,1.228 -0.512,0.506 -1.244,0.506 z"
    class="ColorScheme-Text" fill="currentColor" />
</svg>