<svg viewBox="0 0 48 48" xmlns="http://www.w3.org/2000/svg">
  <defs>
    <style type="text/css" id="current-color-scheme">
      .ColorScheme-Accent {
        color: #95ccff;
      }

      .ColorScheme-Background {
        color: #1e2022;
      }
    </style>
    <path id="folder-back" d="M 4,40 V 8 h 17.05 l 3,3 H 44 v 29 z" />
  </defs>
  <use href="#folder-back" class="ColorScheme-Accent" fill="currentColor" />
  <use href="#folder-back" class="ColorScheme-Background" fill="currentColor" opacity="0.3" />
  <path d="M 4,40 V 14 h 17.05 l 3,-3 H 44 v 29 z" class="ColorScheme-Accent" fill="currentColor" />
  <path
    d="m 15.177,33.417 v -2.246 q 0,-0.682 0.351,-1.253 0.351,-0.571 0.932,-0.872 1.243,-0.622 2.527,-0.932 1.283,-0.311 2.607,-0.311 1.323,0 2.607,0.311 1.283,0.311 2.527,0.932 0.582,0.301 0.932,0.872 0.351,0.571 0.351,1.253 v 2.246 z m 14.438,0 v -2.406 q 0,-0.882 -0.491,-1.694 -0.491,-0.812 -1.394,-1.394 1.023,0.12 1.925,0.411 0.902,0.291 1.684,0.712 0.722,0.401 1.103,0.892 0.381,0.491 0.381,1.073 v 2.406 z M 21.594,27 q -1.323,0 -2.266,-0.942 -0.942,-0.942 -0.942,-2.266 0,-1.323 0.942,-2.266 0.942,-0.942 2.266,-0.942 1.323,0 2.266,0.942 0.942,0.942 0.942,2.266 0,1.323 -0.942,2.266 Q 22.917,27 21.594,27 Z m 8.021,-3.208 q 0,1.323 -0.942,2.266 Q 27.73,27 26.406,27 q -0.221,0 -0.561,-0.05 -0.341,-0.05 -0.561,-0.11 0.541,-0.642 0.832,-1.424 0.291,-0.782 0.291,-1.624 0,-0.842 -0.291,-1.624 -0.291,-0.782 -0.832,-1.424 0.281,-0.1 0.561,-0.13 0.281,-0.03 0.561,-0.03 1.323,0 2.266,0.942 0.942,0.942 0.942,2.266 z M 16.781,31.813 h 9.625 v -0.642 q 0,-0.221 -0.11,-0.401 -0.11,-0.18 -0.291,-0.281 -1.083,-0.541 -2.186,-0.812 -1.103,-0.271 -2.226,-0.271 -1.123,0 -2.226,0.271 -1.103,0.271 -2.186,0.812 -0.18,0.1 -0.291,0.281 -0.11,0.18 -0.11,0.401 z m 4.813,-6.417 q 0.662,0 1.133,-0.471 0.471,-0.471 0.471,-1.133 0,-0.662 -0.471,-1.133 Q 22.255,22.188 21.594,22.188 q -0.662,0 -1.133,0.471 -0.471,0.471 -0.471,1.133 0,0.662 0.471,1.133 0.471,0.471 1.133,0.471 z m 0,6.417 z m 0,-8.021 z"
    class="ColorScheme-Background" fill="currentColor" />
</svg>