<svg height="48" width="48" version="1.1" xmlns="http://www.w3.org/2000/svg" xmlns:svg="http://www.w3.org/2000/svg">
  <defs>
    <style type="text/css" id="current-color-scheme">
      .ColorScheme-Accent {
        color: #95ccff;
      }

      .ColorScheme-Background {
        color: #28292d;
      }
    </style>
    <linearGradient id="lg1" x1="48" y1="40" x2="48" y2="8" gradientUnits="userSpaceOnUse">
      <stop stop-opacity="0.15" offset="0" />
      <stop stop-opacity="0" offset="1" />
    </linearGradient>
    <path id="folder-back" d="M 4,17 v -6 q 0,-1.15 0.9,-2.075 0.9,-0.925 2.1,-0.925 h 14.05 l 3,3 v 6 z" />
    <path id="icon"
      d="m 26.687,30.409 1.023,-1.023 -2.988,-2.988 v -4.211 h -1.444 v 4.813 z m -2.687,4.291 q -1.592,0 -2.992,-0.602 Q 19.609,33.497 18.556,32.444 17.503,31.391 16.902,29.989 16.3,28.586 16.3,26.991 q 0,-1.595 0.602,-2.999 0.602,-1.404 1.654,-2.446 1.053,-1.043 2.456,-1.644 Q 22.414,19.3 24.009,19.3 q 1.595,0 2.999,0.606 1.404,0.606 2.442,1.646 1.038,1.039 1.644,2.445 0.606,1.405 0.606,3.003 0,1.592 -0.602,2.992 -0.602,1.4 -1.644,2.453 -1.043,1.053 -2.449,1.654 -1.406,0.602 -3.005,0.602 z m 0,-7.7 z m 0.01,6.256 q 2.596,0 4.421,-1.835 1.825,-1.835 1.825,-4.431 0,-2.596 -1.825,-4.421 -1.825,-1.825 -4.421,-1.825 -2.596,0 -4.431,1.825 -1.835,1.825 -1.835,4.421 0,2.596 1.835,4.431 1.835,1.835 4.431,1.835 z" />
  </defs>
  <use href="#folder-back" class="ColorScheme-Accent" fill="currentColor" />
  <use href="#folder-back" class="ColorScheme-Background" fill="currentColor" opacity="0.3" />
  <path
    d="M 7,40 q -1.2,0 -2.1,-0.925 q -0.9,-0.925 -0.9,-2.075 v -20 q 0,-1.15 0.9,-2.075 0.9,-0.925 2.1,-0.925 h 14.05 l 3,-3 h 16.95 q 1.15,0 2.075,0.925 0.925,0.925 0.925,2.075 v 23 q 0,1.15 -0.925,2.075 -0.925,0.925 -2.075,0.925 z"
    class="ColorScheme-Accent" fill="currentColor" />
  <use href="#icon" class="ColorScheme-Background" fill="currentColor" opacity="0.8" />
  <path
    d="M 7,40 Q 5.8,40 4.9,39.075 4,38.15 4,37 V 11 Q 4,9.85 4.9,8.925 5.8,8 7,8 h 14.05 l 3,3 H 41 q 1.15,0 2.075,0.925 Q 44,12.85 44,14 v 23 q 0,1.15 -0.925,2.075 Q 42.15,40 41,40 z"
    fill="url(#lg1)" />
</svg>