<svg height="48" width="48" version="1.1" xmlns="http://www.w3.org/2000/svg" xmlns:svg="http://www.w3.org/2000/svg">
  <defs>
    <style type="text/css" id="current-color-scheme">
      .ColorScheme-Accent {
        color: #95ccff;
      }

      .ColorScheme-Background {
        color: #28292d;
      }
    </style>
    <linearGradient x1="48" y1="40" x2="48" y2="8" gradientUnits="userSpaceOnUse">
      <stop stop-opacity="0.15" offset="0" />
      <stop stop-opacity="0" offset="1" />
    </linearGradient>
    <path id="folder-back" d="M 4,17 v -6 q 0,-1.15 0.9,-2.075 0.9,-0.925 2.1,-0.925 h 14.05 l 3,3 v 6 z" />
    <path id="icon"
      d="m 19.188,33.737 q -1.203,0 -2.045,-0.842 -0.842,-0.842 -0.842,-2.045 0,-1.203 0.842,-2.045 0.842,-0.842 2.045,-0.842 1.203,0 2.045,0.842 0.842,0.842 0.842,2.045 0,1.203 -0.842,2.045 -0.842,0.842 -2.045,0.842 z m 9.625,0 q -1.203,0 -2.045,-0.842 Q 25.925,32.053 25.925,30.85 q 0,-1.203 0.842,-2.045 0.842,-0.842 2.045,-0.842 1.203,0 2.045,0.842 0.842,0.842 0.842,2.045 0,1.203 -0.842,2.045 -0.842,0.842 -2.045,0.842 z M 19.192,32.294 q 0.597,0 1.018,-0.425 0.421,-0.425 0.421,-1.023 0,-0.597 -0.425,-1.018 -0.425,-0.421 -1.023,-0.421 -0.597,0 -1.018,0.425 -0.421,0.425 -0.421,1.023 0,0.597 0.425,1.018 0.425,0.421 1.023,0.421 z m 9.625,0 q 0.597,0 1.018,-0.425 0.421,-0.425 0.421,-1.023 0,-0.597 -0.425,-1.018 -0.425,-0.421 -1.023,-0.421 -0.597,0 -1.018,0.425 -0.421,0.425 -0.421,1.023 0,0.597 0.425,1.018 0.425,0.421 1.023,0.421 z M 24,26.038 q -1.203,0 -2.045,-0.842 Q 21.113,24.353 21.113,23.15 q 0,-1.203 0.842,-2.045 Q 22.797,20.263 24,20.263 q 1.203,0 2.045,0.842 0.842,0.842 0.842,2.045 0,1.203 -0.842,2.045 Q 25.203,26.038 24,26.038 Z m 0.004,-1.444 q 0.597,0 1.018,-0.425 0.421,-0.425 0.421,-1.023 0,-0.597 -0.425,-1.018 -0.425,-0.421 -1.023,-0.421 -0.597,0 -1.018,0.425 -0.421,0.425 -0.421,1.023 0,0.597 0.425,1.018 0.425,0.421 1.023,0.421 z M 24,23.15 Z m 4.812,7.7 z m -9.625,0 z" />
  </defs>
  <use href="#folder-back" class="ColorScheme-Accent" fill="currentColor" />
  <use href="#folder-back" class="ColorScheme-Background" fill="currentColor" opacity="0.3" />
  <path
    d="M 7,40 q -1.2,0 -2.1,-0.925 q -0.9,-0.925 -0.9,-2.075 v -20 q 0,-1.15 0.9,-2.075 0.9,-0.925 2.1,-0.925 h 14.05 l 3,-3 h 16.95 q 1.15,0 2.075,0.925 0.925,0.925 0.925,2.075 v 23 q 0,1.15 -0.925,2.075 -0.925,0.925 -2.075,0.925 z"
    class="ColorScheme-Accent" fill="currentColor" />
  <use href="#icon" class="ColorScheme-Background" fill="currentColor" opacity="0.8" />
  <path
    d="M 7,40 Q 5.8,40 4.9,39.075 4,38.15 4,37 V 11 Q 4,9.85 4.9,8.925 5.8,8 7,8 h 14.05 l 3,3 H 41 q 1.15,0 2.075,0.925 Q 44,12.85 44,14 v 23 q 0,1.15 -0.925,2.075 Q 42.15,40 41,40 z"
    fill="url(#lg1)" />
</svg>