<svg height="48" width="48" version="1.1" xmlns="http://www.w3.org/2000/svg" xmlns:svg="http://www.w3.org/2000/svg">
  <defs>
    <style type="text/css" id="current-color-scheme">
      .ColorScheme-Accent {
        color: #95ccff;
      }

      .ColorScheme-Background {
        color: #28292d;
      }
    </style>
    <linearGradient id="lg1" x1="48" y1="40" x2="48" y2="8" gradientUnits="userSpaceOnUse">
      <stop stop-opacity="0.15" offset="0" />
      <stop stop-opacity="0" offset="1" />
    </linearGradient>
    <path id="folder-back" d="M 4,17 v -6 q 0,-1.15 0.9,-2.075 0.9,-0.925 2.1,-0.925 h 14.05 l 3,3 v 6 z" />
    <path id="icon"
      d="m 20.872,34.7 q -1.097,0 -1.872,-0.775 -0.775,-0.775 -0.775,-1.872 V 21.947 q 0,-1.097 0.775,-1.872 0.775,-0.775 1.872,-0.775 h 8.903 v 11.53 q -0.501,0 -0.852,0.359 -0.351,0.359 -0.351,0.872 0,0.513 0.351,0.864 0.351,0.351 0.852,0.351 v 1.424 z m -1.203,-5.013 q 0.281,-0.14 0.571,-0.211 0.291,-0.07 0.632,-0.07 h 0.241 v -8.662 h -0.241 q -0.501,0 -0.852,0.351 -0.351,0.351 -0.351,0.852 z m 2.888,-0.281 h 5.775 v -8.662 h -5.775 z m -2.888,0.281 v -8.943 z m 1.203,3.569 h 6.537 q -0.14,-0.281 -0.211,-0.561 -0.07,-0.281 -0.07,-0.627 0,-0.326 0.08,-0.631 0.08,-0.306 0.221,-0.586 h -6.557 q -0.521,0 -0.862,0.351 -0.341,0.351 -0.341,0.852 0,0.521 0.341,0.862 0.341,0.341 0.862,0.341 z" />
  </defs>
  <use href="#folder-back" class="ColorScheme-Accent" fill="currentColor" />
  <use href="#folder-back" class="ColorScheme-Background" fill="currentColor" opacity="0.3" />
  <path
    d="M 7,40 q -1.2,0 -2.1,-0.925 q -0.9,-0.925 -0.9,-2.075 v -20 q 0,-1.15 0.9,-2.075 0.9,-0.925 2.1,-0.925 h 14.05 l 3,-3 h 16.95 q 1.15,0 2.075,0.925 0.925,0.925 0.925,2.075 v 23 q 0,1.15 -0.925,2.075 -0.925,0.925 -2.075,0.925 z"
    class="ColorScheme-Accent" fill="currentColor" />
  <use href="#icon" class="ColorScheme-Background" fill="currentColor" opacity="0.8" />
  <path
    d="M 7,40 Q 5.8,40 4.9,39.075 4,38.15 4,37 V 11 Q 4,9.85 4.9,8.925 5.8,8 7,8 h 14.05 l 3,3 H 41 q 1.15,0 2.075,0.925 Q 44,12.85 44,14 v 23 q 0,1.15 -0.925,2.075 Q 42.15,40 41,40 z"
    fill="url(#lg1)" />
</svg>