<svg height="48" width="48" version="1.1" xmlns="http://www.w3.org/2000/svg" xmlns:svg="http://www.w3.org/2000/svg">
  <sodipodi:namedview pagecolor="#ffffff" bordercolor="#666666" borderopacity="1.0" />
  <defs>
    <style type="text/css" id="current-color-scheme">
      .ColorScheme-Accent {
        color: #95ccff;
      }

      .ColorScheme-Background {
        color: #28292d;
      }
    </style>
    <linearGradient id="lg1" x1="48" y1="40" x2="48" y2="8" gradientUnits="userSpaceOnUse">
      <stop stop-opacity="0.15" offset="0" />
      <stop stop-opacity="0" offset="1" />
    </linearGradient>
    <path id="folder-back" d="M 4,17 v -6 q 0,-1.15 0.9,-2.075 0.9,-0.925 2.1,-0.925 h 14.05 l 3,3 v 6 z" />
    <path id="icon"
      d="m 19.187,32.775 q -1.604,0 -2.727,-1.123 -1.123,-1.123 -1.123,-2.727 0,-1.524 1.043,-2.637 1.043,-1.113 2.547,-1.213 0.461,-1.704 1.855,-2.777 1.394,-1.073 3.218,-1.073 2.065,0 3.589,1.394 1.524,1.394 1.704,3.419 1.404,0 2.386,0.983 0.983,0.983 0.983,2.386 0,1.404 -0.983,2.386 -0.983,0.983 -2.386,0.983 z m 0,-1.444 h 10.106 q 0.802,0 1.364,-0.561 0.561,-0.561 0.561,-1.364 0,-0.802 -0.561,-1.364 -0.561,-0.561 -1.364,-0.561 h -1.323 l -0.12,-1.303 q -0.14,-1.484 -1.243,-2.496 -1.103,-1.013 -2.607,-1.013 -1.283,0 -2.306,0.772 -1.023,0.772 -1.364,2.035 l -0.281,0.983 -1.023,0.06 q -0.963,0.06 -1.604,0.752 -0.642,0.692 -0.642,1.654 0,1.003 0.702,1.704 0.702,0.702 1.704,0.702 z m 4.812,-4.331 z" />
  </defs>
  <use href="#folder-back" class="ColorScheme-Accent" fill="currentColor" />
  <use href="#folder-back" class="ColorScheme-Background" fill="currentColor" opacity="0.3" />
  <path
    d="M 7,40 q -1.2,0 -2.1,-0.925 q -0.9,-0.925 -0.9,-2.075 v -20 q 0,-1.15 0.9,-2.075 0.9,-0.925 2.1,-0.925 h 14.05 l 3,-3 h 16.95 q 1.15,0 2.075,0.925 0.925,0.925 0.925,2.075 v 23 q 0,1.15 -0.925,2.075 -0.925,0.925 -2.075,0.925 z"
    class="ColorScheme-Accent" fill="currentColor" />
  <use href="#icon" class="ColorScheme-Background" fill="currentColor" opacity="0.8" />
  <path
    d="M 7,40 Q 5.8,40 4.9,39.075 4,38.15 4,37 V 11 Q 4,9.85 4.9,8.925 5.8,8 7,8 h 14.05 l 3,3 H 41 q 1.15,0 2.075,0.925 Q 44,12.85 44,14 v 23 q 0,1.15 -0.925,2.075 Q 42.15,40 41,40 z"
    fill="url(#lg1)" />
  <!-- <rect style="fill:#00ffff;fill-opacity:0.336;stroke-width:1" width="40" height="26" x="4" y="14" />
  <rect style="fill:#008000;fill-opacity:0.336;stroke-width:1" width="20" height="20" x="0" y="0" /> -->
</svg>