<svg viewBox="0 0 48 48" xmlns="http://www.w3.org/2000/svg">
  <defs>
    <style type="text/css" id="current-color-scheme">
      .ColorScheme-Accent {
        color: #95ccff;
      }

      .ColorScheme-Background {
        color: #1e2022;
      }
    </style>
    <path id="folder-back" d="M 4,40 V 8 h 17.05 l 3,3 H 44 v 29 z" />
  </defs>
  <use href="#folder-back" class="ColorScheme-Accent" fill="currentColor" />
  <use href="#folder-back" class="ColorScheme-Background" fill="currentColor" opacity="0.3" />
  <path d="M 4,40 V 14 h 17.05 l 3,-3 H 44 v 29 z" class="ColorScheme-Accent" fill="currentColor" />
  <path
    d="m 18.165,33.417 q -1.203,0 -2.055,-0.862 -0.852,-0.862 -0.892,-2.085 0,-0.18 0.02,-0.361 0.02,-0.18 0.06,-0.361 l 1.684,-6.738 q 0.281,-1.083 1.143,-1.755 0.862,-0.672 1.965,-0.672 h 7.82 q 1.103,0 1.965,0.672 0.862,0.672 1.143,1.755 l 1.684,6.738 q 0.04,0.18 0.07,0.371 0.03,0.19 0.03,0.371 0,1.223 -0.872,2.075 -0.872,0.852 -2.095,0.852 -0.842,0 -1.564,-0.441 -0.722,-0.441 -1.083,-1.203 l -0.561,-1.163 q -0.1,-0.201 -0.301,-0.301 -0.201,-0.1 -0.421,-0.1 h -3.81 q -0.221,0 -0.421,0.1 -0.201,0.1 -0.301,0.301 l -0.561,1.163 q -0.361,0.762 -1.083,1.203 -0.722,0.441 -1.564,0.441 z M 18.225,31.813 q 0.381,0 0.692,-0.201 0.311,-0.201 0.471,-0.541 l 0.561,-1.143 q 0.301,-0.622 0.882,-0.973 0.582,-0.351 1.263,-0.351 h 3.81 q 0.682,0 1.263,0.361 0.582,0.361 0.902,0.963 l 0.561,1.143 q 0.16,0.341 0.471,0.541 0.311,0.201 0.692,0.201 0.561,0 0.963,-0.371 0.401,-0.371 0.421,-0.932 0,0.02 -0.04,-0.381 L 29.454,23.411 Q 29.314,22.869 28.893,22.528 28.472,22.188 27.91,22.188 h -7.82 q -0.561,0 -0.993,0.341 -0.431,0.341 -0.551,0.882 l -1.684,6.717 q -0.04,0.12 -0.04,0.361 0,0.561 0.411,0.942 0.411,0.381 0.993,0.381 z m 6.978,-5.615 q 0.341,0 0.571,-0.231 0.231,-0.231 0.231,-0.571 0,-0.341 -0.231,-0.571 -0.231,-0.231 -0.571,-0.231 -0.341,0 -0.571,0.231 -0.231,0.231 -0.231,0.571 0,0.341 0.231,0.571 0.231,0.231 0.571,0.231 z m 1.604,-1.604 q 0.341,0 0.571,-0.231 0.231,-0.231 0.231,-0.571 0,-0.341 -0.231,-0.571 -0.231,-0.231 -0.571,-0.231 -0.341,0 -0.571,0.231 -0.231,0.231 -0.231,0.571 0,0.341 0.231,0.571 0.231,0.231 0.571,0.231 z m 0,3.208 q 0.341,0 0.571,-0.231 Q 27.609,27.341 27.609,27 q 0,-0.341 -0.231,-0.571 -0.231,-0.231 -0.571,-0.231 -0.341,0 -0.571,0.231 Q 26.005,26.659 26.005,27 q 0,0.341 0.231,0.571 0.231,0.231 0.571,0.231 z m 1.604,-1.604 q 0.341,0 0.571,-0.231 0.231,-0.231 0.231,-0.571 0,-0.341 -0.231,-0.571 -0.231,-0.231 -0.571,-0.231 -0.341,0 -0.571,0.231 -0.231,0.231 -0.231,0.571 0,0.341 0.231,0.571 0.231,0.231 0.571,0.231 z m -7.219,1.203 q 0.261,0 0.431,-0.17 0.17,-0.17 0.17,-0.431 v -0.802 h 0.802 q 0.261,0 0.431,-0.17 0.17,-0.17 0.17,-0.431 0,-0.261 -0.17,-0.431 -0.17,-0.17 -0.431,-0.17 h -0.802 v -0.802 q 0,-0.261 -0.17,-0.431 -0.17,-0.17 -0.431,-0.17 -0.261,0 -0.431,0.17 -0.17,0.17 -0.17,0.431 v 0.802 h -0.802 q -0.261,0 -0.431,0.17 -0.17,0.17 -0.17,0.431 0,0.261 0.17,0.431 0.17,0.17 0.431,0.17 h 0.802 v 0.802 q 0,0.261 0.17,0.431 0.17,0.17 0.431,0.17 z M 24,27 Z"
    class="ColorScheme-Background" fill="currentColor" />
</svg>