<svg height="48" width="48" version="1.1" xmlns="http://www.w3.org/2000/svg" xmlns:svg="http://www.w3.org/2000/svg">
  <defs>
    <style type="text/css" id="current-color-scheme">
      .ColorScheme-Accent {
        color: #95ccff;
      }

      .ColorScheme-Background {
        color: #28292d;
      }
    </style>
    <linearGradient id="lg1" x1="48" y1="40" x2="48" y2="8" gradientUnits="userSpaceOnUse">
      <stop stop-opacity="0.15" offset="0" />
      <stop stop-opacity="0" offset="1" />
    </linearGradient>
    <path id="folder-back" d="M 4,17 v -6 q 0,-1.15 0.9,-2.075 0.9,-0.925 2.1,-0.925 h 14.05 l 3,3 v 6 z" />
    <path id="icon"
      d="m 16.3,32.775 v -1.845 q 0,-0.517 0.251,-0.95 0.251,-0.433 0.692,-0.694 1.083,-0.642 2.296,-0.983 1.213,-0.341 2.537,-0.341 1.323,0 2.537,0.341 1.213,0.341 2.296,0.983 0.441,0.261 0.692,0.694 0.251,0.433 0.251,0.95 v 1.845 z m 12.994,0 v -1.845 q 0,-0.842 -0.391,-1.564 -0.391,-0.722 -1.053,-1.183 0.782,0.16 1.514,0.431 0.732,0.271 1.394,0.672 0.441,0.261 0.692,0.695 0.251,0.435 0.251,0.949 v 1.845 z M 22.075,27 q -1.203,0 -2.045,-0.842 -0.842,-0.842 -0.842,-2.045 0,-1.203 0.842,-2.045 0.842,-0.842 2.045,-0.842 1.203,0 2.045,0.842 0.842,0.842 0.842,2.045 0,1.203 -0.842,2.045 Q 23.278,27 22.075,27 Z M 28.813,24.113 q 0,1.203 -0.842,2.045 Q 27.128,27 25.925,27 q -0.16,0 -0.301,-0.01 -0.14,-0.01 -0.301,-0.05 0.501,-0.582 0.792,-1.293 0.291,-0.712 0.291,-1.534 0,-0.822 -0.291,-1.534 -0.291,-0.712 -0.792,-1.293 0.16,-0.04 0.301,-0.05 0.14,-0.01 0.301,-0.01 1.203,0 2.045,0.842 0.842,0.842 0.842,2.045 z m -11.069,7.219 h 8.662 v -0.401 q 0,-0.13 -0.061,-0.236 -0.061,-0.106 -0.16,-0.165 -0.942,-0.541 -1.985,-0.832 -1.043,-0.291 -2.126,-0.291 -1.083,0 -2.126,0.281 -1.043,0.281 -1.985,0.842 -0.099,0.057 -0.16,0.159 -0.061,0.102 -0.061,0.241 z m 4.335,-5.775 q 0.597,0 1.018,-0.425 0.421,-0.425 0.421,-1.023 0,-0.597 -0.425,-1.018 -0.425,-0.421 -1.023,-0.421 -0.597,0 -1.018,0.425 -0.421,0.425 -0.421,1.023 0,0.597 0.425,1.018 0.425,0.421 1.023,0.421 z m -0.004,5.775 z m 0,-7.219 z" />
  </defs>
  <use href="#folder-back" class="ColorScheme-Accent" fill="currentColor" />
  <use href="#folder-back" class="ColorScheme-Background" fill="currentColor" opacity="0.3" />
  <path
    d="M 7,40 q -1.2,0 -2.1,-0.925 q -0.9,-0.925 -0.9,-2.075 v -20 q 0,-1.15 0.9,-2.075 0.9,-0.925 2.1,-0.925 h 14.05 l 3,-3 h 16.95 q 1.15,0 2.075,0.925 0.925,0.925 0.925,2.075 v 23 q 0,1.15 -0.925,2.075 -0.925,0.925 -2.075,0.925 z"
    class="ColorScheme-Accent" fill="currentColor" />
  <use href="#icon" class="ColorScheme-Background" fill="currentColor" opacity="0.8" />
  <path
    d="M 7,40 Q 5.8,40 4.9,39.075 4,38.15 4,37 V 11 Q 4,9.85 4.9,8.925 5.8,8 7,8 h 14.05 l 3,3 H 41 q 1.15,0 2.075,0.925 Q 44,12.85 44,14 v 23 q 0,1.15 -0.925,2.075 Q 42.15,40 41,40 z"
    fill="url(#lg1)" />
</svg>