<svg viewBox="0 0 48 48" xmlns="http://www.w3.org/2000/svg">
  <defs>
    <style type="text/css" id="current-color-scheme">
      .ColorScheme-Accent {
        color: #95ccff;
      }

      .ColorScheme-Background {
        color: #1e2022;
      }
    </style>
    <path id="folder-back" d="M 4,40 V 8 h 17.05 l 3,3 H 44 v 29 z" />
  </defs>
  <use href="#folder-back" class="ColorScheme-Accent" fill="currentColor" />
  <use href="#folder-back" class="ColorScheme-Background" fill="currentColor" opacity="0.3" />
  <path d="M 4,40 V 14 h 17.05 l 3,-3 H 44 v 29 z" class="ColorScheme-Accent" fill="currentColor" />
  <path
    d="m 28.01,35.021 q -1.003,0 -1.704,-0.702 -0.702,-0.702 -0.702,-1.704 0,-0.12 0.06,-0.561 l -5.635,-3.289 q -0.321,0.301 -0.742,0.471 -0.421,0.17 -0.902,0.17 -1.003,0 -1.704,-0.702 Q 15.979,28.003 15.979,27 q 0,-1.003 0.702,-1.704 0.702,-0.702 1.704,-0.702 0.481,0 0.902,0.17 0.421,0.17 0.742,0.471 l 5.635,-3.289 q -0.04,-0.14 -0.05,-0.271 -0.01,-0.13 -0.01,-0.291 0,-1.003 0.702,-1.704 0.702,-0.702 1.704,-0.702 1.003,0 1.704,0.702 0.702,0.702 0.702,1.704 0,1.003 -0.702,1.704 -0.702,0.702 -1.704,0.702 -0.481,0 -0.902,-0.17 Q 26.687,23.451 26.366,23.15 l -5.635,3.289 q 0.04,0.14 0.05,0.271 0.01,0.13 0.01,0.291 0,0.16 -0.01,0.291 -0.01,0.13 -0.05,0.271 L 26.366,30.85 q 0.321,-0.301 0.742,-0.471 0.421,-0.17 0.902,-0.17 1.003,0 1.704,0.702 0.702,0.702 0.702,1.704 0,1.003 -0.702,1.704 -0.702,0.702 -1.704,0.702 z m 0,-1.604 q 0.341,0 0.571,-0.231 0.231,-0.231 0.231,-0.571 0,-0.341 -0.231,-0.571 -0.231,-0.231 -0.571,-0.231 -0.341,0 -0.571,0.231 -0.231,0.231 -0.231,0.571 0,0.341 0.231,0.571 0.231,0.231 0.571,0.231 z m -9.625,-5.615 q 0.341,0 0.571,-0.231 Q 19.188,27.341 19.188,27 q 0,-0.341 -0.231,-0.571 -0.231,-0.231 -0.571,-0.231 -0.341,0 -0.571,0.231 Q 17.583,26.659 17.583,27 q 0,0.341 0.231,0.571 0.231,0.231 0.571,0.231 z m 9.625,-5.615 q 0.341,0 0.571,-0.231 0.231,-0.231 0.231,-0.571 0,-0.341 -0.231,-0.571 -0.231,-0.231 -0.571,-0.231 -0.341,0 -0.571,0.231 -0.231,0.231 -0.231,0.571 0,0.341 0.231,0.571 0.231,0.231 0.571,0.231 z m 0,10.427 z M 18.385,27 Z m 9.625,-5.615 z"
    class="ColorScheme-Background" fill="currentColor" />
</svg>