<svg viewBox="0 0 48 48" xmlns="http://www.w3.org/2000/svg">
  <defs>
    <style type="text/css" id="current-color-scheme">
      .ColorScheme-Accent {
        color: #95ccff;
      }

      .ColorScheme-Background {
        color: #1e2022;
      }
    </style>
    <path id="folder-back" d="M 4,40 V 8 h 17.05 l 3,3 H 44 v 29 z" />
  </defs>
  <use href="#folder-back" class="ColorScheme-Accent" fill="currentColor" />
  <use href="#folder-back" class="ColorScheme-Background" fill="currentColor" opacity="0.3" />
  <path d="M 4,40 V 14 h 17.05 l 3,-3 H 44 v 29 z" class="ColorScheme-Accent" fill="currentColor" />
  <path
    d="m 39.4,14 v -3 h 4.6 v 3 z m -4.6,4.6 v -4.6 h 4.6 v 4.6 z m 4.6,4.6 v -4.6 h 4.6 v 4.6 z m -4.6,4.6 v -4.6 h 4.6 v 4.6 z m 4.6,4.6 v -4.6 h 4.6 v 4.6 z m -4.6,4.6 v -4.6 h 4.6 v 4.6 z m 4.6,3 v -3 h 4.6 v 3 z"
    class="ColorScheme-Background" fill="currentColor" />
  <path
    d="m 20.824,26.138 q 0.1,-0.16 0.14,-0.351 0.04,-0.19 0.04,-0.391 0,-0.662 -0.471,-1.133 -0.471,-0.471 -1.133,-0.471 -0.201,0 -0.391,0.04 -0.19,0.04 -0.351,0.14 z m 4.071,4.111 -1.203,-1.243 q 0.241,-0.642 0.381,-1.333 0.14,-0.692 0.14,-1.394 V 22.488 L 19.4,20.684 16.472,21.786 15.229,20.543 19.4,18.979 l 6.417,2.406 v 4.893 q 0,1.023 -0.231,2.025 -0.231,1.003 -0.692,1.945 z m 0.762,5.254 -2.607,-2.607 Q 22.288,33.677 21.355,34.209 20.423,34.74 19.4,35.021 16.613,34.319 14.798,31.823 12.983,29.326 12.983,26.278 v -3.449 l -2.085,-2.085 1.123,-1.123 14.758,14.758 z m -7.259,-7.259 z m 1.143,-3.409 z M 19.4,33.336 q 0.702,-0.221 1.343,-0.622 0.642,-0.401 1.183,-0.942 L 19.56,29.406 h -1.364 l 0.201,-1.163 -3.81,-3.81 v 1.845 q 0,2.426 1.364,4.411 1.364,1.985 3.449,2.647 z"
    class="ColorScheme-Background" fill="currentColor" />
</svg>