<svg height="48" width="48" version="1.1" xmlns="http://www.w3.org/2000/svg" xmlns:svg="http://www.w3.org/2000/svg">
  <defs>
    <style type="text/css" id="current-color-scheme">
      .ColorScheme-Accent {
        color: #95ccff;
      }

      .ColorScheme-Background {
        color: #28292d;
      }
    </style>
    <linearGradient id="lg1" x1="48" y1="40" x2="48" y2="8" gradientUnits="userSpaceOnUse">
      <stop stop-opacity="0.15" offset="0" />
      <stop stop-opacity="0" offset="1" />
    </linearGradient>
    <path id="folder-back" d="M 4,17 v -6 q 0,-1.15 0.9,-2.075 0.9,-0.925 2.1,-0.925 h 14.05 l 3,3 v 6 z" />
    <path id="icon"
      d="m 27.369,24.112 v -2.406 h -6.737 v 2.406 h -1.444 V 20.263 h 9.625 v 3.85 z m -9.625,1.444 H 30.276 Z m 10.824,1.925 q 0.305,0 0.516,-0.206 0.211,-0.206 0.211,-0.511 0,-0.305 -0.206,-0.516 -0.206,-0.211 -0.511,-0.211 -0.305,0 -0.516,0.206 -0.211,0.206 -0.211,0.511 0,0.305 0.206,0.516 0.206,0.211 0.511,0.211 z m -1.199,4.812 v -2.888 h -6.737 v 2.888 z m 1.444,1.444 H 19.187 V 30.85 H 16.3 v -4.812 q 0,-0.802 0.561,-1.364 0.561,-0.561 1.364,-0.561 h 11.55 q 0.802,0 1.364,0.561 0.561,0.561 0.561,1.364 v 4.812 H 28.812 Z M 30.276,29.406 v -3.081 q 0,-0.327 -0.241,-0.548 -0.241,-0.221 -0.561,-0.221 H 18.506 q -0.324,0 -0.543,0.221 -0.219,0.221 -0.219,0.549 v 3.08 h 1.444 v -1.444 h 9.625 v 1.444 z" />
  </defs>
  <use href="#folder-back" class="ColorScheme-Accent" fill="currentColor" />
  <use href="#folder-back" class="ColorScheme-Background" fill="currentColor" opacity="0.3" />
  <path
    d="M 7,40 q -1.2,0 -2.1,-0.925 q -0.9,-0.925 -0.9,-2.075 v -20 q 0,-1.15 0.9,-2.075 0.9,-0.925 2.1,-0.925 h 14.05 l 3,-3 h 16.95 q 1.15,0 2.075,0.925 0.925,0.925 0.925,2.075 v 23 q 0,1.15 -0.925,2.075 -0.925,0.925 -2.075,0.925 z"
    class="ColorScheme-Accent" fill="currentColor" />
  <use href="#icon" class="ColorScheme-Background" fill="currentColor" opacity="0.8" />
  <path
    d="M 7,40 Q 5.8,40 4.9,39.075 4,38.15 4,37 V 11 Q 4,9.85 4.9,8.925 5.8,8 7,8 h 14.05 l 3,3 H 41 q 1.15,0 2.075,0.925 Q 44,12.85 44,14 v 23 q 0,1.15 -0.925,2.075 Q 42.15,40 41,40 z"
    fill="url(#lg1)" />
</svg>