<svg height="48" width="48" version="1.1" xmlns="http://www.w3.org/2000/svg" xmlns:svg="http://www.w3.org/2000/svg">
  <defs>
    <style type="text/css" id="current-color-scheme">
      .ColorScheme-Accent {
        color: #95ccff;
      }

      .ColorScheme-Background {
        color: #28292d;
      }
    </style>
    <linearGradient id="lg1" x1="48" y1="40" x2="48" y2="8" gradientUnits="userSpaceOnUse">
      <stop stop-opacity="0.15" offset="0" />
      <stop stop-opacity="0" offset="1" />
    </linearGradient>
    <path id="folder-back" d="M 4,17 v -6 q 0,-1.15 0.9,-2.075 0.9,-0.925 2.1,-0.925 h 14.05 l 3,3 v 6 z" />
    <path id="icon"
      d="m 23.278,32.835 v -5.414 l -4.572,-2.647 v 5.414 z m 1.444,0 4.572,-2.627 V 24.794 l -4.572,2.627 z m -0.722,-6.677 4.712,-2.707 -4.732,-2.707 -4.692,2.707 z m -6.016,5.294 Q 17.641,31.253 17.452,30.929 17.263,30.605 17.263,30.208 v -6.417 q 0,-0.396 0.189,-0.721 0.189,-0.324 0.532,-0.523 L 23.258,19.501 Q 23.599,19.3 24,19.3 q 0.401,0 0.742,0.201 l 5.274,3.048 q 0.343,0.198 0.532,0.523 0.189,0.324 0.189,0.721 v 6.417 q 0,0.396 -0.189,0.721 -0.189,0.324 -0.532,0.523 l -5.294,3.068 q -0.343,0.201 -0.723,0.201 -0.38,0 -0.72,-0.201 z m 6.016,-4.452 z" />
  </defs>
  <use href="#folder-back" class="ColorScheme-Accent" fill="currentColor" />
  <use href="#folder-back" class="ColorScheme-Background" fill="currentColor" opacity="0.3" />
  <path
    d="M 7,40 q -1.2,0 -2.1,-0.925 q -0.9,-0.925 -0.9,-2.075 v -20 q 0,-1.15 0.9,-2.075 0.9,-0.925 2.1,-0.925 h 14.05 l 3,-3 h 16.95 q 1.15,0 2.075,0.925 0.925,0.925 0.925,2.075 v 23 q 0,1.15 -0.925,2.075 -0.925,0.925 -2.075,0.925 z"
    class="ColorScheme-Accent" fill="currentColor" />
  <use href="#icon" class="ColorScheme-Background" fill="currentColor" opacity="0.8" />
  <path
    d="M 7,40 Q 5.8,40 4.9,39.075 4,38.15 4,37 V 11 Q 4,9.85 4.9,8.925 5.8,8 7,8 h 14.05 l 3,3 H 41 q 1.15,0 2.075,0.925 Q 44,12.85 44,14 v 23 q 0,1.15 -0.925,2.075 Q 42.15,40 41,40 z"
    fill="url(#lg1)" />
</svg>