<svg height="48" width="48" version="1.1" xmlns="http://www.w3.org/2000/svg" xmlns:svg="http://www.w3.org/2000/svg">
  <defs>
    <style type="text/css" id="current-color-scheme">
      .ColorScheme-Accent {
        color: #95ccff;
      }

      .ColorScheme-Background {
        color: #28292d;
      }
    </style>
    <linearGradient id="lg1" x1="48" y1="40" x2="48" y2="8" gradientUnits="userSpaceOnUse">
      <stop stop-opacity="0.15" offset="0" />
      <stop stop-opacity="0" offset="1" />
    </linearGradient>
    <path id="folder-back" d="M 4,17 v -6 q 0,-1.15 0.9,-2.075 0.9,-0.925 2.1,-0.925 h 14.05 l 3,3 v 6 z" />
    <path id="icon"
      d="m 27.369,34.7 q -1.003,0 -1.704,-0.702 -0.702,-0.702 -0.702,-1.704 0,-0.18 0.08,-0.582 l -4.752,-2.908 q -0.321,0.281 -0.723,0.441 -0.402,0.16 -0.861,0.16 -1.003,0 -1.704,-0.702 Q 16.3,28.003 16.3,27 q 0,-1.003 0.702,-1.704 0.702,-0.702 1.704,-0.702 0.461,0 0.862,0.16 0.401,0.16 0.722,0.441 l 4.752,-2.908 q -0.04,-0.14 -0.06,-0.277 -0.02,-0.137 -0.02,-0.305 0,-1.003 0.702,-1.704 Q 26.366,19.3 27.369,19.3 q 1.003,0 1.704,0.702 0.702,0.702 0.702,1.704 0,1.003 -0.702,1.704 -0.702,0.702 -1.704,0.702 -0.461,0 -0.862,-0.16 -0.401,-0.16 -0.722,-0.441 l -4.752,2.908 q 0.04,0.14 0.06,0.277 0.02,0.137 0.02,0.305 0,0.168 -0.02,0.305 -0.02,0.137 -0.06,0.277 l 4.752,2.908 q 0.321,-0.281 0.723,-0.441 0.402,-0.16 0.861,-0.16 1.003,0 1.704,0.702 0.702,0.702 0.702,1.704 0,1.003 -0.702,1.704 -0.702,0.702 -1.704,0.702 z m 0,-1.444 q 0.409,0 0.686,-0.277 0.277,-0.277 0.277,-0.686 0,-0.409 -0.277,-0.686 -0.277,-0.277 -0.686,-0.277 -0.409,0 -0.686,0.277 -0.277,0.277 -0.277,0.686 0,0.409 0.277,0.686 0.277,0.277 0.686,0.277 z m -8.662,-5.294 q 0.409,0 0.686,-0.277 0.277,-0.277 0.277,-0.686 0,-0.409 -0.277,-0.686 -0.277,-0.277 -0.686,-0.277 -0.409,0 -0.686,0.277 -0.277,0.277 -0.277,0.686 0,0.409 0.277,0.686 0.277,0.277 0.686,0.277 z m 8.662,-5.294 q 0.409,0 0.686,-0.277 0.277,-0.277 0.277,-0.686 0,-0.409 -0.277,-0.686 -0.277,-0.277 -0.686,-0.277 -0.409,0 -0.686,0.277 -0.277,0.277 -0.277,0.686 0,0.409 0.277,0.686 0.277,0.277 0.686,0.277 z m 0,9.625 z m -8.662,-5.294 z m 8.662,-5.294 z" />
  </defs>
  <use href="#folder-back" class="ColorScheme-Accent" fill="currentColor" />
  <use href="#folder-back" class="ColorScheme-Background" fill="currentColor" opacity="0.3" />
  <path
    d="M 7,40 q -1.2,0 -2.1,-0.925 q -0.9,-0.925 -0.9,-2.075 v -20 q 0,-1.15 0.9,-2.075 0.9,-0.925 2.1,-0.925 h 14.05 l 3,-3 h 16.95 q 1.15,0 2.075,0.925 0.925,0.925 0.925,2.075 v 23 q 0,1.15 -0.925,2.075 -0.925,0.925 -2.075,0.925 z"
    class="ColorScheme-Accent" fill="currentColor" />
  <use href="#icon" class="ColorScheme-Background" fill="currentColor" opacity="0.8" />
  <path
    d="M 7,40 Q 5.8,40 4.9,39.075 4,38.15 4,37 V 11 Q 4,9.85 4.9,8.925 5.8,8 7,8 h 14.05 l 3,3 H 41 q 1.15,0 2.075,0.925 Q 44,12.85 44,14 v 23 q 0,1.15 -0.925,2.075 Q 42.15,40 41,40 z"
    fill="url(#lg1)" />
</svg>