<svg height="48" width="48" version="1.1" xmlns="http://www.w3.org/2000/svg" xmlns:svg="http://www.w3.org/2000/svg">
  <defs>
    <style type="text/css" id="current-color-scheme">
      .ColorScheme-NeutralText {
        color: #f9bd00;
      }

      .ColorScheme-Background {
        color: #28292d;
      }
    </style>
    <linearGradient id="lg1" x1="48" y1="40" x2="48" y2="8" gradientUnits="userSpaceOnUse">
      <stop stop-opacity="0.15" offset="0" />
      <stop stop-opacity="0" offset="1" />
    </linearGradient>
    <path id="folder-back" d="M 4,17 v -6 q 0,-1.15 0.9,-2.075 0.9,-0.925 2.1,-0.925 h 14.05 l 3,3 v 6 z" />
    <path id="icon"
      d="m 25.274,26.238 q 0.09,-0.16 0.13,-0.332 0.04,-0.171 0.04,-0.352 0,-0.595 -0.426,-1.019 -0.426,-0.424 -1.019,-0.424 -0.179,0 -0.35,0.05 -0.17,0.05 -0.331,0.139 z m 4.02,4.03 -1.083,-1.103 q 0.301,-0.702 0.451,-1.434 0.15,-0.732 0.15,-1.434 v -3.589 l -4.813,-1.845 -2.968,1.123 -1.123,-1.103 4.091,-1.584 6.256,2.406 v 4.592 q 0,1.009 -0.241,1.998 -0.241,0.989 -0.722,1.972 z m 0.501,4.572 -2.186,-2.186 q -0.722,0.722 -1.634,1.243 -0.912,0.521 -1.975,0.802 -2.747,-0.702 -4.502,-3.068 -1.755,-2.366 -1.755,-5.334 V 22.789 L 16.18,21.225 17.202,20.202 30.818,33.818 Z m -6.737,-6.737 z m 0.983,-3.088 z m -0.04,8.181 q 0.762,-0.261 1.414,-0.662 0.652,-0.401 1.153,-0.922 l -2.206,-2.206 h -1.524 l 0.221,-1.303 -3.87,-3.87 v 2.065 q 0,2.335 1.313,4.245 1.313,1.911 3.499,2.652 z" />
  </defs>
  <use href="#folder-back" class="ColorScheme-NeutralText" fill="currentColor" />
  <use href="#folder-back" class="ColorScheme-Background" fill="currentColor" opacity="0.3" />
  <path
    d="M 7,40 q -1.2,0 -2.1,-0.925 q -0.9,-0.925 -0.9,-2.075 v -20 q 0,-1.15 0.9,-2.075 0.9,-0.925 2.1,-0.925 h 14.05 l 3,-3 h 16.95 q 1.15,0 2.075,0.925 0.925,0.925 0.925,2.075 v 23 q 0,1.15 -0.925,2.075 -0.925,0.925 -2.075,0.925 z"
    class="ColorScheme-NeutralText" fill="currentColor" />
  <use href="#icon" class="ColorScheme-Background" fill="currentColor" opacity="0.8" />
  <path
    d="M 7,40 Q 5.8,40 4.9,39.075 4,38.15 4,37 V 11 Q 4,9.85 4.9,8.925 5.8,8 7,8 h 14.05 l 3,3 H 41 q 1.15,0 2.075,0.925 Q 44,12.85 44,14 v 23 q 0,1.15 -0.925,2.075 Q 42.15,40 41,40 z"
    fill="url(#lg1)" />
</svg>