<svg height="48" width="48" version="1.1" xmlns="http://www.w3.org/2000/svg" xmlns:svg="http://www.w3.org/2000/svg">
  <defs>
    <style type="text/css" id="current-color-scheme">
      .ColorScheme-Accent {
        color: #95ccff;
      }

      .ColorScheme-Background {
        color: #28292d;
      }
    </style>
    <linearGradient id="lg1" x1="48" y1="40" x2="48" y2="8" gradientUnits="userSpaceOnUse">
      <stop stop-opacity="0.15" offset="0" />
      <stop stop-opacity="0" offset="1" />
    </linearGradient>
    <path id="folder-back" d="M 4,17 v -6 q 0,-1.15 0.9,-2.075 0.9,-0.925 2.1,-0.925 h 14.05 l 3,3 v 6 z" />
    <path id="icon" fill-rule="evenodd" clip-rule="evenodd"
      d="m 21.682,20.233 c -0.481,0 -0.927,0.256 -1.169,0.671 l -4.328,7.42 c -0.26,0.447 -0.244,1.003 0.043,1.433 l 2.272,3.407 c 0.251,0.377 0.674,0.603 1.126,0.603 h 8.749 c 0.453,0 0.875,-0.226 1.126,-0.603 l 2.272,-3.407 c 0.287,-0.43 0.303,-0.986 0.043,-1.433 l -4.328,-7.42 C 27.245,20.489 26.799,20.233 26.318,20.233 Z m 0.832,1.353 h 3.804 l 3.947,6.767 h -3.522 z m 2.633,6.767 -1.209,-1.935 -1.129,1.935 z m -3.127,1.353 -1.579,2.707 h 7.933 l 1.805,-2.707 z m 1.108,-4.585 -3.903,6.691 -1.871,-2.807 3.96,-6.788 z" />
  </defs>
  <use href="#folder-back" class="ColorScheme-Accent" fill="currentColor" />
  <use href="#folder-back" class="ColorScheme-Background" fill="currentColor" opacity="0.3" />
  <path
    d="M 7,40 q -1.2,0 -2.1,-0.925 q -0.9,-0.925 -0.9,-2.075 v -20 q 0,-1.15 0.9,-2.075 0.9,-0.925 2.1,-0.925 h 14.05 l 3,-3 h 16.95 q 1.15,0 2.075,0.925 0.925,0.925 0.925,2.075 v 23 q 0,1.15 -0.925,2.075 -0.925,0.925 -2.075,0.925 z"
    class="ColorScheme-Accent" fill="currentColor" />
  <use href="#icon" class="ColorScheme-Background" fill="currentColor" opacity="0.8" />
  <path
    d="M 7,40 Q 5.8,40 4.9,39.075 4,38.15 4,37 V 11 Q 4,9.85 4.9,8.925 5.8,8 7,8 h 14.05 l 3,3 H 41 q 1.15,0 2.075,0.925 Q 44,12.85 44,14 v 23 q 0,1.15 -0.925,2.075 Q 42.15,40 41,40 z"
    fill="url(#lg1)" />
</svg>