<svg viewBox="0 0 48 48" xmlns="http://www.w3.org/2000/svg">
  <defs>
    <style type="text/css" id="current-color-scheme">
      .ColorScheme-Accent {
        color: #95ccff;
      }

      .ColorScheme-Background {
        color: #1e2022;
      }
    </style>
    <path id="folder-back" d="M 4,40 V 8 h 17.05 l 3,3 H 44 v 29 z" />
  </defs>
  <use href="#folder-back" class="ColorScheme-Accent" fill="currentColor" />
  <use href="#folder-back" class="ColorScheme-Background" fill="currentColor" opacity="0.3" />
  <path d="M 4,40 V 14 h 17.05 l 3,-3 H 44 v 29 z" class="ColorScheme-Accent" fill="currentColor" />
  <path
    d="m 27.208,23.792 v -2.406 h -6.417 v 2.406 H 19.188 V 19.781 h 9.625 v 4.01 z m -9.625,1.604 H 30.417 Z M 28.813,27.401 q 0.341,0 0.571,-0.231 0.231,-0.231 0.231,-0.571 0,-0.341 -0.231,-0.571 -0.231,-0.231 -0.571,-0.231 -0.341,0 -0.571,0.231 -0.231,0.231 -0.231,0.571 0,0.341 0.231,0.571 0.231,0.231 0.571,0.231 z m -1.604,5.214 V 29.406 h -6.417 v 3.208 z M 28.813,34.219 h -9.625 v -3.208 h -3.208 v -7.219 h 16.042 v 7.219 H 28.813 Z m 1.604,-4.813 V 25.396 H 17.583 V 29.406 H 19.188 v -1.604 h 9.625 v 1.604 z"
    class="ColorScheme-Background" fill="currentColor" />
</svg>