<svg height="48" width="48" version="1.1" xmlns="http://www.w3.org/2000/svg" xmlns:svg="http://www.w3.org/2000/svg">
  <defs>
    <style type="text/css" id="current-color-scheme">
      .ColorScheme-Accent {
        color: #95ccff;
      }

      .ColorScheme-Background {
        color: #28292d;
      }
    </style>
    <linearGradient id="lg1" x1="48" y1="40" x2="48" y2="8" gradientUnits="userSpaceOnUse">
      <stop stop-opacity="0.15" offset="0" />
      <stop stop-opacity="0" offset="1" />
    </linearGradient>
    <path id="folder-back" d="M 4,17 v -6 q 0,-1.15 0.9,-2.075 0.9,-0.925 2.1,-0.925 h 14.05 l 3,3 v 6 z" />
    <path id="icon"
      d="m 24.006,34.7 q -1.59,0 -2.993,-0.602 -1.404,-0.602 -2.456,-1.654 Q 17.503,31.391 16.902,29.989 16.3,28.586 16.3,26.991 q 0,-1.595 0.602,-2.989 0.602,-1.394 1.654,-2.446 1.053,-1.053 2.456,-1.654 Q 22.414,19.3 24.009,19.3 q 1.595,0 2.989,0.602 1.394,0.602 2.446,1.654 1.053,1.053 1.654,2.451 0.602,1.398 0.602,2.988 0,1.59 -0.602,2.993 -0.602,1.404 -1.654,2.456 -1.053,1.053 -2.451,1.654 -1.398,0.602 -2.988,0.602 z m -0.968,-1.524 v -1.364 q -0.401,0 -0.682,-0.283 -0.281,-0.283 -0.281,-0.68 v -0.963 l -4.191,-4.191 q -0.08,0.381 -0.11,0.702 -0.03,0.321 -0.03,0.602 0,2.306 1.494,4.071 1.494,1.765 3.8,2.105 z m 5.775,-2.186 q 0.361,-0.421 0.632,-0.882 0.271,-0.461 0.448,-0.974 0.178,-0.513 0.271,-1.053 0.093,-0.54 0.093,-1.082 0,-1.897 -1.043,-3.465 -1.043,-1.568 -2.807,-2.31 v 0.481 q 0,0.596 -0.424,1.02 -0.424,0.424 -1.02,0.424 h -1.925 v 0.963 q 0,0.409 -0.277,0.686 -0.277,0.277 -0.686,0.277 h -0.963 v 1.925 h 4.812 q 0.409,0 0.686,0.277 0.277,0.277 0.277,0.686 v 1.925 h 0.822 q 0.461,0 0.782,0.321 0.321,0.321 0.321,0.782 z" />
  </defs>
  <use href="#folder-back" class="ColorScheme-Accent" fill="currentColor" />
  <use href="#folder-back" class="ColorScheme-Background" fill="currentColor" opacity="0.3" />
  <path
    d="M 7,40 q -1.2,0 -2.1,-0.925 q -0.9,-0.925 -0.9,-2.075 v -20 q 0,-1.15 0.9,-2.075 0.9,-0.925 2.1,-0.925 h 14.05 l 3,-3 h 16.95 q 1.15,0 2.075,0.925 0.925,0.925 0.925,2.075 v 23 q 0,1.15 -0.925,2.075 -0.925,0.925 -2.075,0.925 z"
    class="ColorScheme-Accent" fill="currentColor" />
  <use href="#icon" class="ColorScheme-Background" fill="currentColor" opacity="0.8" />
  <path
    d="M 7,40 Q 5.8,40 4.9,39.075 4,38.15 4,37 V 11 Q 4,9.85 4.9,8.925 5.8,8 7,8 h 14.05 l 3,3 H 41 q 1.15,0 2.075,0.925 Q 44,12.85 44,14 v 23 q 0,1.15 -0.925,2.075 Q 42.15,40 41,40 z"
    fill="url(#lg1)" />
</svg>