<svg height="48" width="48" version="1.1" xmlns="http://www.w3.org/2000/svg" xmlns:svg="http://www.w3.org/2000/svg">
  <defs>
    <style type="text/css" id="current-color-scheme">
      .ColorScheme-Accent {
        color: #95ccff;
      }

      .ColorScheme-Background {
        color: #28292d;
      }
    </style>
    <linearGradient id="lg1" x1="48" y1="40" x2="48" y2="8" gradientUnits="userSpaceOnUse">
      <stop stop-opacity="0.15" offset="0" />
      <stop stop-opacity="0" offset="1" />
    </linearGradient>
    <path id="folder-back" d="M 4,17 v -6 q 0,-1.15 0.9,-2.075 0.9,-0.925 2.1,-0.925 h 14.05 l 3,3 v 6 z" />
    <path id="icon"
      d="m 22.075,28.444 h 3.85 v -1.444 h -3.85 z m 0,-2.406 h 6.737 v -1.444 h -6.737 z m 0,-2.406 h 6.737 v -1.444 h -6.737 z m -1.444,8.181 q -0.596,0 -1.02,-0.424 -0.424,-0.424 -0.424,-1.02 V 20.744 q 0,-0.596 0.424,-1.02 Q 20.036,19.3 20.631,19.3 h 9.625 q 0.596,0 1.02,0.424 0.424,0.424 0.424,1.02 v 9.625 q 0,0.596 -0.424,1.02 -0.424,0.424 -1.02,0.424 z m 0,-1.444 h 9.625 V 20.744 h -9.625 z m -2.888,4.331 q -0.596,0 -1.02,-0.424 Q 16.3,33.852 16.3,33.256 V 22.187 h 1.444 v 11.069 h 11.069 v 1.444 z m 2.888,-13.956 v 9.625 z" />
  </defs>
  <use href="#folder-back" class="ColorScheme-Accent" fill="currentColor" />
  <use href="#folder-back" class="ColorScheme-Background" fill="currentColor" opacity="0.3" />
  <path
    d="M 7,40 q -1.2,0 -2.1,-0.925 q -0.9,-0.925 -0.9,-2.075 v -20 q 0,-1.15 0.9,-2.075 0.9,-0.925 2.1,-0.925 h 14.05 l 3,-3 h 16.95 q 1.15,0 2.075,0.925 0.925,0.925 0.925,2.075 v 23 q 0,1.15 -0.925,2.075 -0.925,0.925 -2.075,0.925 z"
    class="ColorScheme-Accent" fill="currentColor" />
  <use href="#icon" class="ColorScheme-Background" fill="currentColor" opacity="0.8" />
  <path
    d="M 7,40 Q 5.8,40 4.9,39.075 4,38.15 4,37 V 11 Q 4,9.85 4.9,8.925 5.8,8 7,8 h 14.05 l 3,3 H 41 q 1.15,0 2.075,0.925 Q 44,12.85 44,14 v 23 q 0,1.15 -0.925,2.075 Q 42.15,40 41,40 z"
    fill="url(#lg1)" />
</svg>