<svg height="48" width="48" version="1.1" xmlns="http://www.w3.org/2000/svg" xmlns:svg="http://www.w3.org/2000/svg">
  <defs>
    <style type="text/css" id="current-color-scheme">
      .ColorScheme-Accent {
        color: #95ccff;
      }

      .ColorScheme-Background {
        color: #28292d;
      }
    </style>
    <linearGradient id="lg1" x1="48" y1="40" x2="48" y2="8" gradientUnits="userSpaceOnUse">
      <stop stop-opacity="0.15" offset="0" />
      <stop stop-opacity="0" offset="1" />
    </linearGradient>
    <path id="folder-back" d="M 4,17 v -6 q 0,-1.15 0.9,-2.075 0.9,-0.925 2.1,-0.925 h 14.05 l 3,3 v 6 z" />
    <path id="icon"
      d="m 24,27 q -1.203,0 -2.045,-0.842 -0.842,-0.842 -0.842,-2.045 0,-1.203 0.842,-2.045 Q 22.797,21.225 24,21.225 q 1.203,0 2.045,0.842 0.842,0.842 0.842,2.045 0,1.203 -0.842,2.045 Q 25.203,27 24,27 Z m -5.775,5.775 v -1.925 q 0,-0.461 0.251,-0.872 0.251,-0.411 0.692,-0.692 1.103,-0.642 2.332,-0.983 1.229,-0.341 2.496,-0.341 1.267,0 2.501,0.341 1.233,0.341 2.336,0.983 0.441,0.261 0.692,0.682 0.251,0.421 0.251,0.882 v 1.925 z m 1.444,-1.444 h 8.662 v -0.481 q 0,-0.104 -0.061,-0.189 -0.061,-0.085 -0.16,-0.132 -0.922,-0.561 -1.965,-0.842 -1.043,-0.281 -2.146,-0.281 -1.103,0 -2.146,0.281 -1.043,0.281 -1.965,0.842 -0.1,0.08 -0.16,0.155 -0.06,0.075 -0.06,0.166 z m 4.335,-5.775 q 0.597,0 1.018,-0.425 0.421,-0.425 0.421,-1.023 0,-0.597 -0.425,-1.018 -0.425,-0.421 -1.023,-0.421 -0.597,0 -1.018,0.425 -0.421,0.425 -0.421,1.023 0,0.597 0.425,1.018 0.425,0.421 1.023,0.421 z m -0.004,-1.444 z m 0,7.219 z" />
  </defs>
  <use href="#folder-back" class="ColorScheme-Accent" fill="currentColor" />
  <use href="#folder-back" class="ColorScheme-Background" fill="currentColor" opacity="0.3" />
  <path
    d="M 7,40 q -1.2,0 -2.1,-0.925 q -0.9,-0.925 -0.9,-2.075 v -20 q 0,-1.15 0.9,-2.075 0.9,-0.925 2.1,-0.925 h 14.05 l 3,-3 h 16.95 q 1.15,0 2.075,0.925 0.925,0.925 0.925,2.075 v 23 q 0,1.15 -0.925,2.075 -0.925,0.925 -2.075,0.925 z"
    class="ColorScheme-Accent" fill="currentColor" />
  <use href="#icon" class="ColorScheme-Background" fill="currentColor" opacity="0.8" />
  <path
    d="M 7,40 Q 5.8,40 4.9,39.075 4,38.15 4,37 V 11 Q 4,9.85 4.9,8.925 5.8,8 7,8 h 14.05 l 3,3 H 41 q 1.15,0 2.075,0.925 Q 44,12.85 44,14 v 23 q 0,1.15 -0.925,2.075 Q 42.15,40 41,40 z"
    fill="url(#lg1)" />
</svg>