<svg viewBox="0 0 48 48" xmlns="http://www.w3.org/2000/svg">
  <defs>
    <style type="text/css" id="current-color-scheme">
      .ColorScheme-Accent {
        color: #95ccff;
      }

      .ColorScheme-Background {
        color: #1e2022;
      }
    </style>
    <path id="folder-back" d="M 4,40 V 8 h 17.05 l 3,3 H 44 v 29 z" />
  </defs>
  <use href="#folder-back" class="ColorScheme-Accent" fill="currentColor" />
  <use href="#folder-back" class="ColorScheme-Background" fill="currentColor" opacity="0.3" />
  <path d="M 4,40 V 14 h 17.05 l 3,-3 H 44 v 29 z" class="ColorScheme-Accent" fill="currentColor" />
  <path
    d="m 24,35.021 q -1.664,0 -3.128,-0.632 Q 19.408,33.758 18.325,32.675 17.242,31.592 16.611,30.128 15.979,28.664 15.979,27 q 0,-1.664 0.632,-3.128 0.632,-1.464 1.714,-2.547 1.083,-1.083 2.547,-1.714 1.464,-0.632 3.128,-0.632 1.664,0 3.128,0.632 1.464,0.632 2.547,1.714 1.083,1.083 1.714,2.547 0.632,1.464 0.632,3.128 0,1.664 -0.632,3.128 -0.632,1.464 -1.714,2.547 -1.083,1.083 -2.547,1.714 Q 25.664,35.021 24,35.021 Z M 23.198,33.377 V 31.813 q -0.662,0 -1.133,-0.471 Q 21.594,30.87 21.594,30.208 V 29.406 l -3.85,-3.85 q -0.06,0.361 -0.11,0.722 -0.05,0.361 -0.05,0.722 0,2.426 1.594,4.251 1.594,1.825 4.02,2.126 z m 5.534,-2.045 q 0.401,-0.441 0.722,-0.952 0.321,-0.511 0.531,-1.063 0.211,-0.551 0.321,-1.133 Q 30.417,27.602 30.417,27 q 0,-1.965 -1.093,-3.589 -1.093,-1.624 -2.918,-2.346 v 0.321 q 0,0.662 -0.471,1.133 -0.471,0.471 -1.133,0.471 h -1.604 v 1.604 q 0,0.341 -0.231,0.571 -0.231,0.231 -0.571,0.231 H 20.792 V 27 h 4.813 q 0.341,0 0.571,0.231 0.231,0.231 0.231,0.571 v 2.406 h 0.802 q 0.521,0 0.942,0.311 0.421,0.311 0.582,0.812 z"
    class="ColorScheme-Background" fill="currentColor" />
</svg>