<svg viewBox="0 0 48 48" xmlns="http://www.w3.org/2000/svg">
  <defs>
    <style type="text/css" id="current-color-scheme">
      .ColorScheme-Accent {
        color: #95ccff;
      }

      .ColorScheme-Background {
        color: #1e2022;
      }
    </style>
    <path id="folder-back" d="M 4,40 V 8 h 17.05 l 3,3 H 44 v 29 z" />
  </defs>
  <use href="#folder-back" class="ColorScheme-Accent" fill="currentColor" />
  <use href="#folder-back" class="ColorScheme-Background" fill="currentColor" opacity="0.3" />
  <path d="M 4,40 V 14 h 17.05 l 3,-3 H 44 v 29 z" class="ColorScheme-Accent" fill="currentColor" />
  <path
    d="m 19.589,30.208 q 0.942,0 1.835,0.211 0.892,0.211 1.775,0.632 V 23.15 Q 22.376,22.669 21.453,22.428 20.531,22.188 19.589,22.188 q -0.722,0 -1.434,0.14 -0.712,0.14 -1.374,0.421 v 7.941 q 0.702,-0.241 1.394,-0.361 0.692,-0.12 1.414,-0.12 z m 5.214,0.842 q 0.882,-0.421 1.775,-0.632 0.892,-0.211 1.835,-0.211 0.722,0 1.414,0.12 0.692,0.12 1.394,0.361 V 22.749 Q 30.557,22.468 29.845,22.328 29.133,22.188 28.411,22.188 q -0.942,0 -1.865,0.241 Q 25.624,22.669 24.802,23.15 Z M 24,33.417 Q 23.038,32.655 21.915,32.234 20.792,31.813 19.589,31.813 q -1.063,0 -2.226,0.401 -1.163,0.401 -2.186,1.243 V 21.827 q 0.882,-0.602 2.075,-0.922 1.193,-0.321 2.336,-0.321 1.163,0 2.276,0.301 1.113,0.301 2.136,0.902 1.023,-0.602 2.136,-0.902 1.113,-0.301 2.276,-0.301 1.143,0 2.336,0.321 1.193,0.321 2.075,0.922 V 33.457 Q 31.82,32.615 30.647,32.214 29.474,31.813 28.411,31.813 q -1.203,0 -2.326,0.421 Q 24.963,32.655 24,33.417 Z M 19.99,26.619 Z m 5.615,-1.303 v -1.364 q 0.662,-0.281 1.354,-0.421 0.692,-0.14 1.454,-0.14 0.521,0 1.023,0.08 0.501,0.08 0.983,0.201 v 1.283 q -0.481,-0.18 -0.973,-0.271 -0.491,-0.09 -1.033,-0.09 -0.762,0 -1.464,0.19 -0.702,0.19 -1.343,0.531 z m 0,4.411 v -1.364 q 0.662,-0.281 1.354,-0.421 0.692,-0.14 1.454,-0.14 0.521,0 1.023,0.08 0.501,0.08 0.983,0.201 v 1.283 q -0.481,-0.18 -0.973,-0.271 -0.491,-0.09 -1.033,-0.09 -0.762,0 -1.464,0.18 -0.702,0.18 -1.343,0.541 z m 0,-2.206 v -1.364 q 0.662,-0.281 1.354,-0.421 0.692,-0.14 1.454,-0.14 0.521,0 1.023,0.08 0.501,0.08 0.983,0.201 v 1.283 q -0.481,-0.18 -0.973,-0.271 -0.491,-0.09 -1.033,-0.09 -0.762,0 -1.464,0.19 -0.702,0.19 -1.343,0.531 z"
    class="ColorScheme-Background" fill="currentColor" />
</svg>