<svg height="48" width="48" version="1.1" xmlns="http://www.w3.org/2000/svg" xmlns:svg="http://www.w3.org/2000/svg">
  <defs>
    <style type="text/css" id="current-color-scheme">
      .ColorScheme-Accent {
        color: #95ccff;
      }

      .ColorScheme-Background {
        color: #28292d;
      }
    </style>
    <linearGradient id="lg1" x1="48" y1="40" x2="48" y2="8" gradientUnits="userSpaceOnUse">
      <stop stop-opacity="0.15" offset="0" />
      <stop stop-opacity="0" offset="1" />
    </linearGradient>
    <path id="folder-back" d="M 4,17 v -6 q 0,-1.15 0.9,-2.075 0.9,-0.925 2.1,-0.925 h 14.05 l 3,3 v 6 z" />
    <path id="icon"
      d="m 18.731,32.775 q -1.097,0 -1.861,-0.779 -0.764,-0.779 -0.8,-1.885 0,-0.163 0.018,-0.325 0.018,-0.162 0.055,-0.324 L 17.678,23.419 q 0.256,-0.971 1.018,-1.583 0.762,-0.612 1.759,-0.612 h 7.07 q 0.997,0 1.759,0.612 0.762,0.612 1.018,1.583 l 1.537,6.043 q 0.037,0.162 0.064,0.333 0.027,0.171 0.027,0.333 0,1.106 -0.782,1.876 -0.782,0.77 -1.898,0.77 -0.769,0 -1.41,-0.391 -0.642,-0.391 -0.983,-1.073 l -0.51,-1.026 q -0.091,-0.177 -0.262,-0.287 -0.17,-0.11 -0.391,-0.11 h -3.429 q -0.221,0 -0.381,0.11 -0.16,0.11 -0.255,0.288 l -0.528,1.031 q -0.34,0.676 -0.971,1.067 -0.632,0.391 -1.399,0.391 z m 0.013,-1.444 q 0.334,0 0.625,-0.19 0.291,-0.19 0.442,-0.49 l 0.53,-1.004 q 0.281,-0.561 0.792,-0.882 0.511,-0.321 1.13,-0.321 h 3.455 q 0.618,0 1.129,0.328 0.511,0.328 0.793,0.875 l 0.521,1.003 q 0.16,0.321 0.446,0.501 0.286,0.18 0.636,0.18 0.504,0 0.863,-0.341 0.36,-0.341 0.36,-0.842 0,-0.12 -0.04,-0.321 L 28.927,23.778 Q 28.802,23.29 28.411,22.98 28.02,22.669 27.514,22.669 H 20.461 q -0.51,0 -0.902,0.302 -0.392,0.302 -0.501,0.781 l -1.508,6.048 q -0.036,0.108 -0.036,0.325 0,0.506 0.36,0.856 0.36,0.351 0.87,0.351 z m 6.446,-5.053 q 0.305,0 0.516,-0.206 0.211,-0.206 0.211,-0.511 0,-0.305 -0.206,-0.516 -0.206,-0.211 -0.511,-0.211 -0.305,0 -0.516,0.206 -0.211,0.206 -0.211,0.511 0,0.305 0.206,0.516 0.206,0.211 0.511,0.211 z m 1.444,-1.444 q 0.305,0 0.516,-0.206 0.211,-0.206 0.211,-0.511 0,-0.305 -0.206,-0.516 -0.206,-0.211 -0.511,-0.211 -0.305,0 -0.516,0.206 -0.211,0.206 -0.211,0.511 0,0.305 0.206,0.516 0.206,0.211 0.511,0.211 z m 0,2.887 q 0.305,0 0.516,-0.206 0.211,-0.206 0.211,-0.511 0,-0.305 -0.206,-0.516 -0.206,-0.211 -0.511,-0.211 -0.305,0 -0.516,0.206 -0.211,0.206 -0.211,0.511 0,0.305 0.206,0.516 0.206,0.211 0.511,0.211 z m 1.444,-1.444 q 0.305,0 0.516,-0.206 0.211,-0.206 0.211,-0.511 0,-0.305 -0.206,-0.516 -0.206,-0.211 -0.511,-0.211 -0.305,0 -0.516,0.206 -0.211,0.206 -0.211,0.511 0,0.305 0.206,0.516 0.206,0.211 0.511,0.211 z m -6.493,0.963 q 0.209,0 0.345,-0.136 0.136,-0.136 0.136,-0.345 V 26.038 h 0.722 q 0.209,0 0.345,-0.136 0.136,-0.136 0.136,-0.345 0,-0.209 -0.136,-0.345 Q 22.995,25.075 22.787,25.075 H 22.065 v -0.722 q 0,-0.209 -0.136,-0.345 -0.136,-0.136 -0.345,-0.136 -0.209,0 -0.345,0.136 -0.136,0.136 -0.136,0.345 V 25.075 h -0.722 q -0.209,0 -0.345,0.136 -0.136,0.136 -0.136,0.345 0,0.209 0.136,0.345 0.136,0.136 0.345,0.136 h 0.722 v 0.722 q 0,0.209 0.136,0.345 0.136,0.136 0.345,0.136 z M 23.99,27 Z" />
  </defs>
  <use href="#folder-back" class="ColorScheme-Accent" fill="currentColor" />
  <use href="#folder-back" class="ColorScheme-Background" fill="currentColor" opacity="0.3" />
  <path
    d="M 7,40 q -1.2,0 -2.1,-0.925 q -0.9,-0.925 -0.9,-2.075 v -20 q 0,-1.15 0.9,-2.075 0.9,-0.925 2.1,-0.925 h 14.05 l 3,-3 h 16.95 q 1.15,0 2.075,0.925 0.925,0.925 0.925,2.075 v 23 q 0,1.15 -0.925,2.075 -0.925,0.925 -2.075,0.925 z"
    class="ColorScheme-Accent" fill="currentColor" />
  <use href="#icon" class="ColorScheme-Background" fill="currentColor" opacity="0.8" />
  <path
    d="M 7,40 Q 5.8,40 4.9,39.075 4,38.15 4,37 V 11 Q 4,9.85 4.9,8.925 5.8,8 7,8 h 14.05 l 3,3 H 41 q 1.15,0 2.075,0.925 Q 44,12.85 44,14 v 23 q 0,1.15 -0.925,2.075 Q 42.15,40 41,40 z"
    fill="url(#lg1)" />
</svg>