<svg height="48" width="48" version="1.1" xmlns="http://www.w3.org/2000/svg" xmlns:svg="http://www.w3.org/2000/svg">
  <defs>
    <style type="text/css" id="current-color-scheme">
      .ColorScheme-PositiveText {
        color: #50c24b;
      }

      .ColorScheme-Background {
        color: #28292d;
      }
    </style>
    <linearGradient id="lg1" x1="48" y1="40" x2="48" y2="8" gradientUnits="userSpaceOnUse">
      <stop stop-opacity="0.15" offset="0" />
      <stop stop-opacity="0" offset="1" />
    </linearGradient>
    <path id="folder-back" d="M 4,17 v -6 q 0,-1.15 0.9,-2.075 0.9,-0.925 2.1,-0.925 h 14.05 l 3,3 v 6 z" />
    <path id="icon"
      d="m 22.837,29.406 h 2.326 L 24.722,26.82 q 0.336,-0.179 0.529,-0.52 0.193,-0.341 0.193,-0.753 0,-0.592 -0.425,-1.013 -0.425,-0.421 -1.023,-0.421 -0.597,0 -1.018,0.424 -0.421,0.424 -0.421,1.02 0,0.409 0.193,0.747 0.193,0.338 0.529,0.516 z m 1.163,5.294 q -2.707,-0.662 -4.482,-3.065 Q 17.744,29.232 17.744,26.298 V 21.706 L 24,19.3 l 6.256,2.406 v 4.592 q 0,2.934 -1.775,5.337 -1.775,2.403 -4.482,3.065 z m 0,-1.504 q 2.085,-0.647 3.449,-2.587 1.364,-1.94 1.364,-4.311 v -3.609 l -4.813,-1.845 -4.812,1.845 v 3.609 q 0,2.371 1.364,4.311 1.364,1.94 3.449,2.587 z m 0,-6.176 z" />
  </defs>
  <use href="#folder-back" class="ColorScheme-PositiveText" fill="currentColor" />
  <use href="#folder-back" class="ColorScheme-Background" fill="currentColor" opacity="0.3" />
  <path
    d="M 7,40 q -1.2,0 -2.1,-0.925 q -0.9,-0.925 -0.9,-2.075 v -20 q 0,-1.15 0.9,-2.075 0.9,-0.925 2.1,-0.925 h 14.05 l 3,-3 h 16.95 q 1.15,0 2.075,0.925 0.925,0.925 0.925,2.075 v 23 q 0,1.15 -0.925,2.075 -0.925,0.925 -2.075,0.925 z"
    class="ColorScheme-PositiveText" fill="currentColor" />
  <use href="#icon" class="ColorScheme-Background" fill="currentColor" opacity="0.8" />
  <path
    d="M 7,40 Q 5.8,40 4.9,39.075 4,38.15 4,37 V 11 Q 4,9.85 4.9,8.925 5.8,8 7,8 h 14.05 l 3,3 H 41 q 1.15,0 2.075,0.925 Q 44,12.85 44,14 v 23 q 0,1.15 -0.925,2.075 Q 42.15,40 41,40 z"
    fill="url(#lg1)" />
</svg>