<svg viewBox="0 0 48 48" xmlns="http://www.w3.org/2000/svg">
  <defs>
    <style type="text/css" id="current-color-scheme">
      .ColorScheme-Accent {
        color: #95ccff;
      }

      .ColorScheme-Background {
        color: #1e2022;
      }
    </style>
    <path id="folder-back" d="M 4,40 V 8 h 17.05 l 3,3 H 44 v 29 z" />
  </defs>
  <use href="#folder-back" class="ColorScheme-Accent" fill="currentColor" />
  <use href="#folder-back" class="ColorScheme-Background" fill="currentColor" opacity="0.3" />
  <path d="M 4,40 V 14 h 17.05 l 3,-3 H 44 v 29 z" class="ColorScheme-Accent" fill="currentColor" />
  <path
    d="M 17.583,35.021 V 23.792 h 2.406 V 22.188 q 0,-1.664 1.173,-2.837 1.173,-1.173 2.837,-1.173 1.664,0 2.837,1.173 1.173,1.173 1.173,2.837 v 1.604 h 2.406 V 35.021 Z M 19.188,33.417 h 9.625 v -8.021 h -9.625 z M 24,31.01 q 0.662,0 1.133,-0.471 0.471,-0.471 0.471,-1.133 0,-0.662 -0.471,-1.133 Q 24.662,27.802 24,27.802 q -0.662,0 -1.133,0.471 -0.471,0.471 -0.471,1.133 0,0.662 0.471,1.133 Q 23.338,31.01 24,31.01 Z m -2.406,-7.219 h 4.813 V 22.188 q 0,-1.003 -0.702,-1.704 Q 25.003,19.781 24,19.781 q -1.003,0 -1.704,0.702 -0.702,0.702 -0.702,1.704 z m -2.406,9.625 v -8.021 z"
    class="ColorScheme-Background" fill="currentColor" />
</svg>