<svg height="48" width="48" version="1.1" xmlns="http://www.w3.org/2000/svg" xmlns:svg="http://www.w3.org/2000/svg">
  <defs>
    <style type="text/css" id="current-color-scheme">
      .ColorScheme-Accent {
        color: #95ccff;
      }

      .ColorScheme-Background {
        color: #28292d;
      }
    </style>
    <linearGradient id="lg1" x1="48" y1="40" x2="48" y2="8" gradientUnits="userSpaceOnUse">
      <stop stop-opacity="0.15" offset="0" />
      <stop stop-opacity="0" offset="1" />
    </linearGradient>
    <path id="folder-back" d="M 4,17 v -6 q 0,-1.15 0.9,-2.075 0.9,-0.925 2.1,-0.925 h 14.05 l 3,3 v 6 z" />
    <path id="icon"
      d="m 20.631,22.188 q -0.401,0 -0.682,0.281 -0.281,0.281 -0.281,0.682 0,0.401 0.281,0.682 0.281,0.281 0.682,0.281 0.401,0 0.682,-0.281 0.281,-0.281 0.281,-0.682 0,-0.401 -0.281,-0.682 Q 21.032,22.188 20.631,22.188 Z m 0,7.7 q -0.401,0 -0.682,0.281 -0.281,0.281 -0.281,0.682 0,0.401 0.281,0.682 0.281,0.281 0.682,0.281 0.401,0 0.682,-0.281 0.281,-0.281 0.281,-0.682 0,-0.401 -0.281,-0.682 -0.281,-0.281 -0.682,-0.281 z M 18.225,19.781 h 11.55 q 0.409,0 0.686,0.277 0.277,0.277 0.277,0.686 v 4.812 q 0,0.409 -0.277,0.686 -0.277,0.277 -0.686,0.277 H 18.225 q -0.409,0 -0.686,-0.277 -0.277,-0.277 -0.277,-0.686 v -4.812 q 0,-0.409 0.277,-0.686 0.277,-0.277 0.686,-0.277 z M 18.706,21.225 v 3.85 H 29.294 V 21.225 Z M 18.225,27.481 h 11.55 q 0.409,0 0.686,0.277 0.277,0.277 0.277,0.686 v 4.812 q 0,0.409 -0.277,0.686 -0.277,0.277 -0.686,0.277 H 18.225 q -0.409,0 -0.686,-0.277 -0.277,-0.277 -0.277,-0.686 V 28.444 q 0,-0.409 0.277,-0.686 0.277,-0.277 0.686,-0.277 z m 0.481,1.444 v 3.85 h 10.587 v -3.85 z m 0,-7.7 v 3.85 z m 0,7.7 v 3.85 z" />
  </defs>
  <use href="#folder-back" class="ColorScheme-Accent" fill="currentColor" />
  <use href="#folder-back" class="ColorScheme-Background" fill="currentColor" opacity="0.3" />
  <path
    d="M 7,40 q -1.2,0 -2.1,-0.925 q -0.9,-0.925 -0.9,-2.075 v -20 q 0,-1.15 0.9,-2.075 0.9,-0.925 2.1,-0.925 h 14.05 l 3,-3 h 16.95 q 1.15,0 2.075,0.925 0.925,0.925 0.925,2.075 v 23 q 0,1.15 -0.925,2.075 -0.925,0.925 -2.075,0.925 z"
    class="ColorScheme-Accent" fill="currentColor" />
  <use href="#icon" class="ColorScheme-Background" fill="currentColor" opacity="0.8" />
  <path
    d="M 7,40 Q 5.8,40 4.9,39.075 4,38.15 4,37 V 11 Q 4,9.85 4.9,8.925 5.8,8 7,8 h 14.05 l 3,3 H 41 q 1.15,0 2.075,0.925 Q 44,12.85 44,14 v 23 q 0,1.15 -0.925,2.075 Q 42.15,40 41,40 z"
    fill="url(#lg1)" />
</svg>