<svg viewBox="0 0 48 48" xmlns="http://www.w3.org/2000/svg">
  <defs>
    <style type="text/css" id="current-color-scheme">
      .ColorScheme-Accent {
        color: #95ccff;
      }

      .ColorScheme-Background {
        color: #1e2022;
      }
    </style>
    <path id="folder-back" d="M 4,40 V 8 h 17.05 l 3,3 H 44 v 29 z" />
  </defs>
  <use href="#folder-back" class="ColorScheme-Accent" fill="currentColor" />
  <use href="#folder-back" class="ColorScheme-Background" fill="currentColor" opacity="0.3" />
  <path d="M 4,40 V 14 h 17.05 l 3,-3 H 44 v 29 z" class="ColorScheme-Accent" fill="currentColor" />
  <path
    d="m 20.391,22.188 q -0.501,0 -0.852,0.351 -0.351,0.351 -0.351,0.852 0,0.501 0.351,0.852 0.351,0.351 0.852,0.351 0.501,0 0.852,-0.351 0.351,-0.351 0.351,-0.852 0,-0.501 -0.351,-0.852 Q 20.892,22.188 20.391,22.188 Z m 0,8.021 q -0.501,0 -0.852,0.351 -0.351,0.351 -0.351,0.852 0,0.501 0.351,0.852 0.351,0.351 0.852,0.351 0.501,0 0.852,-0.351 0.351,-0.351 0.351,-0.852 0,-0.501 -0.351,-0.852 -0.351,-0.351 -0.852,-0.351 z M 16.781,27 v -7.219 h 14.438 V 27 Z m 1.604,-5.615 v 4.01 H 29.615 V 21.385 Z M 16.781,35.021 v -7.219 h 14.438 v 7.219 z m 1.604,-5.615 v 4.01 H 29.615 V 29.406 Z m 0,-8.021 v 4.01 z m 0,8.021 v 4.01 z"
    class="ColorScheme-Background" fill="currentColor" />
</svg>