<svg height="22" width="22" xmlns="http://www.w3.org/2000/svg">
  <style type="text/css" id="current-color-scheme">
    .ColorScheme-Text {
      color: #e2e2e5;
    }
  </style>
  <path
    d="M 18.15,20.717 15.377,17.944 Q 14.804,18.31 14.163,18.574 13.521,18.838 12.833,18.998 V 17.119 q 0.321,-0.115 0.63,-0.229 0.309,-0.115 0.584,-0.275 L 11,13.567 v 4.767 L 6.417,13.75 H 2.75 V 8.25 H 5.683 L 1.283,3.85 2.567,2.567 19.433,19.433 Z M 17.967,15.4 16.638,14.071 q 0.39,-0.71 0.584,-1.49 0.195,-0.779 0.195,-1.604 0,-2.154 -1.26,-3.85 Q 14.896,5.431 12.833,4.835 V 2.956 Q 15.675,3.598 17.463,5.832 19.25,8.067 19.25,10.977 q 0,1.215 -0.332,2.338 Q 18.585,14.438 17.967,15.4 Z m -3.071,-3.071 -2.063,-2.063 V 7.288 Q 13.91,7.792 14.518,8.8 15.125,9.808 15.125,11 q 0,0.344 -0.057,0.676 -0.057,0.332 -0.172,0.653 z M 11,8.433 8.617,6.05 11,3.667 Z M 9.167,13.888 v -2.154 l -1.65,-1.65 H 4.583 v 1.833 h 2.613 z m -0.825,-2.979 z"
    class="ColorScheme-Text" fill="currentColor" />
</svg>