<svg height="22" width="22" xmlns="http://www.w3.org/2000/svg">
  <style type="text/css" id="current-color-scheme">
    .ColorScheme-Text {
      color: #e2e2e5;
    }

    .ColorScheme-PositiveText {
      color: #50c24b;
    }
  </style>
  <path
    d="M 2.75,13.75 V 8.25 H 6.417 L 11,3.667 V 18.333 L 6.417,13.75 Z M 9.167,8.113 7.196,10.083 H 4.583 v 1.833 H 7.196 L 9.167,13.888 Z"
    class="ColorScheme-Text" fill="currentColor" />
  <path
    d="M 12.833,18.998 V 17.119 q 2.063,-0.596 3.323,-2.292 1.26,-1.696 1.26,-3.85 0,-2.154 -1.26,-3.85 Q 14.896,5.431 12.833,4.835 V 2.956 Q 15.675,3.598 17.463,5.832 19.25,8.067 19.25,10.977 q 0,2.91 -1.788,5.145 -1.788,2.234 -4.629,2.876 z M 12.833,14.667 V 7.288 Q 13.91,7.792 14.518,8.8 15.125,9.808 15.125,11 q 0,1.169 -0.607,2.166 -0.607,0.997 -1.684,1.501 z"
    class="ColorScheme-PositiveText" fill="currentColor" />
</svg>