<svg height="22" width="22" xmlns="http://www.w3.org/2000/svg">
  <style type="text/css" id="current-color-scheme">
    .ColorScheme-Text {
      color: #e2e2e5;
    }
  </style>
  <path
    d="M 16.248,16.157 H 11.046 L 8.456,18.746 q -0.527,0.527 -1.295,0.527 -0.768,0 -1.295,-0.527 L 3.277,16.157 Q 2.75,15.63 2.75,14.85 q 0,-0.779 0.527,-1.306 L 5.844,10.977 V 5.775 Z M 11.825,14.323 7.677,10.175 v 1.558 L 4.56,14.85 7.15,17.44 10.267,14.323 Z M 6.623,4.011 Q 9.075,2.452 11.928,2.762 q 2.853,0.309 4.916,2.372 2.063,2.063 2.372,4.916 0.309,2.853 -1.249,5.305 L 16.638,14.025 Q 17.669,12.146 17.359,10.049 17.05,7.952 15.538,6.44 14.025,4.927 11.928,4.618 9.831,4.309 7.952,5.34 Z M 9.327,6.715 Q 10.633,6.325 11.963,6.555 q 1.329,0.229 2.292,1.192 0.963,0.963 1.18,2.28 0.218,1.318 -0.172,2.624 l -1.558,-1.558 q 0,-0.573 -0.172,-1.111 Q 13.36,9.442 12.971,9.052 12.558,8.64 12.02,8.457 11.481,8.273 10.885,8.273 Z M 8.204,13.796 Z"
    class="ColorScheme-Text" fill="currentColor" />
</svg>