<svg height="22" width="22" xmlns="http://www.w3.org/2000/svg">
  <defs>
    <style type="text/css" id="current-color-scheme">
      .ColorScheme-Text {
        color: #e2e2e5;
      }

      .ColorScheme-Background {
        color: #28292d;
      }
    </style>
    <path id="icon"
      d="m 3.667,11.917 q -1.146,0 -1.948,-0.802 Q 0.917,10.313 0.917,9.167 q 0,-1.146 0.802,-1.948 0.802,-0.802 1.948,-0.802 1.146,0 1.948,0.802 0.802,0.802 0.802,1.948 0,1.146 -0.802,1.948 Q 4.813,11.917 3.667,11.917 Z m -1.833,5.5 V 15.583 H 20.167 v 1.833 z M 11,11.917 q -1.146,0 -1.948,-0.802 Q 8.25,10.313 8.25,9.167 8.25,8.021 9.052,7.219 9.854,6.417 11,6.417 q 1.146,0 1.948,0.802 Q 13.75,8.021 13.75,9.167 13.75,10.313 12.948,11.115 12.146,11.917 11,11.917 Z m 7.333,0 q -1.146,0 -1.948,-0.802 -0.802,-0.802 -0.802,-1.948 0,-1.146 0.802,-1.948 0.802,-0.802 1.948,-0.802 1.146,0 1.948,0.802 0.802,0.802 0.802,1.948 0,1.146 -0.802,1.948 -0.802,0.802 -1.948,0.802 z"
      style="stroke-width:0.025" />
  </defs>
  <use href="#icon" class="ColorScheme-Background" stroke-width="1" stroke="currentColor" />
  <use href="#icon" class="ColorScheme-Text" fill="currentColor" />
</svg>