<svg height="22" width="22" xmlns="http://www.w3.org/2000/svg">
  <style type="text/css" id="current-color-scheme">
    .ColorScheme-Text {
      color: #e2e2e5;
    }
  </style>
  <path
    d="M 10.083,20.167 V 13.2 L 5.867,17.417 4.583,16.133 9.717,11 4.583,5.867 5.867,4.583 10.083,8.8 V 1.833 H 11 L 16.225,7.058 12.283,11 16.225,14.942 11,20.167 Z M 11.917,8.8 13.658,7.058 11.917,5.363 Z m 0,7.838 1.742,-1.696 L 11.917,13.2 Z M 4.583,12.375 Q 4.01,12.375 3.609,11.974 3.208,11.573 3.208,11 q 0,-0.573 0.401,-0.974 Q 4.01,9.625 4.583,9.625 5.156,9.625 5.557,10.026 5.958,10.427 5.958,11 q 0,0.573 -0.401,0.974 Q 5.156,12.375 4.583,12.375 Z m 12.833,0 q -0.573,0 -0.974,-0.401 Q 16.042,11.573 16.042,11 q 0,-0.573 0.401,-0.974 Q 16.844,9.625 17.417,9.625 q 0.573,0 0.974,0.401 0.401,0.401 0.401,0.974 0,0.573 -0.401,0.974 Q 17.99,12.375 17.417,12.375 Z"
    class="ColorScheme-Text" fill="currentColor" />
</svg>