<svg height="22" width="22" xmlns="http://www.w3.org/2000/svg">
  <style type="text/css" id="current-color-scheme">
    .ColorScheme-Text {
      color: #e2e2e5;
    }
  </style>
  <path
    d="M 8.479,20.167 8.113,17.233 Q 7.815,17.119 7.551,16.958 7.288,16.798 7.035,16.615 L 4.308,17.76 1.788,13.406 4.148,11.619 Q 4.125,11.458 4.125,11.309 v -0.619 q 0,-0.149 0.023,-0.309 L 1.788,8.594 4.308,4.24 7.035,5.385 Q 7.288,5.202 7.563,5.042 q 0.275,-0.16 0.55,-0.275 L 8.479,1.833 H 13.521 L 13.888,4.767 q 0.298,0.115 0.561,0.275 0.264,0.16 0.516,0.344 L 17.692,4.24 20.213,8.594 l -2.36,1.788 q 0.023,0.16 0.023,0.309 v 0.619 q 0,0.149 -0.046,0.309 l 2.36,1.788 -2.521,4.354 -2.704,-1.146 q -0.252,0.183 -0.527,0.344 -0.275,0.16 -0.55,0.275 l -0.367,2.933 z m 1.604,-1.833 h 1.81 l 0.321,-2.429 Q 12.925,15.721 13.532,15.366 14.14,15.01 14.644,14.506 L 16.913,15.446 17.806,13.888 15.835,12.398 Q 15.95,12.077 15.996,11.722 16.042,11.367 16.042,11 q 0,-0.367 -0.046,-0.722 Q 15.95,9.923 15.835,9.602 L 17.806,8.113 16.913,6.554 l -2.269,0.963 Q 14.14,6.99 13.532,6.634 12.925,6.279 12.215,6.096 L 11.917,3.667 H 10.106 L 9.785,6.096 Q 9.075,6.279 8.468,6.634 7.86,6.99 7.356,7.494 L 5.088,6.554 4.194,8.113 6.165,9.579 Q 6.05,9.923 6.004,10.267 5.958,10.61 5.958,11 q 0,0.367 0.046,0.71 0.046,0.344 0.16,0.688 L 4.194,13.888 l 0.894,1.558 2.269,-0.963 q 0.504,0.527 1.111,0.882 0.607,0.355 1.318,0.539 z m 0.963,-4.125 q 1.329,0 2.269,-0.94 0.94,-0.94 0.94,-2.269 0,-1.329 -0.94,-2.269 Q 12.375,7.792 11.046,7.792 9.694,7.792 8.766,8.731 7.838,9.671 7.838,11 q 0,1.329 0.928,2.269 0.928,0.94 2.28,0.94 z M 11,11 Z"
    class="ColorScheme-Text" fill="currentColor" />
</svg>