<svg height="22" width="22" xmlns="http://www.w3.org/2000/svg">
  <style type="text/css" id="current-color-scheme">
    .ColorScheme-Text {
      color: #e2e2e5;
    }
  </style>
  <path
    d="M 11,19.25 Q 9.281,19.25 7.78,18.597 6.279,17.944 5.168,16.832 4.056,15.721 3.403,14.22 2.75,12.719 2.75,11 2.75,9.281 3.403,7.78 4.056,6.279 5.168,5.168 6.279,4.056 7.78,3.403 9.281,2.75 11,2.75 q 1.879,0 3.564,0.802 1.684,0.802 2.853,2.269 V 3.667 H 19.25 v 5.5 h -5.5 V 7.333 h 2.521 Q 15.331,6.05 13.956,5.317 12.581,4.583 11,4.583 q -2.681,0 -4.549,1.868 Q 4.583,8.319 4.583,11 q 0,2.681 1.868,4.549 Q 8.319,17.417 11,17.417 q 2.406,0 4.205,-1.558 Q 17.004,14.3 17.325,11.917 h 1.879 Q 18.86,15.056 16.511,17.153 14.163,19.25 11,19.25 Z m 2.567,-4.4 -3.483,-3.483 V 6.417 h 1.833 V 10.633 L 14.85,13.567 Z"
    class="ColorScheme-Text" fill="currentColor" />
</svg>