<svg height="64" width="64" xmlns="http://www.w3.org/2000/svg">
  <style type="text/css" id="current-color-scheme">
    .ColorScheme-Text {
      color: #e2e2e5;
    }

    .ColorScheme-Background {
      color: #28292d;
    }
  </style>
  <rect width="64" height="64" opacity="0" />
  <path
    d="m 32.267,47.533 q 1.067,0 1.8,-0.733 0.733,-0.733 0.733,-1.8 0,-1.067 -0.733,-1.8 -0.733,-0.733 -1.8,-0.733 -1.067,0 -1.8,0.733 -0.733,0.733 -0.733,1.8 0,1.067 0.733,1.8 0.733,0.733 1.8,0.733 z m -2.333,-9.733 h 3.933 q 0,-1.733 0.433,-3.167 0.433,-1.433 2.7,-3.3 2.067,-1.733 2.933,-3.4 0.867,-1.667 0.867,-3.667 0,-3.533 -2.3,-5.667 -2.3,-2.133 -6.1,-2.133 -3.267,0 -5.767,1.633 -2.5,1.633 -3.633,4.5 l 3.533,1.333 q 0.733,-1.867 2.2,-2.9 Q 30.2,20 32.2,20 q 2.267,0 3.667,1.233 1.4,1.233 1.4,3.167 0,1.467 -0.867,2.767 -0.867,1.3 -2.533,2.7 -2,1.733 -2.967,3.433 -0.967,1.7 -0.967,4.5 z m 2.067,20.867 q -5.467,0 -10.333,-2.1 -4.867,-2.1 -8.5,-5.733 -3.633,-3.633 -5.733,-8.5 -2.1,-4.867 -2.1,-10.333 0,-5.533 2.1,-10.4 2.1,-4.867 5.733,-8.467 3.633,-3.6 8.5,-5.7 4.867,-2.1 10.333,-2.1 5.533,0 10.4,2.1 4.867,2.1 8.467,5.7 3.6,3.6 5.7,8.467 2.1,4.867 2.1,10.4 0,5.467 -2.1,10.333 -2.1,4.867 -5.7,8.5 -3.6,3.633 -8.467,5.733 -4.867,2.1 -10.4,2.1 z m 0,-4 q 9.467,0 16.067,-6.633 6.6,-6.633 6.6,-16.033 0,-9.467 -6.6,-16.067 -6.6,-6.6 -16.067,-6.6 -9.4,0 -16.033,6.6 -6.633,6.6 -6.633,16.067 0,9.4 6.633,16.033 6.633,6.633 16.033,6.633 z m 0,-22.667 z"
    class="ColorScheme-Background" stroke-width="1" stroke="currentColor" />
  <path
    d="m 32.267,47.533 q 1.067,0 1.8,-0.733 0.733,-0.733 0.733,-1.8 0,-1.067 -0.733,-1.8 -0.733,-0.733 -1.8,-0.733 -1.067,0 -1.8,0.733 -0.733,0.733 -0.733,1.8 0,1.067 0.733,1.8 0.733,0.733 1.8,0.733 z m -2.333,-9.733 h 3.933 q 0,-1.733 0.433,-3.167 0.433,-1.433 2.7,-3.3 2.067,-1.733 2.933,-3.4 0.867,-1.667 0.867,-3.667 0,-3.533 -2.3,-5.667 -2.3,-2.133 -6.1,-2.133 -3.267,0 -5.767,1.633 -2.5,1.633 -3.633,4.5 l 3.533,1.333 q 0.733,-1.867 2.2,-2.9 Q 30.2,20 32.2,20 q 2.267,0 3.667,1.233 1.4,1.233 1.4,3.167 0,1.467 -0.867,2.767 -0.867,1.3 -2.533,2.7 -2,1.733 -2.967,3.433 -0.967,1.7 -0.967,4.5 z m 2.067,20.867 q -5.467,0 -10.333,-2.1 -4.867,-2.1 -8.5,-5.733 -3.633,-3.633 -5.733,-8.5 -2.1,-4.867 -2.1,-10.333 0,-5.533 2.1,-10.4 2.1,-4.867 5.733,-8.467 3.633,-3.6 8.5,-5.7 4.867,-2.1 10.333,-2.1 5.533,0 10.4,2.1 4.867,2.1 8.467,5.7 3.6,3.6 5.7,8.467 2.1,4.867 2.1,10.4 0,5.467 -2.1,10.333 -2.1,4.867 -5.7,8.5 -3.6,3.633 -8.467,5.733 -4.867,2.1 -10.4,2.1 z m 0,-4 q 9.467,0 16.067,-6.633 6.6,-6.633 6.6,-16.033 0,-9.467 -6.6,-16.067 -6.6,-6.6 -16.067,-6.6 -9.4,0 -16.033,6.6 -6.633,6.6 -6.633,16.067 0,9.4 6.633,16.033 6.633,6.633 16.033,6.633 z m 0,-22.667 z"
    class="ColorScheme-Text" fill="currentColor" />
</svg>