<svg height="64" width="64" version="1.1" xmlns="http://www.w3.org/2000/svg">
  <style type="text/css" id="current-color-scheme">
    .ColorScheme-NeutralText {
      color: #f9bd00;
    }

    .ColorScheme-Background {
      color: #28292d;
    }
  </style>
  <rect width="64" height="64" opacity="0" />
  <path
    d="M 2.667,56 32,5.333 61.333,56 Z m 6.933,-4 H 54.4 l -22.4,-38.667 z m 22.679,-3.8 q 0.855,0 1.421,-0.579 0.567,-0.578 0.567,-1.433 0,-0.855 -0.579,-1.421 -0.578,-0.567 -1.433,-0.567 -0.855,0 -1.421,0.579 -0.567,0.578 -0.567,1.433 0,0.855 0.579,1.421 0.578,0.567 1.433,0.567 z m -2.012,-7.4 h 4 V 25.867 h -4 z m 1.733,-8.133 z"
    class="ColorScheme-Background" stroke-width="1" stroke="currentColor" />
  <path
    d="M 2.667,56 32,5.333 61.333,56 Z m 6.933,-4 H 54.4 l -22.4,-38.667 z m 22.679,-3.8 q 0.855,0 1.421,-0.579 0.567,-0.578 0.567,-1.433 0,-0.855 -0.579,-1.421 -0.578,-0.567 -1.433,-0.567 -0.855,0 -1.421,0.579 -0.567,0.578 -0.567,1.433 0,0.855 0.579,1.421 0.578,0.567 1.433,0.567 z m -2.012,-7.4 h 4 V 25.867 h -4 z m 1.733,-8.133 z"
    class="ColorScheme-NeutralText" fill="currentColor" />
</svg>