<svg height="64" width="64" xmlns="http://www.w3.org/2000/svg">
  <style type="text/css" id="current-color-scheme">
    .ColorScheme-PositiveText {
      color: #50c24b;
    }

    .ColorScheme-Background {
      color: #28292d;
    }
  </style>
  <rect width="64" height="64" opacity="0" />
  <path
    d="m 28.067,44.133 18.867,-18.867 -3.067,-3 -15.8,15.8 -8,-8 -3,3 z m 3.933,14.533 q -5.467,0 -10.333,-2.1 -4.867,-2.1 -8.5,-5.733 -3.633,-3.633 -5.733,-8.5 -2.1,-4.867 -2.1,-10.333 0,-5.533 2.1,-10.4 2.1,-4.867 5.733,-8.467 3.633,-3.6 8.5,-5.7 4.867,-2.1 10.333,-2.1 5.533,0 10.4,2.1 4.867,2.1 8.467,5.7 3.6,3.6 5.7,8.467 2.1,4.867 2.1,10.4 0,5.467 -2.1,10.333 -2.1,4.867 -5.7,8.5 -3.6,3.633 -8.467,5.733 -4.867,2.1 -10.4,2.1 z m 0,-4 q 9.467,0 16.067,-6.633 6.6,-6.633 6.6,-16.033 0,-9.467 -6.6,-16.067 -6.6,-6.6 -16.067,-6.6 -9.4,0 -16.033,6.6 -6.633,6.6 -6.633,16.067 0,9.4 6.633,16.033 6.633,6.633 16.033,6.633 z m 0,-22.667 z"
    class="ColorScheme-Background" stroke-width="1" stroke="currentColor" />
  <path
    d="m 28.067,44.133 18.867,-18.867 -3.067,-3 -15.8,15.8 -8,-8 -3,3 z m 3.933,14.533 q -5.467,0 -10.333,-2.1 -4.867,-2.1 -8.5,-5.733 -3.633,-3.633 -5.733,-8.5 -2.1,-4.867 -2.1,-10.333 0,-5.533 2.1,-10.4 2.1,-4.867 5.733,-8.467 3.633,-3.6 8.5,-5.7 4.867,-2.1 10.333,-2.1 5.533,0 10.4,2.1 4.867,2.1 8.467,5.7 3.6,3.6 5.7,8.467 2.1,4.867 2.1,10.4 0,5.467 -2.1,10.333 -2.1,4.867 -5.7,8.5 -3.6,3.633 -8.467,5.733 -4.867,2.1 -10.4,2.1 z m 0,-4 q 9.467,0 16.067,-6.633 6.6,-6.633 6.6,-16.033 0,-9.467 -6.6,-16.067 -6.6,-6.6 -16.067,-6.6 -9.4,0 -16.033,6.6 -6.633,6.6 -6.633,16.067 0,9.4 6.633,16.033 6.633,6.633 16.033,6.633 z m 0,-22.667 z"
    class="ColorScheme-PositiveText" fill="currentColor" />
</svg>