<svg height="64" width="64" xmlns="http://www.w3.org/2000/svg">
  <style type="text/css" id="current-color-scheme">
    .ColorScheme-Accent {
      color: #95ccff;
    }

    .ColorScheme-Background {
      color: #28292d;
    }
  </style>
  <rect width="64" height="64" opacity="0" />
  <path
    d="m 30.2,45.333 h 4 V 29.333 h -4 z m 1.799,-20.933 q 0.935,0 1.568,-0.613 0.633,-0.613 0.633,-1.52 0,-0.963 -0.632,-1.615 Q 32.936,20 32.001,20 q -0.935,0 -1.568,0.652 -0.633,0.651 -0.633,1.615 0,0.907 0.632,1.52 0.632,0.613 1.567,0.613 z m 0.019,34.267 q -5.516,0 -10.367,-2.1 -4.851,-2.1 -8.485,-5.733 -3.633,-3.633 -5.733,-8.489 -2.1,-4.856 -2.1,-10.377 0,-5.521 2.1,-10.377 2.1,-4.856 5.733,-8.456 Q 16.8,9.533 21.656,7.433 q 4.856,-2.1 10.377,-2.1 5.521,0 10.377,2.1 4.856,2.1 8.456,5.7 3.6,3.6 5.7,8.467 2.1,4.867 2.1,10.382 0,5.516 -2.1,10.367 -2.1,4.851 -5.7,8.473 -3.6,3.621 -8.467,5.733 -4.867,2.112 -10.382,2.112 z m 0.015,-4 q 9.433,0 16.033,-6.633 6.6,-6.633 6.6,-16.067 0,-9.433 -6.587,-16.033 -6.587,-6.6 -16.079,-6.6 -9.4,0 -16.033,6.587 -6.633,6.587 -6.633,16.079 0,9.4 6.633,16.033 6.633,6.633 16.067,6.633 z m -0.033,-22.667 z"
    class="ColorScheme-Background" stroke-width="1" stroke="currentColor" />
  <path
    d="m 30.2,45.333 h 4 V 29.333 h -4 z m 1.799,-20.933 q 0.935,0 1.568,-0.613 0.633,-0.613 0.633,-1.52 0,-0.963 -0.632,-1.615 Q 32.936,20 32.001,20 q -0.935,0 -1.568,0.652 -0.633,0.651 -0.633,1.615 0,0.907 0.632,1.52 0.632,0.613 1.567,0.613 z m 0.019,34.267 q -5.516,0 -10.367,-2.1 -4.851,-2.1 -8.485,-5.733 -3.633,-3.633 -5.733,-8.489 -2.1,-4.856 -2.1,-10.377 0,-5.521 2.1,-10.377 2.1,-4.856 5.733,-8.456 Q 16.8,9.533 21.656,7.433 q 4.856,-2.1 10.377,-2.1 5.521,0 10.377,2.1 4.856,2.1 8.456,5.7 3.6,3.6 5.7,8.467 2.1,4.867 2.1,10.382 0,5.516 -2.1,10.367 -2.1,4.851 -5.7,8.473 -3.6,3.621 -8.467,5.733 -4.867,2.112 -10.382,2.112 z m 0.015,-4 q 9.433,0 16.033,-6.633 6.6,-6.633 6.6,-16.067 0,-9.433 -6.587,-16.033 -6.587,-6.6 -16.079,-6.6 -9.4,0 -16.033,6.587 -6.633,6.587 -6.633,16.079 0,9.4 6.633,16.033 6.633,6.633 16.067,6.633 z m -0.033,-22.667 z"
    class="ColorScheme-Accent" fill="currentColor" />
</svg>