<svg height="64" width="64" xmlns="http://www.w3.org/2000/svg">
  <style type="text/css" id="current-color-scheme">
    .ColorScheme-NegativeText {
      color: #ff5540;
    }

    .ColorScheme-Background {
      color: #28292d;
    }
  </style>
  <rect width="64" height="64" opacity="0" />
  <path
    d="m 25.733,41 6.267,-6.067 6.267,6.067 3,-3 -6.2,-6.067 6.2,-6.133 -3,-3 -6.267,6.067 -6.267,-6.067 -3,3 6.2,6.133 -6.2,6.067 z m 6.267,17.6 q -9.333,-2.333 -15.333,-10.833 -6,-8.5 -6,-18.633 V 13.267 L 32,5.267 53.333,13.267 v 15.867 q 0,10.133 -6,18.633 -6,8.5 -15.333,10.833 z m 0,-4.133 q 7.667,-2.533 12.5,-9.567 4.833,-7.033 4.833,-15.767 V 16.067 L 32,9.533 14.667,16.067 v 13.067 q 0,8.733 4.833,15.767 4.833,7.033 12.5,9.567 z m 0,-22.467 z"
    class="ColorScheme-Background" stroke-width="1" stroke="currentColor" />
  <path
    d="m 25.733,41 6.267,-6.067 6.267,6.067 3,-3 -6.2,-6.067 6.2,-6.133 -3,-3 -6.267,6.067 -6.267,-6.067 -3,3 6.2,6.133 -6.2,6.067 z m 6.267,17.6 q -9.333,-2.333 -15.333,-10.833 -6,-8.5 -6,-18.633 V 13.267 L 32,5.267 53.333,13.267 v 15.867 q 0,10.133 -6,18.633 -6,8.5 -15.333,10.833 z m 0,-4.133 q 7.667,-2.533 12.5,-9.567 4.833,-7.033 4.833,-15.767 V 16.067 L 32,9.533 14.667,16.067 v 13.067 q 0,8.733 4.833,15.767 4.833,7.033 12.5,9.567 z m 0,-22.467 z"
    class="ColorScheme-NegativeText" fill="currentColor" />
</svg>