<svg height="64" width="64" xmlns="http://www.w3.org/2000/svg">
  <style type="text/css" id="current-color-scheme">
    .ColorScheme-PositiveText {
      color: #50c24b;
    }

    .ColorScheme-Background {
      color: #28292d;
    }
  </style>
  <rect width="64" height="64" opacity="0" />
  <path
    d="m 29.067,40.866 15.2,-15.2 -2.8,-2.733 -12.2,12.2 -6.733,-6.733 -2.933,2.933 z M 32,58.599 q -9.333,-2.333 -15.333,-10.833 -6,-8.5 -6,-18.633 V 13.266 l 21.333,-8 21.333,8 v 15.867 q 0,10.133 -6,18.633 -6,8.5 -15.333,10.833 z m 0,-4.133 q 7.667,-2.533 12.5,-9.567 4.833,-7.033 4.833,-15.767 V 16.065 L 32,9.532 14.667,16.065 v 13.067 q 0,8.733 4.833,15.767 4.833,7.033 12.5,9.567 z m 0,-22.467 z"
    class="ColorScheme-Background" stroke-width="1" stroke="currentColor" />
  <path
    d="m 29.067,40.866 15.2,-15.2 -2.8,-2.733 -12.2,12.2 -6.733,-6.733 -2.933,2.933 z M 32,58.599 q -9.333,-2.333 -15.333,-10.833 -6,-8.5 -6,-18.633 V 13.266 l 21.333,-8 21.333,8 v 15.867 q 0,10.133 -6,18.633 -6,8.5 -15.333,10.833 z m 0,-4.133 q 7.667,-2.533 12.5,-9.567 4.833,-7.033 4.833,-15.767 V 16.065 L 32,9.532 14.667,16.065 v 13.067 q 0,8.733 4.833,15.767 4.833,7.033 12.5,9.567 z m 0,-22.467 z"
    class="ColorScheme-PositiveText" fill="currentColor" />
</svg>