<svg height="64" width="64" version="1.1" xmlns="http://www.w3.org/2000/svg">
  <style type="text/css" id="current-color-scheme">
    .ColorScheme-NeutralText {
      color: #f9bd00;
    }

    .ColorScheme-Background {
      color: #28292d;
    }
  </style>
  <rect width="64" height="64" opacity="0" />
  <path
    d="m 32,41.733 q 0.963,0 1.615,-0.651 0.651,-0.652 0.651,-1.615 0,-0.963 -0.651,-1.615 -0.652,-0.651 -1.615,-0.651 -0.963,0 -1.615,0.651 -0.651,0.652 -0.651,1.615 0,0.963 0.651,1.615 0.652,0.651 1.615,0.651 z M 30,32.8 h 4 V 19 h -4 z m 2,25.8 q -9.333,-2.333 -15.333,-10.833 -6,-8.5 -6,-18.633 V 13.267 l 21.333,-8 21.333,8 v 15.867 q 0,10.133 -6,18.633 -6,8.5 -15.333,10.833 z m 0,-4.133 Q 39.667,51.934 44.5,44.9 49.333,37.867 49.333,29.133 V 16.066 L 32,9.533 14.667,16.066 v 13.067 q 0,8.733 4.833,15.767 4.833,7.033 12.5,9.567 z M 32,32 Z"
    class="ColorScheme-Background" stroke-width="1" stroke="currentColor" />
  <path
    d="m 32,41.733 q 0.963,0 1.615,-0.651 0.651,-0.652 0.651,-1.615 0,-0.963 -0.651,-1.615 -0.652,-0.651 -1.615,-0.651 -0.963,0 -1.615,0.651 -0.651,0.652 -0.651,1.615 0,0.963 0.651,1.615 0.652,0.651 1.615,0.651 z M 30,32.8 h 4 V 19 h -4 z m 2,25.8 q -9.333,-2.333 -15.333,-10.833 -6,-8.5 -6,-18.633 V 13.267 l 21.333,-8 21.333,8 v 15.867 q 0,10.133 -6,18.633 -6,8.5 -15.333,10.833 z m 0,-4.133 Q 39.667,51.934 44.5,44.9 49.333,37.867 49.333,29.133 V 16.066 L 32,9.533 14.667,16.066 v 13.067 q 0,8.733 4.833,15.767 4.833,7.033 12.5,9.567 z M 32,32 Z"
    class="ColorScheme-NeutralText" fill="currentColor" />
</svg>