<svg height="64" width="64" version="1.1" xmlns="http://www.w3.org/2000/svg" xmlns:svg="http://www.w3.org/2000/svg">
  <defs>
    <style type="text/css" id="current-color-scheme">
      .ColorScheme-Accent {
        color: #95ccff;
      }

      .ColorScheme-Background {
        color: #28292d;
      }
    </style>
    <linearGradient id="lg1" x1="48" y1="53.334" x2="48" y2="10.667" gradientUnits="userSpaceOnUse">
      <stop stop-opacity="0.15" offset="0" />
      <stop stop-opacity="0" offset="1" />
    </linearGradient>
    <path id="folder-back" d="M 5.333,22.667 v -8 q 0,-1.533 1.2,-2.767 1.2,-1.233 2.8,-1.23 h 18.734 l 4,4 v 8 z" />
    <path id="icon"
      d="m 23.967,44.834 q -1.656,0 -2.829,-1.187 -1.173,-1.187 -1.228,-2.871 0,-0.248 0.028,-0.497 0.028,-0.248 0.083,-0.497 l 2.319,-9.275 q 0.386,-1.491 1.573,-2.415 1.187,-0.925 2.705,-0.925 h 10.766 q 1.518,0 2.705,0.925 1.187,0.925 1.573,2.415 l 2.319,9.275 q 0.055,0.248 0.097,0.511 0.041,0.262 0.041,0.511 0,1.684 -1.201,2.857 -1.201,1.173 -2.885,1.173 -1.159,0 -2.153,-0.607 -0.994,-0.607 -1.491,-1.656 L 35.616,40.969 q -0.138,-0.276 -0.414,-0.414 -0.276,-0.138 -0.58,-0.138 h -5.245 q -0.304,0 -0.58,0.138 -0.276,0.138 -0.414,0.414 l -0.773,1.601 q -0.497,1.049 -1.491,1.656 -0.994,0.607 -2.153,0.607 z M 24.05,42.626 q 0.524,0 0.952,-0.276 0.428,-0.276 0.649,-0.745 l 0.773,-1.573 q 0.414,-0.856 1.215,-1.339 0.801,-0.483 1.739,-0.483 h 5.245 q 0.939,0 1.739,0.497 0.801,0.497 1.242,1.325 l 0.773,1.573 q 0.221,0.469 0.649,0.745 0.428,0.276 0.952,0.276 0.773,0 1.325,-0.511 0.552,-0.511 0.58,-1.284 0,0.028 -0.055,-0.524 l -2.319,-9.247 Q 39.315,30.314 38.735,29.845 38.156,29.375 37.383,29.375 H 26.617 q -0.773,0 -1.366,0.469 -0.593,0.469 -0.759,1.215 l -2.319,9.247 q -0.055,0.166 -0.055,0.497 0,0.773 0.566,1.297 0.566,0.524 1.366,0.524 z m 9.606,-7.729 q 0.469,0 0.787,-0.317 0.317,-0.317 0.317,-0.787 0,-0.469 -0.317,-0.787 -0.317,-0.317 -0.787,-0.317 -0.469,0 -0.787,0.317 -0.317,0.317 -0.317,0.787 0,0.469 0.317,0.787 0.317,0.317 0.787,0.317 z m 2.208,-2.208 q 0.469,0 0.787,-0.317 0.317,-0.317 0.317,-0.787 0,-0.469 -0.317,-0.787 -0.317,-0.317 -0.787,-0.317 -0.469,0 -0.787,0.317 -0.317,0.317 -0.317,0.787 0,0.469 0.317,0.787 0.317,0.317 0.787,0.317 z m 0,4.417 q 0.469,0 0.787,-0.317 0.317,-0.317 0.317,-0.787 0,-0.469 -0.317,-0.787 -0.317,-0.317 -0.787,-0.317 -0.469,0 -0.787,0.317 -0.317,0.317 -0.317,0.787 0,0.469 0.317,0.787 0.317,0.317 0.787,0.317 z m 2.208,-2.208 q 0.469,0 0.787,-0.317 0.317,-0.317 0.317,-0.787 0,-0.469 -0.317,-0.787 -0.317,-0.317 -0.787,-0.317 -0.469,0 -0.787,0.317 -0.317,0.317 -0.317,0.787 0,0.469 0.317,0.787 0.317,0.317 0.787,0.317 z m -9.938,1.656 q 0.359,0 0.593,-0.235 0.235,-0.235 0.235,-0.593 v -1.104 h 1.104 q 0.359,0 0.593,-0.235 0.235,-0.235 0.235,-0.593 0,-0.359 -0.235,-0.593 -0.235,-0.235 -0.593,-0.235 h -1.104 v -1.104 q 0,-0.359 -0.235,-0.593 -0.235,-0.235 -0.593,-0.235 -0.359,0 -0.593,0.235 -0.235,0.235 -0.235,0.593 v 1.104 h -1.104 q -0.359,0 -0.593,0.235 -0.235,0.235 -0.235,0.593 0,0.359 0.235,0.593 0.235,0.235 0.593,0.235 h 1.104 v 1.104 q 0,0.359 0.235,0.593 0.235,0.235 0.593,0.235 z M 32,36 Z" />
  </defs>
  <use href="#folder-back" class="ColorScheme-Accent" fill="currentColor" />
  <use href="#folder-back" class="ColorScheme-Background" fill="currentColor" opacity="0.3" />
  <path
    d=" M 9.333,53.333 q -1.6,0 -2.8,-1.233 -1.2,-1.233 -1.2,-2.767 v -26.666 q 0,-1.533 1.2,-2.767 1.2,-1.233 2.8,-1.233 h 18.734 l 4,-4 h 22.6 q 1.533,0 2.767,1.233 1.233,1.233 1.233,2.767 v 30.667 q 0,1.533 -1.233,2.767 -1.233,1.233 -2.767,1.233 z"
    class="ColorScheme-Accent" fill="currentColor" />
  <use href="#icon" class="ColorScheme-Background" fill="currentColor" opacity="0.8" />
  <path
    d="M 9.333,53.333 q -1.6,0 -2.8,-1.233 -1.2,-1.233 -1.2,-2.767 v -34.666 q 0,-1.533 1.2,-2.767 1.2,-1.233 2.8,-1.233 h 18.734 l 4,4 h 22.6 q 1.533,0 2.767,1.233 1.233,1.233 1.233,2.767 v 30.667 q 0,1.533 -1.233,2.767 -1.233,1.233 -2.767,1.233 z"
    fill="url(#lg1)" />
</svg>