<svg viewBox="0 0 64 64" xmlns="http://www.w3.org/2000/svg">
  <defs>
    <style type="text/css" id="current-color-scheme">
      .ColorScheme-Accent {
        color: #95ccff;
      }

      .ColorScheme-Background {
        color: #1e2022;
      }
    </style>
    <path id="folder-back" d="M 5.333,53.333 V 10.667 H 28.067 l 4,4 h 26.6 v 38.667 z" />
  </defs>
  <use href="#folder-back" class="ColorScheme-Accent" fill="currentColor" />
  <use href="#folder-back" class="ColorScheme-Background" fill="currentColor" opacity="0.3" />
  <path d="M 5.333,53.333 V 18.667 H 28.067 l 4,-4 h 26.6 v 38.667 z" class="ColorScheme-Accent" fill="currentColor" />
  <path
    d="m 42.585,35.021 -9.606,-9.605 a 1.416,1.416 0 0 0 -2.003,0 l -1.995,1.995 2.53,2.53 a 1.683,1.683 0 0 1 1.731,0.403 1.686,1.686 0 0 1 0.401,1.742 l 2.438,2.438 a 1.682,1.682 0 0 1 1.743,0.4 1.686,1.686 0 0 1 0,2.384 1.687,1.687 0 0 1 -2.385,0 1.685,1.685 0 0 1 -0.367,-1.834 l -2.275,-2.274 v 5.985 a 1.686,1.686 0 0 1 0.445,2.703 1.686,1.686 0 0 1 -2.384,0 1.686,1.686 0 0 1 0,-2.384 1.684,1.684 0 0 1 0.553,-0.368 V 33.096 A 1.676,1.676 0 0 1 30.859,32.728 1.688,1.688 0 0 1 30.496,30.885 l -2.494,-2.494 -6.586,6.585 a 1.417,1.417 0 0 0 0,2.004 l 9.606,9.606 a 1.417,1.417 0 0 0 2.003,0 l 9.561,-9.561 a 1.419,1.419 0 0 0 0,-2.004"
    class="ColorScheme-Background" fill="currentColor" />
</svg>