<svg height="64" width="64" version="1.1" xmlns="http://www.w3.org/2000/svg" xmlns:svg="http://www.w3.org/2000/svg">
  <defs>
    <style type="text/css" id="current-color-scheme">
      .ColorScheme-Accent {
        color: #95ccff;
      }

      .ColorScheme-Background {
        color: #28292d;
      }
    </style>
    <linearGradient id="lg1" x1="48" y1="53.334" x2="48" y2="10.667" gradientUnits="userSpaceOnUse">
      <stop stop-opacity="0.15" offset="0" />
      <stop stop-opacity="0" offset="1" />
    </linearGradient>
    <path id="folder-back" d="M 5.333,22.667 v -8 q 0,-1.533 1.2,-2.767 1.2,-1.233 2.8,-1.23 h 18.734 l 4,4 v 8 z" />
    <path id="icon"
      d="m 37.521,47.042 q -1.38,0 -2.346,-0.966 -0.966,-0.966 -0.966,-2.346 0,-0.166 0.083,-0.773 l -7.757,-4.527 q -0.442,0.414 -1.021,0.649 -0.58,0.235 -1.242,0.235 -1.38,0 -2.346,-0.966 -0.966,-0.966 -0.966,-2.346 0,-1.38 0.966,-2.346 0.966,-0.966 2.346,-0.966 0.663,0 1.242,0.235 0.58,0.235 1.021,0.649 l 7.757,-4.527 q -0.055,-0.193 -0.069,-0.373 -0.014,-0.179 -0.014,-0.4 0,-1.38 0.966,-2.346 0.966,-0.966 2.346,-0.966 1.38,0 2.346,0.966 0.966,0.966 0.966,2.346 0,1.38 -0.966,2.346 -0.966,0.966 -2.346,0.966 -0.663,0 -1.242,-0.235 -0.58,-0.235 -1.021,-0.649 l -7.757,4.527 q 0.055,0.193 0.069,0.373 0.014,0.179 0.014,0.4 0,0.221 -0.014,0.4 -0.014,0.179 -0.069,0.373 l 7.757,4.527 q 0.442,-0.414 1.021,-0.649 0.58,-0.235 1.242,-0.235 1.38,0 2.346,0.966 0.966,0.966 0.966,2.346 0,1.38 -0.966,2.346 -0.966,0.966 -2.346,0.966 z m 0,-2.208 q 0.469,0 0.787,-0.317 0.317,-0.317 0.317,-0.787 0,-0.469 -0.317,-0.787 -0.317,-0.317 -0.787,-0.317 -0.469,0 -0.787,0.317 -0.317,0.317 -0.317,0.787 0,0.469 0.317,0.787 0.317,0.317 0.787,0.317 z m -13.25,-7.729 q 0.469,0 0.787,-0.317 Q 25.375,36.47 25.375,36 q 0,-0.469 -0.317,-0.787 -0.317,-0.317 -0.787,-0.317 -0.469,0 -0.787,0.317 -0.317,0.317 -0.317,0.787 0,0.469 0.317,0.787 0.317,0.317 0.787,0.317 z m 13.25,-7.729 q 0.469,0 0.787,-0.317 0.317,-0.317 0.317,-0.787 0,-0.469 -0.317,-0.787 -0.317,-0.317 -0.787,-0.317 -0.469,0 -0.787,0.317 -0.317,0.317 -0.317,0.787 0,0.469 0.317,0.787 0.317,0.317 0.787,0.317 z m 0,14.354 z m -13.25,-7.729 z m 13.25,-7.729 z" />
  </defs>
  <use href="#folder-back" class="ColorScheme-Accent" fill="currentColor" />
  <use href="#folder-back" class="ColorScheme-Background" fill="currentColor" opacity="0.3" />
  <path
    d=" M 9.333,53.333 q -1.6,0 -2.8,-1.233 -1.2,-1.233 -1.2,-2.767 v -26.666 q 0,-1.533 1.2,-2.767 1.2,-1.233 2.8,-1.233 h 18.734 l 4,-4 h 22.6 q 1.533,0 2.767,1.233 1.233,1.233 1.233,2.767 v 30.667 q 0,1.533 -1.233,2.767 -1.233,1.233 -2.767,1.233 z"
    class="ColorScheme-Accent" fill="currentColor" />
  <use href="#icon" class="ColorScheme-Background" fill="currentColor" opacity="0.8" />
  <path
    d="M 9.333,53.333 q -1.6,0 -2.8,-1.233 -1.2,-1.233 -1.2,-2.767 v -34.666 q 0,-1.533 1.2,-2.767 1.2,-1.233 2.8,-1.233 h 18.734 l 4,4 h 22.6 q 1.533,0 2.767,1.233 1.233,1.233 1.233,2.767 v 30.667 q 0,1.533 -1.233,2.767 -1.233,1.233 -2.767,1.233 z"
    fill="url(#lg1)" />
</svg>