<svg height="64" width="64" version="1.1" xmlns="http://www.w3.org/2000/svg" xmlns:svg="http://www.w3.org/2000/svg">
  <defs>
    <style type="text/css" id="current-color-scheme">
      .ColorScheme-Accent {
        color: #95ccff;
      }

      .ColorScheme-Background {
        color: #28292d;
      }
    </style>
    <linearGradient id="lg1" x1="48" y1="53.334" x2="48" y2="10.667" gradientUnits="userSpaceOnUse">
      <stop stop-opacity="0.15" offset="0" />
      <stop stop-opacity="0" offset="1" />
    </linearGradient>
    <path id="folder-back" d="M 5.333,22.667 v -8 q 0,-1.533 1.2,-2.767 1.2,-1.233 2.8,-1.23 h 18.734 l 4,4 v 8 z" />
    <path id="icon"
      d="m 19.854,42.626 q 0.248,-2.954 1.808,-5.438 1.56,-2.484 4.154,-3.947 l -2.043,-3.533 q -0.166,-0.248 -0.083,-0.524 0.083,-0.276 0.359,-0.414 0.221,-0.138 0.497,-0.055 0.276,0.083 0.442,0.331 l 2.043,3.533 q 2.374,-0.994 4.969,-0.994 2.595,0 4.969,0.994 l 2.043,-3.533 q 0.166,-0.248 0.442,-0.331 0.276,-0.083 0.497,0.055 0.276,0.138 0.359,0.414 0.083,0.276 -0.083,0.524 l -2.043,3.533 q 2.595,1.463 4.154,3.947 1.56,2.484 1.808,5.438 z m 6.625,-3.036 q 0.58,0 0.98,-0.4 0.4,-0.4 0.4,-0.98 0,-0.58 -0.4,-0.98 -0.4,-0.4 -0.98,-0.4 -0.58,0 -0.98,0.4 -0.4,0.4 -0.4,0.98 0,0.58 0.4,0.98 0.4,0.4 0.98,0.4 z m 11.042,0 q 0.58,0 0.98,-0.4 0.4,-0.4 0.4,-0.98 0,-0.58 -0.4,-0.98 -0.4,-0.4 -0.98,-0.4 -0.58,0 -0.98,0.4 -0.4,0.4 -0.4,0.98 0,0.58 0.4,0.98 0.4,0.4 0.98,0.4 z" />
  </defs>
  <use href="#folder-back" class="ColorScheme-Accent" fill="currentColor" />
  <use href="#folder-back" class="ColorScheme-Background" fill="currentColor" opacity="0.3" />
  <path
    d=" M 9.333,53.333 q -1.6,0 -2.8,-1.233 -1.2,-1.233 -1.2,-2.767 v -26.666 q 0,-1.533 1.2,-2.767 1.2,-1.233 2.8,-1.233 h 18.734 l 4,-4 h 22.6 q 1.533,0 2.767,1.233 1.233,1.233 1.233,2.767 v 30.667 q 0,1.533 -1.233,2.767 -1.233,1.233 -2.767,1.233 z"
    class="ColorScheme-Accent" fill="currentColor" />
  <use href="#icon" class="ColorScheme-Background" fill="currentColor" opacity="0.8" />
  <path
    d="M 9.333,53.333 q -1.6,0 -2.8,-1.233 -1.2,-1.233 -1.2,-2.767 v -34.666 q 0,-1.533 1.2,-2.767 1.2,-1.233 2.8,-1.233 h 18.734 l 4,4 h 22.6 q 1.533,0 2.767,1.233 1.233,1.233 1.233,2.767 v 30.667 q 0,1.533 -1.233,2.767 -1.233,1.233 -2.767,1.233 z"
    fill="url(#lg1)" />
</svg>