<svg height="64" width="64" version="1.1" xmlns="http://www.w3.org/2000/svg" xmlns:svg="http://www.w3.org/2000/svg">
  <defs>
    <style type="text/css" id="current-color-scheme">
      .ColorScheme-Accent {
        color: #95ccff;
      }

      .ColorScheme-Background {
        color: #28292d;
      }
    </style>
    <linearGradient id="lg1" x1="48" y1="53.334" x2="48" y2="10.667" gradientUnits="userSpaceOnUse">
      <stop stop-opacity="0.15" offset="0" />
      <stop stop-opacity="0" offset="1" />
    </linearGradient>
    <path id="folder-back" d="M 5.333,22.667 v -8 q 0,-1.533 1.2,-2.767 1.2,-1.233 2.8,-1.23 h 18.734 l 4,4 v 8 z" />
    <g id="icon">
      <path d="m 40.841,30.896 10e-7,10.209 -8.841,5.104 v -10.209 z" />
      <path d="m 32,36 v -10.209 l -8.841,5.104 z" />
      <path
        d="m 23.555,29.42 c -0.914,0.528 -1.476,1.5 -1.476,2.556 v 8.048 c 0,1.056 0.562,2.028 1.476,2.556 l 6.97,4.024 c 0.914,0.528 2.037,0.528 2.952,0 l 6.97,-4.024 c 0.914,-0.528 1.476,-1.5 1.476,-2.556 v -8.048 c 0,-1.056 -0.562,-2.028 -1.476,-2.556 l -6.97,-4.024 c -0.914,-0.528 -2.037,-0.528 -2.952,0 z m 8.841,-2.153 6.97,4.024 c 0.244,0.141 0.396,0.404 0.396,0.685 v 8.048 c 0,0.281 -0.152,0.544 -0.396,0.685 l -6.97,4.024 c -0.244,0.141 -0.547,0.141 -0.791,0 l -6.97,-4.024 c -0.244,-0.141 -0.396,-0.404 -0.396,-0.685 v -8.048 c 0,-0.281 0.152,-0.544 0.396,-0.685 l 6.97,-4.024 c 0.244,-0.141 0.547,-0.141 0.791,0 z" />
    </g>
  </defs>
  <use href="#folder-back" class="ColorScheme-Accent" fill="currentColor" />
  <use href="#folder-back" class="ColorScheme-Background" fill="currentColor" opacity="0.3" />
  <path
    d=" M 9.333,53.333 q -1.6,0 -2.8,-1.233 -1.2,-1.233 -1.2,-2.767 v -26.666 q 0,-1.533 1.2,-2.767 1.2,-1.233 2.8,-1.233 h 18.734 l 4,-4 h 22.6 q 1.533,0 2.767,1.233 1.233,1.233 1.233,2.767 v 30.667 q 0,1.533 -1.233,2.767 -1.233,1.233 -2.767,1.233 z"
    class="ColorScheme-Accent" fill="currentColor" />
  <use href="#icon" class="ColorScheme-Background" fill="currentColor" opacity="0.8" />
  <path
    d="M 9.333,53.333 q -1.6,0 -2.8,-1.233 -1.2,-1.233 -1.2,-2.767 v -34.666 q 0,-1.533 1.2,-2.767 1.2,-1.233 2.8,-1.233 h 18.734 l 4,4 h 22.6 q 1.533,0 2.767,1.233 1.233,1.233 1.233,2.767 v 30.667 q 0,1.533 -1.233,2.767 -1.233,1.233 -2.767,1.233 z"
    fill="url(#lg1)" />
</svg>