<svg viewBox="0 0 64 64" xmlns="http://www.w3.org/2000/svg">
  <defs>
    <style type="text/css" id="current-color-scheme">
      .ColorScheme-Accent {
        color: #95ccff;
      }

      .ColorScheme-Background {
        color: #1e2022;
      }
    </style>
    <path id="folder-back" d="M 5.333,53.333 V 10.667 H 28.067 l 4,4 h 26.6 v 38.667 z" />
  </defs>
  <use href="#folder-back" class="ColorScheme-Accent" fill="currentColor" />
  <use href="#folder-back" class="ColorScheme-Background" fill="currentColor" opacity="0.3" />
  <path d="M 5.333,53.333 V 18.667 H 28.067 l 4,-4 h 26.6 v 38.667 z" class="ColorScheme-Accent" fill="currentColor" />
  <path
    d="m 34.291,35.697 q 2.015,-1.491 3.147,-3.271 1.132,-1.78 1.132,-3.547 0,-0.883 -0.29,-1.297 -0.29,-0.414 -0.787,-0.414 -1.297,0 -2.291,2.195 -0.994,2.195 -0.994,4.955 0,0.386 0.014,0.732 0.014,0.345 0.069,0.649 z M 22.063,45.938 v -2.208 h 2.208 V 45.938 Z m 4.417,0 V 43.73 H 28.688 V 45.938 Z m 4.417,0 v -2.208 h 2.208 V 45.938 Z m 4.417,0 v -2.208 h 2.208 V 45.938 Z m 4.417,0 v -2.208 h 2.208 V 45.938 Z m -17.225,-4.417 -1.546,-1.546 1.767,-1.767 -1.767,-1.767 1.546,-1.546 1.767,1.767 1.767,-1.767 1.546,1.546 -1.767,1.767 1.767,1.767 -1.546,1.546 -1.767,-1.767 z m 13.305,-1.104 q -0.828,0 -1.518,-0.317 -0.69,-0.317 -1.187,-1.035 -0.69,0.386 -1.422,0.69 -0.732,0.304 -1.504,0.607 l -0.773,-2.07 q 0.773,-0.276 1.477,-0.593 0.704,-0.317 1.366,-0.676 -0.138,-0.607 -0.207,-1.325 -0.069,-0.718 -0.069,-1.546 0,-3.975 1.573,-6.584 1.573,-2.609 3.947,-2.609 1.435,0 2.346,1.063 0.911,1.063 0.911,2.967 0,2.374 -1.504,4.693 -1.504,2.319 -4.182,4.168 0.193,0.193 0.4,0.29 0.207,0.097 0.428,0.097 0.718,0 1.67,-0.911 0.952,-0.911 1.725,-2.402 l 2.015,0.939 q -0.193,0.469 -0.304,1.132 -0.11,0.663 0.028,1.159 0.276,-0.138 0.649,-0.469 0.373,-0.331 0.759,-0.828 l 1.739,1.353 q -0.718,0.994 -1.656,1.601 -0.939,0.607 -1.739,0.607 -0.58,0 -1.035,-0.345 -0.455,-0.345 -0.759,-1.063 -0.773,0.69 -1.573,1.049 -0.801,0.359 -1.601,0.359 z"
    class="ColorScheme-Background" fill="currentColor" />
</svg>