<svg height="64" width="64" version="1.1" xmlns="http://www.w3.org/2000/svg" xmlns:svg="http://www.w3.org/2000/svg">
  <defs>
    <style type="text/css" id="current-color-scheme">
      .ColorScheme-Accent {
        color: #95ccff;
      }

      .ColorScheme-Background {
        color: #28292d;
      }
    </style>
    <linearGradient id="lg1" x1="48" y1="53.334" x2="48" y2="10.667" gradientUnits="userSpaceOnUse">
      <stop stop-opacity="0.15" offset="0" />
      <stop stop-opacity="0" offset="1" />
    </linearGradient>
    <path id="folder-back" d="M 5.333,22.667 v -8 q 0,-1.533 1.2,-2.767 1.2,-1.233 2.8,-1.23 h 18.734 l 4,4 v 8 z" />
    <path id="icon"
      d="m 42.585,35.021 -9.606,-9.605 a 1.416,1.416 0 0 0 -2.003,0 l -1.995,1.995 2.53,2.53 a 1.683,1.683 0 0 1 1.731,0.403 1.686,1.686 0 0 1 0.401,1.742 l 2.438,2.438 a 1.682,1.682 0 0 1 1.743,0.4 1.686,1.686 0 0 1 0,2.384 1.687,1.687 0 0 1 -2.385,0 1.685,1.685 0 0 1 -0.367,-1.834 l -2.274,-2.274 v 5.985 a 1.686,1.686 0 0 1 0.445,2.703 1.686,1.686 0 0 1 -2.384,0 1.686,1.686 0 0 1 0,-2.384 1.684,1.684 0 0 1 0.553,-0.368 v -6.04 a 1.676,1.676 0 0 1 -0.553,-0.368 1.688,1.688 0 0 1 -0.363,-1.844 l -2.494,-2.494 -6.586,6.585 a 1.417,1.417 0 0 0 0,2.004 l 9.606,9.606 a 1.417,1.417 0 0 0 2.003,0 l 9.561,-9.561 a 1.419,1.419 0 0 0 0,-2.004" />
  </defs>
  <use href="#folder-back" class="ColorScheme-Accent" fill="currentColor" />
  <use href="#folder-back" class="ColorScheme-Background" fill="currentColor" opacity="0.3" />
  <path
    d=" M 9.333,53.333 q -1.6,0 -2.8,-1.233 -1.2,-1.233 -1.2,-2.767 v -26.666 q 0,-1.533 1.2,-2.767 1.2,-1.233 2.8,-1.233 h 18.734 l 4,-4 h 22.6 q 1.533,0 2.767,1.233 1.233,1.233 1.233,2.767 v 30.667 q 0,1.533 -1.233,2.767 -1.233,1.233 -2.767,1.233 z"
    class="ColorScheme-Accent" fill="currentColor" />
  <use href="#icon" class="ColorScheme-Background" fill="currentColor" opacity="0.8" />
  <path
    d="M 9.333,53.333 q -1.6,0 -2.8,-1.233 -1.2,-1.233 -1.2,-2.767 v -34.666 q 0,-1.533 1.2,-2.767 1.2,-1.233 2.8,-1.233 h 18.734 l 4,4 h 22.6 q 1.533,0 2.767,1.233 1.233,1.233 1.233,2.767 v 30.667 q 0,1.533 -1.233,2.767 -1.233,1.233 -2.767,1.233 z"
    fill="url(#lg1)" />
</svg>