<svg height="64" width="64" version="1.1" xmlns="http://www.w3.org/2000/svg" xmlns:svg="http://www.w3.org/2000/svg">
  <defs>
    <style type="text/css" id="current-color-scheme">
      .ColorScheme-Accent {
        color: #95ccff;
      }

      .ColorScheme-Background {
        color: #28292d;
      }
    </style>
    <linearGradient id="lg1" x1="48" y1="53.334" x2="48" y2="10.667" gradientUnits="userSpaceOnUse">
      <stop stop-opacity="0.15" offset="0" />
      <stop stop-opacity="0" offset="1" />
    </linearGradient>
    <path id="folder-back" d="M 5.333,22.667 v -8 q 0,-1.533 1.2,-2.767 1.2,-1.233 2.8,-1.23 h 18.734 l 4,4 v 8 z" />
    <path id="icon"
      d="m 30.896,44.199 v -7.564 l -6.625,-3.837 v 7.564 z m 2.208,0 6.625,-3.837 v -7.564 l -6.625,3.837 z M 32,34.731 38.542,30.949 32,27.167 25.458,30.949 Z m -8.833,7.564 Q 22.642,41.991 22.352,41.494 22.063,40.997 22.063,40.39 v -8.778 q 0,-0.607 0.29,-1.104 0.29,-0.497 0.814,-0.801 l 7.729,-4.444 Q 31.42,24.959 32,24.959 q 0.58,0 1.104,0.304 l 7.729,4.444 q 0.524,0.304 0.814,0.801 0.29,0.497 0.29,1.104 v 8.778 q 0,0.607 -0.29,1.104 -0.29,0.497 -0.814,0.801 l -7.729,4.444 Q 32.58,47.042 32,47.042 q -0.58,0 -1.104,-0.304 z M 32,36.001 Z" />
  </defs>
  <use href="#folder-back" class="ColorScheme-Accent" fill="currentColor" />
  <use href="#folder-back" class="ColorScheme-Background" fill="currentColor" opacity="0.3" />
  <path
    d=" M 9.333,53.333 q -1.6,0 -2.8,-1.233 -1.2,-1.233 -1.2,-2.767 v -26.666 q 0,-1.533 1.2,-2.767 1.2,-1.233 2.8,-1.233 h 18.734 l 4,-4 h 22.6 q 1.533,0 2.767,1.233 1.233,1.233 1.233,2.767 v 30.667 q 0,1.533 -1.233,2.767 -1.233,1.233 -2.767,1.233 z"
    class="ColorScheme-Accent" fill="currentColor" />
  <use href="#icon" class="ColorScheme-Background" fill="currentColor" opacity="0.8" />
  <path
    d="M 9.333,53.333 q -1.6,0 -2.8,-1.233 -1.2,-1.233 -1.2,-2.767 v -34.666 q 0,-1.533 1.2,-2.767 1.2,-1.233 2.8,-1.233 h 18.734 l 4,4 h 22.6 q 1.533,0 2.767,1.233 1.233,1.233 1.233,2.767 v 30.667 q 0,1.533 -1.233,2.767 -1.233,1.233 -2.767,1.233 z"
    fill="url(#lg1)" />
</svg>