<svg height="64" width="64" version="1.1" xmlns="http://www.w3.org/2000/svg" xmlns:svg="http://www.w3.org/2000/svg">
  <defs>
    <style type="text/css" id="current-color-scheme">
      .ColorScheme-Accent {
        color: #95ccff;
      }

      .ColorScheme-Background {
        color: #28292d;
      }
    </style>
    <linearGradient id="lg1" x1="48" y1="53.334" x2="48" y2="10.667" gradientUnits="userSpaceOnUse">
      <stop stop-opacity="0.15" offset="0" />
      <stop stop-opacity="0" offset="1" />
    </linearGradient>
    <path id="folder-back" d="M 5.333,22.667 v -8 q 0,-1.533 1.2,-2.767 1.2,-1.233 2.8,-1.23 h 18.734 l 4,4 v 8 z" />
    <path id="icon"
      d="m 42.546,34.121 c -0.495,-0.344 -1.631,-0.473 -2.518,-0.301 -0.103,-0.859 -0.578,-1.611 -1.404,-2.277 l -0.475,-0.344 -0.33,0.494 c -0.413,0.645 -0.619,1.547 -0.557,2.406 0.021,0.301 0.124,0.838 0.433,1.31 -0.289,0.172 -0.888,0.387 -1.672,0.387 h -14.924 l -0.041,0.172 c -0.144,0.859 -0.144,3.545 1.548,5.607 1.28,1.568 3.179,2.363 5.676,2.363 5.408,0 9.413,-2.6 11.291,-7.304 0.743,0.022 2.333,0 3.138,-1.611 0.021,-0.043 0.062,-0.129 0.206,-0.451 l 0.083,-0.172 z m -9.516,-6.058 h -2.271 v 2.148 h 2.271 z m 0,2.578 h -2.271 v 2.148 h 2.271 z m -2.683,0 h -2.271 v 2.148 h 2.271 z m -2.683,0 h -2.271 v 2.148 h 2.271 z m -2.683,2.578 h -2.271 v 2.148 h 2.271 z m 2.683,0 h -2.271 v 2.148 h 2.271 z m 2.683,0 h -2.271 v 2.148 h 2.271 z m 2.683,0 h -2.271 v 2.148 h 2.271 z m 2.683,0 h -2.271 v 2.148 h 2.271 z" />
  </defs>
  <use href="#folder-back" class="ColorScheme-Accent" fill="currentColor" />
  <use href="#folder-back" class="ColorScheme-Background" fill="currentColor" opacity="0.3" />
  <path
    d=" M 9.333,53.333 q -1.6,0 -2.8,-1.233 -1.2,-1.233 -1.2,-2.767 v -26.666 q 0,-1.533 1.2,-2.767 1.2,-1.233 2.8,-1.233 h 18.734 l 4,-4 h 22.6 q 1.533,0 2.767,1.233 1.233,1.233 1.233,2.767 v 30.667 q 0,1.533 -1.233,2.767 -1.233,1.233 -2.767,1.233 z"
    class="ColorScheme-Accent" fill="currentColor" />
  <use href="#icon" class="ColorScheme-Background" fill="currentColor" opacity="0.8" />
  <path
    d="M 9.333,53.333 q -1.6,0 -2.8,-1.233 -1.2,-1.233 -1.2,-2.767 v -34.666 q 0,-1.533 1.2,-2.767 1.2,-1.233 2.8,-1.233 h 18.734 l 4,4 h 22.6 q 1.533,0 2.767,1.233 1.233,1.233 1.233,2.767 v 30.667 q 0,1.533 -1.233,2.767 -1.233,1.233 -2.767,1.233 z"
    fill="url(#lg1)" />
</svg>