<svg viewBox="0 0 64 64" xmlns="http://www.w3.org/2000/svg">
  <defs>
    <style type="text/css" id="current-color-scheme">
      .ColorScheme-Accent {
        color: #95ccff;
      }

      .ColorScheme-Background {
        color: #1e2022;
      }
    </style>
    <path id="folder-back" d="M 5.333,53.333 V 10.667 H 28.067 l 4,4 h 26.6 v 38.667 z" />
  </defs>
  <use href="#folder-back" class="ColorScheme-Accent" fill="currentColor" />
  <use href="#folder-back" class="ColorScheme-Background" fill="currentColor" opacity="0.3" />
  <path d="M 5.333,53.333 V 18.667 H 28.067 l 4,-4 h 26.6 v 38.667 z" class="ColorScheme-Accent" fill="currentColor" />
  <path
    d="m 31.89,47.042 5.024,-13.25 h 2.319 l 5.024,13.25 h -2.319 l -1.187,-3.368 h -5.355 l -1.187,3.368 z m -8.723,-3.313 -1.546,-1.546 5.576,-5.576 Q 26.231,35.642 25.444,34.399 24.657,33.157 23.995,31.584 h 2.319 q 0.552,1.077 1.104,1.877 0.552,0.801 1.325,1.601 0.911,-0.911 1.891,-2.553 0.98,-1.642 1.477,-3.133 h -12.256 v -2.208 h 7.729 v -2.208 h 2.208 v 2.208 h 7.729 v 2.208 H 34.319 q -0.58,1.988 -1.739,4.085 -1.159,2.098 -2.291,3.202 l 2.65,2.705 -0.828,2.264 -3.368,-3.451 z m 12.919,-1.988 h 3.975 l -1.988,-5.631 z"
    class="ColorScheme-Background" fill="currentColor" />
</svg>