<svg height="64" width="64" version="1.1" xmlns="http://www.w3.org/2000/svg" xmlns:svg="http://www.w3.org/2000/svg">
  <defs>
    <style type="text/css" id="current-color-scheme">
      .ColorScheme-Accent {
        color: #95ccff;
      }

      .ColorScheme-Background {
        color: #28292d;
      }
    </style>
    <linearGradient id="lg1" x1="48" y1="53.334" x2="48" y2="10.667" gradientUnits="userSpaceOnUse">
      <stop stop-opacity="0.15" offset="0" />
      <stop stop-opacity="0" offset="1" />
    </linearGradient>
    <path id="folder-back" d="M 5.333,22.667 v -8 q 0,-1.533 1.2,-2.767 1.2,-1.233 2.8,-1.23 h 18.734 l 4,4 v 8 z" />
    <path id="icon"
      d="m 38.816,40.196 c -0.899,0.88 -2.13,1.422 -3.488,1.422 -1.352,0 -2.579,-0.538 -3.479,-1.412 l 0.001,10e-4 c -0.409,-0.41 -0.733,-0.907 -0.941,-1.46 l -0.01,-0.029 c -0.147,-0.395 -0.231,-0.852 -0.231,-1.328 0,-0.698 0.181,-1.352 0.5,-1.92 l -0.01,0.02 c 0.278,-0.494 0.631,-0.911 1.05,-1.252 l 0.008,-0.006 c 0.849,-0.678 1.938,-1.087 3.123,-1.087 1.179,0 2.264,0.406 3.121,1.086 l -0.01,-0.008 c 0.427,0.345 0.78,0.761 1.046,1.233 l 0.011,0.021 c 0.256,0.452 0.427,0.984 0.478,1.55 l 10e-4,0.015 c 0.009,0.1 0.015,0.217 0.015,0.334 0,0.477 -0.086,0.932 -0.242,1.354 l 0.009,-0.027 c -0.218,0.582 -0.541,1.08 -0.95,1.492 v 0 z m -11.093,-1.597 c 0.029,0.468 0.113,0.905 0.245,1.322 l -0.01,-0.039 c 0.316,0.982 0.817,1.827 1.466,2.535 l -0.004,-0.005 c 0.702,0.769 1.553,1.39 2.509,1.816 l 0.048,0.019 c 0.985,0.441 2.134,0.698 3.344,0.698 1.22,0 2.377,-0.261 3.422,-0.73 l -0.053,0.021 c 1.003,-0.45 1.853,-1.073 2.55,-1.838 l 0.006,-0.006 c 0.643,-0.704 1.144,-1.551 1.447,-2.486 l 0.013,-0.049 c 0.186,-0.573 0.294,-1.231 0.294,-1.916 0,-0.319 -0.024,-0.633 -0.068,-0.94 l 0.004,0.035 c -0.14,-0.96 -0.468,-1.821 -0.948,-2.576 l 0.016,0.026 c -0.462,-0.733 -1.027,-1.354 -1.683,-1.862 l -0.016,-0.013 h 0.002 l -6.898,-5.296 c -0.239,-0.162 -0.535,-0.259 -0.852,-0.259 -0.319,0 -0.615,0.098 -0.86,0.264 l 0.005,-0.004 c -0.247,0.133 -0.413,0.39 -0.413,0.686 0,0.248 0.117,0.469 0.298,0.612 l 0.001,0.001 -7.3e-4,7.4e-4 2.868,2.333 -8.756,0.009 c -0.014,-7.3e-4 -0.031,-7.3e-4 -0.048,-7.3e-4 -0.695,0 -1.286,0.445 -1.504,1.065 l -0.004,0.011 c -0.141,0.61 0.349,1.117 1.101,1.12 v 0.001 l 4.432,-0.009 -7.94,6.094 c -0.446,0.278 -0.739,0.767 -0.739,1.322 0,0.295 0.082,0.571 0.225,0.807 l -0.004,-0.007 c 0.289,0.286 0.686,0.463 1.124,0.463 0.437,0 0.833,-0.175 1.121,-0.46 v 0 l 4.316,-3.532 c -0.032,0.225 -0.053,0.488 -0.058,0.756 v 0.007 z m 4.734,-1.484 c 0.051,-0.743 0.406,-1.395 0.941,-1.837 l 0.004,-0.004 c 0.548,-0.452 1.256,-0.725 2.029,-0.725 0.773,0 1.482,0.274 2.035,0.729 l -0.006,-0.004 c 0.539,0.445 0.894,1.097 0.943,1.832 l 7.3e-4,0.008 c 0.002,0.037 0.003,0.079 0.003,0.122 0,0.729 -0.305,1.387 -0.795,1.852 l -10e-4,7.4e-4 c -0.568,0.533 -1.336,0.861 -2.179,0.861 -0.844,0 -1.611,-0.327 -2.181,-0.862 l 10e-4,10e-4 c -0.491,-0.466 -0.797,-1.124 -0.797,-1.853 0,-0.043 7.3e-4,-0.085 0.003,-0.128 v 0.006 z" />
  </defs>
  <use href="#folder-back" class="ColorScheme-Accent" fill="currentColor" />
  <use href="#folder-back" class="ColorScheme-Background" fill="currentColor" opacity="0.3" />
  <path
    d=" M 9.333,53.333 q -1.6,0 -2.8,-1.233 -1.2,-1.233 -1.2,-2.767 v -26.666 q 0,-1.533 1.2,-2.767 1.2,-1.233 2.8,-1.233 h 18.734 l 4,-4 h 22.6 q 1.533,0 2.767,1.233 1.233,1.233 1.233,2.767 v 30.667 q 0,1.533 -1.233,2.767 -1.233,1.233 -2.767,1.233 z"
    class="ColorScheme-Accent" fill="currentColor" />
  <use href="#icon" class="ColorScheme-Background" fill="currentColor" opacity="0.8" />
  <path
    d="M 9.333,53.333 q -1.6,0 -2.8,-1.233 -1.2,-1.233 -1.2,-2.767 v -34.666 q 0,-1.533 1.2,-2.767 1.2,-1.233 2.8,-1.233 h 18.734 l 4,4 h 22.6 q 1.533,0 2.767,1.233 1.233,1.233 1.233,2.767 v 30.667 q 0,1.533 -1.233,2.767 -1.233,1.233 -2.767,1.233 z"
    fill="url(#lg1)" />
  <rect style="fill:#00ffff;fill-opacity:0.336;stroke-width:1" width="53.334" height="34.667" x="5.333" y="18.667" />
</svg>