<svg viewBox="0 0 64 64" xmlns="http://www.w3.org/2000/svg">
  <defs>
    <style type="text/css" id="current-color-scheme">
      .ColorScheme-Accent {
        color: #95ccff;
      }

      .ColorScheme-Background {
        color: #1e2022;
      }
    </style>
    <path id="folder-back" d="M 5.333,53.333 V 10.667 H 28.067 l 4,4 h 26.6 v 38.667 z" />
  </defs>
  <use href="#folder-back" class="ColorScheme-Accent" fill="currentColor" />
  <use href="#folder-back" class="ColorScheme-Background" fill="currentColor" opacity="0.3" />
  <path d="M 5.333,53.333 V 18.667 H 28.067 l 4,-4 h 26.6 v 38.667 z" class="ColorScheme-Accent" fill="currentColor" />
  <path
    d="m 32,36 q -1.822,0 -3.119,-1.297 -1.297,-1.297 -1.297,-3.119 0,-1.822 1.297,-3.119 Q 30.178,27.167 32,27.167 q 1.822,0 3.119,1.297 1.297,1.297 1.297,3.119 0,1.822 -1.297,3.119 Q 33.822,36 32,36 Z m -8.833,8.833 v -3.092 q 0,-0.939 0.483,-1.725 0.483,-0.787 1.284,-1.201 1.711,-0.856 3.478,-1.284 Q 30.178,37.105 32,37.105 q 1.822,0 3.589,0.428 1.767,0.428 3.478,1.284 0.801,0.414 1.284,1.201 0.483,0.787 0.483,1.725 v 3.092 z M 25.375,42.626 h 13.25 v -0.883 q 0,-0.304 -0.152,-0.552 Q 38.321,40.942 38.073,40.804 36.582,40.058 35.064,39.686 33.546,39.313 32,39.313 q -1.546,0 -3.064,0.373 -1.518,0.373 -3.009,1.118 -0.248,0.138 -0.4,0.386 Q 25.375,41.439 25.375,41.742 Z M 32,33.792 q 0.911,0 1.56,-0.649 0.649,-0.649 0.649,-1.56 0,-0.911 -0.649,-1.56 Q 32.911,29.375 32,29.375 q -0.911,0 -1.56,0.649 -0.649,0.649 -0.649,1.56 0,0.911 0.649,1.56 Q 31.089,33.792 32,33.792 Z m 0,-2.208 z M 32,42.626 Z"
    class="ColorScheme-Background" fill="currentColor" />
</svg>