<svg viewBox="0 0 64 64" xmlns="http://www.w3.org/2000/svg">
  <defs>
    <style type="text/css" id="current-color-scheme">
      .ColorScheme-Accent {
        color: #95ccff;
      }

      .ColorScheme-Background {
        color: #1e2022;
      }
    </style>
    <path id="folder-back" d="M 5.333,53.333 V 10.667 H 28.067 l 4,4 h 26.6 v 38.667 z" />
  </defs>
  <use href="#folder-back" class="ColorScheme-Accent" fill="currentColor" />
  <use href="#folder-back" class="ColorScheme-Background" fill="currentColor" opacity="0.3" />
  <path d="M 5.333,53.333 V 18.667 H 28.067 l 4,-4 h 26.6 v 38.667 z" class="ColorScheme-Accent" fill="currentColor" />
  <path
    d="m 40.877,42.145 c -0.333,0.769 -0.727,1.476 -1.183,2.127 -0.622,0.887 -1.131,1.501 -1.524,1.841 -0.608,0.559 -1.26,0.846 -1.958,0.862 -0.501,0 -1.105,-0.143 -1.809,-0.432 -0.706,-0.288 -1.354,-0.43 -1.947,-0.43 -0.622,0 -1.289,0.143 -2.002,0.43 -0.715,0.289 -1.29,0.44 -1.73,0.455 -0.669,0.029 -1.337,-0.266 -2.002,-0.885 -0.425,-0.371 -0.957,-1.006 -1.594,-1.907 -0.683,-0.961 -1.245,-2.076 -1.685,-3.347 -0.471,-1.373 -0.708,-2.702 -0.708,-3.989 0,-1.474 0.319,-2.746 0.957,-3.812 0.501,-0.856 1.169,-1.531 2.004,-2.027 0.835,-0.496 1.737,-0.748 2.709,-0.764 0.532,0 1.229,0.164 2.095,0.488 0.864,0.324 1.419,0.489 1.662,0.489 0.182,0 0.798,-0.192 1.843,-0.576 0.988,-0.356 1.822,-0.503 2.505,-0.445 1.851,0.149 3.242,0.879 4.166,2.194 -1.655,1.003 -2.474,2.408 -2.458,4.21 0.015,1.404 0.524,2.572 1.525,3.499 0.454,0.43 0.96,0.763 1.524,0.999 -0.122,0.354 -0.251,0.694 -0.388,1.02 z m -4.245,-16.705 c 0,1.1 -0.402,2.128 -1.203,3.078 -0.967,1.13 -2.136,1.784 -3.405,1.681 -0.016,-0.132 -0.026,-0.271 -0.026,-0.417 0,-1.056 0.46,-2.187 1.276,-3.111 0.408,-0.468 0.926,-0.857 1.555,-1.167 0.627,-0.306 1.221,-0.475 1.779,-0.504 0.016,0.147 0.023,0.294 0.023,0.44 z"
    class="ColorScheme-Background" fill="currentColor" />
</svg>