<svg height="64" width="64" version="1.1" xmlns="http://www.w3.org/2000/svg" xmlns:svg="http://www.w3.org/2000/svg">
  <defs>
    <style type="text/css" id="current-color-scheme">
      .ColorScheme-NeutralText {
        color: #f9bd00;
      }

      .ColorScheme-Background {
        color: #28292d;
      }
    </style>
    <linearGradient id="lg1" x1="48" y1="53.334" x2="48" y2="10.667" gradientUnits="userSpaceOnUse">
      <stop stop-opacity="0.15" offset="0" />
      <stop stop-opacity="0" offset="1" />
    </linearGradient>
    <path id="folder-back" d="M 5.333,22.667 v -8 q 0,-1.533 1.2,-2.767 1.2,-1.233 2.8,-1.23 h 18.734 l 4,4 v 8 z" />
    <path id="icon"
      d="m 33.96,34.814 q 0.138,-0.221 0.193,-0.483 0.055,-0.262 0.055,-0.538 0,-0.911 -0.649,-1.56 Q 32.911,31.584 32,31.584 q -0.276,0 -0.538,0.055 -0.262,0.055 -0.483,0.193 z m 5.604,5.659 -1.656,-1.711 q 0.331,-0.883 0.524,-1.836 0.193,-0.952 0.193,-1.918 V 29.79 L 32,27.305 27.97,28.823 26.258,27.112 32,24.959 l 8.833,3.313 v 6.735 q 0,1.408 -0.317,2.788 -0.317,1.38 -0.952,2.678 z m 1.049,7.232 -3.589,-3.589 Q 35.975,45.193 34.691,45.924 33.408,46.656 32,47.042 28.163,46.076 25.665,42.639 23.167,39.203 23.167,35.007 v -4.748 l -2.871,-2.871 1.546,-1.546 20.317,20.317 z M 30.62,37.712 Z M 32.193,33.019 Z M 32,44.723 q 0.966,-0.304 1.849,-0.856 0.883,-0.552 1.629,-1.297 L 32.221,39.313 H 30.344 L 30.62,37.712 25.375,32.467 v 2.54 q 0,3.34 1.877,6.073 1.877,2.733 4.748,3.644 z" />
  </defs>
  <use href="#folder-back" class="ColorScheme-NeutralText" fill="currentColor" />
  <use href="#folder-back" class="ColorScheme-Background" fill="currentColor" opacity="0.3" />
  <path
    d=" M 9.333,53.333 q -1.6,0 -2.8,-1.233 -1.2,-1.233 -1.2,-2.767 v -26.666 q 0,-1.533 1.2,-2.767 1.2,-1.233 2.8,-1.233 h 18.734 l 4,-4 h 22.6 q 1.533,0 2.767,1.233 1.233,1.233 1.233,2.767 v 30.667 q 0,1.533 -1.233,2.767 -1.233,1.233 -2.767,1.233 z"
    class="ColorScheme-NeutralText" fill="currentColor" />
  <use href="#icon" class="ColorScheme-Background" fill="currentColor" opacity="0.8" />
  <path
    d="M 9.333,53.333 q -1.6,0 -2.8,-1.233 -1.2,-1.233 -1.2,-2.767 v -34.666 q 0,-1.533 1.2,-2.767 1.2,-1.233 2.8,-1.233 h 18.734 l 4,4 h 22.6 q 1.533,0 2.767,1.233 1.233,1.233 1.233,2.767 v 30.667 q 0,1.533 -1.233,2.767 -1.233,1.233 -2.767,1.233 z"
    fill="url(#lg1)" />
</svg>