<svg viewBox="0 0 64 64" xmlns="http://www.w3.org/2000/svg">
  <defs>
    <style type="text/css" id="current-color-scheme">
      .ColorScheme-Accent {
        color: #95ccff;
      }

      .ColorScheme-Background {
        color: #1e2022;
      }
    </style>
    <path id="folder-back" d="M 5.333,53.333 V 10.667 H 28.067 l 4,4 h 26.6 v 38.667 z" />
  </defs>
  <use href="#folder-back" class="ColorScheme-Accent" fill="currentColor" />
  <use href="#folder-back" class="ColorScheme-Background" fill="currentColor" opacity="0.3" />
  <path d="M 5.333,53.333 V 18.667 H 28.067 l 4,-4 h 26.6 v 38.667 z" class="ColorScheme-Accent" fill="currentColor" />
  <path
    d="m 52.534,18.667 v -4 h 6.133 v 4 z m -6.133,6.133 v -6.133 h 6.133 v 6.133 z m 6.133,6.133 v -6.133 h 6.133 v 6.133 z m 0,6.133 h -6.133 v -6.133 h 6.133 z m 0,6.133 v -6.133 h 6.133 v 6.133 z m -6.133,6.133 v -6.133 h 6.133 v 6.133 z m 6.133,4 v -4 h 6.133 v 4 z"
    class="ColorScheme-Background" fill="currentColor" />
  <path
    d="m 24.211,39.313 h 3.313 l -0.635,-3.561 q 0.552,-0.276 0.87,-0.801 0.317,-0.524 0.317,-1.159 0,-0.911 -0.649,-1.56 -0.649,-0.649 -1.56,-0.649 -0.911,0 -1.56,0.649 -0.649,0.649 -0.649,1.56 0,0.635 0.317,1.159 0.317,0.524 0.87,0.801 z m 1.656,7.729 q -3.837,-0.966 -6.335,-4.403 -2.498,-3.437 -2.498,-7.633 v -6.735 l 8.833,-3.313 8.833,3.313 v 6.735 q 0,4.196 -2.498,7.633 -2.498,3.437 -6.335,4.403 z m 0,-2.319 q 2.871,-0.911 4.748,-3.644 1.877,-2.733 1.877,-6.073 V 29.79 L 25.867,27.305 19.242,29.79 v 5.217 q 0,3.34 1.877,6.073 1.877,2.733 4.748,3.644 z m 0,-8.723 z"
    class="ColorScheme-Background" fill="currentColor" />
</svg>