<svg viewBox="0 0 64 64" xmlns="http://www.w3.org/2000/svg">
  <defs>
    <style type="text/css" id="current-color-scheme">
      .ColorScheme-Accent {
        color: #95ccff;
      }

      .ColorScheme-Background {
        color: #1e2022;
      }
    </style>
    <path id="folder-back" d="M 5.333,53.333 V 10.667 H 28.067 l 4,4 h 26.6 v 38.667 z" />
  </defs>
  <use href="#folder-back" class="ColorScheme-Accent" fill="currentColor" />
  <use href="#folder-back" class="ColorScheme-Background" fill="currentColor" opacity="0.3" />
  <path d="M 5.333,53.333 V 18.667 H 28.067 l 4,-4 h 26.6 v 38.667 z" class="ColorScheme-Accent" fill="currentColor" />
  <path
    d="m 29.112,42.014 c 0,0 -0.84,0.489 0.599,0.654 1.744,0.199 2.634,0.17 4.555,-0.193 0,0 0.506,0.317 1.212,0.591 -4.307,1.846 -9.748,-0.107 -6.365,-1.052 z m -0.527,-2.408 c 0,0 -0.943,0.698 0.497,0.847 1.863,0.192 3.333,0.208 5.878,-0.282 0,0 0.351,0.357 0.905,0.552 -5.207,1.523 -11.006,0.12 -7.281,-1.117 z"
    class="ColorScheme-Background" fill="currentColor" />
  <path
    d="m 33.022,35.52 c 1.062,1.222 -0.278,2.321 -0.278,2.321 0,0 2.695,-1.391 1.457,-3.133 -1.156,-1.624 -2.042,-2.431 2.756,-5.213 -1.83e-4,-1.82e-4 -7.532,1.88 -3.935,6.025 z"
    class="ColorScheme-Background" fill="currentColor" />
  <path
    d="m 38.719,43.796 c 0,0 0.622,0.513 -0.685,0.909 -2.485,0.753 -10.347,0.98 -12.53,0.03 -0.784,-0.342 0.687,-0.815 1.15,-0.915 0.483,-0.104 0.758,-0.085 0.758,-0.085 -0.873,-0.615 -5.642,1.207 -2.422,1.73 8.78,1.424 16.006,-0.641 13.729,-1.669 z m -9.202,-6.686 c 0,0 -3.998,0.95 -1.416,1.295 1.091,0.146 3.264,0.112 5.289,-0.058 1.655,-0.139 3.316,-0.436 3.316,-0.436 0,0 -0.583,0.25 -1.006,0.538 -4.061,1.068 -11.904,0.571 -9.646,-0.521 1.909,-0.924 3.462,-0.819 3.462,-0.819 z m 7.173,4.009 c 4.128,-2.144 2.219,-4.206 0.887,-3.928 -0.326,0.068 -0.472,0.127 -0.472,0.127 0,0 0.122,-0.19 0.353,-0.272 2.635,-0.926 4.662,2.732 -0.85,4.181 -1.83e-4,0 0.063,-0.057 0.082,-0.108 z"
    class="ColorScheme-Background" fill="currentColor" />
  <path
    d="m 34.201,25.001 c 0,0 2.285,2.287 -2.168,5.802 -3.572,2.821 -0.814,4.429 -0.001,6.267 -2.085,-1.881 -3.615,-3.537 -2.589,-5.078 1.506,-2.262 5.68,-3.359 4.758,-6.991 z"
    class="ColorScheme-Background" fill="currentColor" />
  <path
    d="m 29.923,46.931 c 3.961,0.253 10.046,-0.141 10.19,-2.016 0,0 -0.277,0.711 -3.274,1.274 -3.382,0.637 -7.553,0.562 -10.026,0.154 0,0 0.507,0.419 3.11,0.587 z"
    class="ColorScheme-Background" fill="currentColor" />
</svg>