<svg height="64" width="64" version="1.1" xmlns="http://www.w3.org/2000/svg" xmlns:svg="http://www.w3.org/2000/svg">
  <defs>
    <style type="text/css" id="current-color-scheme">
      .ColorScheme-Accent {
        color: #95ccff;
      }

      .ColorScheme-Background {
        color: #28292d;
      }
    </style>
    <linearGradient x1="48" y1="53.334" x2="48" y2="10.667" gradientUnits="userSpaceOnUse">
      <stop stop-opacity="0.15" offset="0" />
      <stop stop-opacity="0" offset="1" />
    </linearGradient>
    <path id="folder-back" d="M 5.333,22.667 v -8 q 0,-1.533 1.2,-2.767 1.2,-1.233 2.8,-1.23 h 18.734 l 4,4 v 8 z" />
    <path id="icon"
      d="m 25.375,45.938 q -1.822,0 -3.119,-1.297 -1.297,-1.297 -1.297,-3.119 0,-1.822 1.297,-3.119 1.297,-1.297 3.119,-1.297 1.822,0 3.119,1.297 1.297,1.297 1.297,3.119 0,1.822 -1.297,3.119 Q 27.197,45.938 25.375,45.938 Z m 13.25,0 q -1.822,0 -3.119,-1.297 -1.297,-1.297 -1.297,-3.119 0,-1.822 1.297,-3.119 1.297,-1.297 3.119,-1.297 1.822,0 3.119,1.297 1.297,1.297 1.297,3.119 0,1.822 -1.297,3.119 Q 40.447,45.938 38.625,45.938 Z M 25.375,43.73 q 0.911,0 1.56,-0.649 0.649,-0.649 0.649,-1.56 0,-0.911 -0.649,-1.56 -0.649,-0.649 -1.56,-0.649 -0.911,0 -1.56,0.649 -0.649,0.649 -0.649,1.56 0,0.911 0.649,1.56 0.649,0.649 1.56,0.649 z m 13.25,0 q 0.911,0 1.56,-0.649 0.649,-0.649 0.649,-1.56 0,-0.911 -0.649,-1.56 -0.649,-0.649 -1.56,-0.649 -0.911,0 -1.56,0.649 -0.649,0.649 -0.649,1.56 0,0.911 0.649,1.56 0.649,0.649 1.56,0.649 z M 32,34.896 q -1.822,0 -3.119,-1.297 -1.297,-1.297 -1.297,-3.119 0,-1.822 1.297,-3.119 Q 30.178,26.063 32,26.063 q 1.822,0 3.119,1.297 1.297,1.297 1.297,3.119 0,1.822 -1.297,3.119 Q 33.822,34.896 32,34.896 Z m 0,-2.208 q 0.911,0 1.56,-0.649 0.649,-0.649 0.649,-1.56 0,-0.911 -0.649,-1.56 Q 32.911,28.271 32,28.271 q -0.911,0 -1.56,0.649 -0.649,0.649 -0.649,1.56 0,0.911 0.649,1.56 Q 31.089,32.688 32,32.688 Z m 0,-2.208 z m 6.625,11.042 z m -13.25,0 z" />
  </defs>
  <use href="#folder-back" class="ColorScheme-Accent" fill="currentColor" />
  <use href="#folder-back" class="ColorScheme-Background" fill="currentColor" opacity="0.3" />
  <path
    d=" M 9.333,53.333 q -1.6,0 -2.8,-1.233 -1.2,-1.233 -1.2,-2.767 v -26.666 q 0,-1.533 1.2,-2.767 1.2,-1.233 2.8,-1.233 h 18.734 l 4,-4 h 22.6 q 1.533,0 2.767,1.233 1.233,1.233 1.233,2.767 v 30.667 q 0,1.533 -1.233,2.767 -1.233,1.233 -2.767,1.233 z"
    class="ColorScheme-Accent" fill="currentColor" />
  <use href="#icon" class="ColorScheme-Background" fill="currentColor" opacity="0.8" />
  <path
    d="M 9.333,53.333 q -1.6,0 -2.8,-1.233 -1.2,-1.233 -1.2,-2.767 v -34.666 q 0,-1.533 1.2,-2.767 1.2,-1.233 2.8,-1.233 h 18.734 l 4,4 h 22.6 q 1.533,0 2.767,1.233 1.233,1.233 1.233,2.767 v 30.667 q 0,1.533 -1.233,2.767 -1.233,1.233 -2.767,1.233 z"
    fill="url(#lg1)" />
</svg>