<svg viewBox="0 0 64 64" xmlns="http://www.w3.org/2000/svg">
  <defs>
    <style type="text/css" id="current-color-scheme">
      .ColorScheme-Accent {
        color: #95ccff;
      }

      .ColorScheme-Background {
        color: #1e2022;
      }
    </style>
    <path id="folder-back" d="M 5.333,53.333 V 10.667 H 28.067 l 4,4 h 26.6 v 38.667 z" />
  </defs>
  <use href="#folder-back" class="ColorScheme-Accent" fill="currentColor" />
  <use href="#folder-back" class="ColorScheme-Background" fill="currentColor" opacity="0.3" />
  <path d="M 5.333,53.333 V 18.667 H 28.067 l 4,-4 h 26.6 v 38.667 z" class="ColorScheme-Accent" fill="currentColor" />
  <path
    d="m 23.167,45.938 v -4.693 l 16.121,-16.066 4.638,4.638 L 27.859,45.938 Z M 25.375,43.73 h 1.546 L 37.769,32.909 36.996,32.108 36.196,31.335 25.375,42.184 Z M 40.833,29.845 39.26,28.271 Z m -3.837,2.264 -0.801,-0.773 1.573,1.573 z m 2.733,9.965 q 0,-0.994 -0.524,-1.711 -0.524,-0.718 -1.408,-1.242 l -1.629,1.629 q 0.635,0.276 0.994,0.607 0.359,0.331 0.359,0.718 0,0.635 -1.146,1.146 -1.146,0.511 -3.271,0.511 V 45.938 q 2.871,0 4.748,-1.021 1.877,-1.021 1.877,-2.843 z m -15.928,-4.582 1.656,-1.656 q -0.58,-0.221 -0.883,-0.469 -0.304,-0.248 -0.304,-0.469 0,-0.331 0.511,-0.676 0.511,-0.345 2.084,-1.008 2.236,-0.966 3.133,-1.808 0.897,-0.842 0.897,-2.029 0,-1.573 -1.09,-2.443 -1.09,-0.87 -3.05,-0.87 -1.215,0 -2.443,0.607 -1.228,0.607 -2.112,1.601 l 1.518,1.463 q 0.69,-0.69 1.504,-1.077 0.814,-0.386 1.532,-0.386 0.939,0 1.435,0.276 0.497,0.276 0.497,0.828 0,0.386 -0.455,0.704 -0.455,0.317 -2.25,1.118 -2.264,1.049 -3.092,1.822 -0.828,0.773 -0.828,1.877 0,0.801 0.428,1.449 0.428,0.649 1.311,1.146 z"
    class="ColorScheme-Background" fill="currentColor" />
</svg>