<svg height="64" width="64" version="1.1" xmlns="http://www.w3.org/2000/svg" xmlns:svg="http://www.w3.org/2000/svg">
  <defs>
    <style type="text/css" id="current-color-scheme">
      .ColorScheme-Accent {
        color: #95ccff;
      }

      .ColorScheme-Background {
        color: #28292d;
      }
    </style>
    <linearGradient id="lg1" x1="48" y1="53.334" x2="48" y2="10.667" gradientUnits="userSpaceOnUse">
      <stop stop-opacity="0.15" offset="0" />
      <stop stop-opacity="0" offset="1" />
    </linearGradient>
    <path id="folder-back" d="M 5.333,22.667 v -8 q 0,-1.533 1.2,-2.767 1.2,-1.233 2.8,-1.23 h 18.734 l 4,4 v 8 z" />
    <g id="icon">
      <path
        d="M 22.504,25 C 21.676,25 21,25.676 21,26.504 V 45.496 C 21,46.324 21.676,47 22.504,47 H 41.496 C 42.324,47 43,46.324 43,45.496 V 26.504 C 43,25.676 42.324,25 41.496,25 Z m 0,0.551 h 18.992 c 0.533,0 0.953,0.42 0.953,0.953 v 18.992 c 0,0.533 -0.42,0.953 -0.953,0.953 H 22.504 c -0.533,0 -0.953,-0.42 -0.953,-0.953 V 26.504 c 0,-0.533 0.42,-0.953 0.953,-0.953 z" />
      <path d="m 30.35,27.218 v 3.3 h -1.753 l 3.403,3.85 3.403,-3.85 H 33.65 v -3.3 z" />
      <path
        d="m 31.398,34.918 c -0.095,0 -0.155,0.162 -0.155,0.361 v 1.255 c -0.383,0.087 -0.743,0.243 -1.066,0.447 l -0.893,-0.894 c -0.14,-0.141 -0.293,-0.205 -0.361,-0.138 l -0.842,0.842 c -0.067,0.067 -0.003,0.22 0.138,0.361 l 0.894,0.894 c -0.204,0.322 -0.36,0.683 -0.447,1.066 h -1.255 c -0.199,0 -0.361,0.06 -0.361,0.155 v 1.203 c 0,0.095 0.162,0.155 0.361,0.155 h 1.255 c 0.087,0.383 0.243,0.743 0.447,1.066 l -0.894,0.894 c -0.141,0.141 -0.205,0.294 -0.138,0.361 l 0.842,0.842 c 0.067,0.067 0.22,0.003 0.361,-0.137 l 0.894,-0.894 c 0.322,0.204 0.683,0.36 1.066,0.447 v 1.255 c 0,0.199 0.06,0.361 0.155,0.361 h 1.203 c 0.095,0 0.155,-0.162 0.155,-0.361 v -1.255 c 0.383,-0.087 0.743,-0.243 1.066,-0.447 l 0.894,0.894 c 0.141,0.141 0.294,0.205 0.361,0.138 l 0.842,-0.842 c 0.067,-0.067 0.003,-0.22 -0.138,-0.361 l -0.894,-0.894 c 0.204,-0.322 0.36,-0.683 0.447,-1.066 h 1.255 c 0.199,0 0.361,-0.06 0.361,-0.155 v -1.203 c 0,-0.095 -0.162,-0.155 -0.361,-0.155 h -1.256 c -0.087,-0.384 -0.243,-0.745 -0.446,-1.067 l 0.894,-0.894 c 0.141,-0.141 0.205,-0.294 0.138,-0.361 l -0.842,-0.842 c -0.067,-0.067 -0.22,-0.003 -0.361,0.138 l -0.894,0.894 c -0.322,-0.204 -0.683,-0.36 -1.066,-0.447 v -1.255 c 0,-0.199 -0.06,-0.361 -0.155,-0.361 z M 32,38.338 c 0.841,0 1.53,0.689 1.53,1.53 0,0.841 -0.689,1.53 -1.53,1.53 -0.841,0 -1.53,-0.689 -1.53,-1.53 0,-0.841 0.689,-1.53 1.53,-1.53 z" />
    </g>
  </defs>
  <use href="#folder-back" class="ColorScheme-Accent" fill="currentColor" />
  <use href="#folder-back" class="ColorScheme-Background" fill="currentColor" opacity="0.3" />
  <path
    d=" M 9.333,53.333 q -1.6,0 -2.8,-1.233 -1.2,-1.233 -1.2,-2.767 v -26.666 q 0,-1.533 1.2,-2.767 1.2,-1.233 2.8,-1.233 h 18.734 l 4,-4 h 22.6 q 1.533,0 2.767,1.233 1.233,1.233 1.233,2.767 v 30.667 q 0,1.533 -1.233,2.767 -1.233,1.233 -2.767,1.233 z"
    class="ColorScheme-Accent" fill="currentColor" />
  <use href="#icon" class="ColorScheme-Background" fill="currentColor" opacity="0.8" />
  <path
    d="M 9.333,53.333 q -1.6,0 -2.8,-1.233 -1.2,-1.233 -1.2,-2.767 v -34.666 q 0,-1.533 1.2,-2.767 1.2,-1.233 2.8,-1.233 h 18.734 l 4,4 h 22.6 q 1.533,0 2.767,1.233 1.233,1.233 1.233,2.767 v 30.667 q 0,1.533 -1.233,2.767 -1.233,1.233 -2.767,1.233 z"
    fill="url(#lg1)" />
</svg>