<svg height="64" width="64" version="1.1" xmlns="http://www.w3.org/2000/svg" xmlns:svg="http://www.w3.org/2000/svg">
  <defs>
    <style type="text/css" id="current-color-scheme">
      .ColorScheme-Accent {
        color: #95ccff;
      }

      .ColorScheme-Background {
        color: #28292d;
      }
    </style>
    <linearGradient id="lg1" x1="48" y1="53.334" x2="48" y2="10.667" gradientUnits="userSpaceOnUse">
      <stop stop-opacity="0.15" offset="0" />
      <stop stop-opacity="0" offset="1" />
    </linearGradient>
    <path id="folder-back" d="M 5.333,22.667 v -8 q 0,-1.533 1.2,-2.767 1.2,-1.233 2.8,-1.23 h 18.734 l 4,4 v 8 z" />
    <path id="icon"
      d="m 32,47.042 q -2.291,0 -4.306,-0.87 -2.015,-0.87 -3.506,-2.36 -1.491,-1.491 -2.36,-3.506 -0.87,-2.015 -0.87,-4.306 0,-2.291 0.87,-4.306 0.87,-2.015 2.36,-3.506 1.491,-1.491 3.506,-2.36 2.015,-0.87 4.306,-0.87 2.291,0 4.306,0.87 2.015,0.87 3.506,2.36 1.491,1.491 2.36,3.506 0.87,2.015 0.87,4.306 0,2.291 -0.87,4.306 -0.87,2.015 -2.36,3.506 -1.491,1.491 -3.506,2.36 Q 34.291,47.042 32,47.042 Z M 30.896,44.779 V 42.626 q -0.911,0 -1.56,-0.649 Q 28.688,41.328 28.688,40.417 V 39.313 l -5.3,-5.3 q -0.083,0.497 -0.152,0.994 -0.069,0.497 -0.069,0.994 0,3.34 2.195,5.852 2.195,2.512 5.535,2.926 z M 38.515,41.963 q 0.552,-0.607 0.994,-1.311 0.442,-0.704 0.732,-1.463 0.29,-0.759 0.442,-1.56 0.152,-0.801 0.152,-1.629 0,-2.705 -1.504,-4.941 Q 37.824,28.823 35.313,27.83 v 0.442 q 0,0.911 -0.649,1.56 -0.649,0.649 -1.56,0.649 h -2.208 v 2.208 q 0,0.469 -0.317,0.787 -0.317,0.317 -0.787,0.317 h -2.208 v 2.208 h 6.625 q 0.469,0 0.787,0.317 0.317,0.317 0.317,0.787 v 3.313 h 1.104 q 0.718,0 1.297,0.428 0.58,0.428 0.801,1.118 z" />
  </defs>
  <use href="#folder-back" class="ColorScheme-Accent" fill="currentColor" />
  <use href="#folder-back" class="ColorScheme-Background" fill="currentColor" opacity="0.3" />
  <path
    d=" M 9.333,53.333 q -1.6,0 -2.8,-1.233 -1.2,-1.233 -1.2,-2.767 v -26.666 q 0,-1.533 1.2,-2.767 1.2,-1.233 2.8,-1.233 h 18.734 l 4,-4 h 22.6 q 1.533,0 2.767,1.233 1.233,1.233 1.233,2.767 v 30.667 q 0,1.533 -1.233,2.767 -1.233,1.233 -2.767,1.233 z"
    class="ColorScheme-Accent" fill="currentColor" />
  <use href="#icon" class="ColorScheme-Background" fill="currentColor" opacity="0.8" />
  <path
    d="M 9.333,53.333 q -1.6,0 -2.8,-1.233 -1.2,-1.233 -1.2,-2.767 v -34.666 q 0,-1.533 1.2,-2.767 1.2,-1.233 2.8,-1.233 h 18.734 l 4,4 h 22.6 q 1.533,0 2.767,1.233 1.233,1.233 1.233,2.767 v 30.667 q 0,1.533 -1.233,2.767 -1.233,1.233 -2.767,1.233 z"
    fill="url(#lg1)" />
</svg>