<svg height="64" width="64" version="1.1" xmlns="http://www.w3.org/2000/svg" xmlns:svg="http://www.w3.org/2000/svg">
  <defs>
    <style type="text/css" id="current-color-scheme">
      .ColorScheme-Accent {
        color: #95ccff;
      }

      .ColorScheme-Background {
        color: #28292d;
      }
    </style>
    <linearGradient id="lg1" x1="48" y1="53.334" x2="48" y2="10.667" gradientUnits="userSpaceOnUse">
      <stop stop-opacity="0.15" offset="0" />
      <stop stop-opacity="0" offset="1" />
    </linearGradient>
    <path id="folder-back" d="M 5.333,22.667 v -8 q 0,-1.533 1.2,-2.767 1.2,-1.233 2.8,-1.23 h 18.734 l 4,4 v 8 z" />
    <path id="icon"
      d="M 41.938,45.938 V 28.271 H 22.063 v 8.833 h -2.208 v -8.833 q 0,-0.911 0.649,-1.56 0.649,-0.649 1.56,-0.649 h 19.875 q 0.911,0 1.56,0.649 0.649,0.649 0.649,1.56 v 15.458 q 0,0.911 -0.649,1.56 Q 42.848,45.938 41.938,45.938 Z M 28.688,38.209 q -1.822,0 -3.119,-1.297 -1.297,-1.297 -1.297,-3.119 0,-1.822 1.297,-3.119 1.297,-1.297 3.119,-1.297 1.822,0 3.119,1.297 1.297,1.297 1.297,3.119 0,1.822 -1.297,3.119 -1.297,1.297 -3.119,1.297 z m 0,-2.208 q 0.911,0 1.56,-0.649 0.649,-0.649 0.649,-1.56 0,-0.911 -0.649,-1.56 -0.649,-0.649 -1.56,-0.649 -0.911,0 -1.56,0.649 -0.649,0.649 -0.649,1.56 0,0.911 0.649,1.56 0.649,0.649 1.56,0.649 z M 19.854,47.042 V 43.951 q 0,-0.939 0.483,-1.725 0.483,-0.787 1.284,-1.201 1.711,-0.856 3.478,-1.284 Q 26.866,39.313 28.688,39.313 q 1.822,0 3.589,0.428 1.767,0.428 3.478,1.284 0.801,0.414 1.284,1.201 0.483,0.787 0.483,1.725 v 3.092 z M 22.063,44.834 h 13.25 V 43.951 q 0,-0.304 -0.152,-0.552 -0.152,-0.248 -0.4,-0.386 -1.491,-0.745 -3.009,-1.118 -1.518,-0.373 -3.064,-0.373 -1.546,0 -3.064,0.373 -1.518,0.373 -3.009,1.118 -0.248,0.138 -0.4,0.386 Q 22.063,43.647 22.063,43.951 Z m 6.625,-11.042 z m 0,11.042 z" />
  </defs>
  <use href="#folder-back" class="ColorScheme-Accent" fill="currentColor" />
  <use href="#folder-back" class="ColorScheme-Background" fill="currentColor" opacity="0.3" />
  <path
    d=" M 9.333,53.333 q -1.6,0 -2.8,-1.233 -1.2,-1.233 -1.2,-2.767 v -26.666 q 0,-1.533 1.2,-2.767 1.2,-1.233 2.8,-1.233 h 18.734 l 4,-4 h 22.6 q 1.533,0 2.767,1.233 1.233,1.233 1.233,2.767 v 30.667 q 0,1.533 -1.233,2.767 -1.233,1.233 -2.767,1.233 z"
    class="ColorScheme-Accent" fill="currentColor" />
  <use href="#icon" class="ColorScheme-Background" fill="currentColor" opacity="0.8" />
  <path
    d="M 9.333,53.333 q -1.6,0 -2.8,-1.233 -1.2,-1.233 -1.2,-2.767 v -34.666 q 0,-1.533 1.2,-2.767 1.2,-1.233 2.8,-1.233 h 18.734 l 4,4 h 22.6 q 1.533,0 2.767,1.233 1.233,1.233 1.233,2.767 v 30.667 q 0,1.533 -1.233,2.767 -1.233,1.233 -2.767,1.233 z"
    fill="url(#lg1)" />
</svg>