<svg viewBox="0 0 64 64" xmlns="http://www.w3.org/2000/svg">
  <defs>
    <style type="text/css" id="current-color-scheme">
      .ColorScheme-Accent {
        color: #95ccff;
      }

      .ColorScheme-Background {
        color: #1e2022;
      }
    </style>
    <path id="folder-back" d="M 5.333,53.333 V 10.667 H 28.067 l 4,4 h 26.6 v 38.667 z" />
  </defs>
  <use href="#folder-back" class="ColorScheme-Accent" fill="currentColor" />
  <use href="#folder-back" class="ColorScheme-Background" fill="currentColor" opacity="0.3" />
  <path d="M 5.333,53.333 V 18.667 H 28.067 l 4,-4 h 26.6 v 38.667 z" class="ColorScheme-Accent" fill="currentColor" />
  <path
    d="m 37.521,47.042 q -1.38,0 -2.346,-0.966 -0.966,-0.966 -0.966,-2.346 0,-0.166 0.083,-0.773 L 26.534,38.43 Q 26.093,38.844 25.513,39.078 24.933,39.313 24.271,39.313 q -1.38,0 -2.346,-0.966 -0.966,-0.966 -0.966,-2.346 0,-1.38 0.966,-2.346 0.966,-0.966 2.346,-0.966 0.662,0 1.242,0.235 0.58,0.235 1.021,0.649 l 7.757,-4.527 q -0.055,-0.193 -0.069,-0.373 -0.014,-0.179 -0.014,-0.4 0,-1.38 0.966,-2.346 0.966,-0.966 2.346,-0.966 1.38,0 2.346,0.966 0.966,0.966 0.966,2.346 0,1.38 -0.966,2.346 -0.966,0.966 -2.346,0.966 -0.663,0 -1.242,-0.235 -0.58,-0.235 -1.021,-0.649 l -7.757,4.527 q 0.055,0.193 0.069,0.373 0.014,0.179 0.014,0.4 0,0.221 -0.014,0.4 -0.014,0.179 -0.069,0.373 l 7.757,4.527 q 0.442,-0.414 1.021,-0.649 0.58,-0.235 1.242,-0.235 1.38,0 2.346,0.966 0.966,0.966 0.966,2.346 0,1.38 -0.966,2.346 -0.966,0.966 -2.346,0.966 z m 0,-2.208 q 0.469,0 0.787,-0.317 0.317,-0.317 0.317,-0.787 0,-0.469 -0.317,-0.787 -0.317,-0.317 -0.787,-0.317 -0.469,0 -0.787,0.317 -0.317,0.317 -0.317,0.787 0,0.469 0.317,0.787 0.317,0.317 0.787,0.317 z m -13.25,-7.729 q 0.469,0 0.787,-0.317 Q 25.375,36.47 25.375,36.001 q 0,-0.469 -0.317,-0.787 -0.317,-0.317 -0.787,-0.317 -0.469,0 -0.787,0.317 -0.317,0.317 -0.317,0.787 0,0.469 0.317,0.787 0.317,0.317 0.787,0.317 z m 13.25,-7.729 q 0.469,0 0.787,-0.317 0.317,-0.317 0.317,-0.787 0,-0.469 -0.317,-0.787 -0.317,-0.317 -0.787,-0.317 -0.469,0 -0.787,0.317 -0.317,0.317 -0.317,0.787 0,0.469 0.317,0.787 0.317,0.317 0.787,0.317 z m 0,14.354 z m -13.25,-7.729 z m 13.25,-7.729 z"
    class="ColorScheme-Background" fill="currentColor" />
</svg>