<svg height="64" width="64" version="1.1" xmlns="http://www.w3.org/2000/svg" xmlns:svg="http://www.w3.org/2000/svg">
  <defs>
    <style type="text/css" id="current-color-scheme">
      .ColorScheme-NegativeText {
        color: #ff5540;
      }

      .ColorScheme-Background {
        color: #28292d;
      }
    </style>
    <linearGradient id="lg1" x1="48" y1="53.334" x2="48" y2="10.667" gradientUnits="userSpaceOnUse">
      <stop stop-opacity="0.15" offset="0" />
      <stop stop-opacity="0" offset="1" />
    </linearGradient>
    <path id="folder-back" d="M 5.333,22.667 v -8 q 0,-1.533 1.2,-2.767 1.2,-1.233 2.8,-1.23 h 18.734 l 4,4 v 8 z" />
    <path id="icon"
      d="m 30.289,39.865 q 0.663,0.663 1.711,0.649 1.049,-0.014 1.546,-0.759 l 6.183,-9.275 -9.275,6.183 q -0.745,0.497 -0.787,1.518 -0.041,1.021 0.621,1.684 z M 32,27.167 q 1.629,0 3.133,0.455 1.504,0.455 2.829,1.366 l -2.098,1.325 Q 34.954,29.845 33.974,29.61 32.994,29.375 32,29.375 q -3.671,0 -6.252,2.581 -2.581,2.581 -2.581,6.252 0,1.159 0.317,2.291 0.317,1.132 0.897,2.126 h 15.238 q 0.635,-1.049 0.925,-2.181 0.29,-1.132 0.29,-2.346 0,-0.994 -0.235,-1.932 -0.235,-0.939 -0.704,-1.822 l 1.325,-2.098 q 0.828,1.297 1.311,2.76 0.483,1.463 0.511,3.036 0.028,1.573 -0.359,3.009 -0.386,1.435 -1.132,2.733 -0.304,0.497 -0.828,0.773 -0.524,0.276 -1.104,0.276 H 24.381 q -0.58,0 -1.104,-0.276 -0.524,-0.276 -0.828,-0.773 -0.718,-1.242 -1.104,-2.636 -0.386,-1.394 -0.386,-2.94 0,-2.291 0.87,-4.292 0.87,-2.001 2.374,-3.506 1.504,-1.504 3.52,-2.374 Q 29.736,27.167 32,27.167 Z m 0.193,8.64 z" />
  </defs>
  <use href="#folder-back" class="ColorScheme-NegativeText" fill="currentColor" />
  <use href="#folder-back" class="ColorScheme-Background" fill="currentColor" opacity="0.3" />
  <path
    d=" M 9.333,53.333 q -1.6,0 -2.8,-1.233 -1.2,-1.233 -1.2,-2.767 v -26.666 q 0,-1.533 1.2,-2.767 1.2,-1.233 2.8,-1.233 h 18.734 l 4,-4 h 22.6 q 1.533,0 2.767,1.233 1.233,1.233 1.233,2.767 v 30.667 q 0,1.533 -1.233,2.767 -1.233,1.233 -2.767,1.233 z"
    class="ColorScheme-NegativeText" fill="currentColor" />
  <use href="#icon" class="ColorScheme-Background" fill="currentColor" opacity="0.8" />
  <path
    d="M 9.333,53.333 q -1.6,0 -2.8,-1.233 -1.2,-1.233 -1.2,-2.767 v -34.666 q 0,-1.533 1.2,-2.767 1.2,-1.233 2.8,-1.233 h 18.734 l 4,4 h 22.6 q 1.533,0 2.767,1.233 1.233,1.233 1.233,2.767 v 30.667 q 0,1.533 -1.233,2.767 -1.233,1.233 -2.767,1.233 z"
    fill="url(#lg1)" />
</svg>