<svg viewBox="0 0 64 64" xmlns="http://www.w3.org/2000/svg">
  <defs>
    <style type="text/css" id="current-color-scheme">
      .ColorScheme-Accent {
        color: #95ccff;
      }

      .ColorScheme-Background {
        color: #1e2022;
      }
    </style>
    <path id="folder-back" d="M 5.333,53.333 V 10.667 H 28.067 l 4,4 h 26.6 v 38.667 z" />
  </defs>
  <use href="#folder-back" class="ColorScheme-Accent" fill="currentColor" />
  <use href="#folder-back" class="ColorScheme-Background" fill="currentColor" opacity="0.3" />
  <path d="M 5.333,53.333 V 18.667 H 28.067 l 4,-4 h 26.6 v 38.667 z" class="ColorScheme-Accent" fill="currentColor" />
  <path
    d="m 42.546,34.121 c -0.495,-0.344 -1.631,-0.473 -2.518,-0.301 -0.103,-0.859 -0.578,-1.611 -1.404,-2.277 l -0.475,-0.344 -0.33,0.494 c -0.413,0.645 -0.619,1.547 -0.557,2.406 0.021,0.301 0.124,0.838 0.433,1.31 -0.289,0.172 -0.888,0.387 -1.672,0.387 H 21.099 l -0.041,0.172 c -0.144,0.859 -0.144,3.545 1.548,5.607 1.28,1.568 3.179,2.363 5.676,2.363 5.408,0 9.413,-2.6 11.291,-7.304 0.743,0.021 2.333,0 3.138,-1.611 0.021,-0.043 0.062,-0.129 0.206,-0.451 l 0.083,-0.172 z M 33.03,28.062 H 30.759 V 30.211 h 2.271 v -2.148 z m 0,2.578 h -2.271 v 2.148 h 2.271 v -2.148 z m -2.683,0 h -2.271 v 2.148 h 2.271 v -2.148 z m -2.683,0 H 25.393 v 2.148 h 2.271 v -2.148 z m -2.683,2.578 h -2.271 v 2.148 h 2.271 z m 2.683,0 H 25.393 v 2.148 h 2.271 z m 2.683,0 h -2.271 v 2.148 h 2.271 z m 2.683,0 h -2.271 v 2.148 h 2.271 z m 2.683,0 H 33.443 v 2.148 h 2.271 z"
    class="ColorScheme-Background" fill="currentColor" />
</svg>