<svg viewBox="0 0 64 64" xmlns="http://www.w3.org/2000/svg">
  <defs>
    <style type="text/css" id="current-color-scheme">
      .ColorScheme-Accent {
        color: #95ccff;
      }

      .ColorScheme-Background {
        color: #1e2022;
      }
    </style>
    <path id="folder-back" d="M 5.333,53.333 V 10.667 H 28.067 l 4,4 h 26.6 v 38.667 z" />
  </defs>
  <use href="#folder-back" class="ColorScheme-Accent" fill="currentColor" />
  <use href="#folder-back" class="ColorScheme-Background" fill="currentColor" opacity="0.3" />
  <path d="M 5.333,53.333 V 18.667 H 28.067 l 4,-4 h 26.6 v 38.667 z" class="ColorScheme-Accent" fill="currentColor" />
  <path
    d="m 52.534,18.667 v -4 h 6.133 v 4 z m -6.133,6.133 v -6.133 h 6.133 v 6.133 z m 6.133,6.133 v -6.133 h 6.133 v 6.133 z m 0,6.133 h -6.133 v -6.133 h 6.133 z m 0,6.133 v -6.133 h 6.133 v 6.133 z m -6.133,6.133 v -6.133 h 6.133 v 6.133 z m 6.133,4 v -4 h 6.133 v 4 z"
    class="ColorScheme-Background" fill="currentColor" />
  <path
    d="m 27.827,34.814 q 0.138,-0.221 0.193,-0.483 0.055,-0.262 0.055,-0.538 0,-0.911 -0.649,-1.56 -0.649,-0.649 -1.56,-0.649 -0.276,0 -0.538,0.055 -0.262,0.055 -0.483,0.193 z m 5.604,5.659 -1.656,-1.711 q 0.331,-0.883 0.524,-1.836 0.193,-0.952 0.193,-1.918 v -5.217 l -6.625,-2.484 -4.03,1.518 -1.711,-1.711 5.742,-2.153 8.833,3.313 v 6.735 q 0,1.408 -0.317,2.788 -0.317,1.38 -0.952,2.678 z m 1.049,7.232 -3.589,-3.589 q -1.049,1.077 -2.333,1.808 -1.284,0.732 -2.691,1.118 -3.837,-0.966 -6.335,-4.403 -2.498,-3.437 -2.498,-7.633 v -4.748 l -2.871,-2.871 1.546,-1.546 20.317,20.317 z M 24.487,37.712 Z m 1.573,-4.693 z m -0.193,11.704 q 0.966,-0.304 1.849,-0.856 0.883,-0.552 1.629,-1.297 L 26.088,39.313 h -1.877 l 0.276,-1.601 -5.245,-5.245 v 2.54 q 0,3.34 1.877,6.073 1.877,2.733 4.748,3.644 z"
    class="ColorScheme-Background" fill="currentColor" />
</svg>