<svg viewBox="0 0 64 64" xmlns="http://www.w3.org/2000/svg">
  <defs>
    <style type="text/css" id="current-color-scheme">
      .ColorScheme-Accent {
        color: #95ccff;
      }

      .ColorScheme-Background {
        color: #1e2022;
      }
    </style>
    <path id="folder-back" d="M 5.333,53.333 V 10.667 H 28.067 l 4,4 h 26.6 v 38.667 z" />
  </defs>
  <use href="#folder-back" class="ColorScheme-Accent" fill="currentColor" />
  <use href="#folder-back" class="ColorScheme-Background" fill="currentColor" opacity="0.3" />
  <path d="M 5.333,53.333 V 18.667 H 28.067 l 4,-4 h 26.6 v 38.667 z" class="ColorScheme-Accent" fill="currentColor" />
  <path
    d="m 29.722,25.001 v 4.125 H 27.531 l 4.254,4.813 4.254,-4.813 h -2.192 v -4.125 z m 1.526,9.625 c -0.119,0 -0.193,0.203 -0.193,0.451 v 1.568 C 30.576,36.754 30.125,36.949 29.722,37.204 l -1.117,-1.117 c -0.175,-0.175 -0.367,-0.256 -0.451,-0.172 l -1.053,1.053 c -0.084,0.084 -0.004,0.276 0.172,0.451 l 1.117,1.117 C 28.136,38.938 27.941,39.389 27.832,39.868 H 26.264 c -0.248,0 -0.451,0.074 -0.451,0.193 v 1.504 c 0,0.119 0.203,0.193 0.451,0.193 h 1.568 c 0.109,0.479 0.304,0.93 0.559,1.332 l -1.117,1.117 c -0.175,0.175 -0.256,0.367 -0.172,0.451 l 1.053,1.053 c 0.084,0.084 0.276,0.004 0.451,-0.172 l 1.117,-1.117 C 30.125,44.677 30.576,44.872 31.055,44.981 V 46.55 c 0,0.248 0.074,0.451 0.193,0.451 h 1.504 c 0.119,0 0.193,-0.203 0.193,-0.451 v -1.568 c 0.479,-0.109 0.93,-0.304 1.332,-0.559 l 1.117,1.117 c 0.175,0.175 0.367,0.256 0.451,0.172 l 1.053,-1.053 c 0.084,-0.084 0.004,-0.276 -0.172,-0.451 L 35.609,43.091 C 35.864,42.688 36.059,42.238 36.168,41.758 H 37.737 c 0.248,0 0.451,-0.074 0.451,-0.193 v -1.504 c 0,-0.119 -0.203,-0.193 -0.451,-0.193 h -1.568 c -0.109,-0.478 -0.304,-0.929 -0.559,-1.332 l 1.117,-1.117 c 0.175,-0.175 0.256,-0.367 0.172,-0.451 l -1.053,-1.053 c -0.084,-0.084 -0.276,-0.003 -0.451,0.172 L 34.277,37.204 C 33.874,36.949 33.424,36.754 32.945,36.645 V 35.077 c 6.87e-4,-0.248 -0.074,-0.451 -0.193,-0.451 h -1.504 z M 32,38.901 c 1.051,0 1.912,0.861 1.912,1.912 0,1.051 -0.861,1.912 -1.912,1.912 -1.051,0 -1.912,-0.861 -1.912,-1.912 0,-1.051 0.861,-1.912 1.912,-1.912 z"
    class="ColorScheme-Background" fill="currentColor" />
</svg>