<svg viewBox="0 0 64 64" xmlns="http://www.w3.org/2000/svg">
  <defs>
    <style type="text/css" id="current-color-scheme">
      .ColorScheme-Accent {
        color: #95ccff;
      }

      .ColorScheme-Background {
        color: #1e2022;
      }
    </style>
    <path id="folder-back" d="M 5.333,53.333 V 10.667 H 28.067 l 4,4 h 26.6 v 38.667 z" />
  </defs>
  <use href="#folder-back" class="ColorScheme-Accent" fill="currentColor" />
  <use href="#folder-back" class="ColorScheme-Background" fill="currentColor" opacity="0.3" />
  <path d="M 5.333,53.333 V 18.667 H 28.067 l 4,-4 h 26.6 v 38.667 z" class="ColorScheme-Accent" fill="currentColor" />
  <path
    d="m 38.487,46.407 -7.481,-7.536 q -0.552,0.221 -1.118,0.331 Q 29.322,39.313 28.688,39.313 q -2.76,0 -4.693,-1.932 -1.932,-1.932 -1.932,-4.693 0,-0.994 0.276,-1.891 0.276,-0.897 0.773,-1.698 l 4.03,4.03 1.988,-1.988 -4.03,-4.03 q 0.801,-0.497 1.698,-0.773 0.897,-0.276 1.891,-0.276 2.76,0 4.693,1.932 1.932,1.932 1.932,4.693 0,0.635 -0.11,1.201 -0.11,0.566 -0.331,1.118 l 7.536,7.481 z m 0,-3.147 0.745,-0.745 -7.067,-7.067 q 0.497,-0.552 0.718,-1.284 0.221,-0.732 0.221,-1.477 0,-1.656 -1.063,-2.885 -1.063,-1.228 -2.636,-1.477 l 2.816,2.816 -5.079,5.079 -2.816,-2.816 q 0.248,1.573 1.477,2.636 1.228,1.063 2.885,1.063 0.718,0 1.435,-0.221 0.718,-0.221 1.297,-0.69 z m -6.708,-7.481 z"
    class="ColorScheme-Background" fill="currentColor" />
</svg>