<svg viewBox="0 0 64 64" xmlns="http://www.w3.org/2000/svg">
  <defs>
    <style type="text/css" id="current-color-scheme">
      .ColorScheme-Accent {
        color: #95ccff;
      }

      .ColorScheme-Background {
        color: #1e2022;
      }
    </style>
    <path id="folder-back" d="M 5.333,53.333 V 10.667 H 28.067 l 4,4 h 26.6 v 38.667 z" />
  </defs>
  <use href="#folder-back" class="ColorScheme-Accent" fill="currentColor" />
  <use href="#folder-back" class="ColorScheme-Background" fill="currentColor" opacity="0.3" />
  <path d="M 5.333,53.333 V 18.667 H 28.067 l 4,-4 h 26.6 v 38.667 z" class="ColorScheme-Accent" fill="currentColor" />
  <path
    d="M 41.938,45.938 V 28.271 H 22.063 v 8.833 H 19.854 V 26.063 H 44.146 V 45.938 Z M 28.688,38.209 q -1.822,0 -3.119,-1.297 -1.297,-1.297 -1.297,-3.119 0,-1.822 1.297,-3.119 1.297,-1.297 3.119,-1.297 1.822,0 3.119,1.297 1.297,1.297 1.297,3.119 0,1.822 -1.297,3.119 -1.297,1.297 -3.119,1.297 z m 0,-2.208 q 0.911,0 1.56,-0.649 0.649,-0.649 0.649,-1.56 0,-0.911 -0.649,-1.56 -0.649,-0.649 -1.56,-0.649 -0.911,0 -1.56,0.649 -0.649,0.649 -0.649,1.56 0,0.911 0.649,1.56 0.649,0.649 1.56,0.649 z M 19.854,47.042 V 43.951 q 0,-0.939 0.483,-1.725 0.483,-0.787 1.284,-1.201 1.711,-0.856 3.478,-1.284 Q 26.866,39.313 28.688,39.313 q 1.822,0 3.589,0.428 1.767,0.428 3.478,1.284 0.801,0.414 1.284,1.201 0.483,0.787 0.483,1.725 v 3.092 z M 22.063,44.834 h 13.25 V 43.951 q 0,-0.304 -0.152,-0.552 -0.152,-0.248 -0.4,-0.386 -1.491,-0.745 -3.009,-1.118 -1.518,-0.373 -3.064,-0.373 -1.546,0 -3.064,0.373 -1.518,0.373 -3.009,1.118 -0.248,0.138 -0.4,0.386 Q 22.063,43.647 22.063,43.951 Z m 6.625,-11.042 z m 0,11.042 z"
    class="ColorScheme-Background" fill="currentColor" />
</svg>