<svg viewBox="0 0 64 64" xmlns="http://www.w3.org/2000/svg">
  <defs>
    <style type="text/css" id="current-color-scheme">
      .ColorScheme-Accent {
        color: #95ccff;
      }

      .ColorScheme-Background {
        color: #1e2022;
      }
    </style>
    <path id="folder-back" d="M 5.333,53.333 V 10.667 H 28.067 l 4,4 h 26.6 v 38.667 z" />
  </defs>
  <use href="#folder-back" class="ColorScheme-Accent" fill="currentColor" />
  <use href="#folder-back" class="ColorScheme-Background" fill="currentColor" opacity="0.3" />
  <path d="M 5.333,53.333 V 18.667 H 28.067 l 4,-4 h 26.6 v 38.667 z" class="ColorScheme-Accent" fill="currentColor" />
  <path
    d="m 35.644,41.19 1.546,-1.546 -4.085,-4.085 v -5.079 h -2.208 v 5.963 z M 32,47.042 q -2.291,0 -4.306,-0.87 -2.015,-0.87 -3.506,-2.36 -1.491,-1.491 -2.36,-3.506 -0.87,-2.015 -0.87,-4.306 0,-2.291 0.87,-4.306 0.87,-2.015 2.36,-3.506 1.491,-1.491 3.506,-2.36 2.015,-0.87 4.306,-0.87 2.291,0 4.306,0.87 2.015,0.87 3.506,2.36 1.491,1.491 2.36,3.506 0.87,2.015 0.87,4.306 0,2.291 -0.87,4.306 -0.87,2.015 -2.36,3.506 -1.491,1.491 -3.506,2.36 Q 34.291,47.042 32,47.042 Z m 0,-11.042 z m 0,8.833 q 3.671,0 6.252,-2.581 2.581,-2.581 2.581,-6.252 0,-3.671 -2.581,-6.252 Q 35.671,27.167 32,27.167 q -3.671,0 -6.252,2.581 -2.581,2.581 -2.581,6.252 0,3.671 2.581,6.252 2.581,2.581 6.252,2.581 z"
    class="ColorScheme-Background" fill="currentColor" />
</svg>