<svg viewBox="0 0 64 64" xmlns="http://www.w3.org/2000/svg">
  <defs>
    <style type="text/css" id="current-color-scheme">
      .ColorScheme-Accent {
        color: #95ccff;
      }

      .ColorScheme-Background {
        color: #1e2022;
      }
    </style>
    <path id="folder-back" d="M 5.333,53.333 V 10.667 H 28.067 l 4,4 h 26.6 v 38.667 z" />
  </defs>
  <use href="#folder-back" class="ColorScheme-Accent" fill="currentColor" />
  <use href="#folder-back" class="ColorScheme-Background" fill="currentColor" opacity="0.3" />
  <path d="M 5.333,53.333 V 18.667 H 28.067 l 4,-4 h 26.6 v 38.667 z" class="ColorScheme-Accent" fill="currentColor" />
  <path
    d="M 28.467,45.938 H 22.063 v -6.404 q 1.325,0 2.319,-0.842 0.994,-0.842 0.994,-2.139 0,-1.297 -0.994,-2.139 -0.994,-0.842 -2.319,-0.842 v -6.404 h 6.625 q 0,-1.159 0.801,-1.96 0.801,-0.801 1.96,-0.801 1.159,0 1.96,0.801 0.801,0.801 0.801,1.96 h 6.625 v 6.625 q 1.159,0 1.96,0.801 0.801,0.801 0.801,1.96 0,1.159 -0.801,1.96 -0.801,0.801 -1.96,0.801 v 6.625 h -6.404 q 0,-1.38 -0.87,-2.346 -0.87,-0.966 -2.112,-0.966 -1.242,0 -2.112,0.966 -0.87,0.966 -0.87,2.346 z m -4.196,-2.208 h 2.346 q 0.663,-1.822 2.126,-2.567 1.463,-0.745 2.705,-0.745 1.242,0 2.705,0.745 1.463,0.745 2.126,2.567 h 2.346 v -6.625 h 2.208 q 0.221,0 0.386,-0.166 0.166,-0.166 0.166,-0.386 0,-0.221 -0.166,-0.386 Q 41.054,36.001 40.833,36.001 h -2.208 v -6.625 H 32 v -2.208 q 0,-0.221 -0.166,-0.386 -0.166,-0.166 -0.386,-0.166 -0.221,0 -0.386,0.166 -0.166,0.166 -0.166,0.386 V 29.376 h -6.625 v 2.429 q 1.491,0.552 2.402,1.849 0.911,1.297 0.911,2.898 0,1.573 -0.911,2.871 -0.911,1.297 -2.402,1.877 z m 7.177,-7.177 z"
    class="ColorScheme-Background" fill="currentColor" />
</svg>