<svg viewBox="0 0 64 64" xmlns="http://www.w3.org/2000/svg">
  <defs>
    <style type="text/css" id="current-color-scheme">
      .ColorScheme-NegativeText {
        color: #ff5540;
      }

      .ColorScheme-Background {
        color: #1e2022;
      }
    </style>
    <path id="folder-back" d="M 5.333,53.333 V 10.667 H 28.067 l 4,4 h 26.6 v 38.667 z" />
  </defs>
  <use href="#folder-back" class="ColorScheme-NegativeText" fill="currentColor" />
  <use href="#folder-back" class="ColorScheme-Background" fill="currentColor" opacity="0.3" />
  <path d="M 5.333,53.333 V 18.667 H 28.067 l 4,-4 h 26.6 v 38.667 z" class="ColorScheme-NegativeText"
    fill="currentColor" />
  <path
    d="m 32,43.73 q 1.822,0 3.119,-1.297 1.297,-1.297 1.297,-3.119 v -4.417 q 0,-1.822 -1.297,-3.119 Q 33.822,30.48 32,30.48 q -1.822,0 -3.119,1.297 -1.297,1.297 -1.297,3.119 V 39.313 q 0,1.822 1.297,3.119 Q 30.178,43.73 32,43.73 Z m -2.208,-3.313 h 4.417 v -2.208 h -4.417 z m 0,-4.417 h 4.417 V 33.792 H 29.792 Z M 32,37.105 Z M 32,45.938 q -1.794,0 -3.326,-0.883 -1.532,-0.883 -2.415,-2.429 h -3.092 v -2.208 h 2.319 Q 25.403,39.865 25.389,39.313 25.375,38.761 25.375,38.209 H 23.167 V 36 H 25.375 q 0,-0.552 0.014,-1.104 0.014,-0.552 0.097,-1.104 h -2.319 v -2.208 h 3.092 q 0.386,-0.635 0.87,-1.187 0.483,-0.552 1.118,-0.966 l -1.767,-1.822 1.546,-1.546 2.374,2.374 q 0.773,-0.248 1.573,-0.248 0.801,0 1.573,0.248 l 2.429,-2.374 1.546,1.546 -1.822,1.822 q 0.635,0.414 1.146,0.952 0.511,0.538 0.897,1.201 h 3.092 v 2.208 h -2.319 q 0.083,0.552 0.097,1.104 0.014,0.552 0.014,1.104 h 2.208 v 2.208 h -2.208 q 0,0.552 -0.014,1.104 -0.014,0.552 -0.097,1.104 h 2.319 V 42.626 h -3.092 Q 36.858,44.171 35.326,45.055 33.794,45.938 32,45.938 Z"
    class="ColorScheme-Background" fill="currentColor" />
</svg>