<svg height="64" width="64" version="1.1" xmlns="http://www.w3.org/2000/svg" xmlns:svg="http://www.w3.org/2000/svg">
  <defs>
    <style type="text/css" id="current-color-scheme">
      .ColorScheme-Accent {
        color: #95ccff;
      }

      .ColorScheme-Background {
        color: #28292d;
      }
    </style>
    <linearGradient id="lg1" x1="48" y1="53.334" x2="48" y2="10.667" gradientUnits="userSpaceOnUse">
      <stop stop-opacity="0.15" offset="0" />
      <stop stop-opacity="0" offset="1" />
    </linearGradient>
    <path id="folder-back" d="M 5.333,22.667 v -8 q 0,-1.533 1.2,-2.767 1.2,-1.233 2.8,-1.23 h 18.734 l 4,4 v 8 z" />
    <path id="icon"
      d="m 23.18,32.152 c 0.062,-0.199 0.125,-0.458 0.176,-0.722 l 0.007,-0.048 c -0.32,0.403 -0.155,0.485 -0.183,0.761 z m 0.578,-2.438 c 0.064,0.522 -0.394,0.733 0.1,0.385 0.275,-0.605 -0.1,-0.165 -0.092,-0.385 z m 8.654,-4.603 c 0.24,-0.046 0.538,-0.084 0.84,-0.108 l 0.03,-0.002 c -0.339,0.028 -0.678,0.046 -1.008,0.092 l 0.137,0.018 z m 7.932,9.809 -0.064,0.137 c -0.106,0.756 -0.329,1.44 -0.649,2.064 l 0.017,-0.036 c 0.346,-0.626 0.589,-1.358 0.684,-2.136 l 0.003,-0.029 z m -10.03,2.183 c -0.112,-0.137 -0.208,-0.294 -0.279,-0.464 l -0.005,-0.013 c 0.098,0.307 0.232,0.575 0.4,0.816 l -0.007,-0.01 -0.11,-0.33 z m -0.568,0.028 -0.046,0.257 c 0.219,0.35 0.461,0.653 0.733,0.926 v 0 c -0.22,-0.43 -0.385,-0.605 -0.687,-1.192 z m 9.057,-2.623 c -0.021,0.504 -0.147,0.974 -0.357,1.394 l 0.009,-0.02 -0.32,0.166 c -0.257,0.495 0.028,0.32 -0.155,0.715 -0.441,0.436 -0.927,0.829 -1.449,1.17 l -0.035,0.022 c -0.184,0 0.128,-0.229 0.174,-0.312 -0.542,0.367 -0.441,0.55 -1.256,0.779 l -0.028,-0.055 c -0.343,0.117 -0.739,0.186 -1.151,0.186 -2.023,0 -3.664,-1.641 -3.664,-3.664 0,-0.015 0,-0.03 0,-0.045 v 0.002 c -0.027,0.155 -0.064,0.119 -0.11,0.183 -0.007,-0.082 -0.012,-0.177 -0.012,-0.274 0,-1.285 0.744,-2.397 1.826,-2.925 l 0.019,-0.009 c 0.403,-0.208 0.88,-0.329 1.385,-0.329 0.782,0 1.496,0.291 2.039,0.771 l -0.003,-0.003 c -0.565,-0.728 -1.441,-1.192 -2.424,-1.192 -0.024,0 -0.048,0 -0.073,7.4e-4 h 0.004 c -1.039,0.01 -1.943,0.581 -2.422,1.425 l -0.007,0.014 c -0.55,0.348 -0.614,1.347 -0.852,1.522 -0.05,0.247 -0.079,0.531 -0.079,0.821 0,1.632 0.904,3.052 2.237,3.788 l 0.022,0.011 c 0.247,0.174 0.073,0.192 0.11,0.32 -0.551,-0.265 -1.018,-0.623 -1.398,-1.058 l -0.004,-0.005 c 0.205,0.322 0.448,0.597 0.727,0.829 l 0.006,0.004 c -0.504,-0.165 -1.164,-1.192 -1.356,-1.237 0.852,1.521 3.464,2.677 4.821,2.108 -0.12,0.009 -0.26,0.014 -0.401,0.014 -0.62,0 -1.216,-0.099 -1.774,-0.282 l 0.04,0.012 c -0.302,-0.147 -0.705,-0.467 -0.642,-0.522 0.609,0.263 1.317,0.416 2.061,0.416 1.273,0 2.441,-0.447 3.357,-1.193 l -0.01,0.007 c 0.403,-0.32 0.852,-0.862 0.981,-0.87 -0.183,0.293 0.037,0.147 -0.11,0.403 0.403,-0.66 -0.183,-0.275 0.422,-1.137 l 0.22,0.302 c -0.082,-0.55 0.678,-1.211 0.605,-2.073 0.174,-0.275 0.183,0.275 0,0.889 0.265,-0.678 0.073,-0.779 0.137,-1.338 0.073,0.158 0.145,0.349 0.203,0.546 l 0.008,0.031 c -0.011,-0.089 -0.017,-0.192 -0.017,-0.297 0,-0.426 0.101,-0.829 0.28,-1.184 l -0.007,0.015 c -0.082,-0.046 -0.257,0.275 -0.293,-0.485 0,-0.339 0.092,-0.183 0.128,-0.257 -0.185,-0.214 -0.31,-0.484 -0.348,-0.782 l -7.3e-4,-0.007 c 0.073,-0.119 0.202,0.302 0.312,0.312 -0.081,-0.283 -0.147,-0.62 -0.181,-0.965 l -0.002,-0.025 c -0.312,-0.623 -0.11,0.092 -0.367,-0.275 -0.312,-1 0.275,-0.229 0.312,-0.678 0.391,0.649 0.701,1.401 0.889,2.202 l 0.01,0.054 c -0.111,-0.614 -0.266,-1.155 -0.469,-1.672 l 0.021,0.059 c 0.147,0.064 -0.238,-1.137 0.192,-0.339 -0.59,-1.742 -1.781,-3.15 -3.319,-4.007 l -0.037,-0.018 c 0.165,0.155 0.385,0.357 0.302,0.385 -0.687,-0.412 -0.568,-0.44 -0.669,-0.614 -0.559,-0.229 -0.595,0.018 -0.972,0 -0.634,-0.329 -1.377,-0.626 -2.151,-0.849 l -0.087,-0.021 0.046,0.21 c -0.705,-0.229 -0.825,0.092 -1.586,0 -0.046,-0.037 0.247,-0.128 0.485,-0.165 -0.679,0.092 -0.642,-0.128 -1.311,0.028 0.142,-0.097 0.307,-0.194 0.478,-0.282 l 0.026,-0.012 c -0.55,0.037 -1.319,0.32 -1.082,0.064 -1.302,0.471 -2.431,1.088 -3.445,1.848 l 0.034,-0.024 -0.026,-0.202 c -0.412,0.495 -1.796,1.476 -1.906,2.118 l -0.12,0.027 c -0.21,0.367 -0.348,0.779 -0.522,1.156 -0.275,0.477 -0.412,0.183 -0.367,0.257 -0.392,0.796 -0.753,1.74 -1.033,2.719 l -0.03,0.124 c 0.054,0.507 0.085,1.095 0.085,1.69 0,0.295 -0.007,0.588 -0.023,0.879 l 0.001,-0.041 c -0.002,0.081 -0.004,0.177 -0.004,0.274 0,4.948 3.169,9.156 7.588,10.705 l 0.079,0.024 c 0.595,0.149 1.278,0.235 1.982,0.235 0.106,0 0.211,-0.002 0.315,-0.006 l -0.015,7.3e-4 c -0.907,-0.257 -1.027,-0.137 -1.906,-0.449 -0.642,-0.293 -0.779,-0.642 -1.228,-1.036 l 0.183,0.32 c -0.89,-0.312 -0.522,-0.385 -1.247,-0.614 l 0.192,-0.247 c -0.381,-0.139 -0.689,-0.4 -0.884,-0.734 l -0.004,-0.008 -0.312,0.009 c -0.375,-0.459 -0.577,-0.798 -0.559,-1.064 l -0.102,0.183 c -0.119,-0.192 -1.393,-1.742 -0.733,-1.385 -0.189,-0.131 -0.344,-0.3 -0.455,-0.496 l -0.004,-0.007 0.128,-0.155 c -0.267,-0.303 -0.464,-0.673 -0.565,-1.082 l -0.004,-0.018 c 0.096,0.145 0.239,0.253 0.407,0.301 l 0.005,10e-4 c -0.807,-1.99 -0.852,-0.11 -1.467,-2.018 l 0.137,-0.018 c -0.076,-0.128 -0.156,-0.281 -0.227,-0.439 l -0.012,-0.029 0.055,-0.55 c -0.577,-0.678 -0.165,-2.842 -0.082,-4.034 0.248,-0.707 0.52,-1.306 0.837,-1.877 l -0.032,0.061 -0.192,-0.037 c 0.367,-0.65 2.145,-2.632 2.97,-2.53 0.394,-0.504 -0.082,0 -0.165,-0.128 0.88,-0.908 1.155,-0.642 1.742,-0.807 0.642,-0.367 -0.55,0.147 -0.247,-0.139 1.1,-0.275 0.779,-0.642 2.218,-0.779 0.147,0.092 -0.357,0.128 -0.477,0.238 0.527,-0.169 1.133,-0.268 1.762,-0.268 0.876,0 1.707,0.19 2.456,0.53 l -0.037,-0.015 c 1.754,0.935 2.986,2.653 3.233,4.674 l 0.003,0.029 0.073,0.018 c 0.018,0.208 0.028,0.451 0.028,0.696 0,0.633 -0.067,1.25 -0.194,1.846 l 0.01,-0.058 0.183,-0.385 z m -6.069,-9.113 -0.137,0.027 0.128,-0.009 v -0.018 z m -0.385,-0.11 c 0.183,0.037 0.412,0.064 0.385,0.11 0.21,-0.046 0.257,-0.092 -0.394,-0.11 z m 4.053,8.976 c 0.046,-0.661 -0.128,-0.459 -0.183,-0.202 0.064,0.037 0.119,0.458 0.183,0.202 z m -0.716,1.879 c 0.201,-0.275 0.351,-0.601 0.428,-0.955 l 0.003,-0.017 c -0.073,0.254 -0.176,0.477 -0.308,0.678 l 0.006,-0.01 c -0.687,0.43 -0.064,-0.247 0,-0.513 -0.733,0.925 -0.1,0.55 -0.128,0.815 z m -1.962,0.485 c -0.367,0 0.073,0.183 0.551,0.257 0.132,-0.099 0.249,-0.198 0.359,-0.304 l -10e-4,10e-4 c -0.177,0.041 -0.381,0.064 -0.59,0.064 -0.111,0 -0.221,-0.007 -0.33,-0.02 l 0.013,10e-4 z" />
  </defs>
  <use href="#folder-back" class="ColorScheme-Accent" fill="currentColor" />
  <use href="#folder-back" class="ColorScheme-Background" fill="currentColor" opacity="0.3" />
  <path
    d=" M 9.333,53.333 q -1.6,0 -2.8,-1.233 -1.2,-1.233 -1.2,-2.767 v -26.666 q 0,-1.533 1.2,-2.767 1.2,-1.233 2.8,-1.233 h 18.734 l 4,-4 h 22.6 q 1.533,0 2.767,1.233 1.233,1.233 1.233,2.767 v 30.667 q 0,1.533 -1.233,2.767 -1.233,1.233 -2.767,1.233 z"
    class="ColorScheme-Accent" fill="currentColor" />
  <use href="#icon" class="ColorScheme-Background" fill="currentColor" opacity="0.8" />
  <path
    d="M 9.333,53.333 q -1.6,0 -2.8,-1.233 -1.2,-1.233 -1.2,-2.767 v -34.666 q 0,-1.533 1.2,-2.767 1.2,-1.233 2.8,-1.233 h 18.734 l 4,4 h 22.6 q 1.533,0 2.767,1.233 1.233,1.233 1.233,2.767 v 30.667 q 0,1.533 -1.233,2.767 -1.233,1.233 -2.767,1.233 z"
    fill="url(#lg1)" />
</svg>