<svg viewBox="0 0 64 64" xmlns="http://www.w3.org/2000/svg">
  <defs>
    <style type="text/css" id="current-color-scheme">
      .ColorScheme-Accent {
        color: #95ccff;
      }

      .ColorScheme-Background {
        color: #1e2022;
      }
    </style>
    <path id="folder-back" d="M 5.333,53.333 V 10.667 H 28.067 l 4,4 h 26.6 v 38.667 z" />
  </defs>
  <use href="#folder-back" class="ColorScheme-Accent" fill="currentColor" />
  <use href="#folder-back" class="ColorScheme-Background" fill="currentColor" opacity="0.3" />
  <path d="M 5.333,53.333 V 18.667 H 28.067 l 4,-4 h 26.6 v 38.667 z" class="ColorScheme-Accent" fill="currentColor" />
  <path
    d="m 36.417,31.584 v -3.313 h -8.833 v 3.313 H 25.375 v -5.521 h 13.25 v 5.521 z m -13.25,2.208 h 17.667 z m 15.458,2.76 q 0.469,0 0.787,-0.317 0.317,-0.317 0.317,-0.787 0,-0.469 -0.317,-0.787 -0.317,-0.317 -0.787,-0.317 -0.469,0 -0.787,0.317 -0.317,0.317 -0.317,0.787 0,0.469 0.317,0.787 0.317,0.317 0.787,0.317 z m -2.208,7.177 V 39.313 h -8.833 v 4.417 z M 38.625,45.938 H 25.375 v -4.417 h -4.417 v -9.938 h 22.083 v 9.938 h -4.417 z m 2.208,-6.625 V 33.792 H 23.167 V 39.313 H 25.375 V 37.105 H 38.625 V 39.313 Z"
    class="ColorScheme-Background" fill="currentColor" />
</svg>