<svg viewBox="0 0 64 64" xmlns="http://www.w3.org/2000/svg">
  <defs>
    <style type="text/css" id="current-color-scheme">
      .ColorScheme-Accent {
        color: #95ccff;
      }

      .ColorScheme-Background {
        color: #1e2022;
      }
    </style>
    <path id="folder-back" d="M 5.333,53.333 V 10.667 H 28.067 l 4,4 h 26.6 v 38.667 z" />
  </defs>
  <use href="#folder-back" class="ColorScheme-Accent" fill="currentColor" />
  <use href="#folder-back" class="ColorScheme-Background" fill="currentColor" opacity="0.3" />
  <path d="M 5.333,53.333 V 18.667 H 28.067 l 4,-4 h 26.6 v 38.667 z" class="ColorScheme-Accent" fill="currentColor" />
  <path
    d="m 34.087,25.588 c -0.437,0.86 -0.768,1.739 -1.046,2.577 a 8.81,6.099 0 0 0 -1.046,-0.05 8.81,6.099 0 0 0 -1.043,0.053 C 30.676,27.334 30.347,26.46 29.913,25.604 a 12.199,12.199 0 0 0 -3.286,1.067 c 0.091,0.877 0.264,1.717 0.457,2.504 a 8.81,6.099 0 0 0 -2.155,1.44 C 24.348,30.179 23.723,29.741 23.044,29.347 A 12.199,12.199 0 0 0 21,32.352 c 0.491,0.529 1.005,1.01 1.508,1.452 v 6.228 l 3.942,0.342 0.135,1.787 3.222,0.171 0.201,-1.407 h 3.976 l 0.201,1.407 3.222,-0.171 0.135,-1.787 3.942,-0.342 V 33.805 C 41.989,33.361 42.507,32.876 43,32.344 a 12.199,12.199 0 0 0 -2.034,-3.006 c -0.682,0.394 -1.307,0.832 -1.89,1.269 a 8.81,6.099 0 0 0 -2.164,-1.44 c 0.193,-0.79 0.365,-1.633 0.456,-2.512 a 12.199,12.199 0 0 0 -3.281,-1.067 z m -7.174,8.627 a 2.372,2.372 0 0 1 2.372,2.372 2.372,2.372 0 0 1 -2.372,2.372 2.372,2.372 0 0 1 -2.372,-2.372 2.372,2.372 0 0 1 2.372,-2.372 z m 10.166,0 a 2.372,2.372 0 0 1 2.372,2.372 2.372,2.372 0 0 1 -2.372,2.372 2.372,2.372 0 0 1 -2.372,-2.372 2.372,2.372 0 0 1 2.372,-2.372 z m -9.827,1.017 a 1.355,1.355 0 0 0 -1.355,1.355 1.355,1.355 0 0 0 1.355,1.355 1.355,1.355 0 0 0 1.355,-1.355 1.355,1.355 0 0 0 -1.355,-1.355 z m 9.488,0 a 1.355,1.355 0 0 0 -1.355,1.355 1.355,1.355 0 0 0 1.355,1.355 1.355,1.355 0 0 0 1.355,-1.355 1.355,1.355 0 0 0 -1.355,-1.355 z m -4.744,0.339 c 0.375,0 0.678,0.302 0.678,0.678 v 2.033 c 0,0.375 -0.302,0.678 -0.678,0.678 -0.375,0 -0.678,-0.302 -0.678,-0.678 v -2.033 c 0,-0.375 0.302,-0.678 0.678,-0.678 z m -9.485,5.143 c 0.039,2.006 0.623,5.7 9.484,5.7 8.861,0 9.445,-3.694 9.484,-5.7 l -3.305,0.286 -0.136,1.805 -4.437,0.236 -0.205,-1.439 h -2.8 l -0.205,1.439 -4.436,-0.236 -0.137,-1.805 z"
    class="ColorScheme-Background" fill="currentColor" />
</svg>