<svg viewBox="0 0 64 64" xmlns="http://www.w3.org/2000/svg">
  <defs>
    <style type="text/css" id="current-color-scheme">
      .ColorScheme-Accent {
        color: #95ccff;
      }

      .ColorScheme-Background {
        color: #1e2022;
      }
    </style>
    <path id="folder-back" d="M 5.333,53.333 V 10.667 H 28.067 l 4,4 h 26.6 v 38.667 z" />
  </defs>
  <use href="#folder-back" class="ColorScheme-Accent" fill="currentColor" />
  <use href="#folder-back" class="ColorScheme-Background" fill="currentColor" opacity="0.3" />
  <path d="M 5.333,53.333 V 18.667 H 28.067 l 4,-4 h 26.6 v 38.667 z" class="ColorScheme-Accent" fill="currentColor" />
  <path
    d="m 26.203,45.938 -0.276,-2.429 3.147,-8.668 q 0.414,0.386 0.897,0.649 0.483,0.262 1.035,0.4 l -3.036,8.336 z m 11.594,0 -1.767,-1.711 -3.036,-8.336 q 0.552,-0.138 1.035,-0.4 0.483,-0.262 0.897,-0.649 l 3.147,8.668 z M 32,34.896 q -1.38,0 -2.346,-0.966 -0.966,-0.966 -0.966,-2.346 0,-1.077 0.621,-1.918 0.621,-0.842 1.587,-1.173 v -2.429 h 2.208 v 2.429 q 0.966,0.331 1.587,1.173 0.621,0.842 0.621,1.918 0,1.38 -0.966,2.346 Q 33.38,34.896 32,34.896 Z m 0,-2.208 q 0.469,0 0.787,-0.317 0.317,-0.317 0.317,-0.787 0,-0.469 -0.317,-0.787 Q 32.469,30.48 32,30.48 q -0.469,0 -0.787,0.317 -0.317,0.317 -0.317,0.787 0,0.469 0.317,0.787 Q 31.531,32.688 32,32.688 Z"
    class="ColorScheme-Background" fill="currentColor" />
</svg>