<svg height="64" width="64" version="1.1" xmlns="http://www.w3.org/2000/svg" xmlns:svg="http://www.w3.org/2000/svg">
  <defs>
    <style type="text/css" id="current-color-scheme">
      .ColorScheme-Accent {
        color: #95ccff;
      }

      .ColorScheme-Background {
        color: #28292d;
      }
    </style>
    <linearGradient id="lg1" x1="48" y1="53.334" x2="48" y2="10.667" gradientUnits="userSpaceOnUse">
      <stop stop-opacity="0.15" offset="0" />
      <stop stop-opacity="0" offset="1" />
    </linearGradient>
    <path id="folder-back" d="M 5.333,22.667 v -8 q 0,-1.533 1.2,-2.767 1.2,-1.233 2.8,-1.23 h 18.734 l 4,4 v 8 z" />
    <path id="icon"
      d="m 29.317,33.939 c -0.203,-0.45 -0.295,-0.974 -0.139,-1.45 0.155,-0.487 0.503,-0.878 0.851,-1.242 0.969,-0.969 2.162,-1.681 3.11,-2.665 0.524,-0.541 0.958,-1.188 1.108,-1.932 0.123,-0.546 0.064,-1.108 -0.048,-1.648 0.503,0.573 0.669,1.392 0.524,2.13 -0.155,0.83 -0.616,1.563 -1.156,2.194 -0.433,0.509 -0.931,0.958 -1.45,1.376 -0.605,0.487 -1.199,1.012 -1.579,1.697 -0.321,0.557 -0.396,1.242 -0.177,1.847 0.359,1.038 1.194,1.809 1.649,2.788 -0.503,-0.444 -0.996,-0.905 -1.456,-1.392 -0.482,-0.514 -0.937,-1.06 -1.236,-1.702 z m 2.73,-0.814 c -0.091,0.851 0.353,1.654 0.883,2.285 0.257,0.284 0.476,0.632 0.487,1.028 0.011,0.53 -0.289,1.022 -0.674,1.37 0.091,-0.011 0.155,-0.091 0.23,-0.134 0.578,-0.369 1.135,-0.835 1.418,-1.472 0.187,-0.434 0.145,-0.947 -0.102,-1.349 -0.289,-0.471 -0.669,-0.888 -0.894,-1.402 -0.123,-0.289 -0.166,-0.626 -0.064,-0.931 0.134,-0.412 0.423,-0.749 0.728,-1.044 0.84,-0.797 1.857,-1.365 2.831,-1.986 -1.231,0.353 -2.446,0.84 -3.484,1.606 -0.658,0.492 -1.268,1.177 -1.359,2.028 z m 5.85,4.025 c 0.583,0.032 1.156,0.46 1.263,1.049 0.102,0.508 -0.144,1.012 -0.46,1.397 -0.519,0.621 -1.22,1.065 -1.927,1.445 -0.07,0.043 -0.129,0.096 -0.182,0.155 0.931,-0.236 1.863,-0.589 2.617,-1.194 0.417,-0.348 0.787,-0.808 0.867,-1.36 0.075,-0.476 -0.123,-0.969 -0.476,-1.284 -0.428,-0.391 -1.033,-0.535 -1.6,-0.46 -0.326,0.043 -0.685,0.112 -0.91,0.385 0.268,-0.053 0.53,-0.161 0.808,-0.134 z M 26.277,38.681 c 0.701,0.187 1.424,0.241 2.141,0.289 0.642,0.043 1.285,0.054 1.932,0.048 1.67,-0.027 3.35,-0.139 4.988,-0.503 0.155,-0.037 0.326,-0.064 0.466,-0.161 0.273,-0.177 0.572,-0.316 0.867,-0.455 -1.333,0.214 -2.671,0.396 -4.02,0.482 -1.365,0.086 -2.74,0.139 -4.11,0.048 -0.391,-0.037 -0.792,-0.059 -1.156,-0.209 -0.086,-0.037 -0.204,-0.112 -0.161,-0.225 0.08,-0.145 0.241,-0.214 0.38,-0.289 0.589,-0.278 1.231,-0.433 1.857,-0.615 -1.076,-0.016 -2.146,0.257 -3.131,0.68 -0.22,0.107 -0.466,0.193 -0.642,0.375 -0.07,0.075 -0.07,0.203 0.011,0.268 0.161,0.145 0.375,0.209 0.578,0.268 z m 8.671,1.472 c -0.937,0.166 -1.879,0.321 -2.826,0.369 -1.038,0.07 -2.077,0.011 -3.104,-0.096 -0.198,-0.027 -0.396,-0.059 -0.573,-0.15 -0.091,-0.054 -0.182,-0.139 -0.177,-0.252 0.011,-0.177 0.16,-0.3 0.268,-0.428 -0.332,0.118 -0.664,0.241 -0.942,0.46 -0.118,0.091 -0.236,0.235 -0.204,0.396 0.048,0.187 0.23,0.3 0.391,0.385 0.396,0.204 0.84,0.294 1.274,0.375 1.097,0.177 2.216,0.182 3.318,0.107 1.167,-0.091 2.328,-0.284 3.458,-0.615 -0.321,-0.144 -0.626,-0.311 -0.883,-0.551 z m -5.882,1.852 c -0.3,0.086 -0.605,0.187 -0.851,0.385 -0.123,0.096 -0.22,0.262 -0.161,0.418 0.075,0.198 0.262,0.316 0.439,0.417 0.46,0.252 0.98,0.369 1.488,0.46 1.151,0.182 2.334,0.155 3.479,-0.048 0.68,-0.129 1.359,-0.311 1.991,-0.594 -0.412,-0.171 -0.813,-0.364 -1.199,-0.589 -0.669,0.118 -1.344,0.241 -2.029,0.284 -0.904,0.07 -1.82,-0.005 -2.724,-0.118 -0.214,-0.048 -0.482,-0.07 -0.626,-0.257 -0.075,-0.155 0.096,-0.268 0.193,-0.359 z m 7.322,3.441 c 0.749,-0.155 1.504,-0.332 2.189,-0.68 0.214,-0.123 0.476,-0.257 0.546,-0.514 0.037,-0.246 -0.22,-0.375 -0.401,-0.476 0.112,0.129 0.187,0.316 0.075,0.466 -0.187,0.252 -0.508,0.348 -0.792,0.444 -0.888,0.252 -1.809,0.353 -2.724,0.455 -2.425,0.219 -4.865,0.273 -7.29,0.07 -0.814,-0.086 -1.643,-0.177 -2.419,-0.466 -0.123,-0.054 -0.31,-0.107 -0.31,-0.273 0.048,-0.144 0.187,-0.225 0.31,-0.294 0.557,-0.284 1.178,-0.439 1.798,-0.476 -0.182,-0.107 -0.396,-0.118 -0.605,-0.112 -0.519,0.016 -1.028,0.15 -1.52,0.316 -0.423,0.155 -0.856,0.326 -1.194,0.637 -0.134,0.118 -0.257,0.342 -0.118,0.503 0.214,0.23 0.546,0.289 0.84,0.359 1.649,0.284 3.318,0.444 4.988,0.503 2.216,0.064 4.448,-0.032 6.626,-0.46 z m 2.194,0.289 c -1.006,0.321 -2.05,0.498 -3.088,0.642 -1.793,0.225 -3.602,0.294 -5.406,0.241 -1.097,-0.043 -2.194,-0.118 -3.276,-0.3 0.252,0.171 0.562,0.225 0.851,0.305 1.215,0.257 2.462,0.305 3.698,0.343 1.814,0.032 3.629,-0.037 5.416,-0.321 0.846,-0.15 1.697,-0.332 2.457,-0.728 0.396,-0.209 0.798,-0.53 0.867,-0.996 -0.401,0.428 -0.979,0.626 -1.52,0.814 z" />
  </defs>
  <use href="#folder-back" class="ColorScheme-Accent" fill="currentColor" />
  <use href="#folder-back" class="ColorScheme-Background" fill="currentColor" opacity="0.3" />
  <path
    d=" M 9.333,53.333 q -1.6,0 -2.8,-1.233 -1.2,-1.233 -1.2,-2.767 v -26.666 q 0,-1.533 1.2,-2.767 1.2,-1.233 2.8,-1.233 h 18.734 l 4,-4 h 22.6 q 1.533,0 2.767,1.233 1.233,1.233 1.233,2.767 v 30.667 q 0,1.533 -1.233,2.767 -1.233,1.233 -2.767,1.233 z"
    class="ColorScheme-Accent" fill="currentColor" />
  <use href="#icon" class="ColorScheme-Background" fill="currentColor" opacity="0.8" />
  <path
    d="M 9.333,53.333 q -1.6,0 -2.8,-1.233 -1.2,-1.233 -1.2,-2.767 v -34.666 q 0,-1.533 1.2,-2.767 1.2,-1.233 2.8,-1.233 h 18.734 l 4,4 h 22.6 q 1.533,0 2.767,1.233 1.233,1.233 1.233,2.767 v 30.667 q 0,1.533 -1.233,2.767 -1.233,1.233 -2.767,1.233 z"
    fill="url(#lg1)" />
</svg>