<svg height="64" width="64" version="1.1" xmlns="http://www.w3.org/2000/svg" xmlns:svg="http://www.w3.org/2000/svg">
  <defs>
    <style type="text/css" id="current-color-scheme">
      .ColorScheme-Accent {
        color: #95ccff;
      }

      .ColorScheme-Background {
        color: #28292d;
      }
    </style>
    <linearGradient id="lg1" x1="48" y1="53.334" x2="48" y2="10.667" gradientUnits="userSpaceOnUse">
      <stop stop-opacity="0.15" offset="0" />
      <stop stop-opacity="0" offset="1" />
    </linearGradient>
    <path id="folder-back" d="M 5.333,22.667 v -8 q 0,-1.533 1.2,-2.767 1.2,-1.233 2.8,-1.23 h 18.734 l 4,4 v 8 z" />
    <path id="icon"
      d="m 28.467,45.938 h -4.196 q -0.911,0 -1.56,-0.649 Q 22.063,44.641 22.063,43.73 v -4.196 q 1.325,0 2.319,-0.842 0.994,-0.842 0.994,-2.139 0,-1.297 -0.994,-2.139 -0.994,-0.842 -2.319,-0.842 v -4.196 q 0,-0.911 0.649,-1.56 0.649,-0.649 1.56,-0.649 H 28.688 q 0,-1.159 0.801,-1.96 0.801,-0.801 1.96,-0.801 1.159,0 1.96,0.801 0.801,0.801 0.801,1.96 h 4.417 q 0.911,0 1.56,0.649 0.649,0.649 0.649,1.56 v 4.417 q 1.159,0 1.96,0.801 0.801,0.801 0.801,1.96 0,1.159 -0.801,1.96 Q 41.993,39.313 40.833,39.313 v 4.417 q 0,0.911 -0.649,1.56 Q 39.536,45.938 38.625,45.938 h -4.196 q 0,-1.38 -0.87,-2.346 -0.87,-0.966 -2.112,-0.966 -1.242,0 -2.112,0.966 -0.87,0.966 -0.87,2.346 z m -4.196,-2.208 h 2.346 q 0.663,-1.822 2.126,-2.567 1.463,-0.745 2.705,-0.745 1.242,0 2.705,0.745 1.463,0.745 2.126,2.567 h 2.346 v -6.625 h 2.208 q 0.221,0 0.386,-0.166 0.166,-0.166 0.166,-0.386 0,-0.221 -0.166,-0.386 -0.166,-0.166 -0.386,-0.166 h -2.208 v -6.625 H 32 v -2.208 q 0,-0.221 -0.166,-0.386 -0.166,-0.166 -0.386,-0.166 -0.221,0 -0.386,0.166 -0.166,0.166 -0.166,0.386 v 2.208 h -6.625 v 2.429 q 1.491,0.552 2.402,1.849 0.911,1.297 0.911,2.898 0,1.573 -0.911,2.871 -0.911,1.297 -2.402,1.877 z m 7.177,-7.177 z" />
  </defs>
  <use href="#folder-back" class="ColorScheme-Accent" fill="currentColor" />
  <use href="#folder-back" class="ColorScheme-Background" fill="currentColor" opacity="0.3" />
  <path
    d=" M 9.333,53.333 q -1.6,0 -2.8,-1.233 -1.2,-1.233 -1.2,-2.767 v -26.666 q 0,-1.533 1.2,-2.767 1.2,-1.233 2.8,-1.233 h 18.734 l 4,-4 h 22.6 q 1.533,0 2.767,1.233 1.233,1.233 1.233,2.767 v 30.667 q 0,1.533 -1.233,2.767 -1.233,1.233 -2.767,1.233 z"
    class="ColorScheme-Accent" fill="currentColor" />
  <use href="#icon" class="ColorScheme-Background" fill="currentColor" opacity="0.8" />
  <path
    d="M 9.333,53.333 q -1.6,0 -2.8,-1.233 -1.2,-1.233 -1.2,-2.767 v -34.666 q 0,-1.533 1.2,-2.767 1.2,-1.233 2.8,-1.233 h 18.734 l 4,4 h 22.6 q 1.533,0 2.767,1.233 1.233,1.233 1.233,2.767 v 30.667 q 0,1.533 -1.233,2.767 -1.233,1.233 -2.767,1.233 z"
    fill="url(#lg1)" />
</svg>