<svg height="64" width="64" version="1.1" xmlns="http://www.w3.org/2000/svg" xmlns:svg="http://www.w3.org/2000/svg">
  <defs>
    <style type="text/css" id="current-color-scheme">
      .ColorScheme-Accent {
        color: #95ccff;
      }

      .ColorScheme-Background {
        color: #28292d;
      }
    </style>
    <linearGradient id="lg1" x1="48" y1="53.334" x2="48" y2="10.667" gradientUnits="userSpaceOnUse">
      <stop stop-opacity="0.15" offset="0" />
      <stop stop-opacity="0" offset="1" />
    </linearGradient>
    <path id="folder-back" d="M 5.333,22.667 v -8 q 0,-1.533 1.2,-2.767 1.2,-1.233 2.8,-1.23 h 18.734 l 4,4 v 8 z" />
    <path id="icon"
      d="m 27.031,47.042 q -1.601,0 -2.733,-1.132 -1.132,-1.132 -1.132,-2.733 V 28.823 q 0,-1.601 1.132,-2.733 1.132,-1.132 2.733,-1.132 h 13.802 v 16.563 q -0.69,0 -1.173,0.483 -0.483,0.483 -0.483,1.173 0,0.69 0.483,1.173 0.483,0.483 1.173,0.483 v 2.208 z M 25.375,39.672 Q 25.761,39.479 26.176,39.396 26.59,39.313 27.031,39.313 h 0.552 V 27.167 H 27.031 q -0.69,0 -1.173,0.483 Q 25.375,28.133 25.375,28.823 Z M 29.792,39.313 h 8.833 V 27.167 H 29.792 Z M 25.375,39.672 V 27.167 Z m 1.656,5.162 h 10.296 q -0.166,-0.386 -0.262,-0.787 -0.097,-0.4 -0.097,-0.87 0,-0.442 0.083,-0.856 0.083,-0.414 0.276,-0.801 H 27.031 q -0.718,0 -1.187,0.483 -0.469,0.483 -0.469,1.173 0,0.718 0.469,1.187 0.469,0.469 1.187,0.469 z" />
  </defs>
  <use href="#folder-back" class="ColorScheme-Accent" fill="currentColor" />
  <use href="#folder-back" class="ColorScheme-Background" fill="currentColor" opacity="0.3" />
  <path
    d=" M 9.333,53.333 q -1.6,0 -2.8,-1.233 -1.2,-1.233 -1.2,-2.767 v -26.666 q 0,-1.533 1.2,-2.767 1.2,-1.233 2.8,-1.233 h 18.734 l 4,-4 h 22.6 q 1.533,0 2.767,1.233 1.233,1.233 1.233,2.767 v 30.667 q 0,1.533 -1.233,2.767 -1.233,1.233 -2.767,1.233 z"
    class="ColorScheme-Accent" fill="currentColor" />
  <use href="#icon" class="ColorScheme-Background" fill="currentColor" opacity="0.8" />
  <path
    d="M 9.333,53.333 q -1.6,0 -2.8,-1.233 -1.2,-1.233 -1.2,-2.767 v -34.666 q 0,-1.533 1.2,-2.767 1.2,-1.233 2.8,-1.233 h 18.734 l 4,4 h 22.6 q 1.533,0 2.767,1.233 1.233,1.233 1.233,2.767 v 30.667 q 0,1.533 -1.233,2.767 -1.233,1.233 -2.767,1.233 z"
    fill="url(#lg1)" />
</svg>