<svg viewBox="0 0 64 64" xmlns="http://www.w3.org/2000/svg">
  <defs>
    <style type="text/css" id="current-color-scheme">
      .ColorScheme-Accent {
        color: #95ccff;
      }

      .ColorScheme-Background {
        color: #1e2022;
      }
    </style>
    <path id="folder-back" d="M 5.333,53.333 V 10.667 H 28.067 l 4,4 h 26.6 v 38.667 z" />
  </defs>
  <use href="#folder-back" class="ColorScheme-Accent" fill="currentColor" />
  <use href="#folder-back" class="ColorScheme-Background" fill="currentColor" opacity="0.3" />
  <path d="M 5.333,53.333 V 18.667 H 28.067 l 4,-4 h 26.6 v 38.667 z" class="ColorScheme-Accent" fill="currentColor" />
  <path
    d="m 32,45.938 q -4.168,0 -7.053,-1.284 Q 22.063,43.371 22.063,41.521 V 30.48 q 0,-1.822 2.912,-3.119 Q 27.887,26.063 32,26.063 q 4.113,0 7.025,1.297 2.912,1.297 2.912,3.119 v 11.042 q 0,1.849 -2.885,3.133 Q 36.168,45.938 32,45.938 Z m 0,-13.222 q 2.457,0 4.941,-0.704 2.484,-0.704 2.788,-1.504 Q 39.426,29.707 36.955,28.989 34.484,28.271 32,28.271 q -2.512,0 -4.927,0.704 -2.415,0.704 -2.802,1.532 0.386,0.828 2.802,1.518 Q 29.488,32.716 32,32.716 Z m 0,5.493 q 1.159,0 2.236,-0.11 1.077,-0.11 2.057,-0.317 0.98,-0.207 1.849,-0.511 0.87,-0.304 1.587,-0.69 v -3.313 q -0.718,0.386 -1.587,0.69 -0.87,0.304 -1.849,0.511 Q 35.313,34.676 34.236,34.786 33.159,34.896 32,34.896 q -1.159,0 -2.264,-0.11 -1.104,-0.11 -2.084,-0.317 -0.98,-0.207 -1.836,-0.511 -0.856,-0.304 -1.546,-0.69 v 3.313 q 0.69,0.386 1.546,0.69 0.856,0.304 1.836,0.511 0.98,0.207 2.084,0.317 Q 30.841,38.209 32,38.209 Z m 0,5.521 q 1.27,0 2.581,-0.193 1.311,-0.193 2.415,-0.511 1.104,-0.317 1.849,-0.718 0.745,-0.4 0.883,-0.814 v -2.705 q -0.718,0.386 -1.587,0.69 -0.87,0.304 -1.849,0.511 -0.98,0.207 -2.057,0.317 Q 33.159,40.417 32,40.417 q -1.159,0 -2.264,-0.11 -1.104,-0.11 -2.084,-0.317 -0.98,-0.207 -1.836,-0.511 -0.856,-0.304 -1.546,-0.69 v 2.733 q 0.138,0.414 0.87,0.801 0.732,0.386 1.836,0.704 1.104,0.317 2.429,0.511 1.325,0.193 2.595,0.193 z"
    class="ColorScheme-Background" fill="currentColor" />
</svg>