<svg viewBox="0 0 64 64" xmlns="http://www.w3.org/2000/svg">
  <defs>
    <style type="text/css" id="current-color-scheme">
      .ColorScheme-Accent {
        color: #95ccff;
      }

      .ColorScheme-Background {
        color: #1e2022;
      }
    </style>
    <path id="folder-back" d="M 5.333,53.333 V 10.667 H 28.067 l 4,4 h 26.6 v 38.667 z" />
  </defs>
  <use href="#folder-back" class="ColorScheme-Accent" fill="currentColor" />
  <use href="#folder-back" class="ColorScheme-Background" fill="currentColor" opacity="0.3" />
  <path d="M 5.333,53.333 V 18.667 H 28.067 l 4,-4 h 26.6 v 38.667 z" class="ColorScheme-Accent" fill="currentColor" />
  <path
    d="m 32,47.042 q -2.264,0 -4.279,-0.87 -2.015,-0.87 -3.52,-2.374 -1.504,-1.504 -2.374,-3.52 -0.87,-2.015 -0.87,-4.279 0,-2.291 0.897,-4.306 0.897,-2.015 2.429,-3.506 1.532,-1.491 3.575,-2.36 2.043,-0.87 4.361,-0.87 2.208,0 4.168,0.759 1.96,0.759 3.437,2.098 1.477,1.339 2.346,3.174 0.87,1.836 0.87,3.961 0,3.174 -1.932,4.872 -1.932,1.698 -4.693,1.698 h -2.043 q -0.248,0 -0.345,0.138 -0.097,0.138 -0.097,0.304 0,0.331 0.414,0.952 0.414,0.621 0.414,1.422 0,1.38 -0.759,2.043 -0.759,0.663 -2.001,0.663 z m 0,-11.042 z m -6.073,1.104 q 0.718,0 1.187,-0.469 0.469,-0.469 0.469,-1.187 0,-0.718 -0.469,-1.187 -0.469,-0.469 -1.187,-0.469 -0.718,0 -1.187,0.469 -0.469,0.469 -0.469,1.187 0,0.718 0.469,1.187 0.469,0.469 1.187,0.469 z m 3.313,-4.417 q 0.718,0 1.187,-0.469 0.469,-0.469 0.469,-1.187 0,-0.718 -0.469,-1.187 -0.469,-0.469 -1.187,-0.469 -0.718,0 -1.187,0.469 -0.469,0.469 -0.469,1.187 0,0.718 0.469,1.187 0.469,0.469 1.187,0.469 z m 5.521,0 q 0.718,0 1.187,-0.469 0.469,-0.469 0.469,-1.187 0,-0.718 -0.469,-1.187 -0.469,-0.469 -1.187,-0.469 -0.718,0 -1.187,0.469 -0.469,0.469 -0.469,1.187 0,0.718 0.469,1.187 0.469,0.469 1.187,0.469 z m 3.313,4.417 q 0.718,0 1.187,-0.469 0.469,-0.469 0.469,-1.187 0,-0.718 -0.469,-1.187 -0.469,-0.469 -1.187,-0.469 -0.718,0 -1.187,0.469 -0.469,0.469 -0.469,1.187 0,0.718 0.469,1.187 0.469,0.469 1.187,0.469 z M 32,44.834 q 0.248,0 0.4,-0.138 0.152,-0.138 0.152,-0.359 0,-0.386 -0.414,-0.911 -0.414,-0.524 -0.414,-1.573 0,-1.159 0.801,-1.849 Q 33.325,39.313 34.484,39.313 h 1.932 q 1.822,0 3.119,-1.063 1.297,-1.063 1.297,-3.299 0,-3.34 -2.553,-5.562 -2.553,-2.222 -6.059,-2.222 -3.754,0 -6.404,2.567 -2.65,2.567 -2.65,6.266 0,3.671 2.581,6.252 2.581,2.581 6.252,2.581 z"
    class="ColorScheme-Background" fill="currentColor" />
</svg>