<svg height="64" width="64" version="1.1" xmlns="http://www.w3.org/2000/svg" xmlns:svg="http://www.w3.org/2000/svg">
  <defs>
    <style type="text/css" id="current-color-scheme">
      .ColorScheme-Accent {
        color: #95ccff;
      }

      .ColorScheme-Background {
        color: #28292d;
      }
    </style>
    <linearGradient id="lg1" x1="48" y1="53.334" x2="48" y2="10.667" gradientUnits="userSpaceOnUse">
      <stop stop-opacity="0.15" offset="0" />
      <stop stop-opacity="0" offset="1" />
    </linearGradient>
    <path id="folder-back" d="M 5.333,22.667 v -8 q 0,-1.533 1.2,-2.767 1.2,-1.233 2.8,-1.23 h 18.734 l 4,4 v 8 z" />
    <path id="icon"
      d="M 23.1,46.013 V 41.285 L 37.757,26.656 Q 38.091,26.322 38.508,26.155 38.925,25.988 39.343,25.988 q 0.445,0 0.848,0.167 Q 40.594,26.322 40.9,26.656 l 1.558,1.558 q 0.334,0.306 0.501,0.709 Q 43.125,29.326 43.125,29.771 q 0,0.417 -0.167,0.834 -0.167,0.417 -0.501,0.751 L 27.828,46.013 Z m 2.225,-2.225 h 1.558 L 37.813,32.886 37.034,32.079 36.228,31.3 25.325,42.231 Z M 40.9,29.798 39.315,28.213 Z M 37.034,32.079 36.228,31.3 37.813,32.886 Z M 34.225,46.013 q 2.058,0 3.81,-1.029 1.752,-1.029 1.752,-2.865 0,-1.001 -0.528,-1.724 -0.528,-0.723 -1.418,-1.252 l -1.641,1.641 q 0.64,0.278 1.001,0.612 0.362,0.334 0.362,0.723 0,0.64 -1.015,1.154 Q 35.532,43.788 34.225,43.788 q -0.473,0 -0.793,0.32 -0.32,0.32 -0.32,0.793 0,0.473 0.32,0.793 Q 33.752,46.013 34.225,46.013 Z m -10.485,-8.511 1.669,-1.669 q -0.556,-0.223 -0.876,-0.459 Q 24.213,35.138 24.213,34.888 q 0,-0.334 0.501,-0.668 0.501,-0.334 2.114,-1.029 2.448,-1.057 3.254,-1.919 0.807,-0.862 0.807,-1.947 0,-1.53 -1.224,-2.434 Q 28.44,25.988 26.438,25.988 q -1.252,0 -2.239,0.445 -0.987,0.445 -1.516,1.085 -0.306,0.362 -0.25,0.807 0.056,0.445 0.417,0.723 0.362,0.306 0.807,0.25 0.445,-0.056 0.751,-0.362 0.389,-0.389 0.862,-0.556 Q 25.742,28.213 26.438,28.213 q 1.14,0 1.683,0.334 0.542,0.334 0.542,0.779 0,0.389 -0.487,0.709 -0.487,0.32 -2.239,1.126 -2.225,0.973 -3.087,1.766 Q 21.988,33.72 21.988,34.888 q 0,0.89 0.473,1.516 0.473,0.626 1.279,1.099 z" />
  </defs>
  <use href="#folder-back" class="ColorScheme-Accent" fill="currentColor" />
  <use href="#folder-back" class="ColorScheme-Background" fill="currentColor" opacity="0.3" />
  <path
    d=" M 9.333,53.333 q -1.6,0 -2.8,-1.233 -1.2,-1.233 -1.2,-2.767 v -26.666 q 0,-1.533 1.2,-2.767 1.2,-1.233 2.8,-1.233 h 18.734 l 4,-4 h 22.6 q 1.533,0 2.767,1.233 1.233,1.233 1.233,2.767 v 30.667 q 0,1.533 -1.233,2.767 -1.233,1.233 -2.767,1.233 z"
    class="ColorScheme-Accent" fill="currentColor" />
  <use href="#icon" class="ColorScheme-Background" fill="currentColor" opacity="0.8" />
  <path
    d="M 9.333,53.333 q -1.6,0 -2.8,-1.233 -1.2,-1.233 -1.2,-2.767 v -34.666 q 0,-1.533 1.2,-2.767 1.2,-1.233 2.8,-1.233 h 18.734 l 4,4 h 22.6 q 1.533,0 2.767,1.233 1.233,1.233 1.233,2.767 v 30.667 q 0,1.533 -1.233,2.767 -1.233,1.233 -2.767,1.233 z"
    fill="url(#lg1)" />
</svg>