<svg viewBox="0 0 64 64" xmlns="http://www.w3.org/2000/svg">
  <defs>
    <style type="text/css" id="current-color-scheme">
      .ColorScheme-Accent {
        color: #95ccff;
      }

      .ColorScheme-Background {
        color: #1e2022;
      }
    </style>
    <path id="folder-back" d="M 5.333,53.333 V 10.667 H 28.067 l 4,4 h 26.6 v 38.667 z" />
  </defs>
  <use href="#folder-back" class="ColorScheme-Accent" fill="currentColor" />
  <use href="#folder-back" class="ColorScheme-Background" fill="currentColor" opacity="0.3" />
  <path d="M 5.333,53.333 V 18.667 H 28.067 l 4,-4 h 26.6 v 38.667 z" class="ColorScheme-Accent" fill="currentColor" />
  <path
    d="m 25.927,44.834 q -2.512,0 -4.292,-1.739 -1.78,-1.739 -1.78,-4.251 0,-2.153 1.297,-3.837 1.297,-1.684 3.395,-2.153 0.69,-2.54 2.76,-4.113 Q 29.378,27.167 32,27.167 q 3.23,0 5.479,2.25 2.25,2.25 2.25,5.479 1.905,0.221 3.161,1.642 1.256,1.422 1.256,3.326 0,2.07 -1.449,3.52 -1.449,1.449 -3.52,1.449 z m 0,-2.208 h 13.25 q 1.159,0 1.96,-0.801 0.801,-0.801 0.801,-1.96 0,-1.159 -0.801,-1.96 -0.801,-0.801 -1.96,-0.801 h -1.656 v -2.208 q 0,-2.291 -1.615,-3.906 Q 34.291,29.376 32,29.376 q -2.291,0 -3.906,1.615 -1.615,1.615 -1.615,3.906 h -0.552 q -1.601,0 -2.733,1.132 -1.132,1.132 -1.132,2.733 0,1.601 1.132,2.733 1.132,1.132 2.733,1.132 z M 32,36.001 Z"
    class="ColorScheme-Background" fill="currentColor" />
</svg>