<svg viewBox="0 0 64 64" xmlns="http://www.w3.org/2000/svg">
  <defs>
    <style type="text/css" id="current-color-scheme">
      .ColorScheme-Accent {
        color: #95ccff;
      }

      .ColorScheme-Background {
        color: #1e2022;
      }
    </style>
    <path id="folder-back" d="M 5.333,53.333 V 10.667 H 28.067 l 4,4 h 26.6 v 38.667 z" />
  </defs>
  <use href="#folder-back" class="ColorScheme-Accent" fill="currentColor" />
  <use href="#folder-back" class="ColorScheme-Background" fill="currentColor" opacity="0.3" />
  <path d="M 5.333,53.333 V 18.667 H 28.067 l 4,-4 h 26.6 v 38.667 z" class="ColorScheme-Accent" fill="currentColor" />
  <path
    d="m 27.583,42.626 h 1.656 v -2.208 h 2.208 v -1.656 h -2.208 v -2.208 h -1.656 v 2.208 H 25.375 v 1.656 h 2.208 z m 5.521,-0.828 h 5.521 v -1.656 h -5.521 z m 0,-2.76 h 5.521 v -1.656 h -5.521 z m 1.215,-4.196 1.546,-1.546 1.546,1.546 1.159,-1.159 -1.546,-1.601 1.546,-1.546 -1.159,-1.159 -1.546,1.546 -1.546,-1.546 -1.159,1.159 1.546,1.546 -1.546,1.601 z m -8.668,-1.932 h 5.521 v -1.656 H 25.651 Z M 22.063,45.938 V 26.063 H 41.938 V 45.938 Z m 2.208,-2.208 H 39.729 V 28.271 H 24.271 Z m 0,0 V 28.271 Z"
    class="ColorScheme-Background" fill="currentColor" />
</svg>