<svg height="64" width="64" version="1.1" xmlns="http://www.w3.org/2000/svg" xmlns:svg="http://www.w3.org/2000/svg">
  <defs>
    <style type="text/css" id="current-color-scheme">
      .ColorScheme-Accent {
        color: #95ccff;
      }

      .ColorScheme-Background {
        color: #28292d;
      }
    </style>
    <linearGradient id="lg1" x1="48" y1="53.334" x2="48" y2="10.667" gradientUnits="userSpaceOnUse">
      <stop stop-opacity="0.15" offset="0" />
      <stop stop-opacity="0" offset="1" />
    </linearGradient>
    <path id="folder-back" d="M 5.333,22.667 v -8 q 0,-1.533 1.2,-2.767 1.2,-1.233 2.8,-1.23 h 18.734 l 4,4 v 8 z" />
    <path id="icon"
      d="m 25.375,47.042 q -0.911,0 -1.56,-0.649 -0.649,-0.649 -0.649,-1.56 V 33.792 q 0,-0.911 0.649,-1.56 0.649,-0.649 1.56,-0.649 h 1.104 v -2.208 q 0,-2.291 1.615,-3.906 Q 29.709,23.855 32,23.855 q 2.291,0 3.906,1.615 1.615,1.615 1.615,3.906 v 2.208 h 1.104 q 0.911,0 1.56,0.649 0.649,0.649 0.649,1.56 v 11.042 q 0,0.911 -0.649,1.56 -0.649,0.649 -1.56,0.649 z m 0,-2.208 H 38.625 V 33.792 H 25.375 Z M 32,41.521 q 0.911,0 1.56,-0.649 0.649,-0.649 0.649,-1.56 0,-0.911 -0.649,-1.56 Q 32.911,37.105 32,37.105 q -0.911,0 -1.56,0.649 -0.649,0.649 -0.649,1.56 0,0.911 0.649,1.56 Q 31.089,41.521 32,41.521 Z m -3.313,-9.938 h 6.625 v -2.208 q 0,-1.38 -0.966,-2.346 Q 33.38,26.063 32,26.063 q -1.38,0 -2.346,0.966 -0.966,0.966 -0.966,2.346 z m -3.313,13.25 V 33.792 Z" />
  </defs>
  <use href="#folder-back" class="ColorScheme-Accent" fill="currentColor" />
  <use href="#folder-back" class="ColorScheme-Background" fill="currentColor" opacity="0.3" />
  <path
    d=" M 9.333,53.333 q -1.6,0 -2.8,-1.233 -1.2,-1.233 -1.2,-2.767 v -26.666 q 0,-1.533 1.2,-2.767 1.2,-1.233 2.8,-1.233 h 18.734 l 4,-4 h 22.6 q 1.533,0 2.767,1.233 1.233,1.233 1.233,2.767 v 30.667 q 0,1.533 -1.233,2.767 -1.233,1.233 -2.767,1.233 z"
    class="ColorScheme-Accent" fill="currentColor" />
  <use href="#icon" class="ColorScheme-Background" fill="currentColor" opacity="0.8" />
  <path
    d="M 9.333,53.333 q -1.6,0 -2.8,-1.233 -1.2,-1.233 -1.2,-2.767 v -34.666 q 0,-1.533 1.2,-2.767 1.2,-1.233 2.8,-1.233 h 18.734 l 4,4 h 22.6 q 1.533,0 2.767,1.233 1.233,1.233 1.233,2.767 v 30.667 q 0,1.533 -1.233,2.767 -1.233,1.233 -2.767,1.233 z"
    fill="url(#lg1)" />
</svg>