<svg height="64" width="64" version="1.1" xmlns="http://www.w3.org/2000/svg" xmlns:svg="http://www.w3.org/2000/svg">
  <defs>
    <style type="text/css" id="current-color-scheme">
      .ColorScheme-Accent {
        color: #95ccff;
      }

      .ColorScheme-Background {
        color: #28292d;
      }
    </style>
    <linearGradient id="lg1" x1="48" y1="53.334" x2="48" y2="10.667" gradientUnits="userSpaceOnUse">
      <stop stop-opacity="0.15" offset="0" />
      <stop stop-opacity="0" offset="1" />
    </linearGradient>
    <path id="folder-back" d="M 5.333,22.667 v -8 q 0,-1.533 1.2,-2.767 1.2,-1.233 2.8,-1.23 h 18.734 l 4,4 v 8 z" />
    <path id="icon"
      d="m 25.927,44.834 q -2.512,0 -4.292,-1.739 -1.78,-1.739 -1.78,-4.251 0,-2.153 1.297,-3.837 1.297,-1.684 3.395,-2.153 0.69,-2.54 2.76,-4.113 Q 29.378,27.167 32,27.167 q 3.23,0 5.479,2.25 2.25,2.25 2.25,5.479 1.905,0.221 3.161,1.642 1.256,1.422 1.256,3.326 0,2.07 -1.449,3.52 -1.449,1.449 -3.52,1.449 z m 0,-2.208 h 13.25 q 1.159,0 1.96,-0.801 0.801,-0.801 0.801,-1.96 0,-1.159 -0.801,-1.96 -0.801,-0.801 -1.96,-0.801 h -1.656 v -2.208 q 0,-2.291 -1.615,-3.906 Q 34.291,29.375 32,29.375 q -2.291,0 -3.906,1.615 -1.615,1.615 -1.615,3.906 h -0.552 q -1.601,0 -2.733,1.132 -1.132,1.132 -1.132,2.733 0,1.601 1.132,2.733 1.132,1.132 2.733,1.132 z M 32,36 Z" />
  </defs>
  <use href="#folder-back" class="ColorScheme-Accent" fill="currentColor" />
  <use href="#folder-back" class="ColorScheme-Background" fill="currentColor" opacity="0.3" />
  <path
    d=" M 9.333,53.333 q -1.6,0 -2.8,-1.233 -1.2,-1.233 -1.2,-2.767 v -26.666 q 0,-1.533 1.2,-2.767 1.2,-1.233 2.8,-1.233 h 18.734 l 4,-4 h 22.6 q 1.533,0 2.767,1.233 1.233,1.233 1.233,2.767 v 30.667 q 0,1.533 -1.233,2.767 -1.233,1.233 -2.767,1.233 z"
    class="ColorScheme-Accent" fill="currentColor" />
  <use href="#icon" class="ColorScheme-Background" fill="currentColor" opacity="0.8" />
  <path
    d="M 9.333,53.333 q -1.6,0 -2.8,-1.233 -1.2,-1.233 -1.2,-2.767 v -34.666 q 0,-1.533 1.2,-2.767 1.2,-1.233 2.8,-1.233 h 18.734 l 4,4 h 22.6 q 1.533,0 2.767,1.233 1.233,1.233 1.233,2.767 v 30.667 q 0,1.533 -1.233,2.767 -1.233,1.233 -2.767,1.233 z"
    fill="url(#lg1)" />
  <!-- <rect style="fill:#00ffff;fill-opacity:0.336;stroke-width:1" width="53.334" height="34.667" x="5.333" y="18.667" />
  <rect style="fill:#008000;fill-opacity:0.336;stroke-width:1" width="24" height="24" x="0" y="0" /> -->
</svg>