<svg viewBox="0 0 64 64" xmlns="http://www.w3.org/2000/svg">
  <defs>
    <style type="text/css" id="current-color-scheme">
      .ColorScheme-Accent {
        color: #95ccff;
      }

      .ColorScheme-Background {
        color: #1e2022;
      }
    </style>
    <path id="folder-back" d="M 5.333,53.333 V 10.667 H 28.067 l 4,4 h 26.6 v 38.667 z" />
  </defs>
  <use href="#folder-back" class="ColorScheme-Accent" fill="currentColor" />
  <use href="#folder-back" class="ColorScheme-Background" fill="currentColor" opacity="0.3" />
  <path d="M 5.333,53.333 V 18.667 H 28.067 l 4,-4 h 26.6 v 38.667 z" class="ColorScheme-Accent" fill="currentColor" />
  <path
    d="m 25.927,40.417 q 1.297,0 2.526,0.29 1.228,0.29 2.443,0.87 V 30.7 q -1.132,-0.663 -2.402,-0.994 -1.27,-0.331 -2.567,-0.331 -0.994,0 -1.974,0.193 -0.98,0.193 -1.891,0.58 v 10.931 q 0.966,-0.331 1.918,-0.497 0.952,-0.166 1.946,-0.166 z m 7.177,1.159 q 1.215,-0.58 2.443,-0.87 1.228,-0.29 2.526,-0.29 0.994,0 1.946,0.166 0.952,0.166 1.918,0.497 v -10.931 q -0.911,-0.386 -1.891,-0.58 -0.98,-0.193 -1.974,-0.193 -1.297,0 -2.567,0.331 -1.27,0.331 -2.402,0.994 z M 32,44.834 Q 30.675,43.785 29.129,43.205 27.583,42.626 25.927,42.626 q -1.463,0 -3.064,0.552 -1.601,0.552 -3.009,1.711 V 28.879 q 1.215,-0.828 2.857,-1.27 1.642,-0.442 3.216,-0.442 1.601,0 3.133,0.414 1.532,0.414 2.94,1.242 1.408,-0.828 2.94,-1.242 1.532,-0.414 3.133,-0.414 1.573,0 3.216,0.442 1.642,0.442 2.857,1.27 V 44.889 Q 42.766,43.73 41.151,43.178 39.536,42.626 38.073,42.626 q -1.656,0 -3.202,0.58 Q 33.325,43.785 32,44.834 Z M 26.479,35.476 Z m 7.729,-1.794 v -1.877 q 0.911,-0.386 1.863,-0.58 0.952,-0.193 2.001,-0.193 0.718,0 1.408,0.11 0.69,0.11 1.353,0.276 v 1.767 q -0.663,-0.248 -1.339,-0.373 -0.676,-0.124 -1.422,-0.124 -1.049,0 -2.015,0.262 -0.966,0.262 -1.849,0.732 z m 0,6.073 v -1.877 q 0.911,-0.386 1.863,-0.58 0.952,-0.193 2.001,-0.193 0.718,0 1.408,0.11 0.69,0.11 1.353,0.276 v 1.767 q -0.663,-0.248 -1.339,-0.373 -0.676,-0.124 -1.422,-0.124 -1.049,0 -2.015,0.248 -0.966,0.248 -1.849,0.745 z m 0,-3.036 v -1.877 q 0.911,-0.386 1.863,-0.58 0.952,-0.193 2.001,-0.193 0.718,0 1.408,0.11 0.69,0.11 1.353,0.276 v 1.767 q -0.663,-0.248 -1.339,-0.373 -0.676,-0.124 -1.422,-0.124 -1.049,0 -2.015,0.262 -0.966,0.262 -1.849,0.732 z"
    class="ColorScheme-Background" fill="currentColor" />
</svg>