<svg viewBox="0 0 64 64" xmlns="http://www.w3.org/2000/svg">
  <defs>
    <style type="text/css" id="current-color-scheme">
      .ColorScheme-Accent {
        color: #95ccff;
      }

      .ColorScheme-Background {
        color: #1e2022;
      }
    </style>
    <path id="folder-back" d="M 5.333,53.333 V 10.667 H 28.067 l 4,4 h 26.6 v 38.667 z" />
  </defs>
  <use href="#folder-back" class="ColorScheme-Accent" fill="currentColor" />
  <use href="#folder-back" class="ColorScheme-Background" fill="currentColor" opacity="0.3" />
  <path d="M 5.333,53.333 V 18.667 H 28.067 l 4,-4 h 26.6 v 38.667 z" class="ColorScheme-Accent" fill="currentColor" />
  <path
    d="m 27.031,47.042 q -1.601,0 -2.733,-1.132 -1.132,-1.132 -1.132,-2.733 V 28.823 q 0,-1.601 1.132,-2.733 1.132,-1.132 2.733,-1.132 h 13.802 v 16.563 q -0.69,0 -1.173,0.483 -0.483,0.483 -0.483,1.173 0,0.69 0.483,1.173 0.483,0.483 1.173,0.483 v 2.208 z M 25.375,39.672 Q 25.761,39.479 26.176,39.396 26.59,39.313 27.031,39.313 h 0.552 V 27.167 H 27.031 q -0.69,0 -1.173,0.483 Q 25.375,28.133 25.375,28.823 Z M 29.792,39.313 h 8.833 V 27.167 H 29.792 Z M 25.375,39.672 V 27.167 Z m 1.656,5.162 h 10.296 q -0.166,-0.386 -0.262,-0.787 -0.097,-0.4 -0.097,-0.87 0,-0.442 0.083,-0.856 0.083,-0.414 0.276,-0.801 H 27.031 q -0.718,0 -1.187,0.483 Q 25.375,42.487 25.375,43.178 q 0,0.718 0.469,1.187 0.469,0.469 1.187,0.469 z"
    class="ColorScheme-Background" fill="currentColor" />
</svg>