<svg height="64" width="64" version="1.1" xmlns="http://www.w3.org/2000/svg" xmlns:svg="http://www.w3.org/2000/svg">
  <defs>
    <style type="text/css" id="current-color-scheme">
      .ColorScheme-Accent {
        color: #95ccff;
      }

      .ColorScheme-Background {
        color: #28292d;
      }
    </style>
    <linearGradient id="lg1" x1="48" y1="53.334" x2="48" y2="10.667" gradientUnits="userSpaceOnUse">
      <stop stop-opacity="0.15" offset="0" />
      <stop stop-opacity="0" offset="1" />
    </linearGradient>
    <path id="folder-back" d="M 5.333,22.667 v -8 q 0,-1.533 1.2,-2.767 1.2,-1.233 2.8,-1.23 h 18.734 l 4,4 v 8 z" />
    <path id="icon"
      d="m 35.644,41.19 1.546,-1.546 -4.085,-4.085 v -5.079 h -2.208 v 5.963 z M 32,47.042 q -2.291,0 -4.306,-0.87 -2.015,-0.87 -3.506,-2.36 -1.491,-1.491 -2.36,-3.506 -0.87,-2.015 -0.87,-4.306 0,-2.291 0.87,-4.306 0.87,-2.015 2.36,-3.506 1.491,-1.491 3.506,-2.36 2.015,-0.87 4.306,-0.87 2.291,0 4.306,0.87 2.015,0.87 3.506,2.36 1.491,1.491 2.36,3.506 0.87,2.015 0.87,4.306 0,2.291 -0.87,4.306 -0.87,2.015 -2.36,3.506 -1.491,1.491 -3.506,2.36 Q 34.291,47.042 32,47.042 Z m 0,-11.042 z m 0,8.833 q 3.671,0 6.252,-2.581 2.581,-2.581 2.581,-6.252 0,-3.671 -2.581,-6.252 Q 35.671,27.167 32,27.167 q -3.671,0 -6.252,2.581 -2.581,2.581 -2.581,6.252 0,3.671 2.581,6.252 2.581,2.581 6.252,2.581 z" />
  </defs>
  <use href="#folder-back" class="ColorScheme-Accent" fill="currentColor" />
  <use href="#folder-back" class="ColorScheme-Background" fill="currentColor" opacity="0.3" />
  <path
    d=" M 9.333,53.333 q -1.6,0 -2.8,-1.233 -1.2,-1.233 -1.2,-2.767 v -26.666 q 0,-1.533 1.2,-2.767 1.2,-1.233 2.8,-1.233 h 18.734 l 4,-4 h 22.6 q 1.533,0 2.767,1.233 1.233,1.233 1.233,2.767 v 30.667 q 0,1.533 -1.233,2.767 -1.233,1.233 -2.767,1.233 z"
    class="ColorScheme-Accent" fill="currentColor" />
  <use href="#icon" class="ColorScheme-Background" fill="currentColor" opacity="0.8" />
  <path
    d="M 9.333,53.333 q -1.6,0 -2.8,-1.233 -1.2,-1.233 -1.2,-2.767 v -34.666 q 0,-1.533 1.2,-2.767 1.2,-1.233 2.8,-1.233 h 18.734 l 4,4 h 22.6 q 1.533,0 2.767,1.233 1.233,1.233 1.233,2.767 v 30.667 q 0,1.533 -1.233,2.767 -1.233,1.233 -2.767,1.233 z"
    fill="url(#lg1)" />
</svg>