<svg viewBox="0 0 64 64" xmlns="http://www.w3.org/2000/svg">
  <defs>
    <style type="text/css" id="current-color-scheme">
      .ColorScheme-Accent {
        color: #95ccff;
      }

      .ColorScheme-Background {
        color: #1e2022;
      }
    </style>
    <path id="folder-back" d="M 5.333,53.333 V 10.667 H 28.067 l 4,4 h 26.6 v 38.667 z" />
  </defs>
  <use href="#folder-back" class="ColorScheme-Accent" fill="currentColor" />
  <use href="#folder-back" class="ColorScheme-Background" fill="currentColor" opacity="0.3" />
  <path d="M 5.333,53.333 V 18.667 H 28.067 l 4,-4 h 26.6 v 38.667 z" class="ColorScheme-Accent" fill="currentColor" />
  <path
    d="M 33.507,46.885 C 32.308,46.685 30.609,45.985 29.61,45.336 27.311,43.837 25.807,42.169 24.877,40.088 24.577,39.389 24.4,38.889 23.879,37.091 c -0.1,-0.45 -0.27,-0.954 -0.332,-1.111 -0.106,-0.265 -0.11,-0.354 -0.065,-1.238 0.044,-0.799 0.2,-1.998 0.3,-2.094 0.015,-0.023 0.05,-0.029 0.077,-0.012 0.094,0.056 0.181,-0.202 0.266,-0.79 0.047,-0.322 0.12,-0.66 0.164,-0.75 0.043,-0.091 0.116,-0.291 0.162,-0.445 0.106,-0.355 0.251,-0.628 0.697,-1.316 0.197,-0.302 0.401,-0.632 0.454,-0.732 0.063,-0.118 0.131,-0.176 0.194,-0.164 0.06,0.012 0.16,-0.065 0.265,-0.202 0.454,-0.6 2.595,-2.369 2.793,-2.309 0.054,0.017 0.28,-0.058 0.502,-0.165 0.402,-0.194 0.579,-0.239 0.579,-0.147 0,0.026 -0.058,0.087 -0.129,0.134 -0.125,0.083 -0.122,0.084 0.072,0.04 0.11,-0.026 0.296,-0.062 0.413,-0.081 0.144,-0.023 0.203,-0.058 0.183,-0.108 -0.018,-0.044 0.024,-0.087 0.103,-0.107 0.197,-0.051 0.505,-0.043 0.505,0.014 0,0.067 -0.176,0.135 -0.315,0.122 -0.095,-0.009 -0.1,-7.33e-4 -0.029,0.045 0.071,0.047 0.072,0.056 0.005,0.057 -0.045,4.6e-4 -0.067,0.015 -0.048,0.032 0.018,0.017 0.137,-0.02 0.265,-0.083 0.128,-0.063 0.363,-0.141 0.521,-0.173 0.195,-0.04 0.288,-0.087 0.288,-0.144 0,-0.074 0.091,-0.081 0.702,-0.048 0.386,0.02 0.969,0.078 1.295,0.129 0.593,0.093 0.593,0.093 0.814,-0.029 0.265,-0.147 0.692,-0.166 0.803,-0.036 0.041,0.048 0.154,0.125 0.251,0.174 0.158,0.078 0.169,0.078 0.102,7.33e-4 -0.127,-0.147 -7.34e-4,-0.143 0.489,0.015 1.58,0.507 2.867,1.412 3.822,2.684 0.227,0.301 0.241,0.437 0.026,0.254 l -0.122,-0.105 0.094,0.176 c 0.051,0.097 0.094,0.205 0.094,0.242 0,0.036 0.152,0.304 0.337,0.594 0.419,0.655 0.535,0.876 0.507,0.956 -0.012,0.034 -0.197,-0.196 -0.412,-0.513 -0.214,-0.317 -0.532,-0.743 -0.705,-0.947 -0.259,-0.306 -0.327,-0.358 -0.38,-0.293 -0.035,0.044 -0.122,0.087 -0.192,0.098 l -0.128,0.018 0.126,0.238 c 0.07,0.131 0.136,0.211 0.147,0.179 0.06,-0.174 0.341,0.055 0.469,0.381 0.041,0.106 0.152,0.324 0.245,0.485 0.093,0.161 0.158,0.304 0.143,0.317 -0.014,0.014 -0.099,-0.03 -0.188,-0.098 l -0.163,-0.122 0.111,0.183 c 0.061,0.1 0.164,0.224 0.227,0.274 0.08,0.062 0.118,0.161 0.121,0.313 0.007,0.282 0.175,0.615 0.266,0.527 0.142,-0.136 0.172,-0.051 0.136,0.396 -0.026,0.33 -0.012,0.547 0.051,0.778 0.095,0.351 0.075,0.437 -0.065,0.273 -0.089,-0.104 -0.089,-0.104 -0.05,0.004 0.085,0.232 0.148,0.578 0.131,0.714 -0.033,0.254 -0.132,0.148 -0.166,-0.177 l -0.034,-0.318 -0.01,0.338 c -0.005,0.186 -0.051,0.545 -0.101,0.798 -0.051,0.255 -0.076,0.565 -0.058,0.697 0.035,0.247 0.01,0.257 -0.205,0.08 -0.088,-0.072 -0.103,-0.057 -0.163,0.157 -0.051,0.18 -0.051,0.283 0.002,0.435 0.037,0.109 0.059,0.257 0.048,0.329 -0.025,0.165 -0.163,0.217 -0.163,0.061 0,-0.196 -0.078,-0.126 -0.315,0.283 -0.642,1.105 -1.657,1.961 -2.805,2.364 -0.677,0.238 -1.132,0.326 -1.895,0.368 l -0.688,0.038 0.34,0.1 c 0.274,0.081 0.435,0.093 0.831,0.062 0.519,-0.04 1.129,-0.148 1.405,-0.249 0.11,-0.04 0.185,-0.042 0.223,-0.006 0.09,0.087 -0.708,0.425 -1.182,0.502 -0.806,0.131 -1.885,-0.01 -2.838,-0.372 -0.646,-0.245 -1.605,-0.883 -1.459,-0.97 0.028,-0.016 0.21,0.067 0.406,0.186 0.249,0.151 0.355,0.191 0.355,0.134 0,-0.108 0.037,-0.103 0.235,0.033 0.179,0.122 0.73,0.35 1.126,0.465 0.432,0.125 0.265,-0.026 -0.315,-0.286 -1.833,-0.821 -2.595,-1.641 -2.974,-3.206 -0.139,-0.574 0.01,-1.832 0.264,-2.226 0.065,-0.1 0.117,-0.223 0.117,-0.273 0,-0.218 0.379,-0.794 0.768,-1.167 0.685,-0.657 1.397,-0.93 2.321,-0.89 0.447,0.02 0.638,0.057 1.01,0.199 0.422,0.161 0.953,0.499 0.791,0.502 -0.038,7.33e-4 -0.206,-0.053 -0.373,-0.12 -0.253,-0.101 -0.416,-0.122 -0.991,-0.124 -0.807,-0.003 -1.202,0.107 -1.777,0.495 -0.815,0.55 -1.268,1.184 -1.429,1.998 -0.108,0.546 -0.111,0.697 -0.027,1.239 0.048,0.312 0.083,0.403 0.143,0.381 0.051,-0.018 0.08,0.009 0.08,0.076 0,0.194 0.439,0.978 0.743,1.329 0.732,0.844 1.916,1.383 3.04,1.383 0.583,0 1.055,-0.108 1.489,-0.34 0.175,-0.093 0.395,-0.207 0.489,-0.253 0.334,-0.162 0.54,-0.348 0.782,-0.701 0.134,-0.197 0.281,-0.357 0.325,-0.357 0.065,0 0.062,0.029 -0.015,0.151 -0.256,0.406 0.345,-0.331 0.656,-0.804 l 0.348,-0.529 -0.038,-0.348 c -0.037,-0.334 -0.032,-0.355 0.136,-0.523 0.161,-0.161 0.175,-0.21 0.194,-0.642 0.017,-0.386 0.005,-0.467 -0.066,-0.468 -0.066,-3.8e-4 -0.095,-0.102 -0.123,-0.441 -0.037,-0.451 -0.417,-1.957 -0.505,-2.01 -0.026,-0.015 -0.1,-0.161 -0.164,-0.322 -0.216,-0.544 -0.593,-1.067 -1.183,-1.637 -0.848,-0.821 -1.915,-1.454 -2.925,-1.734 -0.858,-0.239 -2.315,-0.153 -3.353,0.199 -0.507,0.172 -1.005,0.399 -1.09,0.496 -0.038,0.045 -0.094,0.066 -0.123,0.049 -0.032,-0.018 -0.023,-0.068 0.021,-0.117 0.191,-0.221 -0.444,0.183 -0.852,0.543 -0.247,0.218 -0.458,0.403 -0.469,0.411 -0.011,0.008 0.037,3.8e-4 0.107,-0.017 0.116,-0.029 0.121,-0.021 0.058,0.092 -0.041,0.072 -0.251,0.202 -0.508,0.314 -0.433,0.188 -0.713,0.395 -0.935,0.692 -0.089,0.118 -0.094,0.144 -0.024,0.118 0.049,-0.018 0.089,-0.007 0.089,0.025 0,0.157 -0.149,0.332 -0.369,0.435 -0.488,0.228 -1.346,1.444 -1.805,2.559 -0.205,0.497 -0.202,0.48 -0.09,0.48 0.117,0 0.109,0.128 -0.052,0.815 -0.235,1 -0.235,0.969 0.021,2.376 0.312,1.715 0.494,2.287 0.84,2.642 0.081,0.084 0.16,0.26 0.195,0.439 0.042,0.213 0.112,0.353 0.244,0.486 0.12,0.122 0.161,0.197 0.114,0.213 -0.091,0.032 0.193,0.438 0.452,0.647 0.131,0.105 0.227,0.141 0.331,0.121 0.23,-0.042 0.463,0.084 0.821,0.446 0.373,0.375 0.41,0.476 0.164,0.441 -0.159,-0.023 -0.163,-0.018 -0.084,0.096 0.045,0.066 0.211,0.224 0.369,0.352 0.222,0.18 0.279,0.257 0.251,0.342 -0.04,0.121 0.074,0.234 0.333,0.329 0.161,0.059 0.212,0.186 0.091,0.224 -0.037,0.012 0.189,0.235 0.502,0.496 0.352,0.294 0.589,0.455 0.623,0.423 0.089,-0.083 0.203,-0.058 0.205,0.045 0.002,0.113 0.103,0.231 0.467,0.546 0.23,0.199 0.287,0.224 0.428,0.187 0.129,-0.034 0.21,-0.012 0.392,0.106 0.363,0.235 0.583,0.329 0.771,0.329 0.186,0 0.212,0.051 0.115,0.224 -0.051,0.092 -0.04,0.106 0.077,0.106 0.075,0 0.286,0.049 0.469,0.11 0.417,0.138 0.59,0.147 0.486,0.026 -0.154,-0.178 0.009,-0.13 0.56,0.167 0.77,0.414 1.16,0.462 2.694,0.327 0.227,-0.02 0.301,-0.008 0.301,0.048 0,0.048 -0.197,0.12 -0.559,0.203 -0.476,0.111 -0.73,0.132 -1.705,0.144 -0.769,0.009 -1.294,-0.011 -1.595,-0.061 z m -0.784,-8.246 c 0,-0.012 -0.071,-0.062 -0.158,-0.113 l -0.158,-0.092 0.136,0.113 c 0.132,0.111 0.18,0.135 0.18,0.092 z m 7.891,-5.765 c -0.018,-0.044 -0.032,-0.031 -0.034,0.033 -0.003,0.058 0.011,0.09 0.03,0.072 0.019,-0.018 0.021,-0.066 0.004,-0.106 z M 27.608,27.104 c 0.071,-0.087 0.069,-0.089 -0.022,-0.021 -0.055,0.042 -0.1,0.085 -0.1,0.096 0,0.045 0.047,0.016 0.122,-0.076 z m 0.652,-0.509 c 0.057,-0.06 0.091,-0.11 0.075,-0.11 -0.016,0 -0.076,0.049 -0.133,0.11 -0.057,0.061 -0.091,0.11 -0.075,0.11 0.016,0 0.076,-0.049 0.133,-0.11 z m 0.722,-0.386 c 0.188,-0.062 0.296,-0.073 0.336,-0.034 0.04,0.038 0.188,0.015 0.463,-0.071 0.222,-0.07 0.395,-0.137 0.381,-0.149 -0.012,-0.012 -0.195,0.033 -0.406,0.101 -0.29,0.093 -0.395,0.106 -0.428,0.056 -0.054,-0.085 -0.576,0.082 -0.8,0.257 l -0.153,0.12 0.164,-0.095 c 0.091,-0.052 0.29,-0.135 0.443,-0.185 z m 1.652,-0.139 c 0.166,-0.048 0.293,-0.096 0.281,-0.107 -0.027,-0.026 -0.62,0.137 -0.62,0.17 0,0.033 0.005,0.032 0.339,-0.063 z m 0.95,-0.3 0.23,-0.04 -0.201,-0.005 c -0.11,-0.003 -0.265,0.033 -0.344,0.079 -0.092,0.055 -0.103,0.07 -0.029,0.045 0.063,-0.021 0.218,-0.057 0.344,-0.079 z m 0.455,-0.104 c 0.018,-0.027 -0.02,-0.037 -0.083,-0.021 -0.134,0.034 -0.151,0.071 -0.032,0.071 0.045,0 0.097,-0.023 0.114,-0.05 z m 1.851,0.017 c -0.019,-0.018 -0.068,-0.021 -0.11,-0.004 -0.045,0.018 -0.032,0.031 0.034,0.033 0.06,0.002 0.094,-0.01 0.076,-0.029 z m -0.343,-0.06 c -0.055,-0.014 -0.145,-0.014 -0.201,0 -0.055,0.014 -0.01,0.025 0.1,0.025 0.11,0 0.155,-0.011 0.1,-0.025 z m -0.572,-0.057 c -0.117,-0.012 -0.323,-0.012 -0.458,-3.59e-4 -0.135,0.012 -0.039,0.021 0.213,0.021 0.252,1.99e-4 0.362,-0.009 0.245,-0.021 z m -0.748,-0.048 c -0.019,-0.018 -0.068,-0.021 -0.11,-0.004 -0.045,0.018 -0.032,0.031 0.034,0.033 0.06,0.002 0.094,-0.01 0.076,-0.029 z m -0.387,13.222 c -0.584,-0.401 -0.8,-0.609 -0.8,-0.768 0,-0.084 0.02,-0.153 0.044,-0.153 0.083,0 1.059,0.978 1.038,1.039 -0.012,0.036 -0.13,-0.014 -0.282,-0.118 z M 31.539,37.72 c -0.303,-0.294 -0.4,-0.452 -0.278,-0.452 0.073,0 0.638,0.62 0.638,0.701 0,0.038 -0.007,0.069 -0.016,0.069 -0.009,0 -0.164,-0.143 -0.344,-0.318 z m 3.355,-1.203 c -0.16,-0.062 -0.06,-0.177 0.201,-0.23 0.15,-0.031 0.388,-0.106 0.529,-0.166 0.141,-0.061 0.267,-0.1 0.279,-0.089 0.012,0.012 -0.051,0.134 -0.142,0.271 -0.164,0.249 -0.166,0.25 -0.48,0.246 -0.173,-0.002 -0.348,-0.017 -0.387,-0.032 z m 1.72,-1.231 c -0.155,-0.059 -0.161,-0.161 -0.032,-0.507 0.111,-0.297 0.226,-0.356 0.162,-0.083 -0.023,0.098 -0.054,0.241 -0.068,0.316 l -0.026,0.138 0.114,-0.125 c 0.067,-0.074 0.131,-0.248 0.154,-0.425 0.021,-0.165 0.062,-0.287 0.09,-0.271 0.071,0.042 0.063,0.477 -0.013,0.769 -0.067,0.255 -0.128,0.285 -0.38,0.188 z M 23.049,34.595 c -0.019,-0.048 -0.034,-0.235 -0.034,-0.417 0,-0.239 0.02,-0.323 0.072,-0.307 0.085,0.027 0.135,0.812 0.051,0.812 -0.029,0 -0.07,-0.039 -0.089,-0.087 z m 13.789,-1.287 c -0.089,-0.116 -0.117,-0.207 -0.091,-0.304 0.052,-0.198 0.188,-0.17 0.287,0.059 0.155,0.358 0.021,0.525 -0.197,0.243 z M 23.037,32.435 c -0.004,-0.312 -3.1e-5,-0.321 0.144,-0.316 0.122,0.004 0.152,0.035 0.166,0.173 0.016,0.155 -0.161,0.465 -0.265,0.465 -0.022,0 -0.042,-0.144 -0.044,-0.322 z m 14.858,-6.762 c 0.008,-0.492 0.095,-0.659 0.162,-0.315 0.047,0.24 -0.012,0.664 -0.103,0.737 -0.049,0.04 -0.065,-0.068 -0.058,-0.422 z m -7.532,-0.296 c 0.023,-0.066 0.814,-0.377 0.96,-0.377 0.172,0 -0.136,0.202 -0.491,0.322 -0.395,0.133 -0.501,0.146 -0.469,0.055 z"
    class="ColorScheme-Background" fill="currentColor" />
</svg>