<svg viewBox="0 0 64 64" xmlns="http://www.w3.org/2000/svg">
  <defs>
    <style type="text/css" id="current-color-scheme">
      .ColorScheme-Accent {
        color: #95ccff;
      }

      .ColorScheme-Background {
        color: #1e2022;
      }
    </style>
    <path id="folder-back" d="M 5.333,53.333 V 10.667 H 28.067 l 4,4 h 26.6 v 38.667 z" />
  </defs>
  <use href="#folder-back" class="ColorScheme-Accent" fill="currentColor" />
  <use href="#folder-back" class="ColorScheme-Background" fill="currentColor" opacity="0.3" />
  <path d="M 5.333,53.333 V 18.667 H 28.067 l 4,-4 h 26.6 v 38.667 z" class="ColorScheme-Accent" fill="currentColor" />
  <path
    d="m 27.031,29.375 q -0.69,0 -1.173,0.483 -0.483,0.483 -0.483,1.173 0,0.69 0.483,1.173 0.483,0.483 1.173,0.483 0.69,0 1.173,-0.483 0.483,-0.483 0.483,-1.173 0,-0.69 -0.483,-1.173 -0.483,-0.483 -1.173,-0.483 z m 0,11.042 q -0.69,0 -1.173,0.483 -0.483,0.483 -0.483,1.173 0,0.69 0.483,1.173 0.483,0.483 1.173,0.483 0.69,0 1.173,-0.483 0.483,-0.483 0.483,-1.173 0,-0.69 -0.483,-1.173 -0.483,-0.483 -1.173,-0.483 z M 22.063,36 v -9.938 h 19.875 v 9.938 z m 2.208,-7.729 v 5.521 H 39.729 V 28.271 Z M 22.063,47.042 v -9.938 h 19.875 v 9.938 z M 24.271,39.313 v 5.521 H 39.729 V 39.313 Z m 0,-11.042 v 5.521 z m 0,11.042 v 5.521 z"
    class="ColorScheme-Background" fill="currentColor" />
</svg>