<svg height="64" width="64" version="1.1" xmlns="http://www.w3.org/2000/svg" xmlns:svg="http://www.w3.org/2000/svg">
  <defs>
    <style type="text/css" id="current-color-scheme">
      .ColorScheme-Accent {
        color: #95ccff;
      }

      .ColorScheme-Background {
        color: #28292d;
      }
    </style>
    <linearGradient id="lg1" x1="48" y1="53.334" x2="48" y2="10.667" gradientUnits="userSpaceOnUse">
      <stop stop-opacity="0.15" offset="0" />
      <stop stop-opacity="0" offset="1" />
    </linearGradient>
    <path id="folder-back" d="M 5.333,22.667 v -8 q 0,-1.533 1.2,-2.767 1.2,-1.233 2.8,-1.23 h 18.734 l 4,4 v 8 z" />
    <path id="icon"
      d="m 27.031,29.375 q -0.69,0 -1.173,0.483 -0.483,0.483 -0.483,1.173 0,0.69 0.483,1.173 0.483,0.483 1.173,0.483 0.69,0 1.173,-0.483 0.483,-0.483 0.483,-1.173 0,-0.69 -0.483,-1.173 -0.483,-0.483 -1.173,-0.483 z m 0,11.042 q -0.69,0 -1.173,0.483 -0.483,0.483 -0.483,1.173 0,0.69 0.483,1.173 0.483,0.483 1.173,0.483 0.69,0 1.173,-0.483 0.483,-0.483 0.483,-1.173 0,-0.69 -0.483,-1.173 -0.483,-0.483 -1.173,-0.483 z M 23.167,26.063 h 17.667 q 0.469,0 0.787,0.317 0.317,0.317 0.317,0.787 v 7.729 q 0,0.469 -0.317,0.787 -0.317,0.317 -0.787,0.317 H 23.167 q -0.469,0 -0.787,-0.317 Q 22.063,35.366 22.063,34.896 v -7.729 q 0,-0.469 0.317,-0.787 0.317,-0.317 0.787,-0.317 z m 1.104,2.208 v 5.521 h 15.458 v -5.521 z m -1.104,8.833 h 17.667 q 0.469,0 0.787,0.317 0.317,0.317 0.317,0.787 V 45.938 q 0,0.469 -0.317,0.787 -0.317,0.317 -0.787,0.317 H 23.167 q -0.469,0 -0.787,-0.317 Q 22.063,46.407 22.063,45.938 v -7.729 q 0,-0.469 0.317,-0.787 0.317,-0.317 0.787,-0.317 z M 24.271,39.313 v 5.521 H 39.729 V 39.313 Z m 0,-11.042 v 5.521 z m 0,11.042 v 5.521 z" />
  </defs>
  <use href="#folder-back" class="ColorScheme-Accent" fill="currentColor" />
  <use href="#folder-back" class="ColorScheme-Background" fill="currentColor" opacity="0.3" />
  <path
    d=" M 9.333,53.333 q -1.6,0 -2.8,-1.233 -1.2,-1.233 -1.2,-2.767 v -26.666 q 0,-1.533 1.2,-2.767 1.2,-1.233 2.8,-1.233 h 18.734 l 4,-4 h 22.6 q 1.533,0 2.767,1.233 1.233,1.233 1.233,2.767 v 30.667 q 0,1.533 -1.233,2.767 -1.233,1.233 -2.767,1.233 z"
    class="ColorScheme-Accent" fill="currentColor" />
  <use href="#icon" class="ColorScheme-Background" fill="currentColor" opacity="0.8" />
  <path
    d="M 9.333,53.333 q -1.6,0 -2.8,-1.233 -1.2,-1.233 -1.2,-2.767 v -34.666 q 0,-1.533 1.2,-2.767 1.2,-1.233 2.8,-1.233 h 18.734 l 4,4 h 22.6 q 1.533,0 2.767,1.233 1.233,1.233 1.233,2.767 v 30.667 q 0,1.533 -1.233,2.767 -1.233,1.233 -2.767,1.233 z"
    fill="url(#lg1)" />
</svg>