<svg viewBox="0 0 64 64" xmlns="http://www.w3.org/2000/svg" xmlns:svg="http://www.w3.org/2000/svg">
  <style type="text/css" id="current-color-scheme">
    .ColorScheme-Text {
      color: #e2e2e5;
    }
  </style>
  <path
    d="M 37.74,44.692 32.334,30.993 24.41,43.479 H 19.442 L 30.509,25.607 29.267,22.075 H 24.957 V 17.867 H 32.334 l 8.473,21.546 3.725,-1.214 1.241,4.174 z"
    class="ColorScheme-Text" fill="currentColor" />
  <path
    d="M 31.975,7.947 C 18.709,7.947 7.904,18.752 7.904,32.018 c 0,13.267 10.805,24.071 24.071,24.071 13.266,0 24.071,-10.804 24.071,-24.071 C 56.046,18.752 45.241,7.947 31.975,7.947 Z m 0,4.76 c 10.694,0 19.311,8.617 19.311,19.311 0,10.695 -8.617,19.311 -19.311,19.311 C 21.281,51.328 12.664,42.713 12.664,32.018 12.664,21.324 21.281,12.707 31.975,12.707 Z"
    class="ColorScheme-Text" fill="currentColor" />
</svg>