<svg viewBox="0 0 64 64" xmlns="http://www.w3.org/2000/svg">
  <defs>
    <style type="text/css" id="current-color-scheme">
      .ColorScheme-Text {
        color: #e2e2e5;
      }

      .ColorScheme-Background {
        color: #1e2022;
      }
    </style>
    <path id="background"
      d="M 23.133 8 L 23.133 10 L 10.533 10 L 10.533 14 L 13.4 14 L 13.4 56 L 29.867 56 L 29.906 55.941 A 18.56 18.56 0 0 1 26.008 44.633 A 18.56 18.56 0 0 1 44.566 26.072 A 18.56 18.56 0 0 1 49.4 26.719 L 49.4 14 L 52.268 14 L 52.268 10 L 39.666 10 L 39.666 8 L 23.133 8 z" />
    <path id="icon"
      d="M 17.4,14 V 52 Z M 29.867,56 H 13.4 V 14 H 10.533 V 10 h 12.6 v -2 h 16.533 v 2 H 52.267 V 14 H 49.4 v 12.733 q -0.933,-0.267 -2,-0.467 -1.067,-0.2 -2,-0.267 V 14 H 17.4 v 38 h 10.467 q 0.267,0.733 0.867,1.933 0.6,1.2 1.133,2.067 z M 24,46.267 h 2 q 0,-5.2 1,-7.667 l 1,-2.467 V 19.667 H 24 Z M 34.867,28.8 q 0.8,-0.533 1.933,-1.033 1.133,-0.5 2.067,-0.833 v -7.267 h -4 z m 9.666,29.933 q -5.866,0 -9.966,-4.134 -4.1,-4.135 -4.1,-10 0,-5.866 4.115,-9.966 4.114,-4.1 9.952,-4.1 5.865,0 9.999,4.115 4.134,4.114 4.134,9.952 0,5.865 -4.134,9.999 -4.135,4.134 -10,4.134 z m 4.334,-7.8 1.867,-1.867 L 45.8,44.133 v -7.467 h -2.667 v 8.533 z" />
  </defs>
  <use href="#background" class="ColorScheme-Background" fill="currentColor" />
  <use href="#background" class="ColorScheme-Text" fill="currentColor" opacity="0.33" />
  <use href="#icon" class="ColorScheme-Background" fill="currentColor" />
  <use href="#icon" class="ColorScheme-Text" fill="currentColor" opacity="0.66" />
</svg>