<svg height="16" width="16" xmlns="http://www.w3.org/2000/svg">
  <defs>
    <style type="text/css" id="current-color-scheme">
      .ColorScheme-Accent {
        color: #95ccff;
      }

      .ColorScheme-Background {
        color: #1e2022;
      }
    </style>
    <path id="icon"
      d="M 7.333,11.333 H 8.667 V 7.333 H 7.333 Z M 8,6 Q 8.283,6 8.475,5.808 8.667,5.617 8.667,5.333 8.667,5.05 8.475,4.858 8.283,4.667 8,4.667 q -0.283,0 -0.475,0.192 -0.192,0.192 -0.192,0.475 0,0.283 0.192,0.475 Q 7.717,6 8,6 Z m 0,8.667 q -1.383,0 -2.6,-0.525 -1.217,-0.525 -2.117,-1.425 -0.9,-0.9 -1.425,-2.117 -0.525,-1.217 -0.525,-2.6 0,-1.383 0.525,-2.6 0.525,-1.217 1.425,-2.117 0.9,-0.9 2.117,-1.425 1.217,-0.525 2.6,-0.525 1.383,0 2.6,0.525 1.217,0.525 2.117,1.425 0.9,0.9 1.425,2.117 0.525,1.217 0.525,2.6 0,1.383 -0.525,2.6 -0.525,1.217 -1.425,2.117 -0.9,0.9 -2.117,1.425 -1.217,0.525 -2.6,0.525 z m 0,-1.333 q 2.233,0 3.783,-1.55 1.55,-1.55 1.55,-3.783 0,-2.233 -1.55,-3.783 -1.55,-1.55 -3.783,-1.55 -2.233,0 -3.783,1.55 -1.55,1.55 -1.55,3.783 0,2.233 1.55,3.783 1.55,1.55 3.783,1.55 z M 8,8 Z" />
  </defs>
  <use href="#icon" class="ColorScheme-Background" stroke="currentColor" stroke-width="0.8" />
  <use href="#icon" class="ColorScheme-Accent" fill="currentColor" />
</svg>