<svg height="16" width="16" version="1.1" xmlns="http://www.w3.org/2000/svg">
  <style type="text/css" id="current-color-scheme">
    .ColorScheme-NeutralText {
      color: #f9bd00;
    }

    .ColorScheme-Background {
      color: #28292d;
    }
  </style>
  <rect width="16" height="16" opacity="0" />
  <path
    d="M 4.4,5.6 H 10 V 4 q 0,-0.833 -0.583,-1.417 Q 8.833,2 8,2 7.167,2 6.583,2.583 6,3.167 6,4 H 4.8 q 0,-1.333 0.937,-2.267 Q 6.674,0.8 8.004,0.8 q 1.329,0 2.263,0.936 0.933,0.936 0.933,2.264 v 1.6 h 0.4 q 0.495,0 0.848,0.352 0.353,0.353 0.353,0.848 v 6.4 q 0,0.495 -0.353,0.848 -0.353,0.353 -0.848,0.353 H 4.395 q -0.495,0 -0.845,-0.353 Q 3.2,13.695 3.2,13.2 V 6.8 q 0,-0.495 0.352,-0.848 0.352,-0.352 0.847,-0.352 z m 0,7.6 H 11.6 V 6.8 H 4.4 Z m 3.603,-2 q 0.497,0 0.847,-0.354 0.35,-0.354 0.35,-0.85 0,-0.497 -0.354,-0.847 -0.354,-0.35 -0.85,-0.35 -0.496,0 -0.846,0.354 -0.35,0.354 -0.35,0.85 0,0.497 0.354,0.847 0.353,0.35 0.85,0.35 z m -3.603,2 V 6.8 Z"
    class="ColorScheme-Background" stroke-width="1" stroke="currentColor" />
  <path
    d="M 4.4,5.6 H 10 V 4 q 0,-0.833 -0.583,-1.417 Q 8.833,2 8,2 7.167,2 6.583,2.583 6,3.167 6,4 H 4.8 q 0,-1.333 0.937,-2.267 Q 6.674,0.8 8.004,0.8 q 1.329,0 2.263,0.936 0.933,0.936 0.933,2.264 v 1.6 h 0.4 q 0.495,0 0.848,0.352 0.353,0.353 0.353,0.848 v 6.4 q 0,0.495 -0.353,0.848 -0.353,0.353 -0.848,0.353 H 4.395 q -0.495,0 -0.845,-0.353 Q 3.2,13.695 3.2,13.2 V 6.8 q 0,-0.495 0.352,-0.848 0.352,-0.352 0.847,-0.352 z m 0,7.6 H 11.6 V 6.8 H 4.4 Z m 3.603,-2 q 0.497,0 0.847,-0.354 0.35,-0.354 0.35,-0.85 0,-0.497 -0.354,-0.847 -0.354,-0.35 -0.85,-0.35 -0.496,0 -0.846,0.354 -0.35,0.354 -0.35,0.85 0,0.497 0.354,0.847 0.353,0.35 0.85,0.35 z m -3.603,2 V 6.8 Z"
    class="ColorScheme-NeutralText" fill="currentColor" />
</svg>