<svg height="16" width="16" xmlns="http://www.w3.org/2000/svg">
  <style type="text/css" id="current-color-scheme">
    .ColorScheme-Accent {
      color: #95ccff;
    }

    .ColorScheme-Background {
      color: #28292d;
    }
  </style>
  <rect width="16" height="16" opacity="0" />
  <path
    d="m 10.8,14.4 q -0.833,0 -1.417,-0.583 -0.583,-0.583 -0.583,-1.417 0,-0.15 0.067,-0.483 L 4.917,9.5 Q 4.65,9.733 4.316,9.867 3.982,10 3.6,10 q -0.833,0 -1.417,-0.583 Q 1.6,8.833 1.6,8 1.6,7.167 2.183,6.583 2.767,6 3.6,6 q 0.383,0 0.717,0.133 0.333,0.133 0.6,0.367 L 8.867,4.083 q -0.033,-0.117 -0.05,-0.23 -0.017,-0.114 -0.017,-0.253 0,-0.833 0.583,-1.417 Q 9.967,1.6 10.8,1.6 q 0.833,0 1.417,0.583 0.583,0.583 0.583,1.417 0,0.833 -0.583,1.417 -0.583,0.583 -1.417,0.583 -0.383,0 -0.717,-0.133 Q 9.75,5.333 9.483,5.1 L 5.533,7.517 q 0.033,0.117 0.05,0.23 0.017,0.114 0.017,0.253 0,0.14 -0.017,0.253 -0.017,0.114 -0.05,0.23 l 3.95,2.417 q 0.267,-0.233 0.601,-0.367 0.334,-0.133 0.716,-0.133 0.833,0 1.417,0.583 0.583,0.583 0.583,1.417 0,0.833 -0.583,1.417 -0.583,0.583 -1.417,0.583 z m 0,-1.2 q 0.34,0 0.57,-0.23 0.23,-0.23 0.23,-0.57 0,-0.34 -0.23,-0.57 -0.23,-0.23 -0.57,-0.23 -0.34,0 -0.57,0.23 -0.23,0.23 -0.23,0.57 0,0.34 0.23,0.57 0.23,0.23 0.57,0.23 z M 3.6,8.8 q 0.34,0 0.57,-0.23 0.23,-0.23 0.23,-0.57 0,-0.34 -0.23,-0.57 -0.23,-0.23 -0.57,-0.23 -0.34,0 -0.57,0.23 -0.23,0.23 -0.23,0.57 0,0.34 0.23,0.57 0.23,0.23 0.57,0.23 z M 10.8,4.4 q 0.34,0 0.57,-0.23 0.23,-0.23 0.23,-0.57 0,-0.34 -0.23,-0.57 -0.23,-0.23 -0.57,-0.23 -0.34,0 -0.57,0.23 -0.23,0.23 -0.23,0.57 0,0.34 0.23,0.57 0.23,0.23 0.57,0.23 z m 0,8 z M 3.6,8 Z M 10.8,3.6 Z"
    class="ColorScheme-Background" stroke-width="1" stroke="currentColor" />
  <path
    d="m 10.8,14.4 q -0.833,0 -1.417,-0.583 -0.583,-0.583 -0.583,-1.417 0,-0.15 0.067,-0.483 L 4.917,9.5 Q 4.65,9.733 4.316,9.867 3.982,10 3.6,10 q -0.833,0 -1.417,-0.583 Q 1.6,8.833 1.6,8 1.6,7.167 2.183,6.583 2.767,6 3.6,6 q 0.383,0 0.717,0.133 0.333,0.133 0.6,0.367 L 8.867,4.083 q -0.033,-0.117 -0.05,-0.23 -0.017,-0.114 -0.017,-0.253 0,-0.833 0.583,-1.417 Q 9.967,1.6 10.8,1.6 q 0.833,0 1.417,0.583 0.583,0.583 0.583,1.417 0,0.833 -0.583,1.417 -0.583,0.583 -1.417,0.583 -0.383,0 -0.717,-0.133 Q 9.75,5.333 9.483,5.1 L 5.533,7.517 q 0.033,0.117 0.05,0.23 0.017,0.114 0.017,0.253 0,0.14 -0.017,0.253 -0.017,0.114 -0.05,0.23 l 3.95,2.417 q 0.267,-0.233 0.601,-0.367 0.334,-0.133 0.716,-0.133 0.833,0 1.417,0.583 0.583,0.583 0.583,1.417 0,0.833 -0.583,1.417 -0.583,0.583 -1.417,0.583 z m 0,-1.2 q 0.34,0 0.57,-0.23 0.23,-0.23 0.23,-0.57 0,-0.34 -0.23,-0.57 -0.23,-0.23 -0.57,-0.23 -0.34,0 -0.57,0.23 -0.23,0.23 -0.23,0.57 0,0.34 0.23,0.57 0.23,0.23 0.57,0.23 z M 3.6,8.8 q 0.34,0 0.57,-0.23 0.23,-0.23 0.23,-0.57 0,-0.34 -0.23,-0.57 -0.23,-0.23 -0.57,-0.23 -0.34,0 -0.57,0.23 -0.23,0.23 -0.23,0.57 0,0.34 0.23,0.57 0.23,0.23 0.57,0.23 z M 10.8,4.4 q 0.34,0 0.57,-0.23 0.23,-0.23 0.23,-0.57 0,-0.34 -0.23,-0.57 -0.23,-0.23 -0.57,-0.23 -0.34,0 -0.57,0.23 -0.23,0.23 -0.23,0.57 0,0.34 0.23,0.57 0.23,0.23 0.57,0.23 z m 0,8 z M 3.6,8 Z M 10.8,3.6 Z"
    class="ColorScheme-Accent" fill="currentColor" />
</svg>