<svg height="16" width="16" version="1.1" xmlns="http://www.w3.org/2000/svg">
  <defs>
    <style type="text/css" id="current-color-scheme">
      .ColorScheme-NeutralText {
        color: #f9bd00;
      }

      .ColorScheme-Background {
        color: #1e2022;
      }
    </style>
    <path id="icon"
      d="M 2.667,14.667 V 5.333 H 10 V 4 Q 10,3.167 9.417,2.583 8.833,2 8,2 7.167,2 6.583,2.583 6,3.167 6,4 H 4.667 q 0,-1.383 0.975,-2.358 Q 6.617,0.667 8,0.667 q 1.383,0 2.358,0.975 0.975,0.975 0.975,2.358 v 1.333 h 2 V 14.667 Z M 4,13.333 h 8 V 6.667 H 4 Z m 4,-2 q 0.55,0 0.942,-0.392 Q 9.333,10.55 9.333,10 q 0,-0.55 -0.392,-0.942 Q 8.55,8.667 8,8.667 q -0.55,0 -0.942,0.392 Q 6.667,9.45 6.667,10 q 0,0.55 0.392,0.942 Q 7.45,11.333 8,11.333 Z m -4,2 V 6.667 Z" />
  </defs>
  <use href="#icon" class="ColorScheme-Background" stroke="currentColor" stroke-width="0.8" />
  <use href="#icon" class="ColorScheme-NeutralText" fill="currentColor" />
</svg>