<svg height="16" width="16" xmlns="http://www.w3.org/2000/svg">
  <defs>
    <style type="text/css" id="current-color-scheme">
      .ColorScheme-Accent {
        color: #95ccff;
      }

      .ColorScheme-Background {
        color: #1e2022;
      }
    </style>
    <path id="icon"
      d="M 11.333,14.667 Q 10.5,14.667 9.917,14.083 9.333,13.5 9.333,12.667 q 0,-0.1 0.05,-0.467 L 4.7,9.467 q -0.267,0.25 -0.617,0.392 Q 3.733,10 3.333,10 2.5,10 1.917,9.417 1.333,8.833 1.333,8 q 0,-0.833 0.583,-1.417 Q 2.5,6 3.333,6 q 0.4,0 0.75,0.142 0.35,0.142 0.617,0.392 L 9.383,3.8 Q 9.35,3.683 9.342,3.575 9.333,3.467 9.333,3.333 9.333,2.5 9.917,1.917 10.5,1.333 11.333,1.333 q 0.833,0 1.417,0.583 Q 13.333,2.5 13.333,3.333 13.333,4.167 12.75,4.75 q -0.583,0.583 -1.417,0.583 -0.4,0 -0.75,-0.142 Q 10.233,5.05 9.967,4.8 L 5.283,7.533 Q 5.317,7.65 5.325,7.758 5.333,7.867 5.333,8 q 0,0.133 -0.008,0.242 -0.008,0.108 -0.042,0.225 L 9.967,11.2 q 0.267,-0.25 0.617,-0.392 0.35,-0.142 0.75,-0.142 0.833,0 1.417,0.583 0.583,0.583 0.583,1.417 0,0.833 -0.583,1.417 -0.583,0.583 -1.417,0.583 z m 0,-1.333 q 0.283,0 0.475,-0.192 Q 12,12.95 12,12.667 12,12.383 11.808,12.192 11.617,12 11.333,12 q -0.283,0 -0.475,0.192 -0.192,0.192 -0.192,0.475 0,0.283 0.192,0.475 0.192,0.192 0.475,0.192 z M 3.333,8.667 q 0.283,0 0.475,-0.192 Q 4,8.283 4,8 4,7.717 3.808,7.525 3.617,7.333 3.333,7.333 3.05,7.333 2.858,7.525 2.667,7.717 2.667,8 q 0,0.283 0.192,0.475 Q 3.05,8.667 3.333,8.667 Z M 11.333,4 q 0.283,0 0.475,-0.192 Q 12,3.617 12,3.333 12,3.05 11.808,2.858 q -0.192,-0.192 -0.475,-0.192 -0.283,0 -0.475,0.192 Q 10.667,3.05 10.667,3.333 q 0,0.283 0.192,0.475 Q 11.05,4 11.333,4 Z m 0,8.667 z M 3.333,8 Z M 11.333,3.333 Z" />
  </defs>
  <use href="#icon" class="ColorScheme-Background" stroke="currentColor" stroke-width="1.4" />
  <use href="#icon" class="ColorScheme-Accent" fill="currentColor" />
</svg>