<svg height="16" width="16" xmlns="http://www.w3.org/2000/svg">
  <style type="text/css" id="current-color-scheme">
    .ColorScheme-Text {
      color: #e2e2e5;
    }

    .ColorScheme-Background {
      color: #28292d;
    }
  </style>
  <rect width="16" height="16" opacity="0" />
  <path
    d="m 7.133,10 q 0,-1.2 0.242,-1.792 0.242,-0.592 1.008,-1.258 0.717,-0.617 0.967,-0.992 0.25,-0.375 0.25,-0.842 0,-0.633 -0.45,-1.042 -0.45,-0.408 -1.15,-0.408 -0.617,0 -1.083,0.383 Q 6.45,4.433 6.25,5.1 L 4.65,4.433 Q 5,3.333 5.925,2.667 6.85,2 8,2 q 1.483,0 2.417,0.858 0.933,0.858 0.933,2.208 0,0.7 -0.308,1.275 -0.308,0.575 -1.108,1.325 -0.683,0.633 -0.842,1.008 -0.158,0.375 -0.175,1.325 z m 0.867,3.6 q -0.5,0 -0.85,-0.35 -0.35,-0.35 -0.35,-0.85 0,-0.5 0.35,-0.85 0.35,-0.35 0.85,-0.35 0.5,0 0.85,0.35 0.35,0.35 0.35,0.85 0,0.5 -0.35,0.85 -0.35,0.35 -0.85,0.35 z"
    class="ColorScheme-Background" stroke-width="1" stroke="currentColor" />
  <path
    d="m 7.133,10 q 0,-1.2 0.242,-1.792 0.242,-0.592 1.008,-1.258 0.717,-0.617 0.967,-0.992 0.25,-0.375 0.25,-0.842 0,-0.633 -0.45,-1.042 -0.45,-0.408 -1.15,-0.408 -0.617,0 -1.083,0.383 Q 6.45,4.433 6.25,5.1 L 4.65,4.433 Q 5,3.333 5.925,2.667 6.85,2 8,2 q 1.483,0 2.417,0.858 0.933,0.858 0.933,2.208 0,0.7 -0.308,1.275 -0.308,0.575 -1.108,1.325 -0.683,0.633 -0.842,1.008 -0.158,0.375 -0.175,1.325 z m 0.867,3.6 q -0.5,0 -0.85,-0.35 -0.35,-0.35 -0.35,-0.85 0,-0.5 0.35,-0.85 0.35,-0.35 0.85,-0.35 0.5,0 0.85,0.35 0.35,0.35 0.35,0.85 0,0.5 -0.35,0.85 -0.35,0.35 -0.85,0.35 z"
    class="ColorScheme-Text" fill="currentColor" />
</svg>