<svg height="16" width="16" version="1.1" xmlns="http://www.w3.org/2000/svg">
  <style type="text/css" id="current-color-scheme">
    .ColorScheme-NeutralText {
      color: #f9bd00;
    }

    .ColorScheme-Background {
      color: #28292d;
    }
  </style>
  <rect width="16" height="16" opacity="0" />
  <path
    d="m 6.4,13.6 v -1.6 L 4,9.6 V 6.024 q 0,-0.39 0.217,-0.723 Q 4.433,4.967 4.783,4.784 L 6,6 H 5.2 v 3.1 l 2.4,2.4 v 0.9 h 0.8 v -0.9 l 0.7,-0.7 L 1.5,3.2 2.35,2.35 l 11.3,11.3 -0.85,0.85 -2.85,-2.85 -0.35,0.35 v 1.6 z m 5.25,-3.65 -0.85,-0.857 V 6 H 7.7 L 5.6,3.9 V 2.4 H 6.8 V 4.8 H 9.2 V 2.4 H 10.4 V 5.6 L 9.767,4.8 h 1.033 q 0.495,0 0.848,0.353 0.353,0.352 0.353,0.847 V 9.6 Z M 9.2,7.6 Z M 7.2,8.817 Z"
    class="ColorScheme-Background" stroke-width="1" stroke="currentColor" />
  <path
    d="m 6.4,13.6 v -1.6 L 4,9.6 V 6.024 q 0,-0.39 0.217,-0.723 Q 4.433,4.967 4.783,4.784 L 6,6 H 5.2 v 3.1 l 2.4,2.4 v 0.9 h 0.8 v -0.9 l 0.7,-0.7 L 1.5,3.2 2.35,2.35 l 11.3,11.3 -0.85,0.85 -2.85,-2.85 -0.35,0.35 v 1.6 z m 5.25,-3.65 -0.85,-0.857 V 6 H 7.7 L 5.6,3.9 V 2.4 H 6.8 V 4.8 H 9.2 V 2.4 H 10.4 V 5.6 L 9.767,4.8 h 1.033 q 0.495,0 0.848,0.353 0.353,0.352 0.353,0.847 V 9.6 Z M 9.2,7.6 Z M 7.2,8.817 Z"
    class="ColorScheme-NeutralText" fill="currentColor" />
</svg>