<svg height="16" width="16" xmlns="http://www.w3.org/2000/svg">
  <style type="text/css" id="current-color-scheme">
    .ColorScheme-Text {
      color: #e2e2e5;
    }

    .ColorScheme-Background {
      color: #28292d;
    }
  </style>
  <path
    d="M 4.8,11.2 q -1.328,0 -2.264,-0.937 -0.936,-0.937 -0.936,-2.267 0,-1.329 0.936,-2.263 0.936,-0.933 2.264,-0.933 h 6.4 q 1.328,0 2.264,0.937 0.936,0.937 0.936,2.267 0,1.33 -0.936,2.263 -0.936,0.933 -2.264,0.933 z"
    class="ColorScheme-Background" stroke="currentColor" fill="currentColor" />
  <path
    d="M 7.2,11.2 H 4.8 q -1.328,0 -2.264,-0.937 Q 1.6,9.326 1.6,7.996 1.6,6.667 2.536,5.733 3.472,4.8 4.8,4.8 H 7.2 V 6 H 4.8 q -0.833,0 -1.417,0.583 -0.583,0.583 -0.583,1.417 0,0.833 0.583,1.417 0.583,0.583 1.417,0.583 H 7.2 Z M 5.6,8.6 V 7.4 H 10.4 V 8.6 Z M 8.8,11.2 V 10 h 2.4 q 0.833,0 1.417,-0.583 0.583,-0.583 0.583,-1.417 0,-0.833 -0.583,-1.417 Q 12.033,6 11.2,6 H 8.8 V 4.8 h 2.4 q 1.328,0 2.264,0.937 0.936,0.937 0.936,2.267 0,1.33 -0.936,2.263 -0.936,0.933 -2.264,0.933 z"
    class="ColorScheme-Text" fill="currentColor" />
</svg>