<svg height="16" width="16" xmlns="http://www.w3.org/2000/svg">
  <style type="text/css" id="current-color-scheme">
    .ColorScheme-PositiveText {
      color: #50c24b;
    }

    .ColorScheme-Background {
      color: #28292d;
    }
  </style>
  <rect width="16" height="16" opacity="0" />
  <path
    d="m 7.6,12.4 h 0.8 v -0.9 L 10.8,9.1 V 6 H 5.2 v 3.1 l 2.4,2.4 z m -1.2,1.2 v -1.6 L 4,9.6 v -3.6 q 0,-0.495 0.352,-0.847 0.353,-0.353 0.847,-0.353 H 6.1 L 5.6,5.533 V 2.4 H 6.8 V 4.8 H 9.2 V 2.4 H 10.4 V 5.533 L 9.9,4.8 h 0.9 q 0.495,0 0.848,0.353 0.352,0.352 0.352,0.847 v 3.6 L 9.6,12 v 1.6 z M 8,9.25 Z"
    class="ColorScheme-Background" stroke-width="1" stroke="currentColor" />
  <path
    d="m 7.6,12.4 h 0.8 v -0.9 L 10.8,9.1 V 6 H 5.2 v 3.1 l 2.4,2.4 z m -1.2,1.2 v -1.6 L 4,9.6 v -3.6 q 0,-0.495 0.352,-0.847 0.353,-0.353 0.847,-0.353 H 6.1 L 5.6,5.533 V 2.4 H 6.8 V 4.8 H 9.2 V 2.4 H 10.4 V 5.533 L 9.9,4.8 h 0.9 q 0.495,0 0.848,0.353 0.352,0.352 0.352,0.847 v 3.6 L 9.6,12 v 1.6 z M 8,9.25 Z"
    class="ColorScheme-PositiveText" fill="currentColor" />
</svg>