<svg height="16" width="16" xmlns="http://www.w3.org/2000/svg">
  <defs>
    <style type="text/css" id="current-color-scheme">
      .ColorScheme-Text {
        color: #e2e2e5;
      }

      .ColorScheme-Background {
        color: #1e2022;
      }
    </style>
    <path id="icon"
      d="m 7.067,10.667 q 0,-1.35 0.242,-1.942 Q 7.55,8.133 8.333,7.433 9.017,6.833 9.375,6.392 9.733,5.95 9.733,5.383 9.733,4.7 9.275,4.25 8.817,3.8 8,3.8 q -0.85,0 -1.292,0.517 -0.442,0.517 -0.625,1.05 L 4.367,4.633 Q 4.717,3.567 5.65,2.783 6.583,2 8,2 q 1.75,0 2.692,0.975 0.942,0.975 0.942,2.342 0,0.833 -0.358,1.425 Q 10.917,7.333 10.15,8.083 9.333,8.867 9.158,9.275 q -0.175,0.408 -0.175,1.392 z m 0.933,4 q -0.55,0 -0.942,-0.392 -0.392,-0.392 -0.392,-0.942 0,-0.55 0.392,-0.942 Q 7.45,12 8,12 q 0.55,0 0.942,0.392 0.392,0.392 0.392,0.942 0,0.55 -0.392,0.942 Q 8.55,14.667 8,14.667 Z" />
  </defs>
  <rect width="16" height="16" opacity="0" />
  <use href="#icon" class="ColorScheme-Background" stroke="currentColor" stroke-width="0.8" />
  <use href="#icon" class="ColorScheme-Text" fill="currentColor" />
</svg>