<svg height="16" width="16" xmlns="http://www.w3.org/2000/svg">
  <style type="text/css" id="current-color-scheme">
    .ColorScheme-Accent {
      color: #95ccff;
    }

    .ColorScheme-Background {
      color: #28292d;
    }
  </style>
  <rect width="16" height="16" rx="2" class="ColorScheme-Accent" fill="currentColor" />
  <path
    d="m 8,13.6 q 2.333,0 3.967,-1.633 Q 13.6,10.333 13.6,8 h -1.2 q 0,1.817 -1.292,3.108 Q 9.817,12.4 8,12.4 q -1.817,0 -3.108,-1.292 Q 3.6,9.817 3.6,8 3.6,6.183 4.892,4.892 6.183,3.6 8,3.6 q 1.033,0 1.909,0.427 0.876,0.427 1.474,1.173 H 9.6 V 6.4 H 13.6 V 2.4 H 12.4 V 4.567 Q 11.633,3.567 10.492,2.983 9.35,2.4 8,2.4 6.833,2.4 5.815,2.843 4.796,3.287 4.041,4.041 3.287,4.795 2.843,5.814 2.4,6.833 2.4,8 q 0,1.167 0.443,2.185 0.443,1.019 1.198,1.773 0.754,0.755 1.773,1.198 Q 6.833,13.6 8,13.6 Z"
    class="ColorScheme-Background" fill="currentColor" />
</svg>