<svg height="16" width="16" version="1.1" xmlns="http://www.w3.org/2000/svg">
  <defs>
    <style type="text/css" id="current-color-scheme">
      .ColorScheme-NeutralText {
        color: #f9bd00;
      }

      .ColorScheme-Background {
        color: #1e2022;
      }
    </style>
    <path id="icon"
      d="m 5.733,15 -1.267,-2.133 -2.4,-0.533 L 2.3,9.867 0.667,8 2.3,6.133 2.067,3.667 l 2.4,-0.533 L 5.733,1 8,1.967 10.267,1 l 1.267,2.133 2.4,0.533 L 13.7,6.133 15.333,8 13.7,9.867 l 0.233,2.467 -2.4,0.533 L 10.267,15 8,14.033 Z M 6.3,13.3 8,12.567 9.733,13.3 10.667,11.7 12.5,11.267 12.333,9.4 13.567,8 12.333,6.567 12.5,4.7 10.667,4.3 9.7,2.7 8,3.433 6.267,2.7 5.333,4.3 3.5,4.7 3.667,6.567 2.433,8 3.667,9.4 3.5,11.3 5.333,11.7 Z M 8,8 Z M 7.3,10.367 11.067,6.6 10.133,5.633 7.3,8.467 5.867,7.067 4.933,8 Z" />
  </defs>
  <use href="#icon" class="ColorScheme-Background" stroke="currentColor" stroke-width="0.8" />
  <use href="#icon" class="ColorScheme-NeutralText" fill="currentColor" />
</svg>