<svg height="16" width="16" version="1.1" xmlns="http://www.w3.org/2000/svg">
  <defs>
    <style type="text/css" id="current-color-scheme">
      .ColorScheme-NeutralText {
        color: #f9bd00;
      }

      .ColorScheme-Background {
        color: #1e2022;
      }
    </style>
    <path id="icon"
      d="m 8,14.667 q -1.383,0 -2.6,-0.525 -1.217,-0.525 -2.117,-1.425 -0.9,-0.9 -1.425,-2.117 -0.525,-1.217 -0.525,-2.6 0,-1.383 0.525,-2.6 0.525,-1.217 1.425,-2.117 0.9,-0.9 2.117,-1.425 1.217,-0.525 2.6,-0.525 1.383,0 2.6,0.525 1.217,0.525 2.117,1.425 0.9,0.9 1.425,2.117 0.525,1.217 0.525,2.6 0,1.383 -0.525,2.6 -0.525,1.217 -1.425,2.117 -0.9,0.9 -2.117,1.425 -1.217,0.525 -2.6,0.525 z m 0,-1.333 q 0.9,0 1.733,-0.292 Q 10.567,12.75 11.267,12.2 L 3.8,4.733 q -0.55,0.7 -0.842,1.533 Q 2.667,7.1 2.667,8 q 0,2.233 1.55,3.783 1.55,1.55 3.783,1.55 z m 4.2,-2.067 q 0.55,-0.7 0.842,-1.533 Q 13.333,8.9 13.333,8 q 0,-2.233 -1.55,-3.783 -1.55,-1.55 -3.783,-1.55 -0.9,0 -1.733,0.292 Q 5.433,3.25 4.733,3.8 Z" />
  </defs>
  <use href="#icon" class="ColorScheme-Background" stroke="currentColor" stroke-width="0.8" />
  <use href="#icon" class="ColorScheme-NeutralText" fill="currentColor" />
</svg>