<svg height="16" width="16" xmlns="http://www.w3.org/2000/svg">
  <style type="text/css" id="current-color-scheme">
    .ColorScheme-NeutralText {
      color: #f9bd00;
    }

    .ColorScheme-Background {
      color: #28292d;
    }
  </style>
  <rect width="16" height="16" rx="2" class="ColorScheme-NeutralText" fill="currentColor" />
  <path
    d="M 5.783,14.8 4.533,12.733 2.183,12.2 2.4,9.8 0.8,8 2.4,6.2 2.183,3.8 4.533,3.267 5.783,1.2 8,2.15 10.217,1.2 l 1.25,2.067 2.35,0.533 -0.217,2.4 1.6,1.8 -1.6,1.8 0.217,2.4 -2.35,0.533 -1.25,2.067 -2.217,-0.95 z M 6.267,13.283 8,12.55 9.733,13.283 10.7,11.667 12.533,11.25 12.367,9.4 13.6,8 12.367,6.6 12.533,4.75 10.7,4.333 9.733,2.717 8,3.45 6.267,2.717 5.3,4.333 3.467,4.733 3.633,6.6 2.4,8 3.65,9.4 3.467,11.267 5.3,11.683 Z M 8,8 Z M 7.15,10.4 11.117,6.45 10.267,5.6 7.15,8.7 5.733,7.3 4.883,8.15 Z"
    class="ColorScheme-Background" fill="currentColor" />
</svg>