<svg height="16" width="16" xmlns="http://www.w3.org/2000/svg" xmlns:svg="http://www.w3.org/2000/svg">
  <style type="text/css" id="current-color-scheme">
    .ColorScheme-NegativeText {
      color: #ff5540;
    }

    .ColorScheme-Background {
      color: #28292d;
    }
  </style>
  <rect width="16" height="16" rx="2" class="ColorScheme-NegativeText" fill="currentColor" />
  <path
    d="m 4.396,15.2 q -0.496,0 -0.846,-0.353 -0.35,-0.354 -0.35,-0.851 0,-0.496 0.353,-0.846 0.354,-0.35 0.85,-0.35 0.496,0 0.846,0.354 0.35,0.353 0.35,0.85 0,0.497 -0.353,0.847 -0.354,0.35 -0.85,0.35 z m 3.6,0 q -0.496,0 -0.846,-0.354 -0.35,-0.354 -0.35,-0.85 0,-0.496 0.354,-0.846 0.353,-0.35 0.85,-0.35 0.497,0 0.847,0.354 0.35,0.353 0.35,0.85 0,0.497 -0.354,0.847 -0.354,0.35 -0.85,0.35 z m 3.6,0 q -0.497,0 -0.846,-0.354 -0.35,-0.354 -0.35,-0.85 0,-0.496 0.353,-0.846 0.354,-0.35 0.85,-0.35 0.497,0 0.847,0.354 0.35,0.353 0.35,0.85 0,0.497 -0.354,0.847 -0.354,0.35 -0.85,0.35 z"
    class="ColorScheme-Background" fill="currentColor" />
  <path d="m 3.866,6.6 v -1.2 h 8.267 v 1.2 z" class="ColorScheme-Background" fill="currentColor" />
</svg>