<svg height="16" width="16" xmlns="http://www.w3.org/2000/svg">
  <defs>
    <style type="text/css" id="current-color-scheme">
      .ColorScheme-Accent {
        color: #95ccff;
      }

      .ColorScheme-Background {
        color: #1e2022;
      }
    </style>
    <path id="icon"
      d="M 8,14 Q 6.75,14 5.658,13.525 4.567,13.05 3.758,12.242 2.95,11.433 2.475,10.342 2,9.25 2,8 2,6.75 2.475,5.658 2.95,4.567 3.758,3.758 4.567,2.95 5.658,2.475 6.75,2 8,2 q 1.367,0 2.592,0.583 1.225,0.583 2.075,1.65 V 2.667 H 14 v 4 H 10 V 5.333 h 1.833 Q 11.15,4.4 10.15,3.867 9.15,3.333 8,3.333 q -1.95,0 -3.308,1.358 Q 3.333,6.05 3.333,8 q 0,1.95 1.358,3.308 Q 6.05,12.667 8,12.667 q 1.75,0 3.058,-1.133 Q 12.367,10.4 12.6,8.667 h 1.367 Q 13.717,10.95 12.008,12.475 10.3,14 8,14 Z " />
  </defs>
  <use href="#icon" class="ColorScheme-Background" stroke="currentColor" stroke-width="0.8" />
  <use href="#icon" class="ColorScheme-Accent" fill="currentColor" />
</svg>