<svg width="66" height="66" viewBox="0 0 66 66" version="1.1" xmlns="http://www.w3.org/2000/svg"
   xmlns:svg="http://www.w3.org/2000/svg">
   <defs>
      <style type="text/css" id="current-color-scheme">
         .ColorScheme-Text {
            color: #e2e2e5;
         }

         .ColorScheme-ButtonHover {
            color: #95ccff;
         }

         .ColorScheme-NegativeText {
            color: #ff5540;
         }

         .ColorScheme-PositiveText {
            color: #50c24b;
         }

         .ColorScheme-Background {
            color: #1e2022;
         }
      </style>
   </defs>
   <g id="add-normal">
      <rect width="22" height="22" opacity="0" />
      <path d="M 10.083,11.917 h -5.5 v -1.833 h 5.5 v -5.5 h 1.833 v 5.5 h 5.5 v 1.833 h -5.5 v 5.5 h -1.833 z"
         class="ColorScheme-Background" stroke="currentColor" stroke-width="1" />
      <path d="M 10.083,11.917 h -5.5 v -1.833 h 5.5 v -5.5 h 1.833 v 5.5 h 5.5 v 1.833 h -5.5 v 5.5 h -1.833 z"
         class="ColorScheme-Text" fill="currentColor" />
   </g>
   <g id="add-hover" transform="translate(22,0)">
      <rect width="22" height="22" opacity="0" />
      <path d="M 10.083,11.917 h -5.5 v -1.833 h 5.5 v -5.5 h 1.833 v 5.5 h 5.5 v 1.833 h -5.5 v 5.5 h -1.833 z"
         class="ColorScheme-Background" stroke="currentColor" stroke-width="1" />
      <path d="M 10.083,11.917 h -5.5 v -1.833 h 5.5 v -5.5 h 1.833 v 5.5 h 5.5 v 1.833 h -5.5 v 5.5 h -1.833 z"
         class="ColorScheme-PositiveText" fill="currentColor" />
   </g>
   <g id="add-pressed" transform="translate(44,0)">
      <rect width="22" height="22" opacity="0" />
      <path d="M 10.083,11.917 h -5.5 v -1.833 h 5.5 v -5.5 h 1.833 v 5.5 h 5.5 v 1.833 h -5.5 v 5.5 h -1.833 z"
         class="ColorScheme-Background" stroke="currentColor" stroke-width="1" />
      <path d="M 10.083,11.917 h -5.5 v -1.833 h 5.5 v -5.5 h 1.833 v 5.5 h 5.5 v 1.833 h -5.5 v 5.5 h -1.833 z"
         class="ColorScheme-PositiveText" fill="currentColor" />
      <path d="M 10.083,11.917 h -5.5 v -1.833 h 5.5 v -5.5 h 1.833 v 5.5 h 5.5 v 1.833 h -5.5 v 5.5 h -1.833 z"
         class="ColorScheme-Text" fill="currentColor" opacity="0.1" />
   </g>
   <g id="open-normal" transform="translate(0,22)">
      <rect width="22" height="22" opacity="0" />
      <path d="M 10.083,18.333 V 7.173 L 4.95,12.306 3.667,11 11,3.667 18.333,11 17.05,12.306 11.917,7.173 V 18.333 Z"
         class="ColorScheme-Background" stroke="currentColor" stroke-width="1" />
      <path d="M 10.083,18.333 V 7.173 L 4.95,12.306 3.667,11 11,3.667 18.333,11 17.05,12.306 11.917,7.173 V 18.333 Z"
         class="ColorScheme-Text" fill="currentColor" />
   </g>
   <g id="open-hover" transform="translate(22,22)">
      <rect width="22" height="22" opacity="0" />
      <path d="M 10.083,18.333 V 7.173 L 4.95,12.306 3.667,11 11,3.667 18.333,11 17.05,12.306 11.917,7.173 V 18.333 Z"
         class="ColorScheme-Background" stroke="currentColor" stroke-width="1" />
      <path d="M 10.083,18.333 V 7.173 L 4.95,12.306 3.667,11 11,3.667 18.333,11 17.05,12.306 11.917,7.173 V 18.333 Z"
         class="ColorScheme-ButtonHover" fill="currentColor" />
   </g>
   <g id="open-pressed" transform="translate(44,22)">
      <rect width="22" height="22" opacity="0" />
      <path d="M 10.083,18.333 V 7.173 L 4.95,12.306 3.667,11 11,3.667 18.333,11 17.05,12.306 11.917,7.173 V 18.333 Z"
         class="ColorScheme-Background" stroke="currentColor" stroke-width="1" />
      <path d="M 10.083,18.333 V 7.173 L 4.95,12.306 3.667,11 11,3.667 18.333,11 17.05,12.306 11.917,7.173 V 18.333 Z"
         class="ColorScheme-ButtonHover" fill="currentColor" />
      <path d="M 10.083,18.333 V 7.173 L 4.95,12.306 3.667,11 11,3.667 18.333,11 17.05,12.306 11.917,7.173 V 18.333 Z"
         class="ColorScheme-Text" fill="currentColor" opacity="0.1" />
   </g>
   <g id="remove-normal" transform="translate(0,44)">
      <rect width="22" height="22" opacity="0" />
      <path d="M 4.583,11.917 V 10.083 H 17.417 v 1.833 z" class="ColorScheme-Background" stroke="currentColor"
         stroke-width="1" />
      <path d="M 4.583,11.917 V 10.083 H 17.417 v 1.833 z" class="ColorScheme-Text" fill="currentColor" />
   </g>
   <g id="remove-hover" transform="translate(22,44)">
      <rect width="22" height="22" opacity="0" />
      <path d="M 4.583,11.917 V 10.083 H 17.417 v 1.833 z" class="ColorScheme-Background" stroke="currentColor"
         stroke-width="1" />
      <path d="M 4.583,11.917 V 10.083 H 17.417 v 1.833 z" class="ColorScheme-NegativeText" fill="currentColor" />
   </g>
   <g id="remove-pressed" transform="translate(44,44)">
      <rect width="22" height="22" opacity="0" />
      <path d="M 4.583,11.917 V 10.083 H 17.417 v 1.833 z" class="ColorScheme-Background" stroke="currentColor"
         stroke-width="1" />
      <path d="M 4.583,11.917 V 10.083 H 17.417 v 1.833 z" class="ColorScheme-NegativeText" fill="currentColor" />
      <path d="M 4.583,11.917 V 10.083 H 17.417 v 1.833 z" class="ColorScheme-Text" fill="currentColor" opacity="0.1" />
   </g>
</svg>