<?xml version="1.0" encoding="UTF-8" standalone="no"?>
<svg width="112" height="56" version="1.1" id="svg3" sodipodi:docname="background.svg"
  inkscape:version="1.3.2 (091e20e, 2023-11-25, custom)" xmlns:inkscape="http://www.inkscape.org/namespaces/inkscape"
  xmlns:sodipodi="http://sodipodi.sourceforge.net/DTD/sodipodi-0.dtd" xmlns:xlink="http://www.w3.org/1999/xlink"
  xmlns="http://www.w3.org/2000/svg" xmlns:svg="http://www.w3.org/2000/svg">
  <sodipodi:namedview id="namedview3" pagecolor="#ffffff" bordercolor="#666666" borderopacity="1.0"
    inkscape:showpageshadow="2" inkscape:pageopacity="0.0" inkscape:pagecheckerboard="0" inkscape:deskcolor="#d1d1d1"
    inkscape:zoom="9.358209" inkscape:cx="77.472089" inkscape:cy="43.758373" inkscape:window-width="1920"
    inkscape:window-height="1057" inkscape:window-x="-8" inkscape:window-y="-8" inkscape:window-maximized="1"
    inkscape:current-layer="svg3" />
  <defs id="defs3644">
    <style type="text/css" id="current-color-scheme">
      .ColorScheme-Text {
        color: #7B7C7E;
      }

      .ColorScheme-Background {
        color: #EFF0F1;
      }

      .ColorScheme-Highlight {
        color: #3DAEE6;
      }

      .ColorScheme-ViewText {
        color: #7B7C7E;
      }

      .ColorScheme-ViewBackground {
        color: #FCFCFC;
      }

      .ColorScheme-ViewHover {
        color: #3DAEE6;
      }

      .ColorScheme-ViewFocus {
        color: #1E92FF;
      }

      .ColorScheme-ButtonText {
        color: #7B7C7E;
      }

      .ColorScheme-ButtonBackground {
        color: #EFF0F1;
      }

      .ColorScheme-ButtonHover {
        color: #3DAEE6;
      }

      .ColorScheme-ButtonFocus {
        color: #1E92FF;
      }
    </style>
    <linearGradient id="linearGradient3809-7">
      <stop id="stop3811-0" offset="0" style="stop-color:#232629;stop-opacity:0.23921569;" />
      <stop style="stop-color:#111314;stop-opacity:0.09803922;" offset="0.5" id="stop3817-7" />
      <stop id="stop3815-7" offset="1" style="stop-color:#000000;stop-opacity:0;" />
    </linearGradient>
    <linearGradient gradientTransform="translate(-37.999994,-224.99999)" y2="225.51292" x2="65" y1="233" x1="65"
      gradientUnits="userSpaceOnUse" id="linearGradient3908" xlink:href="#linearGradient3809-7"
      inkscape:collect="always" />
    <linearGradient id="linearGradient3809-3">
      <stop id="stop3811-1" offset="0" style="stop-color:#232629;stop-opacity:0.23921569;" />
      <stop style="stop-color:#111314;stop-opacity:0.09803922;" offset="0.5" id="stop3817-3" />
      <stop id="stop3815-2" offset="1" style="stop-color:#000000;stop-opacity:0;" />
    </linearGradient>
    <linearGradient gradientTransform="translate(-94.000589,-224.99996)" y2="225.51292" x2="65" y1="233" x1="65"
      gradientUnits="userSpaceOnUse" id="linearGradient3945" xlink:href="#linearGradient3809-3"
      inkscape:collect="always" />
    <linearGradient id="linearGradient3809-4">
      <stop id="stop3811-5" offset="0" style="stop-color:#232629;stop-opacity:0.23921569;" />
      <stop style="stop-color:#111314;stop-opacity:0.09803922;" offset="0.5" id="stop3817-6" />
      <stop id="stop3815-73" offset="1" style="stop-color:#000000;stop-opacity:0;" />
    </linearGradient>
    <linearGradient gradientTransform="translate(-94.000564,-280.99956)" y2="225.51292" x2="65" y1="233" x1="65"
      gradientUnits="userSpaceOnUse" id="linearGradient3982" xlink:href="#linearGradient3809-4"
      inkscape:collect="always" />
    <linearGradient id="linearGradient3809-8">
      <stop id="stop3811-4" offset="0" style="stop-color:#232629;stop-opacity:0.23921569;" />
      <stop style="stop-color:#111314;stop-opacity:0.09803922;" offset="0.5" id="stop3817-2" />
      <stop id="stop3815-20" offset="1" style="stop-color:#000000;stop-opacity:0;" />
    </linearGradient>
    <linearGradient gradientTransform="translate(-37.999997,-280.99982)" y2="225.51292" x2="65" y1="233" x1="65"
      gradientUnits="userSpaceOnUse" id="linearGradient4019" xlink:href="#linearGradient3809-8"
      inkscape:collect="always" />
    <linearGradient id="linearGradient3828-6">
      <stop id="stop3830-5" offset="0" style="stop-color:#232629;stop-opacity:0.239" />
      <stop style="stop-color:#1a1c1e;stop-opacity:0.239" offset="0.33000001" id="stop3836-0" />
      <stop style="stop-color:#111314;stop-opacity:0.098" offset="0.66000003" id="stop3832-2" />
      <stop id="stop3834-3" offset="1" style="stop-color:#000000;stop-opacity:0;" />
    </linearGradient>
    <radialGradient r="6" fy="238" fx="50" cy="238" cx="50" gradientTransform="matrix(0,-2,-2,0,519.99998,112.00002)"
      gradientUnits="userSpaceOnUse" id="radialGradient4057" xlink:href="#linearGradient3828-6"
      inkscape:collect="always" />
    <linearGradient id="linearGradient3828-0">
      <stop id="stop3830-7" offset="0" style="stop-color:#232629;stop-opacity:0.239" />
      <stop style="stop-color:#1a1c1e;stop-opacity:0.239" offset="0.33000001" id="stop3836-9" />
      <stop style="stop-color:#111314;stop-opacity:0.098" offset="0.66000003" id="stop3832-0" />
      <stop id="stop3834-0" offset="1" style="stop-color:#000000;stop-opacity:0;" />
    </linearGradient>
    <radialGradient r="6" fy="238" fx="50" cy="238" cx="50" gradientTransform="matrix(0,-2,2,0,-464.00001,112.00002)"
      gradientUnits="userSpaceOnUse" id="radialGradient4097" xlink:href="#linearGradient3828-0"
      inkscape:collect="always" />
    <linearGradient id="linearGradient3828-4">
      <stop id="stop3830-4" offset="0" style="stop-color:#232629;stop-opacity:0.239" />
      <stop style="stop-color:#1a1c1e;stop-opacity:0.239" offset="0.33000001" id="stop3836-3" />
      <stop style="stop-color:#111314;stop-opacity:0.098" offset="0.66000003" id="stop3832-8" />
      <stop id="stop3834-9" offset="1" style="stop-color:#000000;stop-opacity:0;" />
    </linearGradient>
    <radialGradient r="6" fy="238" fx="50" cy="238" cx="50" gradientTransform="matrix(0,2,2,0,-464.00046,-55.999411)"
      gradientUnits="userSpaceOnUse" id="radialGradient4137" xlink:href="#linearGradient3828-4"
      inkscape:collect="always" />
    <linearGradient id="linearGradient3828-2">
      <stop id="stop3830-75" offset="0" style="stop-color:#232629;stop-opacity:0.239" />
      <stop style="stop-color:#1a1c1e;stop-opacity:0.239" offset="0.33000001" id="stop3836-31" />
      <stop style="stop-color:#111314;stop-opacity:0.098" offset="0.66000003" id="stop3832-9" />
      <stop id="stop3834-7" offset="1" style="stop-color:#000000;stop-opacity:0;" />
    </linearGradient>
    <radialGradient r="6" fy="238" fx="50" cy="238" cx="50" gradientTransform="matrix(0,2,-2,0,520,-55.999411)"
      gradientUnits="userSpaceOnUse" id="radialGradient4177" xlink:href="#linearGradient3828-2"
      inkscape:collect="always" />
    <linearGradient inkscape:collect="always" xlink:href="#linearGradient3809-7" id="linearGradient1072"
      gradientUnits="userSpaceOnUse" gradientTransform="translate(18.000006,-224.99969)" x1="65" y1="233" x2="65"
      y2="225.51292" />
    <linearGradient inkscape:collect="always" xlink:href="#linearGradient3809-4" id="linearGradient1074"
      gradientUnits="userSpaceOnUse" gradientTransform="translate(-94.000564,-336.99979)" x1="65" y1="233" x2="65"
      y2="225.51292" />
    <linearGradient inkscape:collect="always" xlink:href="#linearGradient3809-8" id="linearGradient1076"
      gradientUnits="userSpaceOnUse" gradientTransform="translate(18.000003,-281.00092)" x1="65" y1="233" x2="65"
      y2="225.51292" />
    <radialGradient inkscape:collect="always" xlink:href="#linearGradient3828-4" id="radialGradient1078"
      gradientUnits="userSpaceOnUse" gradientTransform="matrix(0,2,2,0,-408.00001,-55.999411)" cx="50" cy="238" fx="50"
      fy="238" r="6" />
    <radialGradient inkscape:collect="always" xlink:href="#linearGradient3828-6" id="radialGradient1080"
      gradientUnits="userSpaceOnUse" gradientTransform="matrix(0,-2,-2,0,575.99998,112.00002)" cx="50" cy="238" fx="50"
      fy="238" r="6" />
    <radialGradient inkscape:collect="always" xlink:href="#linearGradient3828-0" id="radialGradient1082"
      gradientUnits="userSpaceOnUse" gradientTransform="matrix(0,-2,2,0,-408.00001,112.00002)" cx="50" cy="238" fx="50"
      fy="238" r="6" />
    <linearGradient inkscape:collect="always" xlink:href="#linearGradient3809-3" id="linearGradient1084"
      gradientUnits="userSpaceOnUse" gradientTransform="translate(-94.000589,-168.99997)" x1="65" y1="233" x2="65"
      y2="225.51292" />
    <radialGradient inkscape:collect="always" xlink:href="#linearGradient3828-2" id="radialGradient1086"
      gradientUnits="userSpaceOnUse" gradientTransform="matrix(0,2,-2,0,576,-55.999411)" cx="50" cy="238" fx="50"
      fy="238" r="6" />
  </defs>
  <g id="topleft">
    <path d="m 12,7.999 c -2.183,0.067 -3.933,1.817 -4,4 h 4 z" class="ColorScheme-Background" fill="currentColor" />
    <path d="m 12,7.999 c -2.183,0.067 -3.933,1.817 -4,4 h 1 c 0,-1.563 1.344,-3 3,-3 z" fill="#eff0f1"
      fill-opacity="0.902" opacity="0.2" />
    <path d="M 0,0 V 12 H 8 C 8,9.791 9.791,8 12,8 V 0 Z" style="fill:url(#radialGradient4097)" />
  </g>
  <g id="top">
    <path d="m 12,8 v 3.999 H 44 V 8 c -0.012,-0.001 -0.022,0 -0.034,0 H 12.035 c -0.012,0 -0.023,-0.001 -0.034,0 z"
      class="ColorScheme-Background" fill="currentColor" />
    <path d="M 12,8 V 8.999 H 44 V 8 c -0.012,-0 -0.022,0 -0.034,0 H 12.035 c -0.012,0 -0.023,-0 -0.034,0 z"
      fill="#eff0f1" fill-opacity="0.902" opacity="0.2" />
    <rect width="32" height="8" x="12" y="0" style="fill:url(#linearGradient3908)" />
  </g>
  <g id="topright">
    <path d="m 44,7.999 c 2.183,0.067 3.933,1.817 4,4 h -4 z" class="ColorScheme-Background" fill="currentColor" />
    <path d="m 44,7.999 c 2.183,0.067 3.933,1.817 4,4 h -1 c 0,-1.563 -1.344,-3 -3,-3 z" fill="#eff0f1"
      fill-opacity="0.902" opacity="0.2" />
    <path d="M 56,0 V 12 H 48 C 48,9.791 46.209,8 44,8 V 0 Z" style="fill:url(#radialGradient4057)" />
  </g>
  <g id="left">
    <path d="m 12,12 v 32 H 8.001 c -0.001,-0.053 0,-0.1 0,-0.154 V 12.154 c 0,-0.054 -0.001,-0.1 0,-0.154 z"
      class="ColorScheme-Background" fill="currentColor" />
    <path d="m 9,12 v 32 h -1 c -3.34e-4,-0.053 0,-0.1 0,-0.154 V 12.154 c 0,-0.054 -3.34e-4,-0.1 0,-0.154 z"
      fill="#eff0f1" fill-opacity="0.902" opacity="0.2" />
    <rect width="32" height="8" x="-44.001" y="0" style="fill:url(#linearGradient3945)" transform="rotate(-90)" />
  </g>
  <path id="center" d="M 12,12 V 44 H 44 V 12 Z" class="ColorScheme-Background" fill="currentColor" />
  <g id="right">
    <path d="m 44,12 v 32 h 3.999 c 0.001,-0.053 0,-0.1 0,-0.154 V 12.154 c 0,-0.054 0.001,-0.1 0,-0.154 z"
      class="ColorScheme-Background" fill="currentColor" />
    <path d="m 47,12 v 32 h 1 c 0,-0.053 0,-0.1 0,-0.154 V 12.154 c 0,-0.054 0,-0.1 0,-0.154 z" fill="#eff0f1"
      fill-opacity="0.902" opacity="0.2" />
    <rect width="32" height="8" x="-44.001" y="-56" style="fill:url(#linearGradient3982)"
      transform="matrix(0,-1,-1,0,0,0)" />
  </g>
  <g id="bottomleft">
    <path d="m 8,44 c 0.067,2.183 1.817,3.933 4,4 v -4 z" class="ColorScheme-Background" fill="currentColor" />
    <path d="m 8,44 c 0.067,2.183 1.817,3.933 4,4 v -1 c -1.637,-0.05 -2.95,-1.363 -3,-3 z" fill="#eff0f1"
      fill-opacity="0.902" opacity="0.2" />
    <path d="M -4.53e-4,56.001 V 44.001 h 8 c 0,2.209 1.791,4 4,4 v 8 z" style="fill:url(#radialGradient4137)" />
  </g>
  <g id="bottom">
    <path d="m 12,44 v 3.999 c 0.012,0.001 0.022,0 0.034,0 H 43.966 c 0.012,0 0.023,0.001 0.034,0 V 44 Z"
      class="ColorScheme-Background" fill="currentColor" />
    <path d="m 12,47 v 1 c 0.012,0 0.022,0 0.034,0 H 43.966 c 0.012,0 0.023,0 0.034,0 v -1 z" fill="#eff0f1"
      fill-opacity="0.902" opacity="0.2" />
    <rect width="32" height="8" x="12" y="-56" style="fill:url(#linearGradient4019)" transform="scale(1,-1)" />
  </g>
  <g id="bottomright">
    <path d="m 48,44 c -0.067,2.183 -1.817,3.933 -4,4 v -4 z" class="ColorScheme-Background" fill="currentColor" />
    <path d="m 47,44 c -0.05,1.637 -1.363,2.95 -3,3 v 1 c 2.183,-0.067 3.933,-1.817 4,-4 z" fill="#eff0f1"
      fill-opacity="0.902" opacity="0.2" />
    <path d="M 56,56.001 V 44.001 h -8 c 0,2.209 -1.791,4 -4,4 v 8 z" style="fill:url(#radialGradient4177)" />
  </g>
  <rect id="hint-top-margin" width="4" height="14" x="24" y="0" fill="#008000" opacity="0.875" />
  <rect id="hint-left-margin" width="14" height="4" x="0" y="28" fill="#008000" opacity="0.875" />
  <rect id="hint-right-margin" width="14" height="4" x="42" y="24" fill="#008000" opacity="0.875" />
  <rect id="hint-bottom-margin" width="4" height="14" x="28" y="42" fill="#008000" opacity="0.875" />
  <rect id="hint-top-inset" width="4" height="8" x="28" y="0" fill="#ff00ff" opacity="0.875" />
  <rect id="hint-left-inset" width="8" height="4" x="0" y="24" fill="#ff00ff" opacity="0.875" />
  <rect id="hint-right-inset" width="8" height="4" x="48" y="28" fill="#ff00ff" opacity="0.875" />
  <rect id="hint-bottom-inset" width="4" height="8" x="24" y="48" fill="#ff00ff" opacity="0.875" />
  <g id="shadow-topleft">
    <path d="m 68,7.999 c -2.183,0.067 -3.933,1.817 -4,4 h 4 z" fill="none" />
    <path d="m 56,0 v 12 h 8 C 64,9.791 65.791,8 68,8 V 0 Z" style="fill:url(#radialGradient1082)" />
  </g>
  <g id="shadow-top">
    <path d="m 68,8 v 3.999 H 100 V 8 c -0.012,-0.001 -0.022,0 -0.034,0 H 68.035 c -0.012,0 -0.023,-0.001 -0.034,0 z"
      fill="none" />
    <rect width="32" height="8" x="68" y="0" style="fill:url(#linearGradient1072)" />
  </g>
  <g id="shadow-topright">
    <path d="m 100,7.999 c 2.183,0.067 3.933,1.817 4,4 h -4 z" fill="none" />
    <path d="m 112,0 v 12 h -8 c 0,-2.209 -1.791,-4 -4,-4 V 0 Z" style="fill:url(#radialGradient1080)" />
  </g>
  <g id="shadow-left">
    <path d="m 68,12 v 32 H 64.001 c -0.001,-0.053 0,-0.1 0,-0.154 V 12.154 c 0,-0.054 -0.001,-0.1 0,-0.154 z"
      fill="none" />
    <rect width="32" height="8" x="-44.001" y="56" style="fill:url(#linearGradient1084)" transform="rotate(-90)" />
  </g>
  <path id="shadow-center" d="M 68,12 V 44 H 100 V 12 Z" fill="none" />
  <g id="shadow-right">
    <path d="m 100,12 v 32 h 3.999 c 0.001,-0.053 0,-0.1 0,-0.154 V 12.154 c 0,-0.054 0.001,-0.1 0,-0.154 z"
      fill="none" />
    <rect width="32" height="8" x="-44.001" y="-112" style="fill:url(#linearGradient1074)"
      transform="matrix(0,-1,-1,0,0,0)" />
  </g>
  <g id="shadow-bottomleft">
    <path d="m 64,44 c 0.067,2.183 1.817,3.933 4,4 v -4 z" fill="none" />
    <path d="M 56,56.001 V 44.001 h 8 c 0,2.209 1.791,4 4,4 v 8 z" style="fill:url(#radialGradient1078)" />
  </g>
  <g id="shadow-bottom">
    <path d="m 68,44.001 v 3.999 c 0.012,0.001 0.022,0 0.034,0 H 99.966 c 0.012,0 0.023,0.001 0.034,0 v -3.999 z"
      fill="none" />
    <rect width="32" height="8" x="68" y="-56.001" style="fill:url(#linearGradient1076)" transform="scale(1,-1)" />
  </g>
  <g id="shadow-bottomright">
    <path d="m 104,44 c -0.067,2.183 -1.817,3.933 -4,4 v -4 z" fill="none" />
    <path d="M 112,56.001 V 44.001 h -8 c 0,2.209 -1.791,4 -4,4 v 8 z" style="fill:url(#radialGradient1086)" />
  </g>
  <rect id="shadow-hint-top-margin" width="4" height="14" x="80" y="0" fill="#008000" opacity="0.875" />
  <rect id="shadow-hint-left-margin" width="14" height="4" x="56" y="28" fill="#008000" opacity="0.875" />
  <rect id="shadow-hint-right-margin" width="14" height="4" x="98" y="24.001" fill="#008000" opacity="0.875" />
  <rect id="shadow-hint-bottom-margin" width="4" height="14" x="84" y="42.001" fill="#008000" opacity="0.875" />
  <rect id="shadow-hint-top-inset" width="4" height="8" x="84" y="0" fill="#ff00ff" opacity="0.875" />
  <rect id="shadow-hint-left-inset" width="8" height="4" x="56" y="24.001" fill="#ff00ff" opacity="0.875" />
  <rect id="shadow-hint-right-inset" width="8" height="4" x="104" y="28.001" fill="#ff00ff" opacity="0.875" />
  <rect id="shadow-hint-bottom-inset" width="4" height="8" x="80" y="48.001" fill="#ff00ff" opacity="0.875" />
  <rect id="hint-stretch-borders" width="5" height="5" y="0" x="0" fill="#008000" opacity="0.875" />
</svg>