<svg height="18" width="18" xmlns="http://www.w3.org/2000/svg" xmlns:svg="http://www.w3.org/2000/svg">
  <style id="current-color-scheme" type="text/css">
    .ColorScheme-ButtonHover {
      color: #95ccff;
    }

    .ColorScheme-Background {
      color: #282a2d;
    }
  </style>
  <g id="bar-inactive-topleft">
    <rect width="3" height="3" x="0" y="0" class="ColorScheme-Background" fill="currentColor" />
    <rect width="3" height="3" x="0" y="0" fill="#ffffff" opacity="0.05" />
  </g>
  <g id="bar-inactive-top">
    <rect width="3" height="3" x="3" y="0" class="ColorScheme-Background" fill="currentColor" />
    <rect width="3" height="3" x="3" y="0" fill="#ffffff" opacity="0.05" />
  </g>
  <g id="bar-inactive-topright">
    <rect width="3" height="3" x="6" y="0" class="ColorScheme-Background" fill="currentColor" />
    <rect width="3" height="3" x="6" y="0" fill="#ffffff" opacity="0.05" />
  </g>
  <g id="bar-inactive-left">
    <rect width="3" height="3" x="0" y="3" class="ColorScheme-Background" fill="currentColor" />
    <rect width="3" height="3" x="0" y="3" fill="#ffffff" opacity="0.05" />
  </g>
  <g id="bar-inactive-center">
    <rect width="3" height="3" x="3" y="3" class="ColorScheme-Background" fill="currentColor" />
    <rect width="3" height="3" x="3" y="3" fill="#ffffff" opacity="0.05" />
  </g>
  <g id="bar-inactive-right">
    <rect width="3" height="3" x="6" y="3" class="ColorScheme-Background" fill="currentColor" />
    <rect width="3" height="3" x="6" y="3" fill="#ffffff" opacity="0.05" />
  </g>
  <g id="bar-inactive-bottomleft">
    <rect width="3" height="3" x="0" y="6" class="ColorScheme-Background" fill="currentColor" />
    <rect width="3" height="3" x="0" y="6" fill="#ffffff" opacity="0.05" />
  </g>
  <g id="bar-inactive-bottom">
    <rect width="3" height="3" x="3" y="6" class="ColorScheme-Background" fill="currentColor" />
    <rect width="3" height="3" x="3" y="6" fill="#ffffff" opacity="0.05" />
  </g>
  <g id="bar-inactive-bottomright">
    <rect width="3" height="3" x="6" y="6" class="ColorScheme-Background" fill="currentColor" />
    <rect width="3" height="3" x="6" y="6" fill="#ffffff" opacity="0.05" />
  </g>
  <rect id="bar-active-topleft" width="3" height="3" x="9" y="0" class="ColorScheme-ButtonHover" fill="currentColor" />
  <rect id="bar-active-top" width="3" height="3" x="12" y="0" class="ColorScheme-ButtonHover" fill="currentColor" />
  <rect id="bar-active-topright" width="3" height="3" x="15" y="0" class="ColorScheme-ButtonHover"
    fill="currentColor" />
  <rect id="bar-active-left" width="3" height="3" x="9" y="3" class="ColorScheme-ButtonHover" fill="currentColor" />
  <rect id="bar-active-center" width="3" height="3" x="12" y="3" class="ColorScheme-ButtonHover" fill="currentColor" />
  <rect id="bar-active-right" width="3" height="3" x="15" y="3" class="ColorScheme-ButtonHover" fill="currentColor" />
  <rect id="bar-active-bottomleft" width="3" height="3" x="9" y="6" class="ColorScheme-ButtonHover"
    fill="currentColor" />
  <rect id="bar-active-bottom" width="3" height="3" x="12" y="6" class="ColorScheme-ButtonHover" fill="currentColor" />
  <rect id="bar-active-bottomright" width="3" height="3" x="15" y="6" class="ColorScheme-ButtonHover"
    fill="currentColor" />
  <rect id="hint-bar-size" width="6" height="6" x="0" y="9" fill="#ff0000" />
</svg>