<svg width="136" height="136" viewBox="0 0 136 136" xmlns="http://www.w3.org/2000/svg">
  <defs>
    <style id="current-color-scheme" type="text/css">
      .ColorScheme-ButtonHover {
        color: #95ccff;
      }

      .ColorScheme-NegativeText {
        color: #ff5540;
      }
    </style>
  </defs>
  <g id="busywidget">
    <rect width="136" height="136" opacity="0" />
    <path
      d="M 68 7 A 61 61 0 0 0 7 68 A 61 61 0 0 0 68 129 A 61 61 0 0 0 129 68 L 115.5 68 A 47.5 47.5 0 0 1 68 115.5 A 47.5 47.5 0 0 1 20.5 68 A 47.5 47.5 0 0 1 68 20.5 L 68 7 z"
      class="ColorScheme-ButtonHover" fill="currentColor" />
  </g>
  <g id="22-22-busywidget">
    <rect width="22" height="22" x="136" y="114" opacity="0" />
    <path
      d="m 147.016,115.134 a 9.882,9.882 0 0 0 -9.882,9.882 9.882,9.882 0 0 0 9.882,9.882 9.882,9.882 0 0 0 9.882,-9.882 h -2.187 a 7.695,7.695 0 0 1 -7.695,7.695 7.695,7.695 0 0 1 -7.695,-7.695 7.695,7.695 0 0 1 7.695,-7.695 z"
      class="ColorScheme-ButtonHover" fill="currentColor" />
  </g>
  <g id="16-16-busywidget">
    <rect width="16" height="16" x="158" y="120" opacity="0" />
    <path
      d="m 166.024,120.826 a 7.198,7.198 0 0 0 -7.198,7.198 7.198,7.198 0 0 0 7.198,7.198 7.198,7.198 0 0 0 7.198,-7.198 h -1.593 a 5.605,5.605 0 0 1 -5.605,5.605 5.605,5.605 0 0 1 -5.605,-5.605 5.605,5.605 0 0 1 5.605,-5.605 z"
      class="ColorScheme-ButtonHover" fill="currentColor" />
  </g>
  <rect id="hint-rotation-angle" width="14" height="14" y="136" fill="#0000ff" x="0" />
  <g id="stopped" transform="translate(-136,0)">
    <rect width="136" height="136" opacity="0" />
    <path
      d="M 44,76 Q 40.7,76 38.35,73.65 36,71.3 36,68 36,64.7 38.35,62.35 40.7,60 44,60 47.3,60 49.65,62.35 52,64.7 52,68 52,71.3 49.65,73.65 47.3,76 44,76 Z m 24,0 Q 64.7,76 62.35,73.65 60,71.3 60,68 60,64.7 62.35,62.35 64.7,60 68,60 71.3,60 73.65,62.35 76,64.7 76,68 76,71.3 73.65,73.65 71.3,76 68,76 Z m 24,0 Q 88.7,76 86.35,73.65 84,71.3 84,68 84,64.7 86.35,62.35 88.7,60 92,60 95.3,60 97.65,62.35 100,64.7 100,68 100,71.3 97.65,73.65 95.3,76 92,76 Z"
      class="ColorScheme-NegativeText" fill="currentColor" />
  </g>
</svg>