<svg width="72" height="72" viewBox="0 0 72 72" version="1.1" xmlns="http://www.w3.org/2000/svg"
  xmlns:svg="http://www.w3.org/2000/svg">
  <defs>
    <style id="current-color-scheme" type="text/css">
      .ColorScheme-ButtonHover {
        color: #95ccff;
      }

      .ColorScheme-NegativeText {
        color: #ff5540;
      }
    </style>
  </defs>
  <g id="busywidget">
    <rect width="36" height="36" fill="none" />
    <path
      d="m 18,2 a 16,16 0 0 0 -16,16 16,16 0 0 0 16,16 16,16 0 0 0 16,-16 h -2 a 14,14 0 0 1 -14,14 14,14 0 0 1 -14,-14 14,14 0 0 1 14,-14 z"
      class="ColorScheme-ButtonHover" fill="currentColor" />
  </g>
  <g id="22-22-busywidget" transform="translate(36,0)">
    <rect width="22" height="22" fill="none" />
    <path
      d="m 11,1 a 10,10 0 0 0 -10,10 10,10 0 0 0 10,10 10,10 0 0 0 10,-10 h -2 a 8,8 0 0 1 -8,8 8,8 0 0 1 -8,-8 8,8 0 0 1 8,-8 z"
      class="ColorScheme-ButtonHover" fill="currentColor" />
  </g>
  <g id="16-16-busywidget" transform="translate(36,22)">
    <rect width="16" height="16" fill="none" />
    <path
      d="m 11,1 a 7,7 0 0 0 -7,7 7,7 0 0 0 7,7 7,7 0 0 0 7,-7 h -2 a 5,5 0 0 1 -5,5 5,5 0 0 1 -5,-5 5,5 0 0 1 5,-5 z"
      class="ColorScheme-ButtonHover" fill="currentColor" />
  </g>
  <g id="stopped" transform="translate(0,36)">
    <rect width="36" height="36" fill="none" />
    <path
      d="m 8.197,20.2 q -0.909,0 -1.553,-0.647 Q 6,18.905 6,17.996 q 0,-0.909 0.647,-1.553 0.647,-0.644 1.556,-0.644 0.909,0 1.553,0.647 0.644,0.648 0.644,1.556 0,0.909 -0.647,1.553 -0.647,0.644 -1.556,0.644 z m 9.8,0 q -0.909,0 -1.553,-0.647 -0.644,-0.648 -0.644,-1.556 0,-0.909 0.647,-1.553 0.648,-0.644 1.556,-0.644 0.909,0 1.553,0.647 0.644,0.648 0.644,1.556 0,0.909 -0.647,1.553 -0.648,0.644 -1.556,0.644 z m 9.8,0 q -0.909,0 -1.553,-0.647 -0.644,-0.648 -0.644,-1.556 0,-0.909 0.647,-1.553 0.647,-0.644 1.556,-0.644 0.909,0 1.553,0.647 0.644,0.648 0.644,1.556 0,0.909 -0.647,1.553 -0.647,0.644 -1.556,0.644 z"
      class="ColorScheme-NegativeText" fill="currentColor" />
  </g>
  <rect id="hint-rotation-angle" width="4" height="4" fill="#0000ff" />
</svg>