<svg width="80" height="172" viewBox="0 0 80 172" version="1.1" xmlns:xlink="http://www.w3.org/1999/xlink"
  xmlns="http://www.w3.org/2000/svg" xmlns:svg="http://www.w3.org/2000/svg">
  <defs>
    <style id="current-color-scheme" type="text/css">
      .ColorScheme-ButtonBackground {
        color: #333538;
      }

      .ColorScheme-ButtonHover {
        color: #95ccff;
      }

      .ColorScheme-ButtonFocus {
        color: #b9c8da;
      }
    </style>
    <linearGradient id="bg">
      <stop stop-opacity="1" offset="0.66" />
      <stop stop-opacity="0" offset="1" />
    </linearGradient>
    <linearGradient xlink:href="#bg" id="bg-l" x1="7.5" y1="17.5" x2="1.5" y2="17.5" gradientUnits="userSpaceOnUse" />
    <linearGradient xlink:href="#bg" id="bg-r" x1="25.5" y1="17.5" x2="31.5" y2="17.5" gradientUnits="userSpaceOnUse" />
    <radialGradient xlink:href="#bg" id="bg-bl" cx="7.5" cy="26.5" r="6" gradientUnits="userSpaceOnUse" />
    <linearGradient xlink:href="#bg" id="bg-b" x1="16.5" y1="26.5" x2="16.5" y2="32.5" gradientUnits="userSpaceOnUse" />
    <radialGradient xlink:href="#bg" id="bg-br" cx="25.5" cy="26.5" r="6" gradientUnits="userSpaceOnUse" />
    <linearGradient id="ag">
      <stop stop-opacity="1" offset="0.54" />
      <stop stop-opacity="0" offset="1" />
    </linearGradient>
    <radialGradient xlink:href="#ag" id="ag-tl" cx="7.5" cy="8.5" r="6.5" gradientUnits="userSpaceOnUse" />
    <radialGradient xlink:href="#ag" id="ag-tr" cx="25.5" cy="8.5" r="6.5" gradientUnits="userSpaceOnUse" />
    <linearGradient xlink:href="#ag" id="ag-l" x1="7.5" y1="17.5" x2="1" y2="17.5" gradientUnits="userSpaceOnUse" />
    <linearGradient xlink:href="#ag" id="ag-r" x1="25.5" y1="17.5" x2="32" y2="17.5" gradientUnits="userSpaceOnUse" />
    <radialGradient xlink:href="#ag" id="ag-bl" cx="7.5" cy="26.5" r="6.5" gradientUnits="userSpaceOnUse" />
    <linearGradient xlink:href="#ag" id="ag-b" x1="16.5" y1="26.5" x2="16.5" y2="33" gradientUnits="userSpaceOnUse" />
    <radialGradient xlink:href="#ag" id="ag-br" cx="25.5" cy="26.5" r="6.5" gradientUnits="userSpaceOnUse" />
  </defs>
  <g id="shadow-topleft">
    <rect width="7.5" height="7.5" x="0" y="0" fill="none" />
    <path d="M 2.08 4.928 A 6.5 6.5 0 0 0 1.086 7.5 L 1.5 7.5 A 6 6 0 0 1 2.08 4.928 z" fill="url(#ag-tl)"
      opacity="0.15" />
  </g>
  <g id="shadow-top">
    <rect width="18" height="7.5" x="7.5" y="0" fill="none" />
  </g>
  <g id="shadow-topright">
    <rect width="7.5" height="7.5" x="25.5" y="0" fill="none" />
    <path d="M 30.891 4.869 A 6 6 0 0 1 31.5 7.5 L 31.922 7.5 A 6.5 6.5 0 0 0 30.891 4.869 z" fill="url(#ag-tr)"
      opacity="0.15" />
  </g>
  <g id="shadow-left">
    <rect width="7.5" height="18" x="0" y="7.5" fill="none" />
    <path d="M 1.086 7.5 A 6.5 6.5 0 0 0 1 8.5 L 1.5 8.5 L 1.5 7.5 L 1.086 7.5 z" fill="url(#ag-tl)" opacity="0.15" />
    <rect width="0.5" height="17" x="1" y="8.5" fill="url(#ag-l)" opacity="0.15" />
  </g>
  <g id="shadow-center">
    <rect width="18" height="18" x="7.5" y="7.5" fill="none" />
  </g>
  <g id="shadow-right">
    <rect width="7.5" height="18" x="25.5" y="7.5" fill="none" />
    <path d="M 31.5 7.5 L 31.5 8.5 L 32 8.5 A 6.5 6.5 0 0 0 31.922 7.5 L 31.5 7.5 z" fill="url(#ag-tr)"
      opacity="0.15" />
    <rect width="0.5" height="17" x="31.5" y="8.5" fill="url(#ag-r)" opacity="0.15" />
  </g>
  <g id="shadow-bottomleft">
    <rect width="7.5" height="7.5" x="0" y="25.5" fill="none" />
    <path d="M 1.5 25.5 L 1.5 26.5 L 1.594 26.5 A 6 6 0 0 1 1.5 25.5 z" fill="url(#bg-l)" opacity="0.3" />
    <path d="M 1.5 26.5 A 6 6 0 0 0 7.5 32.5 L 7.5 31.5 A 6 6 0 0 1 1.594 26.5 L 1.5 26.5 z" fill="url(#bg-bl)"
      opacity="0.3" />
    <path d="M 1 25.5 L 1 26.5 L 1.594 26.5 A 6 6 0 0 1 1.5 25.5 L 1 25.5 z" fill="url(#ag-l)" opacity="0.15" />
    <path d="M 1 26.5 A 6.5 6.5 0 0 0 7.5 33 L 7.5 31.5 A 6 6 0 0 1 1.594 26.5 L 1 26.5 z" fill="url(#ag-bl)"
      opacity="0.15" />
  </g>
  <g id="shadow-bottom">
    <rect width="18" height="7.5" x="7.5" y="25.5" fill="none" />
    <rect width="18" height="1" x="7.5" y="31.5" fill="url(#bg-b)" opacity="0.3" />
    <rect width="18" height="1.5" x="7.5" y="31.5" fill="url(#ag-b)" opacity="0.15" />
  </g>
  <g id="shadow-bottomright">
    <rect width="7.5" height="7.5" x="25.5" y="25.5" fill="none" />
    <path d="M 31.5 25.5 A 6 6 0 0 1 31.406 26.5 L 31.5 26.5 L 31.5 25.5 z" fill="url(#bg-r)" opacity="0.3" />
    <path d="M 31.406 26.5 A 6 6 0 0 1 25.5 31.5 L 25.5 32.5 A 6 6 0 0 0 31.5 26.5 L 31.406 26.5 z" fill="url(#bg-br)"
      opacity="0.3" />
    <path d="M 31.5 25.5 A 6 6 0 0 1 31.406 26.5 L 32 26.5 L 32 25.5 L 31.5 25.5 z" fill="url(#ag-r)" opacity="0.15" />
    <path d="M 31.406 26.5 A 6 6 0 0 1 25.5 31.5 L 25.5 33 A 6.5 6.5 0 0 0 32 26.5 L 31.406 26.5 z" fill="url(#ag-br)"
      opacity="0.15" />
  </g>
  <rect width="30" height="30" x="1.5" y="1.5" rx="6" fill="#808080" />
  <rect id="shadow-hint-top-margin" width="1.5" height="1.5" x="15.75" y="0" fill="#ff00ff" />
  <rect id="shadow-hint-left-margin" width="1.5" height="1.5" x="0" y="15.75" fill="#ff00ff" />
  <rect id="shadow-hint-right-margin" width="1.5" height="1.5" x="31.5" y="15.75" fill="#ff00ff" />
  <rect id="shadow-hint-bottom-margin" width="1.5" height="1.5" x="15.75" y="31.5" fill="#ff00ff" />
  <g id="normal-topleft" transform="translate(0,33)">
    <path d="m 7.5,1.5 a 6,6 0 0 0 -6,6 h 6 z" class="ColorScheme-ButtonBackground" fill="currentColor" />
  </g>
  <g id="normal-top" transform="translate(0,33)">
    <rect width="18" height="6" x="7.5" y="1.5" class="ColorScheme-ButtonBackground" fill="currentColor" />
  </g>
  <g id="normal-topright" transform="translate(0,33)">
    <path d="m 25.5,1.5 a 6,6 0 0 1 6,6 h -6 z" class="ColorScheme-ButtonBackground" fill="currentColor" />
  </g>
  <g id="normal-left" transform="translate(0,33)">
    <rect width="6" height="18" x="1.5" y="7.5" class="ColorScheme-ButtonBackground" fill="currentColor" />
  </g>
  <g id="normal-center" transform="translate(0,33)">
    <rect width="18" height="18" x="7.5" y="7.5" class="ColorScheme-ButtonBackground" fill="currentColor" />
  </g>
  <g id="normal-right" transform="translate(0,33)">
    <rect width="6" height="18" x="25.5" y="7.5" class="ColorScheme-ButtonBackground" fill="currentColor" />
  </g>
  <g id="normal-bottomleft" transform="translate(0,33)">
    <path d="m 7.5,31.5 a 6,6 0 0 1 -6,-6 h 6 z" class="ColorScheme-ButtonBackground" fill="currentColor" />
  </g>
  <g id="normal-bottom" transform="translate(0,33)">
    <rect width="18" height="6" x="7.5" y="25.5" class="ColorScheme-ButtonBackground" fill="currentColor" />
  </g>
  <g id="normal-bottomright" transform="translate(0,33)">
    <path d="m 25.5,31.5 a 6,6 0 0 0 6,-6 h -6 z" class="ColorScheme-ButtonBackground" fill="currentColor" />
  </g>
  <rect id="normal-hint-top-margin" width="1.5" height="7" x="15.75" y="34.5" fill="#ff00ff" />
  <rect id="normal-hint-left-margin" width="7" height="1.5" x="1.5" y="48.75" fill="#ff00ff" />
  <rect id="normal-hint-right-margin" width="7" height="1.5" x="24.5" y="48.75" fill="#ff00ff" />
  <rect id="normal-hint-bottom-margin" width="1.5" height="7" x="15.75" y="57.5" fill="#ff00ff" />
  <g id="hover-topleft" transform="translate(0,66)">
    <path d="m 7.5,1.5 a 6,6 0 0 0 -6,6 h 6 z" class="ColorScheme-ButtonBackground" fill="currentColor" />
    <path d="m 7.5,1.5 a 6,6 0 0 0 -6,6 h 6 z" class="ColorScheme-ButtonHover" fill="currentColor" opacity="0.08" />
  </g>
  <g id="hover-top" transform="translate(0,66)">
    <rect width="18" height="6" x="7.5" y="1.5" class="ColorScheme-ButtonBackground" fill="currentColor" />
    <rect width="18" height="6" x="7.5" y="1.5" class="ColorScheme-ButtonHover" fill="currentColor" opacity="0.08" />
  </g>
  <g id="hover-topright" transform="translate(0,66)">
    <path d="m 25.5,1.5 a 6,6 0 0 1 6,6 h -6 z" class="ColorScheme-ButtonBackground" fill="currentColor" />
    <path d="m 25.5,1.5 a 6,6 0 0 1 6,6 h -6 z" class="ColorScheme-ButtonHover" fill="currentColor" opacity="0.08" />
  </g>
  <g id="hover-left" transform="translate(0,66)">
    <rect width="6" height="18" x="1.5" y="7.5" class="ColorScheme-ButtonBackground" fill="currentColor" />
    <rect width="6" height="18" x="1.5" y="7.5" class="ColorScheme-ButtonHover" fill="currentColor" opacity="0.08" />
  </g>
  <g id="hover-center" transform="translate(0,66)">
    <rect width="18" height="18" x="7.5" y="7.5" class="ColorScheme-ButtonBackground" fill="currentColor" />
    <rect width="18" height="18" x="7.5" y="7.5" class="ColorScheme-ButtonHover" fill="currentColor" opacity="0.08" />
  </g>
  <g id="hover-right" transform="translate(0,66)">
    <rect width="6" height="18" x="25.5" y="7.5" class="ColorScheme-ButtonBackground" fill="currentColor" />
    <rect width="6" height="18" x="25.5" y="7.5" class="ColorScheme-ButtonHover" fill="currentColor" opacity="0.08" />
  </g>
  <g id="hover-bottomleft" transform="translate(0,66)">
    <path d="m 7.5,31.5 a 6,6 0 0 1 -6,-6 h 6 z" class="ColorScheme-ButtonBackground" fill="currentColor" />
    <path d="m 7.5,31.5 a 6,6 0 0 1 -6,-6 h 6 z" class="ColorScheme-ButtonHover" fill="currentColor" opacity="0.08" />
  </g>
  <g id="hover-bottom" transform="translate(0,66)">
    <rect width="18" height="6" x="7.5" y="25.5" class="ColorScheme-ButtonBackground" fill="currentColor" />
    <rect width="18" height="6" x="7.5" y="25.5" class="ColorScheme-ButtonHover" fill="currentColor" opacity="0.08" />
  </g>
  <g id="hover-bottomright" transform="translate(0,66)">
    <path d="m 25.5,31.5 a 6,6 0 0 0 6,-6 h -6 z" class="ColorScheme-ButtonBackground" fill="currentColor" />
    <path d="m 25.5,31.5 a 6,6 0 0 0 6,-6 h -6 z" class="ColorScheme-ButtonHover" fill="currentColor" opacity="0.08" />
  </g>
  <rect id="hover-hint-top-margin" width="1.5" height="0.001" x="15.75" y="67.499" fill="#ff00ff" />
  <rect id="hover-hint-left-margin" width="0.001" height="1.5" x="1.499" y="81.75" fill="#ff00ff" />
  <rect id="hover-hint-right-margin" width="0.001" height="1.5" x="31.5" y="81.75" fill="#ff00ff" />
  <rect id="hover-hint-bottom-margin" width="1.5" height="0.001" x="15.75" y="97.5" fill="#ff00ff" />
  <g id="focus-topleft" transform="translate(0,99)">
    <path d="m 11,0 a 11,11 0 0 0 -11,11 h 3 a 8,8 0 0 1 8,-8 z" class="ColorScheme-ButtonFocus" fill="currentColor" />
    <path d="m 11,5 a 6,6 0 0 0 -6,6 h 6 z" class="ColorScheme-ButtonBackground" fill="currentColor" />
    <path d="m 11,5 a 6,6 0 0 0 -6,6 h 6 z" class="ColorScheme-ButtonHover" fill="currentColor" opacity="0.1" />
  </g>
  <g id="focus-top" transform="translate(0,99)">
    <rect width="18" height="3" x="11" y="0" class="ColorScheme-ButtonFocus" fill="currentColor" />
    <rect width="18" height="6" x="11" y="5" class="ColorScheme-ButtonBackground" fill="currentColor" />
    <rect width="18" height="6" x="11" y="5" class="ColorScheme-ButtonHover" fill="currentColor" opacity="0.1" />
  </g>
  <g id="focus-topright" transform="translate(0,99)">
    <path d="m 29,0 a 11,11 0 0 1 11,11 h -3 a 8,8 0 0 0 -8,-8 z" class="ColorScheme-ButtonFocus" fill="currentColor" />
    <path d="m 29,5 a 6,6 0 0 1 6,6 h -6 z" class="ColorScheme-ButtonBackground" fill="currentColor" />
    <path d="m 29,5 a 6,6 0 0 1 6,6 h -6 z" class="ColorScheme-ButtonHover" fill="currentColor" opacity="0.1" />
  </g>
  <g id="focus-left" transform="translate(0,99)">
    <rect width="3" height="18" x="0" y="11" class="ColorScheme-ButtonFocus" fill="currentColor" />
    <rect width="6" height="18" x="5" y="11" class="ColorScheme-ButtonBackground" fill="currentColor" />
    <rect width="6" height="18" x="5" y="11" class="ColorScheme-ButtonHover" fill="currentColor" opacity="0.1" />
  </g>
  <g id="focus-center" transform="translate(0,99)">
    <rect width="18" height="18" x="11" y="11" class="ColorScheme-ButtonBackground" fill="currentColor" />
    <rect width="18" height="18" x="11" y="11" class="ColorScheme-ButtonHover" fill="currentColor" opacity="0.1" />
  </g>
  <g id="focus-right" transform="translate(0,99)">
    <rect width="3" height="18" x="37" y="11" class="ColorScheme-ButtonFocus" fill="currentColor" />
    <rect width="6" height="18" x="29" y="11" class="ColorScheme-ButtonBackground" fill="currentColor" />
    <rect width="6" height="18" x="29" y="11" class="ColorScheme-ButtonHover" fill="currentColor" opacity="0.1" />
  </g>
  <g id="focus-bottomleft" transform="translate(0,99)">
    <path d="m 11,40 a 11,11 0 0 1 -11,-11 h 3 a 8,8 0 0 0 8,8 z" class="ColorScheme-ButtonFocus" fill="currentColor" />
    <path d="m 11,35 a 6,6 0 0 1 -6,-6 h 6 z" class="ColorScheme-ButtonBackground" fill="currentColor" />
    <path d="m 11,35 a 6,6 0 0 1 -6,-6 h 6 z" class="ColorScheme-ButtonHover" fill="currentColor" opacity="0.1" />
  </g>
  <g id="focus-bottom" transform="translate(0,99)">
    <rect width="18" height="3" x="11" y="37" class="ColorScheme-ButtonFocus" fill="currentColor" />
    <rect width="18" height="6" x="11" y="29" class="ColorScheme-ButtonBackground" fill="currentColor" />
    <rect width="18" height="6" x="11" y="29" class="ColorScheme-ButtonHover" fill="currentColor" opacity="0.1" />
  </g>
  <g id="focus-bottomright" transform="translate(0,99)">
    <path d="m 29,40 a 11,11 0 0 0 11,-11 h -3 a 8,8 0 0 1 -8,8 z" class="ColorScheme-ButtonFocus"
      fill="currentColor" />
    <path d="m 29,35 a 6,6 0 0 0 6,-6 h -6 z" class="ColorScheme-ButtonBackground" fill="currentColor" />
    <path d="m 29,35 a 6,6 0 0 0 6,-6 h -6 z" class="ColorScheme-ButtonHover" fill="currentColor" opacity="0.1" />
  </g>
  <rect id="focus-hint-top-margin" width="1.5" height="5" x="19.25" y="99" fill="#ff00ff" />
  <rect id="focus-hint-left-margin" width="5" height="1.5" x="0" y="118.25" fill="#ff00ff" />
  <rect id="focus-hint-right-margin" width="5" height="1.5" x="35" y="118.25" fill="#ff00ff" />
  <rect id="focus-hint-bottom-margin" width="1.5" height="5" x="19.25" y="134" fill="#ff00ff" />
  <g id="pressed-topleft" transform="translate(0,139)">
    <path d="m 7.5,1.5 a 6,6 0 0 0 -6,6 h 6 z" class="ColorScheme-ButtonBackground" fill="currentColor" />
    <path d="m 7.5,1.5 a 6,6 0 0 0 -6,6 h 6 z" class="ColorScheme-ButtonHover" fill="currentColor" opacity="0.1" />
  </g>
  <g id="pressed-top" transform="translate(0,139)">
    <rect width="18" height="6" x="7.5" y="1.5" class="ColorScheme-ButtonBackground" fill="currentColor" />
    <rect width="18" height="6" x="7.5" y="1.5" class="ColorScheme-ButtonHover" fill="currentColor" opacity="0.1" />
  </g>
  <g id="pressed-topright" transform="translate(0,139)">
    <path d="m 25.5,1.5 a 6,6 0 0 1 6,6 h -6 z" class="ColorScheme-ButtonBackground" fill="currentColor" />
    <path d="m 25.5,1.5 a 6,6 0 0 1 6,6 h -6 z" class="ColorScheme-ButtonHover" fill="currentColor" opacity="0.1" />
  </g>
  <g id="pressed-left" transform="translate(0,139)">
    <rect width="6" height="18" x="1.5" y="7.5" class="ColorScheme-ButtonBackground" fill="currentColor" />
    <rect width="6" height="18" x="1.5" y="7.5" class="ColorScheme-ButtonHover" fill="currentColor" opacity="0.1" />
  </g>
  <g id="pressed-center" transform="translate(0,139)">
    <rect width="18" height="18" x="7.5" y="7.5" class="ColorScheme-ButtonBackground" fill="currentColor" />
    <rect width="18" height="18" x="7.5" y="7.5" class="ColorScheme-ButtonHover" fill="currentColor" opacity="0.1" />
  </g>
  <g id="pressed-right" transform="translate(0,139)">
    <rect width="6" height="18" x="25.5" y="7.5" class="ColorScheme-ButtonBackground" fill="currentColor" />
    <rect width="6" height="18" x="25.5" y="7.5" class="ColorScheme-ButtonHover" fill="currentColor" opacity="0.1" />
  </g>
  <g id="pressed-bottomleft" transform="translate(0,139)">
    <path d="m 7.5,31.5 a 6,6 0 0 1 -6,-6 h 6 z" class="ColorScheme-ButtonBackground" fill="currentColor" />
    <path d="m 7.5,31.5 a 6,6 0 0 1 -6,-6 h 6 z" class="ColorScheme-ButtonHover" fill="currentColor" opacity="0.1" />
  </g>
  <g id="pressed-bottom" transform="translate(0,139)">
    <rect width="18" height="6" x="7.5" y="25.5" class="ColorScheme-ButtonBackground" fill="currentColor" />
    <rect width="18" height="6" x="7.5" y="25.5" class="ColorScheme-ButtonHover" fill="currentColor" opacity="0.1" />
  </g>
  <g id="pressed-bottomright" transform="translate(0,139)">
    <path d="m 25.5,31.5 a 6,6 0 0 0 6,-6 h -6 z" class="ColorScheme-ButtonBackground" fill="currentColor" />
    <path d="m 25.5,31.5 a 6,6 0 0 0 6,-6 h -6 z" class="ColorScheme-ButtonHover" fill="currentColor" opacity="0.1" />
  </g>
  <rect id="pressed-hint-top-margin" width="1.5" height="7" x="15.75" y="140.5" fill="#ff00ff" />
  <rect id="pressed-hint-left-margin" width="7" height="1.5" x="1.5" y="154.75" fill="#ff00ff" />
  <rect id="pressed-hint-right-margin" width="7" height="1.5" x="24.5" y="154.75" fill="#ff00ff" />
  <rect id="pressed-hint-bottom-margin" width="1.5" height="7" x="15.75" y="163.5" fill="#ff00ff" />
  <g id="toolbutton-hover-topleft" transform="translate(33,66)">
    <path d="m 7.5,1.5 a 6,6 0 0 0 -6,6 h 6 z" class="ColorScheme-ButtonHover" fill="currentColor" opacity="0.08" />
  </g>
  <g id="toolbutton-hover-top" transform="translate(33,66)">
    <rect width="18" height="6" x="7.5" y="1.5" class="ColorScheme-ButtonHover" fill="currentColor" opacity="0.08" />
  </g>
  <g id="toolbutton-hover-topright" transform="translate(33,66)">
    <path d="m 25.5,1.5 a 6,6 0 0 1 6,6 h -6 z" class="ColorScheme-ButtonHover" fill="currentColor" opacity="0.08" />
  </g>
  <g id="toolbutton-hover-left" transform="translate(33,66)">
    <rect width="6" height="18" x="1.5" y="7.5" class="ColorScheme-ButtonHover" fill="currentColor" opacity="0.08" />
  </g>
  <g id="toolbutton-hover-center" transform="translate(33,66)">
    <rect width="18" height="18" x="7.5" y="7.5" class="ColorScheme-ButtonHover" fill="currentColor" opacity="0.08" />
  </g>
  <g id="toolbutton-hover-right" transform="translate(33,66)">
    <rect width="6" height="18" x="25.5" y="7.5" class="ColorScheme-ButtonHover" fill="currentColor" opacity="0.08" />
  </g>
  <g id="toolbutton-hover-bottomleft" transform="translate(33,66)">
    <path d="m 7.5,31.5 a 6,6 0 0 1 -6,-6 h 6 z" class="ColorScheme-ButtonHover" fill="currentColor" opacity="0.08" />
  </g>
  <g id="toolbutton-hover-bottom" transform="translate(33,66)">
    <rect width="18" height="6" x="7.5" y="25.5" class="ColorScheme-ButtonHover" fill="currentColor" opacity="0.08" />
  </g>
  <g id="toolbutton-hover-bottomright" transform="translate(33,66)">
    <path d="m 25.5,31.5 a 6,6 0 0 0 6,-6 h -6 z" class="ColorScheme-ButtonHover" fill="currentColor" opacity="0.08" />
  </g>
  <rect id="toolbutton-hover-hint-top-margin" width="1.5" height="5" x="48.75" y="67.5" fill="#ff00ff" />
  <rect id="toolbutton-hover-hint-left-margin" width="5" height="1.5" x="34.5" y="81.75" fill="#ff00ff" />
  <rect id="toolbutton-hover-hint-right-margin" width="5" height="1.5" x="59.5" y="81.75" fill="#ff00ff" />
  <rect id="toolbutton-hover-hint-bottom-margin" width="1.5" height="5" x="48.75" y="92.5" fill="#ff00ff" />
  <g id="toolbutton-focus-topleft" transform="translate(40,99)">
    <path d="m 11,0 a 11,11 0 0 0 -11,11 h 3 a 8,8 0 0 1 8,-8 z" class="ColorScheme-ButtonFocus" fill="currentColor" />
    <path d="m 11,5 a 6,6 0 0 0 -6,6 h 6 z" class="ColorScheme-ButtonHover" fill="currentColor" opacity="0.1" />
  </g>
  <g id="toolbutton-focus-top" transform="translate(40,99)">
    <rect width="18" height="3" x="11" y="0" class="ColorScheme-ButtonFocus" fill="currentColor" />
    <rect width="18" height="6" x="11" y="5" class="ColorScheme-ButtonHover" fill="currentColor" opacity="0.1" />
  </g>
  <g id="toolbutton-focus-topright" transform="translate(40,99)">
    <path d="m 29,0 a 11,11 0 0 1 11,11 h -3 a 8,8 0 0 0 -8,-8 z" class="ColorScheme-ButtonFocus" fill="currentColor" />
    <path d="m 29,5 a 6,6 0 0 1 6,6 h -6 z" class="ColorScheme-ButtonHover" fill="currentColor" opacity="0.1" />
  </g>
  <g id="toolbutton-focus-left" transform="translate(40,99)">
    <rect width="3" height="18" x="0" y="11" class="ColorScheme-ButtonFocus" fill="currentColor" />
    <rect width="6" height="18" x="5" y="11" class="ColorScheme-ButtonHover" fill="currentColor" opacity="0.1" />
  </g>
  <g id="toolbutton-focus-center" transform="translate(40,99)">
    <rect width="18" height="18" x="11" y="11" class="ColorScheme-ButtonHover" fill="currentColor" opacity="0.1" />
  </g>
  <g id="toolbutton-focus-right" transform="translate(40,99)">
    <rect width="3" height="18" x="37" y="11" class="ColorScheme-ButtonFocus" fill="currentColor" />
    <rect width="6" height="18" x="29" y="11" class="ColorScheme-ButtonHover" fill="currentColor" opacity="0.1" />
  </g>
  <g id="toolbutton-focus-bottomleft" transform="translate(40,99)">
    <path d="m 11,40 a 11,11 0 0 1 -11,-11 h 3 a 8,8 0 0 0 8,8 z" class="ColorScheme-ButtonFocus" fill="currentColor" />
    <path d="m 11,35 a 6,6 0 0 1 -6,-6 h 6 z" class="ColorScheme-ButtonHover" fill="currentColor" opacity="0.1" />
  </g>
  <g id="toolbutton-focus-bottom" transform="translate(40,99)">
    <rect width="18" height="3" x="11" y="37" class="ColorScheme-ButtonFocus" fill="currentColor" />
    <rect width="18" height="6" x="11" y="29" class="ColorScheme-ButtonHover" fill="currentColor" opacity="0.1" />
  </g>
  <g id="toolbutton-focus-bottomright" transform="translate(40,99)">
    <path d="m 29,40 a 11,11 0 0 0 11,-11 h -3 a 8,8 0 0 1 -8,8 z" class="ColorScheme-ButtonFocus"
      fill="currentColor" />
    <path d="m 29,35 a 6,6 0 0 0 6,-6 h -6 z" class="ColorScheme-ButtonHover" fill="currentColor" opacity="0.1" />
  </g>
  <rect id="toolbutton-focus-hint-top-margin" width="1.5" height="5" x="59.25" y="99" fill="#ff00ff" />
  <rect id="toolbutton-focus-hint-left-margin" width="5" height="1.5" x="40" y="118.25" fill="#ff00ff" />
  <rect id="toolbutton-focus-hint-right-margin" width="5" height="1.5" x="75" y="118.25" fill="#ff00ff" />
  <rect id="toolbutton-focus-hint-bottom-margin" width="1.5" height="5" x="59.25" y="134" fill="#ff00ff" />
  <g id="toolbutton-pressed-topleft" transform="translate(33,139)">
    <path d="m 7.5,1.5 a 6,6 0 0 0 -6,6 h 6 z" class="ColorScheme-ButtonHover" fill="currentColor" opacity="0.1" />
  </g>
  <g id="toolbutton-pressed-top" transform="translate(33,139)">
    <rect width="18" height="6" x="7.5" y="1.5" class="ColorScheme-ButtonHover" fill="currentColor" opacity="0.1" />
  </g>
  <g id="toolbutton-pressed-topright" transform="translate(33,139)">
    <path d="m 25.5,1.5 a 6,6 0 0 1 6,6 h -6 z" class="ColorScheme-ButtonHover" fill="currentColor" opacity="0.1" />
  </g>
  <g id="toolbutton-pressed-left" transform="translate(33,139)">
    <rect width="6" height="18" x="1.5" y="7.5" class="ColorScheme-ButtonHover" fill="currentColor" opacity="0.1" />
  </g>
  <g id="toolbutton-pressed-center" transform="translate(33,139)">
    <rect width="18" height="18" x="7.5" y="7.5" class="ColorScheme-ButtonHover" fill="currentColor" opacity="0.1" />
  </g>
  <g id="toolbutton-pressed-right" transform="translate(33,139)">
    <rect width="6" height="18" x="25.5" y="7.5" class="ColorScheme-ButtonHover" fill="currentColor" opacity="0.1" />
  </g>
  <g id="toolbutton-pressed-bottomleft" transform="translate(33,139)">
    <path d="m 7.5,31.5 a 6,6 0 0 1 -6,-6 h 6 z" class="ColorScheme-ButtonHover" fill="currentColor" opacity="0.1" />
  </g>
  <g id="toolbutton-pressed-bottom" transform="translate(33,139)">
    <rect width="18" height="6" x="7.5" y="25.5" class="ColorScheme-ButtonHover" fill="currentColor" opacity="0.1" />
  </g>
  <g id="toolbutton-pressed-bottomright" transform="translate(33,139)">
    <path d="m 25.5,31.5 a 6,6 0 0 0 6,-6 h -6 z" class="ColorScheme-ButtonHover" fill="currentColor" opacity="0.1" />
  </g>
  <rect id="toolbutton-pressed-hint-top-margin" width="1.5" height="5" x="48.75" y="140.5" fill="#ff00ff" />
  <rect id="toolbutton-pressed-hint-left-margin" width="5" height="1.5" x="34.5" y="154.75" fill="#ff00ff" />
  <rect id="toolbutton-pressed-hint-right-margin" width="5" height="1.5" x="59.5" y="154.75" fill="#ff00ff" />
  <rect id="toolbutton-pressed-hint-bottom-margin" width="1.5" height="5" x="48.75" y="165.5" fill="#ff00ff" />
  <g id="mask-normal-topleft" transform="translate(33,33)">
    <path d="m 7.5,1.5 a 6,6 0 0 0 -6,6 h 6 z" />
  </g>
  <g id="mask-normal-top" transform="translate(33,33)">
    <rect width="18" height="6" x="7.5" y="1.5" />
  </g>
  <g id="mask-normal-topright" transform="translate(33,33)">
    <path d="m 25.5,1.5 a 6,6 0 0 1 6,6 h -6 z" />
  </g>
  <g id="mask-normal-left" transform="translate(33,33)">
    <rect width="6" height="18" x="1.5" y="7.5" />
  </g>
  <g id="mask-normal-center" transform="translate(33,33)">
    <rect width="18" height="18" x="7.5" y="7.5" />
  </g>
  <g id="mask-normal-right" transform="translate(33,33)">
    <rect width="6" height="18" x="25.5" y="7.5" />
  </g>
  <g id="mask-normal-bottomleft" transform="translate(33,33)">
    <path d="m 7.5,31.5 a 6,6 0 0 1 -6,-6 h 6 z" />
  </g>
  <g id="mask-normal-bottom" transform="translate(33,33)">
    <rect width="18" height="6" x="7.5" y="25.5" />
  </g>
  <g id="mask-normal-bottomright" transform="translate(33,33)">
    <path d="m 25.5,31.5 a 6,6 0 0 0 6,-6 h -6 z" />
  </g>
  <rect id="normal-hint-compose-over-border" width="4" height="4" x="33" y="0" fill="#00ff00" />
  <rect id="pressed-hint-compose-over-border" width="4" height="4" x="33" y="4" fill="#00ff00" />
</svg>