<?xml version="1.0" encoding="UTF-8" standalone="no"?>
<svg id="svg2" width="200" height="200" version="1.0" sodipodi:docname="clock.svg"
  inkscape:version="1.3.2 (091e20e, 2023-11-25, custom)" xmlns:inkscape="http://www.inkscape.org/namespaces/inkscape"
  xmlns:sodipodi="http://sodipodi.sourceforge.net/DTD/sodipodi-0.dtd" xmlns:xlink="http://www.w3.org/1999/xlink"
  xmlns="http://www.w3.org/2000/svg" xmlns:svg="http://www.w3.org/2000/svg">
  <defs id="defs1">
    <style id="current-color-scheme" type="text/css">
      .ColorScheme-Text {
        color: #7B7C7E;
      }

      .ColorScheme-Background {
        color: #EFF0F1;
      }

      .ColorScheme-Highlight {
        color: #3DAEE6;
      }

      .ColorScheme-ViewText {
        color: #7B7C7E;
      }

      .ColorScheme-ViewBackground {
        color: #FCFCFC;
      }

      .ColorScheme-ViewHover {
        color: #3DAEE6;
      }

      .ColorScheme-ViewFocus {
        color: #1E92FF;
      }

      .ColorScheme-ButtonText {
        color: #7B7C7E;
      }

      .ColorScheme-ButtonBackground {
        color: #EFF0F1;
      }

      .ColorScheme-ButtonHover {
        color: #3DAEE6;
      }

      .ColorScheme-ButtonFocus {
        color: #1E92FF;
      }
    </style>
    <linearGradient id="linearGradient-1">
      <stop style="stop-color:#232629;stop-opacity:1;" offset="0" id="stop4013" />
      <stop id="stop4019" offset="0.89999998" style="stop-color:#232629;stop-opacity:0.52348995;" />
      <stop style="stop-color:#232629;stop-opacity:0.10738255;" offset="0.95999998" id="stop4021" />
      <stop style="stop-color:#232629;stop-opacity:0;" offset="1" id="stop4015" />
    </linearGradient>
    <filter id="filter-1" width="1.1461685" height="1.141171" x="-0.073084249" y="-0.070585509"
      color-interpolation-filters="sRGB">
      <feGaussianBlur stdDeviation="0.876" id="feGaussianBlur1" />
    </filter>
    <filter id="filter-2" width="1.12264" height="1.9054202" x="-0.061319997" y="-0.45271011"
      color-interpolation-filters="sRGB">
      <feGaussianBlur stdDeviation="0.511" id="feGaussianBlur2" />
    </filter>
    <filter id="filter-3" width="1.12264" x="-0.061319997" y="-0.45271011" height="1.9054202"
      color-interpolation-filters="sRGB">
      <feGaussianBlur stdDeviation="0.511" id="feGaussianBlur3" />
    </filter>
    <filter id="filter-4" width="1.9054263" height="1.12264" x="-0.45271314" y="-0.061319997"
      color-interpolation-filters="sRGB">
      <feGaussianBlur stdDeviation="0.511" id="feGaussianBlur4" />
    </filter>
    <radialGradient xlink:href="#linearGradient-1" id="radialGradient-1" gradientUnits="userSpaceOnUse" cx="1255.8716"
      cy="382.72916" r="96.605507" gradientTransform="matrix(1.0765432,0,0,1.0765432,-1252,-310.02447)" />
  </defs>
  <g id="ClockFace">
    <rect y="-7" x="-7" height="214" width="214" fill="none" id="rect1" />
    <path
      d="m 204.00003,102 a 104,104 0 0 1 -104,104 A 104,104 0 0 1 -3.9999631,102 104,104 0 0 1 100.00003,-2.0000002 104,104 0 0 1 204.00003,102 Z"
      fill="url(#radialGradient-1)" id="path1" />
    <path
      d="M 196.6061,99.9995 A 96.605507,96.605507 0 0 1 100.0006,196.605 96.605507,96.605507 0 0 1 3.3951,99.9995 96.605507,96.605507 0 0 1 100.0006,3.39399 96.605507,96.605507 0 0 1 196.6061,99.9995 Z"
      class="ColorScheme-ViewBackground" fill="currentColor" id="path2" />
    <path
      d="m 56.3907,23.15035 -0.8437,0.5 2.0937,3.59375 c 0.2777,-0.16344 0.564,-0.30841 0.8437,-0.46875 z m 87.87497,0 -2.0313,3.53125 c 0.2926,0.16682 0.5847,0.3298 0.875,0.5 l 2.0313,-3.53125 z m -95.68747,5.03125 -0.8125,0.5625 2.4687,3.40625 c 0.2689,-0.19888 0.5412,-0.398 0.8126,-0.59375 z m 103.49997,0 -2.375,3.28125 c 0.2668,0.19173 0.5481,0.36775 0.8125,0.5625 l 2.375,-3.28125 z m -110.74997,5.8125 -0.7188,0.65625 2.7813,3.09375 c 0.2398,-0.21947 0.5076,-0.40827 0.75,-0.625 z m 117.99997,0 -2.7188,3 c 0.2483,0.22104 0.5045,0.43234 0.75,0.65625 l 2.7188,-3 z m -124.59377,6.53125 -0.6562,0.75 3.125,2.8125 c 0.2192,-0.24732 0.4342,-0.50529 0.6562,-0.75 z m 131.18757,0 -3,2.6875 c 0.2326,0.25546 0.4579,0.52294 0.6874,0.78125 l 3,-2.71875 z m -137.06257,7.1875 -0.5937,0.78125 3.4375,2.5 c 0.1922,-0.26833 0.3673,-0.54652 0.5625,-0.8125 z m 142.93757,0 -3.25,2.375 c 0.1905,0.25885 0.3748,0.52016 0.5624,0.78125 l 3.2813,-2.375 z m -148.06257,7.75 -0.5,0.875 3.6876,2.125 c 0.1656,-0.2917 0.3309,-0.58548 0.5,-0.875 z m 153.18757,0 -3.5,2.03125 c 0.17,0.29042 0.3333,0.58239 0.5,0.875 l 3.5,-2.03125 z m -157.43757,8.25 -0.4062,0.90625 3.875,1.71875 c 0.1333,-0.30532 0.2695,-0.60282 0.4062,-0.90625 z m 161.68757,0 -3.6876,1.625 c 0.1363,0.3014 0.2735,0.60298 0.4063,0.90625 l 3.6875,-1.625 z M 16.1094,72.3691 l -0.3124,0.9375 4.0624,1.3125 c 0.098,-0.30841 0.1804,-0.63063 0.2813,-0.9375 z m 168.43757,0 -3.8438,1.25 c 0.1021,0.30968 0.2139,0.62625 0.3125,0.9375 l 3.8437,-1.25 z m -170.90627,8.96875 -0.1875,0.96875 4.1562,0.875 c 0.066,-0.32409 0.1492,-0.64602 0.2188,-0.96875 z m 173.34367,0 -3.9374,0.84375 c 0.069,0.32066 0.1218,0.64674 0.1874,0.96875 l 3.9688,-0.84375 z M 12.172,90.4941 l -0.125,0.96875 4.2812,0.4375 c 0.031,-0.32197 0.059,-0.64784 0.094,-0.96875 l -4.25,-0.4375 z m 176.34367,0 -4.0625,0.4375 c 0.035,0.32091 0.063,0.64678 0.094,0.96875 l 4.0624,-0.4375 -0.094,-0.96875 z m -172.15627,18.09375 -4.3124,0.4375 0.125,1 4.2812,-0.4375 c -0.037,-0.33266 -0.061,-0.66618 -0.094,-1 z m 168.15627,0 c -0.033,0.33382 -0.057,0.66734 -0.094,1 l 4.0937,0.4375 0.094,-1 z M 17.672,117.3066 l -4.2188,0.90625 0.1875,0.96875 4.25,-0.90625 c -0.071,-0.32234 -0.1519,-0.64505 -0.2187,-0.96875 z m 165.53117,0.0625 c -0.067,0.32362 -0.148,0.6465 -0.2188,0.96875 l 4,0.84375 0.2188,-0.96875 z m -163.28117,8.46875 -4.125,1.34375 0.3124,0.96875 4.125,-1.34375 c -0.1075,-0.32327 -0.2087,-0.64375 -0.3124,-0.96875 z m 160.99997,0.0625 c -0.1041,0.32488 -0.2047,0.64559 -0.3126,0.96875 l 3.9376,1.28125 0.3124,-0.96875 z M 23.047,134.1191 l -3.9688,1.78125 0.4062,0.90625 3.9688,-1.78125 c -0.1376,-0.30308 -0.2721,-0.60127 -0.4062,-0.90625 z m 154.74997,0.0937 c -0.1339,0.30333 -0.269,0.60481 -0.4063,0.90625 l 3.7813,1.6875 0.4062,-0.90625 z m -150.74997,7.78125 -3.8126,2.1875 0.5,0.875 3.8126,-2.1875 c -0.1699,-0.28898 -0.3335,-0.58384 -0.5,-0.875 z m 146.74997,0.0937 c -0.1676,0.29207 -0.3292,0.58514 -0.5,0.875 l 3.625,2.09375 0.5,-0.875 z M 31.797,149.4315 l -3.5313,2.5625 0.5937,0.8125 3.5313,-2.5625 c -0.1995,-0.27029 -0.3974,-0.53977 -0.5937,-0.8125 z m 137.18737,0.0937 c -0.1931,0.26753 -0.3662,0.54733 -0.5624,0.8125 l 3.375,2.46875 0.5937,-0.8125 z m -131.62497,6.78125 -3.2812,2.9375 0.6562,0.75 3.2813,-2.9375 c -0.2242,-0.24569 -0.4349,-0.50167 -0.6563,-0.75 z m 126.09377,0.0937 c -0.2264,0.25327 -0.4581,0.49949 -0.6875,0.75 l 3.1563,2.84375 0.6874,-0.75 z m -119.93747,6.1875 -2.9063,3.25 0.7188,0.6875 2.9375,-3.28125 c -0.2482,-0.22104 -0.5044,-0.43234 -0.75,-0.65625 z m 113.71867,0.0937 c -0.251,0.22809 -0.4961,0.46241 -0.75,0.6875 l 2.8438,3.15625 0.75,-0.6875 z m -106.90617,5.5 -2.5625,3.53125 0.8125,0.59375 2.5625,-3.53125 c -0.2716,-0.19534 -0.5433,-0.39528 -0.8125,-0.59375 z m 100.06247,0.0937 c -0.2696,0.19791 -0.5404,0.39898 -0.8125,0.59375 l 2.5,3.4375 0.8125,-0.59375 z m -92.65627,4.78125 -2.1874,3.78125 0.8437,0.5 2.1875,-3.8125 c -0.28,-0.15998 -0.5658,-0.30567 -0.8438,-0.46875 z m 85.24997,0.0625 c -0.2828,0.16517 -0.5588,0.33803 -0.8437,0.5 l 2.125,3.71875 0.875,-0.5 z m -77.43737,4 -1.75,3.96875 0.9062,0.40625 1.7812,-3.96875 c -0.3132,-0.13766 -0.6262,-0.26491 -0.9374,-0.40625 z m 69.62497,0.0937 c -0.3079,0.13886 -0.6278,0.27098 -0.9376,0.40625 l 1.7188,3.875 0.9375,-0.40625 z m -61.37497,3.125 -1.3438,4.15625 0.9375,0.3125 1.3437,-4.15625 c -0.3141,-0.10014 -0.625,-0.2088 -0.9374,-0.3125 z m 53.09367,0.0625 c -0.3222,0.10608 -0.6448,0.2102 -0.9687,0.3125 l 1.3437,4.09375 0.9687,-0.3125 z m -44.5937,2.25 -0.90627,4.25 0.99997,0.21875 0.9063,-4.25 c -0.3338,-0.0688 -0.6678,-0.14601 -1,-0.21875 z m 36.0624,0.0625 c -0.3265,0.0705 -0.6408,0.15204 -0.9687,0.21875 l 0.9063,4.1875 0.9687,-0.21875 z m -27.3124,1.375 -0.4688,4.34375 1,0.0937 0.4375,-4.3125 c -0.3249,-0.0321 -0.6449,-0.0892 -0.9687,-0.125 z m 18.5937,0.0313 c -0.323,0.035 -0.6447,0.0624 -0.9687,0.0937 l 0.4374,4.3125 0.9688,-0.0937 z"
      class="ColorScheme-ViewText" fill="currentColor" opacity="0.6" id="path3" />
    <path
      d="m 105.6918,13.56457 c 2.7474,2e-5 4.9479,0.72268 6.6015,2.16796 1.6667,1.43232 2.5,3.39196 2.5,5.87891 0,1.69273 -0.4362,3.28778 -1.3086,4.78516 -0.8724,1.48439 -2.2135,3.19662 -4.0234,5.13672 l -8.2617,8.80859 h 13.0273 v 3.00781 H 97.7816 v -3.6914 l 9.3945,-10.6836 c 1.2761,-1.45832 2.2331,-2.72785 2.8711,-3.80859 0.6511,-1.09373 0.9766,-2.17446 0.9766,-3.24219 0,-1.66664 -0.4753,-2.93617 -1.4258,-3.80859 -0.9505,-0.87237 -2.2851,-1.30857 -4.0039,-1.3086 -2.5521,3e-5 -4.6419,0.82034 -6.2695,2.46094 l -1.1328,-3.06641 c 1.914,-1.75778 4.414,-2.63669 7.5,-2.63671 m -14.8802,1.23046 h 3.4961 V 43.34972 H 90.8116 V 18.05675 c -1.6015,1.06774 -3.1966,1.95966 -4.7851,2.67578 v -3.0664 c 1.25,-0.54685 2.845,-1.50388 4.7851,-2.8711"
      fill="#232629" opacity="0.443" filter="url(#filter-1)" id="path4" />
    <path
      d="m 105.6918,12.36483 c 2.7474,3e-5 4.9479,0.72268 6.6015,2.16797 1.6667,1.43231 2.5,3.39195 2.5,5.8789 0,1.69273 -0.4362,3.28778 -1.3086,4.78516 -0.8724,1.48439 -2.2135,3.19663 -4.0234,5.13672 l -8.2617,8.80859 h 13.0273 v 3.00781 H 97.7816 v -3.6914 l 9.3945,-10.6836 c 1.2761,-1.45831 2.2331,-2.72784 2.8711,-3.80859 0.6511,-1.09373 0.9766,-2.17446 0.9766,-3.24219 0,-1.66664 -0.4753,-2.93617 -1.4258,-3.80859 -0.9505,-0.87237 -2.2851,-1.30857 -4.0039,-1.30859 -2.5521,2e-5 -4.6419,0.82033 -6.2695,2.46093 l -1.1328,-3.0664 c 1.914,-1.75779 4.414,-2.63669 7.5,-2.63672 M 90.8116,13.5953 h 3.4961 V 42.14998 H 90.8116 V 16.85702 c -1.6015,1.06773 -3.1966,1.95965 -4.7851,2.67578 v -3.06641 c 1.25,-0.54685 2.845,-1.50388 4.7851,-2.87109"
      class="ColorScheme-ButtonFocus" fill="currentColor" id="path5" />
    <rect width="20" height="2.7090182" x="10.016269" y="100.15372" fill="#212121" opacity="0.413"
      filter="url(#filter-2)" id="rect5" />
    <rect width="20" height="2.7090182" x="9.9081144" y="98.942055" class="ColorScheme-ButtonFocus" fill="currentColor"
      id="rect6" />
    <rect width="20" height="2.7090182" x="171.1163" y="100.1547" fill="#1c1c1c" opacity="0.361" filter="url(#filter-3)"
      id="rect7" />
    <rect width="20" height="2.7090182" x="171.108" y="98.942055" class="ColorScheme-ButtonFocus" fill="currentColor"
      id="rect8" />
    <rect width="2.709" height="20" x="98.963" y="172.81" fill="#2a2a2a" opacity="0.524" filter="url(#filter-4)"
      id="rect9" />
    <rect width="2.709" height="20" x="99.054" y="171.597" class="ColorScheme-ButtonFocus" fill="currentColor"
      id="rect10" />
    <path
      d="M 196.6061,99.9995 A 96.605507,96.605507 0 0 1 100.0006,196.605 96.605507,96.605507 0 0 1 3.3951,99.9995 96.605507,96.605507 0 0 1 100.0006,3.39399 96.605507,96.605507 0 0 1 196.6061,99.9995 Z"
      fill="none" stroke="#70767a" opacity="0.677" id="path10" />
    <path
      d="m 172.33657,57.14796 4.0274,-2.3252 1.3545,2.34607 -4.0274,2.3252 z m -149.43492,86.2763 4.0273,-2.32515 1.3545,2.34607 -4.0273,2.32515 z"
      class="ColorScheme-ViewText" fill="currentColor" id="path6" />
    <path
      d="m 141.11257,26.91552 2.3252,-4.02738 2.3461,1.35451 -2.3252,4.02738 z m -86.27632,149.43492 2.3252,-4.02729 2.3461,1.35451 -2.3252,4.02729 z"
      class="ColorScheme-ViewText" fill="currentColor" id="path7" />
    <path
      d="m 26.92905,59.49407 -4.0274,-2.32521 1.3545,-2.34608 4.0274,2.3252 z m 149.43492,86.27629 -4.0273,-2.3252 1.3545,-2.34614 4.0273,2.32526 z"
      class="ColorScheme-ViewText" fill="currentColor" id="path8" />
    <path
      d="m 57.16145,28.27007 -2.3252,-4.02739 2.3461,-1.35452 2.3252,4.02738 z m 86.27632,149.43491 -2.3251,-4.02733 2.3461,-1.35457 2.3251,4.02738 z"
      class="ColorScheme-ViewText" fill="currentColor" id="path9" />
  </g>
  <g id="HourHand" class="ColorScheme-ViewText" fill="currentColor">
    <rect width="18" height="64" x="31" y="91" fill="none" id="rect2" />
    <path
      d="m 37.100041,148.34998 2.979749,5.20872 2.894308,-5.32235 -0.06214,0.001 0.0344,-43.12752 -5.811862,0.0818 -0.03451,43.12733 z"
      id="path11" />
    <path
      d="m 36.100044,94.800707 a 6.4994531,6.4994531 0 0 1 9.099224,1.299683 6.4994531,6.4994531 0 0 1 -1.299693,9.09929 6.4994531,6.4994531 0 0 1 -9.099292,-1.29975 6.4994531,6.4994531 0 0 1 1.299761,-9.099223 z"
      id="path12" />
  </g>
  <g id="MinuteHand" class="ColorScheme-ViewText" fill="currentColor" opacity="0.75">
    <rect width="12" height="85" x="62" y="94" fill="none" id="rect3" />
    <path d="m 69.545348,101.17726 -0.02535,75.73595 -3,-9.8e-4 0.02535,-75.73594 z" opacity="0.75" id="path13" />
    <path
      d="m 66.123775,103.20061 a 3.6705737,3.6705737 0 0 1 -1.324393,-5.019159 3.6705737,3.6705737 0 0 1 5.019199,-1.324403 3.6705737,3.6705737 0 0 1 1.324369,5.019212 3.6705737,3.6705737 0 0 1 -5.019175,1.32435 z"
      id="path14" />
  </g>
  <g id="SecondHand" class="ColorScheme-ButtonFocus">
    <rect width="1.788" height="77.37" x="125.1" y="99.367" fill="currentColor" id="rect4" />
    <path
      d="m 125.04591,101.71342 c -0.92548,-0.5352 -1.24186,-1.719321 -0.70666,-2.644787 0.53521,-0.925492 1.71933,-1.241871 2.64481,-0.706665 0.92548,0.535206 1.24186,1.719322 0.70665,2.644812 -0.5352,0.92547 -1.71932,1.24185 -2.6448,0.70664 z"
      fill="currentColor" id="path15" />
    <rect width="8.0000019" height="6.999999" x="122" y="96" fill="none" id="rect15" />
  </g>


  <g style="opacity:0.1;fill:#232629;fill-opacity:1" id="SecondHandShadow"
    transform="matrix(-0.50061728,0.86566872,-0.86566872,-0.50061728,1146.4953,-489.71587)">
    <path transform="matrix(0.8660254,-0.5,0.5,0.8660254,0,0)" style="fill:#232629;stroke:none"
      d="m 591.80505,1011.186 75.73595,0 0,1.7321 -75.73595,0 z" id="rect4414" />
    <circle style="fill:#232629;fill-opacity:0.00392157;stroke:none" id="path4416"
      transform="matrix(0.29783451,0,0,0.29783451,489.8134,467.44934)"
      d="m 1777.8958,382.03223 a 6.4994531,6.4994531 0 0 1 -6.4994,6.49945 6.4994531,6.4994531 0 0 1 -6.4995,-6.49945 6.4994531,6.4994531 0 0 1 6.4995,-6.49946 6.4994531,6.4994531 0 0 1 6.4994,6.49946 z" />
    <rect style="opacity:0.01000001;fill:#232629;fill-opacity:0.60392157;stroke:none" id="rect4715" width="5.999999"
      height="82" x="113" y="97"
      transform="matrix(-0.50061728,-0.86566873,0.86566873,-0.50061728,988.87596,731.74286)" />
  </g>


  <g id="MinuteHandShadow" transform="matrix(-0.50330119,0.86411105,-0.86411105,-0.50330119,1092.352,-486.65826)"
    style="opacity:0.1;fill:#232629;fill-opacity:1">
    <path style="fill:#232629;stroke:none;stroke-width:1.02131093"
      d="m 1016.6855,579.91107 66.4728,-38.68926 1.509,2.59284 -66.4727,38.68927 z" id="rect4404" />
    <circle transform="matrix(0.62496371,0,0,0.62496371,-89.662081,342.47545)" id="path4406"
      style="fill:#232629;fill-opacity:0.00392157;stroke:none"
      d="m 1777.8958,382.03223 a 6.4994531,6.4994531 0 0 1 -6.4994,6.49945 6.4994531,6.4994531 0 0 1 -6.4995,-6.49945 6.4994531,6.4994531 0 0 1 6.4995,-6.49946 6.4994531,6.4994531 0 0 1 6.4994,6.49946 z" />
  </g>
  <g transform="rotate(-126.87095,416.28764,581.2625)" id="HourHandShadow" style="opacity:0.1">
    <rect style="opacity:0.01000001;fill:#232629;fill-opacity:0.60392157;stroke:none" id="rect4673-7" width="18"
      height="64.000008" x="33.000023" y="91.000023" transform="rotate(126.87095,409.42971,584.46862)" />
    <path id="rect5450-5"
      d="m 980.52302,549.88656 -5.95481,-0.74154 2.52119,5.5089 0.0361,-0.0506 34.4809,25.90467 3.4218,-4.69848 -34.48069,-25.90464 z"
      style="fill:#232629;fill-opacity:1;stroke:none" />
    <circle r="6.4994531" cy="382.03223" cx="1771.3964" style="fill:#232629;fill-opacity:1;stroke:none"
      id="path5455-2-3" transform="translate(-753.93395,199.18469)" />
  </g>

  <path id="HandCenterScrew" d="m 105,100 a 5,5 0 1 1 -10,0 5,5 0 1 1 10,0 z" fill="none" />
  <path id="Glass"
    d="m 170.82644,100 a 70.826441,70.826441 0 1 1 -141.652876,0 70.826441,70.826441 0 1 1 141.652876,0 z"
    fill="none" />
  <rect id="hint-hands-shadow-offset-to-south" width="4" height="2" x="100" y="70" fill="#008000" />
</svg>