<svg width="200" height="200" version="1.0" xmlns:xlink="http://www.w3.org/1999/xlink"
  xmlns="http://www.w3.org/2000/svg" xmlns:svg="http://www.w3.org/2000/svg">
  <defs>
    <style id="current-color-scheme" type="text/css">
      .ColorScheme-ViewText {
        color: #7B7C7E;
      }

      .ColorScheme-ViewBackground {
        color: #FCFCFC;
      }

      .ColorScheme-ButtonFocus {
        color: #1E92FF;
      }
    </style>
    <linearGradient id="linearGradient-1">
      <stop style="stop-color:#232629;stop-opacity:1;" offset="0" />
      <stop offset="0.9" style="stop-color:#232629;stop-opacity:0.523;" />
      <stop style="stop-color:#232629;stop-opacity:0.107;" offset="0.96" />
      <stop style="stop-color:#232629;stop-opacity:0;" offset="1" />
    </linearGradient>
    <filter id="filter-1" width="1.146" height="1.141" x="-0.073" y="-0.071" color-interpolation-filters="sRGB">
      <feGaussianBlur stdDeviation="0.876" />
    </filter>
    <filter id="filter-2" width="1.123" height="1.905" x="-0.061" y="-0.453" color-interpolation-filters="sRGB">
      <feGaussianBlur stdDeviation="0.511" />
    </filter>
    <filter id="filter-3" width="1.123" x="-0.061" y="-0.453" height="1.905" color-interpolation-filters="sRGB">
      <feGaussianBlur stdDeviation="0.511" />
    </filter>
    <filter id="filter-4" width="1.905" height="1.123" x="-0.453" y="-0.061" color-interpolation-filters="sRGB">
      <feGaussianBlur stdDeviation="0.511" />
    </filter>
    <radialGradient xlink:href="#linearGradient-1" id="radialGradient-1" gradientUnits="userSpaceOnUse" cx="1255.872"
      cy="382.729" r="96.606" gradientTransform="matrix(1.077,0,0,1.077,-1252,-310.024)" />
  </defs>
  <g id="ClockFace">
    <rect y="-7" x="-7" height="214" width="214" fill="none" />
    <path d="m 204,102 a 104,104 0 0 1 -104,104 A 104,104 0 0 1 -4,102 104,104 0 0 1 100,-2 104,104 0 0 1 204,102 Z"
      fill="url(#radialGradient-1)" />
    <path
      d="M 196.606,100 A 96.606,96.606 0 0 1 100.001,196.605 96.606,96.606 0 0 1 3.395,100 96.606,96.606 0 0 1 100.001,3.394 96.606,96.606 0 0 1 196.606,100 Z"
      class="ColorScheme-ViewBackground" fill="currentColor" />
    <path
      d="m 56.391,23.15 -0.844,0.5 2.094,3.594 c 0.278,-0.163 0.564,-0.308 0.844,-0.469 z m 87.875,0 -2.031,3.531 c 0.293,0.167 0.585,0.33 0.875,0.5 l 2.031,-3.531 z m -95.687,5.031 -0.813,0.563 2.469,3.406 c 0.269,-0.199 0.541,-0.398 0.813,-0.594 z m 103.5,0 -2.375,3.281 c 0.267,0.192 0.548,0.368 0.813,0.563 l 2.375,-3.281 z m -110.75,5.813 -0.719,0.656 2.781,3.094 c 0.24,-0.219 0.508,-0.408 0.75,-0.625 z m 118,0 -2.719,3 c 0.248,0.221 0.504,0.432 0.75,0.656 l 2.719,-3 z m -124.594,6.531 -0.656,0.75 3.125,2.813 c 0.219,-0.247 0.434,-0.505 0.656,-0.75 z m 131.188,0 -3,2.688 c 0.233,0.255 0.458,0.523 0.687,0.781 l 3,-2.719 z m -137.063,7.188 -0.594,0.781 3.438,2.5 c 0.192,-0.268 0.367,-0.547 0.563,-0.813 z m 142.938,0 -3.25,2.375 c 0.191,0.259 0.375,0.52 0.562,0.781 l 3.281,-2.375 z m -148.063,7.75 -0.5,0.875 3.688,2.125 c 0.166,-0.292 0.331,-0.585 0.5,-0.875 z m 153.188,0 -3.5,2.031 c 0.17,0.29 0.333,0.582 0.5,0.875 l 3.5,-2.031 z m -157.438,8.25 -0.406,0.906 3.875,1.719 c 0.133,-0.305 0.27,-0.603 0.406,-0.906 z m 161.688,0 -3.688,1.625 c 0.136,0.301 0.274,0.603 0.406,0.906 l 3.688,-1.625 z M 16.109,72.369 l -0.312,0.938 4.062,1.313 c 0.098,-0.308 0.18,-0.631 0.281,-0.938 z m 168.438,0 -3.844,1.25 c 0.102,0.31 0.214,0.626 0.313,0.938 l 3.844,-1.25 z m -170.906,8.969 -0.188,0.969 4.156,0.875 c 0.066,-0.324 0.149,-0.646 0.219,-0.969 z m 173.344,0 -3.937,0.844 c 0.069,0.321 0.122,0.647 0.187,0.969 l 3.969,-0.844 z M 12.172,90.494 l -0.125,0.969 4.281,0.438 c 0.031,-0.322 0.059,-0.648 0.094,-0.969 l -4.25,-0.438 z m 176.344,0 -4.063,0.438 c 0.035,0.321 0.063,0.647 0.094,0.969 l 4.062,-0.438 -0.094,-0.969 z m -172.156,18.094 -4.312,0.438 0.125,1 4.281,-0.438 c -0.037,-0.333 -0.061,-0.666 -0.094,-1 z m 168.156,0 c -0.033,0.334 -0.057,0.667 -0.094,1 l 4.094,0.438 0.094,-1 z M 17.672,117.307 l -4.219,0.906 0.188,0.969 4.25,-0.906 c -0.071,-0.322 -0.152,-0.645 -0.219,-0.969 z m 165.531,0.063 c -0.067,0.324 -0.148,0.647 -0.219,0.969 l 4,0.844 0.219,-0.969 z m -163.281,8.469 -4.125,1.344 0.312,0.969 4.125,-1.344 c -0.108,-0.323 -0.209,-0.644 -0.312,-0.969 z m 161,0.063 c -0.104,0.325 -0.205,0.646 -0.313,0.969 l 3.938,1.281 0.312,-0.969 z M 23.047,134.119 l -3.969,1.781 0.406,0.906 3.969,-1.781 c -0.138,-0.303 -0.272,-0.601 -0.406,-0.906 z m 154.75,0.094 c -0.134,0.303 -0.269,0.605 -0.406,0.906 l 3.781,1.688 0.406,-0.906 z m -150.75,7.781 -3.813,2.188 0.5,0.875 3.813,-2.188 c -0.17,-0.289 -0.334,-0.584 -0.5,-0.875 z m 146.75,0.094 c -0.168,0.292 -0.329,0.585 -0.5,0.875 l 3.625,2.094 0.5,-0.875 z M 31.797,149.432 l -3.531,2.563 0.594,0.813 3.531,-2.563 c -0.2,-0.27 -0.397,-0.54 -0.594,-0.813 z m 137.187,0.094 c -0.193,0.268 -0.366,0.547 -0.562,0.813 l 3.375,2.469 0.594,-0.813 z m -131.625,6.781 -3.281,2.938 0.656,0.75 3.281,-2.938 c -0.224,-0.246 -0.435,-0.502 -0.656,-0.75 z m 126.094,0.094 c -0.226,0.253 -0.458,0.499 -0.688,0.75 l 3.156,2.844 0.687,-0.75 z m -119.937,6.188 -2.906,3.25 0.719,0.688 2.938,-3.281 c -0.248,-0.221 -0.504,-0.432 -0.75,-0.656 z m 113.719,0.094 c -0.251,0.228 -0.496,0.462 -0.75,0.688 l 2.844,3.156 0.75,-0.688 z m -106.906,5.5 -2.563,3.531 0.813,0.594 2.563,-3.531 c -0.272,-0.195 -0.543,-0.395 -0.813,-0.594 z m 100.062,0.094 c -0.27,0.198 -0.54,0.399 -0.813,0.594 l 2.5,3.438 0.813,-0.594 z m -92.656,4.781 -2.187,3.781 0.844,0.5 2.188,-3.813 c -0.28,-0.16 -0.566,-0.306 -0.844,-0.469 z m 85.25,0.063 c -0.283,0.165 -0.559,0.338 -0.844,0.5 l 2.125,3.719 0.875,-0.5 z m -77.437,4 -1.75,3.969 0.906,0.406 1.781,-3.969 c -0.313,-0.138 -0.626,-0.265 -0.937,-0.406 z m 69.625,0.094 c -0.308,0.139 -0.628,0.271 -0.938,0.406 l 1.719,3.875 0.938,-0.406 z m -61.375,3.125 -1.344,4.156 0.938,0.313 1.344,-4.156 c -0.314,-0.1 -0.625,-0.209 -0.937,-0.313 z m 53.094,0.063 c -0.322,0.106 -0.645,0.21 -0.969,0.313 l 1.344,4.094 0.969,-0.313 z m -44.594,2.25 -0.906,4.25 1,0.219 0.906,-4.25 c -0.334,-0.069 -0.668,-0.146 -1,-0.219 z m 36.062,0.063 c -0.327,0.071 -0.641,0.152 -0.969,0.219 l 0.906,4.188 0.969,-0.219 z m -27.312,1.375 -0.469,4.344 1,0.094 0.438,-4.313 c -0.325,-0.032 -0.645,-0.089 -0.969,-0.125 z m 18.594,0.031 c -0.323,0.035 -0.645,0.062 -0.969,0.094 l 0.437,4.313 0.969,-0.094 z"
      class="ColorScheme-ViewText" fill="currentColor" opacity="0.6" />
    <path
      d="m 105.692,13.565 c 2.747,0 4.948,0.723 6.602,2.168 1.667,1.432 2.5,3.392 2.5,5.879 0,1.693 -0.436,3.288 -1.309,4.785 -0.872,1.484 -2.214,3.197 -4.023,5.137 l -8.262,8.809 h 13.027 v 3.008 H 97.782 v -3.691 l 9.395,-10.684 c 1.276,-1.458 2.233,-2.728 2.871,-3.809 0.651,-1.094 0.977,-2.174 0.977,-3.242 0,-1.667 -0.475,-2.936 -1.426,-3.809 -0.951,-0.872 -2.285,-1.309 -4.004,-1.309 -2.552,0 -4.642,0.82 -6.27,2.461 l -1.133,-3.066 c 1.914,-1.758 4.414,-2.637 7.5,-2.637 m -14.88,1.23 h 3.496 V 43.35 H 90.812 V 18.057 c -1.602,1.068 -3.197,1.96 -4.785,2.676 v -3.066 c 1.25,-0.547 2.845,-1.504 4.785,-2.871"
      fill="#232629" opacity="0.443" filter="url(#filter-1)" />
    <path
      d="m 105.692,12.365 c 2.747,0 4.948,0.723 6.602,2.168 1.667,1.432 2.5,3.392 2.5,5.879 0,1.693 -0.436,3.288 -1.309,4.785 -0.872,1.484 -2.214,3.197 -4.023,5.137 l -8.262,8.809 h 13.027 v 3.008 H 97.782 v -3.691 l 9.395,-10.684 c 1.276,-1.458 2.233,-2.728 2.871,-3.809 0.651,-1.094 0.977,-2.174 0.977,-3.242 0,-1.667 -0.475,-2.936 -1.426,-3.809 -0.951,-0.872 -2.285,-1.309 -4.004,-1.309 -2.552,0 -4.642,0.82 -6.27,2.461 l -1.133,-3.066 c 1.914,-1.758 4.414,-2.637 7.5,-2.637 M 90.812,13.595 h 3.496 V 42.15 H 90.812 V 16.857 c -1.602,1.068 -3.197,1.96 -4.785,2.676 v -3.066 c 1.25,-0.547 2.845,-1.504 4.785,-2.871"
      class="ColorScheme-ButtonFocus" fill="currentColor" />
    <rect width="20" height="2.709" x="10.016" y="100.154" fill="#212121" opacity="0.413" filter="url(#filter-2)" />
    <rect width="20" height="2.709" x="9.908" y="98.942" class="ColorScheme-ButtonFocus" fill="currentColor" />
    <rect width="20" height="2.709" x="171.116" y="100.155" fill="#1c1c1c" opacity="0.361" filter="url(#filter-3)" />
    <rect width="20" height="2.709" x="171.108" y="98.942" class="ColorScheme-ButtonFocus" fill="currentColor" />
    <rect width="2.709" height="20" x="98.963" y="172.81" fill="#2a2a2a" opacity="0.524" filter="url(#filter-4)" />
    <rect width="2.709" height="20" x="99.054" y="171.597" class="ColorScheme-ButtonFocus" fill="currentColor" />
    <path
      d="M 196.606,100 A 96.606,96.606 0 0 1 100.001,196.605 96.606,96.606 0 0 1 3.395,100 96.606,96.606 0 0 1 100.001,3.394 96.606,96.606 0 0 1 196.606,100 Z"
      fill="none" stroke="#70767a" opacity="0.677" />
    <path
      d="m 172.337,57.148 4.027,-2.325 1.355,2.346 -4.027,2.325 z m -149.435,86.276 4.027,-2.325 1.355,2.346 -4.027,2.325 z"
      class="ColorScheme-ViewText" fill="currentColor" />
    <path
      d="m 141.113,26.916 2.325,-4.027 2.346,1.355 -2.325,4.027 z m -86.276,149.435 2.325,-4.027 2.346,1.355 -2.325,4.027 z"
      class="ColorScheme-ViewText" fill="currentColor" />
    <path
      d="m 26.929,59.494 -4.027,-2.325 1.355,-2.346 4.027,2.325 z m 149.435,86.276 -4.027,-2.325 1.355,-2.346 4.027,2.325 z"
      class="ColorScheme-ViewText" fill="currentColor" />
    <path
      d="m 57.161,28.27 -2.325,-4.027 2.346,-1.355 2.325,4.027 z m 86.276,149.435 -2.325,-4.027 2.346,-1.355 2.325,4.027 z"
      class="ColorScheme-ViewText" fill="currentColor" />
  </g>
  <g id="HourHand" class="ColorScheme-ViewText" fill="currentColor">
    <rect width="18" height="64" x="31" y="91" fill="none" />
    <path d="m 37.1,148.35 2.98,5.209 2.894,-5.322 -0.062,0.001 0.034,-43.128 -5.812,0.082 -0.035,43.127 z" />
    <path
      d="m 36.1,94.801 a 6.499,6.499 0 0 1 9.099,1.3 6.499,6.499 0 0 1 -1.3,9.099 6.499,6.499 0 0 1 -9.099,-1.3 6.499,6.499 0 0 1 1.3,-9.099 z" />
  </g>
  <g id="MinuteHand" class="ColorScheme-ViewText" fill="currentColor" opacity="0.75">
    <rect width="12" height="85" x="62" y="94" fill="none" />
    <path d="m 69.545,101.177 -0.025,75.736 -3,-0.001 0.025,-75.736 z" opacity="0.75" />
    <path
      d="m 66.124,103.201 a 3.671,3.671 0 0 1 -1.324,-5.019 3.671,3.671 0 0 1 5.019,-1.324 3.671,3.671 0 0 1 1.324,5.019 3.671,3.671 0 0 1 -5.019,1.324 z" />
  </g>
  <g id="SecondHand" class="ColorScheme-ButtonFocus">
    <rect width="1.788" height="77.37" x="125.1" y="99.367" fill="currentColor" />
    <path
      d="m 125.046,101.713 c -0.925,-0.535 -1.242,-1.719 -0.707,-2.645 0.535,-0.925 1.719,-1.242 2.645,-0.707 0.925,0.535 1.242,1.719 0.707,2.645 -0.535,0.925 -1.719,1.242 -2.645,0.707 z"
      fill="currentColor" />
    <rect width="8" height="7" x="122" y="96" fill="none" />
  </g>
  <g id="HourHandShadow">
    <rect width="18" height="64" x="46.538" y="91.356" fill="none" />
    <path
      d="M 55.537 93.857 A 6.499 6.499 0 0 0 49.039 100.357 A 6.499 6.499 0 0 0 52.672 106.178 L 52.637 148.676 L 52.639 148.707 L 55.617 153.916 L 58.512 148.594 L 58.449 148.594 L 58.484 106.135 A 6.499 6.499 0 0 0 62.037 100.357 A 6.499 6.499 0 0 0 55.537 93.857 z"
      fill="#232629" opacity="0.1" />
  </g>
  <g id="MinuteHandShadow">
    <path d="m 79.545,100.001 -0.024,76.912 -3,-0.001 0.024,-76.912 z" fill="#232629" opacity="0.1" />
  </g>
  <g id="SecondHandShadow">
    <rect width="6" height="82" x="131" y="97" fill="none" />
    <path d="m 134.888,101.368 -0.054,75.736 -1.732,-0.001 0.054,-75.736 z" fill="#232629" opacity="0.1" />
  </g>
  <path id="HandCenterScrew" d="m 105,100 a 5,5 0 1 1 -10,0 5,5 0 1 1 10,0 z" fill="none" />
  <path id="Glass" d="m 170.826,100 a 70.826,70.826 0 1 1 -141.653,0 70.826,70.826 0 1 1 141.653,0 z" fill="none" />
  <rect id="hint-hands-shadow-offset-to-south" width="4" height="2" x="100" y="70" fill="#008000" />
</svg>