<?xml version="1.0" encoding="UTF-8" standalone="no"?>
<svg height="48" viewBox="0 0 112 48" width="112" id="svg1" version="1.1" sodipodi:docname="configuration-icons.svg"
  inkscape:version="1.3.2 (091e20e, 2023-11-25, custom)" xmlns:inkscape="http://www.inkscape.org/namespaces/inkscape"
  xmlns:sodipodi="http://sodipodi.sourceforge.net/DTD/sodipodi-0.dtd" xmlns="http://www.w3.org/2000/svg"
  xmlns:svg="http://www.w3.org/2000/svg">
  <sodipodi:namedview id="namedview11" pagecolor="#ffffff" bordercolor="#666666" borderopacity="1.0"
    inkscape:showpageshadow="2" inkscape:pageopacity="0.0" inkscape:pagecheckerboard="0" inkscape:deskcolor="#d1d1d1"
    inkscape:zoom="7.3236059" inkscape:cx="73.734169" inkscape:cy="17.409457" inkscape:window-width="1904"
    inkscape:window-height="1041" inkscape:window-x="2083" inkscape:window-y="0" inkscape:window-maximized="0"
    inkscape:current-layer="svg1" />
  <defs id="defs1">
    <style id="current-color-scheme" type="text/css">
      .ColorScheme-Text {
        color: #2e2e2e;
      }
    </style>
  </defs>
  <g id="menu">
    <rect id="rect1" width="16" height="16" x="0" y="0" opacity="0" />
    <path id="path1" d="M 2,12 V 10.667 H 14 V 12 Z m 0,-3.333 V 7.333 H 14 v 1.333 z m 0,-3.333 V 4 H 14 v 1.333 z"
      class="ColorScheme-Text" fill="currentColor" />
  </g>
  <g id="configure">
    <rect id="rect2" width="16" height="16" x="16" y="0" opacity="0" />
    <path id="path2"
      d="m 23.333,14 v -4 h 1.333 v 1.333 H 30 v 1.333 H 24.667 V 14 Z M 18,12.667 V 11.333 H 22 v 1.333 z M 20.667,10 V 8.667 H 18 V 7.333 h 2.667 V 6 H 22 V 10 Z M 23.333,8.667 V 7.333 H 30 V 8.667 Z M 26,6 v -4 h 1.333 V 3.333 H 30 V 4.667 H 27.333 V 6 Z M 18,4.667 V 3.333 h 6.667 v 1.333 z"
      class="ColorScheme-Text" fill="currentColor" />
  </g>
  <g id="rotate">
    <rect id="rect3" width="16" height="16" x="32" y="0" opacity="0" />
    <path id="path3"
      d="m 40.683,14.983 v -1.367 q 0.567,-0.083 1.108,-0.3 Q 42.333,13.1 42.817,12.75 L 43.75,13.716 Q 43.05,14.25 42.283,14.575 q -0.767,0.325 -1.6,0.408 z m -1.333,0 q -2.3,-0.3 -3.817,-1.992 Q 34.017,11.3 34.017,9.017 q 0,-1.25 0.475,-2.342 0.475,-1.092 1.283,-1.9 0.808,-0.808 1.9,-1.283 1.092,-0.475 2.342,-0.475 h 0.1 L 39.083,1.983 40.016,1.016 42.683,3.683 40.017,6.35 39.083,5.417 40.15,4.35 h -0.133 q -1.95,0 -3.308,1.358 Q 35.35,7.067 35.35,9.017 35.35,10.75 36.483,12.058 37.617,13.367 39.35,13.617 Z M 44.717,12.75 43.75,11.817 q 0.35,-0.483 0.567,-1.025 0.217,-0.542 0.3,-1.108 h 1.367 Q 45.9,10.517 45.575,11.283 45.25,12.05 44.717,12.75 Z m 1.267,-4.4 h -1.367 q -0.083,-0.567 -0.3,-1.108 Q 44.1,6.7 43.75,6.217 l 0.967,-0.933 q 0.533,0.65 0.85,1.433 0.317,0.783 0.417,1.633 z"
      class="ColorScheme-Text" fill="currentColor" />
  </g>
  <g id="help">
    <rect width="16" height="16" x="0" y="32" opacity="0" id="rect7" />
    <path
      d="m 7.067,42.333 q 0,-1.35 0.242,-1.942 Q 7.55,39.8 8.333,39.1 9.017,38.5 9.375,38.058 9.733,37.617 9.733,37.05 q 0,-0.683 -0.458,-1.133 -0.458,-0.45 -1.275,-0.45 -0.85,0 -1.292,0.517 -0.442,0.517 -0.625,1.05 L 4.367,36.3 q 0.35,-1.067 1.283,-1.85 0.933,-0.783 2.35,-0.783 1.75,0 2.692,0.975 0.942,0.975 0.942,2.342 0,0.833 -0.358,1.425 Q 10.917,39 10.15,39.75 q -0.817,0.783 -0.992,1.192 -0.175,0.408 -0.175,1.392 z m 0.933,4 q -0.55,0 -0.942,-0.392 Q 6.667,45.55 6.667,45 q 0,-0.55 0.392,-0.942 0.392,-0.392 0.942,-0.392 0.55,0 0.942,0.392 Q 9.333,44.45 9.333,45 q 0,0.55 -0.392,0.942 -0.392,0.392 -0.942,0.392 z"
      class="ColorScheme-Text" fill="currentColor" id="path7" />
  </g>
  <g id="delete">
    <rect width="16" height="16" x="16" y="32" opacity="0" id="rect8" />
    <path
      d="M 19.333,46 V 36 H 18.667 V 34.667 H 22 V 34 h 4 v 0.667 h 3.333 V 36 h -0.667 v 10 z m 1.333,-1.333 h 6.667 V 36 H 20.667 Z M 22,43.333 h 1.333 v -6 H 22 Z m 2.667,0 H 26 v -6 h -1.333 z m -4,-7.333 v 8.667 z"
      class="ColorScheme-Text" fill="currentColor" id="path8" />
  </g>
  <g id="add">
    <rect width="16" height="16" x="32" y="32" opacity="0" id="rect9" />
    <path d="m 39.333,40.667 h -4 v -1.333 h 4 v -4 h 1.333 v 4 h 4 v 1.333 h -4 v 4 h -1.333 z"
      class="ColorScheme-Text" fill="currentColor" id="path9" />
  </g>
  <g id="remove">
    <rect width="16" height="16" x="48" y="32" opacity="0" id="rect10" />
    <path d="m 51.333,40.667 v -1.333 h 9.333 v 1.333 z" class="ColorScheme-Text" fill="currentColor" id="path10" />
  </g>
  <g id="filter">
    <rect width="16" height="16" x="64" y="32" opacity="0" id="rect11" />
    <path d="m 70.667,45.333 v -4.667 l -4.7,-6 h 12.067 l -4.7,6 v 4.667 z m 1.333,-5.133 3.3,-4.2 h -6.6 z"
      class="ColorScheme-Text" fill="currentColor" id="path11" />
  </g>
  <rect style="fill:#008080;fill-rule:evenodd;stroke-width:0.499999" id="rect12" width="16" height="16" x="80" y="32" />
  <path
    d="M 84.266666,44.666667 83.333333,43.733333 87.066666,40 l -3.733333,-3.733333 0.933333,-0.933334 3.733333,3.733334 3.733334,-3.733334 0.933333,0.933334 L 88.933333,40 l 3.733333,3.733333 -0.933333,0.933334 -3.733334,-3.733334 z"
    id="path1-3" style="stroke-width:0.025" />
  <rect style="fill:#008080;fill-rule:evenodd;stroke-width:0.499999" id="rect13" width="16" height="16" x="96" y="32" />
  <path
    d="m 97.999997,46 v -5.333333 h 1.333333 v 4 h 4 V 46 Z m 6.666663,0 v -1.333333 h 4 v -4 H 110 V 46 Z M 99.999997,43.333333 102,40.666667 l 1.5,2 2,-2.666667 2.5,3.333333 z m -2,-4 V 34 h 5.333333 v 1.333333 h -4 v 4 z m 10.666663,0 v -4 h -4 V 34 H 110 v 5.333333 z m -2.33333,-0.666666 q -0.43333,0 -0.71667,-0.283334 -0.28333,-0.283333 -0.28333,-0.716666 0,-0.433334 0.28333,-0.716667 0.28334,-0.283333 0.71667,-0.283333 0.43333,0 0.71667,0.283333 0.28333,0.283333 0.28333,0.716667 0,0.433333 -0.28333,0.716666 -0.28334,0.283334 -0.71667,0.283334 z"
    id="path1-4" style="stroke-width:0.025" />
  <rect style="fill:#008080;fill-rule:evenodd;stroke-width:0.499999" id="rect14" width="16" height="16" x="48"
    y="3.4909797e-07" />
  <path
    d="m 56,14.666667 -2.833333,-2.833333 0.95,-0.95 L 55.333334,12.1 V 9.3333336 h 1.333333 v 2.7500004 l 1.2,-1.216667 0.966667,0.966667 z M 52.166667,10.833334 49.333334,8.0000002 52.15,5.1833335 l 0.95,0.95 -1.2,1.2 h 2.766667 v 1.3333334 h -2.75 l 1.216667,1.2 z m 7.666667,0 -0.95,-0.9500004 L 60.1,8.6666669 H 57.333334 V 7.3333335 h 2.75 l -1.216667,-1.2 0.966667,-0.9666666 2.833333,2.8333333 z m -4.5,-4.1666671 V 3.9000002 l -1.216667,1.2166667 -0.95,-0.95 L 56,1.3333335 l 2.833334,2.8333334 -0.95,0.95 -1.216667,-1.2166667 v 2.7666667 z"
    id="path1-7" style="stroke-width:0.025" />
  <rect style="fill:#008080;fill-rule:evenodd;stroke-width:0.499999" id="rect14-7" width="16" height="16" x="64"
    y="3.4909797e-07" />
  <path
    d="m 72,14.666667 -2.833333,-2.833333 0.95,-0.95 L 71.333334,12.1 V 9.3333336 h 1.333333 v 2.7500004 l 1.2,-1.216667 0.966667,0.966667 z M 68.166667,10.833334 65.333334,8.0000002 68.15,5.1833335 l 0.95,0.95 -1.2,1.2 h 2.766667 v 1.3333334 h -2.75 l 1.216667,1.2 z m 7.666667,0 -0.95,-0.9500004 L 76.1,8.6666669 H 73.333334 V 7.3333335 h 2.75 l -1.216667,-1.2 0.966667,-0.9666666 2.833333,2.8333333 z m -4.5,-4.1666671 V 3.9000002 l -1.216667,1.2166667 -0.95,-0.95 L 72,1.3333335 l 2.833334,2.8333334 -0.95,0.95 -1.216667,-1.2166667 v 2.7666667 z"
    id="path1-7-1" style="stroke-width:0.025" />
  <rect style="fill:#008080;fill-rule:evenodd;stroke-width:0.499999" id="rect14-9" width="16" height="16" x="80.000008"
    y="3.4909797e-07" />
  <path
    d="m 88.000005,14.666667 -2.833333,-2.833333 0.95,-0.95 L 87.333339,12.1 V 9.3333336 h 1.333333 v 2.7500004 l 1.2,-1.216667 0.966667,0.966667 z m -3.833333,-3.833333 -2.833333,-2.8333338 2.816666,-2.8166667 0.95,0.95 -1.2,1.2 h 2.766667 v 1.3333334 h -2.75 l 1.216667,1.2 z m 7.666667,0 -0.95,-0.9500004 1.216666,-1.2166667 H 89.333339 V 7.3333335 h 2.75 l -1.216667,-1.2 0.966667,-0.9666666 2.833333,2.8333333 z m -4.5,-4.1666671 V 3.9000002 l -1.216667,1.2166667 -0.95,-0.95 2.833333,-2.8333334 2.833334,2.8333334 -0.95,0.95 -1.216667,-1.2166667 v 2.7666667 z"
    id="path1-7-9" style="stroke-width:0.025" />
  <g id="g15" transform="matrix(0.66666667,0,0,0.66666667,65.204639,41.761445)" style="stroke-width:1.49999">
    <rect style="fill:#008080;fill-rule:evenodd;stroke-width:0.749999" id="rect15" width="24" height="24" x="-25.806959"
      y="-38.642166" />
    <path
      d="m -24.806959,-25.642166 v -2 h 5.7 l 2.3,6.1 6,-15.825 3.6999998,9.725 h 4.3 v 2 h -5.7 l -2.2999998,-6.1 -6,15.825 -3.7,-9.725 z"
      id="path1-8" style="stroke-width:0.0375" />
  </g>
  <rect style="fill:#008080;fill-rule:evenodd;stroke-width:0.499999" id="rect16" width="16" height="16" x="80.000008"
    y="16" />
  <path
    d="m 87.33334,24.666667 v 4 H 86.000007 V 26.000001 H 83.33334 v -1.333334 z m 2.666666,-5.333333 v 2.666667 h 2.666667 v 1.333333 h -4 v -4 z"
    id="path1-74" style="stroke-width:0.025" />
  <rect style="fill:#008080;fill-rule:evenodd;stroke-width:0.499999" id="rect17" width="16" height="16" x="96.000008"
    y="16" />
  <path
    d="m 99.33334,28.666666 v -4 h 1.33333 v 2.666667 h 2.66667 v 1.333333 z m 8,-5.333333 v -2.666667 h -2.66667 v -1.333333 h 4 v 4 z"
    id="path1-1" style="stroke-width:0.025" />
  <rect style="fill:#008080;fill-rule:evenodd;stroke-width:0.499999" id="rect18" width="16" height="16" x="64.000008"
    y="16" />
  <path
    d="m 70.000007,28 -3.999999,-4 3.999999,-4 0.933334,0.933333 -2.4,2.4 h 8.133332 v -2.666666 h 1.333334 v 4 h -9.466666 l 2.4,2.4 z"
    id="path1-0" style="stroke-width:0.025" />
</svg>