<svg width="112" height="48" viewBox="0 0 112 48" xmlns="http://www.w3.org/2000/svg">
  <defs>
    <style id="current-color-scheme" type="text/css">
      .ColorScheme-Text {
        color: #e2e2e5;
      }
    </style>
  </defs>
  <g id="menu">
    <rect width="16" height="16" opacity="0" />
    <path d="m 2.4,11.6 v -1.2 h 11.2 v 1.2 z m 0,-3 V 7.4 h 11.2 v 1.2 z m 0,-3 V 4.4 h 11.2 v 1.2 z"
      class="ColorScheme-Text" fill="currentColor" />
  </g>
  <g id="configure">
    <rect width="16" height="16" x="16" opacity="0" />
    <path
      d="m 23.6,13.6 v -4 h 1.2 V 11 h 4.8 v 1.2 h -4.8 v 1.4 z M 18.4,12.2 V 11 h 4 v 1.2 z M 20.8,10 V 8.6 H 18.4 V 7.4 h 2.4 V 6 H 22 v 4 z M 23.2,8.6 V 7.4 h 6.4 v 1.2 z m 2.4,-2.2 v -4 h 1.2 v 1.4 h 2.8 V 5 H 26.8 V 6.4 Z M 18.4,5 V 3.8 h 6.4 V 5 Z"
      class="ColorScheme-Text" fill="currentColor" />
  </g>
  <g id="rotate">
    <rect width="16" height="16" x="32" opacity="0" />
    <path
      d="m 40.6,14.742 v -1.217 q 0.683,-0.1 1.317,-0.4 0.633,-0.3 1.167,-0.817 l 0.85,0.85 q -0.7,0.7 -1.558,1.092 -0.858,0.392 -1.775,0.492 z m -1.2,0 q -2.15,-0.234 -3.575,-1.809 -1.425,-1.575 -1.425,-3.758 0,-1.167 0.442,-2.183 0.442,-1.017 1.2,-1.775 0.758,-0.759 1.775,-1.192 1.016,-0.433 2.183,-0.433 h 0.65 l -1.5,-1.483 0.85,-0.85 2.833,2.833 -2.833,2.816 -0.85,-0.85 1.283,-1.267 h -0.45 q -1.833,0 -3.108,1.275 -1.275,1.276 -1.275,3.109 0,1.683 1.067,2.9 1.066,1.217 2.733,1.45 z m 5.3,-2.517 -0.9,-0.883 q 0.317,-0.55 0.45,-1.15 0.133,-0.6 0.133,-1.217 H 45.6 q 0,0.85 -0.208,1.675 -0.209,0.825 -0.692,1.575 z m 0.717,-4.45 H 44.15 Q 44,7.308 43.75,6.875 43.5,6.442 43.117,6.058 l 0.85,-0.833 q 0.55,0.55 0.908,1.2 0.358,0.65 0.542,1.35 z"
      class="ColorScheme-Text" fill="currentColor" />
  </g>
  <g id="move">
    <rect width="16" height="16" x="48" opacity="0" />
    <path
      d="m 56,14.4 -2.8,-2.8 0.85,-0.85 1.35,1.35 V 8.6 H 51.9 L 53.25,9.95 52.4,10.8 49.6,8 52.4,5.2 53.25,6.05 51.9,7.4 h 3.5 V 3.9 L 54.05,5.25 53.2,4.4 56,1.6 58.8,4.4 57.95,5.25 56.6,3.9 v 3.5 h 3.5 L 58.75,6.05 59.6,5.2 62.4,8 59.6,10.8 58.75,9.95 60.1,8.6 h -3.5 v 3.5 l 1.35,-1.35 0.85,0.85 z"
      class="ColorScheme-Text" fill="currentColor" />
  </g>
  <g id="size-vertical">
    <rect width="16" height="16" x="64" opacity="0" />
    <path
      d="m 72,13.6 -2.4,-2.4 0.85,-0.85 0.95,0.95 V 4.7 L 70.45,5.65 69.6,4.8 72,2.4 74.4,4.8 73.55,5.65 72.6,4.7 v 6.6 l 0.95,-0.95 0.85,0.85 z"
      class="ColorScheme-Text" fill="currentColor" />
  </g>
  <g id="size-horizontal">
    <rect width="16" height="16" x="80" opacity="0" />
    <path
      d="M 84.8,10.4 82.4,8 84.8,5.6 85.65,6.45 84.7,7.4 h 6.6 L 90.35,6.45 91.2,5.6 93.6,8 91.2,10.4 90.35,9.55 91.3,8.6 h -6.6 l 0.95,0.95 z"
      class="ColorScheme-Text" fill="currentColor" />
  </g>
  <g id="size-diagonal-tr2bl">
    <rect width="16" height="16" x="96" opacity="0" />
    <path
      d="M 102.8,10.8 H 99.6 V 7.6 h 1.2 v 2 h 2 z m 5.6,-2.4 h -1.2 v -2 h -2 V 5.2 h 3.2 z m 0.8,4.4 q 0.495,0 0.848,-0.353 0.353,-0.353 0.353,-0.848 V 4.395 Q 110.4,3.9 110.048,3.55 109.695,3.2 109.2,3.2 H 98.8 Q 98.305,3.2 97.953,3.553 97.6,3.905 97.6,4.401 V 11.605 Q 97.6,12.1 97.953,12.45 98.305,12.8 98.8,12.8 Z m 0,-1.2 H 98.8 V 4.4 h 10.4 z m 0,0 V 4.4 Z"
      class="ColorScheme-Text" fill="currentColor" />
  </g>
  <g id="size-diagonal-tl2br">
    <rect width="16" height="16" y="16" opacity="0" />
    <path
      d="m 9.2,26.8 h 3.2 v -3.2 h -1.2 v 2 h -2 z M 3.6,24.4 h 1.2 v -2 h 2 V 21.2 H 3.6 Z M 2.8,28.8 Q 2.305,28.8 1.953,28.447 1.6,28.095 1.6,27.599 v -7.204 Q 1.6,19.9 1.953,19.55 2.305,19.2 2.8,19.2 h 10.4 q 0.495,0 0.848,0.353 0.353,0.353 0.353,0.848 v 7.204 Q 14.4,28.1 14.048,28.45 13.695,28.8 13.2,28.8 Z m 0,-1.2 H 13.2 V 20.4 H 2.8 Z m 0,0 v -7.2 z"
      class="ColorScheme-Text" fill="currentColor" />
  </g>
  <g id="maximize">
    <rect width="16" height="16" x="16" y="16" opacity="0" />
    <path d="m 20,28 v -4 h 1.2 v 2.8 H 24 V 28 Z m 6.8,-4 V 21.2 H 24 V 20 h 4 v 4 z" class="ColorScheme-Text"
      fill="currentColor" />
  </g>
  <g id="unmaximize">
    <rect width="16" height="16" x="32" y="16" opacity="0" />
    <path d="m 39.2,24.8 v 4 H 38 V 26 H 35.2 V 24.8 Z M 42,19.2 V 22 h 2.8 v 1.2 h -4 v -4 z" class="ColorScheme-Text"
      fill="currentColor" />
  </g>
  <g id="status">
    <rect width="16" height="16" x="48" y="16" opacity="0" />
    <path
      d="m 54.033,28.8 q -0.317,0 -0.567,-0.183 Q 53.217,28.433 53.1,28.15 L 51.667,24.6 H 48.8 v -1.2 h 3.683 l 1.55,3.867 3,-7.433 Q 57.15,19.557 57.4,19.379 57.65,19.2 57.967,19.2 q 0.317,0 0.567,0.183 0.25,0.183 0.367,0.467 l 1.433,3.55 H 63.2 v 1.2 h -3.667 l -1.567,-3.867 -3,7.433 Q 54.85,28.443 54.6,28.621 54.35,28.8 54.033,28.8 Z"
      class="ColorScheme-Text" fill="currentColor" />
  </g>
  <g id="return-to-source">
    <rect width="16" height="16" x="64" y="16" opacity="0" />
    <path d="m 69.9,27.5 -3.5,-3.5 3.5,-3.5 0.85,0.85 -2.05,2.05 h 7.7 v -1.8 h 1.2 v 3 h -8.9 l 2.05,2.05 z"
      class="ColorScheme-Text" fill="currentColor" />
  </g>
  <g id="collapse">
    <rect width="16" height="16" x="80" y="16" opacity="0" />
    <path
      d="M 86.15,28.8 85.3,27.95 88,25.25 90.7,27.95 89.85,28.8 88,26.95 Z M 88,22.75 85.3,20.05 86.15,19.2 88,21.05 89.85,19.2 90.7,20.05 Z"
      class="ColorScheme-Text" fill="currentColor" />
  </g>
  <g id="restore">
    <rect width="16" height="16" x="96" y="16" opacity="0" />
    <path
      d="m 104,29.6 -2.7,-2.7 0.85,-0.85 1.85,1.85 1.85,-1.85 0.85,0.85 z m -1.85,-7.65 -0.85,-0.85 2.7,-2.7 2.7,2.7 -0.85,0.85 L 104,20.1 Z"
      class="ColorScheme-Text" fill="currentColor" />
  </g>
  <g id="help">
    <rect width="16" height="16" y="32" opacity="0" />
    <path
      d="m 7.133,42 q 0,-1.2 0.242,-1.792 Q 7.617,39.617 8.383,38.95 9.1,38.333 9.35,37.958 9.6,37.583 9.6,37.117 9.6,36.483 9.15,36.075 8.7,35.667 8,35.667 7.383,35.667 6.917,36.05 6.45,36.433 6.25,37.1 L 4.65,36.433 Q 5,35.333 5.925,34.667 6.85,34 8,34 9.483,34 10.417,34.858 11.35,35.717 11.35,37.067 q 0,0.7 -0.308,1.275 -0.308,0.575 -1.108,1.325 Q 9.25,40.3 9.092,40.675 8.933,41.05 8.917,42 Z M 8,45.6 Q 7.5,45.6 7.15,45.25 6.8,44.9 6.8,44.4 6.8,43.9 7.15,43.55 7.5,43.2 8,43.2 q 0.5,0 0.85,0.35 0.35,0.35 0.35,0.85 0,0.5 -0.35,0.85 Q 8.5,45.6 8,45.6 Z"
      class="ColorScheme-Text" fill="currentColor" />
  </g>
  <g id="delete">
    <rect width="16" height="16" x="16" y="32" opacity="0" />
    <path
      d="m 21.2,45.6 q -0.495,0 -0.848,-0.353 Q 20,44.895 20,44.4 v -8 h -0.8 v -1.2 h 3.2 v -0.8 h 3.2 v 0.8 h 3.2 v 1.2 H 28 v 7.993 Q 28,44.9 27.648,45.25 27.295,45.6 26.8,45.6 Z m 5.6,-9.2 h -5.6 v 8 h 5.6 z m -4.4,6.8 h 1.2 v -5.6 h -1.2 z m 2,0 h 1.2 v -5.6 h -1.2 z m -3.2,-6.8 v 8 z"
      class="ColorScheme-Text" fill="currentColor" />
  </g>
  <g id="add">
    <rect width="16" height="16" x="32" y="32" opacity="0" />
    <path d="M 39.4,40.6 H 36 v -1.2 h 3.4 V 36 h 1.2 v 3.4 H 44 v 1.2 H 40.6 V 44 h -1.2 z" class="ColorScheme-Text"
      fill="currentColor" />
  </g>
  <g id="remove">
    <rect width="16" height="16" x="48" y="32" opacity="0" />
    <path d="m 51.867,40.6 v -1.2 h 8.267 v 1.2 z" class="ColorScheme-Text" fill="currentColor" />
  </g>
  <g id="filter">
    <rect width="16" height="16" x="64" y="32" opacity="0" />
    <path
      d="m 71.603,44.8 q -0.17,0 -0.286,-0.115 Q 71.2,44.57 71.2,44.4 V 40.617 L 67.283,35.85 q -0.15,-0.2 -0.046,-0.425 Q 67.342,35.2 67.6,35.2 h 8.8 q 0.258,0 0.362,0.225 0.104,0.225 -0.046,0.425 L 72.8,40.617 V 44.4 q 0,0.17 -0.115,0.285 Q 72.57,44.8 72.401,44.8 Z m 0.397,-5.1 2.7,-3.3 h -5.417 z m 0,0 z"
      class="ColorScheme-Text" fill="currentColor" />
  </g>
  <g id="close">
    <rect width="16" height="16" x="80" y="32" opacity="0" />
    <path
      d="M 84.85,44 84,43.15 87.15,40 84,36.85 84.85,36 88,39.15 91.15,36 92,36.85 88.85,40 92,43.15 91.15,44 88,40.85 Z"
      class="ColorScheme-Text" fill="currentColor" />
  </g>
  <g id="showbackground">
    <rect width="16" height="16" x="96" y="32" opacity="0" />
    <path
      d="m 99.6,45.6 q -0.495,0 -0.848,-0.353 Q 98.4,44.895 98.4,44.4 v -3.6 h 1.2 v 3.6 h 3.6 v 1.2 z m 5.2,0 v -1.2 h 3.6 v -3.6 h 1.2 v 3.6 q 0,0.495 -0.353,0.848 Q 108.895,45.6 108.4,45.6 Z m -4.4,-2.4 1.8,-2.4 1.2,1.6 1.8,-2.4 2.4,3.2 z m -2,-4 v -3.6 q 0,-0.495 0.353,-0.848 Q 99.105,34.4 99.6,34.4 h 3.6 v 1.2 h -3.6 v 3.6 z m 10,0 v -3.6 h -3.6 v -1.2 h 3.6 q 0.495,0 0.848,0.353 Q 109.6,35.105 109.6,35.6 v 3.6 z m -2,-0.8 q -0.333,0 -0.567,-0.233 Q 105.6,37.933 105.6,37.6 q 0,-0.333 0.233,-0.567 Q 106.067,36.8 106.4,36.8 q 0.333,0 0.567,0.233 Q 107.2,37.267 107.2,37.6 q 0,0.333 -0.233,0.567 Q 106.733,38.4 106.4,38.4 Z"
      class="ColorScheme-Text" fill="currentColor" />
  </g>
</svg>