<svg width="80" height="72" xmlns="http://www.w3.org/2000/svg" xmlns:svg="http://www.w3.org/2000/svg">
  <defs>
    <style id="current-color-scheme" type="text/css">
      .ColorScheme-ButtonText {
        color: #31363b;
      }

      .ColorScheme-Background {
        color: #282a2d;
      }

      .ColorScheme-ViewText {
        color: #31363b;
      }

      .ColorScheme-ViewBackground {
        color: #fcfcfc;
      }

      .ColorScheme-ViewHover {
        color: #3daee9;
      }

      .ColorScheme-ViewFocus {
        color: #3daee9;
      }

      .ColorScheme-ButtonText {
        color: #31363b;
      }

      .ColorScheme-ButtonBackground {
        color: #eff0f1;
      }

      .ColorScheme-ButtonHover {
        color: #3daee9;
      }

      .ColorScheme-ButtonFocus {
        color: #3daee9;
      }
    </style>
  </defs>
  <rect id="hint-tile-center" height="5" width="5" opacity="0.65" fill="#023812" />
  <g id="vertical-centerindicator">
    <rect width="42" height="1" x="6" y="0" class="ColorScheme-Background" fill="currentColor" opacity="0.4" />
  </g>
  <g id="horizontal-centerindicator">
    <rect width="1" height="42" x="0" y="6" class="ColorScheme-Background" fill="currentColor" opacity="0.4" />
  </g>
  <g id="south-maxslider">
    <rect width="36" height="15" rx="3" ry="3" fill="none" x="0" y="0" />
    <rect height="11" width="2" y="2" x="17" class="ColorScheme-Background" fill="currentColor" />
    <path
      d="M 11.688,2.156 10.938,2.844 15.094,7 H 3 v 1 h 12.094 l -4.156,4.156 0.688,0.688 5,-5 L 17,7.5 16.625,7.156 Z"
      class="ColorScheme-Background" fill="currentColor" />
  </g>
  <g id="south-minslider" transform="translate(4)">
    <rect width="36" height="15" ry="3" rx="3" fill="none" x="0" y="0" />
    <rect width="2" height="11" x="17" y="2" class="ColorScheme-Background" fill="currentColor" />
    <path class="ColorScheme-Background" fill="currentColor"
      d="M 24.375,2.156 25.063,2.844 20.907,7 H 33 V 8 H 20.906 l 4.156,4.156 -0.688,0.688 -5,-5 L 19,7.5 19.375,7.156 Z" />
  </g>
  <g id="south-offsetslider" transform="translate(30,51)">
    <rect width="28" height="19" fill="#fcfcfc" opacity="0.01" fill-opacity="0.004" x="0" y="0" />
    <path d="M 14.076,11.971 21.275,2 H 6.876 Z" class="ColorScheme-Background" fill="currentColor" />
  </g>
  <g id="north-maxslider" transform="translate(0,17)">
    <rect width="36" height="15" rx="3" ry="3" x="0" y="0" fill="none" />
    <rect width="2" height="11" x="17" y="2" class="ColorScheme-Background" fill="currentColor" />
    <path class="ColorScheme-Background" fill="currentColor"
      d="M 11.688,2.156 10.938,2.844 15.094,7 H 3 v 1 h 12.094 l -4.156,4.156 0.688,0.688 5,-5 L 17,7.5 16.625,7.156 Z" />
  </g>
  <g id="north-minslider" transform="translate(4,17)">
    <rect width="36" height="15" rx="3" ry="3" fill="none" x="0" y="0" />
    <rect width="2" height="11" x="17" y="2" class="ColorScheme-Background" fill="currentColor" />
    <path class="ColorScheme-Background" fill="currentColor"
      d="M 24.375,2.156 25.063,2.844 20.907,7 H 33 V 8 H 20.906 l 4.156,4.156 -0.688,0.688 -5,-5 L 19,7.5 19.375,7.156 Z" />
  </g>
  <g id="north-offsetslider" transform="translate(30,32)">
    <rect width="28" height="19" fill="none" x="0" y="0" />
    <path d="M 14.076,7.029 21.275,17 H 6.876 Z" class="ColorScheme-Background" fill="currentColor" />
  </g>
  <g id="east-maxslider" transform="translate(0,32)">
    <rect width="15" height="36" rx="3" ry="3" fill="none" x="0" y="0" />
    <rect width="11" height="2" x="2" y="17" class="ColorScheme-Background" fill="currentColor" />
    <path class="ColorScheme-Background" fill="currentColor"
      d="M 12.844,11.688 12.156,10.938 8,15.094 V 3 H 7 v 12.094 l -4.156,-4.156 -0.688,0.688 5,5 0.344,0.375 0.344,-0.375 z" />
  </g>
  <g id="east-minslider" transform="translate(0,36)">
    <rect width="15" height="36" ry="3" rx="3" fill="none" x="0" y="0" />
    <rect width="11" height="2" x="2" y="17" class="ColorScheme-Background" fill="currentColor" />
    <path class="ColorScheme-Background" fill="currentColor"
      d="M 12.844,24.375 12.156,25.063 8,20.907 V 33 H 7 V 20.906 l -4.156,4.156 -0.688,-0.688 5,-5 0.344,-0.375 0.344,0.375 z" />
  </g>
  <g id="east-offsetslider" transform="translate(59)">
    <rect width="19" height="28" fill="none" x="0" y="0" />
    <path class="ColorScheme-Background" fill="currentColor" d="M 11.971,14.076 2,21.275 V 6.876 Z" />
  </g>
  <g id="west-maxslider" transform="translate(15,32)">
    <rect width="15" height="36" fill="none" x="0" y="0" />
    <rect width="11" height="2" x="2" y="17" class="ColorScheme-Background" fill="currentColor" />
    <path class="ColorScheme-Background" fill="currentColor"
      d="M 12.844,11.688 12.156,10.938 8,15.094 V 3 H 7 v 12.094 l -4.156,-4.156 -0.688,0.688 5,5 L 7.5,17 7.844,16.625 Z" />
  </g>
  <g id="west-minslider" transform="translate(15,36)">
    <rect width="15" height="36" fill="none" x="0" y="0" />
    <rect width="11" height="2" x="2" y="17" class="ColorScheme-Background" fill="currentColor" />
    <path class="ColorScheme-Background" fill="currentColor"
      d="M 12.844,24.375 12.156,25.063 8,20.907 V 33 H 7 V 20.906 l -4.156,4.156 -0.688,-0.688 5,-5 0.344,-0.375 0.344,0.375 z" />
  </g>
  <g id="west-offsetslider" transform="translate(40)">
    <rect width="19" height="28" fill="none" x="0" y="0" />
    <path d="M 7.029,14.076 17,21.275 V 6.876 Z" class="ColorScheme-Background" fill="currentColor" />
  </g>
  <rect id="south-center" width="10" height="12" x="58" y="29" class="ColorScheme-ButtonText" fill="currentColor"
    opacity="0.8" />
  <rect id="south-bottom" width="10" height="1" x="58" y="41" class="ColorScheme-ButtonText" fill="currentColor"
    opacity="0.8" />
  <rect id="south-top" width="10" height="1" x="58" y="28" class="ColorScheme-ButtonText" fill="currentColor"
    opacity="0.8" />
  <rect id="north-center" width="10" height="12" x="70" y="29" class="ColorScheme-ButtonText" fill="currentColor"
    opacity="0.8" />
  <rect id="north-bottom" width="10" height="1" x="70" y="41" class="ColorScheme-ButtonText" fill="currentColor"
    opacity="0.8" />
  <rect id="north-top" width="10" height="1" x="70" y="28" class="ColorScheme-ButtonText" fill="currentColor"
    opacity="0.8" />
  <rect id="east-center" width="12" height="10" x="59" y="44" class="ColorScheme-ButtonText" fill="currentColor"
    opacity="0.8" />
  <rect id="east-left" width="1" height="10" x="58" y="44" class="ColorScheme-ButtonText" fill="currentColor"
    opacity="0.8" />
  <rect id="east-right" width="1" height="10" x="71" y="44" class="ColorScheme-ButtonText" fill="currentColor"
    opacity="0.8" />
  <rect id="west-center" width="12.171" height="10" x="59.014" y="56" class="ColorScheme-ButtonText" fill="currentColor"
    opacity="0.8" style="stroke-width:1" />
  <rect id="west-left" width="1.014" height="10" x="58" y="56" class="ColorScheme-ButtonText" fill="currentColor"
    opacity="0.8" style="stroke-width:1" />
  <rect id="west-right" width="1.014" height="10" x="71.186" y="56" class="ColorScheme-ButtonText" fill="currentColor"
    opacity="0.8" style="stroke-width:1" />
</svg>