<svg width="128" height="128" xmlns="http://www.w3.org/2000/svg" xmlns:svg="http://www.w3.org/2000/svg">
  <defs>
    <linearGradient id="lg-1">
      <stop offset="0" stop-color="#888888" stop-opacity="1" />
      <stop offset="1" stop-color="#232323" stop-opacity="1" />
    </linearGradient>
    <linearGradient id="lg-2">
      <stop offset="0" stop-color="#ffffff" stop-opacity="0.784" />
      <stop offset="1" stop-color="#ffffff" stop-opacity="0.196" />
    </linearGradient>
    <linearGradient id="lg-3">
      <stop offset="0" stop-color="#ffffff" stop-opacity="1" />
      <stop offset="1" stop-color="#b4b4b4" stop-opacity="1" />
    </linearGradient>
    <linearGradient id="lg-4">
      <stop offset="0" stop-color="#ffffff" stop-opacity="1" />
    </linearGradient>
    <linearGradient id="lg-5">
      <stop offset="0" stop-color="#ffffff" stop-opacity="1" />
    </linearGradient>
    <linearGradient id="lg-6">
      <stop offset="0" stop-color="#000000" stop-opacity="0.078" />
      <stop offset="1" stop-color="#000000" stop-opacity="0.314" />
    </linearGradient>
    <linearGradient id="lg-7">
      <stop id="stop3767-9" offset="0" style="stop-color:#fafafa;stop-opacity:1;" />
      <stop id="stop3769-1" offset="1" style="stop-color:#e2e2e2;stop-opacity:0.70588237;" />
    </linearGradient>
    <style id="current-color-scheme" type="text/css">
      .ColorScheme-ButtonText {
        color: #31363b;
      }

      .ColorScheme-Background {
        color: #282a2d;
      }

      .ColorScheme-ViewText {
        color: #31363b;
      }

      .ColorScheme-ViewBackground {
        color: #fcfcfc;
      }

      .ColorScheme-ViewHover {
        color: #3daee9;
      }

      .ColorScheme-ViewFocus {
        color: #3daee9;
      }

      .ColorScheme-ButtonText {
        color: #31363b;
      }

      .ColorScheme-ButtonBackground {
        color: #eff0f1;
      }

      .ColorScheme-ButtonHover {
        color: #3daee9;
      }

      .ColorScheme-ButtonFocus {
        color: #3daee9;
      }
    </style>
  </defs>
  <rect id="hint-tile-center" height="5" width="5" opacity="0.65" fill="#023812" />
  <g id="vertical-centerindicator">
    <rect width="42" height="1" x="6" y="0" class="ColorScheme-Background" fill="currentColor" opacity="0.4"
      id="rect6" />
  </g>
  <g id="horizontal-centerindicator">
    <rect width="1" height="42" x="0" y="6" class="ColorScheme-Background" fill="currentColor" opacity="0.4"
      id="rect7" />
  </g>
  <g id="south-maxslider">
    <rect width="36" height="15" rx="3" ry="3" fill="#fcfcfc" fill-opacity="0.004" opacity="0.01" id="rect8" />
    <rect height="11" width="2" y="2" x="17" class="ColorScheme-Background" fill="currentColor" id="rect9" />
    <path
      d="m 11.6875,2.156249 -0.75,0.6875 4.15625,4.15625 H 3.000003 v 1 H 15.09375 l -4.15625,4.15625 0.6875,0.6875 5,-5 L 17,7.499999 16.625,7.156249 Z"
      class="ColorScheme-Background" fill="currentColor" id="path9" />
  </g>
  <g id="south-offsetslider">
    <rect width="28" height="19" fill="#fcfcfc" opacity="0.01" fill-opacity="0.004" />
    <path d="m 14.075686,11.970771 7.199365,-9.97077 H 6.87632 Z" class="ColorScheme-Background" fill="currentColor" />
  </g>
  <rect style="opacity:0.8;fill:currentColor;fill-opacity:1;stroke:none" id="south-center" width="10" height="12" x="71"
    y="66" class="ColorScheme-ButtonText" />
  <rect class="ColorScheme-ButtonText" y="78" x="71" height="1" width="10" id="south-bottom"
    style="opacity:0.8;fill:currentColor;fill-opacity:1;stroke:none" inkscape:label="#rect5509" />
  <rect style="opacity:0.8;fill:currentColor;fill-opacity:1;stroke:none" id="south-top" width="10" height="1" x="71"
    y="65" class="ColorScheme-ButtonText" inkscape:label="#rect5511" />
  <rect style="opacity:0.8;fill:currentColor;fill-opacity:1;stroke:none" id="north-center" width="10" height="12" x="70"
    y="29" class="ColorScheme-ButtonText" inkscape:label="#rect5507" />
  <rect class="ColorScheme-ButtonText" y="41" x="70" height="1" width="10" id="north-bottom"
    style="opacity:0.8;fill:currentColor;fill-opacity:1;stroke:none" inkscape:label="#rect5509" />
  <rect style="opacity:0.8;fill:currentColor;fill-opacity:1;stroke:none" id="north-top" width="10" height="1" x="70"
    y="28" class="ColorScheme-ButtonText" inkscape:label="#rect5511" />
  <rect style="opacity:0.8;fill:currentColor;fill-opacity:1;stroke:none" id="west-center" width="10" height="12" x="113"
    y="-18" class="ColorScheme-ButtonText" inkscape:label="#rect5507" transform="rotate(90)" />
  <rect class="ColorScheme-ButtonText" y="-6" x="113" height="1" width="10" id="west-left"
    style="opacity:0.8;fill:currentColor;fill-opacity:1;stroke:none" inkscape:label="#rect5509"
    transform="rotate(90)" />
  <rect style="opacity:0.8;fill:currentColor;fill-opacity:1;stroke:none" id="west-right" width="10" height="1" x="113"
    y="-19" class="ColorScheme-ButtonText" inkscape:label="#rect5511" transform="rotate(90)" />
  <rect style="opacity:0.8;fill:currentColor;fill-opacity:1;stroke:none" id="east-center" width="10" height="12" x="112"
    y="-90" class="ColorScheme-ButtonText" inkscape:label="#rect5507" transform="rotate(90)" />
  <rect class="ColorScheme-ButtonText" y="-78" x="112" height="1" width="10" id="east-left"
    style="opacity:0.8;fill:currentColor;fill-opacity:1;stroke:none" inkscape:label="#rect5509"
    transform="rotate(90)" />
  <rect style="opacity:0.8;fill:currentColor;fill-opacity:1;stroke:none" id="east-right" width="10" height="1" x="112"
    y="-91" class="ColorScheme-ButtonText" inkscape:label="#rect5511" transform="rotate(90)" />
  <g id="south-minslider" transform="matrix(-0.73968509,0,0,0.73968509,54.473514,141.20676)" inkscape:label="#g5481">
    <rect ry="3" rx="3" transform="matrix(1.3519267,0,0,1.3519267,-107.51398,-181.4377)" y="57" x="8.000001" height="15"
      width="36" id="rect3863" style="opacity:0.01;fill:#fcfcfc;fill-opacity:0.00392157;stroke:none" />
    <rect style="fill:currentColor;fill-opacity:1;stroke:none" id="rect3865" width="2.7038541" height="14.871195"
      x="-73.715813" y="-101.67403" class="ColorScheme-Background" />
    <path id="path3867" transform="matrix(1.3519267,0,0,1.3519267,-107.51398,-181.4377)"
      d="m 19.625001,59.15625 -0.6875,0.6875 L 23.093751,64 H 11.000002 v 1 h 12.093749 l -4.15625,4.15625 0.6875,0.6875 5,-5 0.375,-0.34375 -0.375,-0.34375 z"
      style="fill:currentColor;fill-opacity:1;stroke:none" class="ColorScheme-Background" />
  </g>
  <g id="north-maxslider" transform="matrix(0.73968509,0,0,0.73968509,161.52649,84.70676)" inkscape:label="#g5481">
    <rect ry="3" rx="3" transform="matrix(1.3519267,0,0,1.3519267,-107.51398,-181.4377)" y="57" x="8.000001" height="15"
      width="36" id="rect3845" style="opacity:0.01;fill:#fcfcfc;fill-opacity:0.00392157;stroke:none" />
    <rect style="fill:currentColor;fill-opacity:1;stroke:none" id="rect3847" width="2.7038541" height="14.871195"
      x="-73.715813" y="-101.67403" class="ColorScheme-Background" />
    <path class="ColorScheme-Background" id="path3849" transform="matrix(1.3519267,0,0,1.3519267,-107.51398,-181.4377)"
      d="m 19.6875,59.15625 -0.75,0.6875 L 23.09375,64 H 11.000001 v 1 H 23.09375 l -4.15625,4.15625 0.6875,0.6875 5,-5 L 25,64.5 24.625,64.15625 Z"
      style="fill:currentColor;fill-opacity:1;stroke:none" />
  </g>
  <g id="north-offsetslider" transform="matrix(0.73968509,0,0,-0.73968509,127.5296,-57.20016)" inkscape:label="#g5494">
    <rect transform="matrix(1.3519267,0,0,1.3519267,-37.218,-180.07685)" y="56" x="-40" height="19" width="28"
      id="rect3853" style="opacity:0.01;fill:#fcfcfc;fill-opacity:0.00392157;stroke:none" />
    <path class="ColorScheme-Background" id="path3855" d="m -72.265772,-88.18535 9.733014,-13.47975 h -19.466029 z"
      inkscape:transform-center-y="0.9853864" style="fill:currentColor;fill-opacity:1;stroke:none" />
  </g>
  <g inkscape:label="#g5481" transform="matrix(-0.73968509,0,0,0.73968509,54.473511,99.70676)" id="north-minslider">
    <rect style="opacity:0.01;fill:#fcfcfc;fill-opacity:0.00392157;stroke:none" id="rect3859" width="36" height="15"
      x="8.000001" y="57" transform="matrix(1.3519267,0,0,1.3519267,-107.51398,-181.4377)" rx="3" ry="3" />
    <rect class="ColorScheme-Background" y="-101.67403" x="-73.715813" height="14.871195" width="2.7038541"
      id="rect3861" style="fill:currentColor;fill-opacity:1;stroke:none" />
    <path class="ColorScheme-Background" style="fill:currentColor;fill-opacity:1;stroke:none"
      d="m 19.625001,59.15625 -0.6875,0.6875 L 23.093751,64 H 11.000002 v 1 h 12.093749 l -4.15625,4.15625 0.6875,0.6875 5,-5 0.375,-0.34375 -0.375,-0.34375 z"
      transform="matrix(1.3519267,0,0,1.3519267,-107.51398,-181.4377)" id="path3863" />
  </g>
  <g inkscape:label="#g5481" transform="matrix(0,0.73968509,-0.73968509,0,33.79324,153.52649)" id="east-maxslider">
    <rect style="opacity:0.01;fill:#fcfcfc;fill-opacity:0.00392157;stroke:none" id="rect3873" width="36" height="15"
      x="8.000001" y="57" transform="matrix(1.3519267,0,0,1.3519267,-107.51398,-181.4377)" rx="3" ry="3" />
    <rect class="ColorScheme-Background" y="-101.67403" x="-73.715813" height="14.871195" width="2.7038541"
      id="rect3875" style="fill:currentColor;fill-opacity:1;stroke:none" />
    <path style="fill:currentColor;fill-opacity:1;stroke:none"
      d="m 19.6875,59.15625 -0.75,0.6875 L 23.09375,64 H 11.000001 v 1 H 23.09375 l -4.15625,4.15625 0.6875,0.6875 5,-5 L 25,64.5 24.625,64.15625 Z"
      transform="matrix(1.3519267,0,0,1.3519267,-107.51398,-181.4377)" id="path3877" class="ColorScheme-Background" />
  </g>
  <g inkscape:label="#g5494" transform="matrix(0,0.73968509,0.73968509,0,153.20016,149.5296)" id="east-offsetslider">
    <rect style="opacity:0.01;fill:#fcfcfc;fill-opacity:0.00392157;stroke:none" id="rect3881" width="28" height="19"
      x="-40" y="56" transform="matrix(1.3519267,0,0,1.3519267,-37.218,-180.07685)" />
    <path style="fill:currentColor;fill-opacity:1;stroke:none" inkscape:transform-center-y="0.9853864"
      d="m -72.265772,-88.18535 9.733014,-13.47975 h -19.466029 z" id="path3883" class="ColorScheme-Background" />
  </g>
  <g id="east-minslider" transform="matrix(0,-0.73968509,-0.73968509,0,49.79324,46.473514)" inkscape:label="#g5481">
    <rect ry="3" rx="3" transform="matrix(1.3519267,0,0,1.3519267,-107.51398,-181.4377)" y="57" x="8.000001" height="15"
      width="36" id="rect3887" style="opacity:0.01;fill:#fcfcfc;fill-opacity:0.00392157;stroke:none" />
    <rect style="fill:currentColor;fill-opacity:1;stroke:none" id="rect3889" width="2.7038541" height="14.871195"
      x="-73.715813" y="-101.67403" class="ColorScheme-Background" />
    <path id="path3891" transform="matrix(1.3519267,0,0,1.3519267,-107.51398,-181.4377)"
      d="m 19.625001,59.15625 -0.6875,0.6875 L 23.093751,64 H 11.000002 v 1 h 12.093749 l -4.15625,4.15625 0.6875,0.6875 5,-5 0.375,-0.34375 -0.375,-0.34375 z"
      style="fill:currentColor;fill-opacity:1;stroke:none" class="ColorScheme-Background" />
  </g>
  <g id="west-maxslider" transform="matrix(0,0.73968509,-0.73968509,0,-38.20676,153.52649)" inkscape:label="#g5481">
    <rect ry="3" rx="3" transform="matrix(1.3519267,0,0,1.3519267,-107.51398,-181.4377)" y="57" x="8.000001" height="15"
      width="36" id="rect3901" style="opacity:0.01;fill:#fcfcfc;fill-opacity:0.00392157;stroke:none" />
    <rect style="fill:currentColor;fill-opacity:1;stroke:none" id="rect3903" width="2.7038541" height="14.871195"
      x="-73.715813" y="-101.67403" class="ColorScheme-Background" />
    <path class="ColorScheme-Background" id="path3905" transform="matrix(1.3519267,0,0,1.3519267,-107.51398,-181.4377)"
      d="m 19.6875,59.15625 -0.75,0.6875 L 23.09375,64 H 11.000001 v 1 H 23.09375 l -4.15625,4.15625 0.6875,0.6875 5,-5 L 25,64.5 24.625,64.15625 Z"
      style="fill:currentColor;fill-opacity:1;stroke:none" />
  </g>
  <g id="west-offsetslider" transform="matrix(0,0.73968509,-0.73968509,0,-57.20016,149.5296)" inkscape:label="#g5494">
    <rect transform="matrix(1.3519267,0,0,1.3519267,-37.218,-180.07685)" y="56" x="-40" height="19" width="28"
      id="rect3909" style="opacity:0.01;fill:#fcfcfc;fill-opacity:0.00392157;stroke:none" />
    <path class="ColorScheme-Background" id="path3911" d="m -72.265772,-88.18535 9.733014,-13.47975 h -19.466029 z"
      inkscape:transform-center-y="0.9853864" style="fill:currentColor;fill-opacity:1;stroke:none" />
  </g>
  <g inkscape:label="#g5481" transform="matrix(0,-0.73968509,-0.73968509,0,-18.70676,46.473514)" id="west-minslider">
    <rect style="opacity:0.01;fill:#fcfcfc;fill-opacity:0.00392157;stroke:none" id="rect3915" width="36" height="15"
      x="8.000001" y="57" transform="matrix(1.3519267,0,0,1.3519267,-107.51398,-181.4377)" rx="3" ry="3" />
    <rect class="ColorScheme-Background" y="-101.67403" x="-73.715813" height="14.871195" width="2.7038541"
      id="rect3917" style="fill:currentColor;fill-opacity:1;stroke:none" />
    <path class="ColorScheme-Background" style="fill:currentColor;fill-opacity:1;stroke:none"
      d="m 19.625001,59.15625 -0.6875,0.6875 L 23.093751,64 H 11.000002 v 1 h 12.093749 l -4.15625,4.15625 0.6875,0.6875 5,-5 0.375,-0.34375 -0.375,-0.34375 z"
      transform="matrix(1.3519267,0,0,1.3519267,-107.51398,-181.4377)" id="path3919" />
  </g>
</svg>