<svg width="80" height="80" xmlns:xlink="http://www.w3.org/1999/xlink" xmlns="http://www.w3.org/2000/svg"
  xmlns:svg="http://www.w3.org/2000/svg">
  <defs>
    <style id="current-color-scheme" type="text/css">
      .ColorScheme-Text {
        color: #31363b;
        stop-color: #31363b;
      }

      .ColorScheme-Background {
        color: #282a2d;
        stop-color: #282a2d;
      }

      .ColorScheme-Highlight {
        color: #3daee9;
        stop-color: #3daee9;
      }

      .ColorScheme-ViewText {
        color: #31363b;
        stop-color: #31363b;
      }

      .ColorScheme-ViewBackground {
        color: #fcfcfc;
        stop-color: #fcfcfc;
      }

      .ColorScheme-ViewHover {
        color: #93cee9;
        stop-color: #93cee9;
      }

      .ColorScheme-ViewFocus {
        color: #3daee9;
        stop-color: #3daee9;
      }

      .ColorScheme-ButtonText {
        color: #31363b;
        stop-color: #31363b;
      }

      .ColorScheme-ButtonBackground {
        color: #eff0f1;
        stop-color: #eff0f1;
      }

      .ColorScheme-ButtonHover {
        color: #93cee9;
        stop-color: #93cee9;
      }

      .ColorScheme-ButtonFocus {
        color: #3daee9;
        stop-color: #3daee9;
      }
    </style>
  </defs>
  <g id="plain-topleft">
    <!-- <path d="m 6,0 a 6,6 0 0 0 -6,6 h 1 a 5,5 0 0 1 5,-5 z" class="ColorScheme-Background" fill="currentColor" /> -->
    <path d="m 6,0 a 6,6 0 0 0 -6,6 h 6 z" class="ColorScheme-Background" fill="currentColor" />
    <path d="m 6,0 a 6,6 0 0 0 -6,6 h 1 a 5,5 0 0 1 5,-5 z" fill="#ffffff" opacity="0.15" />
  </g>
  <g id="plain-top">
    <!-- <rect width="22" height="6" x="6" y="0" fill="none" />
    <rect width="22" height="1" x="6" y="0" class="ColorScheme-Background" fill="currentColor" /> -->
    <rect width="22" height="6" x="6" y="0" class="ColorScheme-Background" fill="currentColor" />
    <rect width="22" height="1" x="6" y="0" fill="#ffffff" opacity="0.15" />
  </g>
  <g id="plain-topright">
    <!-- <path d="m 28,0 a 6,6 0 0 1 6,6 h -1 a 5,5 0 0 0 -5,-5 z" class="ColorScheme-Background" fill="currentColor" /> -->
    <path d="m 28,0 a 6,6 0 0 1 6,6 h -6 z" class="ColorScheme-Background" fill="currentColor" />
    <path d="m 28,0 a 6,6 0 0 1 6,6 h -1 a 5,5 0 0 0 -5,-5 z" fill="#ffffff" opacity="0.15" />
  </g>
  <g id="plain-left">
    <!-- <rect width="6" height="22" x="0" y="6" fill="none" />
    <rect width="1" height="22" x="0" y="6" class="ColorScheme-Background" fill="currentColor" /> -->
    <rect width="6" height="22" x="0" y="6" class="ColorScheme-Background" fill="currentColor" />
    <rect width="1" height="22" x="0" y="6" fill="#ffffff" opacity="0.15" />
  </g>
  <g id="plain-center">
    <!-- <rect width="22" height="22" x="6" y="6" fill="none" /> -->
    <rect width="22" height="22" x="6" y="6" class="ColorScheme-Background" fill="currentColor" />
  </g>
  <g id="plain-right">
    <!-- <rect width="6" height="22" x="28" y="6" fill="none" />
    <rect width="1" height="22" x="33" y="6" class="ColorScheme-Background" fill="currentColor" /> -->
    <rect width="6" height="22" x="28" y="6" class="ColorScheme-Background" fill="currentColor" />
    <rect width="1" height="22" x="33" y="6" fill="#ffffff" opacity="0.15" />
  </g>
  <g id="plain-bottomleft">
    <!-- <path d="m 6,34 a 6,6 0 0 1 -6,-6 h 1 a 5,5 0 0 0 5,5 z" class="ColorScheme-Background" fill="currentColor" /> -->
    <path d="m 6,34 a 6,6 0 0 1 -6,-6 h 6 z" class="ColorScheme-Background" fill="currentColor" />
    <path d="m 6,34 a 6,6 0 0 1 -6,-6 h 1 a 5,5 0 0 0 5,5 z" fill="#ffffff" opacity="0.15" />
  </g>
  <g id="plain-bottom">
    <!-- <rect width="22" height="6" x="6" y="28" fill="none" />
    <rect width="22" height="1" x="6" y="33" class="ColorScheme-Background" fill="currentColor" /> -->
    <rect width="22" height="6" x="6" y="28" class="ColorScheme-Background" fill="currentColor" />
    <rect width="22" height="1" x="6" y="33" fill="#ffffff" opacity="0.15" />
  </g>
  <g id="plain-bottomright">
    <!-- <path d="m 28,34 a 6,6 0 0 0 6,-6 h -1 a 5,5 0 0 1 -5,5 z" class="ColorScheme-Background" fill="currentColor" /> -->
    <path d="m 28,34 a 6,6 0 0 0 6,-6 h -6 z" class="ColorScheme-Background" fill="currentColor" />
    <path d="m 28,34 a 6,6 0 0 0 6,-6 h -1 a 5,5 0 0 1 -5,5 z" fill="#ffffff" opacity="0.15" />
  </g>
  <rect id="plain-hint-top-margin" width="2" height="6" x="16" y="0" fill="#4e9a06" />
  <rect id="plain-hint-left-margin" width="6" height="2" x="0" y="16" fill="#4e9a06" />
  <rect id="plain-hint-right-margin" width="6" height="2" x="28" y="16" fill="#4e9a06" />
  <rect id="plain-hint-bottom-margin" width="2" height="6" x="16" y="28" fill="#4e9a06" />
  <g id="sunken-topleft" transform="translate(34)">
    <path d="m 6,0 a 6,6 0 0 0 -6,6 h 6 z" class="ColorScheme-Background" fill="currentColor" />
    <path d="m 6,0 a 6,6 0 0 0 -6,6 h 6 z" fill="#000000" opacity="0.25" />
  </g>
  <g id="sunken-top" transform="translate(34)">
    <rect width="22" height="6" x="6" y="0" class="ColorScheme-Background" fill="currentColor" />
    <rect width="22" height="6" x="6" y="0" fill="#000000" opacity="0.25" />
  </g>
  <g id="sunken-topright" transform="translate(34)">
    <path d="m 28,0 a 6,6 0 0 1 6,6 h -6 z" class="ColorScheme-Background" fill="currentColor" />
    <path d="m 28,0 a 6,6 0 0 1 6,6 h -6 z" fill="#000000" opacity="0.25" />
  </g>
  <g id="sunken-left" transform="translate(34)">
    <rect width="6" height="22" x="0" y="6" class="ColorScheme-Background" fill="currentColor" />
    <rect width="6" height="22" x="0" y="6" fill="#000000" opacity="0.25" />
  </g>
  <g id="sunken-center" transform="translate(34)">
    <rect width="22" height="22" x="6" y="6" class="ColorScheme-Background" fill="currentColor" />
    <rect width="22" height="22" x="6" y="6" fill="#000000" opacity="0.25" />
  </g>
  <g id="sunken-right" transform="translate(34)">
    <rect width="6" height="22" x="28" y="6" class="ColorScheme-Background" fill="currentColor" />
    <rect width="6" height="22" x="28" y="6" fill="#000000" opacity="0.25" />
  </g>
  <g id="sunken-bottomleft" transform="translate(34)">
    <path d="m 6,34 a 6,6 0 0 1 -6,-6 h 6 z" class="ColorScheme-Background" fill="currentColor" />
    <path d="m 6,34 a 6,6 0 0 1 -6,-6 h 6 z" fill="#000000" opacity="0.25" />
  </g>
  <g id="sunken-bottom" transform="translate(34)">
    <rect width="22" height="6" x="6" y="28" class="ColorScheme-Background" fill="currentColor" />
    <rect width="22" height="6" x="6" y="28" fill="#000000" opacity="0.25" />
  </g>
  <g id="sunken-bottomright" transform="translate(34)">
    <path d="m 28,34 a 6,6 0 0 0 6,-6 h -6 z" class="ColorScheme-Background" fill="currentColor" />
    <path d="m 28,34 a 6,6 0 0 0 6,-6 h -6 z" fill="#000000" opacity="0.25" />
  </g>
  <rect id="sunken-hint-top-margin" width="2" height="6" x="50" y="0" fill="#4e9a06" />
  <rect id="sunken-hint-left-margin" width="6" height="2" x="34" y="16" fill="#4e9a06" />
  <rect id="sunken-hint-right-margin" width="6" height="2" x="62" y="16" fill="#4e9a06" />
  <rect id="sunken-hint-bottom-margin" width="2" height="6" x="50" y="28" fill="#4e9a06" />
  <g id="raised-topleft" transform="translate(0,34)">
    <path d="m 6,0 a 6,6 0 0 0 -6,6 h 6 z" class="ColorScheme-Background" fill="currentColor" />
    <path d="m 6,0 a 6,6 0 0 0 -6,6 h 6 z" fill="#ffffff" opacity="0.05" />
  </g>
  <g id="raised-top" transform="translate(0,34)">
    <rect width="22" height="6" x="6" y="0" class="ColorScheme-Background" fill="currentColor" />
    <rect width="22" height="6" x="6" y="0" fill="#ffffff" opacity="0.05" />
  </g>
  <g id="raised-topright" transform="translate(0,34)">
    <path d="m 28,0 a 6,6 0 0 1 6,6 h -6 z" class="ColorScheme-Background" fill="currentColor" />
    <path d="m 28,0 a 6,6 0 0 1 6,6 h -6 z" fill="#ffffff" opacity="0.05" />
  </g>
  <g id="raised-left" transform="translate(0,34)">
    <rect width="6" height="22" x="0" y="6" class="ColorScheme-Background" fill="currentColor" />
    <rect width="6" height="22" x="0" y="6" fill="#ffffff" opacity="0.05" />
  </g>
  <g id="raised-center" transform="translate(0,34)">
    <rect width="22" height="22" x="6" y="6" class="ColorScheme-Background" fill="currentColor" />
    <rect width="22" height="22" x="6" y="6" fill="#ffffff" opacity="0.05" />
  </g>
  <g id="raised-right" transform="translate(0,34)">
    <rect width="6" height="22" x="28" y="6" class="ColorScheme-Background" fill="currentColor" />
    <rect width="6" height="22" x="28" y="6" fill="#ffffff" opacity="0.05" />
  </g>
  <g id="raised-bottomleft" transform="translate(0,34)">
    <path d="m 6,34 a 6,6 0 0 1 -6,-6 h 6 z" class="ColorScheme-Background" fill="currentColor" />
    <path d="m 6,34 a 6,6 0 0 1 -6,-6 h 6 z" fill="#ffffff" opacity="0.05" />
  </g>
  <g id="raised-bottom" transform="translate(0,34)">
    <rect width="22" height="6" x="6" y="28" class="ColorScheme-Background" fill="currentColor" />
    <rect width="22" height="6" x="6" y="28" fill="#ffffff" opacity="0.05" />
  </g>
  <g id="raised-bottomright" transform="translate(0,34)">
    <path d="m 28,34 a 6,6 0 0 0 6,-6 h -6 z" class="ColorScheme-Background" fill="currentColor" />
    <path d="m 28,34 a 6,6 0 0 0 6,-6 h -6 z" fill="#ffffff" opacity="0.05" />
  </g>
  <rect id="raised-hint-top-margin" width="2" height="6" x="16" y="34" fill="#4e9a06" />
  <rect id="raised-hint-left-margin" width="6" height="2" x="0" y="50" fill="#4e9a06" />
  <rect id="raised-hint-right-margin" width="6" height="2" x="28" y="50" fill="#4e9a06" />
  <rect id="raised-hint-bottom-margin" width="2" height="6" x="16" y="62" fill="#4e9a06" />
</svg>