<svg height="48" width="48" version="1.1" xmlns="http://www.w3.org/2000/svg" xmlns:svg="http://www.w3.org/2000/svg">
  <sodipodi:namedview pagecolor="#ffffff" bordercolor="#666666" borderopacity="1.0" />
  <defs>
    <style id="current-color-scheme" type="text/css">
      .ColorScheme-Background {
        color: #282a2d;
      }
    </style>
  </defs>
  <!-- outline -->
  <g id="base-topleft">
    <rect width="4" height="4" x="0" y="0" fill="none" />
    <path d="M 4,1 a 3,3 0 0 0 -3,3 h 3 Z" class="ColorScheme-Background" fill="currentColor" />
    <path d="M 4,0.5 a 3.5,3.5 0 0 0 -3.5,3.5 h 1 a 2.5,2.5 0 0 1 2.5,-2.5 Z" fill="#8c9198" />
  </g>
  <g id="base-top">
    <rect width="16" height="4" x="4" y="0" fill="none" />
    <rect width="16" height="3" x="4" y="1" class="ColorScheme-Background" fill="currentColor" />
    <rect width="16" height="1" x="4" y="0.5" fill="#8c9198" />
  </g>
  <g id="base-topright">
    <rect width="4" height="4" x="20" y="0" fill="none" />
    <path d="M 20,1 a 3,3 0 0 1 3,3 h -3 Z" class="ColorScheme-Background" fill="currentColor" />
    <path d="M 20,0.5 A 3.5,3.5 0 0 1 23.5,4 h -1 A 2.5,2.5 0 0 0 20,1.5 Z" fill="#8c9198" />
  </g>
  <g id="base-left">
    <rect width="4" height="16" x="0" y="4" fill="none" />
    <rect width="3" height="16" x="1" y="4" class="ColorScheme-Background" fill="currentColor" />
    <rect width="1" height="16" x="0.5" y="4" fill="#8c9198" />
  </g>
  <rect id="base-center" width="16" height="16" x="4" y="4" class="ColorScheme-Background" fill="currentColor" />
  <g id="base-right">
    <rect width="4" height="16" x="20" y="4" fill="none" />
    <rect width="3" height="16" x="20" y="4" class="ColorScheme-Background" fill="currentColor" />
    <rect width="1" height="16" x="22.5" y="4" fill="#8c9198" />
  </g>
  <g id="base-bottomleft">
    <rect width="4" height="4" x="0" y="20" fill="none" />
    <path d="M 1,20 a 3,3 0 0 0 3,3 v -3 Z" class="ColorScheme-Background" fill="currentColor" />
    <path d="M 0.5,20 A 3.5,3.5 0 0 0 4,23.5 v -1 A 2.5,2.5 0 0 1 1.5,20 Z" fill="#8c9198" />
  </g>
  <g id="base-bottom">
    <rect width="16" height="4" x="4" y="20" fill="none" />
    <rect width="16" height="3" x="4" y="20" class="ColorScheme-Background" fill="currentColor" />
    <rect width="16" height="1" x="4" y="22.5" fill="#8c9198" />
  </g>
  <g id="base-bottomright">
    <rect width="4" height="4" x="20" y="20" fill="none" />
    <path d="M 23,20 a 3,3 0 0 1 -3,3 v -3 Z" class="ColorScheme-Background" fill="currentColor" />
    <path d="M 23.5,20 A 3.5,3.5 0 0 1 20,23.5 v -1 A 2.5,2.5 0 0 0 22.5,20 Z" fill="#8c9198" />
  </g>
  <rect id="base-hint-top-margin" width="2" height="8" x="11" y="0" fill="#4e9a06" />
  <rect id="base-hint-left-margin" width="8" height="2" x="0" y="11" fill="#4e9a06" />
  <rect id="base-hint-right-margin" width="8" height="2" x="16" y="11" fill="#4e9a06" />
  <rect id="base-hint-bottom-margin" width="2" height="8" x="11" y="16" fill="#4e9a06" />
  <!-- onSurface -->
  <g id="hover-topleft" fill="#e2e2e5" transform="translate(24)">
    <rect width="4" height="4" x="0" y="0" fill="none" />
    <path d="M 4,0.5 A 3.5,3.5 0 0 0 0.5,4 h 1 A 2.5,2.5 0 0 1 4,1.5 Z" />
  </g>
  <g id="hover-top" fill="#e2e2e5" transform="translate(24)">
    <rect width="16" height="4" x="4" y="0" fill="none" />
    <rect width="16" height="1" x="4" y="0.5" />
  </g>
  <g id="hover-topright" fill="#e2e2e5" transform="translate(24)">
    <rect width="4" height="4" x="20" y="0" fill="none" />
    <path d="M 20,0.5 A 3.5,3.5 0 0 1 23.5,4 h -1 A 2.5,2.5 0 0 0 20,1.5 Z" />
  </g>
  <g id="hover-left" fill="#e2e2e5" transform="translate(24)">
    <rect width="4" height="16" x="0" y="4" fill="none" />
    <rect width="1" height="16" x="0.5" y="4" />
  </g>
  <rect id="hover-center" height="16" width="16" x="28" y="4" fill="none" />
  <g id="hover-right" fill="#e2e2e5" transform="translate(24)">
    <rect width="4" height="16" x="20" y="4" fill="none" />
    <rect width="1" height="16" x="22.5" y="4" />
  </g>
  <g id="hover-bottomleft" fill="#e2e2e5" transform="translate(24)">
    <rect width="4" height="4" x="0" y="20" fill="none" />
    <path d="M 0.5,20 A 3.5,3.5 0 0 0 4,23.5 v -1 A 2.5,2.5 0 0 1 1.5,20 Z" />
  </g>
  <g id="hover-bottom" fill="#e2e2e5" transform="translate(24)">
    <rect width="16" height="4" x="4" y="20" fill="none" />
    <rect width="16" height="1" x="4" y="22.5" />
  </g>
  <g id="hover-bottomright" fill="#e2e2e5" transform="translate(24)">
    <rect width="4" height="4" x="20" y="20" fill="none" />
    <path d="M 23.5,20 A 3.5,3.5 0 0 1 20,23.5 v -1 A 2.5,2.5 0 0 0 22.5,20 Z" />
  </g>
  <rect id="hover-hint-top-margin" width="2" height="0.001" x="35" y="0" fill="#4e9a06" />
  <rect id="hover-hint-left-margin" width="0.001" height="2" x="24" y="11" fill="#4e9a06" />
  <rect id="hover-hint-right-margin" width="0.001" height="2" x="47.999" y="11" fill="#4e9a06" />
  <rect id="hover-hint-bottom-margin" width="2" height="0.001" x="35" y="23.999" fill="#4e9a06" />
  <!-- primary -->
  <path id="focus-topleft" d="M 4,24 A 4,4 0 0 0 0,28 H 2 A 2,2 0 0 1 4,26 Z" fill="#95ccff" />
  <g id="focus-top" fill="#95ccff" transform="translate(0,24)">
    <rect width="16" height="4" x="4" y="0" fill="none" />
    <rect width="16" height="2" x="4" y="0" />
  </g>
  <path id="focus-topright" d="m 20,24 a 4,4 0 0 1 4,4 h -2 a 2,2 0 0 0 -2,-2 z" fill="#95ccff" />
  <g id="focus-left" fill="#95ccff" transform="translate(0,24)">
    <rect width="4" height="16" x="0" y="4" fill="none" />
    <rect width="2" height="16" x="0" y="4" />
  </g>
  <rect id="focus-center" width="16" height="16" x="4" y="28" fill="none" />
  <g id="focus-right" fill="#95ccff" transform="translate(0,24)">
    <rect width="4" height="16" x="20" y="4" fill="none" />
    <rect width="2" height="16" x="22" y="4" />
  </g>
  <path id="focus-bottomleft" d="m 0,44 a 4,4 0 0 0 4,4 V 46 A 2,2 0 0 1 2,44 Z" fill="#95ccff" />
  <g id="focus-bottom" fill="#95ccff" transform="translate(0,24)">
    <rect width="16" height="4" x="4" y="20" fill="none" />
    <rect width="16" height="2" x="4" y="22" />
  </g>
  <path id="focus-bottomright" d="m 24,44 a 4,4 0 0 1 -4,4 v -2 a 2,2 0 0 0 2,-2 z" fill="#95ccff" />
  <rect id="focus-hint-top-margin" width="2" height="0.001" x="11" y="24" fill="#4e9a06" />
  <rect id="focus-hint-left-margin" width="0.001" height="2" x="0" y="35" fill="#4e9a06" />
  <rect id="focus-hint-right-margin" width="0.001" height="2" x="23.999" y="35" fill="#4e9a06" />
  <rect id="focus-hint-bottom-margin" width="2" height="0.001" x="11" y="47.999" fill="#4e9a06" />
  <path id="focusframe-topleft" d="M 28,24 a 4,4 0 0 0 -4,4 h 2 a 2,2 0 0 1 2,-2 Z" fill="#95ccff" />
  <g id="focusframe-top" fill="#95ccff" transform="translate(24,24)">
    <rect width="16" height="4" x="4" y="0" fill="none" />
    <rect width="16" height="2" x="4" y="0" />
  </g>
  <path id="focusframe-topright" d="m 44,24 a 4,4 0 0 1 4,4 h -2 a 2,2 0 0 0 -2,-2 z" fill="#95ccff" />
  <g id="focusframe-left" fill="#95ccff" transform="translate(24,24)">
    <rect width="4" height="16" x="0" y="4" fill="none" />
    <rect width="2" height="16" x="0" y="4" />
  </g>
  <rect id="focusframe-center" width="16" height="16" x="28" y="28" fill="none" />
  <g id="focusframe-right" fill="#95ccff" transform="translate(24,24)">
    <rect width="4" height="16" x="20" y="4" fill="none" />
    <rect width="2" height="16" x="22" y="4" />
  </g>
  <path id="focusframe-bottomleft" d="m 24,44 a 4,4 0 0 0 4,4 v -2 a 2,2 0 0 1 -2,-2 Z" fill="#95ccff" />
  <g id="focusframe-bottom" fill="#95ccff" transform="translate(24,24)">
    <rect width="16" height="4" x="4" y="20" fill="none" />
    <rect width="16" height="2" x="4" y="22" />
  </g>
  <path id="focusframe-bottomright" d="m 48,44 a 4,4 0 0 1 -4,4 v -2 a 2,2 0 0 0 2,-2 z" fill="#95ccff" />
  <!-- <rect id="focusframe-hint-top-margin" width="2" height="0.001" x="35" y="24" fill="#4e9a06" /> -->
  <!-- <rect id="focusframe-hint-left-margin" width="0.001" height="2" x="24" y="35" fill="#4e9a06" /> -->
  <!-- <rect id="focusframe-hint-right-margin" width="0.001" height="2" x="47.999" y="35" fill="#4e9a06" /> -->
  <!-- <rect id="focusframe-hint-bottom-margin" width="2" height="0.001" x="35" y="47.999" fill="#4e9a06" /> -->
  <!-- <circle id="hint-focus-over-base" cx="3" cy="1" r="1" fill="#4e9a06" /> -->
</svg>