<?xml version="1.0" encoding="UTF-8" standalone="no"?>
<svg height="60" width="80" version="1.1" id="svg7" sodipodi:docname="lineedit.svg"
  inkscape:version="1.3.2 (091e20e, 2023-11-25, custom)" xmlns:inkscape="http://www.inkscape.org/namespaces/inkscape"
  xmlns:sodipodi="http://sodipodi.sourceforge.net/DTD/sodipodi-0.dtd" xmlns="http://www.w3.org/2000/svg"
  xmlns:svg="http://www.w3.org/2000/svg">
  <sodipodi:namedview id="namedview9" pagecolor="#ffffff" bordercolor="#666666" borderopacity="1.0"
    inkscape:showpageshadow="2" inkscape:pageopacity="0.0" inkscape:pagecheckerboard="0" inkscape:deskcolor="#d1d1d1"
    inkscape:zoom="3.91875" inkscape:cx="12.503987" inkscape:cy="100.92504" inkscape:window-width="1920"
    inkscape:window-height="1057" inkscape:window-x="-8" inkscape:window-y="-8" inkscape:window-maximized="1"
    inkscape:current-layer="svg7" />
  <defs id="defs1">
    <style id="current-color-scheme" type="text/css">
      .ColorScheme-Text {
        color: #e2e2e5;
      }

      .ColorScheme-ViewBackground {
        color: #1e2022;
      }

      .ColorScheme-ViewHover {
        color: #3daee9;
      }

      .ColorScheme-ViewFocus {
        color: #3daee9;
      }
    </style>
  </defs>
  <g id="base-topleft">
    <path d="M 5,0 A 5,5 0 0 0 0,5 h 5 z" class="ColorScheme-ViewBackground" fill="currentColor" id="path1" />
    <path d="M 5,0 A 5,5 0 0 0 0,5 H 1 A 4,4 0 0 1 5,1 Z" class="ColorScheme-Text" fill="currentColor" opacity="0.2"
      id="path2" />
  </g>
  <g id="base-top">
    <rect width="20" height="5" x="5" y="0" class="ColorScheme-ViewBackground" fill="currentColor" id="rect2" />
    <rect width="20" height="1" x="5" y="0" class="ColorScheme-Text" fill="currentColor" opacity="0.2" id="rect3" />
  </g>
  <g id="base-topright">
    <path d="M 30,5 A 5,5 0 0 0 25,0 v 5 z" class="ColorScheme-ViewBackground" fill="currentColor" id="path3" />
    <path d="M 30,5 A 5,5 0 0 0 25,0 v 1 a 4,4 0 0 1 4,4 z" class="ColorScheme-Text" fill="currentColor" opacity="0.2"
      id="path4" />
  </g>
  <g id="base-left">
    <rect width="5" height="20" x="0" y="5" class="ColorScheme-ViewBackground" fill="currentColor" id="rect4" />
    <rect width="1" height="20" x="0" y="5" class="ColorScheme-Text" fill="currentColor" opacity="0.2" id="rect5" />
  </g>
  <rect id="base-center" width="20" height="20" x="5" y="5" class="ColorScheme-ViewBackground" fill="currentColor" />
  <g id="base-right">
    <rect width="5" height="20" x="25" y="5" class="ColorScheme-ViewBackground" fill="currentColor" id="rect6" />
    <rect width="1" height="20" x="29" y="5" class="ColorScheme-Text" fill="currentColor" opacity="0.2" id="rect7" />
  </g>
  <g id="base-bottomleft">
    <path d="M 5,30 A 5,5 0 0 1 0,25 h 5 z" class="ColorScheme-ViewBackground" fill="currentColor" id="path7" />
    <path d="M 5,30 A 5,5 0 0 1 0,25 h 1 a 4,4 0 0 0 4,4 z" class="ColorScheme-Text" fill="currentColor" opacity="0.2"
      id="path8" />
  </g>
  <g id="base-bottom">
    <rect width="20" height="5" x="5" y="25" class="ColorScheme-ViewBackground" fill="currentColor" id="rect8" />
    <rect width="20" height="1" x="5" y="29" class="ColorScheme-Text" fill="currentColor" opacity="0.2" id="rect9" />
  </g>
  <g id="base-bottomright">
    <path d="m 25,30 a 5,5 0 0 0 5,-5 h -5 z" class="ColorScheme-ViewBackground" fill="currentColor" id="path5" />
    <path d="m 25,30 a 5,5 0 0 0 5,-5 h -1 a 4,4 0 0 1 -4,4 z" class="ColorScheme-Text" fill="currentColor"
      opacity="0.2" id="path6" />
  </g>
  <rect id="base-hint-top-margin" width="2" height="6" x="14" y="0" fill="#4e9a06" />
  <rect id="base-hint-left-margin" width="6" height="2" x="0" y="14" fill="#4e9a06" />
  <rect id="base-hint-right-margin" width="6" height="2" x="24" y="14" fill="#4e9a06" />
  <rect id="base-hint-bottom-margin" width="2" height="6" x="14" y="24" fill="#4e9a06" />
  <g id="hover-topleft">
    <path d="m 35,0 a 5,5 0 0 0 -5,5 h 1 a 4,4 0 0 1 4,-4 z" class="ColorScheme-ViewHover" fill="currentColor"
      id="path9" />
  </g>
  <g id="hover-top">
    <rect width="20" height="5" x="35" y="0" fill="none" id="rect10" />
    <rect width="20" height="1" x="35" y="0" class="ColorScheme-ViewHover" fill="currentColor" id="rect11" />
  </g>
  <g id="hover-topright">
    <path d="m 55,0 a 5,5 0 0 1 5,5 H 59 A 4,4 0 0 0 55,1 Z" class="ColorScheme-ViewHover" fill="currentColor"
      id="path10" />
  </g>
  <g id="hover-left">
    <rect width="5" height="20" x="30" y="5" fill="none" id="rect1" />
    <rect width="1" height="20" x="30" y="5" class="ColorScheme-ViewHover" fill="currentColor" id="rect12" />
  </g>
  <rect id="hover-center" height="20" width="20" x="35" y="5" fill="none" />
  <g id="hover-right">
    <rect width="5" height="20" x="55" y="5" fill="none" id="rect13" />
    <rect width="1" height="20" x="59" y="5" class="ColorScheme-ViewHover" fill="currentColor" id="rect14" />
  </g>
  <g id="hover-bottomleft">
    <path d="m 30,25 a 5,5 0 0 0 5,5 v -1 a 4,4 0 0 1 -4,-4 z" class="ColorScheme-ViewHover" fill="currentColor"
      id="path11" />
  </g>
  <g id="hover-bottom">
    <rect width="20" height="5" x="35" y="25" fill="none" id="rect15" />
    <rect width="20" height="1" x="35" y="29" class="ColorScheme-ViewHover" fill="currentColor" id="rect16" />
  </g>
  <g id="hover-bottomright">
    <path d="m 60,25 a 5,5 0 0 1 -5,5 v -1 a 4,4 0 0 0 4,-4 z" class="ColorScheme-ViewHover" fill="currentColor"
      id="path12" />
  </g>
  <rect id="hover-hint-top-margin" width="2" height="0.001" x="44" y="0" fill="#4e9a06" />
  <rect id="hover-hint-left-margin" width="0.001" height="2" x="30" y="14" fill="#4e9a06" />
  <rect id="hover-hint-right-margin" width="0.001" height="2" x="59.999" y="14" fill="#4e9a06" />
  <rect id="hover-hint-bottom-margin" width="2" height="0.001" x="44" y="29.999" fill="#4e9a06" />
  <!-- MARK: Bookmark -->
  <rect id="focus-center" height="14" class="ColorScheme-ViewBackground" style="fill:currentColor;opacity:0.00100002;"
    width="64" x="8" y="88" />
  <g id="focus-topleft" style="" transform="translate(-147.000000001 117)">
    <path id="path1-5-6-6-7-5" style="fill-rule:evenodd;fill:currentColor"
      d="M 5,80 A 5,5 0 0 0 0,85 H 1 A 4,4 0 0 1 5,81 Z" class="  ColorScheme-ViewFocus"
      transform="translate(147,-117)" />
  </g>
  <g id="focus-top" style="" transform="matrix(3.52380952381 0 0 1 -120.333333333 119)">
    <path id="rect3682-2-3-3-6" style="opacity:0.00100002" inkscape:label="hint"
      d="m 35.567569,-39 h 19.864862 v 5 H 35.567569 Z" class="ColorScheme-ViewBackground" />
    <rect id="rect3804-6" height="1" class="ColorScheme-ViewFocus" style="fill-rule:evenodd;fill:currentColor;"
      width="19.864866" x="35.567566" y="-39" />
  </g>
  <g id="focus-topright" transform="matrix(-1 0 0 1 227 117)" style="">
    <path id="path1-5-6-9" style="fill-rule:evenodd;fill:currentColor"
      d="m 147,-32 a 5,5 0 0 1 5,-5 v 1 a 4,4 0 0 0 -4,4 z" class="  ColorScheme-ViewFocus" />
  </g>
  <g id="focus-bottom" style="" transform="matrix(3.52380952381 0 0 -1 -120.333333333 71.0000000001)">
    <path id="rect3682-2-3-3-6-9" style="opacity:0.00100002" inkscape:label="hint"
      d="m 35.567567,-39 h 19.864865 v 5 H 35.567567 Z" class="ColorScheme-ViewBackground" />
    <rect id="rect3804-7-65" height="1" class="ColorScheme-ViewFocus" style="fill-rule:evenodd;fill:currentColor;"
      width="19.864866" x="35.567566" y="-39" />
  </g>
  <g id="focus-bottomleft" style="" transform="matrix(1 0 0 -1 -147.000000001 73.0000000001)">
    <path id="path1-5-6-6-3" style="fill-rule:evenodd;fill:currentColor" class="  ColorScheme-ViewFocus"
      d="M 147 -32 A 5 5 0 0 1 152 -37 L 152 -36 A 4 4 0 0 0 148 -32 L 147 -32 z " />
  </g>
  <g id="focus-bottomright" style="" transform="matrix(-1 0 0 -1 227 73)">
    <path id="rect4544-2-0-4" d="m 35 -39 c -1.662 0 -3 1.338 -3 3 h 3 z" class="ColorScheme-ViewBackground"
      style="fill:currentColor;fill-rule:evenodd;opacity:.001;fill-opacity:.0039215689" transform="translate(115 2)" />
    <path id="path1-5-6-3-1" style="fill:currentColor;fill-rule:evenodd"
      d="m 147,-32 a 5,5 0 0 1 5,-5 v 1 a 4,4 0 0 0 -4,4 z" class="  ColorScheme-ViewFocus" />
  </g>
  <g id="focus-left" style="" transform="matrix(0 -1.14285714286 1 0 38.9999999995 147)">
    <path id="rect3682-2-3-3-6-9-1-2-7-0-9" style="opacity:0.00100002;" inkscape:label="hint"
      d="m 36.75,-34 h 17.5 v -5 h -17.5 z" class="ColorScheme-ViewBackground" />
    <rect id="rect3804-1-47" height="1" class="ColorScheme-ViewFocus" style="fill-rule:evenodd;fill:currentColor;"
      width="17.5" x="36.75" y="-39" />
  </g>
  <g id="focus-right" style="" transform="matrix(0 -1.14285714286 -1 0 41.0000000004 147)">
    <path id="rect3682-2-3-3-6-9-1-2-7-0-9-3" style="opacity:0.00100002;" inkscape:label="hint"
      d="m 54.25,-39 h -17.5 v 5 h 17.5 z" class="ColorScheme-ViewBackground" />
    <rect id="rect3804-1-9-30" height="1" class="ColorScheme-ViewFocus" style="fill-rule:evenodd;fill:currentColor;"
      width="17.5" x="36.75" y="-39" />
  </g>
  <rect style="fill:#4e9a06;fill-opacity:1;fill-rule:evenodd;stroke-width:1" id="focus-hint-top-margin" width="2"
    height="0.0010000000475" x="40" y="79.9990005493" />
  <rect style="fill:#4e9a06;fill-opacity:1;fill-rule:evenodd;stroke-width:1" id="focus-hint-bottom-margin" width="2"
    height="0.0010000000475" x="40" y="110" />
  <rect style="fill:#4e9a06;fill-opacity:1;fill-rule:evenodd;stroke-width:1" id="focus-hint-left-margin" width="2"
    height="0.0010000000475" x="-96" y="-0.0010000000475" transform="rotate(-90)" />
  <rect style="fill:#4e9a06;fill-opacity:1;fill-rule:evenodd;stroke-width:1" id="focus-hint-right-margin" width="2"
    height="0.0010000000475" x="-96" y="80" transform="rotate(-90)" />
  <rect id="focusframe-center" height="13.999992" class="ColorScheme-ViewBackground"
    style="fill:currentColor;opacity:0.00100002;color:#fcfcfc;" width="64" x="8" y="128" />
  <g id="focusframe-topleft" transform="translate(-147.000000001,157.000999451)" class="ColorScheme-ViewFocus"
    style="fill:currentColor;">
    <path id="path13" style="opacity:0.33;" d="m 152,-39.000999 a 7,7 0 0 0 -7,7 h 2 a 5,5 0 0 1 5,-5 z" />
    <path id="path1-5-6-6-7-5-2" style="" d="m 5,120 a 5,5 0 0 0 -5,5 h 1 a 4,4 0 0 1 4,-4 z" class=" "
      transform="translate(147,-157.001)" />
  </g>
  <g id="focusframe-top" style="fill:currentColor" transform="matrix(3.4259259,0,0,1,-116.85185,159.001)"
    class="ColorScheme-ViewFocus">
    <path id="rect3682-2-3-3-6-9-1" style="opacity:0.00100002" inkscape:label="hint" d="m 5,125.001 h 70 v -5 H 5 Z"
      transform="matrix(0.29189189,0,0,1,34.108108,-159.001)" class="ColorScheme-ViewBackground" />
    <rect style="opacity:0.33;" id="rect3120" width="20.432434" height="2" x="35.567566" y="-41" />
    <rect id="rect3804-6-6" height="1" style="" width="20.432432" x="35.567566" y="-39" />
  </g>
  <g id="focusframe-topright" transform="matrix(-1,0,0,1,227,157.000999451)" class="ColorScheme-ViewFocus"
    style="fill:currentColor;">
    <path id="path10-7-6" style="opacity:0.33;" d="m 145,-32.000999 a 7,7 0 0 1 7,-7 v 2 a 5,5 0 0 0 -5,5 z" />
    <path id="path1-5-6-6-7-5-2-0-0" style="" d="m 147,-32.000999 a 5,5 0 0 1 5,-5 v 1 a 4,4 0 0 0 -4,4 z" class=" " />
  </g>
  <g id="focusframe-bottom" style="fill:currentColor;" transform="matrix(3.4285714,0,0,-1,-115,111.001)"
    class="ColorScheme-ViewFocus">
    <path id="rect3682-2-3-3-6-9-1-2" style="opacity:0.00100002" inkscape:label="hint"
      d="m 35,-33.999 h 20.416667 v -5 H 35 Z" class="ColorScheme-ViewBackground" />
    <rect style="opacity:0.33;" id="rect3120-5" width="20.416668" height="2" x="35" y="38.999001"
      transform="scale(1,-1)" />
    <rect id="rect3804-7-65-0" height="1" style="" width="20.416668" x="35" y="-39" />
  </g>
  <g id="focusframe-bottomleft" transform="matrix(1,0,0,-1,-147.000000001,113.000999451)" class="ColorScheme-ViewFocus"
    style="fill:currentColor;">
    <path id="path10-7" style="opacity:0.33;" d="m 152,-39 a 7,7 0 0 0 -7,7 h 2 a 5,5 0 0 1 5,-5 z" />
    <path id="path1-5-6-6-7-5-2-0" style="" d="m 152,-37 a 5,5 0 0 0 -5,5 h 1 a 4,4 0 0 1 4,-4 z" class=" " />
  </g>
  <g id="focusframe-bottomright" transform="rotate(180,113.5,56.5004997253)" class="ColorScheme-ViewFocus"
    style="fill:currentColor;">
    <path id="path10-6" style="opacity:0.33;" d="m 152,-39 a 7,7 0 0 0 -7,7 h 2 a 5,5 0 0 1 5,-5 z" />
    <path id="path1-5-6-6-7-5-2-2" style="" d="m 152,-37 a 5,5 0 0 0 -5,5 h 1 a 4,4 0 0 1 4,-4 z" class=" " />
  </g>
  <g id="focusframe-left" style="stroke-width:0.935415" transform="matrix(0,-1.1428571,1,0,39,187.001)">
    <path id="rect3682-2-3-3-6-9-1-2-7-0" style="opacity:0.00100002" inkscape:label="hint"
      d="m 36.750877,-34 h 17.5 v -5 h -17.5 z" class="ColorScheme-ViewBackground" />
    <rect style="opacity:0.33;fill:currentColor;fill-rule:evenodd;stroke-width:0.714417" id="rect4155" width="2"
      height="17.499117" x="-41" y="-54.250877" transform="rotate(90)" class="ColorScheme-ViewFocus" />
    <rect id="rect3804-1-47-8" height="1" class="ColorScheme-ViewFocus"
      style="opacity:1;fill:currentColor;fill-rule:evenodd;stroke-width:0.280944" width="17.499989" x="36.75" y="-39" />
  </g>
  <g id="focusframe-right" style="fill:currentColor"
    transform="matrix(0,-1.14285714286,-1,0,41.0000000004,187.000999451)" class="ColorScheme-ViewFocus">
    <path id="rect3682-2-3-3-6-9-1-2-7" style="opacity:0.00100002" inkscape:label="hint"
      d="m 36.750875,-39 h 17.5 v 5 h -17.5 z" class="ColorScheme-ViewBackground" />
    <rect style="opacity:0.33;" id="rect4155-3" width="2" height="17.499998" x="39" y="-54.250874"
      transform="matrix(0,-1,-1,0,0,0)" />
    <rect id="rect3804-1-9-30-2" height="1" style="" width="17.500874" x="36.75" y="-39" />
  </g>
  <rect style="fill:#4e9a06;" id="focusframe-hint-top-margin" width="2" height="2" x="40" y="118" />
  <rect style="fill:#4e9a06;" id="focusframe-hint-bottom-margin" width="2" height="2" x="40" y="150.00100708" />
  <rect style="fill:#4e9a06;" id="focusframe-hint-left-margin" width="2" height="2" x="-136.00100708" y="-2.00099992752"
    transform="rotate(-90)" />
  <rect style="fill:#4e9a06;" id="focusframe-hint-right-margin" width="2" height="2" x="-136.00100708" y="80"
    transform="rotate(-90)" />
  <circle id="hint-tile-center" cx="1" cy="1" r="1" fill="#4e9a06" />
  <circle id="hint-focus-over-base" cx="3" cy="1" r="1" fill="#4e9a06" />
</svg>