<svg height="58" width="58" version="1.1" xmlns="http://www.w3.org/2000/svg" xmlns:svg="http://www.w3.org/2000/svg">
  <defs>
    <style id="current-color-scheme" type="text/css">
      .ColorScheme-Text {
        color: #e2e2e5;
      }

      .ColorScheme-ViewBackground {
        color: #1e2022;
      }

      .ColorScheme-ViewHover {
        color: #3daee9;
      }

      .ColorScheme-ViewFocus {
        color: #3daee9;
      }
    </style>
  </defs>
  <!-- outline -->
  <g id="base-topleft" fill="#8c9198">
    <rect width="4" height="4" x="0" y="0" fill="none" />
    <path d="M 4,0.5 A 3.5,3.5 0 0 0 0.5,4 h 1 A 2.5,2.5 0 0 1 4,1.5 Z" />
  </g>
  <g id="base-top" fill="#8c9198">
    <rect width="16" height="4" x="4" y="0" fill="none" />
    <rect width="16" height="1" x="4" y="0.5" />
  </g>
  <g id="base-topright" fill="#8c9198">
    <rect width="4" height="4" x="20" y="0" fill="none" />
    <path d="M 20,0.5 A 3.5,3.5 0 0 1 23.5,4 h -1 A 2.5,2.5 0 0 0 20,1.5 Z" />
  </g>
  <g id="base-left" fill="#8c9198">
    <rect width="4" height="16" x="0" y="4" fill="none" />
    <rect width="1" height="16" x="0.5" y="4" />
  </g>
  <rect id="base-center" width="16" height="16" x="4" y="4" fill="none" />
  <g id="base-right" fill="#8c9198">
    <rect width="4" height="16" x="20" y="4" fill="none" />
    <rect width="1" height="16" x="22.5" y="4" />
  </g>
  <g id="base-bottomleft" fill="#8c9198">
    <rect width="4" height="4" x="0" y="20" fill="none" />
    <path d="M 0.5,20 A 3.5,3.5 0 0 0 4,23.5 v -1 A 2.5,2.5 0 0 1 1.5,20 Z" />
  </g>
  <g id="base-bottom" fill="#8c9198">
    <rect width="16" height="4" x="4" y="20" fill="none" />
    <rect width="16" height="1" x="4" y="22.5" />
  </g>
  <g id="base-bottomright" fill="#8c9198">
    <rect width="4" height="4" x="20" y="20" fill="none" />
    <path d="M 23.5,20 A 3.5,3.5 0 0 1 20,23.5 v -1 A 2.5,2.5 0 0 0 22.5,20 Z" />
  </g>
  <rect id="base-hint-top-margin" width="2" height="10" x="11" y="0" fill="#4e9a06" />
  <rect id="base-hint-left-margin" width="10" height="2" x="0" y="11" fill="#4e9a06" />
  <rect id="base-hint-right-margin" width="10" height="2" x="14" y="11" fill="#4e9a06" />
  <rect id="base-hint-bottom-margin" width="2" height="10" x="11" y="14" fill="#4e9a06" />
  <!-- onSurface -->
  <g id="hover-topleft" fill="#e2e2e5" transform="translate(24)">
    <rect width="4" height="4" x="0" y="0" fill="none" />
    <path d="M 4,0.5 A 3.5,3.5 0 0 0 0.5,4 h 1 A 2.5,2.5 0 0 1 4,1.5 Z" />
  </g>
  <g id="hover-top" fill="#e2e2e5" transform="translate(24)">
    <rect width="16" height="4" x="4" y="0" fill="none" />
    <rect width="16" height="1" x="4" y="0.5" />
  </g>
  <g id="hover-topright" fill="#e2e2e5" transform="translate(24)">
    <rect width="4" height="4" x="20" y="0" fill="none" />
    <path d="M 20,0.5 A 3.5,3.5 0 0 1 23.5,4 h -1 A 2.5,2.5 0 0 0 20,1.5 Z" />
  </g>
  <g id="hover-left" fill="#e2e2e5" transform="translate(24)">
    <rect width="4" height="16" x="0" y="4" fill="none" />
    <rect width="1" height="16" x="0.5" y="4" />
  </g>
  <rect id="hover-center" height="16" width="16" x="28" y="4" fill="none" />
  <g id="hover-right" fill="#e2e2e5" transform="translate(24)">
    <rect width="4" height="16" x="20" y="4" fill="none" />
    <rect width="1" height="16" x="22.5" y="4" />
  </g>
  <g id="hover-bottomleft" fill="#e2e2e5" transform="translate(24)">
    <rect width="4" height="4" x="0" y="20" fill="none" />
    <path d="M 0.5,20 A 3.5,3.5 0 0 0 4,23.5 v -1 A 2.5,2.5 0 0 1 1.5,20 Z" />
  </g>
  <g id="hover-bottom" fill="#e2e2e5" transform="translate(24)">
    <rect width="16" height="4" x="4" y="20" fill="none" />
    <rect width="16" height="1" x="4" y="22.5" />
  </g>
  <g id="hover-bottomright" fill="#e2e2e5" transform="translate(24)">
    <rect width="4" height="4" x="20" y="20" fill="none" />
    <path d="M 23.5,20 A 3.5,3.5 0 0 1 20,23.5 v -1 A 2.5,2.5 0 0 0 22.5,20 Z" />
  </g>
  <rect id="hover-hint-top-margin" width="2" height="0.001" x="35" y="0" fill="#4e9a06" />
  <rect id="hover-hint-left-margin" width="0.001" height="2" x="24" y="11" fill="#4e9a06" />
  <rect id="hover-hint-right-margin" width="0.001" height="2" x="47.999" y="11" fill="#4e9a06" />
  <rect id="hover-hint-bottom-margin" width="2" height="0.001" x="35" y="23.999" fill="#4e9a06" />
  <!-- primary -->
  <path id="focus-topleft" d="M 4,24 A 4,4 0 0 0 0,28 H 2 A 2,2 0 0 1 4,26 Z" fill="#95ccff" />
  <g id="focus-top" fill="#95ccff" transform="translate(0,24)">
    <rect width="16" height="4" x="4" y="0" fill="none" />
    <rect width="16" height="2" x="4" y="0" />
  </g>
  <path id="focus-topright" d="m 20,24 a 4,4 0 0 1 4,4 h -2 a 2,2 0 0 0 -2,-2 z" fill="#95ccff" />
  <g id="focus-left" fill="#95ccff" transform="translate(0,24)">
    <rect width="4" height="16" x="0" y="4" fill="none" />
    <rect width="2" height="16" x="0" y="4" />
  </g>
  <rect id="focus-center" width="16" height="16" x="4" y="28" fill="none" />
  <g id="focus-right" fill="#95ccff" transform="translate(0,24)">
    <rect width="4" height="16" x="20" y="4" fill="none" />
    <rect width="2" height="16" x="22" y="4" />
  </g>
  <path id="focus-bottomleft" d="m 0,44 a 4,4 0 0 0 4,4 V 46 A 2,2 0 0 1 2,44 Z" fill="#95ccff" />
  <g id="focus-bottom" fill="#95ccff" transform="translate(0,24)">
    <rect width="16" height="4" x="4" y="20" fill="none" />
    <rect width="16" height="2" x="4" y="22" />
  </g>
  <path id="focus-bottomright" d="m 24,44 a 4,4 0 0 1 -4,4 v -2 a 2,2 0 0 0 2,-2 z" fill="#95ccff" />
  <rect id="focus-hint-top-margin" width="2" height="0.001" x="11" y="24" fill="#4e9a06" />
  <rect id="focus-hint-left-margin" width="0.001" height="2" x="0" y="35" fill="#4e9a06" />
  <rect id="focus-hint-right-margin" width="0.001" height="2" x="23.999" y="35" fill="#4e9a06" />
  <rect id="focus-hint-bottom-margin" width="2" height="0.001" x="11" y="47.999" fill="#4e9a06" />
  <g id="focusframe-topleft" transform="translate(24,24)">
    <path d="M 9,0 A 9,9 0 0 0 0,9 H 3 A 6,6 0 0 1 9,3 Z" fill="#b9c8da" />
    <path d="M 9,5 A 4,4 0 0 0 5,9 H 7 A 2,2 0 0 1 9,7 Z" fill="#95ccff" />
  </g>
  <g id="focusframe-top" transform="translate(24,24)">
    <rect width="16" height="3" x="9" y="0" fill="#b9c8da" />
    <rect width="16" height="4" x="9" y="5" fill="none" />
    <rect width="16" height="2" x="9" y="5" fill="#95ccff" />
  </g>
  <g id="focusframe-topright" transform="translate(24,24)">
    <path d="m 25,0 a 9,9 0 0 1 9,9 H 31 A 6,6 0 0 0 25,3 Z" fill="#b9c8da" />
    <path d="m 25,5 a 4,4 0 0 1 4,4 H 27 A 2,2 0 0 0 25,7 Z" fill="#95ccff" />
  </g>
  <g id="focusframe-left" transform="translate(24,24)">
    <rect width="3" height="16" x="0" y="9" fill="#b9c8da" />
    <rect width="4" height="16" x="5" y="9" fill="none" />
    <rect width="2" height="16" x="5" y="9" fill="#95ccff" />
  </g>
  <rect id="focusframe-center" width="16" height="16" x="9" y="9" fill="none" />
  <g id="focusframe-right" transform="translate(24,24)">
    <rect width="3" height="16" x="31" y="9" fill="#b9c8da" />
    <rect width="4" height="16" x="25" y="9" fill="none" />
    <rect width="2" height="16" x="27" y="9" fill="#95ccff" />
  </g>
  <g id="focusframe-bottomleft" transform="translate(24,24)">
    <path d="M 9,34 A 9,9 0 0 1 0,25 h 3 a 6,6 0 0 0 6,6 z" fill="#b9c8da" />
    <path d="m 5,25 a 4,4 0 0 0 4,4 V 27 A 2,2 0 0 1 7,25 Z" fill="#95ccff" />
  </g>
  <g id="focusframe-bottom" transform="translate(24,24)">
    <rect width="16" height="3" x="9" y="31" fill="#b9c8da" />
    <rect width="16" height="4" x="9" y="25" fill="none" />
    <rect width="16" height="2" x="9" y="27" fill="#95ccff" />
  </g>
  <g id="focusframe-bottomright" transform="translate(24,24)">
    <path d="m 25,34 a 9,9 0 0 0 9,-9 h -3 a 6,6 0 0 1 -6,6 z" fill="#b9c8da" />
    <path d="m 29,25 a 4,4 0 0 1 -4,4 v -2 a 2,2 0 0 0 2,-2 z" fill="#95ccff" />
  </g>
  <rect id="focusframe-hint-top-margin" width="2" height="5" x="40" y="24" fill="#4e9a06" />
  <rect id="focusframe-hint-left-margin" width="5" height="2" x="24" y="40" fill="#4e9a06" />
  <rect id="focusframe-hint-right-margin" width="5" height="2" x="53" y="40" fill="#4e9a06" />
  <rect id="focusframe-hint-bottom-margin" width="2" height="5" x="40" y="53" fill="#4e9a06" />
  <circle id="hint-tile-center" cx="1" cy="1" r="1" fill="#4e9a06" />
  <circle id="hint-focus-over-base" cx="3" cy="1" r="1" fill="#4e9a06" />
</svg>