<svg width="30" height="31" version="1.1" xmlns:svg="http://www.w3.org/2000/svg">
  <defs>
    <style id="current-color-scheme" type="text/css">
      .ColorScheme-ViewText {
        color: #e2e2e5;
      }

      .ColorScheme-ViewBackground {
        color: #1e2022;
      }

      .ColorScheme-ViewFocus {
        color: #b9c8da;
      }
    </style>
  </defs>
  <rect id="hint-tile-center" width="2" height="2" x="0" y="0" fill="#4e9a06" />
  <rect id="normal-topleft" width="2" height="2" x="0" y="0" class="ColorScheme-ViewBackground" fill="currentColor"
    opacity="0.01" />
  <rect id="normal-top" width="11" height="2" x="2" y="0" class="ColorScheme-ViewBackground" fill="currentColor"
    opacity="0.01" />
  <rect id="normal-topright" width="2" height="2" x="13" y="0" class="ColorScheme-ViewBackground" fill="currentColor"
    opacity="0.01" />
  <rect id="normal-left" width="2" height="11" x="0" y="2" class="ColorScheme-ViewBackground" fill="currentColor"
    opacity="0.01" />
  <rect id="normal-center" width="11" height="11" x="2" y="2" class="ColorScheme-ViewBackground" fill="currentColor"
    opacity="0.01" />
  <rect id="normal-right" width="2" height="11" x="13" y="2" class="ColorScheme-ViewBackground" fill="currentColor"
    opacity="0.01" />
  <rect id="normal-bottomleft" width="2" height="2" x="0" y="13" class="ColorScheme-ViewBackground" fill="currentColor"
    opacity="0.01" />
  <rect id="normal-bottom" width="11" height="2" x="2" y="13" class="ColorScheme-ViewBackground" fill="currentColor"
    opacity="0.01" />
  <rect id="normal-bottomright" width="2" height="2" x="13" y="13" class="ColorScheme-ViewBackground"
    fill="currentColor" opacity="0.01" />
  <rect id="normal-hint-top-margin" width="2" height="6" x="6.5" y="0" fill="#4e9a06" />
  <rect id="normal-hint-left-margin" width="6" height="2" x="0" y="6.5" fill="#4e9a06" />
  <rect id="normal-hint-right-margin" width="6" height="2" x="9" y="6.5" fill="#4e9a06" />
  <rect id="normal-hint-bottom-margin" width="2" height="6" x="6.5" y="9" fill="#4e9a06" />
  <rect id="hover-topleft" width="2" height="2" x="15" y="0" class="ColorScheme-ViewFocus" fill="currentColor"
    opacity="0.2" />
  <rect id="hover-top" width="11" height="2" x="17" y="0" class="ColorScheme-ViewFocus" fill="currentColor"
    opacity="0.2" />
  <rect id="hover-topright" width="2" height="2" x="28" y="0" class="ColorScheme-ViewFocus" fill="currentColor"
    opacity="0.2" />
  <rect id="hover-left" width="2" height="11" x="15" y="2" class="ColorScheme-ViewFocus" fill="currentColor"
    opacity="0.2" />
  <rect id="hover-center" width="11" height="11" x="17" y="2" class="ColorScheme-ViewFocus" fill="currentColor"
    opacity="0.2" />
  <rect id="hover-right" width="2" height="11" x="28" y="2" class="ColorScheme-ViewFocus" fill="currentColor"
    opacity="0.2" />
  <rect id="hover-bottomleft" width="2" height="2" x="15" y="13" class="ColorScheme-ViewFocus" fill="currentColor"
    opacity="0.2" />
  <rect id="hover-bottom" width="11" height="2" x="17" y="13" class="ColorScheme-ViewFocus" fill="currentColor"
    opacity="0.2" />
  <rect id="hover-bottomright" width="2" height="2" x="28" y="13" class="ColorScheme-ViewFocus" fill="currentColor"
    opacity="0.2" />
  <rect id="pressed-topleft" width="2" height="2" x="0" y="15" class="ColorScheme-ViewFocus" fill="currentColor"
    opacity="0.4" />
  <rect id="pressed-top" width="11" height="2" x="2" y="15" class="ColorScheme-ViewFocus" fill="currentColor"
    opacity="0.4" />
  <rect id="pressed-topright" width="2" height="2" x="13" y="15" class="ColorScheme-ViewFocus" fill="currentColor"
    opacity="0.4" />
  <rect id="pressed-left" width="2" height="11" x="0" y="17" class="ColorScheme-ViewFocus" fill="currentColor"
    opacity="0.4" />
  <rect id="pressed-center" width="11" height="11" x="2" y="17" class="ColorScheme-ViewFocus" fill="currentColor"
    opacity="0.4" />
  <rect id="pressed-right" width="2" height="11" x="13" y="17" class="ColorScheme-ViewFocus" fill="currentColor"
    opacity="0.4" />
  <rect id="pressed-bottomleft" width="2" height="2" x="0" y="28" class="ColorScheme-ViewFocus" fill="currentColor"
    opacity="0.4" />
  <rect id="pressed-bottom" width="11" height="2" x="2" y="28" class="ColorScheme-ViewFocus" fill="currentColor"
    opacity="0.4" />
  <rect id="pressed-bottomright" width="2" height="2" x="13" y="28" class="ColorScheme-ViewFocus" fill="currentColor"
    opacity="0.4" />
  <rect id="pressed-hint-top-margin" width="2" height="6" x="6.5" y="15" fill="#4e9a06" />
  <rect id="pressed-hint-left-margin" width="6" height="2" x="0" y="21.5" fill="#4e9a06" />
  <rect id="pressed-hint-right-margin" width="6" height="2" x="9" y="21.5" fill="#4e9a06" />
  <rect id="pressed-hint-bottom-margin" width="2" height="6" x="6.5" y="24" fill="#4e9a06" />
  <rect id="section-topleft" width="2" height="2" x="15" y="15" class="ColorScheme-ViewBackground" fill="currentColor"
    opacity="0.4" />
  <rect id="section-top" width="11" height="2" x="17" y="15" class="ColorScheme-ViewBackground" fill="currentColor"
    opacity="0.4" />
  <rect id="section-topright" width="2" height="2" x="28" y="15" class="ColorScheme-ViewBackground" fill="currentColor"
    opacity="0.4" />
  <rect id="section-left" width="2" height="11" x="15" y="17" class="ColorScheme-ViewBackground" fill="currentColor"
    opacity="0.4" />
  <rect id="section-center" width="11" height="11" x="17" y="17" class="ColorScheme-ViewBackground" fill="currentColor"
    opacity="0.4" />
  <rect id="section-right" width="2" height="11" x="28" y="17" class="ColorScheme-ViewBackground" fill="currentColor"
    opacity="0.4" />
  <rect id="section-bottomleft" width="2" height="2" x="15" y="28" class="ColorScheme-ViewBackground"
    fill="currentColor" opacity="0.4" />
  <rect id="section-bottom" width="11" height="2" x="17" y="28" class="ColorScheme-ViewBackground" fill="currentColor"
    opacity="0.4" />
  <rect id="section-bottomright" width="2" height="2" x="28" y="28" class="ColorScheme-ViewBackground"
    fill="currentColor" opacity="0.4" />
  <rect id="section-hint-top-margin" width="2" height="6" x="21.5" y="15" fill="#4e9a06" />
  <rect id="section-hint-left-margin" width="6" height="2" x="15" y="21.5" fill="#4e9a06" />
  <rect id="section-hint-right-margin" width="6" height="2" x="24" y="21.5" fill="#4e9a06" />
  <rect id="section-hint-bottom-margin" width="2" height="6" x="21.5" y="24" fill="#4e9a06" />
  <g id="separator">
    <rect width="30" height="1" x="0" y="30" class="ColorScheme-ViewBackground" fill="currentColor" opacity="0.2" />
    <rect width="30" height="1" x="0" y="30" class="ColorScheme-ViewText" fill="currentColor" opacity="0.2" />
  </g>
</svg>