<svg width="52" height="52" version="1.1" id="svg24" xmlns="http://www.w3.org/2000/svg"
  xmlns:svg="http://www.w3.org/2000/svg">
  <defs>
    <style id="current-color-scheme" type="text/css">
      .ColorScheme-ButtonBackground {
        color: #eff0f1;
        stop-color: #eff0f1;
      }

      .ColorScheme-ButtonHover {
        color: #93cee9;
        stop-color: #93cee9;
      }

      .ColorScheme-ButtonFocus {
        color: #3daee9;
        stop-color: #3daee9;
      }
    </style>
  </defs>
  <path id="normal-topleft" d="M 0,2 C 0,0.892 0.892,0 2,0 v 2 z" fill="none" />
  <path id="normal-top" d="M 24,0 H 2 v 2 h 22 z" fill="none" />
  <path id="normal-topright" d="m 24,0 c 1.108,0 2,0.892 2,2 h -2 z" fill="none" />
  <path id="normal-left" d="M 0,24 V 2 h 2 v 22 z" fill="none" />
  <path id="normal-center" d="M 2,2 H 24 V 24 H 2 Z" fill="none" />
  <path id="normal-right" d="M 26,24 V 2 h -2 v 22 z" fill="none" />
  <path id="normal-bottomleft" d="m 0,24 c 0,1.108 0.892,2 2,2 v -2 z" fill="none" />
  <path id="normal-bottom" d="M 24,26 H 2 v -2 h 22 z" fill="none" />
  <path id="normal-bottomright" d="m 26,24 c 0,1.108 -0.892,2 -2,2 v -2 z" fill="none" />
  <path id="normal-hint-top-margin" d="m 12,0 h 2 v 6 h -2 z" fill="#ed333b" />
  <path id="normal-hint-left-margin" d="m 0,12 h 6 v 2 H 0 Z" fill="#ed333b" />
  <path id="normal-hint-right-margin" d="m 20,12 h 6 v 2 h -6 z" fill="#ed333b" />
  <path id="normal-hint-bottom-margin" d="m 12,20 h 2 v 6 h -2 z" fill="#ed333b" />
  <path id="hover-topleft" d="M 26,2 V 0 h 2 v 2 z" class="ColorScheme-ButtonFocus" fill="currentColor" />
  <path id="hover-top" d="M 50,0 H 28 v 2 h 22 z" class="ColorScheme-ButtonFocus" fill="currentColor" />
  <path id="hover-topright" d="m 50,0 h 2 v 2 h -2 z" class="ColorScheme-ButtonFocus" fill="currentColor" />
  <path id="hover-left" d="M 26,24 V 2 h 2 v 22 z" class="ColorScheme-ButtonFocus" fill="currentColor" />
  <path id="hover-center" d="M 28,2 H 50 V 24 H 28 Z" class="ColorScheme-ButtonFocus" fill="currentColor" />
  <path id="hover-right" d="M 52,24 V 2 h -2 v 22 z" class="ColorScheme-ButtonFocus" fill="currentColor" />
  <path id="hover-bottomleft" d="m 26,24 v 2 h 2 v -2 z" class="ColorScheme-ButtonFocus" fill="currentColor" />
  <path id="hover-bottom" d="M 50,26 H 28 v -2 h 22 z" class="ColorScheme-ButtonFocus" fill="currentColor" />
  <path id="hover-bottomright" d="m 52,24 v 2 h -2 v -1 -1 h 1 z" class="ColorScheme-ButtonFocus" fill="currentColor" />
  <path id="hover-hint-top-margin" d="m 38,0 h 2 v 6 h -2 z" fill="#ed333b" />
  <path id="hover-hint-left-margin" d="m 26,12 h 6 v 2 h -6 z" fill="#ed333b" />
  <path id="hover-hint-right-margin" d="m 46,12 h 6 v 2 h -6 z" fill="#ed333b" />
  <path id="hover-hint-bottom-margin" d="m 38,20 h 2 v 6 h -2 z" fill="#ed333b" />
  <path id="pressed-topleft" d="m 0,28 v -2 h 2 v 2 z" class="ColorScheme-ButtonFocus" fill="currentColor" />
  <path id="pressed-top" d="M 24,26 H 2 v 2 h 22 z" class="ColorScheme-ButtonFocus" fill="currentColor" />
  <path id="pressed-topright" d="m 24,26 h 2 v 2 h -2 z" class="ColorScheme-ButtonFocus" fill="currentColor" />
  <path id="pressed-left" d="M 0,50 V 28 h 2 v 22 z" class="ColorScheme-ButtonFocus" fill="currentColor" />
  <path id="pressed-center" d="M 2,28 H 24 V 50 H 2 Z" class="ColorScheme-ButtonFocus" fill="currentColor" />
  <path id="pressed-right" d="M 26,50 V 28 h -2 v 22 z" class="ColorScheme-ButtonFocus" fill="currentColor" />
  <path id="pressed-bottomleft" d="m 0,50 v 2 h 2 v -2 z" class="ColorScheme-ButtonFocus" fill="currentColor" />
  <path id="pressed-bottom" d="M 24,52 H 2 v -2 h 22 z" class="ColorScheme-ButtonFocus" fill="currentColor" />
  <path id="pressed-bottomright" d="m 26,50 v 2 h -2 v -1 -1 h 1 z" class="ColorScheme-ButtonFocus"
    fill="currentColor" />
  <path id="pressed-hint-top-margin" d="m 12,26 h 2 v 6 h -2 z" fill="#ed333b" />
  <path id="pressed-hint-bottom-margin" d="m 12,46 h 2 v 6 h -2 z" fill="#ed333b" />
  <path id="pressed-hint-left-margin" d="m 0,38 h 6 v 2 H 0 Z" fill="#ed333b" />
  <path id="pressed-hint-right-margin" d="m 20,38 h 6 v 2 h -6 z" fill="#ed333b" />
</svg>