<svg width="24" height="18" version="1.1" xmlns:xlink="http://www.w3.org/1999/xlink" xmlns="http://www.w3.org/2000/svg"
  xmlns:svg="http://www.w3.org/2000/svg">
  <defs>
    <style id="current-color-scheme" type="text/css">
      .ColorScheme-Text {
        color: #7B7C7E;
      }

      .ColorScheme-ButtonFocus {
        color: #1E92FF;
      }
    </style>
  </defs>
  <g class="ColorScheme-Text" fill="currentColor" opacity="0.1">
    <rect id="normal-topleft" width="1" height="1" x="0" y="0" />
    <rect id="normal-top" width="10" height="1" x="1" y="0" />
    <rect id="normal-topright" width="1" height="1" x="11" y="0" />
    <rect id="normal-left" width="1" height="7" x="0" y="1" />
    <rect id="normal-center" width="10" height="7" x="1" y="1" />
    <rect id="normal-right" width="1" height="7" x="11" y="1" />
    <rect id="normal-bottomleft" width="1" height="1" x="0" y="8" />
    <rect id="normal-bottom" width="10" height="1" x="1" y="8" />
    <rect id="normal-bottomright" width="1" height="1" x="11" y="8" />
  </g>
  <g class="ColorScheme-ButtonFocus" fill="currentColor">
    <rect id="hover-topleft" width="1" height="1" x="12" y="0" opacity="0.4" />
    <rect id="hover-top" width="10" height="1" x="13" y="0" opacity="0.4" />
    <rect id="hover-topright" width="1" height="1" x="23" y="0" opacity="0.4" />
    <rect id="hover-left" width="1" height="7" x="12" y="1" opacity="0.4" />
    <rect id="hover-center" width="10" height="7" x="13" y="1" opacity="0.2" />
    <rect id="hover-right" width="1" height="7" x="23" y="1" opacity="0.4" />
    <rect id="hover-bottomleft" width="1" height="1" x="12" y="8" opacity="0.4" />
    <rect id="hover-bottom" width="10" height="1" x="13" y="8" opacity="0.4" />
    <rect id="hover-bottomright" width="1" height="1" x="23" y="8" opacity="0.4" />
  </g>
  <g class="ColorScheme-ButtonFocus" fill="currentColor" opacity="0.6">
    <rect id="active-topleft" width="1" height="1" x="0" y="9" />
    <rect id="active-top" width="10" height="1" y="9" x="1" />
    <rect id="active-topright" width="1" height="1" y="9" x="11" />
    <rect id="active-left" width="1" height="7" y="10" x="0" />
    <rect id="active-center" width="10" height="7" x="1" y="10" />
    <rect id="active-right" width="1" height="7" x="11" y="10" />
    <rect id="active-bottomleft" width="1" height="1" y="17" x="0" />
    <rect id="active-bottom" width="10" height="1" x="1" y="17" />
    <rect id="active-bottomright" width="1" height="1" x="11" y="17" />
  </g>
  <circle id="hint-tile-center" cx="0.5" cy="0.5" r="0.5" fill="#008000" opacity="0.875" />
</svg>