<svg width="132" height="132" viewBox="0 0 132 132" version="1.1" xmlns:xlink="http://www.w3.org/1999/xlink"
  xmlns="http://www.w3.org/2000/svg" xmlns:svg="http://www.w3.org/2000/svg">
  <defs>
    <style type="text/css" id="current-color-scheme">
      .ColorScheme-Text {
        color: #232629;
        stop-color: #232629;
      }

      .ColorScheme-Background {
        color: #2e2e2e;
        stop-color: #2e2e2e;
      }
    </style>
    <linearGradient id="sh">
      <stop stop-opacity="1" offset="0" />
      <stop stop-opacity="0" offset="1" />
    </linearGradient>
    <radialGradient xlink:href="#sh" id="ag-tl" cx="20" cy="28" r="12" gradientUnits="userSpaceOnUse" />
    <radialGradient xlink:href="#sh" id="ag-tr" cx="46" cy="28" r="12" gradientUnits="userSpaceOnUse" />
    <linearGradient xlink:href="#sh" id="ag-l" x1="20" y1="41" x2="8" y2="41" gradientUnits="userSpaceOnUse" />
    <linearGradient xlink:href="#sh" id="ag-r" x1="46" y1="41" x2="58" y2="41" gradientUnits="userSpaceOnUse" />
    <radialGradient xlink:href="#sh" id="ag-bl" cx="20" cy="54" r="12" gradientUnits="userSpaceOnUse" />
    <linearGradient xlink:href="#sh" id="ag-b" x1="33" y1="48" x2="33" y2="66" gradientUnits="userSpaceOnUse" />
    <radialGradient xlink:href="#sh" id="ag-br" cx="46" cy="54" r="12" gradientUnits="userSpaceOnUse" />
    <linearGradient xlink:href="#sh" id="bg-l" x1="15" y1="37" x2="11" y2="37" gradientUnits="userSpaceOnUse" />
    <linearGradient xlink:href="#sh" id="bg-r" x1="51" y1="37" x2="55" y2="37" gradientUnits="userSpaceOnUse" />
    <radialGradient xlink:href="#sh" id="bg-bl" cx="15" cy="55" r="4" gradientUnits="userSpaceOnUse" />
    <linearGradient xlink:href="#sh" id="bg-b" x1="33" y1="55" x2="33" y2="59" gradientUnits="userSpaceOnUse" />
    <radialGradient xlink:href="#sh" id="bg-br" cx="51" cy="55" r="4" gradientUnits="userSpaceOnUse" />
  </defs>
  <rect id="thick-center" width="32" height="32" x="17" y="83" class="ColorScheme-Background" fill="currentColor" />
  <rect id="thick-hint-top-margin" width="4" height="8" x="31" y="75" fill="#800080" />
  <rect id="thick-hint-left-margin" width="8" height="4" x="9" y="97" fill="#800080" />
  <rect id="thick-hint-right-margin" width="8" height="4" x="49" y="97" fill="#800080" />
  <rect id="thick-hint-bottom-margin" width="4" height="8" x="31" y="115" fill="#800080" />
  <circle id="hint-tile-center" cx="1" cy="1" r="1" fill="#ff6600" />
  <g transform="translate(66)" class="ColorScheme-Background" fill="currentColor" opacity="0.85" id="g2">
    <path id="topleft" d="m 15,11 a 4,4 0 0 0 -4,4 h 4 z" />
    <rect id="top" width="36" height="4" x="15" y="11" />
    <path id="topright" d="m 51,11 a 4,4 0 0 1 4,4 h -4 z" />
    <rect id="left" width="4" height="36" x="11" y="15" />
    <rect id="center" width="36" height="36" x="15" y="15" />
    <rect id="right" width="4" height="36" x="51" y="15" />
    <path id="bottomleft" d="m 15,55 a 4,4 0 0 1 -4,-4 h 4 z" />
    <rect id="bottom" width="36" height="4" x="15" y="51" />
    <path id="bottomright" d="m 51,55 a 4,4 0 0 0 4,-4 h -4 z" />
  </g>
  <rect id="shadow-topleft" width="15" height="15" x="0" y="0" fill="none" />
  <rect id="shadow-top" width="36" height="15" x="15" y="0" fill="none" />
  <rect id="shadow-topright" width="15" height="15" x="51" y="0" fill="none" />
  <g id="shadow-left">
    <rect width="15" height="36" x="0" y="15" fill="none" />
    <path d="M 11 17.271 A 7 7 0 0 0 8 23 L 8 28 L 11 28 L 11 17.271 z" fill="url(#ag-tl)" opacity="0.15" />
    <rect width="3" height="23" x="8" y="28" fill="url(#ag-l)" opacity="0.15" />
  </g>
  <rect id="shadow-center" width="36" height="36" x="15" y="15" fill="none" />
  <g id="shadow-right">
    <rect width="15" height="36" x="51" y="15" fill="none" />
    <path d="M 55 17.258 L 55 28 L 58 28 L 58 23 A 7 7 0 0 0 55 17.258 z" fill="url(#ag-tr)" opacity="0.15" />
    <rect width="3" height="23" x="55" y="28" fill="url(#ag-r)" opacity="0.15" />
  </g>
  <g id="shadow-bottomleft">
    <rect width="15" height="15" x="0" y="51" fill="none" />
    <path d="M 8 51 L 8 54 L 12.381 54 A 4 4 0 0 1 11 51 L 8 51 z" fill="url(#ag-l)" opacity="0.15" />
    <path d="M 8 54 L 8 59 A 7 7 0 0 0 15 66 L 15 55 A 4 4 0 0 1 12.381 54 L 8 54 z" fill="url(#ag-bl)"
      opacity="0.15" />
    <path d="M 11 51 L 11 55 L 15 55 A 4 4 0 0 1 11 51 z" fill="url(#bg-l)" opacity="0.3" />
    <path d="m 15,59 a 4,4 0 0 1 -4,-4 h 4 z" fill="url(#bg-bl)" opacity="0.3" />
  </g>
  <g id="shadow-bottom">
    <rect width="36" height="15" x="15" y="51" fill="none" />
    <rect width="36" height="11" x="15" y="55" fill="url(#ag-b)" opacity="0.15" />
    <rect width="36" height="4" x="15" y="55" fill="url(#bg-b)" opacity="0.3" />
  </g>
  <g id="shadow-bottomright">
    <rect width="15" height="15" x="51" y="51" fill="none" />
    <path d="M 55 51 A 4 4 0 0 1 53.619 54 L 58 54 L 58 51 L 55 51 z" fill="url(#ag-r)" opacity="0.15" />
    <path d="M 53.619 54 A 4 4 0 0 1 51 55 L 51 66 A 7 7 0 0 0 58 59 L 58 54 L 53.619 54 z" fill="url(#ag-br)"
      opacity="0.15" />
    <path d="M 55 51 A 4 4 0 0 1 51 55 L 55 55 L 55 51 z" fill="url(#bg-r)" opacity="0.3" />
    <path d="m 51,59 a 4,4 0 0 0 4,-4 h -4 z" fill="url(#bg-br)" opacity="0.3" />
  </g>
  <g transform="translate(66,66)" id="g15">
    <path id="mask-topleft" d="m 15,12 a 3,3 0 0 0 -3,3 h 3 z" />
    <rect id="mask-top" width="36" height="4" x="15" y="11" />
    <path id="mask-topright" d="m 51,12 a 3,3 0 0 1 3,3 h -3 z" />
    <rect id="mask-left" width="4" height="36" x="11" y="15" />
    <rect id="mask-center" width="36" height="36" x="15" y="15" />
    <rect id="mask-right" width="4" height="36" x="51" y="15" />
    <path id="mask-bottomleft" d="m 15,54 a 3,3 0 0 1 -3,-3 h 3 z" />
    <rect id="mask-bottom" width="36" height="4" x="15" y="51" />
    <path id="mask-bottomright" d="m 51,54 a 3,3 0 0 0 3,-3 h -3 z" />
  </g>
  <rect id="hint-top-margin" width="4" height="4" x="97" y="11" fill="#ff00ff" />
  <rect id="hint-left-margin" width="4" height="4" x="77" y="31" fill="#ff00ff" />
  <rect id="hint-right-margin" width="4" height="4" x="117" y="31" fill="#ff00ff" />
  <rect id="hint-bottom-margin" width="4" height="4" x="97" y="51" fill="#ff00ff" />
  <rect id="hint-top-inset" width="4" height="0.001" x="97" y="11" fill="#00ff00" />
  <rect id="hint-left-inset" width="0.001" height="4" x="77" y="31" fill="#00ff00" />
  <rect id="hint-right-inset" width="0.001" height="4" x="117" y="31" fill="#00ff00" />
  <rect id="hint-bottom-inset" width="4" height="0.001" x="97" y="51" fill="#00ff00" />
  <rect width="44" height="44" rx="4" x="11" y="11" fill="#808000" />
  <rect id="shadow-hint-top-margin" width="2" height="11" x="33" y="0" fill="#ff00ff" />
  <rect id="shadow-hint-left-margin" width="11" height="2" x="0" y="31" fill="#ff00ff" />
  <rect id="shadow-hint-right-margin" width="11" height="2" x="55" y="33" fill="#ff00ff" />
  <rect id="shadow-hint-bottom-margin" width="2" height="11" x="31" y="55" fill="#ff00ff" />
  <rect id="shadow-hint-top-inset" width="2" height="11" x="31" y="0" fill="#00ff00" />
  <rect id="shadow-hint-left-inset" width="11" height="2" x="0" y="33" fill="#00ff00" />
  <rect id="shadow-hint-right-inset" width="11" height="2" x="55" y="31" fill="#00ff00" />
  <rect id="shadow-hint-bottom-inset" width="2" height="11" x="33" y="55" fill="#00ff00" style="stroke-width:1" />
</svg>