<svg viewBox="0 0 120 60" xmlns="http://www.w3.org/2000/svg" xmlns:svg="http://www.w3.org/2000/svg">
  <style id="current-color-scheme" type="text/css">
    .ColorScheme-Text {
      color: #232629;
    }

    .ColorScheme-Background {
      color: #eff0f1;
    }

    .ColorScheme-ViewBackground {
      color: #ffffff;
    }
  </style>
  <!-- <g id="header-topleft">
    <path id="path1780" class="ColorScheme-Background" fill="currentColor" d="m 13,12 h 6 V 6 c -4,0 -6,2 -6,6 z"
      opacity="0.75" sodipodi:nodetypes="cccc" />
  </g> -->
  <!-- <g id="header-top">
    <path id="path1066" class="ColorScheme-Background" transform="rotate(-90)" d="m-12 19h6v32h-6z" fill="currentColor"
      opacity=".75" />
  </g> -->
  <!-- <g id="header-topright">
    <path id="path1785" class="ColorScheme-Background" fill="currentColor" d="m 51,6 v 6 h 6 C 57,8 55,6 51,6 Z"
      opacity="0.75" sodipodi:nodetypes="cccc" />
  </g> -->
  <!-- <path id="header-left" class="ColorScheme-Background" transform="scale(-1)" d="m-19-44h6v32h-6z" fill="currentColor"
    opacity=".75" /> -->
  <!-- <path id="header-center" class="ColorScheme-Background" d="m19 12h32v32h-32z" fill="currentColor" opacity=".75" /> -->
  <!-- <path id="header-right" class="ColorScheme-Background" d="m51 12h6v32h-6z" fill="currentColor" opacity=".75" /> -->
  <!-- <g id="header-bottomleft" fill="currentColor">
    <path id="path3182" class="ColorScheme-Background" d="m 19,50 v -6 h -6 v 6 z" opacity="0.75" fill="currentColor"
      sodipodi:nodetypes="ccccc" />
    <path id="path3184" class="ColorScheme-Text" d="m19 50v-1h-4l-2-2e-5v1l2 2e-5h1z" fill-rule="evenodd" opacity=".2"
      fill="currentColor" />
  </g> -->
  <!-- <g id="header-bottom" fill="currentColor">
    <path id="rect3152" class="ColorScheme-Background" transform="rotate(90)" d="m44-51h6v32h-6z" opacity=".75"
      fill="currentColor" />
    <path id="rect3154" class="ColorScheme-Text" transform="rotate(90)" d="m49-51h1v32h-1z" opacity=".2"
      fill="currentColor" />
  </g> -->
  <!-- <g id="header-bottomright" fill="currentColor">
    <path id="path3176" class="ColorScheme-Background" d="m 57,44 h -6 v 6 h 6 z" opacity="0.75" fill="currentColor"
      sodipodi:nodetypes="ccccc" />
    <path id="path3178" class="ColorScheme-Text" d="m57 49h-6v1h6c0-1-2e-5 0 0-1z" fill-rule="evenodd" opacity=".2"
      fill="currentColor" />
  </g> -->
  <!-- <g id="footer-topleft" fill="currentColor">
    <path id="path3182-1" class="ColorScheme-Background" d="m 67,6 v 6 H 61 V 6 Z" opacity="0.75" fill="currentColor"
      sodipodi:nodetypes="ccccc" />
    <path id="path3184-8" class="ColorScheme-Text" d="m67 6v1h-4l-2 2e-5v-1l2-2e-5h1z" fill-rule="evenodd" opacity=".2"
      fill="currentColor" />
  </g> -->
  <!-- <g id="footer-top" fill="currentColor">
    <path id="rect3152-0" class="ColorScheme-Background" transform="matrix(0 -1 -1 0 0 0)" d="m-12-99h6v32h-6z"
      opacity=".75" fill="currentColor" />
    <path id="rect3154-9" class="ColorScheme-Text" transform="matrix(0 -1 -1 0 0 0)" d="m-7-99h1v32h-1z" opacity=".2"
      fill="currentColor" />
  </g> -->
  <!-- <g id="footer-topright" fill="currentColor">
    <path id="path3176-6" class="ColorScheme-Background" d="M 105,12 H 99 V 6 h 6 z" opacity="0.75" fill="currentColor"
      sodipodi:nodetypes="ccccc" />
    <path id="path3178-2" class="ColorScheme-Text" d="m105 7h-6v-1h6c0 1-2e-5 0 0 1z" fill-rule="evenodd" opacity=".2"
      fill="currentColor" />
  </g> -->
  <!-- <path id="footer-left" class="ColorScheme-Background" transform="scale(-1 1)" d="m-67 12h6v32h-6z" fill="currentColor"
    opacity=".75" /> -->
  <!-- <path id="footer-center" class="ColorScheme-Background" transform="scale(1 -1)" d="m67-44h32v32h-32z"
    fill="currentColor" opacity=".75" /> -->
  <!-- <path id="footer-right" class="ColorScheme-Background" transform="scale(1 -1)" d="m99-44h6v32h-6z" fill="currentColor"
    opacity=".75" /> -->
  <!-- <path id="footer-bottomleft" opacity="0.75" class="ColorScheme-Background" fill="currentColor"
    d="m 61,44 c 0,4 2,6 6,6 v -6 z" sodipodi:nodetypes="cccc" /> -->
  <!-- <path id="footer-bottom" class="ColorScheme-Background" transform="matrix(0 1 1 0 0 0)" d="m44 67h6v32h-6z"
    fill="currentColor" opacity=".75" /> -->
  <!-- <path id="footer-bottomright" class="ColorScheme-Background" fill="currentColor" d="m 99,44 v 6 c 4,0 6,-2 6,-6 z"
    opacity="0.75" sodipodi:nodetypes="cccc" /> -->
  <!-- <path id="hint-top-margin" d="m33 12h4v6h-4z" fill="#f0f" />
  <path id="hint-bottom-margin" d="m33 38h4v6h-4z" fill="#f0f" />
  <path id="hint-right-margin" transform="rotate(90)" d="m26-51h4v6h-4z" fill="#f0f" />
  <path id="hint-left-margin" transform="rotate(90)" d="m26-25h4v6h-4z" fill="#f0f" /> -->
  <!-- MARK: New -->
  <g id="header-topleft">
    <path d="m 12,0 a 12,12 0 0 0 -12,12 h 12 z" fill="#808080" />
  </g>
  <g id="header-top">
    <rect width="36" height="12" x="12" y="0" fill="#808080" />
  </g>
  <g id="header-topright">
    <path d="m 48,0 a 12,12 0 0 1 12,12 h -12 z" fill="#808080" />
  </g>
  <g id="header-left">
    <rect width="12" height="36" x="0" y="12" fill="#808080" />
  </g>
  <g id="header-center">
    <rect width="36" height="36" x="12" y="12" fill="#808080" />
  </g>
  <g id="header-right">
    <rect width="12" height="36" x="48" y="12" fill="#808080" />
  </g>
  <g id="header-bottomleft">
    <rect width="12" height="12" x="0" y="48" fill="#808080" />
  </g>
  <g id="header-bottom">
    <rect width="36" height="12" x="12" y="48" fill="#808080" />
  </g>
  <g id="header-bottomright">
    <rect width="12" height="12" x="48" y="48" fill="#808080" />
  </g>
  <g id="footer-topleft" transform="translate(60)">
    <rect width="12" height="12" x="0" y="0" fill="#80ff80" />
  </g>
  <g id="footer-top" transform="translate(60)">
    <rect width="36" height="12" x="12" y="0" fill="#80ff80" />
  </g>
  <g id="footer-topright" transform="translate(60)">
    <rect width="12" height="12" x="48" y="0" fill="#80ff80" />
  </g>
  <g id="footer-left" transform="translate(60)">
    <rect width="12" height="36" x="0" y="12" fill="#80ff80" />
  </g>
  <g id="footer-center" transform="translate(60)">
    <rect width="36" height="36" x="12" y="12" fill="#80ff80" />
  </g>
  <g id="footer-right" transform="translate(60)">
    <rect width="12" height="36" x="48" y="12" fill="#80ff80" />
  </g>
  <g id="footer-bottomleft" transform="translate(60)">
    <path d="m 12,60 a 12,12 0 0 1 -12,-12 h 12 z" fill="#80ff80" />
  </g>
  <g id="footer-bottom" transform="translate(60)">
    <rect width="36" height="12" x="12" y="48" fill="#80ff80" />
  </g>
  <g id="footer-bottomright" transform="translate(60)">
    <path d="m 48,60 a 12,12 0 0 0 12,-12 h -12 z" fill="#80ff80" />
  </g>
  <rect id="hint-stretch-borders" width="5" height="5" />
  <rect id="hint-top-margin" width="4" height="6" x="28" y="12" fill="#f0f" />
  <rect id="hint-left-margin" width="6" height="4" x="12" y="28" fill="#f0f" />
  <rect id="hint-right-margin" width="6" height="4" x="42" y="28" fill="#f0f" />
  <rect id="hint-bottom-margin" width="4" height="6" x="28" y="42" fill="#f0f" />
</svg>