<svg version="1.1" viewBox="0 0 120 60" width="120" height="60" xmlns="http://www.w3.org/2000/svg"
  xmlns:svg="http://www.w3.org/2000/svg">
  <style id="current-color-scheme" type="text/css">
    .ColorScheme-Background {
      color: #2e2e2e;
    }
  </style>
  <path id="header-topleft" d="M 12,0 A 12,12 0 0 0 0,12 h 12 z" class="ColorScheme-Background" fill="currentColor"
    opacity="0.75" />
  <rect id="header-top" width="36" height="12" x="12" y="0" class="ColorScheme-Background" fill="currentColor"
    opacity="0.75" />
  <path id="header-topright" d="M 48,0 A 12,12 0 0 1 60,12 H 48 Z" class="ColorScheme-Background" fill="currentColor"
    opacity="0.75" />
  <rect id="header-left" width="12" height="36" x="0" y="12" class="ColorScheme-Background" fill="currentColor"
    opacity="0.75" />
  <rect id="header-center" width="36" height="36" x="12" y="12" class="ColorScheme-Background" fill="currentColor"
    opacity="0.75" />
  <rect id="header-right" width="12" height="36" x="48" y="12" class="ColorScheme-Background" fill="currentColor"
    opacity="0.75" />
  <rect id="header-bottomleft" width="12" height="12" x="0" y="48" class="ColorScheme-Background" fill="currentColor"
    opacity="0.75" />
  <rect id="header-bottom" width="36" height="12" x="12" y="48" class="ColorScheme-Background" fill="currentColor"
    opacity="0.75" />
  <rect id="header-bottomright" width="12" height="12" x="48" y="48" class="ColorScheme-Background" fill="currentColor"
    opacity="0.75" />
  <rect id="hint-top-margin" width="4" height="10" x="28" y="0" fill="#ff00ff" />
  <rect id="hint-left-margin" width="10" height="4" x="0" y="28" fill="#ff00ff" />
  <rect id="hint-right-margin" width="10" height="4" x="48" y="28" fill="#ff00ff" />
  <rect id="hint-bottom-margin" width="4" height="10" x="28" y="48" fill="#ff00ff" />
  <rect id="footer-topleft" width="12" height="12" x="60" y="0" class="ColorScheme-Background" fill="currentColor"
    opacity="0.75" />
  <rect id="footer-top" width="36" height="12" x="72" y="0" class="ColorScheme-Background" fill="currentColor"
    opacity="0.75" />
  <rect id="footer-topright" width="12" height="12" x="108" y="0" class="ColorScheme-Background" fill="currentColor"
    opacity="0.75" />
  <rect id="footer-left" width="12" height="36" x="60" y="12" class="ColorScheme-Background" fill="currentColor"
    opacity="0.75" />
  <rect id="footer-center" width="36" height="36" x="72" y="12" class="ColorScheme-Background" fill="currentColor"
    opacity="0.75" />
  <rect id="footer-right" width="12" height="36" x="108" y="12" class="ColorScheme-Background" fill="currentColor"
    opacity="0.75" />
  <path id="footer-bottomleft" d="M 72,60 A 12,12 0 0 1 60,48 h 12 z" class="ColorScheme-Background" fill="currentColor"
    opacity="0.75" />
  <rect id="footer-bottom" width="36" height="12" x="72" y="48" class="ColorScheme-Background" fill="currentColor"
    opacity="0.75" />
  <path id="footer-bottomright" d="M 108,60 A 12,12 0 0 0 120,48 H 108 Z" class="ColorScheme-Background"
    fill="currentColor" opacity="0.75" />
  <circle id="hint-stretch-borders" cx="1" cy="1" r="1" fill="#ff8000" />
</svg>