<svg width="90" height="70" version="1.1" xmlns="http://www.w3.org/2000/svg" xmlns:svg="http://www.w3.org/2000/svg">
  <defs>
    <style type="text/css" id="current-color-scheme">
      .ColorScheme-Highlight {
        color: #3daee9;
        stop-color: #3daee9;
      }

      .ColorScheme-ButtonText {
        color: #232629;
        stop-color: #232629;
      }

      .ColorScheme-ButtonBackground {
        color: #eff0f1;
        stop-color: #eff0f1;
      }
    </style>
  </defs>
  <circle id="hint-size" cx="10" cy="10" r="10" fill="#ff0000" />
  <!-- onSurfaceVariant #c2c7cf -->
  <path id="normal" fill="#c2c7cf"
    d="M 30,0 a 10,10 0 0 0 -10,10 10,10 0 0 0 10,10 10,10 0 0 0 10,-10 a 10,10 0 0 0 -10,-10 z m 0,2 a 8,8 0 0 1 8,8 8,8 0 0 1 -8,8 8,8 0 0 1 -8,-8 a 8,8 0 0 1 8,-8 z" />
  <!-- primary #95ccff -->
  <path id="checked" fill="#95ccff"
    d="M 50,0 a 10,10 0 0 0 -10,10 10,10 0 0 0 10,10 10,10 0 0 0 10,-10 a 10,10 0 0 0 -10,-10 z m 0,2 a 8,8 0 0 1 8,8 8,8 0 0 1 -8,8 8,8 0 0 1 -8,-8 a 8,8 0 0 1 8,-8 z" />
  <circle id="symbol" cx="50" cy="10" r="5" fill="#95ccff" />
  <!-- onSurface #e2e2e5 -->
  <g id="hover" fill="#e2e2e5" transform="translate(0,20)">
    <circle cx="20" cy="20" r="20" opacity="0.8" />
    <path
      d="M 20,10 a 10,10 0 0 0 -10,10 10,10 0 0 0 10,10 10,10 0 0 0 10,-10 a 10,10 0 0 0 -10,-10 z m 0,2 a 8,8 0 0 1 8,8 8,8 0 0 1 -8,8 8,8 0 0 1 -8,-8 a 8,8 0 0 1 8,-8 z" />
  </g>
  <!-- secondary #b9c8da -->
  <g id="focus" transform="translate(40,20)">
    <path fill="#b9c8da"
      d="M 25 0 A 25 25 0 0 0 0 25 A 25 25 0 0 0 25 50 A 25 25 0 0 0 50 25 A 25 25 0 0 0 25 0 z M 25 3 A 22 22 0 0 1 47 25 A 22 22 0 0 1 25 47 A 22 22 0 0 1 3 25 A 22 22 0 0 1 25 3 z " />
    <path fill="#95ccff"
      d="M 25,15 a 10,10 0 0 0 -10,10 10,10 0 0 0 10,10 10,10 0 0 0 10,-10 a 10,10 0 0 0 -10,-10 z m 0,2 a 8,8 0 0 1 8,8 8,8 0 0 1 -8,8 8,8 0 0 1 -8,-8 a 8,8 0 0 1 8,-8 z" />
  </g>
  <circle id="shadow" cx="10" cy="10" r="10" fill="none" />
</svg>