<svg width="60" height="60" version="1.1" id="svg3" xmlns="http://www.w3.org/2000/svg"
  xmlns:svg="http://www.w3.org/2000/svg">
  <defs>
    <style type="text/css" id="current-color-scheme">
      .ColorScheme-Highlight {
        color: #3daee9;
        stop-color: #3daee9;
      }

      .ColorScheme-ButtonText {
        color: #232629;
        stop-color: #232629;
      }

      .ColorScheme-ButtonBackground {
        color: #eff0f1;
        stop-color: #eff0f1;
      }
    </style>
  </defs>
  <circle id="hint-size" cx="10" cy="10" r="10" fill="#ff0000" />
  <!-- onSurfaceVariant #c2c7cf -->
  <path id="normal" fill="#c2c7cf"
    d="M 30,0 A 10,10 0 0 0 20,10 10,10 0 0 0 30,20 10,10 0 0 0 40,10 10,10 0 0 0 30,0 Z m 0,2 a 8,8 0 0 1 8,8 8,8 0 0 1 -8,8 8,8 0 0 1 -8,-8 8,8 0 0 1 8,-8 z" />
  <!-- primary #95ccff -->
  <path id="checked" fill="#95ccff"
    d="M 50,0 A 10,10 0 0 0 40,10 10,10 0 0 0 50,20 10,10 0 0 0 60,10 10,10 0 0 0 50,0 Z m 0,2 a 8,8 0 0 1 8,8 8,8 0 0 1 -8,8 8,8 0 0 1 -8,-8 8,8 0 0 1 8,-8 z" />
  <circle id="symbol" cx="50" cy="10" r="5" fill="#95ccff" />
  <!-- onSurface #e2e2e5 -->
  <g id="hover" fill="#e2e2e5" transform="translate(0,20)">
    <circle cx="13" cy="13" r="13" opacity="0.8" />
    <path
      d="M 13,3 A 10,10 0 0 0 3,13 10,10 0 0 0 13,23 10,10 0 0 0 23,13 10,10 0 0 0 13,3 Z m 0,2 a 8,8 0 0 1 8,8 8,8 0 0 1 -8,8 8,8 0 0 1 -8,-8 8,8 0 0 1 8,-8 z" />
  </g>
  <!-- secondary #b9c8da -->
  <g id="focus" transform="translate(26,20)">
    <path fill="#b9c8da"
      d="M 13,0 A 13,13 0 0 0 0,13 13,13 0 0 0 13,26 13,13 0 0 0 26,13 13,13 0 0 0 13,0 Z m 0,3 A 10,10 0 0 1 23,13 10,10 0 0 1 13,23 10,10 0 0 1 3,13 10,10 0 0 1 13,3 Z" />
    <path fill="#95ccff"
      d="M 13,3 A 10,10 0 0 0 3,13 10,10 0 0 0 13,23 10,10 0 0 0 23,13 10,10 0 0 0 13,3 Z m 0,2 a 8,8 0 0 1 8,8 8,8 0 0 1 -8,8 8,8 0 0 1 -8,-8 8,8 0 0 1 8,-8 z" />
  </g>
  <circle id="shadow" cx="10" cy="10" r="10" fill="none" />
</svg>