<svg height="42" width="42" version="1.1" id="svg94" xmlns="http://www.w3.org/2000/svg"
  xmlns:svg="http://www.w3.org/2000/svg">
  <defs>
    <style id="current-color-scheme" type="text/css">
      .ColorScheme-Text {
        color: #232629;
        stop-color: #232629;
      }

      .ColorScheme-Background {
        color: #eff0f1;
        stop-color: #eff0f1;
      }

      .ColorScheme-Highlight {
        color: #3daee9;
        stop-color: #3daee9;
      }

      .ColorScheme-ViewText {
        color: #232629;
        stop-color: #232629;
      }

      .ColorScheme-ViewBackground {
        color: #fcfcfc;
        stop-color: #fcfcfc;
      }

      .ColorScheme-ViewHover {
        color: #3daee9;
        stop-color: #3daee9;
      }

      .ColorScheme-ViewFocus {
        color: #3daee9;
        stop-color: #3daee9;
      }

      .ColorScheme-ButtonText {
        color: #232629;
        stop-color: #232629;
      }

      .ColorScheme-ButtonBackground {
        color: #eff0f1;
        stop-color: #eff0f1;
      }

      .ColorScheme-ButtonHover {
        color: #3daee9;
        stop-color: #3daee9;
      }

      .ColorScheme-ButtonFocus {
        color: #3daee9;
        stop-color: #3daee9;
      }
    </style>
  </defs>
  <g id="slider-topleft">
    <path d="M 6,9 H 9 V 6 C 7.338,6 6,7.338 6,9 Z" class="ColorScheme-ButtonBackground" fill="currentColor" />
    <path d="M 9,6 C 7.318,6 6,7.318 6,9 H 7 A 2,2 0 0 1 9,7 Z" class="ColorScheme-ButtonText" fill="currentColor"
      opacity="0.2" />
    <path d="M 9,7 A 2,2 0 0 0 7,9 h 2 z" class="ColorScheme-ButtonText" fill="currentColor" opacity="0.15" />
  </g>
  <g id="slider-top">
    <path d="m 9,6 v 3 h 3 V 6 Z" class="ColorScheme-ButtonBackground" fill="currentColor" />
    <path d="m 9,6 v 1 h 3 V 6 Z" class="ColorScheme-ButtonText" fill="currentColor" opacity="0.2" />
    <path d="m 9,7 v 2 h 3 V 7 Z" class="ColorScheme-ButtonText" fill="currentColor" opacity="0.15" />
  </g>
  <g id="slider-topright">
    <path d="m 12,9 h 3 C 15,7.338 13.662,6 12,6 Z" class="ColorScheme-ButtonBackground" fill="currentColor" />
    <path d="m 12,6 v 1 a 2,2 0 0 1 2,2 h 1 C 15,7.318 13.682,6 12,6 Z" class="ColorScheme-ButtonText"
      fill="currentColor" opacity="0.2" />
    <path d="m 12,7 a 2,2 0 0 1 2,2 h -2 z" class="ColorScheme-ButtonText" fill="currentColor" opacity="0.15" />
  </g>
  <g id="slider-left">
    <path d="m 6,9 v 3 H 9 V 9 Z" class="ColorScheme-ButtonBackground" fill="currentColor" />
    <path d="m 6,9 v 3 H 7 V 9 Z" class="ColorScheme-ButtonText" fill="currentColor" opacity="0.2" />
    <path d="m 7,9 v 3 H 9 V 9 Z" class="ColorScheme-ButtonText" fill="currentColor" opacity="0.15" />
  </g>
  <g id="slider-center">
    <path d="m 9,9 v 3 h 3 V 9 Z" class="ColorScheme-ButtonBackground" fill="currentColor" />
    <path d="m 9,9 v 3 h 3 V 9 Z" class="ColorScheme-ButtonText" fill="currentColor" opacity="0.15" />
  </g>
  <g id="slider-right">
    <path d="m 12,9 v 3 h 3 V 9 Z" class="ColorScheme-ButtonBackground" fill="currentColor" />
    <path d="m 14,9 v 3 h 1 V 9 Z" class="ColorScheme-ButtonText" fill="currentColor" opacity="0.2" />
    <path d="m 12,9 v 3 h 2 V 9 Z" class="ColorScheme-ButtonText" fill="currentColor" opacity="0.15" />
  </g>
  <g id="slider-bottomleft">
    <path d="M 9,15 V 12 H 6 c 0,1.662 1.338,3 3,3 z" class="ColorScheme-ButtonBackground" fill="currentColor" />
    <path d="m 6,12 c 0,1.682 1.318,3 3,3 V 14 A 2,2 0 0 1 7,12 Z" class="ColorScheme-ButtonText" fill="currentColor"
      opacity="0.2" />
    <path d="M 9,14 A 2,2 0 0 1 7,12 h 2 z" class="ColorScheme-ButtonText" fill="currentColor" opacity="0.15" />
  </g>
  <g id="slider-bottom">
    <path d="m 9,12 v 3 h 3 v -3 z" class="ColorScheme-ButtonBackground" fill="currentColor" />
    <path d="m 9,15 v -1 h 3 v 1 z" class="ColorScheme-ButtonText" fill="currentColor" opacity="0.2" />
    <path d="m 9,12 v 2 h 3 v -2 z" class="ColorScheme-ButtonText" fill="currentColor" opacity="0.15" />
  </g>
  <g id="slider-bottomright">
    <path d="m 15,12 h -3 v 3 c 1.662,0 3,-1.338 3,-3 z" class="ColorScheme-ButtonBackground" fill="currentColor" />
    <path d="m 14,12 a 2,2 0 0 1 -2,2 v 1 c 1.682,0 3,-1.318 3,-3 z" class="ColorScheme-ButtonText" fill="currentColor"
      opacity="0.2" />
    <path d="m 12,14 a 2,2 0 0 0 2,-2 h -2 z" class="ColorScheme-ButtonText" fill="currentColor" opacity="0.15" />
  </g>
  <rect id="slider-hint-top-inset" width="3" height="6" x="9" y="0" fill="#ff00ff" opacity="0.5" />
  <rect id="slider-hint-left-inset" width="6" height="3" x="0" y="9" fill="#ff00ff" opacity="0.5" />
  <rect id="slider-hint-right-inset" width="6" height="3" x="15" y="9" fill="#ff00ff" opacity="0.5" />
  <rect id="slider-hint-bottom-inset" width="3" height="6" x="9" y="15" fill="#ff00ff" opacity="0.5" />
  <g id="mouseover-slider-topleft">
    <path d="M 6,30 H 9 V 27 C 7.338,27 6,28.338 6,30 Z" class="ColorScheme-ButtonBackground" fill="currentColor" />
    <path d="M 9,27.5 C 7.619,27.5 6.5,28.619 6.5,30 H 9 Z" class="ColorScheme-Highlight" fill="currentColor"
      opacity="0.5" />
    <path d="M 9,27 C 7.318,27 6,28.318 6,30 H 7 A 2,2 0 0 1 9,28 Z" class="ColorScheme-Highlight"
      fill="currentColor" />
  </g>
  <g id="mouseover-slider-top">
    <path d="m 9,27 v 3 h 3 v -3 z" class="ColorScheme-ButtonBackground" fill="currentColor" />
    <rect width="3" height="2.5" x="9" y="27.5" class="ColorScheme-Highlight" fill="currentColor" opacity="0.5" />
    <path d="m 9,27 v 1 h 3 v -1 z" class="ColorScheme-Highlight" fill="currentColor" />
  </g>
  <g id="mouseover-slider-topright">
    <path d="m 12,30 h 3 c 0,-1.662 -1.338,-3 -3,-3 z" class="ColorScheme-ButtonBackground" fill="currentColor" />
    <path d="m 12,27.5 c 1.381,0 2.5,1.119 2.5,2.5 H 12 Z" class="ColorScheme-Highlight" fill="currentColor"
      opacity="0.5" />
    <path d="m 12,27 v 1 a 2,2 0 0 1 2,2 h 1 c 0,-1.682 -1.318,-3 -3,-3 z" class="ColorScheme-Highlight"
      fill="currentColor" />
  </g>
  <g id="mouseover-slider-left">
    <path d="m 6,30 v 3 h 3 v -3 z" class="ColorScheme-ButtonBackground" fill="currentColor" />
    <rect width="2.5" height="3" x="6.5" y="30" class="ColorScheme-Highlight" fill="currentColor" opacity="0.5" />
    <path d="m 6,30 v 3 h 1 v -3 z" class="ColorScheme-Highlight" fill="currentColor" />
  </g>
  <g id="mouseover-slider-center">
    <path d="m 9,30 v 3 h 3 v -3 z" class="ColorScheme-ButtonBackground" fill="currentColor" />
    <path d="m 9,30 v 3 h 3 v -3 z" class="ColorScheme-Highlight" fill="currentColor" opacity="0.5" />
  </g>
  <g id="mouseover-slider-right">
    <path d="m 12,30 v 3 h 3 v -3 z" class="ColorScheme-ButtonBackground" fill="currentColor" />
    <rect height="3" width="2.5" x="12" y="30" class="ColorScheme-Highlight" fill="currentColor" opacity="0.5" />
    <path d="m 14,30 v 3 h 1 v -3 z" class="ColorScheme-Highlight" fill="currentColor" />
  </g>
  <g id="mouseover-slider-bottomleft">
    <path d="M 9,36 V 33 H 6 c 0,1.662 1.338,3 3,3 z" class="ColorScheme-ButtonBackground" fill="currentColor" />
    <path d="M 9,35.5 C 7.619,35.5 6.5,34.381 6.5,33 H 9 Z" class="ColorScheme-Highlight" fill="currentColor"
      opacity="0.5" />
    <path d="m 6,33 c 0,1.682 1.318,3 3,3 V 35 A 2,2 0 0 1 7,33 Z" class="ColorScheme-Highlight" fill="currentColor" />
  </g>
  <g id="mouseover-slider-bottom">
    <path d="m 9,33 v 3 h 3 v -3 z" class="ColorScheme-ButtonBackground" fill="currentColor" />
    <rect height="2.5" width="3" x="9" y="33" class="ColorScheme-Highlight" fill="currentColor" opacity="0.5" />
    <path d="m 9,36 v -1 h 3 v 1 z" class="ColorScheme-Highlight" fill="currentColor" />
  </g>
  <g id="mouseover-slider-bottomright">
    <path d="m 15,33 h -3 v 3 c 1.662,0 3,-1.338 3,-3 z" class="ColorScheme-ButtonBackground" fill="currentColor" />
    <path d="m 12,35.5 c 1.381,0 2.5,-1.119 2.5,-2.5 H 12 Z" class="ColorScheme-Highlight" fill="currentColor"
      opacity="0.5" />
    <path d="m 14,33 a 2,2 0 0 1 -2,2 v 1 c 1.682,0 3,-1.318 3,-3 z" class="ColorScheme-Highlight"
      fill="currentColor" />
  </g>
  <rect id="mouseover-slider-hint-top-inset" width="3" height="6" x="9" y="21" fill="#ff00ff" opacity="0.5" />
  <rect id="mouseover-slider-hint-left-inset" width="6" height="3" x="0" y="30" fill="#ff00ff" opacity="0.5" />
  <rect id="mouseover-slider-hint-right-inset" width="6" height="3" x="15" y="30" fill="#ff00ff" opacity="0.5" />
  <rect id="mouseover-slider-hint-bottom-inset" width="3" height="6" x="9" y="36" fill="#ff00ff" opacity="0.5" />
  <g transform="translate(24,3)" id="g48">
    <rect id="background-vertical-topleft" width="1" height="1" x="0" y="0" fill="#8c9198" />
    <rect id="background-vertical-top" width="13" height="1" x="1" y="0" opacity="0.25" />
    <rect id="background-vertical-topright" width="1" height="1" x="14" y="0" fill="#8c9198" />
    <rect id="background-vertical-left" width="1" height="13" x="0" y="1" fill="#8c9198" />
    <rect id="background-vertical-center" width="13" height="13" x="1" y="1" opacity="0.25" />
    <rect id="background-vertical-right" width="1" height="13" x="14" y="1" fill="#8c9198" />
    <rect id="background-vertical-bottomleft" width="1" height="1" x="0" y="14" fill="#8c9198" />
    <rect id="background-vertical-bottom" width="13" height="1" x="1" y="14" opacity="0.25" />
    <rect id="background-vertical-bottomright" width="1" height="1" x="14" y="14" fill="#8c9198" />
  </g>
  <rect id="background-vertical-hint-top-inset" width="3" height="3" x="30" y="0" fill="#00ffff" opacity="0.5" />
  <rect id="background-vertical-hint-left-inset" width="3" height="3" x="21" y="9" fill="#00ffff" opacity="0.5" />
  <rect id="background-vertical-hint-right-inset" width="3" height="3" x="39" y="9" fill="#00ffff" opacity="0.5" />
  <rect id="background-vertical-hint-bottom-inset" width="3" height="3" x="30" y="18" fill="#00ffff" opacity="0.5" />
  <g transform="translate(24,24)" id="g49">
    <rect id="background-horizontal-topleft" width="1" height="1" x="0" y="0" fill="#8c9198" />
    <rect id="background-horizontal-top" width="13" height="1" x="1" y="0" fill="#8c9198" />
    <rect id="background-horizontal-topright" width="1" height="1" x="14" y="0" fill="#8c9198" />
    <rect id="background-horizontal-left" width="1" height="13" x="0" y="1" opacity="0.25" />
    <rect id="background-horizontal-center" width="13" height="13" x="1" y="1" opacity="0.25" />
    <rect id="background-horizontal-right" width="1" height="13" x="14" y="1" opacity="0.25" />
    <rect id="background-horizontal-bottomleft" width="1" height="1" x="0" y="14" fill="#8c9198" />
    <rect id="background-horizontal-bottom" width="13" height="1" x="1" y="14" fill="#8c9198" />
    <rect id="background-horizontal-bottomright" width="1" height="1" x="14" y="14" fill="#8c9198" />
  </g>
  <rect id="background-horizontal-hint-top-inset" width="3" height="3" x="30" y="21" fill="#00ffff" opacity="0.5" />
  <rect id="background-horizontal-hint-left-inset" width="3" height="3" x="21" y="30" fill="#00ffff" opacity="0.5" />
  <rect id="background-horizontal-hint-right-inset" width="3" height="3" x="39" y="30" fill="#00ffff" opacity="0.5" />
  <rect id="background-horizontal-hint-bottom-inset" width="3" height="3" x="30" y="39" fill="#00ffff" opacity="0.5" />
  <rect id="hint-scrollbar-size" x="0" y="0" width="6" height="6" fill="#ff0000" />
  <circle id="hint-tile-center" cx="1" cy="1" r="1" fill="#4e9a06" />
  <circle id="private-hint-show-separator" cx="3" cy="1" r="1" fill="#0000ff" />
  <!-- windows button 15x15 icon 7x6  -->
  <!-- kvantum 10 -->
  <!-- kde 6 -->
</svg>