<svg height="128" style="" width="128" version="1.1" xmlns:xlink="http://www.w3.org/1999/xlink"
  xmlns="http://www.w3.org/2000/svg" xmlns:svg="http://www.w3.org/2000/svg">
  <defs>
    <style id="current-color-scheme" type="text/css">
      .ColorScheme-Text {
        color: #232629;
        stop-color: #232629;
      }

      .ColorScheme-Background {
        color: #282a2d;
        stop-color: #282a2d;
      }

      .ColorScheme-ButtonHover {
        color: #95ccff;
      }

      .ColorScheme-Highlight {
        color: #95ccff;
        stop-color: #95ccff;
      }

      .ColorScheme-ButtonText {
        color: #95ccff;
        stop-color: #95ccff;
      }

      .ColorScheme-ButtonBackground {
        color: #333538;
        stop-color: #333538;
      }
    </style>
    <linearGradient id="shadow">
      <stop offset="0" stop-opacity="1" />
      <stop offset="0.739" style="stop-color:#000;stop-opacity:.2" />
      <stop offset="0.826" style="stop-color:#000;stop-opacity:.1" />
      <stop offset="0.87" style="stop-color:#000;stop-opacity:.05" />
      <stop offset="1" style="stop-color:#000;stop-opacity:0" />
    </linearGradient>
    <radialGradient xlink:href="#shadow" id="radialGradient1667" cx="108" cy="111.5" fx="108" fy="111.5" r="11.5"
      gradientUnits="userSpaceOnUse" />
    <radialGradient xlink:href="#shadow" id="radialGradient1675" cx="108" cy="111.5" fx="108" fy="111.5" r="11.5"
      gradientUnits="userSpaceOnUse" />
  </defs>
  <rect id="hint-tile-center" width="2" height="2" x="0" y="0" fill="#4e9a06" />
  <g id="groove-topleft">
    <path d="M 2,0 a 2,2 0 0 0 -2,2 h 2 z" class="ColorScheme-Background" fill="currentColor" />
    <path d="M 2,0 a 2,2 0 0 0 -2,2 h 2 z" fill="#ffffff" opacity="0.05" />
    <!-- <path d="M 0,3 H 3 V 0 C 1.338,0 0,1.338 0,3 Z" class="ColorScheme-ButtonBackground" fill="currentColor"
      opacity="0.525" />
    <path d="M 3,0 C 1.318,0 0,1.318 0,3 H 1 A 2,2 0 0 1 3,1 Z" class="ColorScheme-ButtonText" fill="currentColor"
      opacity="0.2" />
    <path d="M 3,1 A 2,2 0 0 0 1,3 h 2 z" class="ColorScheme-ButtonText" fill="currentColor" opacity="0.09" /> -->
  </g>
  <g id="groove-top">
    <rect width="2" height="2" x="2" y="0" class="ColorScheme-Background" fill="currentColor" />
    <rect width="2" height="2" x="2" y="0" fill="#ffffff" opacity="0.05" />
    <!-- <path d="M 3,0 V 3 H 6 V 0 Z" class="ColorScheme-ButtonBackground" fill="currentColor" opacity="0.525" />
    <path d="M 3,0 V 1 H 6 V 0 Z" class="ColorScheme-ButtonText" fill="currentColor" opacity="0.2" />
    <path d="M 3,1 V 3 H 6 V 1 Z" class="ColorScheme-ButtonText" fill="currentColor" opacity="0.09" /> -->
  </g>
  <g id="groove-topright">
    <path d="M 4,0 a 2,2 0 0 1 2,2 h -2 z" class="ColorScheme-Background" fill="currentColor" />
    <path d="M 4,0 a 2,2 0 0 1 2,2 h -2 z" fill="#ffffff" opacity="0.05" />
    <!-- <path d="M 6,3 H 9 C 9,1.338 7.662,0 6,0 Z" class="ColorScheme-ButtonBackground" fill="currentColor"
      opacity="0.525" />
    <path d="M 6,0 V 1 A 2,2 0 0 1 8,3 H 9 C 9,1.318 7.682,0 6,0 Z" class="ColorScheme-ButtonText" fill="currentColor"
      opacity="0.2" />
    <path d="M 6,1 A 2,2 0 0 1 8,3 H 6 Z" class="ColorScheme-ButtonText" fill="currentColor" opacity="0.09" /> -->
  </g>
  <g id="groove-left">
    <rect width="2" height="2" x="0" y="2" class="ColorScheme-Background" fill="currentColor" />
    <rect width="2" height="2" x="0" y="2" fill="#ffffff" opacity="0.05" />
    <!-- <path d="M 0,3 V 6 H 3 V 3 Z" class="ColorScheme-ButtonBackground" fill="currentColor" opacity="0.525" />
    <path d="M 0,3 V 6 H 1 V 3 Z" class="ColorScheme-ButtonText" fill="currentColor" opacity="0.2" />
    <path d="M 1,3 V 6 H 3 V 3 Z" class="ColorScheme-ButtonText" fill="currentColor" opacity="0.09" /> -->
  </g>
  <g id="groove-center">
    <rect width="2" height="2" x="2" y="2" class="ColorScheme-Background" fill="currentColor" />
    <rect width="2" height="2" x="2" y="2" fill="#ffffff" opacity="0.05" />
    <!-- <path d="M 3,3 V 6 H 6 V 3 Z" class="ColorScheme-ButtonBackground" fill="currentColor" opacity="0.525" />
    <path d="M 3,3 V 6 H 6 V 3 Z" class="ColorScheme-ButtonText" fill="currentColor" opacity="0.09" /> -->
  </g>
  <g id="groove-right">
    <rect width="2" height="2" x="4" y="2" class="ColorScheme-Background" fill="currentColor" />
    <rect width="2" height="2" x="4" y="2" fill="#ffffff" opacity="0.05" />
    <!-- <path d="M 6,3 V 6 H 9 V 3 Z" class="ColorScheme-ButtonBackground" fill="currentColor" opacity="0.525" />
    <path d="M 8,3 V 6 H 9 V 3 Z" class="ColorScheme-ButtonText" fill="currentColor" opacity="0.2" />
    <path d="M 6,3 V 6 H 8 V 3 Z" class="ColorScheme-ButtonText" fill="currentColor" opacity="0.09" /> -->
  </g>
  <g id="groove-bottomleft">
    <path d="M 2,6 a 2,2 0 0 1 -2,-2 h 2 z" class="ColorScheme-Background" fill="currentColor" />
    <path d="M 2,6 a 2,2 0 0 1 -2,-2 h 2 z" fill="#ffffff" opacity="0.05" />
    <!-- <path d="M 3,9 V 6 H 0 c 0,1.662 1.338,3 3,3 z" class="ColorScheme-ButtonBackground" fill="currentColor"
      opacity="0.525" />
    <path d="M 0,6 C 0,7.682 1.318,9 3,9 V 8 A 2,2 0 0 1 1,6 Z" class="ColorScheme-ButtonText" fill="currentColor"
      opacity="0.2" />
    <path d="M 3,8 A 2,2 0 0 1 1,6 h 2 z" class="ColorScheme-ButtonText" fill="currentColor" opacity="0.09" /> -->
  </g>
  <g id="groove-bottom">
    <rect width="2" height="2" x="2" y="4" class="ColorScheme-Background" fill="currentColor" />
    <rect width="2" height="2" x="2" y="4" fill="#ffffff" opacity="0.05" />
    <!-- <path d="M 3,6 V 9 H 6 V 6 Z" class="ColorScheme-ButtonBackground" fill="currentColor" opacity="0.525" />
    <path d="M 3,9 V 8 h 3 v 1 z" class="ColorScheme-ButtonText" fill="currentColor" opacity="0.2" />
    <path d="M 3,6 V 8 H 6 V 6 Z" class="ColorScheme-ButtonText" fill="currentColor" opacity="0.09" /> -->
  </g>
  <g id="groove-bottomright">
    <path d="M 4,6 a 2,2 0 0 0 2,-2 h -2 z" class="ColorScheme-Background" fill="currentColor" />
    <path d="M 4,6 a 2,2 0 0 0 2,-2 h -2 z" fill="#ffffff" opacity="0.05" />
    <!-- <path d="M 9,6 H 6 V 9 C 7.662,9 9,7.662 9,6 Z" class="ColorScheme-ButtonBackground" fill="currentColor"
      opacity="0.525" />
    <path d="M 8,6 A 2,2 0 0 1 6,8 V 9 C 7.682,9 9,7.682 9,6 Z" class="ColorScheme-ButtonText" fill="currentColor"
      opacity="0.2" />
    <path d="M 6,8 A 2,2 0 0 0 8,6 H 6 Z" class="ColorScheme-ButtonText" fill="currentColor" opacity="0.09" /> -->
  </g>
  <g id="groove-highlight-topleft" transform="translate(0,6)">
    <path d="M 2,0 a 2,2 0 0 0 -2,2 h 2 z" class="ColorScheme-ButtonHover" fill="currentColor" />
    <!-- <path d="M 0,12 H 3 V 9 C 1.338,9 0,10.338 0,12 Z" class="ColorScheme-ButtonBackground" fill="currentColor" />
    <path d="M 3,9.5 C 1.619,9.5 0.5,10.619 0.5,12 H 3 Z" class="ColorScheme-Highlight" fill="currentColor"
      opacity="0.5" />
    <path d="M 3,9 C 1.318,9 0,10.318 0,12 h 1 a 2,2 0 0 1 2,-2 z" class="ColorScheme-Highlight" fill="currentColor" /> -->
  </g>
  <g id="groove-highlight-top" transform="translate(0,6)">
    <rect width="2" height="2" x="2" y="0" class="ColorScheme-ButtonHover" fill="currentColor" />
    <!-- <path d="m 3,9 v 3 H 6 V 9 Z" class="ColorScheme-ButtonBackground" fill="currentColor" />
    <rect width="3" height="2.5" x="3" y="9.5" class="ColorScheme-Highlight" fill="currentColor" opacity="0.5" />
    <path d="m 3,9 v 1 H 6 V 9 Z" class="ColorScheme-Highlight" fill="currentColor" /> -->
  </g>
  <g id="groove-highlight-topright" transform="translate(0,6)">
    <path d="M 4,0 a 2,2 0 0 1 2,2 h -2 z" class="ColorScheme-ButtonHover" fill="currentColor" />
    <!-- <path d="M 6,12 H 9 C 9,10.338 7.662,9 6,9 Z" class="ColorScheme-ButtonBackground" fill="currentColor" />
    <path d="m 6,9.5 c 1.381,0 2.5,1.119 2.5,2.5 H 6 Z" class="ColorScheme-Highlight" fill="currentColor"
      opacity="0.5" />
    <path d="m 6,9 v 1 a 2,2 0 0 1 2,2 H 9 C 9,10.318 7.682,9 6,9 Z" class="ColorScheme-Highlight"
      fill="currentColor" /> -->
  </g>
  <g id="groove-highlight-left" transform="translate(0,6)">
    <rect width="2" height="2" x="0" y="2" class="ColorScheme-ButtonHover" fill="currentColor" />
    <!-- <path d="m 0,12 v 3 h 3 v -3 z" class="ColorScheme-ButtonBackground" fill="currentColor" />
    <rect width="2.5" height="3" x="0.5" y="12" class="ColorScheme-Highlight" fill="currentColor" opacity="0.5" />
    <path d="m 0,12 v 3 h 1 v -3 z" class="ColorScheme-Highlight" fill="currentColor" /> -->
  </g>
  <g id="groove-highlight-center" transform="translate(0,6)">
    <rect width="2" height="2" x="2" y="2" class="ColorScheme-ButtonHover" fill="currentColor" />
    <!-- <path d="m 3,12 v 3 h 3 v -3 z" class="ColorScheme-ButtonBackground" fill="currentColor" />
    <path d="m 3,12 v 3 h 3 v -3 z" class="ColorScheme-Highlight" fill="currentColor" opacity="0.5" /> -->
  </g>
  <g id="groove-highlight-right" transform="translate(0,6)">
    <rect width="2" height="2" x="4" y="2" class="ColorScheme-ButtonHover" fill="currentColor" />
    <!-- <path d="m 6,12 v 3 h 3 v -3 z" class="ColorScheme-ButtonBackground" fill="currentColor" />
    <rect width="2.5" height="3" x="6" y="12" class="ColorScheme-Highlight" fill="currentColor" opacity="0.5" />
    <path d="m 8,12 v 3 h 1 v -3 z" class="ColorScheme-Highlight" fill="currentColor" /> -->
  </g>
  <g id="groove-highlight-bottomleft" transform="translate(0,6)">
    <path d="M 2,6 a 2,2 0 0 1 -2,-2 h 2 z" class="ColorScheme-ButtonHover" fill="currentColor" />
    <!-- <path d="M 3,18 V 15 H 0 c 0,1.662 1.338,3 3,3 z" class="ColorScheme-ButtonBackground" fill="currentColor" />
    <path d="M 3,17.5 C 1.619,17.5 0.5,16.381 0.5,15 H 3 Z" class="ColorScheme-Highlight" fill="currentColor"
      opacity="0.5" />
    <path d="m 0,15 c 0,1.682 1.318,3 3,3 V 17 A 2,2 0 0 1 1,15 Z" class="ColorScheme-Highlight" fill="currentColor" /> -->
  </g>
  <g id="groove-highlight-bottom" transform="translate(0,6)">
    <rect width="2" height="2" x="2" y="4" class="ColorScheme-ButtonHover" fill="currentColor" />
    <!-- <path d="m 3,15 v 3 h 3 v -3 z" class="ColorScheme-ButtonBackground" fill="currentColor" />
    <rect width="3" height="2.5" x="3" y="15" class="ColorScheme-Highlight" fill="currentColor" opacity="0.5" />
    <path d="m 3,18 v -1 h 3 v 1 z" class="ColorScheme-Highlight" fill="currentColor" /> -->
  </g>
  <g id="groove-highlight-bottomright" transform="translate(0,6)">
    <path d="M 4,6 a 2,2 0 0 0 2,-2 h -2 z" class="ColorScheme-ButtonHover" fill="currentColor" />
    <!-- <path d="M 9,15 H 6 v 3 c 1.662,0 3,-1.338 3,-3 z" class="ColorScheme-ButtonBackground" fill="currentColor" />
    <path d="m 6,17.5 c 1.381,0 2.5,-1.119 2.5,-2.5 H 6 Z" class="ColorScheme-Highlight" fill="currentColor"
      opacity="0.5" />
    <path d="m 8,15 a 2,2 0 0 1 -2,2 v 1 c 1.682,0 3,-1.318 3,-3 z" class="ColorScheme-Highlight" fill="currentColor" /> -->
  </g>
  <g id="vertical-slider-handle">
    <circle cx="19" cy="10" r="10" class="ColorScheme-ButtonBackground" fill="currentColor" />
    <path
      d="M 19,0 A 10,10 0 0 0 9,10 10,10 0 0 0 19,20 10,10 0 0 0 29,10 10,10 0 0 0 19,0 Z m 0,1 A 9,9 0 0 1 28,10 9,9 0 0 1 19,19 9,9 0 0 1 10,10 9,9 0 0 1 19,1 Z"
      class="ColorScheme-ButtonText" fill="currentColor" opacity="0.2" />
  </g>
  <g id="vertical-slider-hover">
    <path
      d="M 39,0 C 33.477,0 29,4.477 29,10 29,15.523 33.477,20 39,20 44.523,20 49,15.523 49,10 49,4.477 44.523,0 39,0 Z m 0,1 c 4.971,0 9,4.029 9,9 0,4.971 -4.029,9 -9,9 -4.971,0 -9,-4.029 -9,-9 0,-4.971 4.029,-9 9,-9 z"
      class="ColorScheme-Highlight" fill="currentColor" />
  </g>
  <!-- MARK: Bookmark -->
  <g id="horizontal-slider-hover" transform="translate(24,2)">
    <path
      d="m 26,98 c -5.523,0 -10,4.477 -10,10 0,5.523 4.477,10 10,10 5.523,0 10,-4.477 10,-10 0,-5.523 -4.477,-10 -10,-10 z m 0,1 c 4.971,0 9,4.029 9,9 0,4.971 -4.029,9 -9,9 -4.971,0 -9,-4.029 -9,-9 0,-4.971 4.029,-9 9,-9 z"
      style="fill:currentColor" class="ColorScheme-Highlight" />
  </g>
  <g id="horizontal-slider-focus" transform="translate(52,2)">
    <path
      d="m 26,96 c -6.648,0 -12,5.352 -12,12 0,6.648 5.352,12 12,12 6.648,0 12,-5.352 12,-12 0,-6.648 -5.352,-12 -12,-12 z m 0,2.5 c 5.263,0 9.5,4.237 9.5,9.5 0,5.263 -4.237,9.5 -9.5,9.5 -5.263,0 -9.5,-4.237 -9.5,-9.5 0,-5.263 4.237,-9.5 9.5,-9.5 z"
      style="opacity:0.33;fill:currentColor" class="ColorScheme-Highlight" />
    <path
      d="m 26,98 c -5.523,0 -10,4.477 -10,10 0,5.523 4.477,10 10,10 5.523,0 10,-4.477 10,-10 0,-5.523 -4.477,-10 -10,-10 z m 0,1 c 4.971,0 9,4.029 9,9 0,4.971 -4.029,9 -9,9 -4.971,0 -9,-4.029 -9,-9 0,-4.971 4.029,-9 9,-9 z"
      style="fill:currentColor" class="ColorScheme-Highlight" />
  </g>
  <g id="horizontal-slider-handle" transform="matrix(1.2,0,0,1.2,-2.2,63.2)">
    <circle cx="16" cy="39" r="8.333" style="fill:currentColor;fill-rule:evenodd"
      class="ColorScheme-ButtonBackground" />
    <path
      d="M 17,100 A 10,10 0 0 0 7,110 10,10 0 0 0 17,120 10,10 0 0 0 27,110 10,10 0 0 0 17,100 Z m 0,1 a 9,9 0 0 1 9,9 9,9 0 0 1 -9,9 9,9 0 0 1 -9,-9 9,9 0 0 1 9,-9 z"
      style="opacity:0.2;fill:currentColor" class="ColorScheme-ButtonText"
      transform="matrix(0.833,0,0,0.833,1.833,-52.667)" />
  </g>
  <g id="vertical-slider-focus" transform="translate(52,-34)">
    <path
      d="m 78,62 c -6.648,0 -12,5.352 -12,12 0,6.648 5.352,12 12,12 6.648,0 12,-5.352 12,-12 0,-6.648 -5.352,-12 -12,-12 z m 0,2.5 c 5.263,0 9.5,4.237 9.5,9.5 0,5.263 -4.237,9.5 -9.5,9.5 -5.263,0 -9.5,-4.237 -9.5,-9.5 0,-5.263 4.237,-9.5 9.5,-9.5 z"
      style="opacity:0.33;fill:currentColor" class="ColorScheme-Highlight" transform="translate(-52,34)" />
    <path
      d="m 26,98 c -5.523,0 -10,4.477 -10,10 0,5.523 4.477,10 10,10 5.523,0 10,-4.477 10,-10 0,-5.523 -4.477,-10 -10,-10 z m 0,1 c 4.971,0 9,4.029 9,9 0,4.971 -4.029,9 -9,9 -4.971,0 -9,-4.029 -9,-9 0,-4.971 4.029,-9 9,-9 z"
      style="fill:currentColor" class="ColorScheme-Highlight" />
  </g>
  <g id="vertical-slider-shadow" transform="translate(0,-36)">
    <rect height="26" style="opacity:0.001;fill:#000000;fill-opacity:0.004" width="26" x="95" y="97" />
    <circle style="fill:url(#radialGradient1667);fill-opacity:1;fill-rule:evenodd" cx="108" cy="111.5" r="11.5" />
  </g>
  <circle id="hint-handle-size" cx="74.425" cy="27.941" r="10" style="fill:#000000;fill-opacity:1" />
  <g id="horizontal-slider-shadow">
    <rect height="26" style="opacity:0.001;fill:#000000;fill-opacity:0.004" width="26" x="95" y="97" />
    <circle style="fill:url(#radialGradient1675);fill-opacity:1;fill-rule:evenodd" cx="108" cy="111.5" r="11.5" />
  </g>
</svg>