<svg width="128" height="128" viewBox="0 0 30 30" version="1.1" xmlns:xlink="http://www.w3.org/1999/xlink"
  xmlns="http://www.w3.org/2000/svg" xmlns:svg="http://www.w3.org/2000/svg">
  <defs>
    <style id="current-color-scheme" type="text/css">
      .ColorScheme-Text {
        color: #232629;
        stop-color: #232629;
      }

      .ColorScheme-Background {
        color: #282a2d;
        stop-color: #282a2d;
      }

      .ColorScheme-ButtonHover {
        color: #95ccff;
      }

      .ColorScheme-Highlight {
        color: #95ccff;
        stop-color: #95ccff;
      }

      .ColorScheme-ButtonText {
        color: #95ccff;
        stop-color: #95ccff;
      }

      .ColorScheme-ButtonBackground {
        color: #333538;
        stop-color: #333538;
      }
    </style>
    <linearGradient id="shadow">
      <stop offset="0" stop-opacity="1" />
      <stop offset="0.739" style="stop-color:#000;stop-opacity:.2" />
      <stop offset="0.826" style="stop-color:#000;stop-opacity:.1" />
      <stop offset="0.87" style="stop-color:#000;stop-opacity:.05" />
      <stop offset="1" style="stop-color:#000;stop-opacity:0" />
    </linearGradient>
    <radialGradient xlink:href="#shadow" id="radialGradient1667" cx="108" cy="111.5" fx="108" fy="111.5" r="11.5"
      gradientUnits="userSpaceOnUse" />
    <radialGradient xlink:href="#shadow" id="radialGradient1675" cx="108" cy="111.5" fx="108" fy="111.5" r="11.5"
      gradientUnits="userSpaceOnUse" />
  </defs>
  <circle id="hint-tile-center" cx="1" cy="1" r="1" fill="#4e9a06" />
  <g>
    <g id="groove-topleft">
      <path d="M 3,0 a 3,3 0 0 0 -3,3 h 3 z" class="ColorScheme-Background" fill="currentColor" />
      <path d="M 3,0 a 3,3 0 0 0 -3,3 h 3 z" fill="#ffffff" opacity="0.05" />
    </g>
    <g id="groove-top">
      <rect width="3" height="3" x="3" y="0" class="ColorScheme-Background" fill="currentColor" />
      <rect width="3" height="3" x="3" y="0" fill="#ffffff" opacity="0.05" />
    </g>
    <g id="groove-topright">
      <path d="m 6,0 a 3,3 0 0 1 3,3 h -3 z" class="ColorScheme-Background" fill="currentColor" />
      <path d="m 6,0 a 3,3 0 0 1 3,3 h -3 z" fill="#ffffff" opacity="0.05" />
    </g>
    <g id="groove-left">
      <rect width="3" height="3" x="0" y="3" class="ColorScheme-Background" fill="currentColor" />
      <rect width="3" height="3" x="0" y="3" fill="#ffffff" opacity="0.05" />
    </g>
    <g id="groove-center">
      <rect width="3" height="3" x="3" y="3" class="ColorScheme-Background" fill="currentColor" />
      <rect width="3" height="3" x="3" y="3" fill="#ffffff" opacity="0.05" />
    </g>
    <g id="groove-right">
      <rect width="3" height="3" x="6" y="3" class="ColorScheme-Background" fill="currentColor" />
      <rect width="3" height="3" x="6" y="3" fill="#ffffff" opacity="0.05" />
    </g>
    <g id="groove-bottomleft">
      <path d="M 3,9 a 3,3 0 0 1 -3,-3 h 3 z" class="ColorScheme-Background" fill="currentColor" />
      <path d="M 3,9 a 3,3 0 0 1 -3,-3 h 3 z" fill="#ffffff" opacity="0.05" />
    </g>
    <g id="groove-bottom">
      <rect width="3" height="3" x="3" y="6" class="ColorScheme-Background" fill="currentColor" />
      <rect width="3" height="3" x="3" y="6" fill="#ffffff" opacity="0.05" />
    </g>
    <g id="groove-bottomright">
      <path d="m 6,9 a 3,3 0 0 0 3,-3 h -3 z" class="ColorScheme-Background" fill="currentColor" />
      <path d="m 6,9 a 3,3 0 0 0 3,-3 h -3 z" fill="#ffffff" opacity="0.05" />
    </g>
  </g>
  <g transform="translate(0,9)" class="ColorScheme-ButtonHover" fill="currentColor">
    <path id="groove-highlight-topleft" d="M 3,0 a 3,3 0 0 0 -3,3 h 3 z" />
    <rect id="groove-highlight-top" width="3" height="3" x="3" y="0" />
    <path id="groove-highlight-topright" d="m 6,0 a 3,3 0 0 1 3,3 h -3 z" />
    <rect id="groove-highlight-left" width="3" height="3" x="0" y="3" />
    <rect id="groove-highlight-center" width="3" height="3" x="3" y="3" />
    <rect id="groove-highlight-right" width="3" height="3" x="6" y="3" />
    <path id="groove-highlight-bottomleft" d="M 3,9 a 3,3 0 0 1 -3,-3 h 3 z" />
    <rect id="groove-highlight-bottom" width="3" height="3" x="3" y="6" />
    <path id="groove-highlight-bottomright" d="m 6,9 a 3,3 0 0 0 3,-3 h -3 z" />
  </g>
  <g id="vertical-slider-handle">
    <circle cx="19" cy="10" r="10" class="ColorScheme-ButtonBackground" fill="currentColor" />
    <path
      d="M 19,0 A 10,10 0 0 0 9,10 10,10 0 0 0 19,20 10,10 0 0 0 29,10 10,10 0 0 0 19,0 Z m 0,1 A 9,9 0 0 1 28,10 9,9 0 0 1 19,19 9,9 0 0 1 10,10 9,9 0 0 1 19,1 Z"
      class="ColorScheme-ButtonText" fill="currentColor" opacity="0.2" />
  </g>
  <g id="vertical-slider-hover">
    <path
      d="M 39,0 C 33.477,0 29,4.477 29,10 29,15.523 33.477,20 39,20 44.523,20 49,15.523 49,10 49,4.477 44.523,0 39,0 Z m 0,1 c 4.971,0 9,4.029 9,9 0,4.971 -4.029,9 -9,9 -4.971,0 -9,-4.029 -9,-9 0,-4.971 4.029,-9 9,-9 z"
      class="ColorScheme-Highlight" fill="currentColor" />
  </g>
  <!-- MARK: Bookmark -->
  <g id="horizontal-slider-hover" transform="translate(24,2)">
    <path
      d="m 26,98 c -5.523,0 -10,4.477 -10,10 0,5.523 4.477,10 10,10 5.523,0 10,-4.477 10,-10 0,-5.523 -4.477,-10 -10,-10 z m 0,1 c 4.971,0 9,4.029 9,9 0,4.971 -4.029,9 -9,9 -4.971,0 -9,-4.029 -9,-9 0,-4.971 4.029,-9 9,-9 z"
      style="fill:currentColor" class="ColorScheme-Highlight" />
  </g>
  <g id="horizontal-slider-focus" transform="translate(52,2)">
    <path
      d="m 26,96 c -6.648,0 -12,5.352 -12,12 0,6.648 5.352,12 12,12 6.648,0 12,-5.352 12,-12 0,-6.648 -5.352,-12 -12,-12 z m 0,2.5 c 5.263,0 9.5,4.237 9.5,9.5 0,5.263 -4.237,9.5 -9.5,9.5 -5.263,0 -9.5,-4.237 -9.5,-9.5 0,-5.263 4.237,-9.5 9.5,-9.5 z"
      style="opacity:0.33;fill:currentColor" class="ColorScheme-Highlight" />
    <path
      d="m 26,98 c -5.523,0 -10,4.477 -10,10 0,5.523 4.477,10 10,10 5.523,0 10,-4.477 10,-10 0,-5.523 -4.477,-10 -10,-10 z m 0,1 c 4.971,0 9,4.029 9,9 0,4.971 -4.029,9 -9,9 -4.971,0 -9,-4.029 -9,-9 0,-4.971 4.029,-9 9,-9 z"
      style="fill:currentColor" class="ColorScheme-Highlight" />
  </g>
  <g id="horizontal-slider-handle" transform="matrix(1.2,0,0,1.2,-2.2,63.2)">
    <circle cx="16" cy="39" r="8.333" style="fill:currentColor;fill-rule:evenodd"
      class="ColorScheme-ButtonBackground" />
    <path
      d="M 17,100 A 10,10 0 0 0 7,110 10,10 0 0 0 17,120 10,10 0 0 0 27,110 10,10 0 0 0 17,100 Z m 0,1 a 9,9 0 0 1 9,9 9,9 0 0 1 -9,9 9,9 0 0 1 -9,-9 9,9 0 0 1 9,-9 z"
      style="opacity:0.2;fill:currentColor" class="ColorScheme-ButtonText"
      transform="matrix(0.833,0,0,0.833,1.833,-52.667)" />
  </g>
  <g id="vertical-slider-focus" transform="translate(52,-34)">
    <path
      d="m 78,62 c -6.648,0 -12,5.352 -12,12 0,6.648 5.352,12 12,12 6.648,0 12,-5.352 12,-12 0,-6.648 -5.352,-12 -12,-12 z m 0,2.5 c 5.263,0 9.5,4.237 9.5,9.5 0,5.263 -4.237,9.5 -9.5,9.5 -5.263,0 -9.5,-4.237 -9.5,-9.5 0,-5.263 4.237,-9.5 9.5,-9.5 z"
      style="opacity:0.33;fill:currentColor" class="ColorScheme-Highlight" transform="translate(-52,34)" />
    <path
      d="m 26,98 c -5.523,0 -10,4.477 -10,10 0,5.523 4.477,10 10,10 5.523,0 10,-4.477 10,-10 0,-5.523 -4.477,-10 -10,-10 z m 0,1 c 4.971,0 9,4.029 9,9 0,4.971 -4.029,9 -9,9 -4.971,0 -9,-4.029 -9,-9 0,-4.971 4.029,-9 9,-9 z"
      style="fill:currentColor" class="ColorScheme-Highlight" />
  </g>
  <g id="vertical-slider-shadow" transform="translate(0,-36)">
    <rect height="26" style="opacity:0.001;fill:#000000;fill-opacity:0.004" width="26" x="95" y="97" />
    <circle style="fill:url(#radialGradient1667);fill-opacity:1;fill-rule:evenodd" cx="108" cy="111.5" r="11.5" />
  </g>
  <circle id="hint-handle-size" cx="74.425" cy="27.941" r="10" style="fill:#000000;fill-opacity:1" />
  <g id="horizontal-slider-shadow">
    <rect height="26" style="opacity:0.001;fill:#000000;fill-opacity:0.004" width="26" x="95" y="97" />
    <circle style="fill:url(#radialGradient1675);fill-opacity:1;fill-rule:evenodd" cx="108" cy="111.5" r="11.5" />
  </g>
</svg>