<svg version="1.1" viewBox="0 0 64 64" width="64" height="64" xmlns="http://www.w3.org/2000/svg" xmlns:svg="http://www.w3.org/2000/svg">
  <defs>
    <style id="current-color-scheme" type="text/css">
      .ColorScheme-Text {
        color: #232629;
        stop-color: #232629;
      }

      .ColorScheme-Background {
        color: #eff0f1;
        stop-color: #eff0f1;
      }

      .ColorScheme-Highlight {
        color: #3daee9;
        stop-color: #3daee9;
      }

      .ColorScheme-ButtonText {
        color: #232629;
        stop-color: #232629;
      }

      .ColorScheme-ButtonBackground {
        color: #eff0f1;
        stop-color: #eff0f1;
      }
    </style>
  </defs>
  <rect id="hint-bar-size" width="52" height="32" x="0" y="0" fill="#808080"/>
  <g id="inactive-left">
    <path d="M 16,0 A 16,16 0 0 0 0,16 16,16 0 0 0 16,32 Z" fill="#333538"/>
    <path d="M 16,0 A 16,16 0 0 0 0,16 16,16 0 0 0 16,32 V 30 A 14,14 0 0 1 2,16 14,14 0 0 1 16,2 Z" fill="#8c9198"/>
  </g>
  <g id="inactive-center">
    <rect x="16" y="0" width="20" height="32" fill="#333538"/>
    <rect x="16" y="0" width="20" height="2" fill="#8c9198"/>
    <rect x="16" y="30" width="20" height="2" fill="#8c9198"/>
  </g>
  <g id="inactive-right">
    <path id="active-right" d="M 36,0 A 16,16 0 0 1 52,16 16,16 0 0 1 36,32 Z" fill="#333538"/>
    <path d="M 36,0 A 16,16 0 0 1 52,16 16,16 0 0 1 36,32 V 30 A 14,14 0 0 0 50,16 14,14 0 0 0 36,2 Z" fill="#8c9198"/>
  </g>
  <path id="active-left" d="M 16,32 A 16,16 0 0 0 0,48 16,16 0 0 0 16,64 Z" fill="#95ccff"/>
  <rect id="active-center" x="16" y="32" width="20" height="32" fill="#95ccff"/>
  <path d="M 36,32 A 16,16 0 0 1 52,48 16,16 0 0 1 36,64 Z" fill="#95ccff"/>
  <g id="handle" transform="translate(0,2)">
    <rect x="0" y="0" width="28" height="28" fill="none"/>
    <circle cx="14" cy="14" r="8" fill="#8c9198"/>
  </g>
  <g id="handle-hover" transform="translate(22,34)">
    <rect x="0" y="0" width="28" height="28" fill="none"/>
    <circle cx="14" cy="14" r="12" fill="#003353"/>
  </g>
  <g id="handle-pressed" transform="translate(22,34)">
    <rect x="0" y="0" width="28" height="28" fill="none"/>
    <circle cx="14" cy="14" r="14" fill="#003353"/>
  </g>
  <g id="handle-focus">
    <rect x="0" y="0" width="32" height="32" fill="none"/>
    <circle cx="16" cy="16" r="16" fill="#95ccff" opacity="0.08"/>
  </g>
  <rect id="handle-shadow" x="0" y="0" width="32" height="32" fill="none"/>
  <circle id="hint-stretch-borders" cx="1" cy="1" r="1" fill="#ff2a2a"/>
</svg>