<svg id="svg2" version="1.1" viewBox="0 0 51 59" width="51" height="59" xmlns:xlink="http://www.w3.org/1999/xlink"
  xmlns="http://www.w3.org/2000/svg" xmlns:svg="http://www.w3.org/2000/svg">
  <defs>
    <style id="current-color-scheme" type="text/css">
      .ColorScheme-Text {
        color: #232629;
        stop-color: #232629;
      }

      .ColorScheme-Background {
        color: #eff0f1;
        stop-color: #eff0f1;
      }

      .ColorScheme-Highlight {
        color: #3daee9;
        stop-color: #3daee9;
      }

      .ColorScheme-ButtonText {
        color: #232629;
        stop-color: #232629;
      }

      .ColorScheme-ButtonBackground {
        color: #eff0f1;
        stop-color: #eff0f1;
      }
    </style>
    <radialGradient xlink:href="#shadow" id="radialGradient1675" cx="108" cy="111.5" fx="108" fy="111.5" r="11.5"
      gradientUnits="userSpaceOnUse" />
    <linearGradient id="shadow">
      <stop offset="0" style="stop-color:#000;stop-opacity:1" />
      <stop offset="0.739" style="stop-color:#000;stop-opacity:.2" />
      <stop offset="0.826" style="stop-color:#000;stop-opacity:.1" />
      <stop offset="0.87" style="stop-color:#000;stop-opacity:.05" />
      <stop offset="1" style="stop-color:#000;stop-opacity:0" />
    </linearGradient>
  </defs>
  <rect id="hint-bar-size" width="38" height="16" x="0" y="0" fill="#808080" />
  <g id="inactive-left">
    <path d="M -0,8 C -0,3.535 3.523,-0 8,-0 V 8" class="ColorScheme-ButtonText" fill="currentColor"
      fill-opacity="0.09" />
    <path d="M -0,8 C -0,3.535 3.523,-0 8,-0 V 0.533 c -4.134,0 -7.467,3.308 -7.467,7.467"
      class="ColorScheme-ButtonText" fill="currentColor" opacity="0.24" />
    <path d="M -0,8 C -0,12.465 3.523,16 8,16 V 8" class="ColorScheme-ButtonText" fill="currentColor" opacity="0.09" />
    <path d="M -0,8 C -0,12.465 3.523,16 8,16 v -0.533 c -4.134,0 -7.467,-3.308 -7.467,-7.467"
      class="ColorScheme-ButtonText" fill="currentColor" opacity="0.24" />
  </g>
  <g id="inactive-center">
    <path d="m 8,0 h 5 V 7.995 H 8 Z" class="ColorScheme-ButtonText" fill="currentColor" opacity="0.09" />
    <path d="m 8,0.533 h 5 V 0 H 8 Z" class="ColorScheme-ButtonText" fill="currentColor" opacity="0.24" />
    <path d="m 8,16.02 h 5 V 8.025 H 8 Z" class="ColorScheme-ButtonText" fill="currentColor" opacity="0.09" />
    <path d="m 8,15.487 h 5 V 16.02 H 8 Z" class="ColorScheme-ButtonText" fill="currentColor" opacity="0.24" />
  </g>
  <g id="inactive-right">
    <path d="m 13,0 c 4.462,0 7.995,3.521 7.995,7.995 H 13" class="ColorScheme-ButtonText" fill="currentColor"
      opacity="0.09" />
    <path d="m 13,0 c 4.462,0 7.995,3.521 7.995,7.995 H 20.462 C 20.462,3.864 17.156,0.533 13,0.533"
      class="ColorScheme-ButtonText" fill="currentColor" opacity="0.24" />
    <path d="m 13,16.02 c 4.462,0 7.995,-3.521 7.995,-7.995 H 13" class="ColorScheme-ButtonText" fill="currentColor"
      opacity="0.09" />
    <path d="m 13,16.02 c 4.462,0 7.995,-3.521 7.995,-7.995 h -0.533 c 0,4.131 -3.306,7.462 -7.462,7.462"
      class="ColorScheme-ButtonText" fill="currentColor" opacity="0.24" />
  </g>
  <g id="active-left">
    <path d="M 20.995,7.995 C 20.995,3.533 24.516,0 28.99,0 v 7.995" class="ColorScheme-ButtonBackground"
      fill="currentColor" />
    <path d="M 20.995,7.995 C 20.995,3.533 24.516,0 28.99,0 v 7.995" class="ColorScheme-Highlight" fill="currentColor"
      opacity="0.5" />
    <path d="M 20.995,7.995 C 20.995,3.533 24.516,0 28.99,0 v 0.533 c -4.131,0 -7.462,3.306 -7.462,7.462"
      class="ColorScheme-Highlight" fill="currentColor" />
    <path d="m 20.995,8.015 c 0,4.462 3.521,7.995 7.995,7.995 V 8.015" class="ColorScheme-ButtonBackground"
      fill="currentColor" />
    <path d="m 20.995,8.015 c 0,4.462 3.521,7.995 7.995,7.995 V 8.015" class="ColorScheme-Highlight" fill="currentColor"
      opacity="0.5" />
    <path d="m 20.995,8.015 c 0,4.462 3.521,7.995 7.995,7.995 v -0.533 c -4.131,0 -7.462,-3.306 -7.462,-7.462"
      class="ColorScheme-Highlight" fill="currentColor" />
  </g>
  <g id="active-center">
    <path d="m 28.99,0 h 5 v 7.995 h -5 z" class="ColorScheme-ButtonBackground" fill="currentColor" />
    <path d="m 28.99,0 h 5 v 7.995 h -5 z" class="ColorScheme-Highlight" fill="currentColor" opacity="0.5" />
    <path d="m 28.99,0.533 h 5 V 0 h -5 z" class="ColorScheme-Highlight" fill="currentColor" />
    <path d="m 28.99,16.01 h 5 V 8.015 h -5 z" class="ColorScheme-ButtonBackground" fill="currentColor" />
    <path d="m 28.99,16.01 h 5 V 8.015 h -5 z" class="ColorScheme-Highlight" fill="currentColor" opacity="0.5" />
    <path d="m 28.99,15.477 h 5 v 0.533 h -5 z" class="ColorScheme-Highlight" fill="currentColor" />
  </g>
  <g id="active-right">
    <path d="m 33.99,0 c 4.462,0 7.995,3.521 7.995,7.995 H 33.99" class="ColorScheme-ButtonBackground"
      fill="currentColor" />
    <path d="m 33.99,0 c 4.462,0 7.995,3.521 7.995,7.995 H 33.99" class="ColorScheme-Highlight" fill="currentColor"
      opacity="0.5" />
    <path d="m 33.99,0 c 4.462,0 7.995,3.521 7.995,7.995 h -0.533 c 0,-4.131 -3.306,-7.462 -7.462,-7.462"
      class="ColorScheme-Highlight" fill="currentColor" />
    <path d="m 33.99,16.01 c 4.462,0 7.995,-3.521 7.995,-7.995 H 33.99" class="ColorScheme-ButtonBackground"
      fill="currentColor" />
    <path d="m 33.99,16.01 c 4.462,0 7.995,-3.521 7.995,-7.995 H 33.99" class="ColorScheme-Highlight"
      fill="currentColor" opacity="0.5" />
    <path d="m 33.99,16.01 c 4.462,0 7.995,-3.521 7.995,-7.995 h -0.533 c 0,4.131 -3.306,7.462 -7.462,7.462"
      class="ColorScheme-Highlight" fill="currentColor" />
  </g>
  <!-- MARK: Break -->
  <g id="handle" transform="translate(-66,21)">
    <path d="M 67,15 H 89 V 37 H 67 Z" fill="none" />
    <rect class="ColorScheme-ButtonBackground" x="67" y="15" width="22" height="22" rx="11" fill="currentColor" />
    <path
      d="m 78,15 c -6.094,0 -11,4.906 -11,11 0,6.094 4.906,11 11,11 6.094,0 11,-4.906 11,-11 0,-6.094 -4.906,-11 -11,-11 z m 0,1 c 5.54,0 10,4.46 10,10 0,5.54 -4.46,10 -10,10 -5.54,0 -10,-4.46 -10,-10 0,-5.54 4.46,-10 10,-10 z"
      class="ColorScheme-ButtonText" fill="currentColor" fill-rule="evenodd" opacity="0.3" style="opacity:0.2" />
  </g>
  <g transform="translate(-30,-11)" id="handle-focus">
    <path
      d="m 95,19 c -7,0 -13,6 -13,13 0,7 6,13 13,13 7,0 13,-6 13,-13 0,-7 -6,-13 -13,-13 z m 0,2 c 6,0 11,5 11,11 0,6 -5,11 -11,11 -6,0 -11,-5 -11,-11 0,-6 5,-11 11,-11 z"
      style="color:#3daee9;opacity:0.33;fill:currentColor;stop-color:#3daee9" class="ColorScheme-Highlight" />
  </g>
  <g id="handle-shadow" transform="matrix(1.077,0,0,1.077,-31.923,-71.077)">
    <rect height="26" style="opacity:0.001;fill:#000000;fill-opacity:0.004" width="26" x="95" y="97" />
    <circle style="fill:url(#radialGradient1675);fill-opacity:1;fill-rule:evenodd" cx="108" cy="111.5" r="11.5" />
  </g>
  <g id="handle-hover" transform="translate(-38,-44)">
    <path d="m 62,80 h 22 v 22 H 62 Z" fill="none" opacity="0.02" />
    <rect class="ColorScheme-ButtonFocus" x="62" y="80" width="22" height="22" rx="11" fill="currentColor"
      fill-rule="evenodd" />
    <rect class="ColorScheme-ButtonBackground" x="63" y="81" width="20" height="20" rx="10" fill="currentColor"
      fill-rule="evenodd" />
  </g>
  <g id="handle-pressed" transform="translate(-15,-44)">
    <path d="m 62,80 h 22 v 22 H 62 Z" fill="none" opacity="0.02" />
    <rect class="ColorScheme-ButtonFocus" x="62" y="80" width="22" height="22" rx="11" fill="currentColor"
      fill-rule="evenodd" />
    <rect class="ColorScheme-ButtonBackground" x="63" y="81" width="20" height="20" rx="10" fill="currentColor"
      fill-rule="evenodd" />
  </g>
  <circle id="hint-stretch-borders" cx="1" cy="1" r="1" width="4" height="4" fill="#ff2a2a" />
</svg>