<svg width="138" height="138" version="1.1" xmlns="http://www.w3.org/2000/svg" xmlns:svg="http://www.w3.org/2000/svg">
  <sodipodi:namedview pagecolor="#ffffff" bordercolor="#666666" borderopacity="1.0" />
  <defs>
    <style id="current-color-scheme" type="text/css">
      .ColorScheme-Text {
        color: #31363b;
      }

      .ColorScheme-Background {
        color: #eff0f1;
      }

      .ColorScheme-ViewText {
        color: #31363b;
      }

      .ColorScheme-ViewBackground {
        color: #fcfcfc;
      }

      .ColorScheme-ViewHover {
        color: #3daee9;
      }

      .ColorScheme-ViewFocus {
        color: #3daee9;
      }

      .ColorScheme-ButtonText {
        color: #31363b;
      }

      .ColorScheme-ButtonBackground {
        color: #eff0f1;
      }

      .ColorScheme-ButtonHover {
        color: #3daee9;
      }

      .ColorScheme-ButtonFocus {
        color: #3daee9;
      }
    </style>
  </defs>
  <rect id="north-active-tab-topleft" width="10" height="4" x="19" y="0" fill="#e4e6e8" opacity="0.01" />
  <rect id="north-active-tab-top" width="80" height="4" x="29" y="0" fill="#e4e6e8" opacity="0.01" />
  <rect id="north-active-tab-topright" width="10" height="4" x="109" y="0" fill="#e4e6e8" opacity="0.01" />
  <rect id="north-active-tab-left" width="10" height="12" x="19" y="4" fill="#e4e6e8" opacity="0.01" />
  <rect id="north-active-tab-center" width="80" height="12" x="29" y="4" fill="#e4e6e8" opacity="0.01" />
  <rect id="north-active-tab-right" width="10" height="12" x="109" y="4" fill="#e4e6e8" opacity="0.01" />
  <g id="north-active-tab-bottomleft">
    <rect width="10" height="3" x="19" y="16" fill="#e4e6e8" opacity="0.01" />
    <rect width="7" height="3" x="22" y="16" class="ColorScheme-ButtonFocus" fill="currentColor" />
  </g>
  <rect id="north-active-tab-bottom" width="80" height="3" x="29" y="16" class="ColorScheme-ButtonFocus"
    fill="currentColor" />
  <g id="north-active-tab-bottomright">
    <rect width="10" height="3" x="109" y="16" fill="#e4e6e8" opacity="0.01" />
    <rect width="7" height="3" x="109" y="16" class="ColorScheme-ButtonFocus" fill="currentColor" />
  </g>
  <rect id="north-active-tab-hint-top-margin" width="5" height="10" x="64" y="0" fill="#4e9a06" />
  <rect id="north-active-tab-hint-left-margin" width="6" height="5" x="19" y="7.5" fill="#4e9a06" />
  <rect id="north-active-tab-hint-right-margin" width="6" height="5" x="113" y="7.5" fill="#4e9a06" />
  <rect id="north-active-tab-hint-bottom-margin" width="5" height="10" x="69" y="9" fill="#4e9a06" />
  <rect id="west-active-tab-topleft" width="4" height="10" fill="#e4e6e8" opacity="0.01" x="0" y="19" />
  <rect id="west-active-tab-top" width="12" height="10" x="4" fill="#e4e6e8" opacity="0.01" y="19" />
  <g id="west-active-tab-topright">
    <rect width="3" height="10" x="16" y="19" fill="#e4e6e8" opacity="0.01" />
    <rect width="3" height="7" x="16" y="22" class="ColorScheme-ButtonFocus" fill="currentColor" />
  </g>
  <rect id="west-active-tab-left" width="4" height="80" y="29" fill="#e4e6e8" opacity="0.01" x="0" />
  <rect id="west-active-tab-center" width="12" height="80" x="4" y="29" fill="#e4e6e8" opacity="0.01" />
  <rect id="west-active-tab-right" width="3" height="80" x="16" y="29" class="ColorScheme-ButtonFocus"
    fill="currentColor" />
  <rect id="west-active-tab-bottomleft" width="4" height="10" x="0" y="109" fill="#e4e6e8" opacity="0.01" />
  <rect id="west-active-tab-bottom" width="12" height="10" x="4" y="109" fill="#e4e6e8" opacity="0.01" />
  <g id="west-active-tab-bottomright">
    <rect width="3" height="10" x="16" y="109" fill="#e4e6e8" opacity="0.01" />
    <rect width="3" height="7" x="16" y="109" class="ColorScheme-ButtonFocus" fill="currentColor" />
  </g>
  <rect id="west-active-tab-hint-top-margin" width="5" height="6" x="7.5" y="19" fill="#4e9a06" />
  <rect id="west-active-tab-hint-left-margin" width="4" height="5" x="0" y="66.5" fill="#4e9a06" />
  <rect id="west-active-tab-hint-right-margin" width="8" height="5" x="11" y="66.5" fill="#4e9a06" />
  <rect id="west-active-tab-hint-bottom-margin" width="5" height="6" x="7.5" y="113" fill="#4e9a06" />
  <g id="east-active-tab-topleft">
    <rect width="3" height="10" x="119" y="19" fill="#e4e6e8" opacity="0.01" />
    <rect width="3" height="7" x="119" y="22" class="ColorScheme-ButtonFocus" fill="currentColor" />
  </g>
  <rect id="east-active-tab-top" width="12" height="10" x="122" y="19" fill="#e4e6e8" opacity="0.01" />
  <rect id="east-active-tab-topright" width="4" height="10" x="134" y="19" fill="#e4e6e8" opacity="0.01" />
  <rect id="east-active-tab-left" width="3" height="80" x="119" y="29" class="ColorScheme-ButtonFocus"
    fill="currentColor" />
  <rect id="east-active-tab-center" width="12" height="80" x="122" y="29" fill="#e4e6e8" opacity="0.01" />
  <rect id="east-active-tab-right" width="4" height="80" x="134" y="29" fill="#e4e6e8" opacity="0.01" />
  <g id="east-active-tab-bottomleft">
    <rect width="3" height="10" x="119" y="109" fill="#e4e6e8" opacity="0.01" />
    <rect width="3" height="7" x="119" y="109" class="ColorScheme-ButtonFocus" fill="currentColor" />
  </g>
  <rect id="east-active-tab-bottom" width="12" height="10" x="122" y="109" fill="#e4e6e8" opacity="0.01" />
  <rect id="east-active-tab-bottomright" width="4" height="10" x="134" y="109" fill="#e4e6e8" opacity="0.01" />
  <rect id="east-active-tab-hint-top-margin" width="5" height="6" x="125.5" y="19" fill="#4e9a06" />
  <rect id="east-active-tab-hint-left-margin" width="8" height="5" x="119" y="66.5" fill="#4e9a06" />
  <rect id="east-active-tab-hint-right-margin" width="4" height="5" x="134" y="66.5" fill="#4e9a06" />
  <rect id="east-active-tab-hint-bottom-margin" width="5" height="6" x="125.5" y="113" fill="#4e9a06" />
  <!-- MARK: Bookmark -->
  <g id="south-active-tab-topleft">
    <rect width="10" height="3" x="19" y="119" fill="#e4e6e8" opacity="0.01" />
    <rect width="7" height="3" x="22" y="119" class="ColorScheme-ButtonFocus" fill="currentColor" />
  </g>
  <rect id="south-active-tab-top" width="80" height="3" x="29" y="119" class="ColorScheme-ButtonFocus"
    fill="currentColor" />
  <g id="south-active-tab-topright">
    <rect width="10" height="3" x="109" y="119" fill="#e4e6e8" opacity="0.01" />
    <rect width="7" height="3" x="109" y="119" class="ColorScheme-ButtonFocus" fill="currentColor" />
  </g>
  <rect id="south-active-tab-left" width="10" height="12" x="19" y="122" fill="#e4e6e8" opacity="0.01" />
  <rect id="south-active-tab-center" width="80" height="12" x="29" y="122" fill="#e4e6e8" opacity="0.01" />
  <rect id="south-active-tab-right" width="10" height="12" x="109" y="122" fill="#e4e6e8" opacity="0.01" />
  <rect id="south-active-tab-bottomleft" width="10" height="4" x="19" y="134" fill="#e4e6e8" opacity="0.01" />
  <rect id="south-active-tab-bottom" width="80" height="4" x="29" y="134" fill="#e4e6e8" opacity="0.01" />
  <rect id="south-active-tab-bottomright" width="10" height="4" x="109" y="134" fill="#e4e6e8" opacity="0.01" />
  <rect id="south-active-tab-hint-top-margin" width="5" height="10" x="64" y="119" fill="#4e9a06" />
  <rect id="south-active-tab-hint-left-margin" width="6" height="5" x="19" y="125.143" fill="#4e9a06" />
  <rect id="south-active-tab-hint-right-margin" width="6" height="5" x="113" y="125.5" fill="#4e9a06" />
  <rect id="south-active-tab-hint-bottom-margin" width="5" height="10" x="69" y="128" fill="#4e9a06" />
  <rect id="hint-tile-center" width="5" height="5" x="0" y="0" fill="#008000" opacity="0.875" />
</svg>