<svg width="48" height="48" version="1.1" xmlns="http://www.w3.org/2000/svg" xmlns:svg="http://www.w3.org/2000/svg">
  <defs>
    <style id="current-color-scheme" type="text/css">
      .ColorScheme-ButtonHover {
        color: #95ccff;
      }
    </style>
  </defs>
  <rect id="north-active-tab-topleft" width="2" height="2" x="0" y="0" fill="none" />
  <rect id="north-active-tab-top" width="20" height="2" x="2" y="0" fill="none" />
  <rect id="north-active-tab-topright" width="2" height="2" x="22" y="0" fill="none" />
  <rect id="north-active-tab-left" width="2" height="20" x="0" y="2" fill="none" />
  <rect id="north-active-tab-center" width="20" height="20" x="2" y="2" fill="none" />
  <rect id="north-active-tab-right" width="2" height="20" x="22" y="2" fill="none" />
  <rect id="north-active-tab-bottomleft" width="2" height="2" x="0" y="22" class="ColorScheme-ButtonHover"
    fill="currentColor" />
  <rect id="north-active-tab-bottom" width="20" height="2" x="2" y="22" class="ColorScheme-ButtonHover"
    fill="currentColor" />
  <rect id="north-active-tab-bottomright" width="2" height="2" x="22" y="22" class="ColorScheme-ButtonHover"
    fill="currentColor" />
  <rect id="north-active-tab-hint-top-margin" width="2" height="6" x="11" y="0" fill="#4e9a06" />
  <rect id="north-active-tab-hint-left-margin" width="6" height="2" x="0" y="11" fill="#4e9a06" />
  <rect id="north-active-tab-hint-right-margin" width="6" height="2" x="18" y="11" fill="#4e9a06" />
  <rect id="north-active-tab-hint-bottom-margin" width="2" height="6" x="11" y="18" fill="#4e9a06" />
  <rect id="west-active-tab-topleft" width="2" height="2" x="24" y="0" fill="none" />
  <rect id="west-active-tab-top" width="20" height="2" x="26" y="0" fill="none" />
  <rect id="west-active-tab-topright" width="2" height="2" x="46" y="0" class="ColorScheme-ButtonHover"
    fill="currentColor" />
  <rect id="west-active-tab-left" width="2" height="20" x="24" y="2" fill="none" />
  <rect id="west-active-tab-center" width="20" height="20" x="26" y="2" fill="none" />
  <rect id="west-active-tab-right" width="2" height="20" x="46" y="2" class="ColorScheme-ButtonHover"
    fill="currentColor" />
  <rect id="west-active-tab-bottomleft" width="2" height="2" x="24" y="22" fill="none" />
  <rect id="west-active-tab-bottom" width="20" height="2" x="26" y="22" fill="none" />
  <rect id="west-active-tab-bottomright" width="2" height="2" x="46" y="22" class="ColorScheme-ButtonHover"
    fill="currentColor" />
  <rect id="west-active-tab-hint-top-margin" width="2" height="6" x="35" y="0" fill="#4e9a06" />
  <rect id="west-active-tab-hint-left-margin" width="6" height="2" x="24" y="11" fill="#4e9a06" />
  <rect id="west-active-tab-hint-right-margin" width="6" height="2" x="42" y="11" fill="#4e9a06" />
  <rect id="west-active-tab-hint-bottom-margin" width="2" height="6" x="35" y="18" fill="#4e9a06" />
  <rect id="east-active-tab-topleft" width="2" height="2" x="0" y="24" class="ColorScheme-ButtonHover"
    fill="currentColor" />
  <rect id="east-active-tab-top" width="20" height="2" x="2" y="24" fill="none" />
  <rect id="east-active-tab-topright" width="2" height="2" x="22" y="24" fill="none" />
  <rect id="east-active-tab-left" width="2" height="20" x="0" y="26" class="ColorScheme-ButtonHover"
    fill="currentColor" />
  <rect id="east-active-tab-center" width="20" height="20" x="2" y="26" fill="none" />
  <rect id="east-active-tab-right" width="2" height="20" x="22" y="26" fill="none" />
  <rect id="east-active-tab-bottomleft" width="2" height="2" x="0" y="46" class="ColorScheme-ButtonHover"
    fill="currentColor" />
  <rect id="east-active-tab-bottom" width="20" height="2" x="2" y="46" fill="none" />
  <rect id="east-active-tab-bottomright" width="2" height="2" x="22" y="46" fill="none" />
  <rect id="east-active-tab-hint-top-margin" width="2" height="6" x="11" y="24" fill="#4e9a06" />
  <rect id="east-active-tab-hint-left-margin" width="6" height="2" x="0" y="35" fill="#4e9a06" />
  <rect id="east-active-tab-hint-right-margin" width="6" height="2" x="18" y="35" fill="#4e9a06" />
  <rect id="east-active-tab-hint-bottom-margin" width="2" height="6" x="11" y="42" fill="#4e9a06" />
  <rect id="south-active-tab-topleft" width="2" height="2" x="24" y="24" class="ColorScheme-ButtonHover"
    fill="currentColor" />
  <rect id="south-active-tab-top" width="20" height="2" x="26" y="24" class="ColorScheme-ButtonHover"
    fill="currentColor" />
  <rect id="south-active-tab-topright" width="2" height="2" x="46" y="24" class="ColorScheme-ButtonHover"
    fill="currentColor" />
  <rect id="south-active-tab-left" width="2" height="20" x="24" y="26" fill="none" />
  <rect id="south-active-tab-center" width="20" height="20" x="26" y="26" fill="none" />
  <rect id="south-active-tab-right" width="2" height="20" x="46" y="26" fill="none" />
  <rect id="south-active-tab-bottomleft" width="2" height="2" x="24" y="46" fill="none" />
  <rect id="south-active-tab-bottom" width="20" height="2" x="26" y="46" fill="none" />
  <rect id="south-active-tab-bottomright" width="2" height="2" x="46" y="46" fill="none" />
  <rect id="south-active-tab-hint-top-margin" width="2" height="6" x="35" y="24" fill="#4e9a06" />
  <rect id="south-active-tab-hint-left-margin" width="6" height="2" x="24" y="35" fill="#4e9a06" />
  <rect id="south-active-tab-hint-right-margin" width="6" height="2" x="42" y="35" fill="#4e9a06" />
  <rect id="south-active-tab-hint-bottom-margin" width="2" height="6" x="35" y="42" fill="#4e9a06" />
</svg>