<svg width="606.824" height="261" version="1.1" xmlns="http://www.w3.org/2000/svg"
  xmlns:svg="http://www.w3.org/2000/svg">
  <defs>
    <style id="current-color-scheme" type="text/css">
      .ColorScheme-Text {
        color: #31363b;
      }

      .ColorScheme-Background {
        color: #eff0f1;
      }

      .ColorScheme-ViewText {
        color: #31363b;
      }

      .ColorScheme-ViewBackground {
        color: #fcfcfc;
      }

      .ColorScheme-ViewHover {
        color: #3daee9;
      }

      .ColorScheme-ViewFocus {
        color: #3daee9;
      }

      .ColorScheme-ButtonText {
        color: #31363b;
      }

      .ColorScheme-ButtonBackground {
        color: #eff0f1;
      }

      .ColorScheme-ButtonHover {
        color: #3daee9;
      }

      .ColorScheme-ButtonFocus {
        color: #3daee9;
      }
    </style>
  </defs>
  <rect id="hint-tile-center" width="5" height="5" x="0" y="256" fill="#008000" opacity="0.875" />
  <g id="south-active-tab-topleft" transform="translate(150)">
    <rect width="10" height="3" fill="#e4e6e8" opacity="0.01" x="0" y="0" />
    <rect width="7" height="3" x="3" class="ColorScheme-ButtonFocus" fill="currentColor" y="0" />
  </g>
  <g id="south-active-tab-top" transform="translate(150)">
    <rect width="80" height="3" x="10" class="ColorScheme-ButtonFocus" fill="currentColor" y="0" />
  </g>
  <g id="south-active-tab-topright" transform="translate(150)">
    <rect width="10" height="3" x="90" fill="#e4e6e8" opacity="0.01" y="0" />
    <rect width="7" height="3" x="90" class="ColorScheme-ButtonFocus" fill="currentColor" y="0" />
  </g>
  <rect id="south-active-tab-left" width="10" height="12" x="150" y="3" fill="#e4e6e8" opacity="0.01" />
  <rect id="south-active-tab-center" width="80" height="12" x="160" y="3" fill="#e4e6e8" opacity="0.01" />
  <rect id="south-active-tab-right" width="10" height="12" x="240" y="3" fill="#e4e6e8" opacity="0.01" />
  <rect id="south-active-tab-bottomleft" width="10" height="4" x="150" y="15" fill="#e4e6e8" opacity="0.01" />
  <rect id="south-active-tab-bottom" width="80" height="4" x="160" y="15" fill="#e4e6e8" opacity="0.01" />
  <rect id="south-active-tab-bottomright" width="10" height="4" x="240" y="15" fill="#e4e6e8" opacity="0.01" />
  <rect id="south-active-tab-hint-top-margin" width="5" height="10" x="195" y="0" fill="#4e9a06" />
  <rect id="south-active-tab-hint-left-margin" width="6" height="5" x="150" y="6.143" fill="#4e9a06" />
  <rect id="south-active-tab-hint-right-margin" width="6" height="5" x="244" y="6.5" fill="#4e9a06" />
  <rect id="south-active-tab-hint-bottom-margin" width="5" height="10" x="200" y="9" fill="#4e9a06" />
  <g id="east-active-tab-topleft" transform="translate(150)">
    <rect width="3" height="10" fill="#e4e6e8" opacity="0.01" x="0" y="0" />
    <rect width="3" height="7" x="0" y="3" class="ColorScheme-ButtonFocus" fill="currentColor" />
  </g>
  <rect id="east-active-tab-top" width="12" height="10" x="153" fill="#e4e6e8" opacity="0.01" y="0" />
  <rect id="east-active-tab-topright" width="4" height="10" x="165" y="0" fill="#e4e6e8" opacity="0.01" />
  <g id="east-active-tab-left" transform="translate(150)">
    <rect width="3" height="80" x="0" y="10" class="ColorScheme-ButtonFocus" fill="currentColor" />
  </g>
  <rect id="east-active-tab-center" width="12" height="80" x="153" y="10" fill="#e4e6e8" opacity="0.01" />
  <rect id="east-active-tab-right" width="4" height="80" x="165" y="10" fill="#e4e6e8" opacity="0.01" />
  <g id="east-active-tab-bottomleft" transform="translate(150)">
    <rect width="3" height="10" y="90" fill="#e4e6e8" opacity="0.01" x="0" />
    <rect width="3" height="7" y="90" class="ColorScheme-ButtonFocus" fill="currentColor" x="0" />
  </g>
  <rect id="east-active-tab-bottom" width="12" height="10" x="153" y="90" fill="#e4e6e8" opacity="0.01" />
  <rect id="east-active-tab-bottomright" width="4" height="10" x="165" y="90" fill="#e4e6e8" opacity="0.01" />
  <rect id="east-active-tab-hint-top-margin" width="5" height="6" x="156.5" fill="#4e9a06" y="0" />
  <rect id="east-active-tab-hint-left-margin" width="8" height="5" y="47.5" fill="#4e9a06" x="150" />
  <rect id="east-active-tab-hint-right-margin" width="4" height="5" x="165" y="47.5" fill="#4e9a06" />
  <rect id="east-active-tab-hint-bottom-margin" width="5" height="6" x="156.5" y="94" fill="#4e9a06" />
  <rect id="west-active-tab-topleft" width="4" height="10" fill="#e4e6e8" opacity="0.01" x="150" y="0" />
  <rect id="west-active-tab-top" width="12" height="10" x="154" fill="#e4e6e8" opacity="0.01" y="0" />
  <g id="west-active-tab-topright" transform="translate(150)">
    <rect width="3" height="10" x="16" y="0" fill="#e4e6e8" opacity="0.01" />
    <rect width="3" height="7" x="16" y="3" class="ColorScheme-ButtonFocus" fill="currentColor" />
  </g>
  <rect id="west-active-tab-left" width="4" height="80" y="10" fill="#e4e6e8" opacity="0.01" x="150" />
  <rect id="west-active-tab-center" width="12" height="80" x="154" y="10" fill="#e4e6e8" opacity="0.01" />
  <g id="west-active-tab-right" transform="translate(150)">
    <rect width="3" height="80" x="16" y="10" class="ColorScheme-ButtonFocus" fill="currentColor" />
  </g>
  <rect id="west-active-tab-bottomleft" width="4" height="10" x="150" y="90" fill="#e4e6e8" opacity="0.01" />
  <rect id="west-active-tab-bottom" width="12" height="10" x="154" y="90" fill="#e4e6e8" opacity="0.01" />
  <g id="west-active-tab-bottomright" transform="translate(150)">
    <rect width="3" height="10" x="16" y="90" fill="#e4e6e8" opacity="0.01" />
    <rect width="3" height="7" x="16" y="90" class="ColorScheme-ButtonFocus" fill="currentColor" />
  </g>
  <rect id="west-active-tab-hint-top-margin" width="5" height="6" x="157.5" fill="#4e9a06" y="0" />
  <rect id="west-active-tab-hint-left-margin" width="4" height="5" x="150" y="47.5" fill="#4e9a06" />
  <rect id="west-active-tab-hint-right-margin" width="8" height="5" x="161" y="47.5" fill="#4e9a06" />
  <rect id="west-active-tab-hint-bottom-margin" width="5" height="6" x="157.5" y="94" fill="#4e9a06" />
  <rect id="north-active-tab-topright" width="10" height="4" x="-606.824" y="-4"
    style="opacity:0.01;fill:#e4e6e8;fill-opacity:1;stroke:none" transform="scale(-1)" />
  <rect id="north-active-tab-topleft" width="10" height="4" x="-516.824" y="-4"
    style="opacity:0.01;fill:#e4e6e8;fill-opacity:1;stroke:none" transform="scale(-1)" />
  <rect id="north-active-tab-top" width="80" height="4" x="-596.824" y="-4"
    style="opacity:0.01;fill:#e4e6e8;fill-opacity:1;stroke:none" transform="scale(-1)" />
  <rect id="north-active-tab-left" width="10" height="12" x="-516.824" y="-16"
    style="opacity:0.01;fill:#e4e6e8;fill-opacity:1;stroke:none" transform="scale(-1)" />
  <rect id="north-active-tab-center" width="80" height="20" x="-596.824" y="-24"
    style="opacity:0.01;fill:#e4e6e8;fill-opacity:1;stroke:none" transform="scale(-1)" />
  <rect id="north-active-tab-right" width="10" height="12" x="-606.824" y="-16"
    style="opacity:0.01;fill:#e4e6e8;fill-opacity:1;stroke:none" transform="scale(-1)" />
  <rect y="-13" x="-606.824" height="5" width="6" id="north-active-tab-hint-right-margin"
    style="fill:#4e9a06;fill-opacity:1;fill-rule:nonzero;stroke:none" transform="scale(-1)" />
  <rect style="fill:#4e9a06;fill-opacity:1;fill-rule:nonzero;stroke:none" id="north-active-tab-hint-left-margin"
    width="6" height="5" x="-512.824" y="-13" transform="scale(-1)" />
  <g id="north-active-tab-bottom" transform="translate(476.824,-342.362)">
    <rect class="ColorScheme-ButtonFocus" y="359.362" x="40" height="3" width="80"
      style="fill:currentColor;fill-opacity:1;stroke:none" />
  </g>
  <rect y="-20" x="-552.582" height="10" width="5" id="north-active-tab-hint-bottom-margin"
    style="fill:#4e9a06;fill-opacity:1;fill-rule:nonzero;stroke:none;stroke-width:1" transform="scale(-1)" />
  <rect style="fill:#4e9a06;fill-opacity:1;fill-rule:nonzero;stroke:none;stroke-width:1"
    id="north-active-tab-hint-top-margin" width="5" height="10" x="-552.582" y="-10" transform="scale(-1)" />
  <g id="north-active-tab-bottomleft" transform="translate(476.824,-342.362)">
    <rect style="opacity:0.01;fill:#e4e6e8;fill-opacity:1;stroke:none" width="10" height="3" x="30" y="359.362" />
    <rect style="fill:currentColor;fill-opacity:1;stroke:none" width="7" height="3" x="33" y="359.362"
      class="ColorScheme-ButtonFocus" />
  </g>
  <g id="north-active-tab-bottomright" transform="translate(233.824,-210.362)">
    <rect y="227.362" x="363" height="3" width="10" style="opacity:0.01;fill:#e4e6e8;fill-opacity:1;stroke:none" />
    <rect y="227.362" x="363" height="3" width="10" style="opacity:0.01;fill:#e4e6e8;fill-opacity:1;stroke:none" />
    <rect class="ColorScheme-ButtonFocus" y="227.362" x="363" height="3" width="7"
      style="fill:currentColor;fill-opacity:1;stroke:none" />
  </g>
</svg>