<svg width="136" height="125" version="1.1" xmlns="http://www.w3.org/2000/svg" xmlns:svg="http://www.w3.org/2000/svg">
  <defs>
    <style id="current-color-scheme" type="text/css">
      .ColorScheme-Text {
        color: #232629;
      }

      .ColorScheme-PositiveText {
        color: #27ae60;
      }

      .ColorScheme-NeutralText {
        color: #f67400;
      }

      .ColorScheme-ButtonFocus {
        color: #3daee9;
      }

      .ColorScheme-ButtonHover {
        color: #93cee9;
      }
    </style>
  </defs>
  <g id="g-progress" display="none">
    <g id="progress-topleft" class="ColorScheme-PositiveText" fill="currentColor" opacity="0.61">
      <rect width="1" height="3" x="0" y="0" fill="none" />
      <rect width="3" height="3" x="1" y="0" />
    </g>
    <rect id="progress-top" width="26" height="3" x="4" y="0" class="ColorScheme-PositiveText" fill="currentColor"
      opacity="0.61" />
    <g id="progress-topright" class="ColorScheme-PositiveText" fill="currentColor" opacity="0.61">
      <rect width="1" height="3" x="33" y="0" fill="none" />
      <rect width="3" height="3" x="30" y="0" />
    </g>
    <g id="progress-left" class="ColorScheme-PositiveText" fill="currentColor" opacity="0.31">
      <rect width="1" height="13" x="0" y="3" fill="none" />
      <rect width="3" height="13" x="1" y="3" />
    </g>
    <rect id="progress-center" width="26" height="13" x="4" y="3" class="ColorScheme-PositiveText" fill="currentColor"
      opacity="0.31" />
    <g id="progress-right" class="ColorScheme-PositiveText" fill="currentColor" opacity="0.31">
      <rect width="1" height="13" x="33" y="3" fill="none" />
      <rect width="3" height="13" x="30" y="3" />
    </g>
    <g id="progress-bottomleft" class="ColorScheme-PositiveText" fill="currentColor" opacity="0.31">
      <rect width="1" height="3" x="0" y="16" fill="none" />
      <rect width="3" height="3" x="1" y="16" />
    </g>
    <rect id="progress-bottom" width="26" height="3" x="4" y="16" class="ColorScheme-PositiveText" fill="currentColor"
      opacity="0.31" />
    <g id="progress-bottomright" class="ColorScheme-PositiveText" fill="currentColor" opacity="0.31">
      <rect width="1" height="3" x="33" y="16" fill="none" />
      <rect width="3" height="3" x="30" y="16" />
    </g>
  </g>
  <g id="g-north-progress" transform="translate(34)">
    <g id="north-progress-topleft" class="ColorScheme-PositiveText" fill="currentColor" opacity="0.31">
      <rect width="1" height="3" x="0" y="0" fill="none" />
      <rect width="3" height="3" x="1" y="0" />
    </g>
    <rect id="north-progress-top" width="26" height="3" x="4" y="0" class="ColorScheme-PositiveText" fill="currentColor"
      opacity="0.31" />
    <g id="north-progress-topright" class="ColorScheme-PositiveText" fill="currentColor" opacity="0.31">
      <rect width="1" height="3" x="33" y="0" fill="none" />
      <rect width="3" height="3" x="30" y="0" />
    </g>
    <g id="north-progress-left" class="ColorScheme-PositiveText" fill="currentColor" opacity="0.31">
      <rect width="1" height="13" x="0" y="3" fill="none" />
      <rect width="3" height="13" x="1" y="3" />
    </g>
    <rect id="north-progress-center" width="26" height="13" x="4" y="3" class="ColorScheme-PositiveText"
      fill="currentColor" opacity="0.31" />
    <g id="north-progress-right" class="ColorScheme-PositiveText" fill="currentColor" opacity="0.31">
      <rect width="1" height="13" x="33" y="3" fill="none" />
      <rect width="3" height="13" x="30" y="3" />
    </g>
    <g id="north-progress-bottomleft" class="ColorScheme-PositiveText" fill="currentColor" opacity="0.61">
      <rect width="1" height="3" x="0" y="16" fill="none" />
      <rect width="3" height="3" x="1" y="16" />
    </g>
    <rect id="north-progress-bottom" width="26" height="3" x="4" y="16" class="ColorScheme-PositiveText"
      fill="currentColor" opacity="0.61" />
    <g id="north-progress-bottomright" class="ColorScheme-PositiveText" fill="currentColor" opacity="0.61">
      <rect width="1" height="3" x="33" y="16" fill="none" />
      <rect width="3" height="3" x="30" y="16" />
    </g>
  </g>
  <g id="g-west-progress" transform="translate(68)">
    <g id="west-progress-topleft" class="ColorScheme-PositiveText" fill="currentColor" opacity="0.31">
      <rect width="3" height="1" x="0" y="0" fill="none" />
      <rect width="3" height="3" x="0" y="1" />
    </g>
    <g id="west-progress-top" class="ColorScheme-PositiveText" fill="currentColor" opacity="0.31">
      <rect width="28" height="1" x="3" y="0" fill="none" />
      <rect width="28" height="3" x="3" y="1" />
    </g>
    <g id="west-progress-topright" class="ColorScheme-PositiveText" fill="currentColor" opacity="0.61">
      <rect width="3" height="1" x="31" y="0" fill="none" />
      <rect width="3" height="3" x="31" y="1" />
    </g>
    <rect id="west-progress-left" width="3" height="11" x="0" y="4" class="ColorScheme-PositiveText" fill="currentColor"
      opacity="0.31" />
    <rect id="west-progress-center" width="28" height="11" x="3" y="4" class="ColorScheme-PositiveText"
      fill="currentColor" opacity="0.31" />
    <rect id="west-progress-right" width="3" height="11" x="31" y="4" class="ColorScheme-PositiveText"
      fill="currentColor" opacity="0.61" />
    <g id="west-progress-bottomleft" class="ColorScheme-PositiveText" fill="currentColor" opacity="0.31">
      <rect width="3" height="1" x="0" y="18" fill="none" />
      <rect width="3" height="3" x="0" y="15" />
    </g>
    <g id="west-progress-bottom" class="ColorScheme-PositiveText" fill="currentColor" opacity="0.31">
      <rect width="28" height="1" x="3" y="18" fill="none" />
      <rect width="28" height="3" x="3" y="15" />
    </g>
    <g id="west-progress-bottomright" class="ColorScheme-PositiveText" fill="currentColor" opacity="0.61">
      <rect width="3" height="1" x="31" y="18" fill="none" />
      <rect width="3" height="3" x="31" y="15" />
    </g>
  </g>
  <g id="g-east-progress" transform="translate(102)">
    <g id="east-progress-topleft" class="ColorScheme-PositiveText" fill="currentColor" opacity="0.61">
      <rect width="3" height="1" x="0" y="0" fill="none" />
      <rect width="3" height="3" x="0" y="1" />
    </g>
    <g id="east-progress-top" class="ColorScheme-PositiveText" fill="currentColor" opacity="0.31">
      <rect width="28" height="1" x="3" y="0" fill="none" />
      <rect width="28" height="3" x="3" y="1" />
    </g>
    <g id="east-progress-topright" class="ColorScheme-PositiveText" fill="currentColor" opacity="0.31">
      <rect width="3" height="1" x="31" y="0" fill="none" />
      <rect width="3" height="3" x="31" y="1" />
    </g>
    <rect id="east-progress-left" width="3" height="11" x="0" y="4" class="ColorScheme-PositiveText" fill="currentColor"
      opacity="0.61" />
    <rect id="east-progress-center" width="28" height="11" x="3" y="4" class="ColorScheme-PositiveText"
      fill="currentColor" opacity="0.31" />
    <rect id="east-progress-right" width="3" height="11" x="31" y="4" class="ColorScheme-PositiveText"
      fill="currentColor" opacity="0.31" />
    <g id="east-progress-bottomleft" class="ColorScheme-PositiveText" fill="currentColor" opacity="0.61">
      <rect width="3" height="1" x="0" y="18" fill="none" />
      <rect width="3" height="3" x="0" y="15" />
    </g>
    <g id="east-progress-bottom" class="ColorScheme-PositiveText" fill="currentColor" opacity="0.31">
      <rect width="28" height="1" x="3" y="18" fill="none" />
      <rect width="28" height="3" x="3" y="15" />
    </g>
    <g id="east-progress-bottomright" class="ColorScheme-PositiveText" fill="currentColor" opacity="0.31">
      <rect width="3" height="1" x="31" y="18" fill="none" />
      <rect width="3" height="3" x="31" y="15" />
    </g>
  </g>
  <g id="g-focus" transform="translate(0,19)">
    <g id="focus-topleft" class="ColorScheme-ButtonFocus" fill="currentColor" opacity="0.9">
      <rect width="1" height="3" x="0" y="0" fill="none" />
      <rect width="3" height="3" x="1" y="0" />
    </g>
    <rect id="focus-top" width="26" height="3" x="4" y="0" class="ColorScheme-ButtonFocus" fill="currentColor"
      opacity="0.9" />
    <g id="focus-topright" class="ColorScheme-ButtonFocus" fill="currentColor" opacity="0.9">
      <rect width="1" height="3" x="33" y="0" fill="none" />
      <rect width="3" height="3" x="30" y="0" />
    </g>
    <g id="focus-left" class="ColorScheme-ButtonFocus" fill="currentColor" opacity="0.45">
      <rect width="1" height="13" x="0" y="3" fill="none" />
      <rect width="3" height="13" x="1" y="3" />
    </g>
    <rect id="focus-center" width="26" height="13" x="4" y="3" class="ColorScheme-ButtonFocus" fill="currentColor"
      opacity="0.45" />
    <g id="focus-right" class="ColorScheme-ButtonFocus" fill="currentColor" opacity="0.45">
      <rect width="1" height="13" x="33" y="3" fill="none" />
      <rect width="3" height="13" x="30" y="3" />
    </g>
    <g id="focus-bottomleft" class="ColorScheme-ButtonFocus" fill="currentColor" opacity="0.45">
      <rect width="1" height="3" x="0" y="16" fill="none" />
      <rect width="3" height="3" x="1" y="16" />
    </g>
    <rect id="focus-bottom" width="26" height="3" x="4" y="16" class="ColorScheme-ButtonFocus" fill="currentColor"
      opacity="0.45" />
    <g id="focus-bottomright" class="ColorScheme-ButtonFocus" fill="currentColor" opacity="0.45">
      <rect width="1" height="3" x="33" y="16" fill="none" />
      <rect width="3" height="3" x="30" y="16" />
    </g>
  </g>
  <g id="g-north-focus" transform="translate(34,19)">
    <g id="north-focus-topleft" class="ColorScheme-ButtonFocus" fill="currentColor" opacity="0.45">
      <rect width="1" height="3" x="0" y="0" fill="none" />
      <rect width="3" height="3" x="1" y="0" />
    </g>
    <rect id="north-focus-top" width="26" height="3" x="4" y="0" class="ColorScheme-ButtonFocus" fill="currentColor"
      opacity="0.45" />
    <g id="north-focus-topright" class="ColorScheme-ButtonFocus" fill="currentColor" opacity="0.45">
      <rect width="1" height="3" x="33" y="0" fill="none" />
      <rect width="3" height="3" x="30" y="0" />
    </g>
    <g id="north-focus-left" class="ColorScheme-ButtonFocus" fill="currentColor" opacity="0.45">
      <rect width="1" height="13" x="0" y="3" fill="none" />
      <rect width="3" height="13" x="1" y="3" />
    </g>
    <rect id="north-focus-center" width="26" height="13" x="4" y="3" class="ColorScheme-ButtonFocus" fill="currentColor"
      opacity="0.45" />
    <g id="north-focus-right" class="ColorScheme-ButtonFocus" fill="currentColor" opacity="0.45">
      <rect width="1" height="13" x="33" y="3" fill="none" />
      <rect width="3" height="13" x="30" y="3" />
    </g>
    <g id="north-focus-bottomleft" class="ColorScheme-ButtonFocus" fill="currentColor" opacity="0.9">
      <rect width="1" height="3" x="0" y="16" fill="none" />
      <rect width="3" height="3" x="1" y="16" />
    </g>
    <rect id="north-focus-bottom" width="26" height="3" x="4" y="16" class="ColorScheme-ButtonFocus" fill="currentColor"
      opacity="0.9" />
    <g id="north-focus-bottomright" class="ColorScheme-ButtonFocus" fill="currentColor" opacity="0.9">
      <rect width="1" height="3" x="33" y="16" fill="none" />
      <rect width="3" height="3" x="30" y="16" />
    </g>
  </g>
  <g id="g-west-focus" transform="translate(68,19)">
    <g id="west-focus-topleft" class="ColorScheme-ButtonFocus" fill="currentColor" opacity="0.45">
      <rect width="3" height="1" x="0" y="0" fill="none" />
      <rect width="3" height="3" x="0" y="1" />
    </g>
    <g id="west-focus-top" class="ColorScheme-ButtonFocus" fill="currentColor" opacity="0.45">
      <rect width="28" height="1" x="3" y="0" fill="none" />
      <rect width="28" height="3" x="3" y="1" />
    </g>
    <g id="west-focus-topright" class="ColorScheme-ButtonFocus" fill="currentColor" opacity="0.9">
      <rect width="3" height="1" x="31" y="0" fill="none" />
      <rect width="3" height="3" x="31" y="1" />
    </g>
    <rect id="west-focus-left" width="3" height="11" x="0" y="4" class="ColorScheme-ButtonFocus" fill="currentColor"
      opacity="0.45" />
    <rect id="west-focus-center" width="28" height="11" x="3" y="4" class="ColorScheme-ButtonFocus" fill="currentColor"
      opacity="0.45" />
    <rect id="west-focus-right" width="3" height="11" x="31" y="4" class="ColorScheme-ButtonFocus" fill="currentColor"
      opacity="0.9" />
    <g id="west-focus-bottomleft" class="ColorScheme-ButtonFocus" fill="currentColor" opacity="0.45">
      <rect width="3" height="1" x="0" y="18" fill="none" />
      <rect width="3" height="3" x="0" y="15" />
    </g>
    <g id="west-focus-bottom" class="ColorScheme-ButtonFocus" fill="currentColor" opacity="0.45">
      <rect width="28" height="1" x="3" y="18" fill="none" />
      <rect width="28" height="3" x="3" y="15" />
    </g>
    <g id="west-focus-bottomright" class="ColorScheme-ButtonFocus" fill="currentColor" opacity="0.9">
      <rect width="3" height="1" x="31" y="18" fill="none" />
      <rect width="3" height="3" x="31" y="15" />
    </g>
  </g>
  <g id="g-east-focus" transform="translate(102,19)">
    <g id="east-focus-topleft" class="ColorScheme-ButtonFocus" fill="currentColor" opacity="0.9">
      <rect width="3" height="1" x="0" y="0" fill="none" />
      <rect width="3" height="3" x="0" y="1" />
    </g>
    <g id="east-focus-top" class="ColorScheme-ButtonFocus" fill="currentColor" opacity="0.45">
      <rect width="28" height="1" x="3" y="0" fill="none" />
      <rect width="28" height="3" x="3" y="1" />
    </g>
    <g id="east-focus-topright" class="ColorScheme-ButtonFocus" fill="currentColor" opacity="0.45">
      <rect width="3" height="1" x="31" y="0" fill="none" />
      <rect width="3" height="3" x="31" y="1" />
    </g>
    <rect id="east-focus-left" width="3" height="11" x="0" y="4" class="ColorScheme-ButtonFocus" fill="currentColor"
      opacity="0.9" />
    <rect id="east-focus-center" width="28" height="11" x="3" y="4" class="ColorScheme-ButtonFocus" fill="currentColor"
      opacity="0.45" />
    <rect id="east-focus-right" width="3" height="11" x="31" y="4" class="ColorScheme-ButtonFocus" fill="currentColor"
      opacity="0.45" />
    <g id="east-focus-bottomleft" class="ColorScheme-ButtonFocus" fill="currentColor" opacity="0.9">
      <rect width="3" height="1" x="0" y="18" fill="none" />
      <rect width="3" height="3" x="0" y="15" />
    </g>
    <g id="east-focus-bottom" class="ColorScheme-ButtonFocus" fill="currentColor" opacity="0.45">
      <rect width="28" height="1" x="3" y="18" fill="none" />
      <rect width="28" height="3" x="3" y="15" />
    </g>
    <g id="east-focus-bottomright" class="ColorScheme-ButtonFocus" fill="currentColor" opacity="0.45">
      <rect width="3" height="1" x="31" y="18" fill="none" />
      <rect width="3" height="3" x="31" y="15" />
    </g>
  </g>
  <g id="g-normal" transform="translate(0,38)">
    <g id="normal-topleft" class="ColorScheme-Text" fill="currentColor" opacity="0.33">
      <rect width="1" height="3" x="0" y="0" fill="none" />
      <rect width="3" height="3" x="1" y="0" />
    </g>
    <rect id="normal-top" width="26" height="3" x="4" y="0" class="ColorScheme-Text" fill="currentColor"
      opacity="0.33" />
    <g id="normal-topright" class="ColorScheme-Text" fill="currentColor" opacity="0.33">
      <rect width="1" height="3" x="33" y="0" fill="none" />
      <rect width="3" height="3" x="30" y="0" />
    </g>
    <g id="normal-left" class="ColorScheme-Text" fill="currentColor" opacity="0.15">
      <rect width="1" height="13" x="0" y="3" fill="none" />
      <rect width="3" height="13" x="1" y="3" />
    </g>
    <rect id="normal-center" width="26" height="13" x="4" y="3" class="ColorScheme-Text" fill="currentColor"
      opacity="0.15" />
    <g id="normal-right" class="ColorScheme-Text" fill="currentColor" opacity="0.15">
      <rect width="1" height="13" x="33" y="3" fill="none" />
      <rect width="3" height="13" x="30" y="3" />
    </g>
    <g id="normal-bottomleft" class="ColorScheme-Text" fill="currentColor" opacity="0.15">
      <rect width="1" height="3" x="0" y="16" fill="none" />
      <rect width="3" height="3" x="1" y="16" />
    </g>
    <rect id="normal-bottom" width="26" height="3" x="4" y="16" class="ColorScheme-Text" fill="currentColor"
      opacity="0.15" />
    <g id="normal-bottomright" class="ColorScheme-Text" fill="currentColor" opacity="0.15">
      <rect width="1" height="3" x="33" y="16" fill="none" />
      <rect width="3" height="3" x="30" y="16" />
    </g>
  </g>
  <g id="g-north-normal" transform="translate(34,38)">
    <g id="north-normal-topleft" class="ColorScheme-Text" fill="currentColor" opacity="0.15">
      <rect width="1" height="3" x="0" y="0" fill="none" />
      <rect width="3" height="3" x="1" y="0" />
    </g>
    <rect id="north-normal-top" width="26" height="3" x="4" y="0" class="ColorScheme-Text" fill="currentColor"
      opacity="0.15" />
    <g id="north-normal-topright" class="ColorScheme-Text" fill="currentColor" opacity="0.15">
      <rect width="1" height="3" x="33" y="0" fill="none" />
      <rect width="3" height="3" x="30" y="0" />
    </g>
    <g id="north-normal-left" class="ColorScheme-Text" fill="currentColor" opacity="0.15">
      <rect width="1" height="13" x="0" y="3" fill="none" />
      <rect width="3" height="13" x="1" y="3" />
    </g>
    <rect id="north-normal-center" width="26" height="13" x="4" y="3" class="ColorScheme-Text" fill="currentColor"
      opacity="0.15" />
    <g id="north-normal-right" class="ColorScheme-Text" fill="currentColor" opacity="0.15">
      <rect width="1" height="13" x="33" y="3" fill="none" />
      <rect width="3" height="13" x="30" y="3" />
    </g>
    <g id="north-normal-bottomleft" class="ColorScheme-Text" fill="currentColor" opacity="0.33">
      <rect width="1" height="3" x="0" y="16" fill="none" />
      <rect width="3" height="3" x="1" y="16" />
    </g>
    <rect id="north-normal-bottom" width="26" height="3" x="4" y="16" class="ColorScheme-Text" fill="currentColor"
      opacity="0.33" />
    <g id="north-normal-bottomright" class="ColorScheme-Text" fill="currentColor" opacity="0.33">
      <rect width="1" height="3" x="33" y="16" fill="none" />
      <rect width="3" height="3" x="30" y="16" />
    </g>
  </g>
  <g id="g-west-normal" transform="translate(68,38)">
    <g id="west-normal-topleft" class="ColorScheme-Text" fill="currentColor" opacity="0.15">
      <rect width="3" height="1" x="0" y="0" fill="none" />
      <rect width="3" height="3" x="0" y="1" />
    </g>
    <g id="west-normal-top" class="ColorScheme-Text" fill="currentColor" opacity="0.15">
      <rect width="28" height="1" x="3" y="0" fill="none" />
      <rect width="28" height="3" x="3" y="1" />
    </g>
    <g id="west-normal-topright" class="ColorScheme-Text" fill="currentColor" opacity="0.33">
      <rect width="3" height="1" x="31" y="0" fill="none" />
      <rect width="3" height="3" x="31" y="1" />
    </g>
    <rect id="west-normal-left" width="3" height="11" x="0" y="4" class="ColorScheme-Text" fill="currentColor"
      opacity="0.15" />
    <rect id="west-normal-center" width="28" height="11" x="3" y="4" class="ColorScheme-Text" fill="currentColor"
      opacity="0.15" />
    <rect id="west-normal-right" width="3" height="11" x="31" y="4" class="ColorScheme-Text" fill="currentColor"
      opacity="0.33" />
    <g id="west-normal-bottomleft" class="ColorScheme-Text" fill="currentColor" opacity="0.15">
      <rect width="3" height="1" x="0" y="18" fill="none" />
      <rect width="3" height="3" x="0" y="15" />
    </g>
    <g id="west-normal-bottom" class="ColorScheme-Text" fill="currentColor" opacity="0.15">
      <rect width="28" height="1" x="3" y="18" fill="none" />
      <rect width="28" height="3" x="3" y="15" />
    </g>
    <g id="west-normal-bottomright" class="ColorScheme-Text" fill="currentColor" opacity="0.33">
      <rect width="3" height="1" x="31" y="18" fill="none" />
      <rect width="3" height="3" x="31" y="15" />
    </g>
  </g>
  <g id="g-east-normal" transform="translate(102,38)">
    <g id="east-normal-topleft" class="ColorScheme-Text" fill="currentColor" opacity="0.33">
      <rect width="3" height="1" x="0" y="0" fill="none" />
      <rect width="3" height="3" x="0" y="1" />
    </g>
    <g id="east-normal-top" class="ColorScheme-Text" fill="currentColor" opacity="0.15">
      <rect width="28" height="1" x="3" y="0" fill="none" />
      <rect width="28" height="3" x="3" y="1" />
    </g>
    <g id="east-normal-topright" class="ColorScheme-Text" fill="currentColor" opacity="0.15">
      <rect width="3" height="1" x="31" y="0" fill="none" />
      <rect width="3" height="3" x="31" y="1" />
    </g>
    <rect id="east-normal-left" width="3" height="11" x="0" y="4" class="ColorScheme-Text" fill="currentColor"
      opacity="0.33" />
    <rect id="east-normal-center" width="28" height="11" x="3" y="4" class="ColorScheme-Text" fill="currentColor"
      opacity="0.15" />
    <rect id="east-normal-right" width="3" height="11" x="31" y="4" class="ColorScheme-Text" fill="currentColor"
      opacity="0.15" />
    <g id="east-normal-bottomleft" class="ColorScheme-Text" fill="currentColor" opacity="0.33">
      <rect width="3" height="1" x="0" y="18" fill="none" />
      <rect width="3" height="3" x="0" y="15" />
    </g>
    <g id="east-normal-bottom" class="ColorScheme-Text" fill="currentColor" opacity="0.15">
      <rect width="28" height="1" x="3" y="18" fill="none" />
      <rect width="28" height="3" x="3" y="15" />
    </g>
    <g id="east-normal-bottomright" class="ColorScheme-Text" fill="currentColor" opacity="0.15">
      <rect width="3" height="1" x="31" y="18" fill="none" />
      <rect width="3" height="3" x="31" y="15" />
    </g>
  </g>
  <g id="g-hover" transform="translate(0,57)">
    <g id="hover-topleft" class="ColorScheme-ButtonHover" fill="currentColor">
      <rect width="1" height="3" x="0" y="0" fill="none" />
      <rect width="3" height="3" x="1" y="0" />
    </g>
    <rect id="hover-top" width="26" height="3" x="4" y="0" class="ColorScheme-ButtonHover" fill="currentColor" />
    <g id="hover-topright" class="ColorScheme-ButtonHover" fill="currentColor">
      <rect width="1" height="3" x="33" y="0" fill="none" />
      <rect width="3" height="3" x="30" y="0" />
    </g>
    <g id="hover-left" class="ColorScheme-ButtonHover" fill="currentColor" opacity="0.34">
      <rect width="1" height="13" x="0" y="3" fill="none" />
      <rect width="3" height="13" x="1" y="3" />
    </g>
    <rect id="hover-center" width="26" height="13" x="4" y="3" class="ColorScheme-ButtonHover" fill="currentColor"
      opacity="0.34" />
    <g id="hover-right" class="ColorScheme-ButtonHover" fill="currentColor" opacity="0.34">
      <rect width="1" height="13" x="33" y="3" fill="none" />
      <rect width="3" height="13" x="30" y="3" />
    </g>
    <g id="hover-bottomleft" class="ColorScheme-ButtonHover" fill="currentColor" opacity="0.34">
      <rect width="1" height="3" x="0" y="16" fill="none" />
      <rect width="3" height="3" x="1" y="16" />
    </g>
    <rect id="hover-bottom" width="26" height="3" x="4" y="16" class="ColorScheme-ButtonHover" fill="currentColor"
      opacity="0.34" />
    <g id="hover-bottomright" class="ColorScheme-ButtonHover" fill="currentColor" opacity="0.34">
      <rect width="1" height="3" x="33" y="16" fill="none" />
      <rect width="3" height="3" x="30" y="16" />
    </g>
  </g>
  <g id="g-north-hover" transform="translate(34,57)">
    <g id="north-hover-topleft" class="ColorScheme-ButtonHover" fill="currentColor" opacity="0.34">
      <rect width="1" height="3" x="0" y="0" fill="none" />
      <rect width="3" height="3" x="1" y="0" />
    </g>
    <rect id="north-hover-top" width="26" height="3" x="4" y="0" class="ColorScheme-ButtonHover" fill="currentColor"
      opacity="0.34" />
    <g id="north-hover-topright" class="ColorScheme-ButtonHover" fill="currentColor" opacity="0.34">
      <rect width="1" height="3" x="33" y="0" fill="none" />
      <rect width="3" height="3" x="30" y="0" />
    </g>
    <g id="north-hover-left" class="ColorScheme-ButtonHover" fill="currentColor" opacity="0.34">
      <rect width="1" height="13" x="0" y="3" fill="none" />
      <rect width="3" height="13" x="1" y="3" />
    </g>
    <rect id="north-hover-center" width="26" height="13" x="4" y="3" class="ColorScheme-ButtonHover" fill="currentColor"
      opacity="0.34" />
    <g id="north-hover-right" class="ColorScheme-ButtonHover" fill="currentColor" opacity="0.34">
      <rect width="1" height="13" x="33" y="3" fill="none" />
      <rect width="3" height="13" x="30" y="3" />
    </g>
    <g id="north-hover-bottomleft" class="ColorScheme-ButtonHover" fill="currentColor">
      <rect width="1" height="3" x="0" y="16" fill="none" />
      <rect width="3" height="3" x="1" y="16" />
    </g>
    <rect id="north-hover-bottom" width="26" height="3" x="4" y="16" class="ColorScheme-ButtonHover"
      fill="currentColor" />
    <g id="north-hover-bottomright" class="ColorScheme-ButtonHover" fill="currentColor">
      <rect width="1" height="3" x="33" y="16" fill="none" />
      <rect width="3" height="3" x="30" y="16" />
    </g>
  </g>
  <g id="g-west-hover" transform="translate(68,57)">
    <g id="west-hover-topleft" class="ColorScheme-ButtonHover" fill="currentColor" opacity="0.34">
      <rect width="3" height="1" x="0" y="0" fill="none" />
      <rect width="3" height="3" x="0" y="1" />
    </g>
    <g id="west-hover-top" class="ColorScheme-ButtonHover" fill="currentColor" opacity="0.34">
      <rect width="28" height="1" x="3" y="0" fill="none" />
      <rect width="28" height="3" x="3" y="1" />
    </g>
    <g id="west-hover-topright" class="ColorScheme-ButtonHover" fill="currentColor">
      <rect width="3" height="1" x="31" y="0" fill="none" />
      <rect width="3" height="3" x="31" y="1" />
    </g>
    <rect id="west-hover-left" width="3" height="11" x="0" y="4" class="ColorScheme-ButtonHover" fill="currentColor"
      opacity="0.34" />
    <rect id="west-hover-center" width="28" height="11" x="3" y="4" class="ColorScheme-ButtonHover" fill="currentColor"
      opacity="0.34" />
    <rect id="west-hover-right" width="3" height="11" x="31" y="4" class="ColorScheme-ButtonHover"
      fill="currentColor" />
    <g id="west-hover-bottomleft" class="ColorScheme-ButtonHover" fill="currentColor" opacity="0.34">
      <rect width="3" height="1" x="0" y="18" fill="none" />
      <rect width="3" height="3" x="0" y="15" />
    </g>
    <g id="west-hover-bottom" class="ColorScheme-ButtonHover" fill="currentColor" opacity="0.34">
      <rect width="28" height="1" x="3" y="18" fill="none" />
      <rect width="28" height="3" x="3" y="15" />
    </g>
    <g id="west-hover-bottomright" class="ColorScheme-ButtonHover" fill="currentColor">
      <rect width="3" height="1" x="31" y="18" fill="none" />
      <rect width="3" height="3" x="31" y="15" />
    </g>
  </g>
  <g id="g-east-hover" transform="translate(102,57)">
    <g id="east-hover-topleft" class="ColorScheme-ButtonHover" fill="currentColor">
      <rect width="3" height="1" x="0" y="0" fill="none" />
      <rect width="3" height="3" x="0" y="1" />
    </g>
    <g id="east-hover-top" class="ColorScheme-ButtonHover" fill="currentColor" opacity="0.34">
      <rect width="28" height="1" x="3" y="0" fill="none" />
      <rect width="28" height="3" x="3" y="1" />
    </g>
    <g id="east-hover-topright" class="ColorScheme-ButtonHover" fill="currentColor" opacity="0.34">
      <rect width="3" height="1" x="31" y="0" fill="none" />
      <rect width="3" height="3" x="31" y="1" />
    </g>
    <rect id="east-hover-left" width="3" height="11" x="0" y="4" class="ColorScheme-ButtonHover" fill="currentColor" />
    <rect id="east-hover-center" width="28" height="11" x="3" y="4" class="ColorScheme-ButtonHover" fill="currentColor"
      opacity="0.34" />
    <rect id="east-hover-right" width="3" height="11" x="31" y="4" class="ColorScheme-ButtonHover" fill="currentColor"
      opacity="0.34" />
    <g id="east-hover-bottomleft" class="ColorScheme-ButtonHover" fill="currentColor">
      <rect width="3" height="1" x="0" y="18" fill="none" />
      <rect width="3" height="3" x="0" y="15" />
    </g>
    <g id="east-hover-bottom" class="ColorScheme-ButtonHover" fill="currentColor" opacity="0.34">
      <rect width="28" height="1" x="3" y="18" fill="none" />
      <rect width="28" height="3" x="3" y="15" />
    </g>
    <g id="east-hover-bottomright" class="ColorScheme-ButtonHover" fill="currentColor" opacity="0.34">
      <rect width="3" height="1" x="31" y="18" fill="none" />
      <rect width="3" height="3" x="31" y="15" />
    </g>
  </g>
  <g id="g-attention" transform="translate(0,76)">
    <g id="attention-topleft" class="ColorScheme-NeutralText" fill="currentColor" opacity="0.8">
      <rect width="1" height="3" x="0" y="0" fill="none" />
      <rect width="3" height="3" x="1" y="0" />
    </g>
    <rect id="attention-top" width="26" height="3" x="4" y="0" class="ColorScheme-NeutralText" fill="currentColor"
      opacity="0.8" />
    <g id="attention-topright" class="ColorScheme-NeutralText" fill="currentColor" opacity="0.8">
      <rect width="1" height="3" x="33" y="0" fill="none" />
      <rect width="3" height="3" x="30" y="0" />
    </g>
    <g id="attention-left" class="ColorScheme-NeutralText" fill="currentColor" opacity="0.35">
      <rect width="1" height="13" x="0" y="3" fill="none" />
      <rect width="3" height="13" x="1" y="3" />
    </g>
    <rect id="attention-center" width="26" height="13" x="4" y="3" class="ColorScheme-NeutralText" fill="currentColor"
      opacity="0.35" />
    <g id="attention-right" class="ColorScheme-NeutralText" fill="currentColor" opacity="0.35">
      <rect width="1" height="13" x="33" y="3" fill="none" />
      <rect width="3" height="13" x="30" y="3" />
    </g>
    <g id="attention-bottomleft" class="ColorScheme-NeutralText" fill="currentColor" opacity="0.35">
      <rect width="1" height="3" x="0" y="16" fill="none" />
      <rect width="3" height="3" x="1" y="16" />
    </g>
    <rect id="attention-bottom" width="26" height="3" x="4" y="16" class="ColorScheme-NeutralText" fill="currentColor"
      opacity="0.35" />
    <g id="attention-bottomright" class="ColorScheme-NeutralText" fill="currentColor" opacity="0.35">
      <rect width="1" height="3" x="33" y="16" fill="none" />
      <rect width="3" height="3" x="30" y="16" />
    </g>
  </g>
  <g id="g-north-attention" transform="translate(34,76)">
    <g id="north-attention-topleft" class="ColorScheme-NeutralText" fill="currentColor" opacity="0.35">
      <rect width="1" height="3" x="0" y="0" fill="none" />
      <rect width="3" height="3" x="1" y="0" />
    </g>
    <rect id="north-attention-top" width="26" height="3" x="4" y="0" class="ColorScheme-NeutralText" fill="currentColor"
      opacity="0.35" />
    <g id="north-attention-topright" class="ColorScheme-NeutralText" fill="currentColor" opacity="0.35">
      <rect width="1" height="3" x="33" y="0" fill="none" />
      <rect width="3" height="3" x="30" y="0" />
    </g>
    <g id="north-attention-left" class="ColorScheme-NeutralText" fill="currentColor" opacity="0.35">
      <rect width="1" height="13" x="0" y="3" fill="none" />
      <rect width="3" height="13" x="1" y="3" />
    </g>
    <rect id="north-attention-center" width="26" height="13" x="4" y="3" class="ColorScheme-NeutralText"
      fill="currentColor" opacity="0.35" />
    <g id="north-attention-right" class="ColorScheme-NeutralText" fill="currentColor" opacity="0.35">
      <rect width="1" height="13" x="33" y="3" fill="none" />
      <rect width="3" height="13" x="30" y="3" />
    </g>
    <g id="north-attention-bottomleft" class="ColorScheme-NeutralText" fill="currentColor" opacity="0.8">
      <rect width="1" height="3" x="0" y="16" fill="none" />
      <rect width="3" height="3" x="1" y="16" />
    </g>
    <rect id="north-attention-bottom" width="26" height="3" x="4" y="16" class="ColorScheme-NeutralText"
      fill="currentColor" opacity="0.8" />
    <g id="north-attention-bottomright" class="ColorScheme-NeutralText" fill="currentColor" opacity="0.8">
      <rect width="1" height="3" x="33" y="16" fill="none" />
      <rect width="3" height="3" x="30" y="16" />
    </g>
  </g>
  <g id="g-west-attention" transform="translate(68,76)">
    <g id="west-attention-topleft" class="ColorScheme-NeutralText" fill="currentColor" opacity="0.35">
      <rect width="3" height="1" x="0" y="0" fill="none" />
      <rect width="3" height="3" x="0" y="1" />
    </g>
    <g id="west-attention-top" class="ColorScheme-NeutralText" fill="currentColor" opacity="0.35">
      <rect width="28" height="1" x="3" y="0" fill="none" />
      <rect width="28" height="3" x="3" y="1" />
    </g>
    <g id="west-attention-topright" class="ColorScheme-NeutralText" fill="currentColor" opacity="0.8">
      <rect width="3" height="1" x="31" y="0" fill="none" />
      <rect width="3" height="3" x="31" y="1" />
    </g>
    <rect id="west-attention-left" width="3" height="11" x="0" y="4" class="ColorScheme-NeutralText" fill="currentColor"
      opacity="0.35" />
    <rect id="west-attention-center" width="28" height="11" x="3" y="4" class="ColorScheme-NeutralText"
      fill="currentColor" opacity="0.35" />
    <rect id="west-attention-right" width="3" height="11" x="31" y="4" class="ColorScheme-NeutralText"
      fill="currentColor" opacity="0.8" />
    <g id="west-attention-bottomleft" class="ColorScheme-NeutralText" fill="currentColor" opacity="0.35">
      <rect width="3" height="1" x="0" y="18" fill="none" />
      <rect width="3" height="3" x="0" y="15" />
    </g>
    <g id="west-attention-bottom" class="ColorScheme-NeutralText" fill="currentColor" opacity="0.35">
      <rect width="28" height="1" x="3" y="18" fill="none" />
      <rect width="28" height="3" x="3" y="15" />
    </g>
    <g id="west-attention-bottomright" class="ColorScheme-NeutralText" fill="currentColor" opacity="0.8">
      <rect width="3" height="1" x="31" y="18" fill="none" />
      <rect width="3" height="3" x="31" y="15" />
    </g>
  </g>
  <g id="g-east-attention" transform="translate(102,76)">
    <g id="east-attention-topleft" class="ColorScheme-NeutralText" fill="currentColor" opacity="0.8">
      <rect width="3" height="1" x="0" y="0" fill="none" />
      <rect width="3" height="3" x="0" y="1" />
    </g>
    <g id="east-attention-top" class="ColorScheme-NeutralText" fill="currentColor" opacity="0.35">
      <rect width="28" height="1" x="3" y="0" fill="none" />
      <rect width="28" height="3" x="3" y="1" />
    </g>
    <g id="east-attention-topright" class="ColorScheme-NeutralText" fill="currentColor" opacity="0.35">
      <rect width="3" height="1" x="31" y="0" fill="none" />
      <rect width="3" height="3" x="31" y="1" />
    </g>
    <rect id="east-attention-left" width="3" height="11" x="0" y="4" class="ColorScheme-NeutralText" fill="currentColor"
      opacity="0.8" />
    <rect id="east-attention-center" width="28" height="11" x="3" y="4" class="ColorScheme-NeutralText"
      fill="currentColor" opacity="0.35" />
    <rect id="east-attention-right" width="3" height="11" x="31" y="4" class="ColorScheme-NeutralText"
      fill="currentColor" opacity="0.35" />
    <g id="east-attention-bottomleft" class="ColorScheme-NeutralText" fill="currentColor" opacity="0.8">
      <rect width="3" height="1" x="0" y="18" fill="none" />
      <rect width="3" height="3" x="0" y="15" />
    </g>
    <g id="east-attention-bottom" class="ColorScheme-NeutralText" fill="currentColor" opacity="0.35">
      <rect width="28" height="1" x="3" y="18" fill="none" />
      <rect width="28" height="3" x="3" y="15" />
    </g>
    <g id="east-attention-bottomright" class="ColorScheme-NeutralText" fill="currentColor" opacity="0.35">
      <rect width="3" height="1" x="31" y="18" fill="none" />
      <rect width="3" height="3" x="31" y="15" />
    </g>
  </g>
  <g id="g-minimized" transform="translate(0,95)">
    <g id="minimized-topleft" class="ColorScheme-Text" fill="currentColor" opacity="0.08">
      <rect width="1" height="3" x="0" y="0" fill="none" />
      <rect width="3" height="3" x="1" y="0" />
    </g>
    <rect id="minimized-top" width="26" height="3" x="4" y="0" class="ColorScheme-Text" fill="currentColor"
      opacity="0.08" />
    <g id="minimized-topright" class="ColorScheme-Text" fill="currentColor" opacity="0.08">
      <rect width="1" height="3" x="33" y="0" fill="none" />
      <rect width="3" height="3" x="30" y="0" />
    </g>
    <g id="minimized-left" class="ColorScheme-Text" fill="currentColor" opacity="0.08">
      <rect width="1" height="13" x="0" y="3" fill="none" />
      <rect width="3" height="13" x="1" y="3" />
    </g>
    <rect id="minimized-center" width="26" height="13" x="4" y="3" class="ColorScheme-Text" fill="currentColor"
      opacity="0.08" />
    <g id="minimized-right" class="ColorScheme-Text" fill="currentColor" opacity="0.08">
      <rect width="1" height="13" x="33" y="3" fill="none" />
      <rect width="3" height="13" x="30" y="3" />
    </g>
    <g id="minimized-bottomleft" class="ColorScheme-Text" fill="currentColor" opacity="0.08">
      <rect width="1" height="3" x="0" y="16" fill="none" />
      <rect width="3" height="3" x="1" y="16" />
    </g>
    <rect id="minimized-bottom" width="26" height="3" x="4" y="16" class="ColorScheme-Text" fill="currentColor"
      opacity="0.08" />
    <g id="minimized-bottomright" class="ColorScheme-Text" fill="currentColor" opacity="0.08">
      <rect width="1" height="3" x="33" y="16" fill="none" />
      <rect width="3" height="3" x="30" y="16" />
    </g>
  </g>
  <g id="g-north-minimized" transform="translate(34,95)">
    <g id="north-minimized-topleft" class="ColorScheme-Text" fill="currentColor" opacity="0.08">
      <rect width="1" height="3" x="0" y="0" fill="none" />
      <rect width="3" height="3" x="1" y="0" />
    </g>
    <rect id="north-minimized-top" width="26" height="3" x="4" y="0" class="ColorScheme-Text" fill="currentColor"
      opacity="0.08" />
    <g id="north-minimized-topright" class="ColorScheme-Text" fill="currentColor" opacity="0.08">
      <rect width="1" height="3" x="33" y="0" fill="none" />
      <rect width="3" height="3" x="30" y="0" />
    </g>
    <g id="north-minimized-left" class="ColorScheme-Text" fill="currentColor" opacity="0.08">
      <rect width="1" height="13" x="0" y="3" fill="none" />
      <rect width="3" height="13" x="1" y="3" />
    </g>
    <rect id="north-minimized-center" width="26" height="13" x="4" y="3" class="ColorScheme-Text" fill="currentColor"
      opacity="0.08" />
    <g id="north-minimized-right" class="ColorScheme-Text" fill="currentColor" opacity="0.08">
      <rect width="1" height="13" x="33" y="3" fill="none" />
      <rect width="3" height="13" x="30" y="3" />
    </g>
    <g id="north-minimized-bottomleft" class="ColorScheme-Text" fill="currentColor" opacity="0.08">
      <rect width="1" height="3" x="0" y="16" fill="none" />
      <rect width="3" height="3" x="1" y="16" />
    </g>
    <rect id="north-minimized-bottom" width="26" height="3" x="4" y="16" class="ColorScheme-Text" fill="currentColor"
      opacity="0.08" />
    <g id="north-minimized-bottomright" class="ColorScheme-Text" fill="currentColor" opacity="0.08">
      <rect width="1" height="3" x="33" y="16" fill="none" />
      <rect width="3" height="3" x="30" y="16" />
    </g>
  </g>
  <g id="g-west-minimized" transform="translate(68,95)">
    <g id="west-minimized-topleft" class="ColorScheme-Text" fill="currentColor" opacity="0.08">
      <rect width="3" height="1" x="0" y="0" fill="none" />
      <rect width="3" height="3" x="0" y="1" />
    </g>
    <g id="west-minimized-top" class="ColorScheme-Text" fill="currentColor" opacity="0.08">
      <rect width="28" height="1" x="3" y="0" fill="none" />
      <rect width="28" height="3" x="3" y="1" />
    </g>
    <g id="west-minimized-topright" class="ColorScheme-Text" fill="currentColor" opacity="0.08">
      <rect width="3" height="1" x="31" y="0" fill="none" />
      <rect width="3" height="3" x="31" y="1" />
    </g>
    <rect id="west-minimized-left" width="3" height="11" x="0" y="4" class="ColorScheme-Text" fill="currentColor"
      opacity="0.08" />
    <rect id="west-minimized-center" width="28" height="11" x="3" y="4" class="ColorScheme-Text" fill="currentColor"
      opacity="0.08" />
    <rect id="west-minimized-right" width="3" height="11" x="31" y="4" class="ColorScheme-Text" fill="currentColor"
      opacity="0.08" />
    <g id="west-minimized-bottomleft" class="ColorScheme-Text" fill="currentColor" opacity="0.08">
      <rect width="3" height="1" x="0" y="18" fill="none" />
      <rect width="3" height="3" x="0" y="15" />
    </g>
    <g id="west-minimized-bottom" class="ColorScheme-Text" fill="currentColor" opacity="0.08">
      <rect width="28" height="1" x="3" y="18" fill="none" />
      <rect width="28" height="3" x="3" y="15" />
    </g>
    <g id="west-minimized-bottomright" class="ColorScheme-Text" fill="currentColor" opacity="0.08">
      <rect width="3" height="1" x="31" y="18" fill="none" />
      <rect width="3" height="3" x="31" y="15" />
    </g>
  </g>
  <g id="g-east-minimized" transform="translate(102,95)">
    <g id="east-minimized-topleft" class="ColorScheme-Text" fill="currentColor" opacity="0.08">
      <rect width="3" height="1" x="0" y="0" fill="none" />
      <rect width="3" height="3" x="0" y="1" />
    </g>
    <g id="east-minimized-top" class="ColorScheme-Text" fill="currentColor" opacity="0.08">
      <rect width="28" height="1" x="3" y="0" fill="none" />
      <rect width="28" height="3" x="3" y="1" />
    </g>
    <g id="east-minimized-topright" class="ColorScheme-Text" fill="currentColor" opacity="0.08">
      <rect width="3" height="1" x="31" y="0" fill="none" />
      <rect width="3" height="3" x="31" y="1" />
    </g>
    <rect id="east-minimized-left" width="3" height="11" x="0" y="4" class="ColorScheme-Text" fill="currentColor"
      opacity="0.08" />
    <rect id="east-minimized-center" width="28" height="11" x="3" y="4" class="ColorScheme-Text" fill="currentColor"
      opacity="0.08" />
    <rect id="east-minimized-right" width="3" height="11" x="31" y="4" class="ColorScheme-Text" fill="currentColor"
      opacity="0.08" />
    <g id="east-minimized-bottomleft" class="ColorScheme-Text" fill="currentColor" opacity="0.08">
      <rect width="3" height="1" x="0" y="18" fill="none" />
      <rect width="3" height="3" x="0" y="15" />
    </g>
    <g id="east-minimized-bottom" class="ColorScheme-Text" fill="currentColor" opacity="0.08">
      <rect width="28" height="1" x="3" y="18" fill="none" />
      <rect width="28" height="3" x="3" y="15" />
    </g>
    <g id="east-minimized-bottomright" class="ColorScheme-Text" fill="currentColor" opacity="0.08">
      <rect width="3" height="1" x="31" y="18" fill="none" />
      <rect width="3" height="3" x="31" y="15" />
    </g>
  </g>
  <g id="group-expander-top" transform="translate(0,114)">
    <path d="M 5.5,0 A 5.5,5.5 0 0 0 0,5.5 5.5,5.5 0 0 0 5.5,11 5.5,5.5 0 0 0 11,5.5 5.5,5.5 0 0 0 5.5,0 Z"
      opacity="0.25" />
    <path d="M 5.5,1 A 4.5,4.5 0 0 0 1,5.5 4.5,4.5 0 0 0 5.5,10 4.5,4.5 0 0 0 10,5.5 4.5,4.5 0 0 0 5.5,1 Z"
      fill="#2ecc71" />
    <path
      d="M 4.492,2.5 4.493,4.493 2.495,4.507 2.504,6.494 4.507,6.505 4.5,8.502 6.487,8.496 6.496,6.502 H 8.5 V 4.507 H 6.488 L 6.513,2.5 Z"
      opacity="0.25" />
    <path
      d="M 4.993,3 4.994,4.993 2.996,5.007 3.005,5.994 5.008,6.005 5.001,8.003 5.988,7.997 5.997,6.003 H 8.001 V 5.007 H 5.988 L 6.013,3 Z"
      fill="#ffffff" />
  </g>
  <g id="group-expander-left" transform="translate(11,114)">
    <path d="M 5.5,0 A 5.5,5.5 0 0 0 0,5.5 5.5,5.5 0 0 0 5.5,11 5.5,5.5 0 0 0 11,5.5 5.5,5.5 0 0 0 5.5,0 Z"
      opacity="0.25" />
    <path d="M 5.5,1 A 4.5,4.5 0 0 0 1,5.5 4.5,4.5 0 0 0 5.5,10 4.5,4.5 0 0 0 10,5.5 4.5,4.5 0 0 0 5.5,1 Z"
      fill="#2ecc71" />
    <path
      d="M 4.492,2.5 4.493,4.493 2.495,4.507 2.504,6.494 4.507,6.505 4.5,8.502 6.487,8.496 6.496,6.502 H 8.5 V 4.507 H 6.488 L 6.513,2.5 Z"
      opacity="0.25" />
    <path
      d="M 4.993,3 4.994,4.993 2.996,5.007 3.005,5.994 5.008,6.005 5.001,8.003 5.988,7.997 5.997,6.003 H 8.001 V 5.007 H 5.988 L 6.013,3 Z"
      fill="#ffffff" />
  </g>
  <g id="group-expander-right" transform="translate(22,114)">
    <path d="M 5.5,0 A 5.5,5.5 0 0 0 0,5.5 5.5,5.5 0 0 0 5.5,11 5.5,5.5 0 0 0 11,5.5 5.5,5.5 0 0 0 5.5,0 Z"
      opacity="0.25" />
    <path d="M 5.5,1 A 4.5,4.5 0 0 0 1,5.5 4.5,4.5 0 0 0 5.5,10 4.5,4.5 0 0 0 10,5.5 4.5,4.5 0 0 0 5.5,1 Z"
      fill="#2ecc71" />
    <path
      d="M 4.492,2.5 4.493,4.493 2.495,4.507 2.504,6.494 4.507,6.505 4.5,8.502 6.487,8.496 6.496,6.502 H 8.5 V 4.507 H 6.488 L 6.513,2.5 Z"
      opacity="0.25" />
    <path
      d="M 4.993,3 4.994,4.993 2.996,5.007 3.005,5.994 5.008,6.005 5.001,8.003 5.988,7.997 5.997,6.003 H 8.001 V 5.007 H 5.988 L 6.013,3 Z"
      fill="#ffffff" />
  </g>
  <g id="group-expander-bottom" transform="translate(33,114)">
    <path d="M 5.5,0 A 5.5,5.5 0 0 0 0,5.5 5.5,5.5 0 0 0 5.5,11 5.5,5.5 0 0 0 11,5.5 5.5,5.5 0 0 0 5.5,0 Z"
      opacity="0.25" />
    <path d="M 5.5,1 A 4.5,4.5 0 0 0 1,5.5 4.5,4.5 0 0 0 5.5,10 4.5,4.5 0 0 0 10,5.5 4.5,4.5 0 0 0 5.5,1 Z"
      fill="#2ecc71" />
    <path
      d="M 4.492,2.5 4.493,4.493 2.495,4.507 2.504,6.494 4.507,6.505 4.5,8.502 6.487,8.496 6.496,6.502 H 8.5 V 4.507 H 6.488 L 6.513,2.5 Z"
      opacity="0.25" />
    <path
      d="M 4.993,3 4.994,4.993 2.996,5.007 3.005,5.994 5.008,6.005 5.001,8.003 5.988,7.997 5.997,6.003 H 8.001 V 5.007 H 5.988 L 6.013,3 Z"
      fill="#ffffff" />
  </g>
  <rect id="normal-hint-top-margin" x="15" y="38" width="4" height="4" fill="#ff00ff" />
  <rect id="normal-hint-bottom-margin" x="1" y="45.5" width="4" height="4" fill="#ff00ff" />
  <rect id="normal-hint-right-margin" x="29" y="45.5" width="4" height="4" fill="#ff00ff" />
  <rect id="normal-hint-left-margin" x="15" y="53" width="4" height="4" fill="#ff00ff" />
</svg>