<svg width="264" height="288" version="1.1" xmlns="http://www.w3.org/2000/svg" xmlns:svg="http://www.w3.org/2000/svg">
  <style id="current-color-scheme" type="text/css">
    .ColorScheme-Text {
      color: #e2e2e5;
    }

    .ColorScheme-Highlight {
      color: #95ccff;
    }

    .ColorScheme-Background {
      color: #282a2d;
    }
  </style>
  <g id="0">
    <rect width="48" height="72" rx="4" class="ColorScheme-Highlight" fill="currentColor" />
    <rect width="48" height="72" rx="4" fill="#000000" opacity="0.7" />
    <path class="ColorScheme-Highlight" fill="currentColor"
      d="m 40.767,35.965 q 0,8.136 -1.698,14.008 -1.698,5.801 -5.377,8.914 Q 30.014,62 23.929,62 15.369,62 11.265,55.137 7.233,48.204 7.233,35.965 q 0,-8.207 1.627,-14.008 1.698,-5.801 5.377,-8.844 Q 17.916,10 23.929,10 q 8.49,0 12.664,6.863 4.174,6.792 4.174,19.102 z m -27.309,0 q 0,10.4 2.335,15.565 2.405,5.165 8.136,5.165 5.66,0 8.065,-5.094 2.476,-5.165 2.476,-15.635 0,-10.329 -2.476,-15.494 -2.405,-5.165 -8.065,-5.165 -5.731,0 -8.136,5.165 -2.335,5.165 -2.335,15.494 z" />
    <path fill="#ffffff" opacity="0.5"
      d="m 40.767,35.965 q 0,8.136 -1.698,14.008 -1.698,5.801 -5.377,8.914 Q 30.014,62 23.929,62 15.369,62 11.265,55.137 7.233,48.204 7.233,35.965 q 0,-8.207 1.627,-14.008 1.698,-5.801 5.377,-8.844 Q 17.916,10 23.929,10 q 8.49,0 12.664,6.863 4.174,6.792 4.174,19.102 z m -27.309,0 q 0,10.4 2.335,15.565 2.405,5.165 8.136,5.165 5.66,0 8.065,-5.094 2.476,-5.165 2.476,-15.635 0,-10.329 -2.476,-15.494 -2.405,-5.165 -8.065,-5.165 -5.731,0 -8.136,5.165 -2.335,5.165 -2.335,15.494 z" />
  </g>
  <g id="1" transform="translate(48)">
    <rect width="48" height="72" rx="4" class="ColorScheme-Highlight" fill="currentColor" />
    <rect width="48" height="72" rx="4" fill="#000000" opacity="0.7" />
    <path class="ColorScheme-Highlight" fill="currentColor"
      d="M 33.686,62 H 27.423 V 25.658 q 0,-3.132 0.073,-5.025 0.073,-1.894 0.218,-3.933 -1.165,1.165 -2.112,1.966 -0.947,0.801 -2.403,2.039 L 17.664,25.221 14.314,20.924 28.37,10 h 5.317 z" />
    <path fill="#ffffff" opacity="0.5"
      d="M 33.686,62 H 27.423 V 25.658 q 0,-3.132 0.073,-5.025 0.073,-1.894 0.218,-3.933 -1.165,1.165 -2.112,1.966 -0.947,0.801 -2.403,2.039 L 17.664,25.221 14.314,20.924 28.37,10 h 5.317 z" />
  </g>
  <g id="2" transform="translate(96)">
    <rect width="48" height="72" rx="4" class="ColorScheme-Highlight" fill="currentColor" />
    <rect width="48" height="72" rx="4" fill="#000000" opacity="0.7" />
    <path class="ColorScheme-Highlight" fill="currentColor"
      d="M 40.95,62 H 7.05 V 56.757 L 20.481,43.182 q 3.878,-3.878 6.536,-6.895 2.657,-3.017 4.022,-5.89 1.365,-2.945 1.365,-6.392 0,-4.238 -2.514,-6.392 -2.514,-2.227 -6.536,-2.227 -3.735,0 -6.608,1.293 Q 13.945,17.972 11,20.271 L 7.624,16.033 Q 10.641,13.519 14.519,11.796 18.47,10 23.354,10 q 7.182,0 11.348,3.663 4.166,3.591 4.166,9.983 0,4.022 -1.652,7.541 -1.652,3.519 -4.597,6.967 -2.945,3.376 -6.895,7.254 L 15.022,55.967 v 0.287 h 25.928 z" />
    <path fill="#ffffff" opacity="0.5"
      d="M 40.95,62 H 7.05 V 56.757 L 20.481,43.182 q 3.878,-3.878 6.536,-6.895 2.657,-3.017 4.022,-5.89 1.365,-2.945 1.365,-6.392 0,-4.238 -2.514,-6.392 -2.514,-2.227 -6.536,-2.227 -3.735,0 -6.608,1.293 Q 13.945,17.972 11,20.271 L 7.624,16.033 Q 10.641,13.519 14.519,11.796 18.47,10 23.354,10 q 7.182,0 11.348,3.663 4.166,3.591 4.166,9.983 0,4.022 -1.652,7.541 -1.652,3.519 -4.597,6.967 -2.945,3.376 -6.895,7.254 L 15.022,55.967 v 0.287 h 25.928 z" />
  </g>
  <g id="3" transform="translate(144)">
    <rect width="48" height="72" rx="4" class="ColorScheme-Highlight" fill="currentColor" />
    <rect width="48" height="72" rx="4" fill="#000000" opacity="0.7" />
    <path class="ColorScheme-Highlight" fill="currentColor"
      d="m 39.09,22.54 q 0,5.101 -2.834,8.147 -2.834,2.975 -7.651,3.967 v 0.283 q 6.093,0.708 9.068,3.826 2.975,3.117 2.975,8.147 0,4.392 -2.054,7.864 -2.054,3.401 -6.376,5.313 Q 27.967,62 21.237,62 17.27,62 13.869,61.362 10.469,60.796 7.351,59.237 v -5.809 q 3.188,1.559 6.872,2.48 3.684,0.85 7.084,0.85 6.801,0 9.777,-2.621 3.046,-2.692 3.046,-7.368 0,-4.747 -3.755,-6.801 -3.684,-2.125 -10.414,-2.125 H 15.074 V 32.529 h 4.959 q 6.234,0 9.422,-2.621 3.259,-2.621 3.259,-6.943 0,-3.684 -2.48,-5.668 -2.48,-2.054 -6.73,-2.054 -4.109,0 -7.014,1.204 -2.905,1.204 -5.738,3.046 L 7.635,15.243 Q 10.327,13.117 14.294,11.559 18.332,10 23.433,10 q 7.935,0 11.76,3.542 3.896,3.542 3.896,8.997 z" />
    <path fill="#ffffff" opacity="0.5"
      d="m 39.09,22.54 q 0,5.101 -2.834,8.147 -2.834,2.975 -7.651,3.967 v 0.283 q 6.093,0.708 9.068,3.826 2.975,3.117 2.975,8.147 0,4.392 -2.054,7.864 -2.054,3.401 -6.376,5.313 Q 27.967,62 21.237,62 17.27,62 13.869,61.362 10.469,60.796 7.351,59.237 v -5.809 q 3.188,1.559 6.872,2.48 3.684,0.85 7.084,0.85 6.801,0 9.777,-2.621 3.046,-2.692 3.046,-7.368 0,-4.747 -3.755,-6.801 -3.684,-2.125 -10.414,-2.125 H 15.074 V 32.529 h 4.959 q 6.234,0 9.422,-2.621 3.259,-2.621 3.259,-6.943 0,-3.684 -2.48,-5.668 -2.48,-2.054 -6.73,-2.054 -4.109,0 -7.014,1.204 -2.905,1.204 -5.738,3.046 L 7.635,15.243 Q 10.327,13.117 14.294,11.559 18.332,10 23.433,10 q 7.935,0 11.76,3.542 3.896,3.542 3.896,8.997 z" />
  </g>
  <g id="4" transform="translate(192)">
    <rect width="48" height="72" rx="4" class="ColorScheme-Highlight" fill="currentColor" />
    <rect width="48" height="72" rx="4" fill="#000000" opacity="0.7" />
    <path class="ColorScheme-Highlight" fill="currentColor"
      d="M 43.228,50.267 H 35.696 V 62 H 29.54 V 50.267 H 4.772 V 44.836 L 29.106,10 h 6.591 v 34.546 h 7.532 z M 29.54,28.251 q 0,-3.766 0.145,-6.373 0.145,-2.68 0.217,-5.07 h -0.29 q -0.579,1.376 -1.448,2.969 -0.869,1.593 -1.666,2.68 L 11,44.546 h 18.54 z" />
    <path fill="#ffffff" opacity="0.5"
      d="M 43.228,50.267 H 35.696 V 62 H 29.54 V 50.267 H 4.772 V 44.836 L 29.106,10 h 6.591 v 34.546 h 7.532 z M 29.54,28.251 q 0,-3.766 0.145,-6.373 0.145,-2.68 0.217,-5.07 h -0.29 q -0.579,1.376 -1.448,2.969 -0.869,1.593 -1.666,2.68 L 11,44.546 h 18.54 z" />
  </g>
  <g id="5" transform="translate(0,72)">
    <rect width="48" height="72" rx="4" class="ColorScheme-Highlight" fill="currentColor" />
    <rect width="48" height="72" rx="4" fill="#000000" opacity="0.7" />
    <path class="ColorScheme-Highlight" fill="currentColor"
      d="m 22.994,29.823 q 7.901,0 12.569,3.95 4.669,3.95 4.669,11.133 0,7.972 -5.099,12.569 Q 30.105,62 21.055,62 17.105,62 13.586,61.282 10.138,60.564 7.768,59.199 v -5.961 q 2.586,1.58 6.249,2.514 3.735,0.862 7.11,0.862 5.674,0 9.122,-2.657 3.519,-2.729 3.519,-8.403 0,-5.028 -3.088,-7.685 -3.088,-2.729 -9.768,-2.729 -2.011,0 -4.597,0.359 -2.586,0.359 -4.166,0.718 L 8.989,34.204 10.928,10 h 25.713 v 5.746 H 16.315 L 15.094,30.613 q 1.221,-0.215 3.304,-0.503 2.083,-0.287 4.597,-0.287 z" />
    <path fill="#ffffff" opacity="0.5"
      d="m 22.994,29.823 q 7.901,0 12.569,3.95 4.669,3.95 4.669,11.133 0,7.972 -5.099,12.569 Q 30.105,62 21.055,62 17.105,62 13.586,61.282 10.138,60.564 7.768,59.199 v -5.961 q 2.586,1.58 6.249,2.514 3.735,0.862 7.11,0.862 5.674,0 9.122,-2.657 3.519,-2.729 3.519,-8.403 0,-5.028 -3.088,-7.685 -3.088,-2.729 -9.768,-2.729 -2.011,0 -4.597,0.359 -2.586,0.359 -4.166,0.718 L 8.989,34.204 10.928,10 h 25.713 v 5.746 H 16.315 L 15.094,30.613 q 1.221,-0.215 3.304,-0.503 2.083,-0.287 4.597,-0.287 z" />
  </g>
  <g id="6" transform="translate(48,72)">
    <rect width="48" height="72" rx="4" class="ColorScheme-Highlight" fill="currentColor" />
    <rect width="48" height="72" rx="4" fill="#000000" opacity="0.7" />
    <path class="ColorScheme-Highlight" fill="currentColor"
      d="m 7.351,39.684 q 0,-5.455 0.921,-10.698 0.992,-5.313 3.471,-9.564 2.55,-4.322 7.084,-6.872 Q 23.362,10 30.518,10 q 1.488,0 3.259,0.142 1.842,0.142 2.975,0.496 v 5.313 q -1.275,-0.425 -2.905,-0.638 -1.559,-0.213 -3.188,-0.213 -4.888,0 -8.147,1.629 -3.259,1.629 -5.172,4.463 -1.842,2.834 -2.692,6.518 -0.85,3.684 -1.063,7.864 h 0.425 q 1.629,-2.48 4.534,-4.18 2.905,-1.771 7.439,-1.771 6.589,0 10.627,4.038 4.038,3.967 4.038,11.335 0,7.935 -4.392,12.469 Q 31.935,62 24.567,62 19.749,62 15.853,59.591 11.956,57.183 9.619,52.223 7.351,47.264 7.351,39.684 Z M 24.496,56.757 q 4.463,0 7.226,-2.834 2.763,-2.905 2.763,-8.926 0,-4.817 -2.48,-7.651 -2.409,-2.834 -7.297,-2.834 -3.33,0 -5.809,1.417 -2.48,1.346 -3.896,3.471 -1.346,2.125 -1.346,4.392 0,3.046 1.204,6.093 1.204,2.975 3.613,4.959 2.409,1.913 6.022,1.913 z" />
    <path fill="#ffffff" opacity="0.5"
      d="m 7.351,39.684 q 0,-5.455 0.921,-10.698 0.992,-5.313 3.471,-9.564 2.55,-4.322 7.084,-6.872 Q 23.362,10 30.518,10 q 1.488,0 3.259,0.142 1.842,0.142 2.975,0.496 v 5.313 q -1.275,-0.425 -2.905,-0.638 -1.559,-0.213 -3.188,-0.213 -4.888,0 -8.147,1.629 -3.259,1.629 -5.172,4.463 -1.842,2.834 -2.692,6.518 -0.85,3.684 -1.063,7.864 h 0.425 q 1.629,-2.48 4.534,-4.18 2.905,-1.771 7.439,-1.771 6.589,0 10.627,4.038 4.038,3.967 4.038,11.335 0,7.935 -4.392,12.469 Q 31.935,62 24.567,62 19.749,62 15.853,59.591 11.956,57.183 9.619,52.223 7.351,47.264 7.351,39.684 Z M 24.496,56.757 q 4.463,0 7.226,-2.834 2.763,-2.905 2.763,-8.926 0,-4.817 -2.48,-7.651 -2.409,-2.834 -7.297,-2.834 -3.33,0 -5.809,1.417 -2.48,1.346 -3.896,3.471 -1.346,2.125 -1.346,4.392 0,3.046 1.204,6.093 1.204,2.975 3.613,4.959 2.409,1.913 6.022,1.913 z" />
  </g>
  <g id="7" transform="translate(96,72)">
    <rect width="48" height="72" rx="4" class="ColorScheme-Highlight" fill="currentColor" />
    <rect width="48" height="72" rx="4" fill="#000000" opacity="0.7" />
    <path class="ColorScheme-Highlight" fill="currentColor"
      d="M 13.258,62 34.597,15.826 H 6.557 V 10 h 34.885 v 4.952 L 20.322,62 Z" />
    <path d="M 13.258,62 34.597,15.826 H 6.557 V 10 h 34.885 v 4.952 L 20.322,62 Z" fill="#ffffff" opacity="0.5" />
  </g>
  <g id="8" transform="translate(144,72)">
    <rect width="48" height="72" rx="4" class="ColorScheme-Highlight" fill="currentColor" />
    <rect width="48" height="72" rx="4" fill="#000000" opacity="0.7" />
    <path class="ColorScheme-Highlight" fill="currentColor"
      d="m 23.965,10 q 6.659,0 10.91,3.117 4.251,3.117 4.251,8.997 0,3.046 -1.346,5.313 -1.275,2.267 -3.471,4.038 -2.196,1.7 -4.817,3.046 3.117,1.488 5.668,3.401 2.55,1.842 4.038,4.322 1.559,2.48 1.559,5.951 0,6.376 -4.534,10.131 Q 31.757,62 24.177,62 16.03,62 11.638,58.458 7.245,54.845 7.245,48.398 q 0,-3.471 1.417,-6.022 1.488,-2.55 3.896,-4.392 2.409,-1.842 5.172,-3.117 -3.684,-2.125 -6.305,-5.101 -2.55,-3.046 -2.55,-7.722 0,-3.896 1.984,-6.518 1.984,-2.692 5.384,-4.109 Q 19.643,10 23.965,10 Z m -0.071,5.03 q -3.896,0 -6.447,1.913 -2.48,1.842 -2.48,5.384 0,2.621 1.204,4.392 1.275,1.771 3.401,3.046 2.125,1.204 4.676,2.338 3.684,-1.559 6.163,-3.755 2.55,-2.196 2.55,-6.022 0,-3.542 -2.48,-5.384 -2.48,-1.913 -6.589,-1.913 z M 13.338,48.469 q 0,3.684 2.621,6.163 2.621,2.409 8.076,2.409 5.172,0 7.864,-2.409 2.763,-2.48 2.763,-6.376 0,-3.684 -2.905,-6.093 -2.905,-2.48 -7.722,-4.322 l -1.134,-0.425 q -4.676,1.984 -7.155,4.605 -2.409,2.55 -2.409,6.447 z" />
    <path fill="#ffffff" opacity="0.5"
      d="m 23.965,10 q 6.659,0 10.91,3.117 4.251,3.117 4.251,8.997 0,3.046 -1.346,5.313 -1.275,2.267 -3.471,4.038 -2.196,1.7 -4.817,3.046 3.117,1.488 5.668,3.401 2.55,1.842 4.038,4.322 1.559,2.48 1.559,5.951 0,6.376 -4.534,10.131 Q 31.757,62 24.177,62 16.03,62 11.638,58.458 7.245,54.845 7.245,48.398 q 0,-3.471 1.417,-6.022 1.488,-2.55 3.896,-4.392 2.409,-1.842 5.172,-3.117 -3.684,-2.125 -6.305,-5.101 -2.55,-3.046 -2.55,-7.722 0,-3.896 1.984,-6.518 1.984,-2.692 5.384,-4.109 Q 19.643,10 23.965,10 Z m -0.071,5.03 q -3.896,0 -6.447,1.913 -2.48,1.842 -2.48,5.384 0,2.621 1.204,4.392 1.275,1.771 3.401,3.046 2.125,1.204 4.676,2.338 3.684,-1.559 6.163,-3.755 2.55,-2.196 2.55,-6.022 0,-3.542 -2.48,-5.384 -2.48,-1.913 -6.589,-1.913 z M 13.338,48.469 q 0,3.684 2.621,6.163 2.621,2.409 8.076,2.409 5.172,0 7.864,-2.409 2.763,-2.48 2.763,-6.376 0,-3.684 -2.905,-6.093 -2.905,-2.48 -7.722,-4.322 l -1.134,-0.425 q -4.676,1.984 -7.155,4.605 -2.409,2.55 -2.409,6.447 z" />
  </g>
  <g id="9" transform="translate(192,72)">
    <rect width="48" height="72" rx="4" class="ColorScheme-Highlight" fill="currentColor" />
    <rect width="48" height="72" rx="4" fill="#000000" opacity="0.7" />
    <path class="ColorScheme-Highlight" fill="currentColor"
      d="m 40.649,32.316 q 0,5.455 -0.992,10.768 -0.921,5.243 -3.471,9.564 -2.48,4.251 -7.084,6.801 Q 24.567,62 17.411,62 q -1.417,0 -3.33,-0.213 -1.842,-0.142 -3.046,-0.496 v -5.313 q 2.763,0.921 6.234,0.921 4.959,0 8.147,-1.629 3.259,-1.629 5.172,-4.392 1.913,-2.834 2.763,-6.518 0.85,-3.755 0.992,-7.864 h -0.425 q -1.559,2.409 -4.534,4.18 -2.905,1.7 -7.51,1.7 -6.518,0 -10.556,-3.967 -3.967,-4.038 -3.967,-11.335 0,-5.313 1.984,-9.139 Q 11.39,14.109 15.003,12.054 18.616,10 23.504,10 q 4.817,0 8.714,2.48 3.896,2.409 6.163,7.368 2.267,4.888 2.267,12.469 z M 23.504,15.243 q -4.392,0 -7.226,2.905 -2.763,2.905 -2.763,8.856 0,4.888 2.338,7.722 2.409,2.763 7.368,2.763 3.401,0 5.88,-1.346 2.48,-1.417 3.826,-3.542 1.417,-2.125 1.417,-4.392 0,-3.046 -1.204,-6.022 -1.204,-2.975 -3.613,-4.959 -2.409,-1.984 -6.022,-1.984 z" />
    <path fill="#ffffff" opacity="0.5"
      d="m 40.649,32.316 q 0,5.455 -0.992,10.768 -0.921,5.243 -3.471,9.564 -2.48,4.251 -7.084,6.801 Q 24.567,62 17.411,62 q -1.417,0 -3.33,-0.213 -1.842,-0.142 -3.046,-0.496 v -5.313 q 2.763,0.921 6.234,0.921 4.959,0 8.147,-1.629 3.259,-1.629 5.172,-4.392 1.913,-2.834 2.763,-6.518 0.85,-3.755 0.992,-7.864 h -0.425 q -1.559,2.409 -4.534,4.18 -2.905,1.7 -7.51,1.7 -6.518,0 -10.556,-3.967 -3.967,-4.038 -3.967,-11.335 0,-5.313 1.984,-9.139 Q 11.39,14.109 15.003,12.054 18.616,10 23.504,10 q 4.817,0 8.714,2.48 3.896,2.409 6.163,7.368 2.267,4.888 2.267,12.469 z M 23.504,15.243 q -4.392,0 -7.226,2.905 -2.763,2.905 -2.763,8.856 0,4.888 2.338,7.722 2.409,2.763 7.368,2.763 3.401,0 5.88,-1.346 2.48,-1.417 3.826,-3.542 1.417,-2.125 1.417,-4.392 0,-3.046 -1.204,-6.022 -1.204,-2.975 -3.613,-4.959 -2.409,-1.984 -6.022,-1.984 z" />
  </g>
  <g id="0_1" transform="translate(0,144)">
    <rect width="48" height="72" rx="4" class="ColorScheme-Background" fill="currentColor" />
    <rect width="48" height="72" rx="4" fill="#ffffff" opacity="0.05" />
    <path class="ColorScheme-Text" fill="currentColor"
      d="m 40.767,35.965 q 0,8.136 -1.698,14.008 -1.698,5.801 -5.377,8.914 Q 30.014,62 23.929,62 15.369,62 11.265,55.137 7.233,48.204 7.233,35.965 q 0,-8.207 1.627,-14.008 1.698,-5.801 5.377,-8.844 Q 17.916,10 23.929,10 q 8.49,0 12.664,6.863 4.174,6.792 4.174,19.102 z m -27.309,0 q 0,10.4 2.335,15.565 2.405,5.165 8.136,5.165 5.66,0 8.065,-5.094 2.476,-5.165 2.476,-15.635 0,-10.329 -2.476,-15.494 -2.405,-5.165 -8.065,-5.165 -5.731,0 -8.136,5.165 -2.335,5.165 -2.335,15.494 z" />
  </g>
  <g id="1_1" transform="translate(48,144)">
    <rect width="48" height="72" rx="4" class="ColorScheme-Background" fill="currentColor" />
    <rect width="48" height="72" rx="4" fill="#ffffff" opacity="0.05" />
    <path class="ColorScheme-Text" fill="currentColor"
      d="M 33.686,62 H 27.423 V 25.658 q 0,-3.132 0.073,-5.025 0.073,-1.894 0.218,-3.933 -1.165,1.165 -2.112,1.966 -0.947,0.801 -2.403,2.039 L 17.664,25.221 14.314,20.924 28.37,10 h 5.317 z" />
  </g>
  <g id="2_1" transform="translate(96,144)">
    <rect width="48" height="72" rx="4" class="ColorScheme-Background" fill="currentColor" />
    <rect width="48" height="72" rx="4" fill="#ffffff" opacity="0.05" />
    <path class="ColorScheme-Text" fill="currentColor"
      d="M 40.95,62 H 7.05 V 56.757 L 20.481,43.182 q 3.878,-3.878 6.536,-6.895 2.657,-3.017 4.022,-5.89 1.365,-2.945 1.365,-6.392 0,-4.238 -2.514,-6.392 -2.514,-2.227 -6.536,-2.227 -3.735,0 -6.608,1.293 Q 13.945,17.972 11,20.271 L 7.624,16.033 Q 10.641,13.519 14.519,11.796 18.47,10 23.354,10 q 7.182,0 11.348,3.663 4.166,3.591 4.166,9.983 0,4.022 -1.652,7.541 -1.652,3.519 -4.597,6.967 -2.945,3.376 -6.895,7.254 L 15.022,55.967 v 0.287 h 25.928 z" />
  </g>
  <g id="3_1" transform="translate(144,144)">
    <rect width="48" height="72" rx="4" class="ColorScheme-Background" fill="currentColor" />
    <rect width="48" height="72" rx="4" fill="#ffffff" opacity="0.05" />
    <path class="ColorScheme-Text" fill="currentColor"
      d="m 39.09,22.54 q 0,5.101 -2.834,8.147 -2.834,2.975 -7.651,3.967 v 0.283 q 6.093,0.708 9.068,3.826 2.975,3.117 2.975,8.147 0,4.392 -2.054,7.864 -2.054,3.401 -6.376,5.313 Q 27.967,62 21.237,62 17.27,62 13.869,61.362 10.469,60.796 7.351,59.237 v -5.809 q 3.188,1.559 6.872,2.48 3.684,0.85 7.084,0.85 6.801,0 9.777,-2.621 3.046,-2.692 3.046,-7.368 0,-4.747 -3.755,-6.801 -3.684,-2.125 -10.414,-2.125 H 15.074 V 32.529 h 4.959 q 6.234,0 9.422,-2.621 3.259,-2.621 3.259,-6.943 0,-3.684 -2.48,-5.668 -2.48,-2.054 -6.73,-2.054 -4.109,0 -7.014,1.204 -2.905,1.204 -5.738,3.046 L 7.635,15.243 Q 10.327,13.117 14.294,11.559 18.332,10 23.433,10 q 7.935,0 11.76,3.542 3.896,3.542 3.896,8.997 z" />
  </g>
  <g id="4_1" transform="translate(192,144)">
    <rect width="48" height="72" rx="4" class="ColorScheme-Background" fill="currentColor" />
    <rect width="48" height="72" rx="4" fill="#ffffff" opacity="0.05" />
    <path class="ColorScheme-Text" fill="currentColor"
      d="M 43.228,50.267 H 35.696 V 62 H 29.54 V 50.267 H 4.772 V 44.836 L 29.106,10 h 6.591 v 34.546 h 7.532 z M 29.54,28.251 q 0,-3.766 0.145,-6.373 0.145,-2.68 0.217,-5.07 h -0.29 q -0.579,1.376 -1.448,2.969 -0.869,1.593 -1.666,2.68 L 11,44.546 h 18.54 z" />
  </g>
  <g id="5_1" transform="translate(0,216)">
    <rect width="48" height="72" rx="4" class="ColorScheme-Background" fill="currentColor" />
    <rect width="48" height="72" rx="4" fill="#ffffff" opacity="0.05" />
    <path class="ColorScheme-Text" fill="currentColor"
      d="m 22.994,29.823 q 7.901,0 12.569,3.95 4.669,3.95 4.669,11.133 0,7.972 -5.099,12.569 Q 30.105,62 21.055,62 17.105,62 13.586,61.282 10.138,60.564 7.768,59.199 v -5.961 q 2.586,1.58 6.249,2.514 3.735,0.862 7.11,0.862 5.674,0 9.122,-2.657 3.519,-2.729 3.519,-8.403 0,-5.028 -3.088,-7.685 -3.088,-2.729 -9.768,-2.729 -2.011,0 -4.597,0.359 -2.586,0.359 -4.166,0.718 L 8.989,34.204 10.928,10 h 25.713 v 5.746 H 16.315 L 15.094,30.613 q 1.221,-0.215 3.304,-0.503 2.083,-0.287 4.597,-0.287 z" />
  </g>
  <g id="6_1" transform="translate(48,216)">
    <rect width="48" height="72" rx="4" class="ColorScheme-Background" fill="currentColor" />
    <rect width="48" height="72" rx="4" fill="#ffffff" opacity="0.05" />
    <path class="ColorScheme-Text" fill="currentColor"
      d="m 7.351,39.684 q 0,-5.455 0.921,-10.698 0.992,-5.313 3.471,-9.564 2.55,-4.322 7.084,-6.872 Q 23.362,10 30.518,10 q 1.488,0 3.259,0.142 1.842,0.142 2.975,0.496 v 5.313 q -1.275,-0.425 -2.905,-0.638 -1.559,-0.213 -3.188,-0.213 -4.888,0 -8.147,1.629 -3.259,1.629 -5.172,4.463 -1.842,2.834 -2.692,6.518 -0.85,3.684 -1.063,7.864 h 0.425 q 1.629,-2.48 4.534,-4.18 2.905,-1.771 7.439,-1.771 6.589,0 10.627,4.038 4.038,3.967 4.038,11.335 0,7.935 -4.392,12.469 Q 31.935,62 24.567,62 19.749,62 15.853,59.591 11.956,57.183 9.619,52.223 7.351,47.264 7.351,39.684 Z M 24.496,56.757 q 4.463,0 7.226,-2.834 2.763,-2.905 2.763,-8.926 0,-4.817 -2.48,-7.651 -2.409,-2.834 -7.297,-2.834 -3.33,0 -5.809,1.417 -2.48,1.346 -3.896,3.471 -1.346,2.125 -1.346,4.392 0,3.046 1.204,6.093 1.204,2.975 3.613,4.959 2.409,1.913 6.022,1.913 z" />
  </g>
  <g id="7_1" transform="translate(96,216)">
    <rect width="48" height="72" rx="4" class="ColorScheme-Background" fill="currentColor" />
    <rect width="48" height="72" rx="4" fill="#ffffff" opacity="0.05" />
    <path class="ColorScheme-Text" fill="currentColor"
      d="M 13.258,62 34.597,15.826 H 6.557 V 10 h 34.885 v 4.952 L 20.322,62 Z" />
  </g>
  <g id="8_1" transform="translate(144,216)">
    <rect width="48" height="72" rx="4" class="ColorScheme-Background" fill="currentColor" />
    <rect width="48" height="72" rx="4" fill="#ffffff" opacity="0.05" />
    <path class="ColorScheme-Text" fill="currentColor"
      d="m 23.965,10 q 6.659,0 10.91,3.117 4.251,3.117 4.251,8.997 0,3.046 -1.346,5.313 -1.275,2.267 -3.471,4.038 -2.196,1.7 -4.817,3.046 3.117,1.488 5.668,3.401 2.55,1.842 4.038,4.322 1.559,2.48 1.559,5.951 0,6.376 -4.534,10.131 Q 31.757,62 24.177,62 16.03,62 11.638,58.458 7.245,54.845 7.245,48.398 q 0,-3.471 1.417,-6.022 1.488,-2.55 3.896,-4.392 2.409,-1.842 5.172,-3.117 -3.684,-2.125 -6.305,-5.101 -2.55,-3.046 -2.55,-7.722 0,-3.896 1.984,-6.518 1.984,-2.692 5.384,-4.109 Q 19.643,10 23.965,10 Z m -0.071,5.03 q -3.896,0 -6.447,1.913 -2.48,1.842 -2.48,5.384 0,2.621 1.204,4.392 1.275,1.771 3.401,3.046 2.125,1.204 4.676,2.338 3.684,-1.559 6.163,-3.755 2.55,-2.196 2.55,-6.022 0,-3.542 -2.48,-5.384 -2.48,-1.913 -6.589,-1.913 z M 13.338,48.469 q 0,3.684 2.621,6.163 2.621,2.409 8.076,2.409 5.172,0 7.864,-2.409 2.763,-2.48 2.763,-6.376 0,-3.684 -2.905,-6.093 -2.905,-2.48 -7.722,-4.322 l -1.134,-0.425 q -4.676,1.984 -7.155,4.605 -2.409,2.55 -2.409,6.447 z" />
  </g>
  <g id="9_1" transform="translate(192,216)">
    <rect width="48" height="72" rx="4" class="ColorScheme-Background" fill="currentColor" />
    <rect width="48" height="72" rx="4" fill="#ffffff" opacity="0.05" />
    <path class="ColorScheme-Text" fill="currentColor"
      d="m 40.649,32.316 q 0,5.455 -0.992,10.768 -0.921,5.243 -3.471,9.564 -2.48,4.251 -7.084,6.801 Q 24.567,62 17.411,62 q -1.417,0 -3.33,-0.213 -1.842,-0.142 -3.046,-0.496 v -5.313 q 2.763,0.921 6.234,0.921 4.959,0 8.147,-1.629 3.259,-1.629 5.172,-4.392 1.913,-2.834 2.763,-6.518 0.85,-3.755 0.992,-7.864 h -0.425 q -1.559,2.409 -4.534,4.18 -2.905,1.7 -7.51,1.7 -6.518,0 -10.556,-3.967 -3.967,-4.038 -3.967,-11.335 0,-5.313 1.984,-9.139 Q 11.39,14.109 15.003,12.054 18.616,10 23.504,10 q 4.817,0 8.714,2.48 3.896,2.409 6.163,7.368 2.267,4.888 2.267,12.469 z M 23.504,15.243 q -4.392,0 -7.226,2.905 -2.763,2.905 -2.763,8.856 0,4.888 2.338,7.722 2.409,2.763 7.368,2.763 3.401,0 5.88,-1.346 2.48,-1.417 3.826,-3.542 1.417,-2.125 1.417,-4.392 0,-3.046 -1.204,-6.022 -1.204,-2.975 -3.613,-4.959 -2.409,-1.984 -6.022,-1.984 z" />
  </g>
  <g id="separator" transform="translate(240)">
    <rect width="24" height="72" fill="none" />
    <path class="ColorScheme-Text" fill="currentColor"
      d="m 7.608,20.839 q 0,-2.692 1.275,-3.755 1.275,-1.063 3.046,-1.063 1.842,0 3.117,1.063 1.346,1.063 1.346,3.755 0,2.55 -1.346,3.684 -1.275,1.134 -3.117,1.134 -1.771,0 -3.046,-1.134 Q 7.608,23.39 7.608,20.839 Z m 0,30.321 q 0,-2.621 1.275,-3.684 1.275,-1.063 3.046,-1.063 1.842,0 3.117,1.063 1.346,1.063 1.346,3.684 0,2.55 -1.346,3.684 Q 13.771,55.978 11.929,55.978 10.158,55.978 8.883,54.844 7.608,53.711 7.608,51.161 Z" />
  </g>
  <g id="separatorB" transform="translate(240,72)">
    <rect width="24" height="72" x="0" fill="none" />
    <path class="ColorScheme-Text" fill="currentColor"
      d="m 7.608,51.161 q 0,-2.621 1.275,-3.684 1.275,-1.063 3.046,-1.063 1.842,0 3.117,1.063 1.346,1.063 1.346,3.684 0,2.55 -1.346,3.684 -1.275,1.134 -3.117,1.134 -1.771,0 -3.046,-1.134 -1.275,-1.134 -1.275,-3.684 z" />
  </g>
  <g id="separatorC" transform="translate(240)">
    <rect width="24" height="72" x="0" fill="none" />
  </g>
  <g id="separator_1" transform="translate(240,144)">
    <rect width="24" height="72" fill="none" />
    <path class="ColorScheme-Text" fill="currentColor"
      d="m 7.608,20.839 q 0,-2.692 1.275,-3.755 1.275,-1.063 3.046,-1.063 1.842,0 3.117,1.063 1.346,1.063 1.346,3.755 0,2.55 -1.346,3.684 -1.275,1.134 -3.117,1.134 -1.771,0 -3.046,-1.134 Q 7.608,23.39 7.608,20.839 Z m 0,30.321 q 0,-2.621 1.275,-3.684 1.275,-1.063 3.046,-1.063 1.842,0 3.117,1.063 1.346,1.063 1.346,3.684 0,2.55 -1.346,3.684 Q 13.771,55.978 11.929,55.978 10.158,55.978 8.883,54.844 7.608,53.711 7.608,51.161 Z" />
  </g>
  <g id="separatorB_1" transform="translate(240,216)">
    <rect width="24" height="72" x="0" fill="none" />
    <path class="ColorScheme-Text" fill="currentColor"
      d="m 7.608,51.161 q 0,-2.621 1.275,-3.684 1.275,-1.063 3.046,-1.063 1.842,0 3.117,1.063 1.346,1.063 1.346,3.684 0,2.55 -1.346,3.684 -1.275,1.134 -3.117,1.134 -1.771,0 -3.046,-1.134 -1.275,-1.134 -1.275,-3.684 z" />
  </g>
  <g id="separatorC_1" transform="translate(240,144)">
    <rect width="24" height="72" x="0" fill="none" />
  </g>
</svg>