<?xml version="1.0" encoding="UTF-8" standalone="no"?>
<svg
   width="96"
   height="112"
   version="1.1"
   id="svg26"
   sodipodi:docname="timer.svg"
   inkscape:version="1.3.2 (1:1.3.2+202311252150+091e20ef0f)"
   xmlns:inkscape="http://www.inkscape.org/namespaces/inkscape"
   xmlns:sodipodi="http://sodipodi.sourceforge.net/DTD/sodipodi-0.dtd"
   xmlns="http://www.w3.org/2000/svg"
   xmlns:svg="http://www.w3.org/2000/svg">
  <defs
     id="defs26" />
  <sodipodi:namedview
     id="namedview26"
     pagecolor="#505050"
     bordercolor="#ffffff"
     borderopacity="1"
     inkscape:showpageshadow="0"
     inkscape:pageopacity="0"
     inkscape:pagecheckerboard="1"
     inkscape:deskcolor="#505050"
     inkscape:zoom="10.392857"
     inkscape:cx="48.013746"
     inkscape:cy="-13.47079"
     inkscape:window-width="2560"
     inkscape:window-height="1357"
     inkscape:window-x="0"
     inkscape:window-y="45"
     inkscape:window-maximized="1"
     inkscape:current-layer="svg26" />
  <style
     id="current-color-scheme"
     type="text/css">
    .ColorScheme-Text {
      color: #e2e2e5;
    }

    .ColorScheme-NegativeText {
      color: #ff5540;
    }
  </style>
  <g
     id="0">
    <rect
       width="15.276"
       height="28"
       fill="none"
       id="rect1" />
    <path
       d="m 4.888,24.675 h 5.5 q 1.2,0 2.1,-0.9 0.9,-0.9 0.9,-2.1 V 6.325 q 0,-1.2 -0.9,-2.1 -0.9,-0.9 -2.1,-0.9 h -5.5 q -1.2,0 -2.1,0.9 -0.9,0.9 -0.9,2.1 v 15.35 q 0,1.2 0.9,2.1 0.9,0.9 2.1,0.9 z m 0,-18.35 h 5.5 v 15.35 h -5.5 z"
       class="ColorScheme-Text"
       fill="currentColor"
       id="path1" />
  </g>
  <g
     id="1"
     transform="translate(16)">
    <rect
       width="15.276"
       height="28"
       fill="none"
       id="rect2" />
    <path
       d="m 8.213,24.125 h 3 V 3.875 h -7.15 v 3 h 4.15 z"
       class="ColorScheme-Text"
       fill="currentColor"
       id="path2" />
  </g>
  <g
     id="2"
     transform="translate(32)">
    <rect
       width="15.276"
       height="28"
       fill="none"
       id="rect3" />
    <path
       d="m 1.888,24.125 h 11.5 v -3 h -8.5 v -5.6 h 5.5 q 1.2,0 2.1,-0.9 0.9,-0.9 0.9,-2.1 v -5.65 q 0,-1.2 -0.9,-2.1 -0.9,-0.9 -2.1,-0.9 h -8.5 v 3 h 8.5 v 5.65 h -5.5 q -1.238,0 -2.119,0.9 -0.881,0.9 -0.881,2.1 z"
       class="ColorScheme-Text"
       fill="currentColor"
       id="path3" />
  </g>
  <g
     id="3"
     transform="translate(48)">
    <rect
       width="15.276"
       height="28"
       fill="none"
       id="rect4" />
    <path
       d="m 1.888,24.125 h 8.5 q 1.2,0 2.1,-0.9 0.9,-0.9 0.9,-2.1 v -4.2 q 0,-1.35 -0.75,-2.125 -0.75,-0.775 -1.75,-0.775 1,0 1.75,-0.675 0.75,-0.675 0.75,-2.025 v -4.45 q 0,-1.2 -0.9,-2.1 -0.9,-0.9 -2.1,-0.9 h -8.5 v 3 h 8.5 v 5.65 h -4.15 v 3 h 4.15 v 5.6 h -8.5 z"
       class="ColorScheme-Text"
       fill="currentColor"
       id="path4" />
  </g>
  <g
     id="4"
     transform="translate(64)">
    <rect
       width="15.276"
       height="28"
       fill="none"
       id="rect5" />
    <path
       d="m 10.388,24.125 h 3 V 3.875 h -3 v 7.4 h -5.5 v -7.4 h -3 v 10.4 h 8.5 z"
       class="ColorScheme-Text"
       fill="currentColor"
       id="path5" />
  </g>
  <g
     id="5"
     transform="translate(0,28)">
    <rect
       width="15.276"
       height="28"
       fill="none"
       id="rect6" />
    <path
       d="m 1.888,24.125 h 8.5 q 1.2,0 2.1,-0.9 0.9,-0.9 0.9,-2.1 v -5.6 q 0,-1.2 -0.9,-2.1 -0.9,-0.9 -2.1,-0.9 h -5.5 v -5.65 h 8.5 v -3 h -11.5 v 11.65 h 8.5 v 5.6 h -8.5 z"
       class="ColorScheme-Text"
       fill="currentColor"
       id="path6" />
  </g>
  <g
     id="6"
     transform="translate(16,28)">
    <rect
       width="15.276"
       height="28"
       fill="none"
       id="rect7" />
    <path
       d="m 4.888,24.125 h 5.5 q 1.2,0 2.1,-0.9 0.9,-0.9 0.9,-2.1 v -5.6 q 0,-1.2 -0.9,-2.1 -0.9,-0.9 -2.1,-0.9 h -5.5 v -5.65 h 6.35 v -3 h -6.35 q -1.2,0 -2.1,0.9 -0.9,0.9 -0.9,2.1 v 14.25 q 0,1.2 0.9,2.1 0.9,0.9 2.1,0.9 z m 0,-8.6 h 5.5 v 5.6 h -5.5 z"
       class="ColorScheme-Text"
       fill="currentColor"
       id="path7" />
  </g>
  <g
     id="7"
     transform="translate(32,28)">
    <rect
       width="15.276"
       height="28"
       fill="none"
       id="rect8" />
    <path
       d="m 3.288,24.125 h 3 l 7.1,-17.25 v -3 h -11.5 v 3 h 8.5 z"
       class="ColorScheme-Text"
       fill="currentColor"
       id="path8" />
  </g>
  <g
     id="8"
     transform="translate(48,28)">
    <rect
       width="15.276"
       height="28"
       fill="none"
       id="rect9" />
    <path
       d="m 4.888,24.675 h 5.5 q 1.2,0 2.1,-0.9 0.9,-0.9 0.9,-2.1 v -4.75 q 0,-1.35 -0.725,-2.15 -0.725,-0.8 -1.725,-0.8 1,0 1.725,-0.675 0.725,-0.675 0.725,-2.025 v -4.95 q 0,-1.2 -0.9,-2.1 -0.9,-0.9 -2.1,-0.9 h -5.5 q -1.2,0 -2.1,0.9 -0.9,0.9 -0.9,2.1 v 4.95 q 0,1.35 0.75,2.025 0.75,0.675 1.75,0.675 -1,0 -1.75,0.8 -0.75,0.8 -0.75,2.15 v 4.75 q 0,1.2 0.9,2.1 0.9,0.9 2.1,0.9 z m 0,-18.35 h 5.5 v 6.15 h -5.5 z m 0,15.35 v -6.2 h 5.5 v 6.2 z"
       class="ColorScheme-Text"
       fill="currentColor"
       id="path9" />
  </g>
  <g
     id="9"
     transform="translate(64,28)">
    <rect
       width="15.276"
       height="28"
       fill="none"
       id="rect10" />
    <path
       d="m 4.088,24.125 h 6.3 q 1.2,0 2.1,-0.9 0.9,-0.9 0.9,-2.1 V 6.875 q 0,-1.2 -0.9,-2.1 -0.9,-0.9 -2.1,-0.9 h -5.5 q -1.2,0 -2.1,0.9 -0.9,0.9 -0.9,2.1 v 5.65 q 0,1.2 0.9,2.1 0.9,0.9 2.1,0.9 h 5.5 v 5.6 h -6.3 z m 6.3,-11.6 h -5.5 v -5.65 h 5.5 z"
       class="ColorScheme-Text"
       fill="currentColor"
       id="path10" />
  </g>
  <g
     id="0_1"
     transform="translate(0,56)">
    <rect
       width="15.276"
       height="28"
       fill="none"
       id="rect11" />
    <path
       d="m 4.888,24.675 h 5.5 q 1.2,0 2.1,-0.9 0.9,-0.9 0.9,-2.1 V 6.325 q 0,-1.2 -0.9,-2.1 -0.9,-0.9 -2.1,-0.9 h -5.5 q -1.2,0 -2.1,0.9 -0.9,0.9 -0.9,2.1 v 15.35 q 0,1.2 0.9,2.1 0.9,0.9 2.1,0.9 z m 0,-18.35 h 5.5 v 15.35 h -5.5 z"
       class="ColorScheme-NegativeText"
       fill="currentColor"
       id="path11" />
  </g>
  <g
     id="1_1"
     transform="translate(16,56)">
    <rect
       width="15.276"
       height="28"
       fill="none"
       id="rect12" />
    <path
       d="m 8.213,24.125 h 3 V 3.875 h -7.15 v 3 h 4.15 z"
       class="ColorScheme-NegativeText"
       fill="currentColor"
       id="path12" />
  </g>
  <g
     id="2_1"
     transform="translate(32,56)">
    <rect
       width="15.276"
       height="28"
       fill="none"
       id="rect13" />
    <path
       d="m 1.888,24.125 h 11.5 v -3 h -8.5 v -5.6 h 5.5 q 1.2,0 2.1,-0.9 0.9,-0.9 0.9,-2.1 v -5.65 q 0,-1.2 -0.9,-2.1 -0.9,-0.9 -2.1,-0.9 h -8.5 v 3 h 8.5 v 5.65 h -5.5 q -1.238,0 -2.119,0.9 -0.881,0.9 -0.881,2.1 z"
       class="ColorScheme-NegativeText"
       fill="currentColor"
       id="path13" />
  </g>
  <g
     id="3_1"
     transform="translate(48,56)">
    <rect
       width="15.276"
       height="28"
       fill="none"
       id="rect14" />
    <path
       d="m 1.888,24.125 h 8.5 q 1.2,0 2.1,-0.9 0.9,-0.9 0.9,-2.1 v -4.2 q 0,-1.35 -0.75,-2.125 -0.75,-0.775 -1.75,-0.775 1,0 1.75,-0.675 0.75,-0.675 0.75,-2.025 v -4.45 q 0,-1.2 -0.9,-2.1 -0.9,-0.9 -2.1,-0.9 h -8.5 v 3 h 8.5 v 5.65 h -4.15 v 3 h 4.15 v 5.6 h -8.5 z"
       class="ColorScheme-NegativeText"
       fill="currentColor"
       id="path14" />
  </g>
  <g
     id="4_1"
     transform="translate(64,56)">
    <rect
       width="15.276"
       height="28"
       fill="none"
       id="rect15" />
    <path
       d="m 10.388,24.125 h 3 V 3.875 h -3 v 7.4 h -5.5 v -7.4 h -3 v 10.4 h 8.5 z"
       class="ColorScheme-NegativeText"
       fill="currentColor"
       id="path15" />
  </g>
  <g
     id="5_1"
     transform="translate(0,84)">
    <rect
       width="15.276"
       height="28"
       fill="none"
       id="rect16" />
    <path
       d="m 1.888,24.125 h 8.5 q 1.2,0 2.1,-0.9 0.9,-0.9 0.9,-2.1 v -5.6 q 0,-1.2 -0.9,-2.1 -0.9,-0.9 -2.1,-0.9 h -5.5 v -5.65 h 8.5 v -3 h -11.5 v 11.65 h 8.5 v 5.6 h -8.5 z"
       class="ColorScheme-NegativeText"
       fill="currentColor"
       id="path16" />
  </g>
  <g
     id="6_1"
     transform="translate(16,84)">
    <rect
       width="15.276"
       height="28"
       fill="none"
       id="rect17" />
    <path
       d="m 4.888,24.125 h 5.5 q 1.2,0 2.1,-0.9 0.9,-0.9 0.9,-2.1 v -5.6 q 0,-1.2 -0.9,-2.1 -0.9,-0.9 -2.1,-0.9 h -5.5 v -5.65 h 6.35 v -3 h -6.35 q -1.2,0 -2.1,0.9 -0.9,0.9 -0.9,2.1 v 14.25 q 0,1.2 0.9,2.1 0.9,0.9 2.1,0.9 z m 0,-8.6 h 5.5 v 5.6 h -5.5 z"
       class="ColorScheme-NegativeText"
       fill="currentColor"
       id="path17" />
  </g>
  <g
     id="7_1"
     transform="translate(32,84)">
    <rect
       width="15.276"
       height="28"
       fill="none"
       id="rect18" />
    <path
       d="m 3.288,24.125 h 3 l 7.1,-17.25 v -3 h -11.5 v 3 h 8.5 z"
       class="ColorScheme-NegativeText"
       fill="currentColor"
       id="path18" />
  </g>
  <g
     id="8_1"
     transform="translate(48,84)">
    <rect
       width="15.276"
       height="28"
       fill="none"
       id="rect19" />
    <path
       d="m 4.888,24.675 h 5.5 q 1.2,0 2.1,-0.9 0.9,-0.9 0.9,-2.1 v -4.75 q 0,-1.35 -0.725,-2.15 -0.725,-0.8 -1.725,-0.8 1,0 1.725,-0.675 0.725,-0.675 0.725,-2.025 v -4.95 q 0,-1.2 -0.9,-2.1 -0.9,-0.9 -2.1,-0.9 h -5.5 q -1.2,0 -2.1,0.9 -0.9,0.9 -0.9,2.1 v 4.95 q 0,1.35 0.75,2.025 0.75,0.675 1.75,0.675 -1,0 -1.75,0.8 -0.75,0.8 -0.75,2.15 v 4.75 q 0,1.2 0.9,2.1 0.9,0.9 2.1,0.9 z m 0,-18.35 h 5.5 v 6.15 h -5.5 z m 0,15.35 v -6.2 h 5.5 v 6.2 z"
       class="ColorScheme-NegativeText"
       fill="currentColor"
       id="path19" />
  </g>
  <g
     id="9_1"
     transform="translate(64,84)">
    <rect
       width="15.276"
       height="28"
       fill="none"
       id="rect20" />
    <path
       d="m 4.088,24.125 h 6.3 q 1.2,0 2.1,-0.9 0.9,-0.9 0.9,-2.1 V 6.875 q 0,-1.2 -0.9,-2.1 -0.9,-0.9 -2.1,-0.9 h -5.5 q -1.2,0 -2.1,0.9 -0.9,0.9 -0.9,2.1 v 5.65 q 0,1.2 0.9,2.1 0.9,0.9 2.1,0.9 h 5.5 v 5.6 h -6.3 z m 6.3,-11.6 h -5.5 v -5.65 h 5.5 z"
       class="ColorScheme-NegativeText"
       fill="currentColor"
       id="path20" />
  </g>
  <g
     id="separator"
     transform="translate(80,0)">
    <rect
       width="7.718"
       height="28"
       fill="none"
       id="rect21" />
    <path
       d="M 2.359,9 V 6 h 3 v 3 z m 0,13 v -3 h 3 v 3 z"
       class="ColorScheme-Text"
       fill="currentColor"
       id="path21" />
  </g>
  <g
     id="separatorB"
     transform="translate(80,28)">
    <rect
       width="7.718"
       height="28"
       fill="none"
       id="rect22" />
    <path
       d="M 2.359,22  v -3 h 3 v 3 z"
       class="ColorScheme-Text"
       fill="currentColor"
       id="path22" />
  </g>
  <g
     id="separatorC"
     transform="translate(88,0)">
    <rect
       width="7.718"
       height="28"
       fill="none"
       id="rect23" />
  </g>
  <g
     id="separator_1"
     transform="translate(80,56)">
    <rect
       width="7.718"
       height="28"
       fill="none"
       id="rect24" />
    <path
       d="M 2.359,9 V 6 h 3 v 3 z m 0,13 v -3 h 3 v 3 z"
       class="ColorScheme-NegativeText"
       fill="currentColor"
       id="path24" />
  </g>
  <g
     id="separatorB_1"
     transform="translate(80,84)">
    <rect
       width="7.718"
       height="28"
       fill="none"
       id="rect25" />
    <path
       d="M 2.359,22  v -3 h 3 v 3 z"
       class="ColorScheme-NegativeText"
       fill="currentColor"
       id="path25" />
  </g>
  <g
     id="separatorC_1"
     transform="translate(88,56)">
    <rect
       width="7.718"
       height="28"
       fill="none"
       id="rect26" />
  </g>
  <path
     d="m -10.024646,-32.344 q 0,1.38 -0.288,2.376 -0.288,0.984 -0.912,1.512 -0.624,0.528 -1.656,0.528 -1.452,0 -2.148,-1.164 -0.684,-1.176 -0.684,-3.252 0,-1.392 0.276,-2.376 0.288,-0.984 0.912,-1.5 0.624,-0.528 1.644,-0.528 1.44,0 2.148,1.164 0.708,1.152 0.708,3.24 z m -4.632,0 q 0,1.764 0.396,2.64 0.408,0.876 1.38,0.876 0.96,0 1.368,-0.864 0.42,-0.876 0.42,-2.652 0,-1.752 -0.42,-2.628 -0.408,-0.876 -1.368,-0.876 -0.972,0 -1.38,0.876 -0.396,0.876 -0.396,2.628 z"
     id="text26"
     style="font-family:'Noto Sans';-inkscape-font-specification:'Noto Sans';fill:#00ffff"
     aria-label="0" />
  <path
     d="m -4.097913,-28.18 h -1.032 v -5.988 q 0,-0.516 0.012,-0.828 0.012,-0.312 0.036,-0.648 -0.192,0.192 -0.348,0.324 -0.156,0.132 -0.396,0.336 l -0.912,0.744 -0.552,-0.708 2.316,-1.8 h 0.876 z"
     id="text27"
     style="font-family:'Noto Sans';-inkscape-font-specification:'Noto Sans';fill:#00ffff"
     aria-label="1" />
  <path
     d="m 4.8673268,-28.120001 h -5.66399995 v -0.876 l 2.24399995,-2.268 q 0.648,-0.648 1.092,-1.152 0.444,-0.504 0.672,-0.984 0.228,-0.492 0.228,-1.068 0,-0.708 -0.42,-1.068 -0.42,-0.372 -1.092,-0.372 -0.624,0 -1.10399995,0.216 -0.468,0.216 -0.96,0.6 l -0.564,-0.708 q 0.504,-0.42 1.152,-0.708 0.65999995,-0.3 1.47599995,-0.3 1.2,0 1.896,0.612 0.696,0.6 0.696,1.668 0,0.672 -0.276,1.26 -0.276,0.588 -0.768,1.164 -0.492,0.564 -1.152,1.212 l -1.78799995,1.764 v 0.048 H 4.8673268 Z"
     id="text28"
     style="font-family:'Noto Sans';-inkscape-font-specification:'Noto Sans';fill:#00ffff"
     aria-label="2" />
  <path
     d="m 13.544566,-34.684001 q 0,0.864 -0.48,1.38 -0.48,0.504 -1.296,0.672 v 0.048 q 1.032,0.12 1.536,0.648 0.504,0.528 0.504,1.38 0,0.744 -0.348,1.332 -0.348,0.576 -1.08,0.9 -0.72,0.324 -1.86,0.324 -0.6719997,0 -1.2479997,-0.108 -0.576,-0.096 -1.104,-0.36 v -0.984 q 0.54,0.264 1.164,0.42 0.624,0.144 1.1999997,0.144 1.152,0 1.656,-0.444 0.516,-0.456 0.516,-1.248 0,-0.804 -0.636,-1.152 -0.624,-0.36 -1.764,-0.36 H 9.4765663 v -0.9 h 0.8399997 q 1.056,0 1.596,-0.444 0.552,-0.444 0.552,-1.176 0,-0.624 -0.42,-0.96 -0.42,-0.348 -1.14,-0.348 -0.696,0 -1.1879997,0.204 -0.492,0.204 -0.972,0.516 l -0.528,-0.72 q 0.456,-0.36 1.128,-0.624 0.6839997,-0.264 1.5479997,-0.264 1.344,0 1.992,0.6 0.66,0.6 0.66,1.524 z"
     id="text29"
     style="font-family:'Noto Sans';-inkscape-font-specification:'Noto Sans';fill:#00ffff"
     aria-label="3" />
  <path
     d="m 23.004556,-29.256979 h -1.248 v 1.944 h -1.02 v -1.944 h -4.104 v -0.9 l 4.032,-5.772 h 1.092 v 5.724 h 1.248 z m -2.268,-3.648 q 0,-0.624 0.024,-1.056 0.024,-0.444 0.036,-0.84 h -0.048 q -0.096,0.228 -0.24,0.492 -0.144,0.264 -0.276,0.444 l -2.568,3.66 h 3.072 z"
     id="text30"
     style="font-family:'Noto Sans';-inkscape-font-specification:'Noto Sans';fill:#00ffff"
     aria-label="4" />
  <path
     d="m 28.372546,-32.616979 q 1.32,0 2.1,0.66 0.78,0.66 0.78,1.86 0,1.332 -0.852,2.1 -0.84,0.756 -2.352,0.756 -0.66,0 -1.248,-0.12 -0.576,-0.12 -0.972,-0.348 v -0.996 q 0.432,0.264 1.044,0.42 0.624,0.144 1.188,0.144 0.948,0 1.524,-0.444 0.588,-0.456 0.588,-1.404 0,-0.84 -0.516,-1.284 -0.516,-0.456 -1.632,-0.456 -0.336,0 -0.768,0.06 -0.432,0.06 -0.696,0.12 l -0.528,-0.336 0.324,-4.044 h 4.296 v 0.96 h -3.396 l -0.204,2.484 q 0.204,-0.036 0.552,-0.084 0.348,-0.048 0.768,-0.048 z"
     id="text31"
     style="font-family:'Noto Sans';-inkscape-font-specification:'Noto Sans';fill:#00ffff"
     aria-label="5" />
  <path
     d="m 33.877854,-30.900978 q 0,-0.924 0.156,-1.812 0.168,-0.9 0.588,-1.62 0.432,-0.732 1.2,-1.164 0.768,-0.432 1.98,-0.432 0.252,0 0.552,0.024 0.312,0.024 0.504,0.084 v 0.9 q -0.216,-0.072 -0.492,-0.108 -0.264,-0.036 -0.54,-0.036 -0.828,0 -1.38,0.276 -0.552,0.276 -0.876,0.756 -0.312,0.48 -0.456,1.104 -0.144,0.624 -0.18,1.332 h 0.072 q 0.276,-0.42 0.768,-0.708 0.492,-0.3 1.26,-0.3 1.116,0 1.8,0.684 0.684,0.672 0.684,1.92 0,1.344 -0.744,2.112 -0.732,0.768 -1.98,0.768 -0.816,0 -1.476,-0.408 -0.66,-0.408 -1.056,-1.248 -0.384,-0.84 -0.384,-2.124 z m 2.904,2.892 q 0.756,0 1.224,-0.48 0.468,-0.492 0.468,-1.512 0,-0.816 -0.42,-1.296 -0.408,-0.48 -1.236,-0.48 -0.564,0 -0.984,0.24 -0.42,0.228 -0.66,0.588 -0.228,0.36 -0.228,0.744 0,0.516 0.204,1.032 0.204,0.504 0.612,0.84 0.408,0.324 1.02,0.324 z"
     id="text32"
     style="font-family:'Noto Sans';-inkscape-font-specification:'Noto Sans';fill:#00ffff"
     aria-label="6" />
  <path
     d="m 42.866097,-27.240978 3.516,-7.608 h -4.62 v -0.96 h 5.748 v 0.816 l -3.48,7.752 z"
     id="text33"
     style="font-family:'Noto Sans';-inkscape-font-specification:'Noto Sans';fill:#00ffff"
     aria-label="7" />
  <path
     d="m 52.58634,-35.928978 q 1.128,0 1.848,0.528 0.72,0.528 0.72,1.524 0,0.516 -0.228,0.9 -0.216,0.384 -0.588,0.684 -0.372,0.288 -0.816,0.516 0.528,0.252 0.96,0.576 0.432,0.312 0.684,0.732 0.264,0.42 0.264,1.008 0,1.08 -0.768,1.716 -0.756,0.624 -2.04,0.624 -1.38,0 -2.124,-0.6 -0.744,-0.612 -0.744,-1.704 0,-0.588 0.24,-1.02 0.252,-0.432 0.66,-0.744 0.408,-0.312 0.876,-0.528 -0.624,-0.36 -1.068,-0.864 -0.432,-0.516 -0.432,-1.308 0,-0.66 0.336,-1.104 0.336,-0.456 0.912,-0.696 0.576,-0.24 1.308,-0.24 z m -0.012,0.852 q -0.66,0 -1.092,0.324 -0.42,0.312 -0.42,0.912 0,0.444 0.204,0.744 0.216,0.3 0.576,0.516 0.36,0.204 0.792,0.396 0.624,-0.264 1.044,-0.636 0.432,-0.372 0.432,-1.02 0,-0.6 -0.42,-0.912 -0.42,-0.324 -1.116,-0.324 z m -1.788,5.664 q 0,0.624 0.444,1.044 0.444,0.408 1.368,0.408 0.876,0 1.332,-0.408 0.468,-0.42 0.468,-1.08 0,-0.624 -0.492,-1.032 -0.492,-0.42 -1.308,-0.732 l -0.192,-0.072 q -0.792,0.336 -1.212,0.78 -0.408,0.432 -0.408,1.092 z"
     id="text34"
     style="font-family:'Noto Sans';-inkscape-font-specification:'Noto Sans';fill:#00ffff"
     aria-label="8" />
  <path
     d="m 63.314585,-32.148978 q 0,0.924 -0.168,1.824 -0.156,0.888 -0.588,1.62 -0.42,0.72 -1.2,1.152 -0.768,0.432 -1.98,0.432 -0.24,0 -0.564,-0.036 -0.312,-0.024 -0.516,-0.084 v -0.9 q 0.468,0.156 1.056,0.156 0.84,0 1.38,-0.276 0.552,-0.276 0.876,-0.744 0.324,-0.48 0.468,-1.104 0.144,-0.636 0.168,-1.332 h -0.072 q -0.264,0.408 -0.768,0.708 -0.492,0.288 -1.272,0.288 -1.104,0 -1.788,-0.672 -0.672,-0.684 -0.672,-1.92 0,-0.9 0.336,-1.548 0.348,-0.648 0.96,-0.996 0.612,-0.348 1.44,-0.348 0.816,0 1.476,0.42 0.66,0.408 1.044,1.248 0.384,0.828 0.384,2.112 z m -2.904,-2.892 q -0.744,0 -1.224,0.492 -0.468,0.492 -0.468,1.5 0,0.828 0.396,1.308 0.408,0.468 1.248,0.468 0.576,0 0.996,-0.228 0.42,-0.24 0.648,-0.6 0.24,-0.36 0.24,-0.744 0,-0.516 -0.204,-1.02 -0.204,-0.504 -0.612,-0.84 -0.408,-0.336 -1.02,-0.336 z"
     id="text35"
     style="font-family:'Noto Sans';-inkscape-font-specification:'Noto Sans';fill:#00ffff"
     aria-label="9" />
  <path
     d="m 66.267641,-33.951999 q 0,-0.456 0.216,-0.636 0.216,-0.18 0.516,-0.18 0.312,0 0.528,0.18 0.228,0.18 0.228,0.636 0,0.432 -0.228,0.624 -0.216,0.192 -0.528,0.192 -0.3,0 -0.516,-0.192 -0.216,-0.192 -0.216,-0.624 z m 0,5.136 q 0,-0.444 0.216,-0.624 0.216,-0.18 0.516,-0.18 0.312,0 0.528,0.18 0.228,0.18 0.228,0.624 0,0.432 -0.228,0.624 -0.216,0.192 -0.528,0.192 -0.3,0 -0.516,-0.192 -0.216,-0.192 -0.216,-0.624 z"
     id="text36"
     style="font-family:'Noto Sans';-inkscape-font-specification:'Noto Sans';fill:#00ffff"
     aria-label=":" />
  <path
     d="m 71.42135,-28.815999 q 0,-0.444 0.216,-0.624 0.216,-0.18 0.516,-0.18 0.312,0 0.528,0.18 0.228,0.18 0.228,0.624 0,0.432 -0.228,0.624 -0.216,0.192 -0.528,0.192 -0.3,0 -0.516,-0.192 -0.216,-0.192 -0.216,-0.624 z"
     id="text37"
     style="font-family:'Noto Sans';-inkscape-font-specification:'Noto Sans';fill:#00ffff"
     aria-label="." />
</svg>
