<svg width="95" height="112" version="1.1" xmlns="http://www.w3.org/2000/svg" xmlns:svg="http://www.w3.org/2000/svg">
  <style id="current-color-scheme" type="text/css">
    .ColorScheme-Text {
      color: #e2e2e5;
    }

    .ColorScheme-NegativeText {
      color: #ff5540;
    }
  </style>
  <g id="g96">
    <g id="separator">
      <rect y="324.28" x="200" height="163.082" width="45"
        style="opacity:1;fill:none;fill-opacity:1;stroke:none;stroke-opacity:1" />
      <path
        style="font-size:144px;font-style:normal;font-weight:normal;fill:#202020;fill-opacity:1;stroke:none;stroke-width:1px;stroke-linecap:butt;stroke-linejoin:miter;stroke-opacity:1;font-family:Bitstream Vera Sans"
        d="M 215.899,424.229 L 230.735,424.229 L 230.735,442.089 L 215.899,442.089 L 215.899,424.229 M 215.899,367.628 L 230.735,367.628 L 230.735,385.487 L 215.899,385.487 L 215.899,367.628"
        id="text2242" />
    </g>
    <g id="separator_1">
      <rect y="324.28" x="200" height="163.082" width="45"
        style="opacity:1;fill:none;fill-opacity:1;stroke:none;stroke-opacity:1" />
      <text id="text2322" y="442.089" x="199.024"
        style="font-style:normal;font-weight:normal;line-height:0%;font-family:'Bitstream Vera Sans';fill:#eb0000;fill-opacity:1;stroke:none;stroke-width:1px;stroke-linecap:butt;stroke-linejoin:miter;stroke-opacity:1"
        xml:space="preserve">
        <tspan id="tspan2324" y="442.089" x="199.024" style="font-size:144px;line-height:1.25">:</tspan>
      </text>
    </g>
    <g id="separatorB_1">
      <rect y="324.28" x="200" height="163.082" width="45"
        style="opacity:1;fill:none;fill-opacity:1;stroke:none;stroke-opacity:1" />
      <path
        style="font-size:144px;font-style:normal;font-weight:normal;fill:#eb0000;fill-opacity:1;stroke:none;stroke-width:1px;stroke-linecap:butt;stroke-linejoin:miter;stroke-opacity:1;font-family:Bitstream Vera Sans"
        d="M 214.422,424.229 L 229.258,424.229 L 229.258,442.089 L 214.422,442.089 L 214.422,424.229" id="text2563" />
    </g>
    <g id="separatorB">
      <rect y="324.28" x="200" height="163.082" width="45"
        style="opacity:1;fill:none;fill-opacity:1;stroke:none;stroke-opacity:1" />
      <path
        style="font-size:144px;font-style:normal;font-weight:normal;fill:#202020;fill-opacity:1;stroke:none;stroke-width:1px;stroke-linecap:butt;stroke-linejoin:miter;stroke-opacity:1;font-family:Bitstream Vera Sans"
        d="M 214.422,424.229 L 229.258,424.229 L 229.258,442.089 L 214.422,442.089 L 214.422,424.229" id="text2571" />
    </g>
    <g id="separatorC">
      <rect y="324.28" x="200" height="163.082" width="45"
        style="opacity:1;fill:none;fill-opacity:1;stroke:none;stroke-opacity:1" />
      <text id="text2579" y="442.089" x="199.024"
        style="font-style:normal;font-weight:normal;line-height:0%;font-family:'Bitstream Vera Sans';fill:#ebebeb;fill-opacity:1;stroke:none;stroke-width:1px;stroke-linecap:butt;stroke-linejoin:miter;stroke-opacity:1"
        xml:space="preserve">
        <tspan id="tspan2581" y="442.089" x="199.024" style="font-size:144px;line-height:1.25"> </tspan>
      </text>
    </g>
    <g id="separatorC_1">
      <rect y="324.28" x="200" height="163.082" width="45"
        style="opacity:1;fill:none;fill-opacity:1;stroke:none;stroke-opacity:1" />
      <text id="text2587" y="442.089" x="199.024"
        style="font-style:normal;font-weight:normal;line-height:0%;font-family:'Bitstream Vera Sans';fill:#eb0000;fill-opacity:1;stroke:none;stroke-width:1px;stroke-linecap:butt;stroke-linejoin:miter;stroke-opacity:1"
        xml:space="preserve">
        <tspan id="tspan2589" y="442.089" x="199.024" style="font-size:144px;line-height:1.25"> </tspan>
      </text>
    </g>
  </g>
  <g id="0">
    <rect width="19" height="28" fill="none" />
    <path
      d="m 6.75,24.675 h 5.5 q 1.2,0 2.1,-0.9 0.9,-0.9 0.9,-2.1 V 6.325 q 0,-1.2 -0.9,-2.1 -0.9,-0.9 -2.1,-0.9 h -5.5 q -1.2,0 -2.1,0.9 -0.9,0.9 -0.9,2.1 v 15.35 q 0,1.2 0.9,2.1 0.9,0.9 2.1,0.9 z m 0,-18.35 h 5.5 v 15.35 h -5.5 z"
      class="ColorScheme-Text" fill="currentColor" />
  </g>
  <g id="1" transform="translate(19)">
    <rect width="19" height="28" fill="none" />
    <path d="m 10.075,24.125 h 3 V 3.875 h -7.15 v 3 h 4.15 z" class="ColorScheme-Text" fill="currentColor" />
  </g>
  <g id="2" transform="translate(38)">
    <rect width="19" height="28" fill="none" />
    <path
      d="m 3.75,24.125 h 11.5 v -3 h -8.5 v -5.6 h 5.5 q 1.2,0 2.1,-0.9 0.9,-0.9 0.9,-2.1 v -5.65 q 0,-1.2 -0.9,-2.1 -0.9,-0.9 -2.1,-0.9 h -8.5 v 3 h 8.5 v 5.65 h -5.5 q -1.238,0 -2.119,0.9 -0.881,0.9 -0.881,2.1 z"
      class="ColorScheme-Text" fill="currentColor" />
  </g>
  <g id="3" transform="translate(57)">
    <rect width="19" height="28" fill="none" />
    <path
      d="m 3.75,24.125 h 8.5 q 1.2,0 2.1,-0.9 0.9,-0.9 0.9,-2.1 v -4.2 q 0,-1.35 -0.75,-2.125 -0.75,-0.775 -1.75,-0.775 1,0 1.75,-0.675 0.75,-0.675 0.75,-2.025 v -4.45 q 0,-1.2 -0.9,-2.1 -0.9,-0.9 -2.1,-0.9 h -8.5 v 3 h 8.5 v 5.65 H 8.1 v 3 h 4.15 v 5.6 h -8.5 z"
      class="ColorScheme-Text" fill="currentColor" />
  </g>
  <g id="4" transform="translate(76)">
    <rect width="19" height="28" fill="none" />
    <path d="m 12.25,24.125 h 3 V 3.875 h -3 v 7.4 h -5.5 v -7.4 h -3 v 10.4 h 8.5 z" class="ColorScheme-Text"
      fill="currentColor" />
  </g>
  <g id="5" transform="translate(0,28)">
    <rect width="19" height="28" fill="none" />
    <path
      d="m 3.75,24.125 h 8.5 q 1.2,0 2.1,-0.9 0.9,-0.9 0.9,-2.1 v -5.6 q 0,-1.2 -0.9,-2.1 -0.9,-0.9 -2.1,-0.9 h -5.5 v -5.65 h 8.5 v -3 H 3.75 v 11.65 h 8.5 v 5.6 h -8.5 z"
      class="ColorScheme-Text" fill="currentColor" />
  </g>
  <g id="6" transform="translate(19,28)">
    <rect width="19" height="28" fill="none" />
    <path
      d="m 6.75,24.125 h 5.5 q 1.2,0 2.1,-0.9 0.9,-0.9 0.9,-2.1 v -5.6 q 0,-1.2 -0.9,-2.1 -0.9,-0.9 -2.1,-0.9 h -5.5 v -5.65 h 6.35 v -3 H 6.75 q -1.2,0 -2.1,0.9 -0.9,0.9 -0.9,2.1 v 14.25 q 0,1.2 0.9,2.1 0.9,0.9 2.1,0.9 z m 0,-8.6 h 5.5 v 5.6 h -5.5 z"
      class="ColorScheme-Text" fill="currentColor" />
  </g>
  <g id="7" transform="translate(38,28)">
    <rect width="19" height="28" fill="none" />
    <path d="m 5.15,24.125 h 3 l 7.1,-17.25 v -3 H 3.75 v 3 h 8.5 z" class="ColorScheme-Text" fill="currentColor" />
  </g>
  <g id="8" transform="translate(57,28)">
    <rect width="19" height="28" fill="none" />
    <path
      d="m 6.75,24.675 h 5.5 q 1.2,0 2.1,-0.9 0.9,-0.9 0.9,-2.1 v -4.75 q 0,-1.35 -0.725,-2.15 -0.725,-0.8 -1.725,-0.8 1,0 1.725,-0.675 0.725,-0.675 0.725,-2.025 v -4.95 q 0,-1.2 -0.9,-2.1 -0.9,-0.9 -2.1,-0.9 h -5.5 q -1.2,0 -2.1,0.9 -0.9,0.9 -0.9,2.1 v 4.95 q 0,1.35 0.75,2.025 0.75,0.675 1.75,0.675 -1,0 -1.75,0.8 -0.75,0.8 -0.75,2.15 v 4.75 q 0,1.2 0.9,2.1 0.9,0.9 2.1,0.9 z m 0,-18.35 h 5.5 v 6.15 h -5.5 z m 0,15.35 v -6.2 h 5.5 v 6.2 z"
      class="ColorScheme-Text" fill="currentColor" />
  </g>
  <g id="9" transform="translate(76,28)">
    <rect width="19" height="28" fill="none" />
    <path
      d="m 5.95,24.125 h 6.3 q 1.2,0 2.1,-0.9 0.9,-0.9 0.9,-2.1 V 6.875 q 0,-1.2 -0.9,-2.1 -0.9,-0.9 -2.1,-0.9 h -5.5 q -1.2,0 -2.1,0.9 -0.9,0.9 -0.9,2.1 v 5.65 q 0,1.2 0.9,2.1 0.9,0.9 2.1,0.9 h 5.5 v 5.6 h -6.3 z m 6.3,-11.6 h -5.5 v -5.65 h 5.5 z"
      class="ColorScheme-Text" fill="currentColor" />
  </g>
  <g id="0_1" transform="translate(0,56)">
    <rect width="19" height="28" fill="none" />
    <path
      d="m 6.75,24.675 h 5.5 q 1.2,0 2.1,-0.9 0.9,-0.9 0.9,-2.1 V 6.325 q 0,-1.2 -0.9,-2.1 -0.9,-0.9 -2.1,-0.9 h -5.5 q -1.2,0 -2.1,0.9 -0.9,0.9 -0.9,2.1 v 15.35 q 0,1.2 0.9,2.1 0.9,0.9 2.1,0.9 z m 0,-18.35 h 5.5 v 15.35 h -5.5 z"
      class="ColorScheme-NegativeText" fill="currentColor" />
  </g>
  <g id="1_1" transform="translate(19,56)">
    <rect width="19" height="28" fill="none" />
    <path d="m 10.075,24.125 h 3 V 3.875 h -7.15 v 3 h 4.15 z" class="ColorScheme-NegativeText" fill="currentColor" />
  </g>
  <g id="2_1" transform="translate(38,56)">
    <rect width="19" height="28" fill="none" />
    <path
      d="m 3.75,24.125 h 11.5 v -3 h -8.5 v -5.6 h 5.5 q 1.2,0 2.1,-0.9 0.9,-0.9 0.9,-2.1 v -5.65 q 0,-1.2 -0.9,-2.1 -0.9,-0.9 -2.1,-0.9 h -8.5 v 3 h 8.5 v 5.65 h -5.5 q -1.238,0 -2.119,0.9 -0.881,0.9 -0.881,2.1 z"
      class="ColorScheme-NegativeText" fill="currentColor" />
  </g>
  <g id="3_1" transform="translate(57,56)">
    <rect width="19" height="28" fill="none" />
    <path
      d="m 3.75,24.125 h 8.5 q 1.2,0 2.1,-0.9 0.9,-0.9 0.9,-2.1 v -4.2 q 0,-1.35 -0.75,-2.125 -0.75,-0.775 -1.75,-0.775 1,0 1.75,-0.675 0.75,-0.675 0.75,-2.025 v -4.45 q 0,-1.2 -0.9,-2.1 -0.9,-0.9 -2.1,-0.9 h -8.5 v 3 h 8.5 v 5.65 H 8.1 v 3 h 4.15 v 5.6 h -8.5 z"
      class="ColorScheme-NegativeText" fill="currentColor" />
  </g>
  <g id="4_1" transform="translate(76,56)">
    <rect width="19" height="28" fill="none" />
    <path d="m 12.25,24.125 h 3 V 3.875 h -3 v 7.4 h -5.5 v -7.4 h -3 v 10.4 h 8.5 z" class="ColorScheme-NegativeText"
      fill="currentColor" />
  </g>
  <g id="5_1" transform="translate(0,84)">
    <rect width="19" height="28" fill="none" />
    <path
      d="m 3.75,24.125 h 8.5 q 1.2,0 2.1,-0.9 0.9,-0.9 0.9,-2.1 v -5.6 q 0,-1.2 -0.9,-2.1 -0.9,-0.9 -2.1,-0.9 h -5.5 v -5.65 h 8.5 v -3 H 3.75 v 11.65 h 8.5 v 5.6 h -8.5 z"
      class="ColorScheme-NegativeText" fill="currentColor" />
  </g>
  <g id="6_1" transform="translate(19,84)">
    <rect width="19" height="28" fill="none" />
    <path
      d="m 6.75,24.125 h 5.5 q 1.2,0 2.1,-0.9 0.9,-0.9 0.9,-2.1 v -5.6 q 0,-1.2 -0.9,-2.1 -0.9,-0.9 -2.1,-0.9 h -5.5 v -5.65 h 6.35 v -3 H 6.75 q -1.2,0 -2.1,0.9 -0.9,0.9 -0.9,2.1 v 14.25 q 0,1.2 0.9,2.1 0.9,0.9 2.1,0.9 z m 0,-8.6 h 5.5 v 5.6 h -5.5 z"
      class="ColorScheme-NegativeText" fill="currentColor" />
  </g>
  <g id="7_1" transform="translate(38,84)">
    <rect width="19" height="28" fill="none" />
    <path d="m 5.15,24.125 h 3 l 7.1,-17.25 v -3 H 3.75 v 3 h 8.5 z" class="ColorScheme-NegativeText"
      fill="currentColor" />
  </g>
  <g id="8_1" transform="translate(57,84)">
    <rect width="19" height="28" fill="none" />
    <path
      d="m 6.75,24.675 h 5.5 q 1.2,0 2.1,-0.9 0.9,-0.9 0.9,-2.1 v -4.75 q 0,-1.35 -0.725,-2.15 -0.725,-0.8 -1.725,-0.8 1,0 1.725,-0.675 0.725,-0.675 0.725,-2.025 v -4.95 q 0,-1.2 -0.9,-2.1 -0.9,-0.9 -2.1,-0.9 h -5.5 q -1.2,0 -2.1,0.9 -0.9,0.9 -0.9,2.1 v 4.95 q 0,1.35 0.75,2.025 0.75,0.675 1.75,0.675 -1,0 -1.75,0.8 -0.75,0.8 -0.75,2.15 v 4.75 q 0,1.2 0.9,2.1 0.9,0.9 2.1,0.9 z m 0,-18.35 h 5.5 v 6.15 h -5.5 z m 0,15.35 v -6.2 h 5.5 v 6.2 z"
      class="ColorScheme-NegativeText" fill="currentColor" />
  </g>
  <g id="9_1" transform="translate(76,84)">
    <rect width="19" height="28" fill="none" />
    <path
      d="m 5.95,24.125 h 6.3 q 1.2,0 2.1,-0.9 0.9,-0.9 0.9,-2.1 V 6.875 q 0,-1.2 -0.9,-2.1 -0.9,-0.9 -2.1,-0.9 h -5.5 q -1.2,0 -2.1,0.9 -0.9,0.9 -0.9,2.1 v 5.65 q 0,1.2 0.9,2.1 0.9,0.9 2.1,0.9 h 5.5 v 5.6 h -6.3 z m 6.3,-11.6 h -5.5 v -5.65 h 5.5 z"
      class="ColorScheme-NegativeText" fill="currentColor" />
  </g>
</svg>