<svg width="96" height="112" version="1.1" xmlns="http://www.w3.org/2000/svg" xmlns:svg="http://www.w3.org/2000/svg">
  <style id="current-color-scheme" type="text/css">
    .ColorScheme-Text {
      color: #e2e2e5;
    }

    .ColorScheme-NegativeText {
      color: #ff5540;
    }
  </style>
  <g id="0">
    <rect width="15.276" height="28" fill="none" />
    <path
      d="m 4.888,24.675 h 5.5 q 1.2,0 2.1,-0.9 0.9,-0.9 0.9,-2.1 V 6.325 q 0,-1.2 -0.9,-2.1 -0.9,-0.9 -2.1,-0.9 h -5.5 q -1.2,0 -2.1,0.9 -0.9,0.9 -0.9,2.1 v 15.35 q 0,1.2 0.9,2.1 0.9,0.9 2.1,0.9 z m 0,-18.35 h 5.5 v 15.35 h -5.5 z"
      class="ColorScheme-Text" fill="currentColor" />
  </g>
  <g id="1" transform="translate(16)">
    <rect width="15.276" height="28" fill="none" />
    <path d="m 8.213,24.125 h 3 V 3.875 h -7.15 v 3 h 4.15 z" class="ColorScheme-Text" fill="currentColor" />
  </g>
  <g id="2" transform="translate(32)">
    <rect width="15.276" height="28" fill="none" />
    <path
      d="m 1.888,24.125 h 11.5 v -3 h -8.5 v -5.6 h 5.5 q 1.2,0 2.1,-0.9 0.9,-0.9 0.9,-2.1 v -5.65 q 0,-1.2 -0.9,-2.1 -0.9,-0.9 -2.1,-0.9 h -8.5 v 3 h 8.5 v 5.65 h -5.5 q -1.238,0 -2.119,0.9 -0.881,0.9 -0.881,2.1 z"
      class="ColorScheme-Text" fill="currentColor" />
  </g>
  <g id="3" transform="translate(48)">
    <rect width="15.276" height="28" fill="none" />
    <path
      d="m 1.888,24.125 h 8.5 q 1.2,0 2.1,-0.9 0.9,-0.9 0.9,-2.1 v -4.2 q 0,-1.35 -0.75,-2.125 -0.75,-0.775 -1.75,-0.775 1,0 1.75,-0.675 0.75,-0.675 0.75,-2.025 v -4.45 q 0,-1.2 -0.9,-2.1 -0.9,-0.9 -2.1,-0.9 h -8.5 v 3 h 8.5 v 5.65 h -4.15 v 3 h 4.15 v 5.6 h -8.5 z"
      class="ColorScheme-Text" fill="currentColor" />
  </g>
  <g id="4" transform="translate(64)">
    <rect width="15.276" height="28" fill="none" />
    <path d="m 10.388,24.125 h 3 V 3.875 h -3 v 7.4 h -5.5 v -7.4 h -3 v 10.4 h 8.5 z" class="ColorScheme-Text"
      fill="currentColor" />
  </g>
  <g id="5" transform="translate(0,28)">
    <rect width="15.276" height="28" fill="none" />
    <path
      d="m 1.888,24.125 h 8.5 q 1.2,0 2.1,-0.9 0.9,-0.9 0.9,-2.1 v -5.6 q 0,-1.2 -0.9,-2.1 -0.9,-0.9 -2.1,-0.9 h -5.5 v -5.65 h 8.5 v -3 h -11.5 v 11.65 h 8.5 v 5.6 h -8.5 z"
      class="ColorScheme-Text" fill="currentColor" />
  </g>
  <g id="6" transform="translate(16,28)">
    <rect width="15.276" height="28" fill="none" />
    <path
      d="m 4.888,24.125 h 5.5 q 1.2,0 2.1,-0.9 0.9,-0.9 0.9,-2.1 v -5.6 q 0,-1.2 -0.9,-2.1 -0.9,-0.9 -2.1,-0.9 h -5.5 v -5.65 h 6.35 v -3 h -6.35 q -1.2,0 -2.1,0.9 -0.9,0.9 -0.9,2.1 v 14.25 q 0,1.2 0.9,2.1 0.9,0.9 2.1,0.9 z m 0,-8.6 h 5.5 v 5.6 h -5.5 z"
      class="ColorScheme-Text" fill="currentColor" />
  </g>
  <g id="7" transform="translate(32,28)">
    <rect width="15.276" height="28" fill="none" />
    <path d="m 3.288,24.125 h 3 l 7.1,-17.25 v -3 h -11.5 v 3 h 8.5 z" class="ColorScheme-Text" fill="currentColor" />
  </g>
  <g id="8" transform="translate(48,28)">
    <rect width="15.276" height="28" fill="none" />
    <path
      d="m 4.888,24.675 h 5.5 q 1.2,0 2.1,-0.9 0.9,-0.9 0.9,-2.1 v -4.75 q 0,-1.35 -0.725,-2.15 -0.725,-0.8 -1.725,-0.8 1,0 1.725,-0.675 0.725,-0.675 0.725,-2.025 v -4.95 q 0,-1.2 -0.9,-2.1 -0.9,-0.9 -2.1,-0.9 h -5.5 q -1.2,0 -2.1,0.9 -0.9,0.9 -0.9,2.1 v 4.95 q 0,1.35 0.75,2.025 0.75,0.675 1.75,0.675 -1,0 -1.75,0.8 -0.75,0.8 -0.75,2.15 v 4.75 q 0,1.2 0.9,2.1 0.9,0.9 2.1,0.9 z m 0,-18.35 h 5.5 v 6.15 h -5.5 z m 0,15.35 v -6.2 h 5.5 v 6.2 z"
      class="ColorScheme-Text" fill="currentColor" />
  </g>
  <g id="9" transform="translate(64,28)">
    <rect width="15.276" height="28" fill="none" />
    <path
      d="m 4.088,24.125 h 6.3 q 1.2,0 2.1,-0.9 0.9,-0.9 0.9,-2.1 V 6.875 q 0,-1.2 -0.9,-2.1 -0.9,-0.9 -2.1,-0.9 h -5.5 q -1.2,0 -2.1,0.9 -0.9,0.9 -0.9,2.1 v 5.65 q 0,1.2 0.9,2.1 0.9,0.9 2.1,0.9 h 5.5 v 5.6 h -6.3 z m 6.3,-11.6 h -5.5 v -5.65 h 5.5 z"
      class="ColorScheme-Text" fill="currentColor" />
  </g>
  <g id="0_1" transform="translate(0,56)">
    <rect width="15.276" height="28" fill="none" />
    <path
      d="m 4.888,24.675 h 5.5 q 1.2,0 2.1,-0.9 0.9,-0.9 0.9,-2.1 V 6.325 q 0,-1.2 -0.9,-2.1 -0.9,-0.9 -2.1,-0.9 h -5.5 q -1.2,0 -2.1,0.9 -0.9,0.9 -0.9,2.1 v 15.35 q 0,1.2 0.9,2.1 0.9,0.9 2.1,0.9 z m 0,-18.35 h 5.5 v 15.35 h -5.5 z"
      class="ColorScheme-NegativeText" fill="currentColor" />
  </g>
  <g id="1_1" transform="translate(16,56)">
    <rect width="15.276" height="28" fill="none" />
    <path d="m 8.213,24.125 h 3 V 3.875 h -7.15 v 3 h 4.15 z" class="ColorScheme-NegativeText" fill="currentColor" />
  </g>
  <g id="2_1" transform="translate(32,56)">
    <rect width="15.276" height="28" fill="none" />
    <path
      d="m 1.888,24.125 h 11.5 v -3 h -8.5 v -5.6 h 5.5 q 1.2,0 2.1,-0.9 0.9,-0.9 0.9,-2.1 v -5.65 q 0,-1.2 -0.9,-2.1 -0.9,-0.9 -2.1,-0.9 h -8.5 v 3 h 8.5 v 5.65 h -5.5 q -1.238,0 -2.119,0.9 -0.881,0.9 -0.881,2.1 z"
      class="ColorScheme-NegativeText" fill="currentColor" />
  </g>
  <g id="3_1" transform="translate(48,56)">
    <rect width="15.276" height="28" fill="none" />
    <path
      d="m 1.888,24.125 h 8.5 q 1.2,0 2.1,-0.9 0.9,-0.9 0.9,-2.1 v -4.2 q 0,-1.35 -0.75,-2.125 -0.75,-0.775 -1.75,-0.775 1,0 1.75,-0.675 0.75,-0.675 0.75,-2.025 v -4.45 q 0,-1.2 -0.9,-2.1 -0.9,-0.9 -2.1,-0.9 h -8.5 v 3 h 8.5 v 5.65 h -4.15 v 3 h 4.15 v 5.6 h -8.5 z"
      class="ColorScheme-NegativeText" fill="currentColor" />
  </g>
  <g id="4_1" transform="translate(64,56)">
    <rect width="15.276" height="28" fill="none" />
    <path d="m 10.388,24.125 h 3 V 3.875 h -3 v 7.4 h -5.5 v -7.4 h -3 v 10.4 h 8.5 z" class="ColorScheme-NegativeText"
      fill="currentColor" />
  </g>
  <g id="5_1" transform="translate(0,84)">
    <rect width="15.276" height="28" fill="none" />
    <path
      d="m 1.888,24.125 h 8.5 q 1.2,0 2.1,-0.9 0.9,-0.9 0.9,-2.1 v -5.6 q 0,-1.2 -0.9,-2.1 -0.9,-0.9 -2.1,-0.9 h -5.5 v -5.65 h 8.5 v -3 h -11.5 v 11.65 h 8.5 v 5.6 h -8.5 z"
      class="ColorScheme-NegativeText" fill="currentColor" />
  </g>
  <g id="6_1" transform="translate(16,84)">
    <rect width="15.276" height="28" fill="none" />
    <path
      d="m 4.888,24.125 h 5.5 q 1.2,0 2.1,-0.9 0.9,-0.9 0.9,-2.1 v -5.6 q 0,-1.2 -0.9,-2.1 -0.9,-0.9 -2.1,-0.9 h -5.5 v -5.65 h 6.35 v -3 h -6.35 q -1.2,0 -2.1,0.9 -0.9,0.9 -0.9,2.1 v 14.25 q 0,1.2 0.9,2.1 0.9,0.9 2.1,0.9 z m 0,-8.6 h 5.5 v 5.6 h -5.5 z"
      class="ColorScheme-NegativeText" fill="currentColor" />
  </g>
  <g id="7_1" transform="translate(32,84)">
    <rect width="15.276" height="28" fill="none" />
    <path d="m 3.288,24.125 h 3 l 7.1,-17.25 v -3 h -11.5 v 3 h 8.5 z" class="ColorScheme-NegativeText"
      fill="currentColor" />
  </g>
  <g id="8_1" transform="translate(48,84)">
    <rect width="15.276" height="28" fill="none" />
    <path
      d="m 4.888,24.675 h 5.5 q 1.2,0 2.1,-0.9 0.9,-0.9 0.9,-2.1 v -4.75 q 0,-1.35 -0.725,-2.15 -0.725,-0.8 -1.725,-0.8 1,0 1.725,-0.675 0.725,-0.675 0.725,-2.025 v -4.95 q 0,-1.2 -0.9,-2.1 -0.9,-0.9 -2.1,-0.9 h -5.5 q -1.2,0 -2.1,0.9 -0.9,0.9 -0.9,2.1 v 4.95 q 0,1.35 0.75,2.025 0.75,0.675 1.75,0.675 -1,0 -1.75,0.8 -0.75,0.8 -0.75,2.15 v 4.75 q 0,1.2 0.9,2.1 0.9,0.9 2.1,0.9 z m 0,-18.35 h 5.5 v 6.15 h -5.5 z m 0,15.35 v -6.2 h 5.5 v 6.2 z"
      class="ColorScheme-NegativeText" fill="currentColor" />
  </g>
  <g id="9_1" transform="translate(64,84)">
    <rect width="15.276" height="28" fill="none" />
    <path
      d="m 4.088,24.125 h 6.3 q 1.2,0 2.1,-0.9 0.9,-0.9 0.9,-2.1 V 6.875 q 0,-1.2 -0.9,-2.1 -0.9,-0.9 -2.1,-0.9 h -5.5 q -1.2,0 -2.1,0.9 -0.9,0.9 -0.9,2.1 v 5.65 q 0,1.2 0.9,2.1 0.9,0.9 2.1,0.9 h 5.5 v 5.6 h -6.3 z m 6.3,-11.6 h -5.5 v -5.65 h 5.5 z"
      class="ColorScheme-NegativeText" fill="currentColor" />
  </g>
  <g id="separator" transform="translate(80,0)">
    <rect width="7.718" height="28" fill="none" />
    <path d="M 2.359,9 V 6 h 3 v 3 z m 0,13 v -3 h 3 v 3 z" class="ColorScheme-Text" fill="currentColor" />
  </g>
  <g id="separatorB" transform="translate(80,28)">
    <rect width="7.718" height="28" fill="none" />
    <path d="M 2.359,22  v -3 h 3 v 3 z" class="ColorScheme-Text" fill="currentColor" />
  </g>
  <g id="separatorC" transform="translate(88,0)">
    <rect width="7.718" height="28" fill="none" />
  </g>
  <g id="separator_1" transform="translate(80,56)">
    <rect width="7.718" height="28" fill="none" />
    <path d="M 2.359,9 V 6 h 3 v 3 z m 0,13 v -3 h 3 v 3 z" class="ColorScheme-NegativeText" fill="currentColor" />
  </g>
  <g id="separatorB_1" transform="translate(80,84)">
    <rect width="7.718" height="28" fill="none" />
    <path d="M 2.359,22  v -3 h 3 v 3 z" class="ColorScheme-NegativeText" fill="currentColor" />
  </g>
  <g id="separatorC_1" transform="translate(88,56)">
    <rect width="7.718" height="28" fill="none" />
  </g>
</svg>