<svg width="286" height="384" version="1.1" xmlns="http://www.w3.org/2000/svg" xmlns:svg="http://www.w3.org/2000/svg">
  <style id="current-color-scheme" type="text/css">
    .ColorScheme-Text {
      color: #e2e2e5;
    }

    .ColorScheme-Highlight {
      color: #95ccff;
    }

    .ColorScheme-Background {
      color: #282a2d;
    }
  </style>
  <g id="0">
    <rect width="52" height="95.077" fill="none" />
    <rect width="48" height="72" x="2" y="11.539" rx="4" class="ColorScheme-Highlight" fill="currentColor" />
    <rect width="48" height="72" x="2" y="11.539" rx="4" fill="#000000" opacity="0.7" />
    <path class="ColorScheme-Highlight" fill="currentColor"
      d="m 42.767,47.504 q 0,8.136 -1.698,14.008 -1.698,5.801 -5.377,8.914 -3.678,3.113 -9.763,3.113 -8.56,0 -12.664,-6.863 -4.032,-6.933 -4.032,-19.172 0,-8.207 1.627,-14.008 1.698,-5.801 5.377,-8.844 3.679,-3.113 9.692,-3.113 8.49,0 12.664,6.863 4.174,6.792 4.174,19.102 z m -27.309,0 q 0,10.4 2.335,15.565 2.405,5.165 8.136,5.165 5.66,0 8.065,-5.094 2.476,-5.165 2.476,-15.635 0,-10.329 -2.476,-15.494 -2.405,-5.165 -8.065,-5.165 -5.731,0 -8.136,5.165 -2.335,5.165 -2.335,15.494 z" />
    <path fill="#ffffff" opacity="0.5"
      d="m 42.767,47.504 q 0,8.136 -1.698,14.008 -1.698,5.801 -5.377,8.914 -3.678,3.113 -9.763,3.113 -8.56,0 -12.664,-6.863 -4.032,-6.933 -4.032,-19.172 0,-8.207 1.627,-14.008 1.698,-5.801 5.377,-8.844 3.679,-3.113 9.692,-3.113 8.49,0 12.664,6.863 4.174,6.792 4.174,19.102 z m -27.309,0 q 0,10.4 2.335,15.565 2.405,5.165 8.136,5.165 5.66,0 8.065,-5.094 2.476,-5.165 2.476,-15.635 0,-10.329 -2.476,-15.494 -2.405,-5.165 -8.065,-5.165 -5.731,0 -8.136,5.165 -2.335,5.165 -2.335,15.494 z" />
  </g>
  <g id="1" transform="translate(52)">
    <rect width="52" height="95.077" fill="none" />
    <rect width="48" height="72" x="2" y="11.539" rx="4" class="ColorScheme-Highlight" fill="currentColor" />
    <rect width="48" height="72" x="2" y="11.539" rx="4" fill="#000000" opacity="0.7" />
    <path class="ColorScheme-Highlight" fill="currentColor"
      d="m 35.686,73.539 h -6.263 v -36.342 q 0,-3.132 0.073,-5.025 0.073,-1.894 0.218,-3.933 -1.165,1.165 -2.112,1.966 -0.947,0.801 -2.403,2.039 l -5.535,4.516 -3.35,-4.297 14.056,-10.924 h 5.317 z" />
    <path fill="#ffffff" opacity="0.5"
      d="m 35.686,73.539 h -6.263 v -36.342 q 0,-3.132 0.073,-5.025 0.073,-1.894 0.218,-3.933 -1.165,1.165 -2.112,1.966 -0.947,0.801 -2.403,2.039 l -5.535,4.516 -3.35,-4.297 14.056,-10.924 h 5.317 z" />
  </g>
  <g id="2" transform="translate(104)">
    <rect width="52" height="95.077" fill="none" />
    <rect width="48" height="72" x="2" y="11.539" rx="4" class="ColorScheme-Highlight" fill="currentColor" />
    <rect width="48" height="72" x="2" y="11.539" rx="4" fill="#000000" opacity="0.7" />
    <path class="ColorScheme-Highlight" fill="currentColor"
      d="M 42.95,73.539 H 9.05 v -5.243 l 13.431,-13.575 q 3.878,-3.878 6.536,-6.895 2.657,-3.017 4.022,-5.89 1.365,-2.945 1.365,-6.392 0,-4.238 -2.514,-6.392 -2.514,-2.227 -6.536,-2.227 -3.735,0 -6.608,1.293 -2.801,1.293 -5.746,3.592 l -3.376,-4.238 q 3.017,-2.514 6.895,-4.237 3.951,-1.796 8.835,-1.796 7.182,0 11.348,3.663 4.166,3.591 4.166,9.983 0,4.022 -1.652,7.541 -1.652,3.519 -4.597,6.967 -2.945,3.376 -6.895,7.254 l -10.702,10.559 v 0.287 H 42.95 Z" />
    <path fill="#ffffff" opacity="0.5"
      d="M 42.95,73.539 H 9.05 v -5.243 l 13.431,-13.575 q 3.878,-3.878 6.536,-6.895 2.657,-3.017 4.022,-5.89 1.365,-2.945 1.365,-6.392 0,-4.238 -2.514,-6.392 -2.514,-2.227 -6.536,-2.227 -3.735,0 -6.608,1.293 -2.801,1.293 -5.746,3.592 l -3.376,-4.238 q 3.017,-2.514 6.895,-4.237 3.951,-1.796 8.835,-1.796 7.182,0 11.348,3.663 4.166,3.591 4.166,9.983 0,4.022 -1.652,7.541 -1.652,3.519 -4.597,6.967 -2.945,3.376 -6.895,7.254 l -10.702,10.559 v 0.287 H 42.95 Z" />
  </g>
  <g id="3" transform="translate(156)">
    <rect width="52" height="95.077" fill="none" />
    <rect width="48" height="72" x="2" y="11.539" rx="4" class="ColorScheme-Highlight" fill="currentColor" />
    <rect width="48" height="72" x="2" y="11.539" rx="4" fill="#000000" opacity="0.7" />
    <path class="ColorScheme-Highlight" fill="currentColor"
      d="m 41.091,34.079 q 0,5.101 -2.834,8.147 -2.834,2.975 -7.651,3.967 v 0.283 q 6.093,0.708 9.068,3.826 2.975,3.117 2.975,8.147 0,4.392 -2.054,7.864 -2.054,3.401 -6.376,5.313 -4.251,1.913 -10.981,1.913 -3.967,0 -7.368,-0.638 -3.4,-0.566 -6.518,-2.125 v -5.809 q 3.188,1.559 6.872,2.48 3.684,0.85 7.084,0.85 6.801,0 9.777,-2.621 3.046,-2.692 3.046,-7.368 0,-4.747 -3.755,-6.801 -3.684,-2.125 -10.414,-2.125 h -4.887 v -5.314 h 4.959 q 6.234,0 9.422,-2.621 3.259,-2.621 3.259,-6.943 0,-3.684 -2.48,-5.668 -2.48,-2.054 -6.73,-2.054 -4.109,0 -7.014,1.204 -2.905,1.204 -5.738,3.046 l -3.117,-4.25 q 2.692,-2.126 6.659,-3.684 4.038,-1.559 9.139,-1.559 7.935,0 11.76,3.542 3.896,3.542 3.896,8.997 z" />
    <path fill="#ffffff" opacity="0.5"
      d="m 41.091,34.079 q 0,5.101 -2.834,8.147 -2.834,2.975 -7.651,3.967 v 0.283 q 6.093,0.708 9.068,3.826 2.975,3.117 2.975,8.147 0,4.392 -2.054,7.864 -2.054,3.401 -6.376,5.313 -4.251,1.913 -10.981,1.913 -3.967,0 -7.368,-0.638 -3.4,-0.566 -6.518,-2.125 v -5.809 q 3.188,1.559 6.872,2.48 3.684,0.85 7.084,0.85 6.801,0 9.777,-2.621 3.046,-2.692 3.046,-7.368 0,-4.747 -3.755,-6.801 -3.684,-2.125 -10.414,-2.125 h -4.887 v -5.314 h 4.959 q 6.234,0 9.422,-2.621 3.259,-2.621 3.259,-6.943 0,-3.684 -2.48,-5.668 -2.48,-2.054 -6.73,-2.054 -4.109,0 -7.014,1.204 -2.905,1.204 -5.738,3.046 l -3.117,-4.25 q 2.692,-2.126 6.659,-3.684 4.038,-1.559 9.139,-1.559 7.935,0 11.76,3.542 3.896,3.542 3.896,8.997 z" />
  </g>
  <g id="4" transform="translate(208)">
    <rect width="52" height="95.077" fill="none" />
    <rect width="48" height="72" x="2" y="11.539" rx="4" class="ColorScheme-Highlight" fill="currentColor" />
    <rect width="48" height="72" x="2" y="11.539" rx="4" fill="#000000" opacity="0.7" />
    <path class="ColorScheme-Highlight" fill="currentColor"
      d="m 45.228,61.806 h -7.532 v 11.733 h -6.156 v -11.733 H 6.772 v -5.431 l 24.334,-34.836 h 6.591 v 34.546 h 7.532 z m -13.688,-22.016 q 0,-3.766 0.145,-6.373 0.145,-2.68 0.217,-5.07 h -0.29 q -0.579,1.376 -1.448,2.969 -0.869,1.593 -1.666,2.68 l -15.498,22.089 h 18.54 z" />
    <path fill="#ffffff" opacity="0.5"
      d="m 45.228,61.806 h -7.532 v 11.733 h -6.156 v -11.733 H 6.772 v -5.431 l 24.334,-34.836 h 6.591 v 34.546 h 7.532 z m -13.688,-22.016 q 0,-3.766 0.145,-6.373 0.145,-2.68 0.217,-5.07 h -0.29 q -0.579,1.376 -1.448,2.969 -0.869,1.593 -1.666,2.68 l -15.498,22.089 h 18.54 z" />
  </g>
  <g id="5" transform="translate(0,96)">
    <rect width="52" height="95.077" fill="none" />
    <rect width="48" height="72" x="2" y="11.539" rx="4" class="ColorScheme-Highlight" fill="currentColor" />
    <rect width="48" height="72" x="2" y="11.539" rx="4" fill="#000000" opacity="0.7" />
    <path class="ColorScheme-Highlight" fill="currentColor"
      d="m 24.994,41.362 q 7.901,0 12.569,3.95 4.669,3.95 4.669,11.133 0,7.972 -5.099,12.569 -5.028,4.525 -14.078,4.525 -3.95,0 -7.469,-0.718 -3.448,-0.718 -5.818,-2.083 v -5.961 q 2.586,1.58 6.249,2.514 3.735,0.862 7.11,0.862 5.674,0 9.122,-2.657 3.519,-2.729 3.519,-8.403 0,-5.028 -3.088,-7.685 -3.088,-2.729 -9.768,-2.729 -2.011,0 -4.597,0.359 -2.586,0.359 -4.166,0.718 l -3.16,-2.013 1.939,-24.204 h 25.713 v 5.746 H 18.315 l -1.221,14.867 q 1.221,-0.215 3.304,-0.503 2.083,-0.287 4.597,-0.287 z" />
    <path fill="#ffffff" opacity="0.5"
      d="m 24.994,41.362 q 7.901,0 12.569,3.95 4.669,3.95 4.669,11.133 0,7.972 -5.099,12.569 -5.028,4.525 -14.078,4.525 -3.95,0 -7.469,-0.718 -3.448,-0.718 -5.818,-2.083 v -5.961 q 2.586,1.58 6.249,2.514 3.735,0.862 7.11,0.862 5.674,0 9.122,-2.657 3.519,-2.729 3.519,-8.403 0,-5.028 -3.088,-7.685 -3.088,-2.729 -9.768,-2.729 -2.011,0 -4.597,0.359 -2.586,0.359 -4.166,0.718 l -3.16,-2.013 1.939,-24.204 h 25.713 v 5.746 H 18.315 l -1.221,14.867 q 1.221,-0.215 3.304,-0.503 2.083,-0.287 4.597,-0.287 z" />
  </g>
  <g id="6" transform="translate(52,96)">
    <rect width="52" height="95.077" fill="none" />
    <rect width="48" height="72" x="2" y="11.539" rx="4" class="ColorScheme-Highlight" fill="currentColor" />
    <rect width="48" height="72" x="2" y="11.539" rx="4" fill="#000000" opacity="0.7" />
    <path class="ColorScheme-Highlight" fill="currentColor"
      d="m 9.352,51.223 q 0,-5.455 0.921,-10.698 0.992,-5.313 3.471,-9.564 2.55,-4.322 7.084,-6.872 4.535,-2.55 11.691,-2.55 1.488,0 3.259,0.142 1.842,0.142 2.975,0.496 v 5.313 q -1.275,-0.425 -2.905,-0.638 -1.559,-0.213 -3.188,-0.213 -4.888,0 -8.147,1.629 -3.259,1.629 -5.172,4.463 -1.842,2.834 -2.692,6.518 -0.85,3.684 -1.063,7.864 h 0.425 q 1.629,-2.48 4.534,-4.18 2.905,-1.771 7.439,-1.771 6.589,0 10.627,4.038 4.038,3.967 4.038,11.335 0,7.935 -4.392,12.469 -4.321,4.535 -11.689,4.535 -4.818,0 -8.714,-2.409 -3.897,-2.408 -6.234,-7.368 -2.268,-4.959 -2.268,-12.539 z m 17.145,17.073 q 4.463,0 7.226,-2.834 2.763,-2.905 2.763,-8.926 0,-4.817 -2.48,-7.651 -2.409,-2.834 -7.297,-2.834 -3.33,0 -5.809,1.417 -2.48,1.346 -3.896,3.471 -1.346,2.125 -1.346,4.392 0,3.046 1.204,6.093 1.204,2.975 3.613,4.959 2.409,1.913 6.022,1.913 z" />
    <path fill="#ffffff" opacity="0.5"
      d="m 9.352,51.223 q 0,-5.455 0.921,-10.698 0.992,-5.313 3.471,-9.564 2.55,-4.322 7.084,-6.872 4.535,-2.55 11.691,-2.55 1.488,0 3.259,0.142 1.842,0.142 2.975,0.496 v 5.313 q -1.275,-0.425 -2.905,-0.638 -1.559,-0.213 -3.188,-0.213 -4.888,0 -8.147,1.629 -3.259,1.629 -5.172,4.463 -1.842,2.834 -2.692,6.518 -0.85,3.684 -1.063,7.864 h 0.425 q 1.629,-2.48 4.534,-4.18 2.905,-1.771 7.439,-1.771 6.589,0 10.627,4.038 4.038,3.967 4.038,11.335 0,7.935 -4.392,12.469 -4.321,4.535 -11.689,4.535 -4.818,0 -8.714,-2.409 -3.897,-2.408 -6.234,-7.368 -2.268,-4.959 -2.268,-12.539 z m 17.145,17.073 q 4.463,0 7.226,-2.834 2.763,-2.905 2.763,-8.926 0,-4.817 -2.48,-7.651 -2.409,-2.834 -7.297,-2.834 -3.33,0 -5.809,1.417 -2.48,1.346 -3.896,3.471 -1.346,2.125 -1.346,4.392 0,3.046 1.204,6.093 1.204,2.975 3.613,4.959 2.409,1.913 6.022,1.913 z" />
  </g>
  <g id="7" transform="translate(104,96)">
    <rect width="52" height="95.077" fill="none" />
    <rect width="48" height="72" x="2" y="11.539" rx="4" class="ColorScheme-Highlight" fill="currentColor" />
    <rect width="48" height="72" x="2" y="11.539" rx="4" fill="#000000" opacity="0.7" />
    <path class="ColorScheme-Highlight" fill="currentColor"
      d="m 15.259,73.539 21.339,-46.174 h -28.04 v -5.826 h 34.885 v 4.952 l -21.12,47.048 z" />
    <path fill="#ffffff" opacity="0.5"
      d="m 15.259,73.539 21.339,-46.174 h -28.04 v -5.826 h 34.885 v 4.952 l -21.12,47.048 z" />
  </g>
  <g id="8" transform="translate(156,96)">
    <rect width="52" height="95.077" fill="none" />
    <rect width="48" height="72" x="2" y="11.539" rx="4" class="ColorScheme-Highlight" fill="currentColor" />
    <rect width="48" height="72" x="2" y="11.539" rx="4" fill="#000000" opacity="0.7" />
    <path class="ColorScheme-Highlight" fill="currentColor"
      d="m 25.964,21.539 q 6.659,0 10.91,3.117 4.251,3.117 4.251,8.997 0,3.046 -1.346,5.313 -1.275,2.267 -3.471,4.038 -2.196,1.7 -4.817,3.046 3.117,1.488 5.668,3.401 2.55,1.842 4.038,4.322 1.559,2.48 1.559,5.951 0,6.376 -4.534,10.131 -4.466,3.684 -12.046,3.684 -8.147,0 -12.539,-3.542 -4.393,-3.613 -4.393,-10.06 0,-3.471 1.417,-6.022 1.488,-2.55 3.896,-4.392 2.409,-1.842 5.172,-3.117 -3.684,-2.125 -6.305,-5.101 -2.55,-3.046 -2.55,-7.722 0,-3.896 1.984,-6.518 1.984,-2.692 5.384,-4.109 3.4,-1.417 7.722,-1.417 z m -0.071,5.03 q -3.896,0 -6.447,1.913 -2.48,1.842 -2.48,5.384 0,2.621 1.204,4.392 1.275,1.771 3.401,3.046 2.125,1.204 4.676,2.338 3.684,-1.559 6.163,-3.755 2.55,-2.196 2.55,-6.022 0,-3.542 -2.48,-5.384 -2.48,-1.913 -6.589,-1.913 z m -10.556,33.439 q 0,3.684 2.621,6.163 2.621,2.409 8.076,2.409 5.172,0 7.864,-2.409 2.763,-2.48 2.763,-6.376 0,-3.684 -2.905,-6.093 -2.905,-2.48 -7.722,-4.322 l -1.134,-0.425 q -4.676,1.984 -7.155,4.605 -2.409,2.55 -2.409,6.447 z" />
    <path fill="#ffffff" opacity="0.5"
      d="m 25.964,21.539 q 6.659,0 10.91,3.117 4.251,3.117 4.251,8.997 0,3.046 -1.346,5.313 -1.275,2.267 -3.471,4.038 -2.196,1.7 -4.817,3.046 3.117,1.488 5.668,3.401 2.55,1.842 4.038,4.322 1.559,2.48 1.559,5.951 0,6.376 -4.534,10.131 -4.466,3.684 -12.046,3.684 -8.147,0 -12.539,-3.542 -4.393,-3.613 -4.393,-10.06 0,-3.471 1.417,-6.022 1.488,-2.55 3.896,-4.392 2.409,-1.842 5.172,-3.117 -3.684,-2.125 -6.305,-5.101 -2.55,-3.046 -2.55,-7.722 0,-3.896 1.984,-6.518 1.984,-2.692 5.384,-4.109 3.4,-1.417 7.722,-1.417 z m -0.071,5.03 q -3.896,0 -6.447,1.913 -2.48,1.842 -2.48,5.384 0,2.621 1.204,4.392 1.275,1.771 3.401,3.046 2.125,1.204 4.676,2.338 3.684,-1.559 6.163,-3.755 2.55,-2.196 2.55,-6.022 0,-3.542 -2.48,-5.384 -2.48,-1.913 -6.589,-1.913 z m -10.556,33.439 q 0,3.684 2.621,6.163 2.621,2.409 8.076,2.409 5.172,0 7.864,-2.409 2.763,-2.48 2.763,-6.376 0,-3.684 -2.905,-6.093 -2.905,-2.48 -7.722,-4.322 l -1.134,-0.425 q -4.676,1.984 -7.155,4.605 -2.409,2.55 -2.409,6.447 z" />
  </g>
  <g id="9" transform="translate(208,96)">
    <rect width="52" height="95.077" fill="none" />
    <rect width="48" height="72" x="2" y="11.539" rx="4" class="ColorScheme-Highlight" fill="currentColor" />
    <rect width="48" height="72" x="2" y="11.539" rx="4" fill="#000000" opacity="0.7" />
    <path class="ColorScheme-Highlight" fill="currentColor"
      d="m 42.649,43.855 q 0,5.455 -0.992,10.768 -0.921,5.243 -3.471,9.564 -2.48,4.251 -7.084,6.801 -4.535,2.551 -11.691,2.551 -1.417,0 -3.33,-0.213 -1.842,-0.142 -3.046,-0.496 v -5.313 q 2.763,0.921 6.234,0.921 4.959,0 8.147,-1.629 3.259,-1.629 5.172,-4.392 1.913,-2.834 2.763,-6.518 0.85,-3.755 0.992,-7.864 h -0.425 q -1.559,2.409 -4.534,4.18 -2.905,1.7 -7.51,1.7 -6.518,0 -10.556,-3.967 -3.967,-4.038 -3.967,-11.335 0,-5.313 1.984,-9.139 2.055,-3.826 5.668,-5.881 3.613,-2.054 8.501,-2.054 4.817,0 8.714,2.48 3.896,2.409 6.163,7.368 2.267,4.888 2.267,12.469 z m -17.145,-17.073 q -4.392,0 -7.226,2.905 -2.763,2.905 -2.763,8.856 0,4.888 2.338,7.722 2.409,2.763 7.368,2.763 3.401,0 5.88,-1.346 2.48,-1.417 3.826,-3.542 1.417,-2.125 1.417,-4.392 0,-3.046 -1.204,-6.022 -1.204,-2.975 -3.613,-4.959 -2.409,-1.984 -6.022,-1.984 z" />
    <path fill="#ffffff" opacity="0.5"
      d="m 42.649,43.855 q 0,5.455 -0.992,10.768 -0.921,5.243 -3.471,9.564 -2.48,4.251 -7.084,6.801 -4.535,2.551 -11.691,2.551 -1.417,0 -3.33,-0.213 -1.842,-0.142 -3.046,-0.496 v -5.313 q 2.763,0.921 6.234,0.921 4.959,0 8.147,-1.629 3.259,-1.629 5.172,-4.392 1.913,-2.834 2.763,-6.518 0.85,-3.755 0.992,-7.864 h -0.425 q -1.559,2.409 -4.534,4.18 -2.905,1.7 -7.51,1.7 -6.518,0 -10.556,-3.967 -3.967,-4.038 -3.967,-11.335 0,-5.313 1.984,-9.139 2.055,-3.826 5.668,-5.881 3.613,-2.054 8.501,-2.054 4.817,0 8.714,2.48 3.896,2.409 6.163,7.368 2.267,4.888 2.267,12.469 z m -17.145,-17.073 q -4.392,0 -7.226,2.905 -2.763,2.905 -2.763,8.856 0,4.888 2.338,7.722 2.409,2.763 7.368,2.763 3.401,0 5.88,-1.346 2.48,-1.417 3.826,-3.542 1.417,-2.125 1.417,-4.392 0,-3.046 -1.204,-6.022 -1.204,-2.975 -3.613,-4.959 -2.409,-1.984 -6.022,-1.984 z" />
  </g>
  <g id="0_1" transform="translate(0,192)">
    <rect width="52" height="95.077" fill="none" />
    <rect width="48" height="72" x="2" y="11.539" rx="4" class="ColorScheme-Background" fill="currentColor" />
    <rect width="48" height="72" x="2" y="11.539" rx="4" fill="#ffffff" opacity="0.05" />
    <path class="ColorScheme-Text" fill="currentColor"
      d="m 42.767,47.504 q 0,8.136 -1.698,14.008 -1.698,5.801 -5.377,8.914 -3.678,3.113 -9.763,3.113 -8.56,0 -12.664,-6.863 -4.032,-6.933 -4.032,-19.172 0,-8.207 1.627,-14.008 1.698,-5.801 5.377,-8.844 3.679,-3.113 9.692,-3.113 8.49,0 12.664,6.863 4.174,6.792 4.174,19.102 z m -27.309,0 q 0,10.4 2.335,15.565 2.405,5.165 8.136,5.165 5.66,0 8.065,-5.094 2.476,-5.165 2.476,-15.635 0,-10.329 -2.476,-15.494 -2.405,-5.165 -8.065,-5.165 -5.731,0 -8.136,5.165 -2.335,5.165 -2.335,15.494 z" />
  </g>
  <g id="1_1" transform="translate(52,192)">
    <rect width="52" height="95.077" fill="none" />
    <rect width="48" height="72" x="2" y="11.539" rx="4" class="ColorScheme-Background" fill="currentColor" />
    <rect width="48" height="72" x="2" y="11.539" rx="4" fill="#ffffff" opacity="0.05" />
    <path class="ColorScheme-Text" fill="currentColor"
      d="m 35.686,73.539 h -6.263 v -36.342 q 0,-3.132 0.073,-5.025 0.073,-1.894 0.218,-3.933 -1.165,1.165 -2.112,1.966 -0.947,0.801 -2.403,2.039 l -5.535,4.516 -3.35,-4.297 14.056,-10.924 h 5.317 z" />
  </g>
  <g id="2_1" transform="translate(104,192)">
    <rect width="52" height="95.077" fill="none" />
    <rect width="48" height="72" x="2" y="11.539" rx="4" class="ColorScheme-Background" fill="currentColor" />
    <rect width="48" height="72" x="2" y="11.539" rx="4" fill="#ffffff" opacity="0.05" />
    <path class="ColorScheme-Text" fill="currentColor"
      d="M 42.95,73.539 H 9.05 v -5.243 l 13.431,-13.575 q 3.878,-3.878 6.536,-6.895 2.657,-3.017 4.022,-5.89 1.365,-2.945 1.365,-6.392 0,-4.238 -2.514,-6.392 -2.514,-2.227 -6.536,-2.227 -3.735,0 -6.608,1.293 -2.801,1.293 -5.746,3.592 l -3.376,-4.238 q 3.017,-2.514 6.895,-4.237 3.951,-1.796 8.835,-1.796 7.182,0 11.348,3.663 4.166,3.591 4.166,9.983 0,4.022 -1.652,7.541 -1.652,3.519 -4.597,6.967 -2.945,3.376 -6.895,7.254 l -10.702,10.559 v 0.287 H 42.95 Z" />
  </g>
  <g id="3_1" transform="translate(156,192)">
    <rect width="52" height="95.077" fill="none" />
    <rect width="48" height="72" x="2" y="11.539" rx="4" class="ColorScheme-Background" fill="currentColor" />
    <rect width="48" height="72" x="2" y="11.539" rx="4" fill="#ffffff" opacity="0.05" />
    <path class="ColorScheme-Text" fill="currentColor"
      d="m 41.091,34.079 q 0,5.101 -2.834,8.147 -2.834,2.975 -7.651,3.967 v 0.283 q 6.093,0.708 9.068,3.826 2.975,3.117 2.975,8.147 0,4.392 -2.054,7.864 -2.054,3.401 -6.376,5.313 -4.251,1.913 -10.981,1.913 -3.967,0 -7.368,-0.638 -3.4,-0.566 -6.518,-2.125 v -5.809 q 3.188,1.559 6.872,2.48 3.684,0.85 7.084,0.85 6.801,0 9.777,-2.621 3.046,-2.692 3.046,-7.368 0,-4.747 -3.755,-6.801 -3.684,-2.125 -10.414,-2.125 h -4.887 v -5.314 h 4.959 q 6.234,0 9.422,-2.621 3.259,-2.621 3.259,-6.943 0,-3.684 -2.48,-5.668 -2.48,-2.054 -6.73,-2.054 -4.109,0 -7.014,1.204 -2.905,1.204 -5.738,3.046 l -3.117,-4.25 q 2.692,-2.126 6.659,-3.684 4.038,-1.559 9.139,-1.559 7.935,0 11.76,3.542 3.896,3.542 3.896,8.997 z" />
  </g>
  <g id="4_1" transform="translate(208,192)">
    <rect width="52" height="95.077" fill="none" />
    <rect width="48" height="72" x="2" y="11.539" rx="4" class="ColorScheme-Background" fill="currentColor" />
    <rect width="48" height="72" x="2" y="11.539" rx="4" fill="#ffffff" opacity="0.05" />
    <path class="ColorScheme-Text" fill="currentColor"
      d="m 45.228,61.806 h -7.532 v 11.733 h -6.156 v -11.733 H 6.772 v -5.431 l 24.334,-34.836 h 6.591 v 34.546 h 7.532 z m -13.688,-22.016 q 0,-3.766 0.145,-6.373 0.145,-2.68 0.217,-5.07 h -0.29 q -0.579,1.376 -1.448,2.969 -0.869,1.593 -1.666,2.68 l -15.498,22.089 h 18.54 z" />
  </g>
  <g id="5_1" transform="translate(0,288)">
    <rect width="52" height="95.077" fill="none" />
    <rect width="48" height="72" x="2" y="11.539" rx="4" class="ColorScheme-Background" fill="currentColor" />
    <rect width="48" height="72" x="2" y="11.539" rx="4" fill="#ffffff" opacity="0.05" />
    <path class="ColorScheme-Text" fill="currentColor"
      d="m 24.994,41.362 q 7.901,0 12.569,3.95 4.669,3.95 4.669,11.133 0,7.972 -5.099,12.569 -5.028,4.525 -14.078,4.525 -3.95,0 -7.469,-0.718 -3.448,-0.718 -5.818,-2.083 v -5.961 q 2.586,1.58 6.249,2.514 3.735,0.862 7.11,0.862 5.674,0 9.122,-2.657 3.519,-2.729 3.519,-8.403 0,-5.028 -3.088,-7.685 -3.088,-2.729 -9.768,-2.729 -2.011,0 -4.597,0.359 -2.586,0.359 -4.166,0.718 l -3.16,-2.013 1.939,-24.204 h 25.713 v 5.746 H 18.315 l -1.221,14.867 q 1.221,-0.215 3.304,-0.503 2.083,-0.287 4.597,-0.287 z" />
  </g>
  <g id="6_1" transform="translate(52,288)">
    <rect width="52" height="95.077" fill="none" />
    <rect width="48" height="72" x="2" y="11.539" rx="4" class="ColorScheme-Background" fill="currentColor" />
    <rect width="48" height="72" x="2" y="11.539" rx="4" fill="#ffffff" opacity="0.05" />
    <path class="ColorScheme-Text" fill="currentColor"
      d="m 9.352,51.223 q 0,-5.455 0.921,-10.698 0.992,-5.313 3.471,-9.564 2.55,-4.322 7.084,-6.872 4.535,-2.55 11.691,-2.55 1.488,0 3.259,0.142 1.842,0.142 2.975,0.496 v 5.313 q -1.275,-0.425 -2.905,-0.638 -1.559,-0.213 -3.188,-0.213 -4.888,0 -8.147,1.629 -3.259,1.629 -5.172,4.463 -1.842,2.834 -2.692,6.518 -0.85,3.684 -1.063,7.864 h 0.425 q 1.629,-2.48 4.534,-4.18 2.905,-1.771 7.439,-1.771 6.589,0 10.627,4.038 4.038,3.967 4.038,11.335 0,7.935 -4.392,12.469 -4.321,4.535 -11.689,4.535 -4.818,0 -8.714,-2.409 -3.897,-2.408 -6.234,-7.368 -2.268,-4.959 -2.268,-12.539 z m 17.145,17.073 q 4.463,0 7.226,-2.834 2.763,-2.905 2.763,-8.926 0,-4.817 -2.48,-7.651 -2.409,-2.834 -7.297,-2.834 -3.33,0 -5.809,1.417 -2.48,1.346 -3.896,3.471 -1.346,2.125 -1.346,4.392 0,3.046 1.204,6.093 1.204,2.975 3.613,4.959 2.409,1.913 6.022,1.913 z" />
  </g>
  <g id="7_1" transform="translate(104,288)">
    <rect width="52" height="95.077" fill="none" />
    <rect width="48" height="72" x="2" y="11.539" rx="4" class="ColorScheme-Background" fill="currentColor" />
    <rect width="48" height="72" x="2" y="11.539" rx="4" fill="#ffffff" opacity="0.05" />
    <path class="ColorScheme-Text" fill="currentColor"
      d="m 15.259,73.539 21.339,-46.174 h -28.04 v -5.826 h 34.885 v 4.952 l -21.12,47.048 z" />
  </g>
  <g id="8_1" transform="translate(156,288)">
    <rect width="52" height="95.077" fill="none" />
    <rect width="48" height="72" x="2" y="11.539" rx="4" class="ColorScheme-Background" fill="currentColor" />
    <rect width="48" height="72" x="2" y="11.539" rx="4" fill="#ffffff" opacity="0.05" />
    <path class="ColorScheme-Text" fill="currentColor"
      d="m 25.964,21.539 q 6.659,0 10.91,3.117 4.251,3.117 4.251,8.997 0,3.046 -1.346,5.313 -1.275,2.267 -3.471,4.038 -2.196,1.7 -4.817,3.046 3.117,1.488 5.668,3.401 2.55,1.842 4.038,4.322 1.559,2.48 1.559,5.951 0,6.376 -4.534,10.131 -4.466,3.684 -12.046,3.684 -8.147,0 -12.539,-3.542 -4.393,-3.613 -4.393,-10.06 0,-3.471 1.417,-6.022 1.488,-2.55 3.896,-4.392 2.409,-1.842 5.172,-3.117 -3.684,-2.125 -6.305,-5.101 -2.55,-3.046 -2.55,-7.722 0,-3.896 1.984,-6.518 1.984,-2.692 5.384,-4.109 3.4,-1.417 7.722,-1.417 z m -0.071,5.03 q -3.896,0 -6.447,1.913 -2.48,1.842 -2.48,5.384 0,2.621 1.204,4.392 1.275,1.771 3.401,3.046 2.125,1.204 4.676,2.338 3.684,-1.559 6.163,-3.755 2.55,-2.196 2.55,-6.022 0,-3.542 -2.48,-5.384 -2.48,-1.913 -6.589,-1.913 z m -10.556,33.439 q 0,3.684 2.621,6.163 2.621,2.409 8.076,2.409 5.172,0 7.864,-2.409 2.763,-2.48 2.763,-6.376 0,-3.684 -2.905,-6.093 -2.905,-2.48 -7.722,-4.322 l -1.134,-0.425 q -4.676,1.984 -7.155,4.605 -2.409,2.55 -2.409,6.447 z" />
  </g>
  <g id="9_1" transform="translate(208,288)">
    <rect width="52" height="95.077" fill="none" />
    <rect width="48" height="72" x="2" y="11.539" rx="4" class="ColorScheme-Background" fill="currentColor" />
    <rect width="48" height="72" x="2" y="11.539" rx="4" fill="#ffffff" opacity="0.05" />
    <path class="ColorScheme-Text" fill="currentColor"
      d="m 42.649,43.855 q 0,5.455 -0.992,10.768 -0.921,5.243 -3.471,9.564 -2.48,4.251 -7.084,6.801 -4.535,2.551 -11.691,2.551 -1.417,0 -3.33,-0.213 -1.842,-0.142 -3.046,-0.496 v -5.313 q 2.763,0.921 6.234,0.921 4.959,0 8.147,-1.629 3.259,-1.629 5.172,-4.392 1.913,-2.834 2.763,-6.518 0.85,-3.755 0.992,-7.864 h -0.425 q -1.559,2.409 -4.534,4.18 -2.905,1.7 -7.51,1.7 -6.518,0 -10.556,-3.967 -3.967,-4.038 -3.967,-11.335 0,-5.313 1.984,-9.139 2.055,-3.826 5.668,-5.881 3.613,-2.054 8.501,-2.054 4.817,0 8.714,2.48 3.896,2.409 6.163,7.368 2.267,4.888 2.267,12.469 z m -17.145,-17.073 q -4.392,0 -7.226,2.905 -2.763,2.905 -2.763,8.856 0,4.888 2.338,7.722 2.409,2.763 7.368,2.763 3.401,0 5.88,-1.346 2.48,-1.417 3.826,-3.542 1.417,-2.125 1.417,-4.392 0,-3.046 -1.204,-6.022 -1.204,-2.975 -3.613,-4.959 -2.409,-1.984 -6.022,-1.984 z" />
  </g>
  <g id="separator" transform="translate(260)">
    <rect width="26" height="95.077" fill="none" />
    <path class="ColorScheme-Text" fill="currentColor"
      d="m 8.608,32.378 q 0,-2.692 1.275,-3.755 1.275,-1.063 3.046,-1.063 1.842,0 3.117,1.063 1.346,1.063 1.346,3.755 0,2.55 -1.346,3.684 -1.275,1.134 -3.117,1.134 -1.771,0 -3.046,-1.134 -1.275,-1.133 -1.275,-3.684 z m 0,30.321 q 0,-2.621 1.275,-3.684 1.275,-1.063 3.046,-1.063 1.842,0 3.117,1.063 1.346,1.063 1.346,3.684 0,2.55 -1.346,3.684 -1.275,1.134 -3.117,1.134 -1.771,0 -3.046,-1.134 -1.275,-1.133 -1.275,-3.683 z" />
  </g>
  <g id="separatorB" transform="translate(260,96)">
    <rect width="26" height="95.077" fill="none" />
    <path class="ColorScheme-Text" fill="currentColor"
      d="m 8.608,62.699 q 0,-2.621 1.275,-3.684 1.275,-1.063 3.046,-1.063 1.842,0 3.117,1.063 1.346,1.063 1.346,3.684 0,2.55 -1.346,3.684 -1.275,1.134 -3.117,1.134 -1.771,0 -3.046,-1.134 -1.275,-1.134 -1.275,-3.684 z" />
  </g>
  <g id="separatorC" transform="translate(260)">
    <rect width="26" height="95.077" fill="none" />
  </g>
  <g id="separator_1" transform="translate(260,192)">
    <rect width="26" height="95.077" fill="none" />
    <path class="ColorScheme-Text" fill="currentColor"
      d="m 8.608,32.378 q 0,-2.692 1.275,-3.755 1.275,-1.063 3.046,-1.063 1.842,0 3.117,1.063 1.346,1.063 1.346,3.755 0,2.55 -1.346,3.684 -1.275,1.134 -3.117,1.134 -1.771,0 -3.046,-1.134 -1.275,-1.133 -1.275,-3.684 z m 0,30.321 q 0,-2.621 1.275,-3.684 1.275,-1.063 3.046,-1.063 1.842,0 3.117,1.063 1.346,1.063 1.346,3.684 0,2.55 -1.346,3.684 -1.275,1.134 -3.117,1.134 -1.771,0 -3.046,-1.134 -1.275,-1.133 -1.275,-3.683 z" />
  </g>
  <g id="separatorB_1" transform="translate(260,288)">
    <rect width="26" height="95.077" fill="none" />
    <path class="ColorScheme-Text" fill="currentColor"
      d="m 8.608,62.699 q 0,-2.621 1.275,-3.684 1.275,-1.063 3.046,-1.063 1.842,0 3.117,1.063 1.346,1.063 1.346,3.684 0,2.55 -1.346,3.684 -1.275,1.134 -3.117,1.134 -1.771,0 -3.046,-1.134 -1.275,-1.134 -1.275,-3.684 z" />
  </g>
  <g id="separatorC_1" transform="translate(260,192)">
    <rect width="26" height="95.077" fill="none" />
  </g>
</svg>