<?xml version="1.0" encoding="UTF-8" standalone="no"?>
<svg width="157" height="64" version="1.1" id="svg11" sodipodi:docname="tooltip.svg"
  inkscape:version="1.3.2 (091e20e, 2023-11-25, custom)" xmlns:inkscape="http://www.inkscape.org/namespaces/inkscape"
  xmlns:sodipodi="http://sodipodi.sourceforge.net/DTD/sodipodi-0.dtd" xmlns:xlink="http://www.w3.org/1999/xlink"
  xmlns="http://www.w3.org/2000/svg" xmlns:svg="http://www.w3.org/2000/svg">
  <defs id="defs1">
    <style type="text/css" id="current-color-scheme">
      .ColorScheme-Text {
        color: #232629;
        stop-color: #232629;
      }

      .ColorScheme-Background {
        color: #eff0f1;
        stop-color: #eff0f1;
      }
    </style>
    <linearGradient id="shadow-side" gradientUnits="userSpaceOnUse">
      <stop offset="0" stop-opacity="0.2" id="stop1" />
      <stop offset="0.333" stop-opacity="0.1" id="stop2" />
      <stop offset="0.5" stop-opacity="0.05" id="stop3" />
      <stop offset="0.583" stop-opacity="0.025" id="stop4" />
      <stop offset="1" stop-opacity="0" id="stop5" />
    </linearGradient>
    <linearGradient id="shadow-corner" gradientUnits="userSpaceOnUse">
      <stop offset="0" stop-opacity="1" id="stop6" />
      <stop offset="0.286" stop-opacity="0.2" id="stop7" />
      <stop offset="0.524" stop-opacity="0.1" id="stop8" />
      <stop offset="0.643" stop-opacity="0.05" id="stop9" />
      <stop offset="0.702" stop-opacity="0.025" id="stop10" />
      <stop offset="1" stop-opacity="0" id="stop11" />
    </linearGradient>
    <radialGradient xlink:href="#shadow-corner" id="radialGradient3268-6-6" cx="93.14286" cy="50" r="6.5"
      gradientUnits="userSpaceOnUse" gradientTransform="matrix(0,2.1538462,-2.1538462,0,107.69231,-202.61538)" />
    <linearGradient xlink:href="#shadow-side" id="linearGradient4945" x1="16" y1="14" x2="16" y2="4"
      gradientUnits="userSpaceOnUse" />
    <linearGradient xlink:href="#shadow-side" id="linearGradient1734" x1="16" y1="6" x2="16" y2="16"
      gradientUnits="userSpaceOnUse" />
    <linearGradient xlink:href="#shadow-side" id="linearGradient1984" x1="12" y1="16" x2="2" y2="16"
      gradientUnits="userSpaceOnUse" />
    <linearGradient xlink:href="#shadow-side" id="linearGradient8667" x1="4" y1="16" x2="14" y2="16"
      gradientUnits="userSpaceOnUse" />
    <radialGradient xlink:href="#shadow-corner" id="radialGradient3268" cx="95" cy="50" r="6.5"
      gradientUnits="userSpaceOnUse" gradientTransform="matrix(0,2.1538462,-2.1538462,0,107.69231,-202.61538)" />
    <radialGradient xlink:href="#shadow-corner" id="radialGradient3268-4" cx="95" cy="50" r="6.5"
      gradientUnits="userSpaceOnUse" gradientTransform="matrix(0,2.1538462,-2.1538462,0,107.69231,-202.61538)" />
    <radialGradient xlink:href="#shadow-corner" id="radialGradient3268-6" cx="93.14286" cy="50" r="6.5"
      gradientUnits="userSpaceOnUse" gradientTransform="matrix(0,2.1538462,-2.1538462,0,107.69231,-202.61538)" />
  </defs>
  <circle id="hint-tile-center" cx="1" cy="1" r="1" fill="#ff6600" />
  <path id="topleft" d="M 0,16 H 6 V 10 C 2,10 0,12 0,16 Z" class="ColorScheme-Background" fill="currentColor"
    opacity="0.85" />
  <g id="top">
    <rect width="32" height="6" x="6" y="10" class="ColorScheme-Background" fill="currentColor" opacity="0.85"
      id="rect1" />
    <path d="m 6,10 v 1 h 32 v -1 z" class="ColorScheme-Background" fill="currentColor" opacity="0.5" id="path1" />
  </g>
  <path id="topright" d="m 38,10 v 6 h 6 c 0,-4 -2,-6 -6,-6 z" class="ColorScheme-Background" fill="currentColor"
    opacity="0.85" />
  <g id="left">
    <rect width="6" height="32" x="0" y="16" class="ColorScheme-Background" fill="currentColor" opacity="0.85"
      id="rect2" />
    <path d="M 0,48 H 1 V 16 H 0 Z" class="ColorScheme-Background" fill="currentColor" opacity="0.5" id="path2" />
  </g>
  <rect id="center" width="32" height="32" x="6" y="16" class="ColorScheme-Background" fill="currentColor"
    opacity="0.85" />
  <g id="right">
    <rect width="6" height="32" x="38" y="16" class="ColorScheme-Background" fill="currentColor" opacity="0.85"
      id="rect3" />
    <path d="m 43,48 h 1 V 16 h -1 z" class="ColorScheme-Background" fill="currentColor" opacity="0.5" id="path3" />
  </g>
  <path id="bottomleft" d="M 6,54 V 48 H 0 c 0,4 2,6 6,6 z" class="ColorScheme-Background" fill="currentColor"
    opacity="0.85" />
  <g id="bottom">
    <rect width="32" height="6" x="6" y="48" class="ColorScheme-Background" fill="currentColor" opacity="0.85" />
    <path d="m 6,53 v 1 h 32 v -1 z" class="ColorScheme-Background" fill="currentColor" opacity="0.5" />
  </g>
  <path id="bottomright" d="m 38,54 v -6 h 6 c 0,4 -2,6 -6,6 z" class="ColorScheme-Background" fill="currentColor"
    opacity="0.85" />
  <rect id="hint-top-margin" width="4" height="4" x="20" y="10" fill="#ff00ff" />
  <rect id="hint-left-margin" width="4" height="4" x="0" y="30" fill="#ff00ff" />
  <rect id="hint-right-margin" width="4" height="4" x="40" y="30" fill="#ff00ff" />
  <rect id="hint-bottom-margin" width="4" height="4" x="20" y="50" fill="#ff00ff" />
  <rect id="hint-top-inset" width="4" height="0.001" x="20" y="10" fill="#00ff00" />
  <rect id="hint-left-inset" width="0.001" height="4" x="0" y="30" fill="#00ff00" />
  <rect id="hint-right-inset" width="0.001" height="4" x="43.999" y="30" fill="#00ff00" />
  <rect id="hint-bottom-inset" width="4" height="0.001" x="20" y="53.999" fill="#00ff00" />
  <path id="mask-topleft" d="m 114,16 h -1 6 v -6 1 c -3.45746,-0.0052 -4.96328,1.572529 -5,5 z" />
  <rect id="mask-top" height="6.000021" width="31.99999" x="119" y="10" />
  <path id="mask-topright" d="m 156,16 h 1 -6 v -6 1 c 3.23259,0.0063 5.02079,1.824404 5,5 z" />
  <rect id="mask-left" height="32" width="6" x="113" y="16" />
  <rect id="mask-center" height="32" width="32" x="119" y="16" />
  <rect id="mask-right" height="32" width="6" x="151" y="16" />
  <path id="mask-bottomleft" d="m 114,48 h -1 6 v 6 -1 c -3.45746,0.0052 -4.98407,-1.580156 -5,-5 z" />
  <rect id="mask-bottom" height="6.0000215" transform="scale(1,-1)" width="32.000008" x="119" y="-54" />
  <path id="mask-bottomright" d="m 156,48 h 1 -6 v 6 -1 c 3.53089,-0.03156 5,-1.55417 5,-5 z" />
  <!-- MARK: Break -->
  <path d="m 63,10 h 32 c 4,0 6,2 6,6 v 32 c 0,4 -2,6 -6,6 H 63 c -4,0 -6,-2 -6,-6 V 16 c 0,-4 2,-6 6,-6 z"
    fill="#ffff00" />
  <g id="shadow-topleft" transform="rotate(180,31.5,8)">
    <path d="M 0,6 V 0 H 6 C 6,4 4,6 0,6 Z" inkscape:label="#shadow-bottomright"
      style="opacity:0.00100002;fill:#000000;fill-opacity:0.00392157" id="path95-4-2" />
    <path id="path2368-7-5"
      style="fill:url(#radialGradient3268-6-6);fill-opacity:1;fill-rule:evenodd;stroke-width:0.999997"
      d="M 6,0 C 6,4 4,6 0,6 V 16 H 3 C 10.179702,16 16,10.179702 16,3 V 0 Z" sodipodi:nodetypes="cccsscc" />
  </g>
  <g id="shadow-center" transform="translate(63,16)">
    <rect id="rect4908" height="32" style="opacity:0.00100002;fill-opacity:0.00100002" width="32" x="0" y="0" />
  </g>
  <g id="shadow-top" transform="translate(63)">
    <rect id="st" height="10" width="32" style="fill:url(#linearGradient4945);fill-opacity:1" x="0" y="0" />
    <rect id="rect1546" height="6" style="opacity:0.00100002;fill:#000000;fill-opacity:0.00392157;fill-rule:evenodd"
      width="32" y="10" x="0" />
  </g>
  <g id="shadow-bottom" transform="translate(63,48)">
    <rect id="rect1546-6" height="6" style="opacity:0.00100002;fill:#000000;fill-opacity:0.00392157;fill-rule:evenodd"
      width="32" x="0" y="0" />
    <rect id="sb" height="10" width="32" y="6" style="fill:url(#linearGradient1734);fill-opacity:1" x="0" />
  </g>
  <g id="shadow-left" transform="translate(47,16)">
    <rect id="sl" height="32" width="10" style="fill:url(#linearGradient1984);fill-opacity:1" x="0" y="0" />
    <rect id="rect1546-3-7" height="32"
      style="opacity:0.00100002;fill:#000000;fill-opacity:0.00392157;fill-rule:evenodd" width="6" x="10" y="0" />
  </g>
  <g id="shadow-right" transform="translate(95,16)">
    <rect id="rect1546-3" height="32" style="opacity:0.00100002;fill:#000000;fill-opacity:0.00392157;fill-rule:evenodd"
      width="6" x="0" y="0" />
    <rect id="sr" height="32" width="10" x="6" style="fill:url(#linearGradient8667);fill-opacity:1" y="0" />
  </g>
  <rect id="shadow-hint-top-margin" height="10" style="fill:#ff00ff" width="2" x="76" y="0" />
  <rect id="shadow-hint-bottom-margin" height="10" style="fill:#ff00ff" width="2" x="76" y="54" />
  <rect id="shadow-hint-right-margin" height="2" style="fill:#ff00ff" width="10" x="101" y="33" />
  <rect id="shadow-hint-left-margin" height="2" style="fill:#ff00ff" width="10" x="47" y="29" />
  <rect id="shadow-hint-top-inset" height="10" style="fill:#00ff00" width="2" x="80" y="0" />
  <rect id="shadow-hint-bottom-inset" height="10" style="fill:#00ff00" width="2" x="80" y="54" />
  <rect id="shadow-hint-right-inset" height="2" style="fill:#00ff00" width="10" x="101" y="29" />
  <rect id="shadow-hint-left-inset" height="2" style="fill:#00ff00" width="10" x="47" y="33" />
  <g id="shadow-bottomright" transform="translate(95,48)">
    <path d="M 0,6 V 0 H 6 C 6,3.9985637 3.9804714,6 0,6 Z" inkscape:label="#shadow-bottomright"
      style="opacity:0.00100002;fill:#000000;fill-opacity:0.00392157" id="path95" />
    <path id="path2368" style="fill:url(#radialGradient3268);fill-opacity:1;fill-rule:evenodd;stroke-width:0.999997"
      d="M 6,0 C 6,4 4,6 0,6 V 16 H 3 C 10.179702,16 16,10.179702 16,3 V 0 Z" sodipodi:nodetypes="cccsscc" />
  </g>
  <g id="shadow-bottomleft" transform="matrix(-1,0,0,1,63,48)">
    <path d="M 3,6 H 0 V 0 H 6 V 3 C 6,4.6568542 4.6568542,6 3,6 Z" inkscape:label="#shadow-bottomright"
      style="opacity:0.00100002;fill:#000000;fill-opacity:0.00392157" id="path95-1" />
    <path id="path2368-0" style="fill:url(#radialGradient3268-4);fill-opacity:1;fill-rule:evenodd;stroke-width:0.999997"
      d="M 6,0 C 6,3.9985637 3.9951555,6 0,6 V 16 H 3 C 10.179702,16 16,10.179702 16,3 V 0 Z"
      sodipodi:nodetypes="cccsscc" />
  </g>
  <g id="shadow-topright" transform="matrix(1,0,0,-1,95,16)">
    <path d="M 3,6 H 0 V 0 H 6 V 3 C 6,4.6568542 4.6568542,6 3,6 Z" inkscape:label="#shadow-bottomright"
      style="opacity:0.00100002;fill:#000000;fill-opacity:0.00392157" id="path95-4" sodipodi:nodetypes="scccss" />
    <path id="path2368-7" style="fill:url(#radialGradient3268-6);fill-opacity:1;fill-rule:evenodd;stroke-width:0.999997"
      d="M 6,0 C 6,3.9881462 3.9744051,6 0,6 V 16 H 3 C 10.179702,16 16,10.179702 16,3 V 0 Z"
      sodipodi:nodetypes="cccsscc" />
  </g>
</svg>