<svg height="22" width="22" xmlns="http://www.w3.org/2000/svg">
  <style type="text/css" id="current-color-scheme">
    .ColorScheme-Text {
      color: #e2e2e5;
    }
  </style>
  <path
    d="m 3.667,18.333 q -0.756,0 -1.295,-0.539 Q 1.833,17.256 1.833,16.5 v -11 q 0,-0.756 0.539,-1.295 0.539,-0.539 1.295,-0.539 h 5.5 L 11,5.5 h 7.333 q 0.756,0 1.295,0.539 0.539,0.539 0.539,1.295 H 10.244 L 8.41,5.5 h -4.744 v 11 l 2.2,-7.333 H 21.542 L 19.181,17.027 q -0.183,0.596 -0.676,0.951 -0.493,0.355 -1.089,0.355 z M 5.592,16.5 H 17.417 l 1.65,-5.5 H 7.242 Z m 0,0 1.65,-5.5 z m -1.925,-9.167 V 5.5 Z"
    class="ColorScheme-Text" fill="currentColor" />
</svg>