<svg height="22" width="22" xmlns="http://www.w3.org/2000/svg">
  <style type="text/css" id="current-color-scheme">
    .ColorScheme-Text {
      color: #e2e2e5;
    }
  </style>
  <path
    d="m 4.385,8.114 c 0.047,-0.149 0.094,-0.343 0.132,-0.541 l 0.005,-0.036 c -0.24,0.303 -0.117,0.364 -0.138,0.57 z m 0.433,-1.829 c 0.048,0.392 -0.295,0.55 0.075,0.289 0.206,-0.454 -0.075,-0.124 -0.069,-0.289 z m 6.491,-3.452 c 0.18,-0.034 0.404,-0.063 0.63,-0.081 l 0.023,-0.002 c -0.254,0.021 -0.509,0.035 -0.756,0.069 l 0.103,0.014 z m 5.949,7.357 -0.048,0.103 c -0.08,0.567 -0.246,1.08 -0.487,1.548 l 0.013,-0.027 c 0.26,-0.47 0.442,-1.019 0.513,-1.602 l 0.002,-0.022 z m -7.523,1.637 c -0.084,-0.103 -0.156,-0.221 -0.21,-0.348 l -0.004,-0.009 c 0.074,0.23 0.174,0.431 0.3,0.612 l -0.005,-0.007 -0.083,-0.248 z m -0.426,0.021 -0.034,0.193 c 0.164,0.262 0.345,0.49 0.55,0.694 v 0 c -0.165,-0.323 -0.289,-0.454 -0.515,-0.894 z m 6.793,-1.967 c -0.015,0.378 -0.11,0.73 -0.268,1.046 l 0.007,-0.015 -0.24,0.124 c -0.193,0.371 0.021,0.24 -0.117,0.536 -0.331,0.327 -0.695,0.622 -1.087,0.878 l -0.026,0.017 c -0.138,0 0.096,-0.172 0.13,-0.234 -0.406,0.275 -0.331,0.413 -0.942,0.584 l -0.021,-0.041 c -0.257,0.088 -0.554,0.139 -0.863,0.139 -1.518,0 -2.748,-1.23 -2.748,-2.748 0,-0.011 0,-0.023 0,-0.034 v 0.002 c -0.02,0.117 -0.048,0.089 -0.083,0.138 -0.006,-0.062 -0.009,-0.133 -0.009,-0.206 0,-0.964 0.558,-1.797 1.37,-2.194 l 0.014,-0.007 c 0.303,-0.156 0.66,-0.246 1.038,-0.246 0.586,0 1.122,0.218 1.529,0.579 l -0.002,-0.002 c -0.424,-0.546 -1.081,-0.894 -1.818,-0.894 -0.018,0 -0.036,0 -0.054,5.5e-4 h 0.003 c -0.779,0.007 -1.457,0.436 -1.817,1.069 l -0.006,0.01 c -0.413,0.261 -0.46,1.01 -0.639,1.142 -0.037,0.185 -0.059,0.398 -0.059,0.616 0,1.224 0.678,2.289 1.678,2.841 l 0.017,0.008 c 0.185,0.13 0.055,0.144 0.083,0.24 -0.414,-0.199 -0.763,-0.468 -1.048,-0.794 l -0.003,-0.004 c 0.154,0.241 0.336,0.448 0.546,0.622 l 0.004,0.003 c -0.378,-0.124 -0.873,-0.894 -1.017,-0.928 0.639,1.141 2.598,2.008 3.616,1.581 -0.09,0.007 -0.195,0.01 -0.301,0.01 -0.465,0 -0.912,-0.074 -1.331,-0.212 l 0.03,0.009 c -0.227,-0.11 -0.529,-0.35 -0.481,-0.392 0.457,0.197 0.988,0.312 1.546,0.312 0.955,0 1.831,-0.336 2.517,-0.895 l -0.007,0.005 c 0.303,-0.24 0.639,-0.646 0.735,-0.653 -0.138,0.22 0.028,0.11 -0.083,0.303 0.303,-0.495 -0.138,-0.206 0.316,-0.853 l 0.165,0.227 c -0.062,-0.413 0.509,-0.908 0.454,-1.555 0.13,-0.206 0.138,0.206 0,0.667 0.199,-0.509 0.055,-0.584 0.103,-1.003 0.055,0.118 0.109,0.262 0.152,0.41 l 0.006,0.023 c -0.008,-0.067 -0.013,-0.144 -0.013,-0.223 0,-0.32 0.076,-0.622 0.21,-0.888 l -0.005,0.012 c -0.062,-0.034 -0.193,0.206 -0.22,-0.364 0,-0.254 0.069,-0.138 0.096,-0.193 -0.139,-0.161 -0.233,-0.363 -0.261,-0.586 l -5.5e-4,-0.005 c 0.055,-0.089 0.151,0.227 0.234,0.234 -0.061,-0.212 -0.11,-0.465 -0.136,-0.724 l -0.002,-0.019 c -0.234,-0.468 -0.083,0.069 -0.275,-0.206 -0.234,-0.75 0.206,-0.172 0.234,-0.509 0.293,0.487 0.526,1.051 0.667,1.651 l 0.008,0.04 c -0.083,-0.46 -0.2,-0.866 -0.352,-1.254 l 0.015,0.045 c 0.11,0.048 -0.179,-0.853 0.144,-0.254 -0.443,-1.307 -1.335,-2.362 -2.489,-3.005 l -0.028,-0.014 c 0.124,0.117 0.289,0.268 0.227,0.289 -0.515,-0.309 -0.426,-0.33 -0.502,-0.46 -0.419,-0.172 -0.447,0.014 -0.729,0 -0.476,-0.247 -1.032,-0.47 -1.613,-0.637 l -0.066,-0.016 0.034,0.158 c -0.529,-0.172 -0.619,0.069 -1.189,0 -0.035,-0.028 0.185,-0.096 0.364,-0.124 -0.509,0.069 -0.482,-0.096 -0.983,0.021 0.107,-0.073 0.23,-0.146 0.359,-0.211 l 0.019,-0.009 c -0.413,0.028 -0.989,0.24 -0.811,0.048 -0.977,0.353 -1.823,0.816 -2.583,1.386 l 0.025,-0.018 -0.02,-0.151 c -0.309,0.371 -1.347,1.107 -1.429,1.588 l -0.09,0.02 c -0.158,0.275 -0.261,0.584 -0.392,0.867 -0.206,0.358 -0.309,0.138 -0.275,0.193 -0.294,0.597 -0.565,1.305 -0.774,2.039 l -0.023,0.093 c 0.041,0.38 0.064,0.821 0.064,1.268 0,0.221 -0.005,0.441 -0.017,0.659 l 0.001,-0.031 c -0.002,0.061 -0.003,0.133 -0.003,0.206 0,3.711 2.377,6.867 5.691,8.029 l 0.059,0.018 c 0.446,0.112 0.959,0.176 1.486,0.176 0.079,0 0.158,-0.002 0.237,-0.004 l -0.012,5.5e-4 c -0.68,-0.193 -0.77,-0.103 -1.429,-0.337 -0.481,-0.22 -0.584,-0.481 -0.921,-0.777 l 0.138,0.24 c -0.667,-0.234 -0.392,-0.289 -0.936,-0.46 l 0.144,-0.185 c -0.285,-0.104 -0.517,-0.3 -0.663,-0.551 l -0.003,-0.006 -0.234,0.007 c -0.282,-0.344 -0.433,-0.598 -0.419,-0.798 l -0.077,0.138 c -0.089,-0.144 -1.044,-1.307 -0.55,-1.038 -0.142,-0.099 -0.258,-0.225 -0.341,-0.372 l -0.003,-0.005 0.096,-0.117 c -0.2,-0.227 -0.348,-0.505 -0.424,-0.812 l -0.003,-0.013 c 0.072,0.109 0.179,0.19 0.305,0.226 l 0.004,10e-4 c -0.605,-1.493 -0.639,-0.083 -1.101,-1.514 l 0.103,-0.014 c -0.057,-0.096 -0.117,-0.211 -0.17,-0.329 l -0.009,-0.021 0.041,-0.413 c -0.433,-0.509 -0.124,-2.132 -0.062,-3.026 0.186,-0.53 0.39,-0.98 0.628,-1.408 l -0.024,0.046 -0.144,-0.028 c 0.275,-0.488 1.609,-1.974 2.228,-1.898 0.295,-0.378 -0.062,0 -0.124,-0.096 0.66,-0.681 0.866,-0.481 1.307,-0.605 0.481,-0.276 -0.413,0.11 -0.185,-0.104 0.825,-0.206 0.584,-0.481 1.664,-0.584 0.11,0.069 -0.268,0.096 -0.358,0.179 0.395,-0.127 0.85,-0.201 1.322,-0.201 0.657,0 1.28,0.142 1.842,0.398 l -0.028,-0.012 c 1.316,0.701 2.239,1.989 2.424,3.505 l 0.002,0.022 0.055,0.014 c 0.013,0.156 0.021,0.338 0.021,0.522 0,0.475 -0.05,0.938 -0.145,1.384 l 0.008,-0.044 0.138,-0.289 z m -4.552,-6.835 -0.103,0.02 0.096,-0.007 v -0.014 z m -0.289,-0.083 c 0.138,0.028 0.309,0.048 0.289,0.083 0.158,-0.034 0.193,-0.069 -0.295,-0.083 z m 3.039,6.732 c 0.034,-0.496 -0.096,-0.344 -0.138,-0.152 0.048,0.028 0.089,0.344 0.138,0.151 z m -0.537,1.409 c 0.151,-0.206 0.263,-0.451 0.321,-0.716 l 0.002,-0.013 c -0.054,0.191 -0.132,0.358 -0.231,0.509 l 0.004,-0.007 c -0.515,0.323 -0.048,-0.185 0,-0.385 -0.55,0.694 -0.075,0.413 -0.096,0.612 z m -1.472,0.364 c -0.275,0 0.055,0.138 0.413,0.193 0.099,-0.074 0.186,-0.149 0.269,-0.228 l -10e-4,0.001 c -0.133,0.031 -0.286,0.048 -0.443,0.048 -0.084,0 -0.166,-0.005 -0.248,-0.015 l 0.01,10e-4 z"
    class="ColorScheme-Text" fill="currentColor" />
</svg>