<svg viewBox="0 0 22 22" xmlns="http://www.w3.org/2000/svg">
  <defs>
    <style type="text/css" id="current-color-scheme">
      .ColorScheme-Text {
        color: #e2e2e5;
      }
    </style>
  </defs>
  <path
    d="m 3.361,16.742 0.794,1.371 c 0.165,0.289 0.402,0.515 0.68,0.68 l 2.835,-4.907 h -5.67 c 0,0.32 0.082,0.639 0.247,0.928 z"
    class="ColorScheme-Text" fill="currentColor" />
  <path
    d="M 11,8.113 8.165,3.206 C 7.887,3.371 7.65,3.598 7.485,3.887 l -5.237,9.072 a 1.868,1.868 0 0 0 -0.247,0.928 h 5.67 z"
    class="ColorScheme-Text" fill="currentColor" />
  <path
    d="m 17.165,18.794 c 0.278,-0.165 0.515,-0.392 0.68,-0.68 l 0.33,-0.567 1.577,-2.732 c 0.165,-0.289 0.247,-0.608 0.247,-0.928 h -5.67 l 1.207,2.371 z"
    class="ColorScheme-Text" fill="currentColor" />
  <path
    d="M 11,8.113 13.835,3.206 C 13.557,3.041 13.237,2.959 12.907,2.959 H 9.093 c -0.33,0 -0.649,0.093 -0.928,0.247 z"
    class="ColorScheme-Text" fill="currentColor" />
  <path
    d="M 14.33,13.887 H 7.67 l -2.835,4.907 C 5.114,18.959 5.433,19.041 5.763,19.041 H 16.237 c 0.33,0 0.649,-0.093 0.928,-0.247 z"
    class="ColorScheme-Text" fill="currentColor" />
  <path
    d="M 17.134,8.423 14.515,3.887 C 14.35,3.598 14.113,3.371 13.835,3.206 L 11,8.113 14.33,13.887 h 5.66 c 0,-0.32 -0.082,-0.639 -0.247,-0.928 z"
    class="ColorScheme-Text" fill="currentColor" />
</svg>