<svg viewBox="0 0 22 22" xmlns="http://www.w3.org/2000/svg">
  <defs>
    <style type="text/css" id="current-color-scheme">
      .ColorScheme-Text {
        color: #e2e2e5;
      }
    </style>
  </defs>
  <path
    d="M 8.067,19.25 H 2.75 v -5.317 q 1.1,0 1.925,-0.699 Q 5.5,12.535 5.5,11.458 5.5,10.381 4.675,9.682 3.85,8.983 2.75,8.983 V 3.667 h 5.5 q 0,-0.963 0.665,-1.627 Q 9.579,1.375 10.542,1.375 q 0.963,0 1.627,0.665 0.665,0.665 0.665,1.627 h 5.5 v 5.5 q 0.963,0 1.627,0.665 0.665,0.665 0.665,1.627 0,0.963 -0.665,1.627 Q 19.296,13.75 18.333,13.75 v 5.5 h -5.317 q 0,-1.146 -0.722,-1.948 Q 11.573,16.5 10.542,16.5 9.51,16.5 8.789,17.302 8.067,18.104 8.067,19.25 Z M 4.583,17.417 H 6.531 q 0.55,-1.513 1.765,-2.131 1.215,-0.619 2.246,-0.619 1.031,0 2.246,0.619 1.215,0.619 1.765,2.131 H 16.5 v -5.5 h 1.833 q 0.183,0 0.321,-0.138 0.138,-0.138 0.138,-0.321 0,-0.183 -0.138,-0.321 Q 18.517,11 18.333,11 H 16.5 V 5.5 H 11 V 3.667 q 0,-0.183 -0.138,-0.321 -0.138,-0.138 -0.321,-0.138 -0.183,0 -0.321,0.138 -0.138,0.138 -0.138,0.321 V 5.5 H 4.583 V 7.517 Q 5.821,7.975 6.577,9.052 q 0.756,1.077 0.756,2.406 0,1.306 -0.756,2.383 Q 5.821,14.919 4.583,15.4 Z m 5.958,-5.958 z"
    class="ColorScheme-Text" fill="currentColor" />
</svg>