<svg height="22" width="22" xmlns="http://www.w3.org/2000/svg">
  <style type="text/css" id="current-color-scheme">
    .ColorScheme-Text {
      color: #e2e2e5;
    }
  </style>
  <path
    d="M 3.667,19.25 V 15.354 L 15.744,3.3 Q 16.019,3.025 16.363,2.888 16.706,2.75 17.05,2.75 q 0.367,0 0.699,0.138 Q 18.081,3.025 18.333,3.3 l 1.283,1.283 q 0.275,0.252 0.413,0.584 0.138,0.332 0.138,0.699 0,0.344 -0.138,0.688 -0.138,0.344 -0.413,0.619 L 7.563,19.25 Z M 5.5,17.417 H 6.783 L 15.79,8.433 15.148,7.769 14.483,7.127 5.5,16.133 Z M 18.333,5.89 17.027,4.583 Z M 15.148,7.769 14.483,7.127 l 1.306,1.306 z M 12.833,19.25 q 1.696,0 3.14,-0.848 1.444,-0.848 1.444,-2.36 0,-0.825 -0.435,-1.421 Q 16.546,14.025 15.813,13.59 l -1.352,1.352 q 0.527,0.229 0.825,0.504 0.298,0.275 0.298,0.596 0,0.527 -0.836,0.951 -0.836,0.424 -1.914,0.424 -0.39,0 -0.653,0.264 -0.264,0.264 -0.264,0.653 0,0.39 0.264,0.653 Q 12.444,19.25 12.833,19.25 Z m -8.64,-7.013 1.375,-1.375 Q 5.11,10.679 4.847,10.484 4.583,10.29 4.583,10.083 q 0,-0.275 0.413,-0.55 0.413,-0.275 1.742,-0.848 Q 8.754,7.815 9.419,7.104 10.083,6.394 10.083,5.5 10.083,4.24 9.075,3.495 8.067,2.75 6.417,2.75 5.385,2.75 4.572,3.117 3.758,3.483 3.323,4.01 3.071,4.308 3.117,4.675 3.163,5.042 3.46,5.271 3.758,5.523 4.125,5.477 4.492,5.431 4.744,5.179 5.065,4.858 5.454,4.721 5.844,4.583 6.417,4.583 q 0.94,0 1.386,0.275 Q 8.25,5.133 8.25,5.5 8.25,5.821 7.849,6.084 7.448,6.348 6.004,7.013 4.171,7.815 3.46,8.468 2.75,9.121 2.75,10.083 q 0,0.733 0.39,1.249 0.39,0.516 1.054,0.905 z"
    class="ColorScheme-Text" fill="currentColor" />
</svg>