<svg viewBox="0 0 22 22" xmlns="http://www.w3.org/2000/svg">
  <defs>
    <style type="text/css" id="current-color-scheme">
      .ColorScheme-Text {
        color: #e2e2e5;
      }
    </style>
  </defs>
  <path
    d="m 15.583,20.167 q -1.146,0 -1.948,-0.802 -0.802,-0.802 -0.802,-1.948 0,-0.138 0.069,-0.642 L 6.463,13.017 q -0.367,0.344 -0.848,0.539 -0.481,0.195 -1.031,0.195 -1.146,0 -1.948,-0.802 -0.802,-0.802 -0.802,-1.948 0,-1.146 0.802,-1.948 Q 3.438,8.25 4.583,8.25 q 0.55,0 1.031,0.195 0.481,0.195 0.848,0.539 l 6.44,-3.758 q -0.046,-0.16 -0.057,-0.309 -0.011,-0.149 -0.011,-0.332 0,-1.146 0.802,-1.948 0.802,-0.802 1.948,-0.802 1.146,0 1.948,0.802 0.802,0.802 0.802,1.948 0,1.146 -0.802,1.948 -0.802,0.802 -1.948,0.802 -0.55,0 -1.031,-0.195 -0.481,-0.195 -0.848,-0.539 L 7.265,10.358 q 0.046,0.16 0.057,0.309 0.011,0.149 0.011,0.332 0,0.183 -0.011,0.332 -0.011,0.149 -0.057,0.309 l 6.44,3.758 q 0.367,-0.344 0.848,-0.539 0.481,-0.195 1.031,-0.195 1.146,0 1.948,0.802 0.802,0.802 0.802,1.948 0,1.146 -0.802,1.948 -0.802,0.802 -1.948,0.802 z m 0,-1.833 q 0.39,0 0.653,-0.264 Q 16.5,17.806 16.5,17.417 q 0,-0.39 -0.264,-0.653 -0.264,-0.264 -0.653,-0.264 -0.39,0 -0.653,0.264 -0.264,0.264 -0.264,0.653 0,0.39 0.264,0.653 0.264,0.264 0.653,0.264 z M 4.583,11.917 q 0.39,0 0.653,-0.264 Q 5.5,11.39 5.5,11 5.5,10.61 5.236,10.347 4.973,10.083 4.583,10.083 q -0.39,0 -0.653,0.264 -0.264,0.264 -0.264,0.653 0,0.39 0.264,0.653 0.264,0.264 0.653,0.264 z M 15.583,5.5 q 0.39,0 0.653,-0.264 Q 16.5,4.973 16.5,4.583 16.5,4.194 16.236,3.93 15.973,3.667 15.583,3.667 q -0.39,0 -0.653,0.264 -0.264,0.264 -0.264,0.653 0,0.39 0.264,0.653 0.264,0.264 0.653,0.264 z m 0,11.917 z M 4.583,11 Z M 15.583,4.583 Z"
    class="ColorScheme-Text" fill="currentColor" />
</svg>