<svg height="22" width="22" xmlns="http://www.w3.org/2000/svg">
  <style type="text/css" id="current-color-scheme">
    .ColorScheme-Text {
      color: #e2e2e5;
    }
  </style>
  <path
    d="M 15.721,18.975 10.175,13.383 q -0.458,0.183 -0.928,0.275 Q 8.777,13.75 8.25,13.75 5.958,13.75 4.354,12.146 2.75,10.542 2.75,8.25 2.75,7.425 2.979,6.68 3.208,5.935 3.621,5.271 l 3.346,3.346 1.65,-1.65 L 5.271,3.621 Q 5.935,3.208 6.68,2.979 7.425,2.75 8.25,2.75 q 2.292,0 3.896,1.604 Q 13.75,5.958 13.75,8.25 q 0,0.527 -0.092,0.997 -0.092,0.47 -0.275,0.928 l 5.592,5.546 q 0.275,0.275 0.275,0.665 0,0.39 -0.275,0.665 l -1.925,1.925 q -0.275,0.275 -0.665,0.275 -0.39,0 -0.665,-0.275 z m 0.665,-1.948 0.619,-0.619 L 11.138,10.542 Q 11.55,10.083 11.733,9.476 11.917,8.869 11.917,8.25 q 0,-1.375 -0.882,-2.395 Q 10.152,4.835 8.846,4.629 L 10.542,6.325 q 0.275,0.275 0.275,0.642 0,0.367 -0.275,0.642 L 7.608,10.542 q -0.275,0.275 -0.642,0.275 -0.367,0 -0.642,-0.275 L 4.629,8.846 Q 4.835,10.152 5.855,11.034 6.875,11.917 8.25,11.917 q 0.596,0 1.192,-0.183 Q 10.038,11.55 10.519,11.16 Z m -5.569,-6.21 z"
    class="ColorScheme-Text" fill="currentColor" />
</svg>