<svg height="22" width="22" xmlns="http://www.w3.org/2000/svg">
  <style type="text/css" id="current-color-scheme">
    .ColorScheme-Text {
      color: #e2e2e5;
    }
  </style>
  <path
    d="m 4.583,19.25 q -0.756,0 -1.295,-0.539 Q 2.75,18.173 2.75,17.417 q 0,-0.756 0.539,-1.295 0.539,-0.539 1.295,-0.539 0.756,0 1.295,0.539 0.539,0.539 0.539,1.295 0,0.756 -0.539,1.295 Q 5.34,19.25 4.583,19.25 Z m 11,0 q 0,-2.681 -1.008,-5.007 Q 13.567,11.917 11.825,10.175 10.083,8.433 7.757,7.425 5.431,6.417 2.75,6.417 v -2.75 q 3.254,0 6.073,1.215 2.819,1.215 4.95,3.346 2.131,2.131 3.346,4.95 1.215,2.819 1.215,6.073 z m -5.5,0 q 0,-1.535 -0.573,-2.853 Q 8.938,15.079 7.929,14.071 6.921,13.063 5.603,12.49 4.285,11.917 2.75,11.917 V 9.167 q 2.108,0 3.93,0.791 1.822,0.791 3.197,2.166 1.375,1.375 2.166,3.197 0.791,1.822 0.791,3.93 z"
    class="ColorScheme-Text" fill="currentColor" />
</svg>