<svg viewBox="0 0 22 22" xmlns="http://www.w3.org/2000/svg">
  <defs>
    <style type="text/css" id="current-color-scheme">
      .ColorScheme-Text {
        color: #e2e2e5;
      }
    </style>
  </defs>
  <path
    d="m 11,20.167 q -1.879,0 -3.552,-0.722 Q 5.775,18.723 4.526,17.474 3.277,16.225 2.555,14.552 1.833,12.879 1.833,11 q 0,-1.902 0.745,-3.575 0.745,-1.673 2.017,-2.91 1.272,-1.238 2.968,-1.959 1.696,-0.722 3.621,-0.722 1.833,0 3.46,0.63 1.627,0.63 2.853,1.742 1.226,1.111 1.948,2.635 0.722,1.524 0.722,3.289 0,2.635 -1.604,4.045 -1.604,1.409 -3.896,1.409 h -1.696 q -0.206,0 -0.286,0.115 -0.08,0.115 -0.08,0.252 0,0.275 0.344,0.791 0.344,0.516 0.344,1.18 0,1.146 -0.63,1.696 -0.63,0.55 -1.661,0.55 z M 11,11 Z m -5.042,0.917 q 0.596,0 0.985,-0.39 0.39,-0.39 0.39,-0.985 0,-0.596 -0.39,-0.985 -0.39,-0.39 -0.985,-0.39 -0.596,0 -0.985,0.39 -0.39,0.39 -0.39,0.985 0,0.596 0.39,0.985 0.39,0.39 0.985,0.39 z M 8.708,8.25 Q 9.304,8.25 9.694,7.86 10.083,7.471 10.083,6.875 10.083,6.279 9.694,5.89 9.304,5.5 8.708,5.5 8.113,5.5 7.723,5.89 7.333,6.279 7.333,6.875 q 0,0.596 0.39,0.985 Q 8.113,8.25 8.708,8.25 Z m 4.583,0 q 0.596,0 0.985,-0.39 0.39,-0.39 0.39,-0.985 0,-0.596 -0.39,-0.985 Q 13.888,5.5 13.292,5.5 12.696,5.5 12.306,5.89 11.917,6.279 11.917,6.875 q 0,0.596 0.39,0.985 Q 12.696,8.25 13.292,8.25 Z m 2.75,3.667 q 0.596,0 0.985,-0.39 0.39,-0.39 0.39,-0.985 0,-0.596 -0.39,-0.985 -0.39,-0.39 -0.985,-0.39 -0.596,0 -0.985,0.39 -0.39,0.39 -0.39,0.985 0,0.596 0.39,0.985 0.39,0.39 0.985,0.39 z M 11,18.333 q 0.206,0 0.332,-0.115 0.126,-0.115 0.126,-0.298 0,-0.321 -0.344,-0.756 -0.344,-0.435 -0.344,-1.306 0,-0.963 0.665,-1.535 Q 12.1,13.75 13.063,13.75 h 1.604 q 1.513,0 2.59,-0.882 1.077,-0.882 1.077,-2.739 0,-2.773 -2.12,-4.618 -2.12,-1.845 -5.03,-1.845 -3.117,0 -5.317,2.131 -2.2,2.131 -2.2,5.202 0,3.048 2.143,5.191 Q 7.952,18.333 11,18.333 Z"
    class="ColorScheme-Text" fill="currentColor" />
</svg>