<svg viewBox="0 0 22 22" xmlns="http://www.w3.org/2000/svg">
  <defs>
    <style type="text/css" id="current-color-scheme">
      .ColorScheme-Text {
        color: #e2e2e5;
      }
    </style>
  </defs>
  <path
    d="M 19.822,10.183 11.817,2.179 a 1.18,1.18 0 0 0 -1.67,0 l -1.662,1.662 2.108,2.108 a 1.403,1.403 0 0 1 1.443,0.336 1.405,1.405 0 0 1 0.334,1.452 l 2.032,2.032 a 1.402,1.402 0 0 1 1.452,0.334 1.405,1.405 0 0 1 0,1.987 1.406,1.406 0 0 1 -1.987,0 1.404,1.404 0 0 1 -0.306,-1.528 L 11.664,8.667 v 4.988 a 1.405,1.405 0 0 1 0.371,2.253 1.405,1.405 0 0 1 -1.987,0 1.405,1.405 0 0 1 0,-1.987 1.403,1.403 0 0 1 0.461,-0.307 V 8.579 a 1.397,1.397 0 0 1 -0.461,-0.306 1.406,1.406 0 0 1 -0.302,-1.536 l -2.079,-2.079 -5.489,5.488 a 1.181,1.181 0 0 0 0,1.67 l 8.005,8.005 a 1.181,1.181 0 0 0 1.67,0 l 7.968,-7.968 a 1.182,1.182 0 0 0 0,-1.67"
    class="ColorScheme-Text" fill="currentColor" />
</svg>