<svg viewBox="0 0 22 22" xmlns="http://www.w3.org/2000/svg">
  <defs>
    <style type="text/css" id="current-color-scheme">
      .ColorScheme-Text {
        color: #e2e2e5;
      }
    </style>
  </defs>
  <path
    d="m 0.917,18.333 v -2.567 q 0,-0.779 0.401,-1.432 Q 1.719,13.681 2.383,13.338 3.804,12.627 5.271,12.272 6.738,11.917 8.25,11.917 q 1.513,0 2.979,0.355 1.467,0.355 2.888,1.066 0.665,0.344 1.066,0.997 0.401,0.653 0.401,1.432 v 2.567 z m 16.5,0 v -2.75 q 0,-1.008 -0.561,-1.936 -0.561,-0.928 -1.593,-1.593 1.169,0.138 2.2,0.47 1.031,0.332 1.925,0.814 0.825,0.458 1.26,1.02 0.435,0.561 0.435,1.226 v 2.75 z M 8.25,11 Q 6.738,11 5.66,9.923 4.583,8.846 4.583,7.333 q 0,-1.513 1.077,-2.59 Q 6.738,3.667 8.25,3.667 q 1.513,0 2.59,1.077 1.077,1.077 1.077,2.59 0,1.513 -1.077,2.59 Q 9.763,11 8.25,11 Z m 9.167,-3.667 q 0,1.513 -1.077,2.59 Q 15.263,11 13.75,11 13.498,11 13.108,10.943 12.719,10.885 12.467,10.817 13.085,10.083 13.418,9.19 13.75,8.296 13.75,7.333 q 0,-0.963 -0.332,-1.856 Q 13.085,4.583 12.467,3.85 12.788,3.735 13.108,3.701 13.429,3.667 13.75,3.667 q 1.513,0 2.59,1.077 1.077,1.077 1.077,2.59 z M 2.75,16.5 h 11 v -0.733 q 0,-0.252 -0.126,-0.458 Q 13.498,15.102 13.292,14.988 12.054,14.369 10.794,14.059 9.533,13.75 8.25,13.75 6.967,13.75 5.706,14.059 4.446,14.369 3.208,14.988 3.002,15.102 2.876,15.308 2.75,15.515 2.75,15.767 Z m 5.5,-7.333 q 0.756,0 1.295,-0.539 0.539,-0.539 0.539,-1.295 0,-0.756 -0.539,-1.295 Q 9.006,5.5 8.25,5.5 7.494,5.5 6.955,6.039 6.417,6.577 6.417,7.333 q 0,0.756 0.539,1.295 Q 7.494,9.167 8.25,9.167 Z M 8.25,16.5 Z m 0,-9.167 z"
    class="ColorScheme-Text" fill="currentColor" />
</svg>