<svg height="22" width="22" xmlns="http://www.w3.org/2000/svg">
  <style type="text/css" id="current-color-scheme">
    .ColorScheme-Text {
      color: #e2e2e5;
    }
  </style>
  <path
    d="m 8.995,9.462 c -0.153,-0.338 -0.221,-0.731 -0.104,-1.089 0.117,-0.366 0.378,-0.659 0.639,-0.932 0.727,-0.728 1.624,-1.262 2.335,-2.002 0.394,-0.406 0.719,-0.892 0.832,-1.451 0.093,-0.41 0.048,-0.832 -0.036,-1.238 0.378,0.43 0.502,1.045 0.394,1.6 -0.117,0.623 -0.462,1.174 -0.868,1.648 -0.326,0.382 -0.699,0.719 -1.089,1.033 -0.454,0.366 -0.9,0.76 -1.186,1.274 -0.241,0.418 -0.298,0.932 -0.133,1.387 0.269,0.78 0.896,1.358 1.238,2.094 -0.378,-0.334 -0.748,-0.679 -1.093,-1.045 -0.362,-0.386 -0.703,-0.796 -0.928,-1.278 z m 2.05,-0.611 c -0.068,0.639 0.265,1.242 0.663,1.716 0.193,0.213 0.358,0.474 0.366,0.772 0.008,0.398 -0.217,0.768 -0.506,1.029 0.068,-0.008 0.117,-0.068 0.173,-0.1 0.434,-0.277 0.852,-0.627 1.065,-1.105 0.141,-0.326 0.109,-0.711 -0.076,-1.013 -0.217,-0.354 -0.502,-0.667 -0.671,-1.053 -0.093,-0.217 -0.125,-0.47 -0.048,-0.699 0.101,-0.309 0.318,-0.563 0.547,-0.784 0.631,-0.599 1.395,-1.025 2.126,-1.491 -0.924,0.265 -1.837,0.631 -2.616,1.206 -0.494,0.37 -0.952,0.884 -1.021,1.523 z m 4.393,3.022 c 0.438,0.024 0.868,0.346 0.948,0.788 0.076,0.382 -0.108,0.76 -0.346,1.049 -0.39,0.466 -0.916,0.8 -1.447,1.085 -0.052,0.032 -0.097,0.072 -0.137,0.117 0.699,-0.177 1.399,-0.442 1.965,-0.896 0.313,-0.261 0.591,-0.607 0.651,-1.021 0.056,-0.358 -0.092,-0.727 -0.358,-0.965 -0.322,-0.294 -0.776,-0.402 -1.202,-0.346 -0.245,0.032 -0.514,0.084 -0.683,0.289 0.201,-0.04 0.398,-0.121 0.607,-0.1 z m -8.725,1.149 c 0.526,0.141 1.069,0.181 1.608,0.217 0.482,0.032 0.965,0.04 1.451,0.036 1.254,-0.02 2.516,-0.104 3.746,-0.378 0.117,-0.028 0.245,-0.048 0.35,-0.121 0.205,-0.133 0.43,-0.237 0.651,-0.342 -1.001,0.161 -2.006,0.298 -3.018,0.362 -1.025,0.064 -2.058,0.104 -3.087,0.036 -0.293,-0.028 -0.595,-0.044 -0.868,-0.157 -0.064,-0.028 -0.153,-0.084 -0.121,-0.169 0.06,-0.109 0.181,-0.161 0.285,-0.217 0.442,-0.209 0.924,-0.326 1.395,-0.462 -0.808,-0.012 -1.612,0.193 -2.351,0.51 -0.165,0.08 -0.35,0.145 -0.482,0.281 -0.052,0.056 -0.052,0.153 0.008,0.201 0.121,0.109 0.281,0.157 0.434,0.201 z m 6.511,1.105 c -0.703,0.125 -1.411,0.241 -2.122,0.277 -0.78,0.052 -1.559,0.008 -2.331,-0.072 -0.149,-0.02 -0.297,-0.044 -0.43,-0.112 -0.068,-0.04 -0.137,-0.104 -0.133,-0.189 0.008,-0.133 0.12,-0.225 0.201,-0.321 -0.249,0.088 -0.498,0.181 -0.707,0.346 -0.089,0.068 -0.177,0.177 -0.153,0.297 0.036,0.141 0.173,0.225 0.294,0.289 0.297,0.153 0.631,0.221 0.957,0.281 0.824,0.133 1.664,0.137 2.492,0.08 0.876,-0.068 1.748,-0.213 2.596,-0.462 -0.241,-0.108 -0.47,-0.233 -0.663,-0.414 z m -4.417,1.391 c -0.225,0.064 -0.454,0.141 -0.639,0.289 -0.093,0.072 -0.165,0.197 -0.121,0.314 0.056,0.149 0.197,0.237 0.329,0.313 0.346,0.189 0.736,0.277 1.117,0.346 0.864,0.137 1.752,0.117 2.612,-0.036 0.51,-0.097 1.021,-0.233 1.495,-0.446 -0.309,-0.129 -0.611,-0.273 -0.9,-0.442 -0.502,0.088 -1.009,0.181 -1.523,0.213 -0.679,0.052 -1.366,-0.004 -2.046,-0.088 -0.161,-0.036 -0.362,-0.052 -0.47,-0.193 -0.056,-0.117 0.072,-0.201 0.145,-0.269 z m 5.498,2.584 c 0.563,-0.116 1.129,-0.249 1.644,-0.51 0.161,-0.093 0.358,-0.193 0.41,-0.386 0.028,-0.185 -0.165,-0.281 -0.301,-0.358 0.084,0.097 0.141,0.237 0.056,0.35 -0.141,0.189 -0.382,0.261 -0.595,0.334 -0.667,0.189 -1.358,0.265 -2.046,0.342 -1.821,0.165 -3.653,0.205 -5.474,0.052 -0.611,-0.064 -1.234,-0.133 -1.817,-0.35 -0.092,-0.04 -0.233,-0.081 -0.233,-0.205 0.036,-0.108 0.141,-0.169 0.233,-0.221 0.418,-0.213 0.884,-0.33 1.35,-0.358 -0.137,-0.08 -0.297,-0.088 -0.454,-0.084 -0.39,0.012 -0.772,0.112 -1.141,0.237 -0.318,0.116 -0.643,0.245 -0.896,0.478 -0.1,0.088 -0.193,0.257 -0.088,0.378 0.161,0.173 0.41,0.217 0.631,0.269 1.238,0.213 2.492,0.333 3.746,0.378 1.664,0.048 3.34,-0.024 4.976,-0.346 z m 1.648,0.217 c -0.756,0.241 -1.539,0.374 -2.319,0.482 -1.346,0.169 -2.705,0.221 -4.059,0.181 -0.824,-0.032 -1.648,-0.088 -2.46,-0.225 0.189,0.129 0.422,0.169 0.639,0.229 0.912,0.193 1.849,0.229 2.777,0.257 1.362,0.024 2.725,-0.028 4.067,-0.241 0.635,-0.112 1.274,-0.249 1.845,-0.547 0.298,-0.157 0.599,-0.398 0.651,-0.748 -0.301,0.321 -0.735,0.47 -1.141,0.611 z"
    class="ColorScheme-Text" fill="currentColor" />
</svg>