<svg height="22" width="22" xmlns="http://www.w3.org/2000/svg">
  <style type="text/css" id="current-color-scheme">
    .ColorScheme-Text {
      color: #e2e2e5;
    }
  </style>
  <path
    d="M 9.167,12.833 H 12.833 V 11 H 9.167 Z m 0,-2.75 H 16.5 V 8.25 H 9.167 Z m 0,-2.75 H 16.5 V 5.5 H 9.167 Z M 7.333,16.5 q -0.756,0 -1.295,-0.539 Q 5.5,15.423 5.5,14.667 V 3.667 Q 5.5,2.91 6.039,2.372 6.577,1.833 7.333,1.833 H 18.333 q 0.756,0 1.295,0.539 0.539,0.539 0.539,1.295 V 14.667 q 0,0.756 -0.539,1.295 Q 19.09,16.5 18.333,16.5 Z m 0,-1.833 H 18.333 V 3.667 H 7.333 Z m -3.667,5.5 q -0.756,0 -1.295,-0.539 Q 1.833,19.09 1.833,18.333 V 5.5 H 3.667 V 18.333 H 16.5 v 1.833 z M 7.333,3.667 V 14.667 Z"
    class="ColorScheme-Text" fill="currentColor" />
</svg>