<svg viewBox="0 0 22 22" xmlns="http://www.w3.org/2000/svg">
  <defs>
    <style type="text/css" id="current-color-scheme">
      .ColorScheme-Text {
        color: #e2e2e5;
      }
    </style>
  </defs>
  <path
    d="m 6.188,19.25 -0.229,-2.017 2.613,-7.196 q 0.344,0.321 0.745,0.539 0.401,0.218 0.859,0.332 l -2.521,6.921 z m 9.625,0 -1.467,-1.421 -2.521,-6.921 q 0.458,-0.115 0.859,-0.332 0.401,-0.218 0.745,-0.539 l 2.612,7.196 z M 11,10.083 q -1.146,0 -1.948,-0.802 Q 8.25,8.479 8.25,7.333 8.25,6.44 8.766,5.741 9.281,5.042 10.083,4.767 V 2.75 h 1.833 v 2.017 q 0.802,0.275 1.318,0.974 0.516,0.699 0.516,1.593 0,1.146 -0.802,1.948 Q 12.146,10.083 11,10.083 Z M 11,8.25 q 0.39,0 0.653,-0.264 0.264,-0.264 0.264,-0.653 0,-0.39 -0.264,-0.653 Q 11.39,6.417 11,6.417 q -0.39,0 -0.653,0.264 -0.264,0.264 -0.264,0.653 0,0.39 0.264,0.653 Q 10.61,8.25 11,8.25 Z"
    class="ColorScheme-Text" fill="currentColor" />
</svg>