<svg viewBox="0 0 22 22" xmlns="http://www.w3.org/2000/svg">
  <defs>
    <style type="text/css" id="current-color-scheme">
      .ColorScheme-Text {
        color: #e2e2e5;
      }
    </style>
  </defs>
  <path
    d="M 12.902,10.748 Q 14.575,9.51 15.515,8.032 16.454,6.554 16.454,5.088 q 0,-0.733 -0.241,-1.077 -0.241,-0.344 -0.653,-0.344 -1.077,0 -1.902,1.822 -0.825,1.822 -0.825,4.114 0,0.321 0.011,0.607 0.011,0.286 0.057,0.539 z M 2.75,19.25 V 17.417 H 4.583 V 19.25 Z m 3.667,0 V 17.417 H 8.25 V 19.25 Z m 3.667,0 v -1.833 h 1.833 V 19.25 Z m 3.667,0 v -1.833 h 1.833 V 19.25 Z m 3.667,0 V 17.417 H 19.25 V 19.25 Z M 3.117,15.583 1.833,14.3 3.3,12.833 1.833,11.367 3.117,10.083 4.583,11.55 6.05,10.083 7.333,11.367 5.867,12.833 7.333,14.3 6.05,15.583 4.583,14.117 Z M 14.163,14.667 q -0.688,0 -1.26,-0.264 Q 12.329,14.14 11.917,13.544 11.344,13.865 10.736,14.117 10.129,14.369 9.488,14.621 L 8.846,12.902 Q 9.488,12.673 10.072,12.409 q 0.584,-0.264 1.134,-0.561 -0.115,-0.504 -0.172,-1.1 -0.057,-0.596 -0.057,-1.283 0,-3.3 1.306,-5.466 1.306,-2.166 3.277,-2.166 1.192,0 1.948,0.882 0.756,0.882 0.756,2.464 0,1.971 -1.249,3.896 -1.249,1.925 -3.472,3.46 0.16,0.16 0.332,0.241 0.172,0.08 0.355,0.08 0.596,0 1.386,-0.756 0.791,-0.756 1.432,-1.994 l 1.673,0.779 Q 18.563,11.275 18.471,11.825 q -0.092,0.55 0.023,0.963 0.229,-0.115 0.539,-0.39 0.309,-0.275 0.63,-0.688 l 1.444,1.123 q -0.596,0.825 -1.375,1.329 -0.779,0.504 -1.444,0.504 -0.481,0 -0.859,-0.286 Q 17.05,14.094 16.798,13.498 16.156,14.071 15.492,14.369 14.827,14.667 14.163,14.667 Z"
    class="ColorScheme-Text" fill="currentColor" />
</svg>