<svg height="22" width="22" xmlns="http://www.w3.org/2000/svg">
  <style type="text/css" id="current-color-scheme">
    .ColorScheme-Text {
      color: #e2e2e5;
    }
  </style>
  <path
    d="M 18.939,10.265 11.735,3.062 a 1.062,1.062 0 0 0 -1.503,0 L 8.736,4.558 10.633,6.455 a 1.262,1.262 0 0 1 1.298,0.302 1.265,1.265 0 0 1 0.3,1.307 l 1.829,1.829 a 1.262,1.262 0 0 1 1.307,0.3 1.264,1.264 0 0 1 0,1.788 1.265,1.265 0 0 1 -1.789,0 1.264,1.264 0 0 1 -0.275,-1.375 L 11.598,8.9 v 4.489 a 1.264,1.264 0 0 1 0.334,2.027 1.264,1.264 0 0 1 -1.788,0 1.264,1.264 0 0 1 0,-1.788 1.263,1.263 0 0 1 0.414,-0.276 V 8.822 A 1.257,1.257 0 0 1 10.144,8.546 1.266,1.266 0 0 1 9.872,7.163 L 8.001,5.293 3.062,10.231 a 1.063,1.063 0 0 0 0,1.503 l 7.204,7.205 a 1.063,1.063 0 0 0 1.503,0 l 7.171,-7.171 a 1.064,1.064 0 0 0 0,-1.503"
    class="ColorScheme-Text" fill="currentColor" />
</svg>