<svg height="22" width="22" xmlns="http://www.w3.org/2000/svg">
  <style type="text/css" id="current-color-scheme">
    .ColorScheme-Text {
      color: #e2e2e5;
    }
  </style>
  <g class="ColorScheme-Text" fill="currentColor">
    <path d="m 17.631,7.172 v 7.656 l -6.631,3.828 v -7.656 z" />
    <path d="M 11,11 V 3.344 L 4.369,7.172 Z" />
    <path
      d="M 4.666,6.065 C 3.98,6.461 3.559,7.19 3.559,7.982 v 6.036 c 0,0.792 0.421,1.521 1.107,1.917 l 5.227,3.018 c 0.686,0.396 1.528,0.396 2.214,0 l 5.227,-3.018 c 0.686,-0.396 1.107,-1.125 1.107,-1.917 V 7.982 c 0,-0.792 -0.421,-1.521 -1.107,-1.917 L 12.107,3.047 c -0.686,-0.396 -1.528,-0.396 -2.214,0 z M 11.297,4.45 16.524,7.468 c 0.183,0.105 0.297,0.303 0.297,0.514 v 6.036 c 0,0.211 -0.114,0.408 -0.297,0.514 l -5.227,3.018 c -0.183,0.105 -0.41,0.105 -0.593,0 L 5.476,14.532 C 5.293,14.426 5.18,14.229 5.18,14.018 V 7.982 c 0,-0.211 0.114,-0.408 0.297,-0.514 L 10.703,4.45 c 0.183,-0.105 0.41,-0.105 0.593,0 z" />
  </g>
</svg>