<svg height="22" width="22" xmlns="http://www.w3.org/2000/svg">
  <style type="text/css" id="current-color-scheme">
    .ColorScheme-Text {
      color: #e2e2e5;
    }
  </style>
  <g class="ColorScheme-Text" fill="currentColor">
    <path
      d="M 9.322,3.22 C 8.568,3.388 7.822,3.621 7.123,3.973 7.139,4.59 7.179,5.181 7.26,5.782 6.989,5.956 6.703,6.105 6.45,6.309 6.192,6.507 5.929,6.697 5.696,6.929 5.23,6.62 4.736,6.331 4.228,6.075 3.681,6.664 3.168,7.301 2.75,8.013 3.065,8.522 3.393,8.999 3.748,9.452 h 0.01 v 3.517 0.447 0.406 c 0.008,7.1e-5 0.016,3.91e-4 0.024,0.001 l 2.679,0.258 c 0.14,0.014 0.25,0.127 0.26,0.267 l 0.083,1.183 2.337,0.167 0.161,-1.091 c 0.021,-0.142 0.142,-0.246 0.285,-0.246 h 2.826 c 0.143,0 0.264,0.105 0.285,0.246 l 0.161,1.091 2.337,-0.167 0.083,-1.183 c 0.01,-0.141 0.12,-0.254 0.26,-0.267 l 2.678,-0.258 c 0.008,-7.47e-4 0.016,-10e-4 0.024,-0.001 V 13.473 l 0.001,-3.74e-4 V 9.452 h 0.01 C 18.607,8.999 18.935,8.522 19.25,8.013 18.832,7.301 18.319,6.664 17.772,6.075 17.264,6.331 16.77,6.62 16.304,6.929 16.071,6.697 15.808,6.507 15.55,6.309 15.297,6.105 15.011,5.956 14.74,5.782 14.821,5.181 14.861,4.59 14.877,3.973 14.178,3.621 13.432,3.388 12.678,3.22 12.377,3.726 12.102,4.274 11.862,4.81 11.577,4.762 11.292,4.745 11.006,4.741 v -4.623e-4 c -0.002,0 -0.004,4.623e-4 -0.006,4.623e-4 -0.002,0 -0.004,-4.623e-4 -0.005,-4.623e-4 v 4.623e-4 c -0.287,0.003 -0.572,0.021 -0.856,0.069 C 9.898,4.274 9.623,3.726 9.322,3.22 Z M 7.202,9.612 c 0.892,0 1.614,0.722 1.614,1.614 0,0.892 -0.723,1.615 -1.614,1.615 -0.891,0 -1.614,-0.723 -1.614,-1.615 0,-0.891 0.723,-1.614 1.614,-1.614 z m 7.595,0 c 0.891,0 1.614,0.722 1.614,1.614 0,0.892 -0.723,1.615 -1.614,1.615 -0.892,0 -1.615,-0.723 -1.615,-1.615 0,-0.891 0.723,-1.614 1.615,-1.614 z M 11,10.557 c 0.287,0 0.52,0.212 0.52,0.472 v 1.486 c 0,0.261 -0.233,0.472 -0.52,0.472 -0.287,0 -0.52,-0.212 -0.52,-0.472 v -1.486 c 0,-0.261 0.233,-0.472 0.52,-0.472 z" />
    <path
      d="m 15.837,14.632 -0.083,1.189 c -0.01,0.143 -0.124,0.257 -0.267,0.268 l -2.854,0.204 c -0.007,5.16e-4 -0.014,7.47e-4 -0.021,7.47e-4 -0.142,0 -0.264,-0.104 -0.285,-0.246 L 12.164,14.937 H 9.836 l -0.164,1.11 c -0.022,0.149 -0.156,0.257 -0.306,0.246 L 6.513,16.089 C 6.369,16.078 6.255,15.964 6.246,15.821 L 6.163,14.632 3.754,14.4 c 0.001,0.259 0.004,0.543 0.004,0.599 0,2.544 3.227,3.767 7.237,3.781 h 0.005 0.005 c 4.01,-0.014 7.236,-1.237 7.236,-3.781 0,-0.058 0.004,-0.34 0.005,-0.599 z" />
    <circle cx="7.357" cy="11.322" r="1.072" />
    <circle cx="14.643" cy="11.322" r="1.072" />
  </g>
</svg>