<svg viewBox="0 0 22 22" xmlns="http://www.w3.org/2000/svg">
  <defs>
    <style type="text/css" id="current-color-scheme">
      .ColorScheme-Text {
        color: #e2e2e5;
      }
    </style>
  </defs>
  <path
    d="M 16.385,19.64 10.175,13.383 q -0.458,0.183 -0.928,0.275 -0.47,0.092 -0.997,0.092 -2.292,0 -3.896,-1.604 Q 2.75,10.542 2.75,8.25 2.75,7.425 2.979,6.68 3.208,5.935 3.621,5.271 l 3.346,3.346 1.65,-1.65 L 5.271,3.621 Q 5.935,3.208 6.68,2.979 7.425,2.75 8.25,2.75 q 2.292,0 3.896,1.604 Q 13.75,5.958 13.75,8.25 q 0,0.527 -0.092,0.997 -0.092,0.47 -0.275,0.928 l 6.256,6.21 z m 0,-2.613 0.619,-0.619 -5.867,-5.867 q 0.413,-0.458 0.596,-1.066 0.183,-0.607 0.183,-1.226 0,-1.375 -0.882,-2.395 Q 10.152,4.835 8.846,4.629 l 2.337,2.338 -4.217,4.217 -2.338,-2.338 q 0.206,1.306 1.226,2.189 Q 6.875,11.917 8.25,11.917 q 0.596,0 1.192,-0.183 Q 10.038,11.55 10.519,11.16 Z m -5.569,-6.21 z"
    class="ColorScheme-Text" fill="currentColor" />
</svg>