<svg viewBox="0 0 22 22" xmlns="http://www.w3.org/2000/svg">
  <defs>
    <style type="text/css" id="current-color-scheme">
      .ColorScheme-Text {
        color: #e2e2e5;
      }
    </style>
  </defs>
  <path
    d="M 19.25,19.25 V 4.583 H 2.75 V 11.917 H 0.917 V 2.75 H 21.083 v 16.5 z m -11,-6.417 q -1.513,0 -2.59,-1.077 -1.077,-1.077 -1.077,-2.59 0,-1.513 1.077,-2.59 Q 6.738,5.5 8.25,5.5 q 1.513,0 2.59,1.077 1.077,1.077 1.077,2.59 0,1.513 -1.077,2.59 Q 9.763,12.833 8.25,12.833 Z M 8.25,11 q 0.756,0 1.295,-0.539 0.539,-0.539 0.539,-1.295 0,-0.756 -0.539,-1.295 Q 9.006,7.333 8.25,7.333 q -0.756,0 -1.295,0.539 -0.539,0.539 -0.539,1.295 0,0.756 0.539,1.295 Q 7.494,11 8.25,11 Z M 0.917,20.167 V 17.6 q 0,-0.779 0.401,-1.432 Q 1.719,15.515 2.383,15.171 3.804,14.46 5.271,14.105 6.738,13.75 8.25,13.75 q 1.513,0 2.979,0.355 1.467,0.355 2.888,1.066 0.665,0.344 1.066,0.997 0.401,0.653 0.401,1.432 v 2.567 z M 2.75,18.333 h 11 V 17.6 q 0,-0.252 -0.126,-0.458 -0.126,-0.206 -0.332,-0.321 -1.238,-0.619 -2.498,-0.928 Q 9.533,15.583 8.25,15.583 q -1.283,0 -2.544,0.309 -1.26,0.309 -2.498,0.928 -0.206,0.115 -0.332,0.321 Q 2.75,17.348 2.75,17.6 Z m 5.5,-9.167 z m 0,9.167 z"
    class="ColorScheme-Text" fill="currentColor" />
</svg>