<svg viewBox="0 0 22 22" xmlns="http://www.w3.org/2000/svg">
  <defs>
    <style type="text/css" id="current-color-scheme">
      .ColorScheme-Text {
        color: #e2e2e5;
      }
    </style>
  </defs>
  <path d="m 18.129,6.884 v 8.232 l -7.129,4.116 V 11 Z" class="ColorScheme-Text" fill="currentColor" />
  <path
    d="M 11,11 V 2.768 L 3.871,6.884 Z M 4.19,5.694 C 3.453,6.12 3,6.904 3,7.755 v 6.489 c 0,0.851 0.453,1.636 1.19,2.061 l 5.62,3.245 c 0.737,0.426 1.643,0.426 2.38,0 l 5.62,-3.245 C 18.547,15.88 19,15.096 19,14.245 V 7.755 C 19,6.904 18.547,6.12 17.81,5.694 L 12.19,2.449 c -0.737,-0.426 -1.643,-0.426 -2.38,0 z M 11.319,3.958 16.939,7.203 c 0.196,0.113 0.319,0.326 0.319,0.552 v 6.489 c 0,0.227 -0.122,0.439 -0.319,0.552 l -5.62,3.245 c -0.196,0.113 -0.441,0.113 -0.638,0 L 5.061,14.797 C 4.865,14.684 4.742,14.471 4.742,14.245 V 7.755 c 0,-0.227 0.122,-0.439 0.319,-0.552 L 10.681,3.958 c 0.196,-0.113 0.441,-0.113 0.638,0 z"
    class="ColorScheme-Text" fill="currentColor" />
</svg>