<svg viewBox="0 0 22 22" xmlns="http://www.w3.org/2000/svg">
  <defs>
    <style type="text/css" id="current-color-scheme">
      .ColorScheme-Text {
        color: #e2e2e5;
      }
    </style>
  </defs>
  <path
    d="m 13.08,3 v 0.002 c -0.114,0.005 -0.243,0.034 -0.342,0.088 -0.164,0.09 -0.163,0.09 -0.604,0.021 -0.242,-0.038 -0.676,-0.079 -0.963,-0.094 -0.454,-0.023 -0.521,-0.019 -0.521,0.035 0,0.043 -0.07,0.078 -0.215,0.107 -0.118,0.024 -0.293,0.081 -0.389,0.127 -0.396,0.152 0.031,-0.043 0.094,-0.129 0,-0.046 -0.23,-0.051 -0.377,-0.014 -0.059,0.015 -0.089,0.046 -0.076,0.078 0.015,0.036 -0.029,0.063 -0.137,0.08 -0.087,0.014 -0.225,0.04 -0.307,0.059 -0.144,0.034 -0.145,0.033 -0.053,-0.027 0.053,-0.035 0.096,-0.079 0.096,-0.1 0,-0.068 -0.131,-0.036 -0.43,0.107 -0.165,0.078 -0.333,0.137 -0.373,0.123 -0.147,-0.045 -1.738,1.261 -2.076,1.703 -0.078,0.102 -0.152,0.16 -0.197,0.146 -0.047,-0.009 -0.096,0.035 -0.143,0.121 -0.04,0.074 -0.19,0.318 -0.336,0.541 -0.332,0.507 -0.443,0.707 -0.521,0.969 -0.034,0.114 -0.089,0.261 -0.121,0.328 -0.032,0.067 -0.084,0.317 -0.119,0.555 -0.063,0.434 -0.127,0.624 -0.197,0.582 -0.021,-0.008 -0.048,-0.004 -0.059,0.012 -0.057,0.088 -0.163,0.926 -0.195,1.545 -0.034,0.651 -0.03,0.719 0.049,0.914 0.047,0.116 0.159,0.484 0.248,0.818 0.359,1.346 0.483,1.742 0.713,2.252 0.691,1.534 1.806,2.763 3.516,3.869 0.778,0.504 2.036,0.996 2.912,1.141 v -0.008 c 0.223,0.031 0.614,0.056 1.186,0.043 0.725,-0.008 0.914,-0.024 1.268,-0.105 0.269,-0.062 0.414,-0.113 0.414,-0.148 0,-0.049 -0.054,-0.052 -0.223,-0.037 -1.14,0.099 -1.431,0.065 -2.004,-0.24 -0.409,-0.219 -0.529,-0.255 -0.414,-0.123 0.078,0.089 -0.054,0.082 -0.363,-0.02 -0.136,-0.045 -0.292,-0.082 -0.348,-0.082 -0.087,0 -0.095,-0.009 -0.057,-0.076 C 11.488,18.037 11.466,18 11.328,18 c -0.14,0 -0.303,-0.071 -0.572,-0.244 -0.135,-0.092 -0.195,-0.104 -0.291,-0.078 -0.105,0.027 -0.147,0.009 -0.318,-0.139 -0.271,-0.233 -0.346,-0.319 -0.348,-0.402 -0.002,-0.076 -0.086,-0.094 -0.152,-0.033 -0.025,0.023 -0.201,-0.096 -0.463,-0.313 -0.232,-0.192 -0.4,-0.35 -0.373,-0.363 0.09,-0.028 0.053,-0.123 -0.066,-0.166 -0.192,-0.07 -0.278,-0.155 -0.248,-0.244 0.021,-0.062 -0.021,-0.12 -0.186,-0.252 -0.117,-0.094 -0.242,-0.209 -0.275,-0.258 -0.058,-0.085 -0.056,-0.088 0.063,-0.072 0.183,0.026 0.156,-0.049 -0.121,-0.326 -0.266,-0.267 -0.439,-0.359 -0.609,-0.328 -0.078,0.015 -0.151,-0.012 -0.248,-0.09 -0.192,-0.154 -0.403,-0.454 -0.336,-0.477 0.034,-0.012 0.005,-0.069 -0.084,-0.158 -0.098,-0.098 -0.15,-0.201 -0.182,-0.357 -0.026,-0.131 -0.084,-0.262 -0.145,-0.322 C 6.116,13.115 5.981,12.694 5.75,11.43 5.56,10.392 5.56,10.413 5.734,9.676 c 0.12,-0.506 0.124,-0.602 0.037,-0.602 -0.083,0 -0.086,0.013 0.066,-0.354 0.341,-0.823 0.979,-1.719 1.342,-1.887 0.164,-0.076 0.275,-0.204 0.275,-0.32 0,-0.032 -0.03,-0.031 -0.066,-0.018 -0.052,0.02 -0.048,-1.207e-4 0.018,-0.088 0.165,-0.219 0.374,-0.371 0.695,-0.51 0.191,-0.083 0.347,-0.178 0.377,-0.23 0.047,-0.082 0.043,-0.09 -0.043,-0.068 -0.052,0.014 -0.086,0.025 -0.078,0.012 0.008,-0.006 0.162,-0.14 0.346,-0.301 0.304,-0.265 0.775,-0.564 0.633,-0.4 -0.032,0.036 -0.037,0.072 -0.014,0.086 0.022,0.012 0.061,-0.005 0.09,-0.037 0.063,-0.072 0.436,-0.238 0.812,-0.365 0.771,-0.259 1.852,-0.323 2.49,-0.146 0.75,0.207 1.546,0.673 2.176,1.277 0.438,0.42 0.717,0.808 0.877,1.209 0.048,0.119 0.103,0.223 0.123,0.236 0.066,0.039 0.347,1.15 0.375,1.48 0.021,0.249 0.043,0.324 0.092,0.324 0.053,4e-4 0.061,0.061 0.049,0.346 -0.014,0.319 -0.023,0.354 -0.143,0.473 -0.124,0.124 -0.127,0.138 -0.1,0.385 l 0.027,0.256 -0.26,0.393 c -0.231,0.349 -0.676,0.891 -0.486,0.592 0.058,-0.092 0.06,-0.111 0.012,-0.111 -0.033,0 -0.142,0.117 -0.242,0.262 -0.18,0.26 -0.334,0.399 -0.582,0.52 -0.07,0.034 -0.234,0.117 -0.363,0.186 -0.323,0.171 -0.674,0.25 -1.107,0.25 -0.835,0 -1.716,-0.397 -2.26,-1.02 -0.226,-0.259 -0.551,-0.838 -0.551,-0.98 0,-0.042 -0.021,-0.07 -0.059,-0.057 -0.045,0.016 -0.071,-0.049 -0.107,-0.279 -0.062,-0.399 -0.059,-0.512 0.021,-0.914 0.119,-0.6 0.455,-1.069 1.061,-1.475 0.427,-0.287 0.72,-0.363 1.32,-0.363 0.427,0.003 0.548,0.016 0.736,0.09 0.124,0.049 0.249,0.091 0.277,0.09 0.121,-0.002 -0.274,-0.252 -0.588,-0.371 -0.276,-0.105 -0.418,-0.132 -0.75,-0.146 -0.687,-0.03 -1.218,0.172 -1.727,0.656 -0.289,0.275 -0.57,0.699 -0.57,0.859 0,0.037 -0.038,0.127 -0.086,0.201 -0.189,0.29 -0.299,1.217 -0.195,1.641 0.282,1.154 0.846,1.76 2.209,2.365 0.431,0.191 0.558,0.304 0.236,0.211 -0.295,-0.085 -0.705,-0.251 -0.838,-0.342 -0.147,-0.1 -0.176,-0.105 -0.176,-0.025 0,0.043 -0.076,0.014 -0.262,-0.098 -0.145,-0.087 -0.28,-0.15 -0.301,-0.137 -0.109,0.064 0.602,0.532 1.082,0.713 0.708,0.261 1.512,0.371 2.111,0.275 0.352,-0.057 0.944,-0.306 0.877,-0.369 -0.028,-0.018 -0.082,-0.016 -0.164,0.014 -0.205,0.074 -0.659,0.154 -1.045,0.184 -0.294,0.023 -0.415,0.013 -0.619,-0.047 l -0.25,-0.074 0.51,-0.029 c 0.568,-0.031 0.905,-0.096 1.408,-0.271 0.854,-0.298 1.607,-0.927 2.084,-1.742 0.177,-0.302 0.234,-0.354 0.234,-0.209 0,0.115 0.102,0.079 0.121,-0.043 0.008,-0.053 -0.005,-0.163 -0.033,-0.244 -0.038,-0.112 -0.04,-0.187 -0.002,-0.32 0.045,-0.159 0.054,-0.168 0.119,-0.115 0.16,0.13 0.178,0.124 0.152,-0.059 -0.014,-0.097 0.007,-0.325 0.045,-0.514 0.037,-0.186 0.07,-0.451 0.074,-0.588 l 0.008,-0.25 0.025,0.234 c 0.025,0.24 0.099,0.318 0.123,0.131 0.013,-0.1 -0.035,-0.357 -0.098,-0.527 -0.029,-0.077 -0.027,-0.077 0.039,0 0.103,0.121 0.116,0.057 0.045,-0.201 -0.047,-0.17 -0.055,-0.331 -0.035,-0.574 0.027,-0.33 0.004,-0.394 -0.102,-0.293 -0.068,0.065 -0.194,-0.179 -0.199,-0.387 -0.003,-0.113 -0.031,-0.187 -0.09,-0.232 -0.048,-0.037 -0.123,-0.125 -0.168,-0.199 l -0.082,-0.137 0.119,0.092 c 0.067,0.05 0.13,0.084 0.141,0.07 0.011,-0.01 -0.036,-0.114 -0.105,-0.232 -0.069,-0.118 -0.151,-0.281 -0.182,-0.359 -0.095,-0.241 -0.305,-0.408 -0.35,-0.279 -0.008,0.023 -0.056,-0.037 -0.107,-0.133 l -0.096,-0.174 0.096,-0.016 c 0.052,-0.007 0.116,-0.038 0.143,-0.07 0.039,-0.048 0.091,-0.011 0.283,0.215 0.129,0.151 0.364,0.466 0.523,0.699 0.159,0.233 0.295,0.403 0.305,0.377 0.021,-0.06 -0.064,-0.22 -0.375,-0.703 -0.138,-0.214 -0.25,-0.412 -0.25,-0.439 0,-0.027 -0.032,-0.106 -0.07,-0.178 l -0.07,-0.129 0.092,0.078 c 0.16,0.135 0.149,0.033 -0.02,-0.189 -0.71,-0.938 -1.666,-1.604 -2.84,-1.979 -0.364,-0.119 -0.458,-0.12 -0.363,-0.012 0.05,0.058 0.039,0.058 -0.078,0 -0.072,-0.035 -0.155,-0.094 -0.186,-0.129 C 13.294,3.017 13.194,2.995 13.08,3 Z m 1.352,5.604 c -0.039,-0.008 -0.073,0.023 -0.092,0.096 -0.019,0.071 1.56e-4,0.14 0.066,0.225 h 0.002 c 0.161,0.208 0.26,0.084 0.145,-0.18 -0.037,-0.085 -0.082,-0.132 -0.121,-0.141 z m 2.791,0.01 c 0.005,-0.004 0.011,0.001 0.018,0.018 0.012,0.029 0.01,0.063 -0.004,0.076 -0.014,0.015 -0.025,-0.009 -0.023,-0.053 0.001,-0.024 0.005,-0.037 0.01,-0.041 z m -2.689,1.063 c -0.021,-0.012 -0.052,0.08 -0.068,0.201 -0.017,0.131 -0.063,0.259 -0.113,0.312 l -0.086,0.092 0.02,-0.1 c 0.011,-0.056 0.034,-0.163 0.051,-0.234 0.048,-0.201 -0.039,-0.159 -0.121,0.061 -0.096,0.255 -0.092,0.328 0.023,0.373 v 0.002 c 0.188,0.072 0.233,0.05 0.283,-0.139 0.057,-0.216 0.064,-0.537 0.012,-0.568 z m -0.824,1.256 c -0.01,-0.007 -0.101,0.02 -0.205,0.064 -0.105,0.045 -0.281,0.1 -0.393,0.123 -0.194,0.039 -0.269,0.124 -0.15,0.17 0.029,0.009 0.158,0.023 0.287,0.023 0.233,0.003 0.238,0.001 0.359,-0.182 0.066,-0.101 0.109,-0.184 0.102,-0.199 z m -3.447,0.91 c -0.091,0 -0.02,0.117 0.205,0.334 0.134,0.129 0.252,0.236 0.258,0.236 0.007,0 0.012,-0.022 0.012,-0.051 0,-0.06 -0.42,-0.52 -0.475,-0.52 z m -0.133,0.406 c -0.018,0 -0.033,0.053 -0.033,0.115 0,0.117 0.162,0.268 0.596,0.564 0.112,0.073 0.2,0.115 0.209,0.088 0.016,-0.045 -0.708,-0.768 -0.77,-0.768 z m 1.012,0.48 0.115,0.07 c 0.064,0.038 0.119,0.069 0.119,0.082 0,0.032 -0.037,0.015 -0.135,-0.066 z"
    class="ColorScheme-Text" fill="currentColor" />
</svg>