<svg viewBox="0 0 22 22" xmlns="http://www.w3.org/2000/svg">
  <defs>
    <style type="text/css" id="current-color-scheme">
      .ColorScheme-Text {
        color: #e2e2e5;
      }
    </style>
  </defs>
  <path
    d="m 18.035,18.677 0.642,-0.642 -1.719,-1.719 V 13.75 h -0.917 v 2.933 z M 2.75,19.25 V 2.75 h 16.5 v 7.975 Q 18.815,10.519 18.356,10.37 17.898,10.221 17.417,10.152 V 4.583 H 4.583 V 17.417 h 5.546 q 0.069,0.504 0.218,0.963 Q 10.496,18.838 10.702,19.25 Z M 4.583,16.5 v 0.917 -12.833 5.569 -0.069 z m 1.833,-0.917 h 3.735 q 0.069,-0.481 0.218,-0.94 Q 10.519,14.185 10.702,13.75 H 6.417 Z m 0,-3.667 h 5.592 q 0.733,-0.688 1.639,-1.146 0.905,-0.458 1.936,-0.619 v -0.069 H 6.417 Z m 0,-3.667 H 15.583 V 6.417 H 6.417 Z M 16.5,21.083 q -1.902,0 -3.243,-1.341 Q 11.917,18.402 11.917,16.5 q 0,-1.902 1.341,-3.243 1.341,-1.341 3.243,-1.341 1.902,0 3.243,1.341 1.341,1.341 1.341,3.243 0,1.902 -1.341,3.243 Q 18.402,21.083 16.5,21.083 Z"
    class="ColorScheme-Text" fill="currentColor" />
</svg>