<svg height="22" width="22" xmlns="http://www.w3.org/2000/svg">
  <style type="text/css" id="current-color-scheme">
    .ColorScheme-Text {
      color: #e2e2e5;
    }
  </style>
  <g class="ColorScheme-Text" fill="currentColor">
    <path
      d="M 3.878,2.75 C 3.257,2.75 2.75,3.257 2.75,3.878 V 18.122 C 2.75,18.743 3.257,19.25 3.878,19.25 H 18.122 c 0.621,0 1.128,-0.507 1.128,-1.128 V 3.878 C 19.25,3.257 18.743,2.75 18.122,2.75 Z m 0,0.413 H 18.122 c 0.4,0 0.715,0.315 0.715,0.715 V 18.122 c 0,0.4 -0.315,0.715 -0.715,0.715 H 3.878 c -0.4,0 -0.715,-0.315 -0.715,-0.715 V 3.878 c 0,-0.4 0.315,-0.715 0.715,-0.715 z" />
    <path d="m 9.763,4.414 v 2.475 H 8.448 L 11,9.776 13.552,6.889 H 12.238 v -2.475 z" />
    <path
      d="m 10.549,10.189 c -0.071,0 -0.116,0.122 -0.116,0.271 V 11.401 C 10.145,11.466 9.875,11.583 9.633,11.736 L 8.963,11.065 C 8.858,10.96 8.743,10.912 8.692,10.962 l -0.632,0.632 C 8.011,11.644 8.059,11.758 8.164,11.864 l 0.671,0.671 c -0.153,0.242 -0.27,0.512 -0.335,0.8 H 7.558 c -0.149,0 -0.271,0.045 -0.271,0.116 v 0.902 c 0,0.071 0.122,0.116 0.271,0.116 H 8.5 c 0.065,0.287 0.182,0.557 0.335,0.8 l -0.671,0.671 C 8.059,16.045 8.011,16.159 8.061,16.209 l 0.632,0.632 c 0.05,0.05 0.165,0.002 0.271,-0.103 l 0.671,-0.671 c 0.242,0.153 0.512,0.27 0.8,0.335 v 0.941 c 0,0.149 0.045,0.271 0.116,0.271 h 0.902 c 0.071,0 0.116,-0.122 0.116,-0.271 V 16.403 c 0.287,-0.065 0.557,-0.182 0.8,-0.335 l 0.671,0.671 c 0.106,0.106 0.221,0.154 0.271,0.104 L 13.94,16.21 C 13.99,16.16 13.942,16.045 13.837,15.94 L 13.166,15.269 c 0.153,-0.242 0.27,-0.512 0.335,-0.8 h 0.941 c 0.149,0 0.271,-0.045 0.271,-0.116 V 13.451 c 0,-0.071 -0.122,-0.116 -0.271,-0.116 h -0.942 C 13.435,13.047 13.318,12.776 13.166,12.535 l 0.671,-0.671 c 0.106,-0.106 0.154,-0.221 0.104,-0.271 l -0.632,-0.632 c -0.05,-0.05 -0.165,-0.002 -0.271,0.104 l -0.671,0.671 c -0.242,-0.153 -0.512,-0.27 -0.8,-0.335 v -0.941 c 0,-0.149 -0.045,-0.271 -0.116,-0.271 z M 11,12.754 c 0.631,0 1.148,0.517 1.148,1.148 0,0.631 -0.517,1.148 -1.148,1.148 -0.631,0 -1.148,-0.517 -1.148,-1.148 0,-0.631 0.517,-1.148 1.148,-1.148 z" />
  </g>
</svg>