<svg viewBox="0 0 22 22" xmlns="http://www.w3.org/2000/svg">
  <defs>
    <style type="text/css" id="current-color-scheme">
      .ColorScheme-Text {
        color: #e2e2e5;
      }
    </style>
  </defs>
  <path
    d="M 10.908,20.167 15.079,9.167 h 1.925 L 21.175,20.167 H 19.25 L 18.265,17.371 H 13.819 l -0.985,2.796 z m -7.242,-2.75 L 2.383,16.133 7.013,11.504 Q 6.21,10.702 5.557,9.671 q -0.653,-1.031 -1.203,-2.338 h 1.925 q 0.458,0.894 0.917,1.558 0.458,0.665 1.1,1.329 Q 9.052,9.465 9.866,8.101 10.679,6.738 11.092,5.5 H 0.917 V 3.667 H 7.333 V 1.833 H 9.167 V 3.667 H 15.583 V 5.5 H 12.925 Q 12.444,7.15 11.481,8.892 10.519,10.633 9.579,11.55 l 2.2,2.246 -0.688,1.879 -2.796,-2.865 z m 10.725,-1.65 h 3.3 l -1.65,-4.675 z"
    class="ColorScheme-Text" fill="currentColor" />
</svg>