<svg height="22" width="22" xmlns="http://www.w3.org/2000/svg">
  <style type="text/css" id="current-color-scheme">
    .ColorScheme-Text {
      color: #e2e2e5;
    }
  </style>
  <path
    d="m 17.937,14.818 c 0,0 -0.434,1.259 -1.302,2.561 -0.217,0.391 -1.259,1.867 -2.518,1.867 -0.912,0 -1.519,-0.651 -2.691,-0.651 -1.432,0 -1.997,0.651 -2.908,0.651 -0.478,0.043 -0.955,-0.217 -1.476,-0.695 -3.342,-3.169 -3.516,-7.857 -2.257,-9.767 0.781,-1.259 2.084,-2.04 3.516,-2.084 1.129,0 2.344,0.738 2.822,0.738 0.347,0 2.17,-0.868 3.212,-0.781 1.432,0.13 2.431,0.651 3.169,1.65 -2.127,1.042 -2.865,5.079 0.434,6.511 z M 14.421,2.75 c 0.347,1.389 -1.172,4.037 -3.429,3.907 -0.13,-1.867 1.476,-3.777 3.429,-3.907 z"
    class="ColorScheme-Text" fill="currentColor" />
</svg>