<svg viewBox="0 0 22 22" xmlns="http://www.w3.org/2000/svg">
  <defs>
    <style type="text/css" id="current-color-scheme">
      .ColorScheme-Text {
        color: #e2e2e5;
      }
    </style>
  </defs>
  <path
    d="m 5.958,18.333 q -2.085,0 -3.564,-1.444 -1.478,-1.444 -1.478,-3.529 0,-1.788 1.077,-3.185 Q 3.071,8.777 4.813,8.388 5.385,6.279 7.104,4.973 8.823,3.667 11,3.667 q 2.681,0 4.549,1.868 1.868,1.868 1.868,4.549 1.581,0.183 2.624,1.364 1.043,1.18 1.043,2.761 0,1.719 -1.203,2.922 -1.203,1.203 -2.922,1.203 z m 0,-1.833 H 16.958 q 0.963,0 1.627,-0.665 Q 19.25,15.171 19.25,14.208 q 0,-0.963 -0.665,-1.627 -0.665,-0.665 -1.627,-0.665 h -1.375 v -1.833 q 0,-1.902 -1.341,-3.243 Q 12.902,5.5 11,5.5 9.098,5.5 7.757,6.841 6.417,8.181 6.417,10.083 H 5.958 q -1.329,0 -2.269,0.94 Q 2.75,11.963 2.75,13.292 q 0,1.329 0.94,2.269 Q 4.629,16.5 5.958,16.5 Z M 11,11 Z"
    class="ColorScheme-Text" fill="currentColor" />
</svg>