<svg height="22" width="22" xmlns="http://www.w3.org/2000/svg">
  <style type="text/css" id="current-color-scheme">
    .ColorScheme-Text {
      color: #e2e2e5;
    }
  </style>
  <path
    d="M 14.025,15.308 15.308,14.025 11.917,10.633 V 6.417 H 10.083 V 11.367 Z M 11,20.167 q -1.902,0 -3.575,-0.722 Q 5.752,18.723 4.515,17.485 3.277,16.248 2.555,14.575 1.833,12.902 1.833,11 q 0,-1.902 0.722,-3.575 Q 3.277,5.752 4.515,4.515 5.752,3.277 7.425,2.555 9.098,1.833 11,1.833 q 1.902,0 3.575,0.722 1.673,0.722 2.91,1.959 1.238,1.238 1.959,2.91 0.722,1.673 0.722,3.575 0,1.902 -0.722,3.575 -0.722,1.673 -1.959,2.91 -1.238,1.238 -2.91,1.959 Q 12.902,20.167 11,20.167 Z M 11,11 Z m 0,7.333 q 3.048,0 5.191,-2.143 Q 18.333,14.048 18.333,11 q 0,-3.048 -2.143,-5.191 Q 14.048,3.667 11,3.667 q -3.048,0 -5.191,2.143 Q 3.667,7.952 3.667,11 q 0,3.048 2.143,5.191 Q 7.952,18.333 11,18.333 Z"
    class="ColorScheme-Text" fill="currentColor" />
</svg>