<svg height="22" width="22" xmlns="http://www.w3.org/2000/svg">
  <style type="text/css" id="current-color-scheme">
    .ColorScheme-Text {
      color: #e2e2e5;
    }
  </style>
  <path
    d="M 3.667,3.667 5.5,7.333 H 8.25 L 6.417,3.667 H 8.25 l 1.833,3.667 h 2.75 L 11,3.667 h 1.833 l 1.833,3.667 h 2.75 L 15.583,3.667 h 2.75 q 0.756,0 1.295,0.539 Q 20.167,4.744 20.167,5.5 v 11 q 0,0.756 -0.539,1.295 -0.539,0.539 -1.295,0.539 H 3.667 q -0.756,0 -1.295,-0.539 Q 1.833,17.256 1.833,16.5 v -11 q 0,-0.756 0.539,-1.295 0.539,-0.539 1.295,-0.539 z m 0,5.5 V 16.5 H 18.333 V 9.167 Z m 0,0 V 16.5 Z"
    class="ColorScheme-Text" fill="currentColor" />
</svg>