<svg viewBox="0 0 22 22" xmlns="http://www.w3.org/2000/svg">
  <defs>
    <style type="text/css" id="current-color-scheme">
      .ColorScheme-Text {
        color: #e2e2e5;
      }
    </style>
  </defs>
  <path
    d="M 9.136,2 V 5.375 H 7.344 l 3.48,3.938 3.481,-3.938 h -1.793 V 2 Z m 1.248,7.875 c -0.097,0 -0.158,0.166 -0.158,0.369 v 1.283 C 9.835,11.617 9.466,11.776 9.136,11.984 L 8.222,11.07 C 8.079,10.927 7.922,10.861 7.853,10.93 l -0.861,0.861 c -0.069,0.069 -0.003,0.226 0.141,0.369 l 0.914,0.914 C 7.839,13.404 7.679,13.772 7.59,14.164 H 6.307 c -0.203,0 -0.369,0.061 -0.369,0.158 v 1.231 c 0,0.097 0.166,0.158 0.369,0.158 h 1.283 c 0.089,0.392 0.249,0.761 0.457,1.09 l -0.914,0.914 c -0.143,0.143 -0.209,0.3 -0.141,0.369 l 0.861,0.861 c 0.069,0.069 0.226,0.003 0.369,-0.141 L 9.136,17.891 C 9.466,18.099 9.835,18.259 10.227,18.348 V 19.631 c 0,0.203 0.061,0.369 0.158,0.369 h 1.231 c 0.097,0 0.158,-0.166 0.158,-0.369 v -1.283 c 0.392,-0.089 0.761,-0.249 1.09,-0.457 l 0.914,0.914 c 0.143,0.143 0.3,0.209 0.369,0.141 l 0.861,-0.861 c 0.069,-0.069 0.003,-0.226 -0.141,-0.369 L 13.953,16.801 C 14.161,16.471 14.321,16.103 14.41,15.711 H 15.694 c 0.203,0 0.369,-0.061 0.369,-0.158 v -1.231 c 0,-0.097 -0.166,-0.158 -0.369,-0.158 h -1.283 c -0.089,-0.392 -0.249,-0.761 -0.457,-1.09 l 0.914,-0.914 c 0.143,-0.143 0.209,-0.3 0.141,-0.369 l -0.862,-0.861 c -0.069,-0.069 -0.226,-0.003 -0.369,0.141 L 12.863,11.984 C 12.533,11.776 12.165,11.617 11.773,11.527 V 10.244 c 5.62e-4,-0.203 -0.061,-0.369 -0.158,-0.369 h -1.231 z M 11,13.373 c 0.86,0 1.564,0.705 1.564,1.564 0,0.86 -0.705,1.564 -1.564,1.564 -0.86,0 -1.564,-0.705 -1.564,-1.564 0,-0.86 0.705,-1.564 1.564,-1.564 z"
    class="ColorScheme-Text" fill="currentColor" />
</svg>