<svg viewBox="0 0 22 22" xmlns="http://www.w3.org/2000/svg">
  <defs>
    <style type="text/css" id="current-color-scheme">
      .ColorScheme-Text {
        color: #e2e2e5;
      }
    </style>
  </defs>
  <path
    d="m 4.331,18.333 q -1.375,0 -2.349,-0.985 Q 1.008,16.363 0.963,14.965 q 0,-0.206 0.023,-0.413 0.023,-0.206 0.069,-0.413 l 1.925,-7.7 Q 3.3,5.202 4.285,4.434 5.271,3.667 6.531,3.667 h 8.938 q 1.26,0 2.246,0.768 0.985,0.768 1.306,2.005 l 1.925,7.7 q 0.046,0.206 0.08,0.424 0.034,0.218 0.034,0.424 0,1.398 -0.997,2.372 -0.997,0.974 -2.395,0.974 -0.963,0 -1.788,-0.504 -0.825,-0.504 -1.238,-1.375 L 14.002,15.125 Q 13.888,14.896 13.658,14.781 13.429,14.667 13.177,14.667 H 8.823 q -0.252,0 -0.481,0.115 Q 8.113,14.896 7.998,15.125 L 7.356,16.454 q -0.413,0.871 -1.238,1.375 -0.825,0.504 -1.788,0.504 z M 4.4,16.5 q 0.435,0 0.791,-0.229 0.355,-0.229 0.539,-0.619 l 0.642,-1.306 q 0.344,-0.71 1.008,-1.111 0.665,-0.401 1.444,-0.401 h 4.354 q 0.779,0 1.444,0.413 0.665,0.413 1.031,1.1 l 0.642,1.306 q 0.183,0.39 0.539,0.619 Q 17.188,16.5 17.623,16.5 q 0.642,0 1.1,-0.424 0.458,-0.424 0.481,-1.066 0,0.023 -0.046,-0.435 l -1.925,-7.677 Q 17.073,6.279 16.592,5.89 16.11,5.5 15.469,5.5 H 6.531 Q 5.89,5.5 5.397,5.89 4.904,6.279 4.767,6.898 l -1.925,7.677 q -0.046,0.138 -0.046,0.413 0,0.642 0.47,1.077 Q 3.735,16.5 4.4,16.5 Z m 7.975,-6.417 q 0.39,0 0.653,-0.264 0.264,-0.264 0.264,-0.653 0,-0.39 -0.264,-0.653 Q 12.765,8.25 12.375,8.25 q -0.39,0 -0.653,0.264 -0.264,0.264 -0.264,0.653 0,0.39 0.264,0.653 0.264,0.264 0.653,0.264 z M 14.208,8.25 q 0.39,0 0.653,-0.264 Q 15.125,7.723 15.125,7.333 q 0,-0.39 -0.264,-0.653 -0.264,-0.264 -0.653,-0.264 -0.39,0 -0.653,0.264 -0.264,0.264 -0.264,0.653 0,0.39 0.264,0.653 Q 13.819,8.25 14.208,8.25 Z m 0,3.667 q 0.39,0 0.653,-0.264 Q 15.125,11.39 15.125,11 q 0,-0.39 -0.264,-0.653 -0.264,-0.264 -0.653,-0.264 -0.39,0 -0.653,0.264 Q 13.292,10.61 13.292,11 q 0,0.39 0.264,0.653 0.264,0.264 0.653,0.264 z m 1.833,-1.833 q 0.39,0 0.653,-0.264 0.264,-0.264 0.264,-0.653 0,-0.39 -0.264,-0.653 Q 16.431,8.25 16.042,8.25 15.652,8.25 15.389,8.514 15.125,8.777 15.125,9.167 q 0,0.39 0.264,0.653 0.264,0.264 0.653,0.264 z m -8.25,1.375 q 0.298,0 0.493,-0.195 0.195,-0.195 0.195,-0.493 V 9.854 h 0.917 q 0.298,0 0.493,-0.195 0.195,-0.195 0.195,-0.493 0,-0.298 -0.195,-0.493 Q 9.694,8.479 9.396,8.479 H 8.479 V 7.563 q 0,-0.298 -0.195,-0.493 Q 8.09,6.875 7.792,6.875 7.494,6.875 7.299,7.07 7.104,7.265 7.104,7.563 V 8.479 H 6.188 q -0.298,0 -0.493,0.195 Q 5.5,8.869 5.5,9.167 5.5,9.465 5.695,9.659 5.89,9.854 6.188,9.854 h 0.917 v 0.917 q 0,0.298 0.195,0.493 0.195,0.195 0.493,0.195 z M 11,11 Z"
    class="ColorScheme-Text" fill="currentColor" />
</svg>