<svg viewBox="0 0 22 22" xmlns="http://www.w3.org/2000/svg">
  <defs>
    <style type="text/css" id="current-color-scheme">
      .ColorScheme-Text {
        color: #e2e2e5;
      }
    </style>
  </defs>
  <path
    d="M 9.207 2.686 C 8.402 2.865 7.604 3.114 6.857 3.49 C 6.875 4.15 6.917 4.782 7.004 5.424 C 6.714 5.61 6.408 5.769 6.137 5.986 C 5.861 6.198 5.581 6.401 5.332 6.648 C 4.834 6.319 4.307 6.01 3.764 5.736 C 3.178 6.366 2.631 7.048 2.184 7.809 C 2.535 8.36 2.913 8.913 3.262 9.346 L 3.262 13.104 L 3.262 13.582 L 3.262 14.016 C 3.27 14.016 3.279 14.017 3.287 14.018 L 6.15 14.293 C 6.3 14.307 6.417 14.428 6.428 14.578 L 6.516 15.842 L 9.014 16.02 L 9.186 14.854 C 9.208 14.702 9.337 14.59 9.49 14.59 L 12.51 14.59 C 12.663 14.59 12.792 14.702 12.814 14.854 L 12.986 16.02 L 15.484 15.842 L 15.572 14.578 C 15.583 14.428 15.7 14.308 15.85 14.293 L 18.713 14.018 C 18.721 14.017 18.73 14.016 18.738 14.016 L 18.738 13.643 L 18.738 9.346 C 19.141 8.838 19.524 8.28 19.816 7.809 C 19.369 7.048 18.822 6.366 18.236 5.736 C 17.693 6.01 17.166 6.319 16.668 6.648 C 16.419 6.401 16.137 6.198 15.861 5.986 C 15.59 5.769 15.286 5.61 14.996 5.424 C 15.082 4.782 15.125 4.15 15.143 3.49 C 14.395 3.114 13.599 2.865 12.793 2.686 C 12.471 3.226 12.176 3.812 11.92 4.385 C 11.616 4.334 11.312 4.316 11.006 4.313 L 11.006 4.311 C 11.004 4.311 11.002 4.313 11 4.313 C 10.998 4.313 10.996 4.311 10.994 4.311 L 10.994 4.313 C 10.688 4.316 10.382 4.334 10.078 4.385 C 9.822 3.812 9.529 3.226 9.207 2.686 z M 6.941 9.518 C 7.894 9.518 8.668 10.29 8.668 11.242 C 8.668 12.195 7.894 12.967 6.941 12.967 C 5.989 12.967 5.217 12.195 5.217 11.242 C 5.217 10.29 5.989 9.518 6.941 9.518 z M 15.059 9.518 C 16.011 9.518 16.783 10.29 16.783 11.242 C 16.783 12.195 16.011 12.967 15.059 12.967 C 14.106 12.967 13.332 12.195 13.332 11.242 C 13.332 10.29 14.106 9.518 15.059 9.518 z M 11 10.525 C 11.307 10.525 11.557 10.753 11.557 11.031 L 11.557 12.619 C 11.557 12.898 11.307 13.123 11 13.123 C 10.693 13.123 10.445 12.898 10.445 12.619 L 10.445 11.031 C 10.445 10.753 10.693 10.525 11 10.525 z M 3.256 14.633 C 3.257 14.909 3.262 15.213 3.262 15.273 C 3.262 17.992 6.709 19.299 10.994 19.314 L 11 19.314 L 11.006 19.314 C 15.291 19.299 18.738 17.992 18.738 15.273 C 18.738 15.212 18.741 14.91 18.742 14.633 L 16.17 14.881 L 16.08 16.152 C 16.069 16.305 15.948 16.427 15.795 16.438 L 12.746 16.656 C 12.739 16.657 12.73 16.656 12.723 16.656 C 12.571 16.656 12.44 16.545 12.418 16.393 L 12.244 15.207 L 9.756 15.207 L 9.582 16.393 C 9.559 16.552 9.415 16.668 9.254 16.656 L 6.205 16.438 C 6.052 16.427 5.931 16.305 5.92 16.152 L 5.83 14.881 L 3.256 14.633 z"
    class="ColorScheme-Text" fill="currentColor" />
</svg>