<svg viewBox="0 0 22 22" xmlns="http://www.w3.org/2000/svg">
  <defs>
    <style type="text/css" id="current-color-scheme">
      .ColorScheme-Text {
        color: #e2e2e5;
      }
    </style>
  </defs>
  <path
    d="m 8.637,15.92 c 0,0 -0.687,0.4 0.49,0.535 1.427,0.163 2.155,0.139 3.727,-0.158 0,0 0.414,0.259 0.991,0.483 -3.524,1.51 -7.976,-0.087 -5.208,-0.861 z M 8.207,13.95 c 0,0 -0.771,0.571 0.407,0.693 1.524,0.157 2.727,0.17 4.81,-0.231 0,0 0.288,0.292 0.74,0.451 -4.26,1.246 -9.005,0.098 -5.957,-0.914 z"
    class="ColorScheme-Text" fill="currentColor" />
  <path
    d="m 11.837,10.607 c 0.869,1 -0.228,1.899 -0.228,1.899 0,0 2.205,-1.138 1.192,-2.563 C 11.856,8.614 11.13,7.953 15.056,5.677 15.056,5.677 8.894,7.215 11.837,10.607 Z"
    class="ColorScheme-Text" fill="currentColor" />
  <path
    d="m 16.497,17.378 c 0,0 0.509,0.42 -0.561,0.744 C 13.903,18.738 7.471,18.924 5.685,18.146 5.043,17.867 6.247,17.479 6.626,17.397 7.021,17.312 7.246,17.328 7.246,17.328 6.532,16.825 2.63,18.315 5.265,18.743 12.449,19.908 18.36,18.219 16.497,17.378 Z M 8.968,11.908 c 0,0 -3.271,0.777 -1.158,1.06 0.892,0.119 2.67,0.092 4.328,-0.047 1.354,-0.114 2.713,-0.357 2.713,-0.357 0,0 -0.477,0.205 -0.823,0.44 C 10.705,13.878 4.288,13.471 6.136,12.577 7.698,11.822 8.968,11.908 8.968,11.908 Z m 5.869,3.28 c 3.377,-1.754 1.816,-3.441 0.726,-3.214 -0.267,0.056 -0.386,0.104 -0.386,0.104 0,0 0.099,-0.156 0.288,-0.222 2.156,-0.758 3.814,2.236 -0.695,3.421 -1.5e-4,0 0.052,-0.047 0.067,-0.089 z"
    class="ColorScheme-Text" fill="currentColor" />
  <path
    d="m 12.801,2 c 0,0 1.87,1.871 -1.774,4.747 C 8.105,9.056 10.361,10.371 11.026,11.875 9.32,10.336 8.069,8.981 8.908,7.72 10.14,5.869 13.556,4.972 12.801,2 Z"
    class="ColorScheme-Text" fill="currentColor" />
  <path
    d="m 9.3,19.944 c 3.241,0.207 8.219,-0.115 8.337,-1.649 0,0 -0.227,0.581 -2.679,1.043 -2.767,0.521 -6.18,0.46 -8.203,0.126 0,0 0.415,0.343 2.545,0.48 z"
    class="ColorScheme-Text" fill="currentColor" />
</svg>