<svg height="22" width="22" xmlns="http://www.w3.org/2000/svg">
  <style type="text/css" id="current-color-scheme">
    .ColorScheme-Text {
      color: #e2e2e5;
    }
  </style>
  <path
    d="m 12.833,18.333 q -1.513,0 -2.59,-1.077 -1.077,-1.077 -1.077,-2.59 0,-1.513 1.077,-2.59 Q 11.321,11 12.833,11 q 0.527,0 0.974,0.126 0.447,0.126 0.859,0.378 V 3.667 h 5.5 v 2.75 H 16.5 v 8.25 q 0,1.513 -1.077,2.59 -1.077,1.077 -2.59,1.077 z M 1.833,14.667 q 0,-2.269 0.871,-4.274 Q 3.575,8.388 5.065,6.898 6.554,5.408 8.559,4.538 10.565,3.667 12.833,3.667 V 5.5 Q 10.954,5.5 9.281,6.222 7.608,6.944 6.359,8.193 5.11,9.442 4.389,11.103 q -0.722,1.661 -0.722,3.564 z m 3.667,0 q 0,-1.513 0.584,-2.853 Q 6.669,10.473 7.666,9.476 8.663,8.479 9.992,7.906 11.321,7.333 12.833,7.333 v 1.833 q -2.292,0 -3.896,1.604 Q 7.333,12.375 7.333,14.667 Z"
    class="ColorScheme-Text" fill="currentColor" />
</svg>