<svg viewBox="0 0 22 22" xmlns="http://www.w3.org/2000/svg">
  <defs>
    <style type="text/css" id="current-color-scheme">
      .ColorScheme-NegativeText {
        color: #ff5540;
      }
    </style>
  </defs>
  <path
    d="m 11,17.417 q 1.513,0 2.59,-1.077 Q 14.667,15.263 14.667,13.75 v -3.667 q 0,-1.512 -1.077,-2.59 Q 12.513,6.417 11,6.417 q -1.513,0 -2.59,1.077 -1.077,1.077 -1.077,2.59 V 13.75 q 0,1.513 1.077,2.59 Q 9.488,17.417 11,17.417 Z m -1.833,-2.75 H 12.833 V 12.833 H 9.167 Z m 0,-3.667 H 12.833 V 9.167 H 9.167 Z M 11,11.917 Z M 11,19.25 Q 9.51,19.25 8.239,18.517 6.967,17.783 6.233,16.5 H 3.667 v -1.833 h 1.925 Q 5.523,14.208 5.511,13.75 5.5,13.292 5.5,12.833 H 3.667 V 11 H 5.5 Q 5.5,10.542 5.511,10.083 5.523,9.625 5.592,9.167 h -1.925 V 7.333 H 6.233 Q 6.554,6.806 6.955,6.348 7.356,5.89 7.883,5.546 L 6.417,4.033 7.7,2.75 9.671,4.721 Q 10.313,4.515 10.977,4.515 q 0.665,0 1.306,0.206 L 14.3,2.75 l 1.283,1.283 -1.513,1.513 q 0.527,0.344 0.951,0.791 0.424,0.447 0.745,0.997 h 2.567 v 1.833 h -1.925 Q 16.477,9.625 16.489,10.083 16.5,10.542 16.5,11 h 1.833 v 1.833 H 16.5 q 0,0.458 -0.011,0.917 -0.011,0.458 -0.08,0.917 h 1.925 V 16.5 H 15.767 Q 15.033,17.783 13.761,18.517 12.49,19.25 11,19.25 Z"
    class="ColorScheme-NegativeText" fill="currentColor" />
</svg>