<svg height="22" width="22" xmlns="http://www.w3.org/2000/svg">
  <style type="text/css" id="current-color-scheme">
    .ColorScheme-Text {
      color: #e2e2e5;
    }
  </style>
  <path
    d="m 7.333,15.583 q 0.39,0 0.653,-0.264 Q 8.25,15.056 8.25,14.667 8.25,14.277 7.986,14.014 7.723,13.75 7.333,13.75 q -0.39,0 -0.653,0.264 -0.264,0.264 -0.264,0.653 0,0.39 0.264,0.653 0.264,0.264 0.653,0.264 z m 0,-3.667 q 0.39,0 0.653,-0.264 Q 8.25,11.39 8.25,11 q 0,-0.39 -0.264,-0.653 -0.264,-0.264 -0.653,-0.264 -0.39,0 -0.653,0.264 Q 6.417,10.61 6.417,11 q 0,0.39 0.264,0.653 0.264,0.264 0.653,0.264 z m 0,-3.667 q 0.39,0 0.653,-0.264 Q 8.25,7.723 8.25,7.333 8.25,6.944 7.986,6.68 7.723,6.417 7.333,6.417 q -0.39,0 -0.653,0.264 -0.264,0.264 -0.264,0.653 0,0.39 0.264,0.653 Q 6.944,8.25 7.333,8.25 Z m 2.75,7.333 h 5.5 V 13.75 h -5.5 z m 0,-3.667 h 5.5 v -1.833 h -5.5 z m 0,-3.667 h 5.5 V 6.417 h -5.5 z m -5.5,11 q -0.756,0 -1.295,-0.539 Q 2.75,18.173 2.75,17.417 V 4.583 q 0,-0.756 0.539,-1.295 Q 3.827,2.75 4.583,2.75 H 17.417 q 0.756,0 1.295,0.539 Q 19.25,3.827 19.25,4.583 V 17.417 q 0,0.756 -0.539,1.295 Q 18.173,19.25 17.417,19.25 Z m 0,-1.833 H 17.417 V 4.583 H 4.583 Z m 0,-12.833 V 17.417 Z"
    class="ColorScheme-Text" fill="currentColor" />
</svg>