<svg height="22" width="22" xmlns="http://www.w3.org/2000/svg">
  <style type="text/css" id="current-color-scheme">
    .ColorScheme-Text {
      color: #e2e2e5;
    }
  </style>
  <path
    d="m 18.909,9.59 c -0.372,-0.258 -1.223,-0.354 -1.889,-0.226 -0.077,-0.645 -0.433,-1.208 -1.053,-1.708 l -0.356,-0.258 -0.248,0.371 c -0.31,0.483 -0.464,1.16 -0.418,1.805 0.016,0.226 0.093,0.628 0.325,0.983 -0.217,0.129 -0.666,0.29 -1.254,0.29 H 2.824 l -0.031,0.129 c -0.108,0.645 -0.108,2.659 1.161,4.205 0.96,1.176 2.384,1.772 4.257,1.772 4.056,0 7.059,-1.95 8.468,-5.478 0.557,0.016 1.749,0 2.353,-1.208 0.016,-0.032 0.046,-0.097 0.155,-0.338 l 0.062,-0.129 z m -7.137,-4.544 h -1.703 v 1.611 h 1.703 z m 0,1.934 h -1.703 v 1.611 h 1.703 z m -2.013,0 h -1.703 v 1.611 h 1.703 z m -2.013,0 h -1.703 v 1.611 h 1.703 z m -2.013,1.934 h -1.703 v 1.611 h 1.703 z m 2.013,0 h -1.703 v 1.611 h 1.703 z m 2.013,0 h -1.703 v 1.611 h 1.703 z m 2.013,0 h -1.703 v 1.611 h 1.703 z m 2.013,0 h -1.703 v 1.611 h 1.703 z"
    class="ColorScheme-Text" fill="currentColor" />
</svg>