<svg height="22" width="22" xmlns="http://www.w3.org/2000/svg">
  <style type="text/css" id="current-color-scheme">
    .ColorScheme-Text {
      color: #e2e2e5;
    }
  </style>
  <path fill-rule="evenodd" clip-rule="evenodd"
    d="m 8.609,4.021 c -0.496,0 -0.955,0.264 -1.206,0.692 l -4.464,7.652 c -0.269,0.461 -0.251,1.034 0.044,1.478 l 2.343,3.514 c 0.259,0.388 0.695,0.622 1.161,0.622 h 9.023 c 0.467,0 0.902,-0.233 1.161,-0.622 l 2.343,-3.514 c 0.296,-0.444 0.313,-1.017 0.044,-1.478 l -4.464,-7.652 c -0.25,-0.429 -0.709,-0.692 -1.206,-0.692 z m 0.858,1.396 h 3.923 l 4.071,6.979 h -3.632 z m 2.716,6.979 -1.247,-1.995 -1.164,1.995 z m -3.225,1.396 -1.628,2.791 h 8.182 l 1.861,-2.791 z m 1.142,-4.728 -4.025,6.9 -1.93,-2.895 4.083,-7 z"
    class="ColorScheme-Text" fill="currentColor" />
</svg>