<svg viewBox="0 0 22 22" xmlns="http://www.w3.org/2000/svg">
  <defs>
    <style type="text/css" id="current-color-scheme">
      .ColorScheme-Text {
        color: #e2e2e5;
      }
    </style>
  </defs>
  <path
    d="M 0.917,16.5 Q 1.123,14.048 2.418,11.986 3.713,9.923 5.867,8.708 L 4.171,5.775 q -0.138,-0.206 -0.069,-0.435 Q 4.171,5.111 4.4,4.996 4.583,4.881 4.813,4.95 q 0.229,0.069 0.367,0.275 L 6.875,8.158 q 1.971,-0.825 4.125,-0.825 2.154,0 4.125,0.825 l 1.696,-2.933 q 0.138,-0.206 0.367,-0.275 0.229,-0.069 0.413,0.046 0.229,0.115 0.298,0.344 0.069,0.229 -0.069,0.435 l -1.696,2.933 q 2.154,1.215 3.449,3.277 1.295,2.063 1.501,4.515 z M 6.417,13.979 q 0.481,0 0.814,-0.332 Q 7.563,13.315 7.563,12.833 q 0,-0.481 -0.332,-0.814 -0.332,-0.332 -0.814,-0.332 -0.481,0 -0.814,0.332 -0.332,0.332 -0.332,0.814 0,0.481 0.332,0.814 0.332,0.332 0.814,0.332 z m 9.167,0 q 0.481,0 0.814,-0.332 0.332,-0.332 0.332,-0.814 0,-0.481 -0.332,-0.814 -0.332,-0.332 -0.814,-0.332 -0.481,0 -0.814,0.332 -0.332,0.332 -0.332,0.814 0,0.481 0.332,0.814 0.332,0.332 0.814,0.332 z"
    class="ColorScheme-Text" fill="currentColor" />
</svg>