<svg viewBox="0 0 22 22" xmlns="http://www.w3.org/2000/svg">
  <defs>
    <style type="text/css" id="current-color-scheme">
      .ColorScheme-Text {
        color: #e2e2e5;
      }
    </style>
  </defs>
  <path
    d="m 7.333,16.5 h 1.375 v -1.833 h 1.833 v -1.375 H 8.708 v -1.833 h -1.375 v 1.833 H 5.5 v 1.375 H 7.333 Z M 11.917,15.813 H 16.5 v -1.375 h -4.583 z m 0,-2.292 H 16.5 v -1.375 H 11.917 Z M 12.925,10.038 14.208,8.754 15.492,10.038 16.454,9.075 15.171,7.746 16.454,6.463 15.492,5.5 14.208,6.783 12.925,5.5 11.963,6.463 13.246,7.746 11.963,9.075 Z M 5.729,8.433 H 10.313 v -1.375 H 5.729 Z M 2.75,19.25 V 2.75 h 16.5 v 16.5 z M 4.583,17.417 H 17.417 V 4.583 H 4.583 Z m 0,0 V 4.583 Z"
    class="ColorScheme-Text" fill="currentColor" />
</svg>