<svg height="22" width="22" xmlns="http://www.w3.org/2000/svg">
  <style type="text/css" id="current-color-scheme">
    .ColorScheme-Text {
      color: #e2e2e5;
    }
  </style>
  <path
    d="M 10.083,12.833 V 9.029 L 8.617,10.496 7.333,9.167 11,5.5 14.667,9.167 13.383,10.496 11.917,9.029 V 12.833 Z M 4.583,19.25 q -0.756,0 -1.295,-0.539 Q 2.75,18.173 2.75,17.417 V 4.583 q 0,-0.756 0.539,-1.295 Q 3.827,2.75 4.583,2.75 H 17.417 q 0.756,0 1.295,0.539 Q 19.25,3.827 19.25,4.583 V 17.417 q 0,0.756 -0.539,1.295 Q 18.173,19.25 17.417,19.25 Z m 0,-1.833 H 17.417 v -2.75 h -2.75 Q 13.979,15.538 13.028,16.019 12.077,16.5 11,16.5 9.923,16.5 8.972,16.019 8.021,15.538 7.333,14.667 H 4.583 Z M 11,14.667 q 0.871,0 1.581,-0.504 0.71,-0.504 0.985,-1.329 h 3.85 V 4.583 H 4.583 v 8.25 h 3.85 q 0.275,0.825 0.985,1.329 0.71,0.504 1.581,0.504 z m -6.417,2.75 H 17.417 Z"
    class="ColorScheme-Text" fill="currentColor" />
</svg>