<svg viewBox="0 0 22 22" xmlns="http://www.w3.org/2000/svg">
  <defs>
    <style type="text/css" id="current-color-scheme">
      .ColorScheme-Text {
        color: #e2e2e5;
      }
    </style>
  </defs>
  <path
    d="M 6.875,5.5 Q 6.302,5.5 5.901,5.901 5.5,6.302 5.5,6.875 5.5,7.448 5.901,7.849 6.302,8.25 6.875,8.25 7.448,8.25 7.849,7.849 8.25,7.448 8.25,6.875 8.25,6.302 7.849,5.901 7.448,5.5 6.875,5.5 Z m 0,9.167 q -0.573,0 -0.974,0.401 Q 5.5,15.469 5.5,16.042 q 0,0.573 0.401,0.974 0.401,0.401 0.974,0.401 0.573,0 0.974,-0.401 Q 8.25,16.615 8.25,16.042 8.25,15.469 7.849,15.068 7.448,14.667 6.875,14.667 Z M 2.75,11 V 2.75 h 16.5 V 11 Z M 4.583,4.583 V 9.167 H 17.417 V 4.583 Z M 2.75,20.167 v -8.25 h 16.5 v 8.25 z M 4.583,13.75 v 4.583 H 17.417 V 13.75 Z m 0,-9.167 v 4.583 z m 0,9.167 v 4.583 z"
    class="ColorScheme-Text" fill="currentColor" />
</svg>