<svg height="22" width="22" xmlns="http://www.w3.org/2000/svg">
  <style type="text/css" id="current-color-scheme">
    .ColorScheme-Text {
      color: #e2e2e5;
    }
  </style>
  <path
    d="M 6.875,5.5 Q 6.302,5.5 5.901,5.901 5.5,6.302 5.5,6.875 5.5,7.448 5.901,7.849 6.302,8.25 6.875,8.25 7.448,8.25 7.849,7.849 8.25,7.448 8.25,6.875 8.25,6.302 7.849,5.901 7.448,5.5 6.875,5.5 Z m 0,9.167 q -0.573,0 -0.974,0.401 Q 5.5,15.469 5.5,16.042 q 0,0.573 0.401,0.974 0.401,0.401 0.974,0.401 0.573,0 0.974,-0.401 Q 8.25,16.615 8.25,16.042 8.25,15.469 7.849,15.068 7.448,14.667 6.875,14.667 Z M 3.667,2.75 H 18.333 q 0.39,0 0.653,0.264 Q 19.25,3.277 19.25,3.667 v 6.417 q 0,0.39 -0.264,0.653 Q 18.723,11 18.333,11 H 3.667 Q 3.277,11 3.014,10.736 2.75,10.473 2.75,10.083 V 3.667 Q 2.75,3.277 3.014,3.014 3.277,2.75 3.667,2.75 Z M 4.583,4.583 V 9.167 H 17.417 V 4.583 Z M 3.667,11.917 H 18.333 q 0.39,0 0.653,0.264 Q 19.25,12.444 19.25,12.833 V 19.25 q 0,0.39 -0.264,0.653 -0.264,0.264 -0.653,0.264 H 3.667 q -0.39,0 -0.653,-0.264 Q 2.75,19.64 2.75,19.25 v -6.417 q 0,-0.39 0.264,-0.653 0.264,-0.264 0.653,-0.264 z M 4.583,13.75 v 4.583 H 17.417 V 13.75 Z m 0,-9.167 v 4.583 z m 0,9.167 v 4.583 z"
    class="ColorScheme-Text" fill="currentColor" />
</svg>