<svg viewBox="0 0 22 22" xmlns="http://www.w3.org/2000/svg">
  <defs>
    <style type="text/css" id="current-color-scheme">
      .ColorScheme-Text {
        color: #e2e2e5;
      }
    </style>
  </defs>
  <path
    d="M 11,19.25 Q 7.54,19.25 5.145,18.184 2.75,17.119 2.75,15.583 V 6.417 q 0,-1.513 2.418,-2.59 Q 7.585,2.75 11,2.75 q 3.415,0 5.832,1.077 Q 19.25,4.904 19.25,6.417 v 9.167 q 0,1.535 -2.395,2.601 Q 14.46,19.25 11,19.25 Z M 11,8.273 q 2.04,0 4.102,-0.584 2.063,-0.584 2.315,-1.249 Q 17.165,5.775 15.114,5.179 13.063,4.583 11,4.583 q -2.085,0 -4.091,0.584 Q 4.904,5.752 4.583,6.44 4.904,7.127 6.909,7.7 8.915,8.273 11,8.273 Z m 0,4.56 q 0.963,0 1.856,-0.092 0.894,-0.092 1.707,-0.264 0.814,-0.172 1.535,-0.424 0.722,-0.252 1.318,-0.573 v -2.75 Q 16.821,9.052 16.099,9.304 15.377,9.556 14.564,9.728 13.75,9.9 12.856,9.992 11.963,10.083 11,10.083 q -0.963,0 -1.879,-0.092 Q 8.204,9.9 7.391,9.728 6.577,9.556 5.867,9.304 5.156,9.052 4.583,8.731 v 2.75 Q 5.156,11.802 5.867,12.054 6.577,12.306 7.391,12.478 8.204,12.65 9.121,12.742 10.038,12.833 11,12.833 Z m 0,4.583 q 1.054,0 2.143,-0.16 1.089,-0.16 2.005,-0.424 0.917,-0.264 1.535,-0.596 0.619,-0.332 0.733,-0.676 V 13.315 Q 16.821,13.635 16.099,13.888 15.377,14.14 14.564,14.311 13.75,14.483 12.856,14.575 11.963,14.667 11,14.667 q -0.963,0 -1.879,-0.092 Q 8.204,14.483 7.391,14.311 6.577,14.14 5.867,13.888 5.156,13.635 4.583,13.315 v 2.269 q 0.115,0.344 0.722,0.665 0.607,0.321 1.524,0.584 0.917,0.264 2.017,0.424 1.1,0.16 2.154,0.16 z"
    class="ColorScheme-Text" fill="currentColor" />
</svg>