<svg height="22" width="22" xmlns="http://www.w3.org/2000/svg">
  <style type="text/css" id="current-color-scheme">
    .ColorScheme-Text {
      color: #e2e2e5;
    }
  </style>
  <path
    d="M 6.417,5.5 V 17.417 Z M 10.313,19.25 H 6.417 q -0.756,0 -1.295,-0.539 Q 4.583,18.173 4.583,17.417 V 5.5 H 3.667 V 3.667 H 8.25 V 2.75 h 5.5 v 0.917 h 4.583 V 5.5 H 17.417 V 9.442 Q 17.027,9.327 16.511,9.247 15.996,9.167 15.583,9.167 V 5.5 H 6.417 v 11.917 h 3.025 q 0.138,0.481 0.367,0.951 Q 10.038,18.838 10.313,19.25 Z M 8.25,15.583 h 0.917 q 0,-1.444 0.458,-2.372 l 0.458,-0.928 V 7.333 H 8.25 Z M 11.917,10.313 Q 12.306,10.06 12.799,9.808 13.292,9.556 13.75,9.442 V 7.333 h -1.833 z m 3.667,9.854 q -1.902,0 -3.243,-1.341 Q 11,17.485 11,15.583 11,13.681 12.341,12.341 13.681,11 15.583,11 q 1.902,0 3.243,1.341 1.341,1.341 1.341,3.243 0,1.902 -1.341,3.243 -1.341,1.341 -3.243,1.341 z M 17.096,17.738 17.738,17.096 16.042,15.4 V 12.833 H 15.125 v 2.933 z"
    class="ColorScheme-Text" fill="currentColor" />
</svg>