<svg height="16" width="16" xmlns="http://www.w3.org/2000/svg">
  <style type="text/css" id="current-color-scheme">
    .ColorScheme-Text {
      color: #e2e2e5;
    }
  </style>
  <path
    d="M 11.2,11.199 H 8.2 l -2.05,2.05 q -0.345,0.35 -0.848,0.35 -0.502,0 -0.85,-0.347 L 2.747,11.546 Q 2.4,11.199 2.4,10.699 q 0,-0.5 0.35,-0.85 L 4.8,7.799 v -3 z m -2.9,-1.2 -2.3,-2.3 v 0.6 l -2.4,2.4 1.7,1.7 2.4,-2.4 z M 4.983,3.282 Q 6.65,2.232 8.608,2.432 q 1.958,0.2 3.358,1.6 1.4,1.4 1.6,3.358 0.2,1.958 -0.85,3.625 l -0.883,-0.867 q 0.7,-1.3 0.525,-2.758 -0.175,-1.458 -1.225,-2.508 -1.05,-1.05 -2.517,-1.242 -1.467,-0.192 -2.767,0.525 z m 1.767,1.767 q 0.9,-0.383 1.858,-0.2 0.958,0.183 1.658,0.883 0.7,0.7 0.875,1.65 0.175,0.95 -0.192,1.867 L 9.983,8.265 q 0.067,-0.467 -0.083,-0.908 -0.15,-0.442 -0.483,-0.775 -0.337,-0.327 -0.777,-0.472 -0.44,-0.145 -0.906,-0.079 z m -0.8,5 z"
    class="ColorScheme-Text" fill="currentColor" />
</svg>