<svg height="16" width="16" xmlns="http://www.w3.org/2000/svg">
  <style type="text/css" id="current-color-scheme">
    .ColorScheme-Text {
      color: #e2e2e5;
    }
  </style>
  <path
    d="m 12.8,14.5 -1.783,-1.783 q -0.367,0.233 -0.875,0.442 -0.508,0.208 -0.942,0.308 v -1.233 q 0.2,-0.083 0.475,-0.192 0.275,-0.108 0.458,-0.208 L 8,9.7 V 12.817 L 4.8,9.617 H 2.4 V 6.417 H 4.7 L 1.5,3.2 2.35,2.35 13.65,13.65 Z m -0.1,-3.483 -0.867,-0.867 q 0.267,-0.483 0.417,-1.025 0.15,-0.542 0.15,-1.108 0,-1.483 -0.892,-2.642 Q 10.617,4.217 9.2,3.784 V 2.55 q 1.95,0.383 3.175,1.933 1.225,1.55 1.225,3.533 0,0.8 -0.233,1.558 -0.233,0.758 -0.667,1.442 z M 10.633,8.95 9.2,7.517 V 5.484 q 0.75,0.333 1.175,1.025 0.425,0.692 0.425,1.508 0,0.233 -0.033,0.467 -0.033,0.233 -0.133,0.467 z M 8,6.317 6.45,4.767 8,3.217 Z M 6.8,9.917 V 8.5 l -1.2,-1.2 -0.3,0.317 H 3.6 V 8.417 H 5.3 Z M 6.2,7.9 Z"
    class="ColorScheme-Text" fill="currentColor" />
</svg>