<svg xmlns="http://www.w3.org/2000/svg" height="32" viewBox="0 0 32 32" width="32">
   <defs>
      <style id="current-color-scheme" type="text/css">
         .ColorScheme-Text {
            color: #e0e0e0;
         }
      </style>
   </defs>
   <g id="drive">
      <rect width="32" height="32" x="0" y="0" opacity="0" />
      <path
         d="M 5.3333331,22.666667 H 26.666666 v -8 H 5.3333331 Z m 17.3333329,-2 q 0.833333,0 1.416667,-0.583333 0.583333,-0.583333 0.583333,-1.416667 0,-0.833333 -0.583333,-1.416666 -0.583334,-0.583334 -1.416667,-0.583334 -0.833333,0 -1.416667,0.583334 -0.583333,0.583333 -0.583333,1.416666 0,0.833334 0.583333,1.416667 0.583334,0.583333 1.416667,0.583333 z m 6.666666,-8.666666 H 25.566666 L 22.899999,9.3333341 H 9.0999997 L 6.4333331,12.000001 H 2.6666665 L 7.9999997,6.6666675 H 23.999999 Z M 2.6666665,25.333334 V 12.000001 H 29.333332 v 13.333333 z"
         class="ColorScheme-Text" fill="currentColor" />
   </g>
   <g id="22-22-drive">
      <rect width="22" height="22" x="37" y="5" opacity="0" />
      <path
         d="m 40.666667,20.583333 h 14.666667 v -5.5 H 40.666667 Z m 11.916667,-1.375 q 0.572916,0 0.973958,-0.401042 0.401042,-0.401041 0.401042,-0.973958 0,-0.572917 -0.401042,-0.973958 -0.401042,-0.401042 -0.973958,-0.401042 -0.572917,0 -0.973959,0.401042 -0.401041,0.401041 -0.401041,0.973958 0,0.572917 0.401041,0.973958 0.401042,0.401042 0.973959,0.401042 z M 57.166667,13.25 H 54.577084 L 52.74375,11.416666 h -9.4875 L 41.422917,13.25 H 38.833334 L 42.5,9.5833329 h 11 z M 38.833334,22.416666 V 13.25 h 18.333333 v 9.166666 z"
         class="ColorScheme-Text" fill="currentColor" />
   </g>
   <g id="16-16-drive">
      <rect width="16" height="16" x="72" y="8" opacity="0" />
      <path
         d="m 74.666667,19.333333 h 10.666666 v -4 H 74.666667 Z m 8.666666,-1 q 0.416667,0 0.708334,-0.291667 0.291666,-0.291666 0.291666,-0.708333 0,-0.416667 -0.291666,-0.708333 -0.291667,-0.291667 -0.708334,-0.291667 -0.416666,0 -0.708333,0.291667 -0.291667,0.291666 -0.291667,0.708333 0,0.416667 0.291667,0.708333 0.291667,0.291667 0.708333,0.291667 z M 86.666667,14 H 84.783333 L 83.45,12.666666 h -6.9 L 75.216667,14 H 73.333333 L 76,11.333333 h 8 z M 73.333333,20.666666 V 14 h 13.333334 v 6.666666 z"
         class="ColorScheme-Text" fill="currentColor" />
   </g>
</svg>