<svg viewBox="0 0 54 38" xmlns="http://www.w3.org/2000/svg" xmlns:svg="http://www.w3.org/2000/svg">
  <defs>
    <style type="text/css" id="current-color-scheme">
      .ColorScheme-Text {
        color: #e2e2e5;
      }

      .ColorScheme-NegativeText {
        color: #ff5540;
      }
    </style>
  </defs>
  <g id="edit-delete">
    <rect width="32" height="32" fill="none" />
    <path
      d="m 8.911,28 q -0.917,0 -1.569,-0.653 -0.653,-0.653 -0.653,-1.57 V 7.333 H 5.334 V 5.111 h 6.4 V 4 h 8.533 v 1.111 h 6.4 V 7.333 H 25.311 V 25.778 q 0,0.9 -0.661,1.561 -0.661,0.661 -1.561,0.661 z M 23.089,7.333 H 8.911 V 25.778 H 23.089 Z M 12.156,22.978 h 2.222 V 10.111 h -2.222 z m 5.467,0 h 2.222 V 10.111 H 17.623 Z M 8.911,7.333 V 25.778 Z"
      class="ColorScheme-Text" fill="currentColor" />
  </g>
  <g id="22-22-edit-delete" transform="translate(32)">
    <rect width="22" height="22" fill="none" />
    <path
      d="m 6.417,19.25 q -0.756,0 -1.295,-0.539 Q 4.583,18.173 4.583,17.417 V 5.5 H 3.667 V 3.667 H 8.25 V 2.75 h 5.5 v 0.917 h 4.583 V 5.5 h -0.917 v 11.917 q 0,0.756 -0.539,1.295 Q 16.34,19.25 15.583,19.25 Z M 15.583,5.5 H 6.417 V 17.417 H 15.583 Z M 8.25,15.583 h 1.833 V 7.333 H 8.25 Z m 3.667,0 H 13.75 V 7.333 H 11.917 Z M 6.417,5.5 v 11.917 z"
      class="ColorScheme-Text" fill="currentColor" />
  </g>
  <g id="16-16-edit-delete" transform="translate(32,22)">
    <rect width="16" height="16" fill="none" />
    <path
      d="m 5.2,13.6 q -0.495,0 -0.848,-0.353 -0.353,-0.353 -0.353,-0.848 V 4.4 H 3.2 V 3.2 H 6.4 V 2.4 h 3.2 v 0.8 h 3.2 v 1.2 h -0.8 v 7.993 q 0,0.507 -0.353,0.857 -0.353,0.35 -0.848,0.35 z M 10.8,4.4 H 5.2 v 8 h 5.6 z M 6.4,11.2 h 1.2 V 5.6 h -1.2 z m 2,0 h 1.2 V 5.6 h -1.2 z M 5.2,4.4 v 8 z"
      class="ColorScheme-Text" fill="currentColor" />
  </g>
</svg>