<svg viewBox="0 0 66 44" width="66" height="44" xmlns="http://www.w3.org/2000/svg"
  xmlns:svg="http://www.w3.org/2000/svg">
  <style type="text/css" id="current-color-scheme">
    .ColorScheme-Text {
      color: #e2e2e5;
    }
  </style>
  <g id="go-home">
    <rect width="22" height="22" fill="none" />
    <path
      d="m 5.5,17.417 h 2.75 v -5.5 h 5.5 v 5.5 H 16.5 V 9.167 L 11,5.042 5.5,9.167 Z M 3.667,19.25 v -11 L 11,2.75 l 7.333,5.5 v 11 h -6.417 v -5.5 h -1.833 v 5.5 z M 11,11.229 Z"
      class="ColorScheme-Text" fill="currentColor" />
  </g>
  <g id="go-up" transform="translate(22)">
    <rect width="22" height="22" fill="none" />
    <path d="M 11,9.9 6.783,14.117 5.5,12.833 l 5.5,-5.5 5.5,5.5 -1.283,1.283 z" class="ColorScheme-Text"
      fill="currentColor" />
  </g>
  <g id="go-down" transform="translate(22,22)">
    <rect width="22" height="22" fill="none" />
    <path d="M 11,14.117 5.5,8.617 6.783,7.333 11,11.55 15.217,7.333 16.5,8.617 Z" class="ColorScheme-Text"
      fill="currentColor" />
  </g>
  <g id="go-previous" transform="translate(44)">
    <rect width="22" height="22" fill="none" />
    <path d="M 12.833,16.5 7.333,11 12.833,5.5 14.117,6.783 9.9,11 l 4.217,4.217 z" class="ColorScheme-Text"
      fill="currentColor" />
  </g>
  <g id="go-next" transform="translate(44,22)">
    <rect width="22" height="22" fill="none" />
    <path d="M 11.55,11 7.333,6.783 8.617,5.5 14.117,11 8.617,16.5 7.333,15.217 Z" class="ColorScheme-Text"
      fill="currentColor" />
  </g>
</svg>