<svg height="22" width="22" xmlns="http://www.w3.org/2000/svg">
  <style type="text/css" id="current-color-scheme">
    .ColorScheme-Text {
      color: #e2e2e5;
    }
  </style>
  <path
    d="M 8.25,19.25 H 4.583 q -0.756,0 -1.295,-0.539 Q 2.75,18.173 2.75,17.417 V 11 Q 2.75,9.281 3.403,7.78 4.056,6.279 5.168,5.168 6.279,4.056 7.78,3.403 9.281,2.75 11,2.75 q 1.719,0 3.22,0.653 1.501,0.653 2.613,1.765 1.111,1.111 1.765,2.613 Q 19.25,9.281 19.25,11 v 6.417 q 0,0.756 -0.539,1.295 Q 18.173,19.25 17.417,19.25 H 13.75 v -7.333 h 3.667 V 11 q 0,-2.681 -1.868,-4.549 Q 13.681,4.583 11,4.583 q -2.681,0 -4.549,1.868 Q 4.583,8.319 4.583,11 v 0.917 H 8.25 Z M 6.417,13.75 H 4.583 v 3.667 h 1.833 z m 9.167,0 v 3.667 h 1.833 V 13.75 Z m -9.167,0 H 4.583 Z m 9.167,0 h 1.833 z"
    class="ColorScheme-Text" fill="currentColor" />
</svg>