<svg height="22" width="22" xmlns="http://www.w3.org/2000/svg">
  <style type="text/css" id="current-color-scheme">
    .ColorScheme-Text {
      color: #e2e2e5;
    }
  </style>
  <path
    d="m 3.667,20.167 q -0.756,0 -1.295,-0.539 Q 1.833,19.09 1.833,18.333 V 7.333 q 0,-0.573 0.309,-1.031 Q 2.452,5.844 2.979,5.638 L 14.575,0.917 15.171,2.429 7.608,5.5 H 18.333 q 0.756,0 1.295,0.539 0.539,0.539 0.539,1.295 V 18.333 q 0,0.756 -0.539,1.295 -0.539,0.539 -1.295,0.539 z m 0,-1.833 H 18.333 V 11.917 H 3.667 Z m 3.667,-0.917 q 0.963,0 1.627,-0.665 Q 9.625,16.087 9.625,15.125 q 0,-0.963 -0.665,-1.627 -0.665,-0.665 -1.627,-0.665 -0.963,0 -1.627,0.665 Q 5.042,14.163 5.042,15.125 q 0,0.963 0.665,1.627 0.665,0.665 1.627,0.665 z M 3.667,10.083 H 14.667 V 8.25 H 16.5 v 1.833 h 1.833 V 7.333 H 3.667 Z m 0,8.25 v -6.417 z"
    class="ColorScheme-Text" fill="currentColor" />
</svg>