<svg height="22" width="22" xmlns="http://www.w3.org/2000/svg">
  <style type="text/css" id="current-color-scheme">
    .ColorScheme-Text {
      color: #e2e2e5;
    }
  </style>
  <path
    d="M 11,21.083 V 19.25 h 6.417 V 18.333 H 13.75 V 11 h 3.667 V 10.083 Q 17.417,7.425 15.538,5.546 13.658,3.667 11,3.667 q -2.658,0 -4.538,1.879 Q 4.583,7.425 4.583,10.083 V 11 H 8.25 v 7.333 H 4.583 q -0.756,0 -1.295,-0.539 Q 2.75,17.256 2.75,16.5 V 10.083 Q 2.75,8.388 3.403,6.886 4.056,5.385 5.179,4.263 6.302,3.14 7.803,2.486 9.304,1.833 11,1.833 q 1.696,0 3.197,0.653 1.501,0.653 2.624,1.776 1.123,1.123 1.776,2.624 Q 19.25,8.388 19.25,10.083 V 19.25 q 0,0.756 -0.539,1.295 -0.539,0.539 -1.295,0.539 z M 4.583,16.5 H 6.417 V 12.833 H 4.583 Z m 11,0 h 1.833 V 12.833 H 15.583 Z M 4.583,12.833 h 1.833 z m 11,0 h 1.833 z"
    class="ColorScheme-Text" fill="currentColor" />
</svg>