<svg height="22" width="22" xmlns="http://www.w3.org/2000/svg">
  <style type="text/css" id="current-color-scheme">
    .ColorScheme-Text {
      color: #e2e2e5;
    }
  </style>
  <path
    d="m 11,12.833 q -1.146,0 -1.948,-0.802 Q 8.25,11.229 8.25,10.083 V 4.583 q 0,-1.146 0.802,-1.948 0.802,-0.802 1.948,-0.802 1.146,0 1.948,0.802 0.802,0.802 0.802,1.948 v 5.5 q 0,1.146 -0.802,1.948 -0.802,0.802 -1.948,0.802 z m 0,-5.5 z M 10.083,19.25 V 16.431 Q 7.7,16.11 6.142,14.3 4.583,12.49 4.583,10.083 h 1.833 q 0,1.902 1.341,3.243 1.341,1.341 3.243,1.341 1.902,0 3.243,-1.341 1.341,-1.341 1.341,-3.243 h 1.833 q 0,2.406 -1.558,4.217 -1.558,1.81 -3.942,2.131 v 2.819 z m 0.917,-8.25 q 0.39,0 0.653,-0.264 0.264,-0.264 0.264,-0.653 V 4.583 q 0,-0.39 -0.264,-0.653 -0.264,-0.264 -0.653,-0.264 -0.39,0 -0.653,0.264 -0.264,0.264 -0.264,0.653 v 5.5 q 0,0.39 0.264,0.653 0.264,0.264 0.653,0.264 z"
    class="ColorScheme-Text" fill="currentColor" />
</svg>