<svg height="22" width="22" xmlns="http://www.w3.org/2000/svg">
  <style type="text/css" id="current-color-scheme">
    .ColorScheme-Text {
      color: #e2e2e5;
    }
  </style>
  <path
    d="M 6.417,17.417 H 8.25 V 15.583 H 6.417 Z m 0,-3.667 H 8.25 V 10.083 H 6.417 Z m 3.667,3.667 h 1.833 V 13.75 h -1.833 z m 0,-5.5 h 1.833 v -1.833 h -1.833 z m 3.667,5.5 h 1.833 V 15.583 H 13.75 Z m 0,-3.667 h 1.833 V 10.083 H 13.75 Z M 5.5,20.167 q -0.756,0 -1.295,-0.539 Q 3.667,19.09 3.667,18.333 V 7.333 l 5.5,-5.5 H 16.5 q 0.756,0 1.295,0.539 0.539,0.539 0.539,1.295 V 18.333 q 0,0.756 -0.539,1.295 Q 17.256,20.167 16.5,20.167 Z m 0,-1.833 h 11 V 3.667 H 9.946 L 5.5,8.113 Z m 0,0 h 11 z"
    class="ColorScheme-Text" fill="currentColor" />
</svg>