<svg height="22" width="22" xmlns="http://www.w3.org/2000/svg">
  <style type="text/css" id="current-color-scheme">
    .ColorScheme-Text {
      color: #e2e2e5;
    }
  </style>
  <path
    d="m 11,16.042 q 1.719,0 2.922,-1.203 1.203,-1.203 1.203,-2.922 0,-1.719 -1.203,-2.922 Q 12.719,7.792 11,7.792 q -1.719,0 -2.922,1.203 Q 6.875,10.198 6.875,11.917 q 0,1.719 1.203,2.922 Q 9.281,16.042 11,16.042 Z m 0,-1.833 q -0.963,0 -1.627,-0.665 -0.665,-0.665 -0.665,-1.627 0,-0.963 0.665,-1.627 Q 10.038,9.625 11,9.625 q 0.963,0 1.627,0.665 0.665,0.665 0.665,1.627 0,0.963 -0.665,1.627 Q 11.963,14.208 11,14.208 Z M 3.667,19.25 q -0.756,0 -1.295,-0.539 Q 1.833,18.173 1.833,17.417 V 6.417 q 0,-0.756 0.539,-1.295 0.539,-0.539 1.295,-0.539 h 2.888 L 8.25,2.75 h 5.5 l 1.696,1.833 h 2.888 q 0.756,0 1.295,0.539 0.539,0.539 0.539,1.295 V 17.417 q 0,0.756 -0.539,1.295 Q 19.09,19.25 18.333,19.25 Z m 0,-1.833 H 18.333 V 6.417 h -3.713 L 12.948,4.583 H 9.052 L 7.379,6.417 h -3.713 z M 11,11.917 Z"
    class="ColorScheme-Text" fill="currentColor" />
</svg>