<svg height="64" width="64" version="1.1" xmlns:svg="http://www.w3.org/2000/svg">
  <defs>
    <style id="current-color-scheme" type="text/css">
      .ColorScheme-Text {
        color: #e2e2e5;
      }

      .ColorScheme-ViewBackground {
        color: #1e2022;
      }

      .ColorScheme-ViewHover {
        color: #3daee9;
      }

      .ColorScheme-ViewFocus {
        color: #3daee9;
      }
    </style>
  </defs>
  <g id="base-topleft">
    <path d="M 5,0 A 5,5 0 0 0 0,5 h 5 z" class="ColorScheme-ViewBackground" fill="currentColor" />
    <path d="M 5,0 A 5,5 0 0 0 0,5 H 1 A 4,4 0 0 1 5,1 Z" class="ColorScheme-Text" fill="currentColor" opacity="0.2" />
  </g>
  <g id="base-top">
    <rect width="20" height="5" x="5" y="0" class="ColorScheme-ViewBackground" fill="currentColor" />
    <rect width="20" height="1" x="5" y="0" class="ColorScheme-Text" fill="currentColor" opacity="0.2" />
  </g>
  <g id="base-topright">
    <path d="M 30,5 A 5,5 0 0 0 25,0 v 5 z" class="ColorScheme-ViewBackground" fill="currentColor" />
    <path d="M 30,5 A 5,5 0 0 0 25,0 v 1 a 4,4 0 0 1 4,4 z" class="ColorScheme-Text" fill="currentColor"
      opacity="0.2" />
  </g>
  <g id="base-left">
    <rect width="5" height="20" x="0" y="5" class="ColorScheme-ViewBackground" fill="currentColor" />
    <rect width="1" height="20" x="0" y="5" class="ColorScheme-Text" fill="currentColor" opacity="0.2" />
  </g>
  <rect id="base-center" width="20" height="20" x="5" y="5" class="ColorScheme-ViewBackground" fill="currentColor" />
  <g id="base-right">
    <rect width="5" height="20" x="25" y="5" class="ColorScheme-ViewBackground" fill="currentColor" />
    <rect width="1" height="20" x="29" y="5" class="ColorScheme-Text" fill="currentColor" opacity="0.2" />
  </g>
  <g id="base-bottomleft">
    <path d="M 5,30 A 5,5 0 0 1 0,25 h 5 z" class="ColorScheme-ViewBackground" fill="currentColor" />
    <path d="M 5,30 A 5,5 0 0 1 0,25 h 1 a 4,4 0 0 0 4,4 z" class="ColorScheme-Text" fill="currentColor"
      opacity="0.2" />
  </g>
  <g id="base-bottom">
    <rect width="20" height="5" x="5" y="25" class="ColorScheme-ViewBackground" fill="currentColor" />
    <rect width="20" height="1" x="5" y="29" class="ColorScheme-Text" fill="currentColor" opacity="0.2" />
  </g>
  <g id="base-bottomright">
    <path d="m 25,30 a 5,5 0 0 0 5,-5 h -5 z" class="ColorScheme-ViewBackground" fill="currentColor" />
    <path d="m 25,30 a 5,5 0 0 0 5,-5 h -1 a 4,4 0 0 1 -4,4 z" class="ColorScheme-Text" fill="currentColor"
      opacity="0.2" />
  </g>
  <rect id="base-hint-top-margin" width="2" height="6" x="14" y="0" fill="#4e9a06" />
  <rect id="base-hint-left-margin" width="6" height="2" x="0" y="14" fill="#4e9a06" />
  <rect id="base-hint-right-margin" width="6" height="2" x="24" y="14" fill="#4e9a06" />
  <rect id="base-hint-bottom-margin" width="2" height="6" x="14" y="24" fill="#4e9a06" />
  <g id="hover-topleft">
    <path d="m 35,0 a 5,5 0 0 0 -5,5 h 1 a 4,4 0 0 1 4,-4 z" class="ColorScheme-ViewHover" fill="currentColor" />
  </g>
  <g id="hover-top">
    <rect width="20" height="5" x="35" y="0" fill="none" />
    <rect width="20" height="1" x="35" y="0" class="ColorScheme-ViewHover" fill="currentColor" />
  </g>
  <g id="hover-topright">
    <path d="m 55,0 a 5,5 0 0 1 5,5 H 59 A 4,4 0 0 0 55,1 Z" class="ColorScheme-ViewHover" fill="currentColor" />
  </g>
  <g id="hover-left">
    <rect width="5" height="20" x="30" y="5" fill="none" />
    <rect width="1" height="20" x="30" y="5" class="ColorScheme-ViewHover" fill="currentColor" />
  </g>
  <rect id="hover-center" height="20" width="20" x="35" y="5" fill="none" />
  <g id="hover-right">
    <rect width="5" height="20" x="55" y="5" fill="none" />
    <rect width="1" height="20" x="59" y="5" class="ColorScheme-ViewHover" fill="currentColor" />
  </g>
  <g id="hover-bottomleft">
    <path d="m 30,25 a 5,5 0 0 0 5,5 v -1 a 4,4 0 0 1 -4,-4 z" class="ColorScheme-ViewHover" fill="currentColor" />
  </g>
  <g id="hover-bottom">
    <rect width="20" height="5" x="35" y="25" fill="none" />
    <rect width="20" height="1" x="35" y="29" class="ColorScheme-ViewHover" fill="currentColor" />
  </g>
  <g id="hover-bottomright">
    <path d="m 60,25 a 5,5 0 0 1 -5,5 v -1 a 4,4 0 0 0 4,-4 z" class="ColorScheme-ViewHover" fill="currentColor" />
  </g>
  <rect id="hover-hint-top-margin" width="2" height="0.001" x="44" y="0" fill="#4e9a06" />
  <rect id="hover-hint-left-margin" width="0.001" height="2" x="30" y="14" fill="#4e9a06" />
  <rect id="hover-hint-right-margin" width="0.001" height="2" x="59.999" y="14" fill="#4e9a06" />
  <rect id="hover-hint-bottom-margin" width="2" height="0.001" x="44" y="29.999" fill="#4e9a06" />
  <g id="focus-topleft">
    <path d="M 5,30 A 5,5 0 0 0 0,35 H 1 A 4,4 0 0 1 5,31 Z" class="ColorScheme-ViewFocus" fill="currentColor" />
  </g>
  <g id="focus-top">
    <path d="m 5,30 h 20 v 5 H 5 Z" class="ColorScheme-ViewBackground" fill="none" />
    <rect width="20" height="1" x="5" y="30" class="ColorScheme-ViewFocus" fill="currentColor" />
  </g>
  <g id="focus-topright">
    <path d="m 30,35 a 5,5 0 0 0 -5,-5 v 1 a 4,4 0 0 1 4,4 z" class="ColorScheme-ViewFocus" fill="currentColor" />
  </g>
  <g id="focus-left">
    <rect width="5" height="20" x="0" y="35" fill="none" />
    <rect width="1" height="20" x="0" y="35" class="ColorScheme-ViewFocus" fill="currentColor" />
  </g>
  <rect id="focus-center" width="20" height="20" x="5" y="35" fill="none" />
  <g id="focus-right">
    <rect width="5" height="20" x="25" y="35" fill="none" />
    <rect width="1" height="20" x="29" y="35" class="ColorScheme-ViewFocus" fill="currentColor" />
  </g>
  <g id="focus-bottomleft">
    <path d="m 0,55 a 5,5 0 0 0 5,5 V 59 A 4,4 0 0 1 1,55 Z" class="ColorScheme-ViewFocus" fill="currentColor" />
  </g>
  <g id="focus-bottom">
    <rect width="20" height="5" x="5" y="55" fill="none" />
    <rect width="20" height="1" x="5" y="59" class="ColorScheme-ViewFocus" fill="currentColor" />
  </g>
  <g id="focus-bottomright">
    <path d="m 30,55 a 5,5 0 0 1 -5,5 v -1 a 4,4 0 0 0 4,-4 z" class="ColorScheme-ViewFocus" fill="currentColor" />
  </g>
  <rect id="focus-hint-top-margin" width="2" height="0.001" x="14" y="30" fill="#4e9a06" />
  <rect id="focus-hint-left-margin" width="0.001" height="2" x="0" y="44" fill="#4e9a06" />
  <rect id="focus-hint-right-margin" width="0.001" height="2" x="29.999" y="44" fill="#4e9a06" />
  <rect id="focus-hint-bottom-margin" width="2" height="0.001" x="14" y="59.999" fill="#4e9a06" />
  <g id="focusframe-topleft" class="ColorScheme-ViewFocus" fill="currentColor">
    <path d="m 37,30 a 7,7 0 0 0 -7,7 h 2 a 5,5 0 0 1 5,-5 z" opacity="0.33" />
    <path d="m 37,32 a 5,5 0 0 0 -5,5 h 1 a 4,4 0 0 1 4,-4 z" />
  </g>
  <g id="focusframe-top" class="ColorScheme-ViewFocus" fill="currentColor">
    <rect width="20" height="5" x="37" y="32" fill="none" />
    <rect width="20" height="2" x="37" y="30" opacity="0.33" />
    <rect width="20" height="1" x="37" y="32" />
  </g>
  <g id="focusframe-topright" class="ColorScheme-ViewFocus" fill="currentColor">
    <path d="m 64,37 a 7,7 0 0 0 -7,-7 v 2 a 5,5 0 0 1 5,5 z" opacity="0.33" />
    <path d="m 62,37 a 5,5 0 0 0 -5,-5 v 1 a 4,4 0 0 1 4,4 z" />
  </g>
  <g id="focusframe-left">
    <rect width="5" height="20" x="32" y="37" fill="none" />
    <rect width="2" height="20" x="30" y="37" class="ColorScheme-ViewFocus" fill="currentColor" opacity="0.33" />
    <rect width="1" height="20" x="32" y="37" class="ColorScheme-ViewFocus" fill="currentColor" />
  </g>
  <rect id="focusframe-center" width="20" height="20" x="37" y="37" fill="none" />
  <g id="focusframe-right" class="ColorScheme-ViewFocus" fill="currentColor">
    <rect width="5" height="20" x="57" y="37" fill="none" />
    <rect width="2" height="20" x="62" y="37" opacity="0.33" />
    <rect width="1" height="20" x="61" y="37" />
  </g>
  <g id="focusframe-bottomleft" class="ColorScheme-ViewFocus" fill="currentColor">
    <path d="m 37,64 a 7,7 0 0 1 -7,-7 h 2 a 5,5 0 0 0 5,5 z" opacity="0.33" />
    <path d="m 37,62 a 5,5 0 0 1 -5,-5 h 1 a 4,4 0 0 0 4,4 z" />
  </g>
  <g id="focusframe-bottom" class="ColorScheme-ViewFocus" fill="currentColor">
    <rect width="20" height="5" x="37" y="57" fill="none" />
    <rect width="20" height="2" x="37" y="62" opacity="0.33" />
    <rect width="20" height="1" x="37" y="61" />
  </g>
  <g id="focusframe-bottomright" class="ColorScheme-ViewFocus" fill="currentColor">
    <path d="m 57,64 a 7,7 0 0 0 7,-7 h -2 a 5,5 0 0 1 -5,5 z" opacity="0.33" />
    <path d="m 57,62 a 5,5 0 0 0 5,-5 h -1 a 4,4 0 0 1 -4,4 z" />
  </g>
  <rect id="focusframe-hint-top-margin" width="2" height="2" x="46" y="30" fill="#4e9a06" />
  <rect id="focusframe-hint-left-margin" width="2" height="2" x="30" y="46" fill="#4e9a06" />
  <rect id="focusframe-hint-right-margin" width="2" height="2" x="62" y="46" fill="#4e9a06" />
  <rect id="focusframe-hint-bottom-margin" width="2" height="2" x="46" y="62" fill="#4e9a06" />
  <circle id="hint-tile-center" cx="1" cy="1" r="1" fill="#4e9a06" />
  <circle id="hint-focus-over-base" cx="3" cy="1" r="1" fill="#4e9a06" />
</svg>